<?xml version="1.0" encoding="utf-8"?>
<!-- Generator: Adobe Illustrator 21.1.0, SVG Export Plug-In . SVG Version: 6.00 Build 0)  -->
<svg version="1.1" id="Layer_1" xmlns="http://www.w3.org/2000/svg" xmlns:xlink="http://www.w3.org/1999/xlink" x="0px" y="0px"
	 viewBox="0 0 100 100" style="enable-background:new 0 0 100 100;" xml:space="preserve">
<style type="text/css">
	.st0{fill:url(#SVGID_1_);}
	.st1{fill:url(#SVGID_2_);}
	.st2{fill:url(#SVGID_3_);}
	.st3{fill:url(#SVGID_4_);}
	.st4{fill:url(#SVGID_5_);}
	.st5{fill:url(#SVGID_6_);}
	.st6{fill:url(#SVGID_7_);}
</style>
<g>
	<g>
		
			<linearGradient id="SVGID_1_" gradientUnits="userSpaceOnUse" x1="105.5355" y1="85.3478" x2="14.6619" y2="-4.5891" gradientTransform="matrix(1 0 0 -1 0 102)">
			<stop  offset="0" style="stop-color:#006DFF"/>
			<stop  offset="1" style="stop-color:#43D2F1"/>
		</linearGradient>
		<path class="st0" d="M65.6,52v2h9.7c1.1,0,2-0.8,2-2v-9.7h-2C70,42.2,65.6,46.5,65.6,52z"/>
		
			<linearGradient id="SVGID_2_" gradientUnits="userSpaceOnUse" x1="104.506" y1="86.388" x2="13.6324" y2="-3.5488" gradientTransform="matrix(1 0 0 -1 0 102)">
			<stop  offset="0" style="stop-color:#006DFF"/>
			<stop  offset="1" style="stop-color:#43D2F1"/>
		</linearGradient>
		<path class="st1" d="M63.7,69.5H37.2l4.5-4.5c0.7-0.7,0.7-2,0-2.7s-2-0.7-2.7,0L31.2,70c-0.7,0.7-0.7,2,0,2.7l7.8,7.8
			c0.4,0.4,0.8,0.6,1.4,0.6s1-0.2,1.4-0.6c0.7-0.7,0.7-2,0-2.7l-4.6-4.4h26.5c1.1,0,2-0.8,2-2C65.6,70.3,64.7,69.5,63.7,69.5z"/>
		
			<linearGradient id="SVGID_3_" gradientUnits="userSpaceOnUse" x1="70.2879" y1="120.9626" x2="-20.5857" y2="31.0257" gradientTransform="matrix(1 0 0 -1 0 102)">
			<stop  offset="0" style="stop-color:#006DFF"/>
			<stop  offset="1" style="stop-color:#43D2F1"/>
		</linearGradient>
		<path class="st2" d="M34.4,20.8v-2h-9.7c-1,0-2,0.8-2,2v9.7h2C30,30.5,34.4,26.1,34.4,20.8z"/>
		
			<linearGradient id="SVGID_4_" gradientUnits="userSpaceOnUse" x1="83.1278" y1="107.9889" x2="-7.7458" y2="18.052" gradientTransform="matrix(1 0 0 -1 0 102)">
			<stop  offset="0" style="stop-color:#006DFF"/>
			<stop  offset="1" style="stop-color:#43D2F1"/>
		</linearGradient>
		<path class="st3" d="M34.4,52c0-5.3-4.4-9.7-9.7-9.7h-2V52c0,1,0.8,2,2,2h9.7V52z"/>
		
			<linearGradient id="SVGID_5_" gradientUnits="userSpaceOnUse" x1="92.6957" y1="98.3214" x2="1.822" y2="8.3845" gradientTransform="matrix(1 0 0 -1 0 102)">
			<stop  offset="0" style="stop-color:#006DFF"/>
			<stop  offset="1" style="stop-color:#43D2F1"/>
		</linearGradient>
		<path class="st4" d="M75.4,18.8h-9.7v2c0,5.3,4.4,9.7,9.7,9.7h2v-9.7C77.4,19.6,76.4,18.8,75.4,18.8z"/>
		
			<linearGradient id="SVGID_6_" gradientUnits="userSpaceOnUse" x1="87.8884" y1="103.1788" x2="-2.9853" y2="13.242" gradientTransform="matrix(1 0 0 -1 0 102)">
			<stop  offset="0" style="stop-color:#006DFF"/>
			<stop  offset="1" style="stop-color:#43D2F1"/>
		</linearGradient>
		<circle class="st5" cx="50" cy="36.3" r="2"/>
		
			<linearGradient id="SVGID_7_" gradientUnits="userSpaceOnUse" x1="87.9352" y1="103.1315" x2="-2.9384" y2="13.1947" gradientTransform="matrix(1 0 0 -1 0 102)">
			<stop  offset="0" style="stop-color:#006DFF"/>
			<stop  offset="1" style="stop-color:#43D2F1"/>
		</linearGradient>
		<path class="st6" d="M61.7,20.8v-2H38.3v2c0,7.5-6.1,13.7-13.7,13.7h-2v3.9h2c7.5,0,13.7,6.1,13.7,13.7v2h23.4v-2
			c0-7.5,6.1-13.7,13.7-13.7h2v-3.9h-2C67.8,34.4,61.7,28.3,61.7,20.8z M50,42.2c-3.2,0-5.8-2.6-5.8-5.8s2.6-5.8,5.8-5.8
			s5.8,2.6,5.8,5.8S53.2,42.2,50,42.2z"/>
	</g>
</g>
</svg>
