<?xml version="1.0" encoding="utf-8"?>
<!-- Generator: Adobe Illustrator 21.1.0, SVG Export Plug-In . SVG Version: 6.00 Build 0)  -->
<svg version="1.1" id="Layer_1" xmlns="http://www.w3.org/2000/svg" xmlns:xlink="http://www.w3.org/1999/xlink" x="0px" y="0px"
	 viewBox="0 0 100 100" style="enable-background:new 0 0 100 100;" xml:space="preserve">
<style type="text/css">
	.st0{fill:url(#SVGID_1_);}
</style>
<g>
	
		<linearGradient id="SVGID_1_" gradientUnits="userSpaceOnUse" x1="74.9505" y1="83.0422" x2="16.898" y2="28.4382" gradientTransform="matrix(1 0 0 -1 0 102)">
		<stop  offset="0" style="stop-color:#006DFF"/>
		<stop  offset="1" style="stop-color:#43D2F1"/>
	</linearGradient>
	<path class="st0" d="M26,24.4c15.5-4.1,32.6-4.1,48.1,0c0,9.1,0,18.2,0,27.4c0,13.7-20,27-24,27c-4,0-24-13.3-24-27
		C26,42.6,26,33.5,26,24.4z M58.6,39.6c-3.4,3.4-6.9,6.9-10.3,10.3c-2.3-2.3-4.6-4.6-6.9-6.9c-2.5-2.5-6.2,1.3-3.7,3.7
		c2.9,2.9,5.9,5.9,8.7,8.7l0,0c1,1,2.7,1,3.7,0l0,0c4.1-4.1,8.2-8.2,12.2-12.2C64.8,40.9,61.1,37.1,58.6,39.6L58.6,39.6z"/>
</g>
</svg>
