<?xml version="1.0" encoding="utf-8"?>
<!-- Generator: Adobe Illustrator 21.1.0, SVG Export Plug-In . SVG Version: 6.00 Build 0)  -->
<svg version="1.1" id="Layer_1" xmlns="http://www.w3.org/2000/svg" xmlns:xlink="http://www.w3.org/1999/xlink" x="0px" y="0px"
	 viewBox="0 0 100 100" style="enable-background:new 0 0 100 100;" xml:space="preserve">
<style type="text/css">
	.st0{fill:url(#SVGID_1_);}
	.st1{fill:url(#SVGID_2_);}
	.st2{fill:url(#SVGID_3_);}
	.st3{fill:url(#SVGID_4_);}
</style>
<g>
	
		<linearGradient id="SVGID_1_" gradientUnits="userSpaceOnUse" x1="78.3418" y1="83.4371" x2="18.7593" y2="22.0118" gradientTransform="matrix(1 0 0 -1 0 102)">
		<stop  offset="0" style="stop-color:#006DFF"/>
		<stop  offset="1" style="stop-color:#43D2F1"/>
	</linearGradient>
	<path class="st0" d="M77.5,49.6c0-1.4-0.8-2.8-2.1-3.6c-0.7-0.4-1.4-0.5-2.1-0.5c-0.1,0-0.2,0-0.2,0c0-1.1,0-2.3,0-3.4c0-1,0-2,0-3
		c0-0.2,0-0.4,0-0.6c0-1-0.2-1.9-0.7-2.8c-0.9-2-2.9-3.3-5.1-3.4c-0.3,0-0.6,0-0.9,0c-0.1,0-0.2,0-0.4,0c0-1,0-2,0-3
		c0-0.1,0-0.1,0-0.1c0-1.7-0.7-3.3-1.8-4.4c-1.2-1.2-2.8-1.8-4.4-1.8c-0.4,0-0.9,0-1.3,0c-2.7,0-5.4,0-8.1,0c-3.7,0-7.4,0-11.1,0
		c-2.9,0-5.7,0-8.6,0c-0.6,0-1.1,0-1.7,0c-3.1,0-6,2.3-6.4,5.4c-0.1,0.2-0.1,0.5-0.1,0.7c0,0.1-0.1,0.2-0.1,0.4c0,0.5,0,1,0,1.5
		c0,1.3,0,2.6,0,3.9c0,1.9,0,3.7,0,5.7c0,2.2,0,4.5,0,6.7c0,2.3,0,4.6,0,6.9c0,2.2,0,4.4,0,6.6c0,1.8,0,3.6,0,5.5c0,1.2,0,2.4,0,3.6
		c0,1,0,2,0.2,2.9c0.6,2,2.1,3.6,4.2,4.2c0.7,0.2,1.4,0.2,2,0.2c0.9,0,1.7,0,2.6,0c1.7,0,3.3,0,4.9,0c2.1,0,4.2,0,6.3,0
		c2.3,0,4.6,0,6.9,0c2.2,0,4.5,0,6.7,0c1.9,0,3.7,0,5.7,0c1.2,0,2.5,0,3.7,0c0.3,0,0.6,0,0.9,0c1,0,2-0.2,2.9-0.7
		c1.7-0.8,3.1-2.5,3.4-4.4c0.1-0.8,0.1-1.5,0.1-2.3c0-2,0-4,0-6c0.1,0,0.2,0,0.4,0c2.3,0,4.1-1.8,4.1-4.1c0-0.8,0-1.5,0-2.3
		c0-2.4,0-4.7,0-7.1C77.5,49.9,77.5,49.7,77.5,49.6L77.5,49.6L77.5,49.6z M73.9,59.6L73.9,59.6c0,0.1-0.1,0.2-0.1,0.2s0,0,0,0.1
		c0,0,0,0-0.1,0.1c-0.1,0-0.1,0.1-0.1,0.1h-0.1c-0.6,0.1-1,0-1.6,0c-1.3,0-2.6,0-3.9,0c-2.9,0-5.8,0-8.7,0c-0.7,0-1.5,0-2.3-0.1
		c-0.5-0.1-0.9-0.2-1.4-0.4c-0.3-0.2-0.7-0.3-1-0.6c-0.1-0.1-0.2-0.1-0.2-0.2c-0.2-0.1-0.4-0.3-0.5-0.4c-0.2-0.2-0.3-0.3-0.4-0.5
		c0,0,0,0,0-0.1c-0.1-0.1-0.1-0.1-0.1-0.2c-0.2-0.3-0.4-0.7-0.6-1c-0.2-0.4-0.3-0.9-0.4-1.4s-0.1-1,0-1.5c0.1-0.5,0.2-0.9,0.4-1.4
		c0.2-0.4,0.4-0.7,0.6-1c0.1-0.1,0.1-0.1,0.1-0.2c0,0,0-0.1,0.1-0.1c0.1-0.2,0.3-0.3,0.4-0.5c0.2-0.2,0.3-0.3,0.5-0.4
		c0,0,0.1,0,0.1-0.1c0.1-0.1,0.1-0.1,0.2-0.1c0.3-0.2,0.7-0.4,1-0.6c0.5-0.2,0.9-0.3,1.4-0.4c0.7-0.1,1.4-0.1,2-0.1
		c1.2,0,2.5,0,3.7,0c2.9,0,5.8,0,8.7,0c0.6,0,1.3-0.1,2,0h0.1c0.1,0,0.1,0.1,0.1,0.1s0,0,0.1,0c0,0,0,0,0.1,0.1
		c0,0.1,0.1,0.1,0.1,0.1c0,0.1,0,0.1,0,0.1l0,0c0,2.9,0,6,0,8.9C73.9,58.8,73.9,59.2,73.9,59.6z M54.5,58.9
		C54.6,59,54.6,59,54.5,58.9C54.6,59,54.5,59,54.5,58.9z M61.6,27C61.6,27,61.5,27,61.6,27C61.5,27,61.6,27,61.6,27z M27.2,27.1
		L27.2,27.1c0.1-0.1,0.1-0.1,0.1-0.1c0.1-0.1,0.1-0.1,0.1-0.1c0.1-0.1,0.3-0.2,0.5-0.2c0.2-0.1,0.5-0.1,0.7-0.2c0.4,0,0.7,0,1.1,0
		c0.7,0,1.5,0,2.2,0c2.5,0,5,0,7.4,0c3,0,6,0,9,0c2.6,0,5.2,0,7.8,0c1.2,0,2.4,0,3.6,0c0.1,0,0.2,0,0.4,0c0.2,0.1,0.5,0.1,0.7,0.2
		c0.2,0.1,0.3,0.2,0.5,0.2c0,0,0,0,0.1,0.1s0.2,0.2,0.2,0.2s0.1,0.1,0.2,0.2l-0.1-0.1c0,0.1,0.1,0.1,0.1,0.1c0,0,0,0,0.1,0.1
		c0.1,0.1,0.1,0.2,0.1,0.1c0.1,0.1,0.2,0.2,0.2,0.4c0.1,0.2,0.1,0.4,0.2,0.7c0,0.1,0,0.2,0,0.4c0,1,0,2.1,0,3.1c-1.6,0-3.3,0-4.9,0
		c-2.3,0-4.7,0-7,0c-2.5,0-4.9,0-7.4,0c-2.3,0-4.5,0-6.8,0c-1.7,0-3.4,0-5.1,0c-0.8,0-1.6,0-2.4,0c-0.1,0-0.2,0-0.2,0h-0.1
		c-0.2-0.1-0.6-0.1-0.8-0.2c-0.1,0-0.1-0.1-0.2-0.1c-0.1-0.1-0.2-0.1-0.4-0.2l-0.1-0.1c-0.1-0.1-0.2-0.2-0.2-0.2
		c-0.1-0.1-0.2-0.2-0.2-0.3l0,0l0,0c-0.1-0.2-0.2-0.4-0.3-0.6c-0.1-0.2-0.2-0.5-0.2-0.7s0-0.6,0-0.8c0.1-0.2,0.1-0.5,0.2-0.7
		c0.1-0.2,0.2-0.4,0.3-0.5c0,0,0.1-0.1,0.1-0.1c0.1-0.1,0.2-0.2,0.2-0.3C27.1,27.2,27.2,27.1,27.2,27.1C27.2,27,27.2,27,27.2,27.1z
		 M26.8,27.5C26.8,27.5,26.8,27.5,26.8,27.5C26.8,27.5,26.8,27.5,26.8,27.5z M26.7,27.6C26.6,27.6,26.6,27.7,26.7,27.6L26.7,27.6z"
		/>
	
		<linearGradient id="SVGID_2_" gradientUnits="userSpaceOnUse" x1="85.8397" y1="76.1641" x2="26.2572" y2="14.7388" gradientTransform="matrix(1 0 0 -1 0 102)">
		<stop  offset="0" style="stop-color:#006DFF"/>
		<stop  offset="1" style="stop-color:#43D2F1"/>
	</linearGradient>
	<path class="st1" d="M58.9,51.9c-1-0.4-2.3,0-3.1,0.9c-0.7,0.9-0.9,2.2-0.2,3.3c0.6,1,1.8,1.5,3,1.3c1.2-0.2,2.1-1.3,2.2-2.5
		c0-0.1,0.1-0.1,0-0.2C60.7,53.4,60,52.3,58.9,51.9z"/>
	
		<linearGradient id="SVGID_3_" gradientUnits="userSpaceOnUse" x1="56.2644" y1="104.8522" x2="-3.3181" y2="43.4269" gradientTransform="matrix(1 0 0 -1 0 102)">
		<stop  offset="0" style="stop-color:#006DFF"/>
		<stop  offset="1" style="stop-color:#43D2F1"/>
	</linearGradient>
	<path class="st2" d="M27.4,26.9c-0.1,0-0.1,0.1-0.1,0.1L27.2,27l0,0C27.4,27,27.4,26.9,27.4,26.9z"/>
	
		<linearGradient id="SVGID_4_" gradientUnits="userSpaceOnUse" x1="74.3552" y1="87.3041" x2="14.7727" y2="25.8789" gradientTransform="matrix(1 0 0 -1 0 102)">
		<stop  offset="0" style="stop-color:#006DFF"/>
		<stop  offset="1" style="stop-color:#43D2F1"/>
	</linearGradient>
	<path class="st3" d="M61.9,27.5L61.9,27.5C61.9,27.4,61.9,27.4,61.9,27.5c0,0,0.1,0.1,0.1,0.1C62,27.5,61.9,27.5,61.9,27.5z"/>
</g>
</svg>
