<?xml version="1.0" encoding="utf-8"?>
<!-- Generator: Adobe Illustrator 21.1.0, SVG Export Plug-In . SVG Version: 6.00 Build 0)  -->
<svg version="1.1" id="Layer_1" xmlns="http://www.w3.org/2000/svg" xmlns:xlink="http://www.w3.org/1999/xlink" x="0px" y="0px"
	 viewBox="0 0 100 100" style="enable-background:new 0 0 100 100;" xml:space="preserve">
<style type="text/css">
	.st0{fill:url(#SVGID_1_);}
	.st1{fill:url(#SVGID_2_);}
	.st2{fill:url(#SVGID_3_);}
</style>
<g>
	
		<linearGradient id="SVGID_1_" gradientUnits="userSpaceOnUse" x1="98.3338" y1="85.5173" x2="18.5382" y2="2.3619" gradientTransform="matrix(1 0 0 -1 0 102)">
		<stop  offset="0" style="stop-color:#006DFF"/>
		<stop  offset="1" style="stop-color:#43D2F1"/>
	</linearGradient>
	<path class="st0" d="M86.2,58c-1.5-3-4.9-4.7-8.9-4.7l0,0H76h-0.1h-3c-2.1-0.2-2.4-1.9-2.4-4v-0.7c2.7-2.7,5.5-6.4,5.5-11.9
		c0-7.4-2.2-12.6-8.7-13.6c-0.1,0-0.2,0-0.2,0c-0.7-0.1-1.4-0.2-2.3-0.2l0,0l0,0c-0.8,0-1.6,0.1-2.3,0.2c-0.1,0-0.2,0-0.2,0
		c-4.5,0.8-7,3.5-8,7.7c6.1,1.6,9.2,6.9,9.2,15.7c0,6-2.9,10.2-5.5,12.9c0,0.8,0.1,1.1,0.2,1.3h2.9h1.3c5,0,9.1,2.2,10.9,5.8
		c1.4-0.2,2.9-0.4,4.1-0.7c4.3-0.8,7.6-2.1,8.9-3.3c0.3-0.3,0.5-0.7,0.5-1C86.9,60.2,86.7,59,86.2,58z"/>
	
		<linearGradient id="SVGID_2_" gradientUnits="userSpaceOnUse" x1="78.5078" y1="104.5423" x2="-1.2879" y2="21.3868" gradientTransform="matrix(1 0 0 -1 0 102)">
		<stop  offset="0" style="stop-color:#006DFF"/>
		<stop  offset="1" style="stop-color:#43D2F1"/>
	</linearGradient>
	<path class="st1" d="M37.8,60.7h1.3H42c0.1-0.2,0.1-0.6,0.2-1.3c-2.5-2.7-5.5-6.9-5.5-12.9c0-8.7,3-13.9,9-15.6
		c-1-4.2-3.4-7.1-8-7.8c-0.1,0-0.2,0-0.2,0c-0.7-0.1-1.4-0.2-2.3-0.2l0,0l0,0c-0.8,0-1.6,0.1-2.3,0.2c-0.1,0-0.2,0-0.2,0
		c-6.6,1-8.8,6.2-8.8,13.6c0,5.5,2.9,9.2,5.5,11.9v0.7c0,2.2-0.3,3.9-2.4,4h-3h-0.1h-1.3l0,0c-4.4,0-8,1.9-9.2,5.5
		c-0.3,0.8-0.4,1.8-0.4,2.8c0,0.3,0.2,0.7,0.5,1c1.2,1.3,4.5,2.4,8.8,3.3c1.3,0.3,2.9,0.5,4.4,0.7C28.6,62.9,32.7,60.7,37.8,60.7z"
		/>
	
		<linearGradient id="SVGID_3_" gradientUnits="userSpaceOnUse" x1="95.6386" y1="88.1037" x2="15.8429" y2="4.9483" gradientTransform="matrix(1 0 0 -1 0 102)">
		<stop  offset="0" style="stop-color:#006DFF"/>
		<stop  offset="1" style="stop-color:#43D2F1"/>
	</linearGradient>
	<path class="st2" d="M70.8,66.8c-1.7-2.4-4.8-3.6-8.3-3.6l0,0h-1.3h-0.1h-3c-0.7-0.1-1.2-0.3-1.5-0.6c-0.8-0.8-0.9-2-0.9-3.4v-0.7
		c0.2-0.2,0.3-0.4,0.6-0.6c2.5-2.6,5-6.2,5-11.3c0-6.8-1.9-11.8-7.2-13.3c-0.4-0.2-0.8-0.3-1.3-0.3c-0.1,0-0.2,0-0.2,0
		c-0.7-0.1-1.4-0.2-2.3-0.2l0,0l0,0c-0.8,0-1.6,0.1-2.3,0.2c-0.1,0-0.2,0-0.2,0c-0.6,0.1-1.2,0.3-1.7,0.4c-5.2,1.6-7.1,6.5-7.1,13.2
		c0,5,2.4,8.5,4.8,11.1c0.3,0.3,0.5,0.5,0.8,0.8v0.8c0,1.6-0.2,2.9-1.1,3.6c-0.3,0.3-0.8,0.4-1.3,0.5h-3H39h-1.3l0,0
		c-3.5,0-6.6,1.3-8.2,3.7c-0.4,0.6-0.8,1.2-0.9,1.8c-0.3,0.8-0.4,1.8-0.4,2.8c0,0.3,0.2,0.7,0.5,1c1.2,1.3,4.5,2.4,8.9,3.3
		c3.8,0.8,8.2,1.3,12.7,1.3l0,0l0,0c4.5,0,8.9-0.5,12.7-1.3c4.3-0.8,7.6-2,8.9-3.3c0.3-0.3,0.5-0.7,0.5-1c0-1.3-0.3-2.5-0.8-3.5
		C71.2,67.4,71,67.1,70.8,66.8z"/>
</g>
</svg>
