<svg xmlns="http://www.w3.org/2000/svg" xmlns:xlink="http://www.w3.org/1999/xlink" viewBox="0 0 201.31 189.88"><defs><style>.cls-1{fill:#ecf8fc;}.cls-2{fill:#f3fdff;}.cls-3{fill:url(#linear-gradient);}.cls-4{fill:url(#linear-gradient-2);}.cls-5{fill:url(#linear-gradient-3);}.cls-6{fill:url(#linear-gradient-4);}</style><linearGradient id="linear-gradient" x1="57.22" y1="118.83" x2="143.47" y2="42.58" gradientUnits="userSpaceOnUse"><stop offset="0" stop-color="#006dff"/><stop offset="1" stop-color="#43d2f1"/></linearGradient><linearGradient id="linear-gradient-2" x1="92.82" y1="159.11" x2="179.07" y2="82.86" xlink:href="#linear-gradient"/><linearGradient id="linear-gradient-3" x1="79.66" y1="144.22" x2="165.91" y2="67.97" xlink:href="#linear-gradient"/><linearGradient id="linear-gradient-4" x1="60.41" y1="122.45" x2="146.66" y2="46.2" xlink:href="#linear-gradient"/></defs><title>02-03-01</title><g id="Layer_1" data-name="Layer 1"><path class="cls-1" d="M49.12,135.59a32.13,32.13,0,0,0,45.44.15l.15-.15,39.71-40.06a32.82,32.82,0,0,0,0-46l-39.71-40a32.13,32.13,0,0,0-45.44-.15l-.15.15L9.4,49.54a32.81,32.81,0,0,0,0,46Z"/><path class="cls-2" d="M124.51,141.82a25.72,25.72,0,0,0,36.37.12l.12-.12,32.78-33.07a26.27,26.27,0,0,0,0-36.81L161,38.88a25.72,25.72,0,0,0-36.37-.12l-.12.12L91.73,71.95a26.27,26.27,0,0,0,0,36.81Z"/><path class="cls-2" d="M42.69,182.29a25.72,25.72,0,0,0,36.37.12l.12-.12L112,149.22a26.27,26.27,0,0,0,0-36.81L79.18,79.35a25.72,25.72,0,0,0-36.37-.12l-.12.12L9.91,112.41a26.27,26.27,0,0,0,0,36.81Z"/></g><g id="_02-03-01" data-name="02-03-01"><path class="cls-3" d="M88.37,81.31a23.8,23.8,0,0,0,21.82,14.39,23.38,23.38,0,0,0,4.54-.44,23.62,23.62,0,0,0,19-23.13,2.57,2.57,0,0,0-2.46-2.65,2.55,2.55,0,0,0-2.64,2.44c0,.07,0,.13,0,.16A18.56,18.56,0,1,1,123,58.9l.12.12-6.34-.21a2.55,2.55,0,1,0-.37,5.09l12.2.4a2.51,2.51,0,0,0,1.83-.68,2.55,2.55,0,0,0,.82-1.79l-.4-12.19a2.56,2.56,0,0,0-.78-1.81,2.63,2.63,0,0,0-1.9-.71,2.55,2.55,0,0,0-2.43,2.66l.16,4.86-.12-.1A23.57,23.57,0,0,0,88.28,81.1Z"/><path class="cls-4" d="M122.66,122.74a10,10,0,1,0,10,10A10,10,0,0,0,122.66,122.74Zm0,14a4,4,0,1,1,4-4A4,4,0,0,1,122.66,136.74Z"/><path class="cls-5" d="M92.66,122.74a10,10,0,1,0,10,10A10,10,0,0,0,92.66,122.74Zm0,14a4,4,0,1,1,4-4A4,4,0,0,1,92.66,136.74Z"/><path class="cls-6" d="M144.84,73V73a3.14,3.14,0,0,0-4.23,2l-5.25,23.36-.13.57-45.59,3.62L80.09,78.74l-2.41-6-3.25-8.12a3.08,3.08,0,0,0-2.78-1.87h-14a3,3,0,0,0,0,6h12c5,12.3,9.86,24.62,14.78,36.94l-4.53,10.91a3,3,0,0,0,2.78,4.16h50a3,3,0,1,0,0-6H87.16l2.59-6.19,48.16-3.84a3.08,3.08,0,0,0,2.69-2.31l6-26A3.16,3.16,0,0,0,144.84,73Z"/></g></svg>