<svg xmlns="http://www.w3.org/2000/svg" xmlns:xlink="http://www.w3.org/1999/xlink" viewBox="0 0 201.31 189.88"><defs><style>.cls-1{fill:#ecf8fc;}.cls-2{fill:#f3fdff;}.cls-3{fill:url(#linear-gradient);}.cls-4{fill:url(#linear-gradient-2);}.cls-5{fill:url(#linear-gradient-3);}</style><linearGradient id="linear-gradient" x1="51.03" y1="61.76" x2="150.28" y2="61.76" gradientUnits="userSpaceOnUse"><stop offset="0" stop-color="#006dff"/><stop offset="1" stop-color="#43d2f1"/></linearGradient><linearGradient id="linear-gradient-2" x1="51.03" y1="94.71" x2="150.28" y2="94.71" xlink:href="#linear-gradient"/><linearGradient id="linear-gradient-3" x1="51.03" y1="128.1" x2="150.28" y2="128.1" xlink:href="#linear-gradient"/></defs><title>02-01-01</title><g id="Layer_1" data-name="Layer 1"><path class="cls-1" d="M49.12,135.59a32.13,32.13,0,0,0,45.44.15l.15-.15,39.71-40.06a32.82,32.82,0,0,0,0-46l-39.71-40a32.13,32.13,0,0,0-45.44-.15l-.15.15L9.4,49.54a32.81,32.81,0,0,0,0,46Z"/><path class="cls-2" d="M124.51,141.82a25.72,25.72,0,0,0,36.37.12l.12-.12,32.78-33.07a26.27,26.27,0,0,0,0-36.81L161,38.88a25.72,25.72,0,0,0-36.37-.12l-.12.12L91.73,71.95a26.27,26.27,0,0,0,0,36.81Z"/><path class="cls-2" d="M42.69,182.29a25.72,25.72,0,0,0,36.37.12l.12-.12L112,149.22a26.27,26.27,0,0,0,0-36.81L79.18,79.35a25.72,25.72,0,0,0-36.37-.12l-.12.12L9.91,112.41a26.27,26.27,0,0,0,0,36.81Z"/></g><g id="_02-01-01" data-name="02-01-01"><path class="cls-3" d="M146.16,57.64H93.72a15.3,15.3,0,0,0-29.52,0H55.15a4.12,4.12,0,1,0,0,8.24h9.06a15.3,15.3,0,0,0,29.52,0h52.44a4.12,4.12,0,0,0,0-8.24ZM78.9,68.9A7.14,7.14,0,1,1,86,61.76h0A7.14,7.14,0,0,1,78.9,68.9Z"/><path class="cls-4" d="M146.16,90.59h-9.47a15.3,15.3,0,0,0-29.52,0h-52a4.12,4.12,0,0,0,0,8.24h52a15.3,15.3,0,0,0,29.52,0h9.47a4.12,4.12,0,0,0,0-8.24ZM122,101.85a7.14,7.14,0,1,1,7-7.27s0,.09,0,.14A7.14,7.14,0,0,1,122,101.85Z"/><path class="cls-5" d="M146.16,123.54H104.84a15.38,15.38,0,0,0-29.38,0H55.15a4.12,4.12,0,1,0,0,8.24H75.33a15.24,15.24,0,0,0,29.65,0h41.18a4.12,4.12,0,1,0,0-8.24Zm-56,11.67a7.14,7.14,0,1,1,7.14-7.14h0A7.14,7.14,0,0,1,90.15,135.21Z"/></g></svg>