<?xml version="1.0" encoding="utf-8"?>
<!-- Generator: Adobe Illustrator 21.1.0, SVG Export Plug-In . SVG Version: 6.00 Build 0)  -->
<svg version="1.1" id="Layer_1" xmlns="http://www.w3.org/2000/svg" xmlns:xlink="http://www.w3.org/1999/xlink" x="0px" y="0px"
	 viewBox="0 0 100 100" style="enable-background:new 0 0 100 100;" xml:space="preserve">
<style type="text/css">
	.st0{fill:url(#SVGID_1_);}
	.st1{fill:url(#SVGID_2_);}
	.st2{fill:url(#SVGID_3_);}
	.st3{fill:url(#SVGID_4_);}
</style>
<g>
	
		<linearGradient id="SVGID_1_" gradientUnits="userSpaceOnUse" x1="64.5533" y1="108.8719" x2="-7.8789" y2="32.7061" gradientTransform="matrix(1 0 0 -1 0 102)">
		<stop  offset="0" style="stop-color:#006DFF"/>
		<stop  offset="1" style="stop-color:#43D2F1"/>
	</linearGradient>
	<path class="st0" d="M22,36c0,1.3,1,2.3,2.3,2.3v-4.6C23,33.6,22,34.7,22,36z"/>
	
		<linearGradient id="SVGID_2_" gradientUnits="userSpaceOnUse" x1="69.8685" y1="103.8172" x2="-2.5636" y2="27.6515" gradientTransform="matrix(1 0 0 -1 0 102)">
		<stop  offset="0" style="stop-color:#006DFF"/>
		<stop  offset="1" style="stop-color:#43D2F1"/>
	</linearGradient>
	<path class="st1" d="M26.7,45.4c1.3,0,2.3-1,2.3-2.3c0-1.3-1-2.3-2.3-2.3V45.4z"/>
	
		<linearGradient id="SVGID_3_" gradientUnits="userSpaceOnUse" x1="72.8943" y1="100.9397" x2="0.4621" y2="24.7739" gradientTransform="matrix(1 0 0 -1 0 102)">
		<stop  offset="0" style="stop-color:#006DFF"/>
		<stop  offset="1" style="stop-color:#43D2F1"/>
	</linearGradient>
	<path class="st2" d="M68.7,44.2l2.3,2.1V26.7c0-1.3-1-2.3-2.3-2.3H32.2L30.4,19c-0.4-0.9-1.2-1.6-2.2-1.6H17.3
		c-1.3,0-2.3,1-2.3,2.3V57c0,1.3,1,2.3,2.3,2.3h34.1L68.7,44.2z M31.3,43c0,2.5-2.1,4.6-4.6,4.6V50h-2.3v-2.3
		c-2.5,0-4.6-2.1-4.6-4.6h2.3c0,1.3,1,2.3,2.3,2.3v-4.6c-2.5,0-4.6-2.1-4.6-4.6s2.1-4.6,4.6-4.6v-2.3h2.3v2.2c2.5,0,4.6,2.1,4.6,4.6
		H29c0-1.3-1-2.3-2.3-2.3v4.6C29.2,38.4,31.3,40.4,31.3,43z"/>
	
		<linearGradient id="SVGID_4_" gradientUnits="userSpaceOnUse" x1="106.1703" y1="69.295" x2="33.7381" y2="-6.8708" gradientTransform="matrix(1 0 0 -1 0 102)">
		<stop  offset="0" style="stop-color:#006DFF"/>
		<stop  offset="1" style="stop-color:#43D2F1"/>
	</linearGradient>
	<path class="st3" d="M82.7,71h-2.3v-9.3H85L68.7,47.3L52.3,61.6h4.6V71h-2.3v4.6h-2.3v7H85v-7h-2.3V71z M61.6,61.6h4.6V71h-4.6
		V61.6z M75.7,71h-4.6v-9.3h4.6V71z"/>
</g>
</svg>
