<svg xmlns="http://www.w3.org/2000/svg" xmlns:xlink="http://www.w3.org/1999/xlink" viewBox="0 0 201.31 189.88"><defs><style>.cls-1{fill:#ecf8fc;}.cls-2{fill:#f3fdff;}.cls-3{fill:url(#linear-gradient);}</style><linearGradient id="linear-gradient" x1="56.87" y1="94.94" x2="144.44" y2="94.94" gradientUnits="userSpaceOnUse"><stop offset="0" stop-color="#006dff"/><stop offset="1" stop-color="#43d2f1"/></linearGradient></defs><title>02-02-01</title><g id="Layer_1" data-name="Layer 1"><path class="cls-1" d="M49.12,135.59a32.13,32.13,0,0,0,45.44.15l.15-.15,39.71-40.06a32.82,32.82,0,0,0,0-46l-39.71-40a32.13,32.13,0,0,0-45.44-.15l-.15.15L9.4,49.54a32.81,32.81,0,0,0,0,46Z"/><path class="cls-2" d="M124.51,141.82a25.72,25.72,0,0,0,36.37.12l.12-.12,32.78-33.07a26.27,26.27,0,0,0,0-36.81L161,38.88a25.72,25.72,0,0,0-36.37-.12l-.12.12L91.73,71.95a26.27,26.27,0,0,0,0,36.81Z"/><path class="cls-2" d="M42.69,182.29a25.72,25.72,0,0,0,36.37.12l.12-.12L112,149.22a26.27,26.27,0,0,0,0-36.81L79.18,79.35a25.72,25.72,0,0,0-36.37-.12l-.12.12L9.91,112.41a26.27,26.27,0,0,0,0,36.81Z"/></g><g id="_02-02-01" data-name="02-02-01"><path class="cls-3" d="M135,107.44a9.38,9.38,0,0,0-8.83,6.25h-6.8v-12.5h6.25a18.75,18.75,0,1,0,.07-37.5l-.87,0a25,25,0,0,0-48.39,0,18.75,18.75,0,1,0-1.68,37.46l.87,0h6.25v12.5h-6.8a9.37,9.37,0,1,0,0,6.25H85a3.13,3.13,0,0,0,3.13-3.12V101.19h9.38v25.55a9.37,9.37,0,1,0,6.25,0V101.19h9.38v15.63a3.13,3.13,0,0,0,3.13,3.13h9.92a9.37,9.37,0,1,0,8.83-12.5Zm-68.75,12.5a3.13,3.13,0,1,1,3.13-3.12A3.13,3.13,0,0,1,66.28,119.94Zm34.38,18.75a3.13,3.13,0,1,1,3.13-3.12A3.13,3.13,0,0,1,100.66,138.69ZM63.16,82.44A12.48,12.48,0,0,1,78.31,70.23,3.13,3.13,0,0,0,82,67.83q0-.13,0-.26a18.73,18.73,0,0,1,37.16,0,3.12,3.12,0,0,0,3.5,2.7l.27,0a12.5,12.5,0,1,1,2.66,24.71h-50A12.51,12.51,0,0,1,63.16,82.44ZM135,119.94a3.13,3.13,0,1,1,3.13-3.12A3.13,3.13,0,0,1,135,119.94Z"/></g></svg>