<?xml version="1.0" encoding="utf-8"?>
<!-- Generator: Adobe Illustrator 21.1.0, SVG Export Plug-In . SVG Version: 6.00 Build 0)  -->
<svg version="1.1" id="Layer_1" xmlns="http://www.w3.org/2000/svg" xmlns:xlink="http://www.w3.org/1999/xlink" x="0px" y="0px"
	 viewBox="0 0 100 100" style="enable-background:new 0 0 100 100;" xml:space="preserve">
<style type="text/css">
	.st0{fill:url(#SVGID_1_);}
	.st1{fill:url(#SVGID_2_);}
	.st2{fill:url(#SVGID_3_);}
	.st3{fill:url(#SVGID_4_);}
</style>
<g>
	
		<linearGradient id="SVGID_1_" gradientUnits="userSpaceOnUse" x1="98.0139" y1="86.5808" x2="16.6786" y2="6.8508" gradientTransform="matrix(1 0 0 -1 0 102)">
		<stop  offset="0" style="stop-color:#006DFF"/>
		<stop  offset="1" style="stop-color:#43D2F1"/>
	</linearGradient>
	<path class="st0" d="M85.3,58.7c0-1.3-0.2-2.4-0.7-3.4c-1.4-2.9-4.7-4.5-8.5-4.5l0,0h-1.2h-0.1h-2.9c-2-0.2-2.3-1.8-2.3-3.9v-0.6
		c2.6-2.6,5.3-6.1,5.3-11.4c0-7.1-2.1-12-8.3-13c-0.1,0-0.2,0-0.2,0c-0.6-0.1-1.4-0.2-2.2-0.2l0,0l0,0c-0.8,0-1.5,0.1-2.2,0.2
		c-0.1,0-0.2,0-0.2,0c-4.3,0.7-6.7,3.4-7.6,7.4c5.9,1.5,8.8,6.6,8.8,15c0,5.8-2.8,9.7-5.3,12.4c0,0.7,0.1,1,0.2,1.2h1.6
		c2.2-1.8,5-2.8,8-2.8c5.1,0,9.4,2.9,11.5,7.1c2.7-0.7,4.8-1.6,5.7-2.5C85.2,59.3,85.3,59,85.3,58.7z"/>
	
		<linearGradient id="SVGID_2_" gradientUnits="userSpaceOnUse" x1="80.1553" y1="104.799" x2="-1.1801" y2="25.069" gradientTransform="matrix(1 0 0 -1 0 102)">
		<stop  offset="0" style="stop-color:#006DFF"/>
		<stop  offset="1" style="stop-color:#43D2F1"/>
	</linearGradient>
	<path class="st1" d="M38.4,57.9h1.3h2.7c0.1-0.2,0.1-0.6,0.2-1.2c-2.4-2.6-5.3-6.6-5.3-12.4c0-8.3,2.9-13.3,8.6-14.9
		c-1-4-3.3-6.8-7.6-7.5c-0.1,0-0.2,0-0.2,0c-0.6-0.1-1.4-0.2-2.2-0.2l0,0l0,0c-0.8,0-1.5,0.1-2.2,0.2c-0.1,0-0.2,0-0.2,0
		c-6.3,1-8.4,5.9-8.4,13c0,5.3,2.7,8.8,5.3,11.4v0.6c0,2.1-0.2,3.7-2.3,3.9h-2.9h-0.1h-1.2l0,0c-4.2,0-7.6,1.8-8.8,5.2
		c-0.2,0.8-0.4,1.7-0.4,2.6c0,0.3,0.2,0.6,0.5,1c1.1,1.2,4.3,2.3,8.4,3.1c1.3,0.2,2.7,0.5,4.2,0.6C29.6,60,33.5,57.9,38.4,57.9z"/>
	
		<linearGradient id="SVGID_3_" gradientUnits="userSpaceOnUse" x1="93.2485" y1="91.4421" x2="11.9132" y2="11.712" gradientTransform="matrix(1 0 0 -1 0 102)">
		<stop  offset="0" style="stop-color:#006DFF"/>
		<stop  offset="1" style="stop-color:#43D2F1"/>
	</linearGradient>
	<path class="st2" d="M57.4,60.1c-0.5-0.1-0.8-0.2-1-0.6c-0.7-0.7-0.9-1.9-0.9-3.3v-0.6c0.2-0.2,0.3-0.4,0.6-0.6
		c2.4-2.5,4.7-5.9,4.7-10.8c0-6.5-1.8-11.2-6.9-12.7c-0.4-0.2-0.8-0.2-1.3-0.3c-0.1,0-0.2,0-0.2,0c-0.6-0.1-1.4-0.2-2.2-0.2l0,0l0,0
		c-0.8,0-1.5,0.1-2.2,0.2c-0.1,0-0.2,0-0.2,0c-0.6,0.1-1.1,0.2-1.6,0.4c-5,1.6-6.7,6.3-6.7,12.7c0,4.8,2.2,8.1,4.6,10.6
		c0.2,0.2,0.5,0.5,0.7,0.7v0.7c0,1.5-0.2,2.7-1,3.5c-0.3,0.2-0.7,0.4-1.3,0.5h-2.9h-0.1h-1.2l0,0c-3.4,0-6.3,1.2-7.9,3.5
		c-0.4,0.6-0.7,1.1-0.9,1.8c-0.2,0.8-0.4,1.7-0.4,2.6c0,0.3,0.2,0.6,0.5,1c1.1,1.2,4.3,2.3,8.5,3.1c3.6,0.7,7.9,1.2,12.1,1.2l0,0
		l0,0c1.9,0,3.9-0.1,5.8-0.2c-0.7-1.6-1.1-3.4-1.1-5.2C54.8,64.9,55.8,62.3,57.4,60.1z"/>
	
		<linearGradient id="SVGID_4_" gradientUnits="userSpaceOnUse" x1="109.3332" y1="75.0335" x2="27.9979" y2="-4.6965" gradientTransform="matrix(1 0 0 -1 0 102)">
		<stop  offset="0" style="stop-color:#006DFF"/>
		<stop  offset="1" style="stop-color:#43D2F1"/>
	</linearGradient>
	<path class="st3" d="M67.7,57.4c-5.8,0-10.4,4.7-10.4,10.4s4.7,10.4,10.4,10.4c5.8,0,10.4-4.7,10.4-10.4S73.4,57.4,67.7,57.4z
		 M69.8,67.8l2.4,2.4c0.6,0.6,0.6,1.6,0,2.2l0,0c-0.6,0.6-1.6,0.6-2.2,0L67.7,70l-2.4,2.4c-0.6,0.6-1.6,0.6-2.2,0l0,0
		c-0.6-0.6-0.6-1.6,0-2.2l2.4-2.4l-2.4-2.4c-0.6-0.6-0.6-1.6,0-2.2c0.6-0.6,1.6-0.6,2.2,0l2.4,2.4l2.4-2.4c0.6-0.6,1.6-0.6,2.2,0
		c0.6,0.6,0.6,1.6,0,2.2L69.8,67.8z"/>
</g>
</svg>
