<svg xmlns="http://www.w3.org/2000/svg" xmlns:xlink="http://www.w3.org/1999/xlink" viewBox="0 0 201.31 189.88"><defs><style>.cls-1{fill:#ecf8fc;}.cls-2{fill:#f3fdff;}.cls-3{fill:url(#linear-gradient);}.cls-4{fill:url(#linear-gradient-2);}.cls-5{fill:url(#linear-gradient-3);}.cls-6{fill:url(#linear-gradient-4);}.cls-7{fill:url(#linear-gradient-5);}.cls-8{fill:url(#linear-gradient-6);}</style><linearGradient id="linear-gradient" x1="39.58" y1="93.98" x2="125.08" y2="32.98" gradientUnits="userSpaceOnUse"><stop offset="0" stop-color="#006dff"/><stop offset="1" stop-color="#43d2f1"/></linearGradient><linearGradient id="linear-gradient-2" x1="50.8" y1="109.7" x2="136.3" y2="48.7" xlink:href="#linear-gradient"/><linearGradient id="linear-gradient-3" x1="62.02" y1="125.43" x2="147.52" y2="64.43" xlink:href="#linear-gradient"/><linearGradient id="linear-gradient-4" x1="66.58" y1="131.81" x2="152.08" y2="70.81" xlink:href="#linear-gradient"/><linearGradient id="linear-gradient-5" x1="77.8" y1="147.53" x2="163.3" y2="86.53" xlink:href="#linear-gradient"/><linearGradient id="linear-gradient-6" x1="55.36" y1="116.08" x2="140.86" y2="55.08" xlink:href="#linear-gradient"/></defs><title>02-03-02</title><g id="Layer_1" data-name="Layer 1"><path class="cls-1" d="M49.12,135.59a32.13,32.13,0,0,0,45.44.15l.15-.15,39.71-40.06a32.82,32.82,0,0,0,0-46l-39.71-40a32.13,32.13,0,0,0-45.44-.15l-.15.15L9.4,49.54a32.81,32.81,0,0,0,0,46Z"/><path class="cls-2" d="M124.51,141.82a25.72,25.72,0,0,0,36.37.12l.12-.12,32.78-33.07a26.27,26.27,0,0,0,0-36.81L161,38.88a25.72,25.72,0,0,0-36.37-.12l-.12.12L91.73,71.95a26.27,26.27,0,0,0,0,36.81Z"/><path class="cls-2" d="M42.69,182.29a25.72,25.72,0,0,0,36.37.12l.12-.12L112,149.22a26.27,26.27,0,0,0,0-36.81L79.18,79.35a25.72,25.72,0,0,0-36.37-.12l-.12.12L9.91,112.41a26.27,26.27,0,0,0,0,36.81Z"/></g><g id="_02-03-02" data-name="02-03-02"><path class="cls-3" d="M80.79,62.34a1.62,1.62,0,0,0-2.27.22L69.64,73.23l-4.38-4.38a1.62,1.62,0,0,0-2.28,0l-1.55,1.52a1.62,1.62,0,0,0,0,2.3L68.74,80a1.62,1.62,0,0,0,1.14.47H70a1.62,1.62,0,0,0,1.17-.57q4.3-5.11,8.56-10.25l3-3.62a1.62,1.62,0,0,0-.22-2.29Z"/><path class="cls-4" d="M80.79,86.07a1.62,1.62,0,0,0-2.27.22L69.64,97l-4.38-4.38a1.62,1.62,0,0,0-2.28,0l-1.55,1.52a1.62,1.62,0,0,0,0,2.3l7.31,7.31a1.62,1.62,0,0,0,1.14.47H70a1.62,1.62,0,0,0,1.17-.57q4.3-5.11,8.56-10.25l3-3.62a1.62,1.62,0,0,0-.22-2.29Z"/><path class="cls-5" d="M80.79,109.8a1.62,1.62,0,0,0-2.27.22l-8.88,10.67-4.38-4.38a1.62,1.62,0,0,0-2.28,0l-1.55,1.52a1.62,1.62,0,0,0,0,2.3l7.31,7.31a1.62,1.62,0,0,0,1.14.47H70a1.62,1.62,0,0,0,1.17-.57q4.3-5.11,8.56-10.25l3-3.62a1.62,1.62,0,0,0-.22-2.29Z"/><rect class="cls-6" x="88.31" y="95.04" width="52.05" height="5.39" rx="1.62" ry="1.62"/><rect class="cls-7" x="88.31" y="118.77" width="52.05" height="5.39" rx="1.62" ry="1.62"/><rect class="cls-8" x="88.31" y="71.31" width="52.05" height="5.39" rx="1.62" ry="1.62"/></g></svg>