<svg xmlns="http://www.w3.org/2000/svg" xmlns:xlink="http://www.w3.org/1999/xlink" viewBox="0 0 201.31 189.88"><defs><style>.cls-1{fill:#ecf8fc;}.cls-2{fill:#f3fdff;}.cls-3{fill:url(#linear-gradient);}.cls-4{fill:url(#linear-gradient-2);}.cls-5{fill:url(#linear-gradient-3);}.cls-6{fill:url(#linear-gradient-4);}.cls-7{fill:url(#linear-gradient-5);}.cls-8{fill:url(#linear-gradient-6);}</style><linearGradient id="linear-gradient" x1="82.54" y1="140.59" x2="148.54" y2="76.09" gradientUnits="userSpaceOnUse"><stop offset="0" stop-color="#006dff"/><stop offset="1" stop-color="#43d2f1"/></linearGradient><linearGradient id="linear-gradient-2" x1="57.24" y1="114.7" x2="123.24" y2="50.2" xlink:href="#linear-gradient"/><linearGradient id="linear-gradient-3" x1="62.96" y1="120.55" x2="128.96" y2="56.05" xlink:href="#linear-gradient"/><linearGradient id="linear-gradient-4" x1="86.74" y1="144.88" x2="152.74" y2="80.38" xlink:href="#linear-gradient"/><linearGradient id="linear-gradient-5" x1="68.59" y1="126.31" x2="134.59" y2="61.81" xlink:href="#linear-gradient"/><linearGradient id="linear-gradient-6" x1="83.62" y1="141.7" x2="149.62" y2="77.2" xlink:href="#linear-gradient"/></defs><title>02-02-02</title><g id="Layer_1" data-name="Layer 1"><path class="cls-1" d="M49.12,135.59a32.13,32.13,0,0,0,45.44.15l.15-.15,39.71-40.06a32.82,32.82,0,0,0,0-46l-39.71-40a32.13,32.13,0,0,0-45.44-.15l-.15.15L9.4,49.54a32.81,32.81,0,0,0,0,46Z"/><path class="cls-2" d="M124.51,141.82a25.72,25.72,0,0,0,36.37.12l.12-.12,32.78-33.07a26.27,26.27,0,0,0,0-36.81L161,38.88a25.72,25.72,0,0,0-36.37-.12l-.12.12L91.73,71.95a26.27,26.27,0,0,0,0,36.81Z"/><path class="cls-2" d="M42.69,182.29a25.72,25.72,0,0,0,36.37.12l.12-.12L112,149.22a26.27,26.27,0,0,0,0-36.81L79.18,79.35a25.72,25.72,0,0,0-36.37-.12l-.12.12L9.91,112.41a26.27,26.27,0,0,0,0,36.81Z"/></g><g id="_02-02-02" data-name="02-02-02"><path class="cls-3" d="M66.72,120.4a2.5,2.5,0,0,0,.09,5h67.65a2.5,2.5,0,1,0,0-5H66.72Z"/><path class="cls-4" d="M73.68,114.22a2.3,2.3,0,0,0,2.5-2.07v-27a1.83,1.83,0,0,0-.52-1.33,2.71,2.71,0,0,0-1.93-.79h-.33a2.21,2.21,0,0,0-2.22,2.07v27a1.84,1.84,0,0,0,.54,1.32,2.72,2.72,0,0,0,1.93.77Z"/><path class="cls-5" d="M60.57,86.12a2.48,2.48,0,0,0,1.9-.32l38.21-24.25L138.87,85.8a2.51,2.51,0,0,0,1.34.39,2.55,2.55,0,0,0,.55-.06,2.52,2.52,0,0,0,.8-4.58L102,56.49a2.52,2.52,0,0,0-2.7,0L59.81,81.55a2.51,2.51,0,0,0,.76,4.57Z"/><path class="cls-6" d="M143,129.54a2.44,2.44,0,0,0-1.7-.75H60a2.5,2.5,0,0,0,.09,5h81.11a2.61,2.61,0,0,0,1.78-.71,2.5,2.5,0,0,0,0-3.54Z"/><path class="cls-7" d="M104.41,101.84a6.11,6.11,0,0,1-3.73,1,6.24,6.24,0,0,1-3.59-1.09A2.31,2.31,0,0,1,96,100.17a2.5,2.5,0,0,0-2.46-2.54h0a2.52,2.52,0,0,0-2.5,2.52,7.13,7.13,0,0,0,3.13,5.65,10.64,10.64,0,0,0,4.06,1.81v1a2.5,2.5,0,0,0,2.46,2.54h0a2.48,2.48,0,0,0,1.74-.71,2.52,2.52,0,0,0,.76-1.81v-1a9.93,9.93,0,0,0,4.33-1.85,7.15,7.15,0,0,0,2.82-5.63,7,7,0,0,0-3.13-5.62A11.41,11.41,0,0,0,101,92.47l-.27,0h-.15a6.66,6.66,0,0,1-3.52-1.12A2.18,2.18,0,0,1,96,89.75a2.09,2.09,0,0,1,.93-1.68,6,6,0,0,1,3.76-1,6.24,6.24,0,0,1,3.59,1.09,2.23,2.23,0,0,1,1.06,1.62,2.5,2.5,0,0,0,2.46,2.54,2.44,2.44,0,0,0,1.78-.71,2.52,2.52,0,0,0,.76-1.81,7.13,7.13,0,0,0-3.09-5.68,10.46,10.46,0,0,0-4.06-1.79v-1a2.5,2.5,0,0,0-2.47-2.52l-.34,0a2.5,2.5,0,0,0-2.19,2.49v1a9.92,9.92,0,0,0-4.33,1.85A7.17,7.17,0,0,0,91,89.75a7,7,0,0,0,3.13,5.62,11.41,11.41,0,0,0,6.16,2.07h.49a6.79,6.79,0,0,1,3.51,1.15,2.19,2.19,0,0,1,1.06,1.57A2.09,2.09,0,0,1,104.41,101.84Z"/><path class="cls-8" d="M127.68,114.22a2.3,2.3,0,0,0,2.5-2.07v-27a1.83,1.83,0,0,0-.52-1.33,2.71,2.71,0,0,0-1.93-.79h-.33a2.21,2.21,0,0,0-2.22,2.07v27a1.84,1.84,0,0,0,.54,1.32,2.72,2.72,0,0,0,1.93.77Z"/></g></svg>