<svg xmlns="http://www.w3.org/2000/svg" xmlns:xlink="http://www.w3.org/1999/xlink" viewBox="0 0 201.31 189.88"><defs><style>.cls-1{fill:#ecf8fc;}.cls-2{fill:#f3fdff;}.cls-3{fill:url(#linear-gradient);}.cls-4{fill:url(#linear-gradient-2);}.cls-5{fill:url(#linear-gradient-3);}</style><linearGradient id="linear-gradient" x1="122" y1="94.93" x2="148.76" y2="94.93" gradientUnits="userSpaceOnUse"><stop offset="0" stop-color="#006dff"/><stop offset="1" stop-color="#43d2f1"/></linearGradient><linearGradient id="linear-gradient-2" x1="52.55" y1="94.94" x2="79.33" y2="94.94" xlink:href="#linear-gradient"/><linearGradient id="linear-gradient-3" x1="84.8" y1="94.94" x2="116.53" y2="94.94" xlink:href="#linear-gradient"/></defs><title>02-01-04</title><g id="Layer_1" data-name="Layer 1"><path class="cls-1" d="M49.12,135.59a32.13,32.13,0,0,0,45.44.15l.15-.15,39.71-40.06a32.82,32.82,0,0,0,0-46l-39.71-40a32.13,32.13,0,0,0-45.44-.15l-.15.15L9.4,49.54a32.81,32.81,0,0,0,0,46Z"/><path class="cls-2" d="M124.51,141.82a25.72,25.72,0,0,0,36.37.12l.12-.12,32.78-33.07a26.27,26.27,0,0,0,0-36.81L161,38.88a25.72,25.72,0,0,0-36.37-.12l-.12.12L91.73,71.95a26.27,26.27,0,0,0,0,36.81Z"/><path class="cls-2" d="M42.69,182.29a25.72,25.72,0,0,0,36.37.12l.12-.12L112,149.22a26.27,26.27,0,0,0,0-36.81L79.18,79.35a25.72,25.72,0,0,0-36.37-.12l-.12.12L9.91,112.41a26.27,26.27,0,0,0,0,36.81Z"/></g><g id="_02-01-04" data-name="02-01-04"><path class="cls-3" d="M147.76,92.6,127.92,72.76A3.46,3.46,0,0,0,123,77.65L140.42,95,123,112.44a3.46,3.46,0,0,0,0,4.89c.95.94,3.78,1.11,4.89,0l19.84-19.84A3.46,3.46,0,0,0,147.76,92.6Z"/><path class="cls-4" d="M78.31,72.75a3.46,3.46,0,0,0-4.89,0L53.56,92.6a3.46,3.46,0,0,0,0,4.89L73.4,117.35c1.11,1.11,3.95.94,4.89,0a3.46,3.46,0,0,0,0-4.89L60.9,95.08,78.31,77.67A3.47,3.47,0,0,0,78.31,72.75Z"/><path class="cls-5" d="M114.1,52a3.5,3.5,0,0,0-1-.16,3.44,3.44,0,0,0-3.29,2.44L85,133.63a3.55,3.55,0,0,0,.27,2.75,3.17,3.17,0,0,0,2,1.56,3.75,3.75,0,0,0,4.39-2.26l24.81-79.38A3.48,3.48,0,0,0,114.1,52Z"/></g></svg>