<svg xmlns="http://www.w3.org/2000/svg" xmlns:xlink="http://www.w3.org/1999/xlink" viewBox="0 0 201.31 189.88"><defs><style>.cls-1{fill:#ecf8fc;}.cls-2{fill:#f3fdff;}.cls-3{fill:url(#linear-gradient);}.cls-4{fill:url(#linear-gradient-2);}.cls-5{fill:url(#linear-gradient-3);}.cls-6{fill:url(#linear-gradient-4);}</style><linearGradient id="linear-gradient" x1="43.23" y1="109.68" x2="158.08" y2="109.68" gradientUnits="userSpaceOnUse"><stop offset="0" stop-color="#006dff"/><stop offset="1" stop-color="#43d2f1"/></linearGradient><linearGradient id="linear-gradient-2" x1="105.09" y1="147.31" x2="113.24" y2="147.31" xlink:href="#linear-gradient"/><linearGradient id="linear-gradient-3" x1="86.07" y1="147.32" x2="94.23" y2="147.32" xlink:href="#linear-gradient"/><linearGradient id="linear-gradient-4" x1="94.9" y1="147.32" x2="104.41" y2="147.32" xlink:href="#linear-gradient"/></defs><title>02-01-03</title><g id="Layer_1" data-name="Layer 1"><path class="cls-1" d="M49.12,135.59a32.13,32.13,0,0,0,45.44.15l.15-.15,39.71-40.06a32.82,32.82,0,0,0,0-46l-39.71-40a32.13,32.13,0,0,0-45.44-.15l-.15.15L9.4,49.54a32.81,32.81,0,0,0,0,46Z"/><path class="cls-2" d="M124.51,141.82a25.72,25.72,0,0,0,36.37.12l.12-.12,32.78-33.07a26.27,26.27,0,0,0,0-36.81L161,38.88a25.72,25.72,0,0,0-36.37-.12l-.12.12L91.73,71.95a26.27,26.27,0,0,0,0,36.81Z"/><path class="cls-2" d="M42.69,182.29a25.72,25.72,0,0,0,36.37.12l.12-.12L112,149.22a26.27,26.27,0,0,0,0-36.81L79.18,79.35a25.72,25.72,0,0,0-36.37-.12l-.12.12L9.91,112.41a26.27,26.27,0,0,0,0,36.81Z"/></g><g id="_02-01-03" data-name="02-01-03"><path class="cls-3" d="M158,142.42c-.23-1-5.91-25.69-20.73-30.73a115.94,115.94,0,0,0-20-4.87c3.5-6.19,7.92-16.24,8.47-23.94.57-8-1-19.87-4.65-25.14-6.71-9.78-19.92-9.89-20.48-9.89S86.88,48,80.18,57.74C76.57,63,75,74.88,75.52,82.87c.36,5,2.37,11,4.69,16.35,1.57,3.29,2.8,5.8,2.8,5.8q.5.94,1,1.79a115.84,115.84,0,0,0-20,4.87c-14.82,5-20.5,29.68-20.73,30.73a2.89,2.89,0,0,0,5.65,1.27c1.41-6.25,7.19-23.2,16.95-26.51a107.79,107.79,0,0,1,22.08-5,19.32,19.32,0,0,0,9.79,4.23v7.44H66.37c-4.89,0-8.86,3.47-8.86,7.74L61.11,164c.12,4.18,4,7.55,8.86,7.55h62.47c4.83,0,8.78-3.4,8.86-7.6l2.49-32.15v-.23c0-4.27-4-7.74-8.86-7.74H103.55v-7.44a19.29,19.29,0,0,0,9.79-4.23,107.6,107.6,0,0,1,22.08,5c9.75,3.31,15.54,20.26,16.95,26.51a2.89,2.89,0,0,0,5.65-1.27Zm-23.07-12.63c1.57,0,2.8.89,2.87,1.68l-2.48,32.09v.23c0,.81-1.26,1.75-2.88,1.75H70c-1.62,0-2.88-.94-2.88-1.75L63.5,131.43c.1-.78,1.32-1.65,2.87-1.65ZM111.11,106a8.1,8.1,0,0,1-.69.93,2.9,2.9,0,0,0-.51.54c-3.41,3.33-9.16,3.38-9.23,3.38h0c-.07,0-5.81,0-9.22-3.36a3,3,0,0,0-.53-.57,7.91,7.91,0,0,1-.68-.92l-.57-.94-3.06-5.79c-2.7-5.71-5-12.22-5.28-16.78-.56-7.78,1.15-17.81,3.65-21.45,5-7.27,15.6-7.38,15.71-7.38s10.71.1,15.7,7.38c2.5,3.65,4.21,13.67,3.65,21.45C119.55,89,115.12,99.54,111.11,106Z"/><path class="cls-4" d="M105.49,153.74a1.55,1.55,0,0,0,1.92,0l5.43-5.43a1.35,1.35,0,0,0,0-1.92L107.41,141a1.36,1.36,0,1,0-1.92,1.92l4.47,4.47-4.48,4.48A1.36,1.36,0,0,0,105.49,153.74Z"/><path class="cls-5" d="M91.9,153.75a1.55,1.55,0,0,0,1.92,0,1.36,1.36,0,0,0,0-1.92l-4.47-4.47,4.48-4.48A1.36,1.36,0,0,0,91.91,141l-5.44,5.43a1.36,1.36,0,0,0,0,1.92Z"/><path class="cls-6" d="M95.86,159.49a1.44,1.44,0,0,0,1.7-.89l6.79-21.74a1.36,1.36,0,1,0-2.59-.81L95,157.79A1.34,1.34,0,0,0,95.86,159.49Z"/></g></svg>