<svg xmlns="http://www.w3.org/2000/svg" xmlns:xlink="http://www.w3.org/1999/xlink" viewBox="0 0 201.31 189.88"><defs><style>.cls-1{fill:#ecf8fc;}.cls-2{fill:#f3fdff;}.cls-3{fill:url(#linear-gradient);}</style><linearGradient id="linear-gradient" x1="47.19" y1="94.94" x2="154.12" y2="94.94" gradientUnits="userSpaceOnUse"><stop offset="0" stop-color="#006dff"/><stop offset="1" stop-color="#43d2f1"/></linearGradient></defs><title>02-04-04</title><g id="Layer_1" data-name="Layer 1"><path class="cls-1" d="M49.12,135.59a32.13,32.13,0,0,0,45.44.15l.15-.15,39.71-40.06a32.82,32.82,0,0,0,0-46l-39.71-40a32.13,32.13,0,0,0-45.44-.15l-.15.15L9.4,49.54a32.81,32.81,0,0,0,0,46Z"/><path class="cls-2" d="M124.51,141.82a25.72,25.72,0,0,0,36.37.12l.12-.12,32.78-33.07a26.27,26.27,0,0,0,0-36.81L161,38.88a25.72,25.72,0,0,0-36.37-.12l-.12.12L91.73,71.95a26.27,26.27,0,0,0,0,36.81Z"/><path class="cls-2" d="M42.69,182.29a25.72,25.72,0,0,0,36.37.12l.12-.12L112,149.22a26.27,26.27,0,0,0,0-36.81L79.18,79.35a25.72,25.72,0,0,0-36.37-.12l-.12.12L9.91,112.41a26.27,26.27,0,0,0,0,36.81Z"/></g><g id="_02-04-04" data-name="02-04-04"><path class="cls-3" d="M150.35,44.27a12.87,12.87,0,0,0-19.6,16.54L115.47,76.09a16.69,16.69,0,0,0-19.71.49L85,65.84a9.93,9.93,0,1,0-3.46,3.48L92.34,80.1a16.63,16.63,0,0,0-3,7.73H72.71a12.86,12.86,0,1,0,0,4.91h16.8a16.76,16.76,0,0,0,14.1,13.65v17.46a12.86,12.86,0,1,0,4.91.06V106.36A16.72,16.72,0,0,0,119,79.45L134.3,64.2a12.87,12.87,0,0,0,16.05-19.93ZM76.25,65.43a4.7,4.7,0,1,1,4.7-4.7A4.7,4.7,0,0,1,76.25,65.43Zm-16.1,32a6.91,6.91,0,1,1,6.91-6.91A6.91,6.91,0,0,1,60.14,97.45Zm52.72,39.5A6.91,6.91,0,1,1,106,130,6.91,6.91,0,0,1,112.87,136.95Zm-6.92-35.46a11.66,11.66,0,1,1,11.66-11.66A11.67,11.67,0,0,1,105.94,101.49Zm35.62-41.25a6.91,6.91,0,1,1,6.91-6.91A6.91,6.91,0,0,1,141.57,60.24Z"/></g></svg>