<svg xmlns="http://www.w3.org/2000/svg" xmlns:xlink="http://www.w3.org/1999/xlink" viewBox="0 0 201.31 189.88"><defs><style>.cls-1{fill:#ecf8fc;}.cls-2{fill:#f3fdff;}.cls-3{fill:url(#linear-gradient);}.cls-4{fill:url(#linear-gradient-2);}.cls-5{fill:url(#linear-gradient-3);}.cls-6{fill:url(#linear-gradient-4);}</style><linearGradient id="linear-gradient" x1="124.73" y1="-897.1" x2="65.38" y2="-967.83" gradientTransform="matrix(1, 0, 0, -1, 0, -856.59)" gradientUnits="userSpaceOnUse"><stop offset="0" stop-color="#006dff"/><stop offset="1" stop-color="#43d2f1"/></linearGradient><linearGradient id="linear-gradient-2" x1="140.18" y1="-975.67" x2="127.63" y2="-990.63" xlink:href="#linear-gradient"/><linearGradient id="linear-gradient-3" x1="88.82" y1="-910.97" x2="64.54" y2="-939.9" xlink:href="#linear-gradient"/><linearGradient id="linear-gradient-4" x1="74.59" y1="-951.27" x2="70.73" y2="-955.87" xlink:href="#linear-gradient"/></defs><title>02-04-02</title><g id="Layer_1" data-name="Layer 1"><path class="cls-1" d="M49.12,135.59a32.13,32.13,0,0,0,45.44.15l.15-.15,39.71-40.06a32.82,32.82,0,0,0,0-46l-39.71-40a32.13,32.13,0,0,0-45.44-.15l-.15.15L9.4,49.54a32.81,32.81,0,0,0,0,46Z"/><path class="cls-2" d="M124.51,141.82a25.72,25.72,0,0,0,36.37.12l.12-.12,32.78-33.07a26.27,26.27,0,0,0,0-36.81L161,38.88a25.72,25.72,0,0,0-36.37-.12l-.12.12L91.73,71.95a26.27,26.27,0,0,0,0,36.81Z"/><path class="cls-2" d="M42.69,182.29a25.72,25.72,0,0,0,36.37.12l.12-.12L112,149.22a26.27,26.27,0,0,0,0-36.81L79.18,79.35a25.72,25.72,0,0,0-36.37-.12l-.12.12L9.91,112.41a26.27,26.27,0,0,0,0,36.81Z"/></g><g id="_02-04-02" data-name="02-04-02"><path class="cls-3" d="M127.49,76.37l13.82-14.53c4.86-5.3-3.09-12.82-8.4-7.51l-9.46,10a38.19,38.19,0,1,0,4,12ZM112.66,105A32,32,0,1,1,90,50.28a31.55,31.55,0,0,1,22.6,9.4A31.94,31.94,0,0,1,119,69L102.86,86.15,87.84,72c-5.3-4.86-12.82,3.09-7.51,8.4L98.88,98.53a5.6,5.6,0,0,0,7.91-.34l.09-.1L121.95,82.2A32,32,0,0,1,112.66,105Z"/><path class="cls-4" d="M148.76,128.38,136,115.58a9,9,0,0,0-6.4-2.6,8.6,8.6,0,0,0-3.9.9l-2.5-2.5a3,3,0,0,0-4.2,4.2l2.5,2.5a8.6,8.6,0,0,0-.9,3.9,9,9,0,0,0,2.6,6.4L136,141a9,9,0,0,0,6.4,2.7,9.35,9.35,0,0,0,6.4-2.6A9,9,0,0,0,148.76,128.38Zm-4.4,8.3a2.9,2.9,0,0,1-4.1.1l-.1-.1-12.7-12.6a3.1,3.1,0,0,1-.9-2.2,2.72,2.72,0,0,1,.9-2.1,2.88,2.88,0,0,1,2.1-.9,2.72,2.72,0,0,1,2.1.9l12.7,12.7a2.86,2.86,0,0,1,.21,4.06.39.39,0,0,1-.21.14Z"/><path class="cls-5" d="M93,59.28a3,3,0,0,0-3-3A25.41,25.41,0,0,0,71.66,64a26,26,0,0,0-7.6,17.4A3,3,0,0,0,67,84.5h.1a3.06,3.06,0,0,0,3-2.9,20.29,20.29,0,0,1,5.8-13.4A19.83,19.83,0,0,1,90,62.28,3,3,0,0,0,93,59.28Z"/><circle class="cls-6" cx="72.66" cy="96.98" r="3"/></g></svg>