<svg xmlns="http://www.w3.org/2000/svg" xmlns:xlink="http://www.w3.org/1999/xlink" viewBox="0 0 201.31 189.88"><defs><style>.cls-1{fill:#ecf8fc;}.cls-2{fill:#f3fdff;}.cls-3{fill:url(#linear-gradient);}.cls-4{fill:url(#linear-gradient-2);}.cls-5{fill:url(#linear-gradient-3);}</style><linearGradient id="linear-gradient" x1="69.61" y1="94.8" x2="132.07" y2="94.8" gradientUnits="userSpaceOnUse"><stop offset="0" stop-color="#006dff"/><stop offset="1" stop-color="#43d2f1"/></linearGradient><linearGradient id="linear-gradient-2" x1="54.31" y1="75.92" x2="140.25" y2="75.92" xlink:href="#linear-gradient"/><linearGradient id="linear-gradient-3" x1="61.05" y1="113.97" x2="147" y2="113.97" xlink:href="#linear-gradient"/></defs><title>02-02-03</title><g id="Layer_1" data-name="Layer 1"><path class="cls-1" d="M49.12,135.59a32.13,32.13,0,0,0,45.44.15l.15-.15,39.71-40.06a32.82,32.82,0,0,0,0-46l-39.71-40a32.13,32.13,0,0,0-45.44-.15l-.15.15L9.4,49.54a32.81,32.81,0,0,0,0,46Z"/><path class="cls-2" d="M124.51,141.82a25.72,25.72,0,0,0,36.37.12l.12-.12,32.78-33.07a26.27,26.27,0,0,0,0-36.81L161,38.88a25.72,25.72,0,0,0-36.37-.12l-.12.12L91.73,71.95a26.27,26.27,0,0,0,0,36.81Z"/><path class="cls-2" d="M42.69,182.29a25.72,25.72,0,0,0,36.37.12l.12-.12L112,149.22a26.27,26.27,0,0,0,0-36.81L79.18,79.35a25.72,25.72,0,0,0-36.37-.12l-.12.12L9.91,112.41a26.27,26.27,0,0,0,0,36.81Z"/></g><g id="_02-02-03" data-name="02-02-03"><path class="cls-3" d="M100.84,63.58A31.23,31.23,0,1,0,132.07,94.8,31.26,31.26,0,0,0,100.84,63.58ZM94.12,82.51c1.42-7.91,4.31-13.87,6.73-13.87s5.31,6,6.73,13.87l.1.55H94ZM75.26,100.27a25.52,25.52,0,0,1,.22-11.79l.09-.36H88.3l0,.51C88.1,90.69,88,92.77,88,94.8c0,1.7.06,3.49.19,5.34l0,.5H75.34Zm16.47,19a26.16,26.16,0,0,1-14.33-12.93l-.34-.68h11.7l.06.4a46.34,46.34,0,0,0,3.49,12.57l.49,1Zm.59-48.37A45.37,45.37,0,0,0,89,82.66l-.06.39H77.45l.38-.69A26.26,26.26,0,0,1,91.73,70.3l1.08-.4Zm15.39,35.3c-1.38,8.4-4.33,14.73-6.87,14.73s-5.5-6.33-6.88-14.73l-.09-.55h13.93Zm-14.42-5.6,0-.44c-.13-1.82-.19-3.59-.19-5.4,0-2.07.09-4.18.26-6.25l0-.43h14.94l0,.43c.17,2.07.26,4.18.26,6.25,0,1.8-.07,3.61-.19,5.4l0,.44M110,70.3a26.25,26.25,0,0,1,13.91,12.06l.38.69H112.78l-.06-.39a45.38,45.38,0,0,0-3.35-11.72l-.49-1Zm14.32,36.07A26.14,26.14,0,0,1,110,119.31l-1.08.4.49-1a46.46,46.46,0,0,0,3.49-12.57l.06-.4h11.7Zm2.07-5.73h-12.9l0-.5c.12-1.81.18-3.6.18-5.34,0-2-.08-4.1-.24-6.18l0-.51h12.73l.09.36a25.56,25.56,0,0,1,.22,11.8Z"/><path class="cls-4" d="M61,96.72h0a2.77,2.77,0,0,0,.47.36l.1.05a2.71,2.71,0,0,0,.48.2l.15,0a2.5,2.5,0,0,0,.6.08,2.6,2.6,0,0,0,.58-.07l.17-.05a2.57,2.57,0,0,0,.41-.17l.12,0,.27-.2.18-.15.16-.17.17-.2.12-.2c.05-.09.09-.15.12-.21a1.57,1.57,0,0,0,.07-.19,2.86,2.86,0,0,0,.09-.27,2,2,0,0,0,0-.23c0-.1,0-.19,0-.29v-.11a35.52,35.52,0,0,1,69.95-8.75,2.52,2.52,0,0,0,1.17,1.56,2.53,2.53,0,0,0,3.74-2.8,40.56,40.56,0,0,0-78.79.7l-.28,1.17L59,83.12a2.53,2.53,0,1,0-4.41,2.48l6,10.67A2.42,2.42,0,0,0,61,96.72Z"/><path class="cls-5" d="M146.91,106.19a2.5,2.5,0,0,0-.23-1.92h0l-6-10.58-.06-.09-.16-.22-.15-.18-.18-.16L140,92.9l-.19-.12-.23-.13-.25-.09-.22-.07-.23,0-.27,0h-.23l-.27,0-.23,0-.24.07-.24.11-.19.11-.23.16-.18.15-.16.17-.16.2-.12.19a2.09,2.09,0,0,0-.12.22,1.68,1.68,0,0,0-.08.2,2.75,2.75,0,0,0-.09.27,1.72,1.72,0,0,0,0,.22,2.21,2.21,0,0,0,0,.28V95A35.53,35.53,0,0,1,66,103.72,2.53,2.53,0,0,0,63,101.89,2.53,2.53,0,0,0,61.13,105a40.56,40.56,0,0,0,78.79-.71l.28-1.17,2.07,3.67a2.53,2.53,0,0,0,4.64-.56Z"/></g></svg>