<?xml version="1.0" encoding="utf-8"?>
<!-- Generator: Adobe Illustrator 21.1.0, SVG Export Plug-In . SVG Version: 6.00 Build 0)  -->
<svg version="1.1" id="Layer_1" xmlns="http://www.w3.org/2000/svg" xmlns:xlink="http://www.w3.org/1999/xlink" x="0px" y="0px"
	 viewBox="0 0 100 100" style="enable-background:new 0 0 100 100;" xml:space="preserve">
<style type="text/css">
	.st0{fill:url(#SVGID_1_);}
	.st1{fill:url(#SVGID_2_);}
</style>
<g>
	
		<linearGradient id="SVGID_1_" gradientUnits="userSpaceOnUse" x1="93.2183" y1="84.5439" x2="16.8638" y2="7.4333" gradientTransform="matrix(1 0 0 -1 0 102)">
		<stop  offset="0" style="stop-color:#006DFF"/>
		<stop  offset="1" style="stop-color:#43D2F1"/>
	</linearGradient>
	<path class="st0" d="M78.9,52.8c-2,0.8-5.3,1.8-8.8,2.8c-1.2,2.2-3.5,4-7.2,4.8c-0.8,0.2-1.8,0.3-2.9,0.4c-2.6,0.2-5.6,0-9-0.2
		c-0.2,0-0.5,0-0.7,0c-0.8-0.1-1.5-0.6-1.7-1.4c-0.2-1.1,0.7-1.9,1.7-1.9c0.3,0,0.5,0,0.8,0c4.3,0.2,8.5,0.4,11-0.2
		c4.7-1.1,6-4,5.5-6.4c-0.3-2-1.9-3.9-4.2-3.6c-3.3,0.4-7.3,0.3-11.1,0.2c-4.4-0.2-8.9-0.1-12.1,0.5c-3.6,0.5-10.7,3.5-16.9,8.1
		c-3,2.3-6.4,4.9-8.5,6.5c-1.1,0.8-1.2,2.3-0.3,3.3l9.8,11.6c0.8,1,2.3,1.1,3.3,0.3l3.3-2.8c0.8-0.7,1.8-0.9,2.8-0.6
		c6.3,1.7,13,2.8,17.4,2.8c9.6,0.2,27.4-11.8,32.4-15.6C88.8,57.5,84.7,50.3,78.9,52.8z"/>
	
		<linearGradient id="SVGID_2_" gradientUnits="userSpaceOnUse" x1="81.5407" y1="96.1071" x2="5.1861" y2="18.9965" gradientTransform="matrix(1 0 0 -1 0 102)">
		<stop  offset="0" style="stop-color:#006DFF"/>
		<stop  offset="1" style="stop-color:#43D2F1"/>
	</linearGradient>
	<path class="st1" d="M47,41.3c3.6,0,6.8-2,8.5-5h6c0.2,0,0.4-0.1,0.5-0.2l2.8-2.8l2.5,2.5c0.3,0.3,0.8,0.3,1.1,0l2.5-2.5l2.5,2.5
		c0.3,0.3,0.8,0.3,1.1,0l3.6-3.6c0.3-0.3,0.3-0.8,0-1.1l-3.9-3.9c-0.2-0.2-0.4-0.2-0.5-0.2H55.5c-1.7-2.9-4.8-5-8.5-5
		c-5.4,0-9.8,4.4-9.8,9.8C37.3,37,41.6,41.3,47,41.3z M43.6,28.8c1.5,0,2.7,1.2,2.7,2.7s-1.2,2.7-2.7,2.7s-2.7-1.2-2.7-2.7
		S42.1,28.8,43.6,28.8z"/>
</g>
</svg>
