<svg xmlns="http://www.w3.org/2000/svg" xmlns:xlink="http://www.w3.org/1999/xlink" viewBox="0 0 201.31 189.88"><defs><style>.cls-1{fill:#ecf8fc;}.cls-2{fill:#f3fdff;}.cls-3{fill:url(#linear-gradient);}</style><linearGradient id="linear-gradient" x1="144.7" y1="-396.16" x2="62.45" y2="-494.18" gradientTransform="matrix(1, 0, 0, -1, 0, -333)" gradientUnits="userSpaceOnUse"><stop offset="0" stop-color="#006dff"/><stop offset="1" stop-color="#43d2f1"/></linearGradient></defs><title>02-01-02</title><g id="Layer_1" data-name="Layer 1"><path class="cls-1" d="M49.12,135.59a32.13,32.13,0,0,0,45.44.15l.15-.15,39.71-40.06a32.82,32.82,0,0,0,0-46l-39.71-40a32.13,32.13,0,0,0-45.44-.15l-.15.15L9.4,49.54a32.81,32.81,0,0,0,0,46Z"/><path class="cls-2" d="M124.51,141.82a25.72,25.72,0,0,0,36.37.12l.12-.12,32.78-33.07a26.27,26.27,0,0,0,0-36.81L161,38.88a25.72,25.72,0,0,0-36.37-.12l-.12.12L91.73,71.95a26.27,26.27,0,0,0,0,36.81Z"/><path class="cls-2" d="M42.69,182.29a25.72,25.72,0,0,0,36.37.12l.12-.12L112,149.22a26.27,26.27,0,0,0,0-36.81L79.18,79.35a25.72,25.72,0,0,0-36.37-.12l-.12.12L9.91,112.41a26.27,26.27,0,0,0,0,36.81Z"/></g><g id="_02-01-02" data-name="02-01-02"><path class="cls-3" d="M158.35,143.06c-.24-1.05-5.93-25.76-20.79-30.82a116.27,116.27,0,0,0-20-4.89c3.51-6.21,7.94-16.29,8.49-24,.57-8-1-19.93-4.67-25.21-6.73-9.81-20-9.92-20.54-9.92S87,48.33,80.28,58.13c-3.61,5.28-5.28,17.2-4.67,25.22.36,5,2.38,11.08,4.71,16.4A8.79,8.79,0,0,1,71.8,91V71.81a29,29,0,0,1,58,0v20a2.9,2.9,0,0,0,2.9,2.9,12.37,12.37,0,0,0,2.86-24.4,34.82,34.82,0,0,0-69.58,0,12.37,12.37,0,0,0,.41,24.16,14.6,14.6,0,0,0,14.13,11h2.54q.5.94,1,1.79a116.19,116.19,0,0,0-20,4.89C49.22,117.29,43.53,142,43.3,143.06a2.92,2.92,0,0,0,5.7,1.27c1.41-6.27,7.22-23.27,17-26.59a108.11,108.11,0,0,1,22.14-5A19.38,19.38,0,0,0,98,117v26.76a2.9,2.9,0,1,0,5.8,0V116.93a19.35,19.35,0,0,0,9.82-4.24,107.92,107.92,0,0,1,22.14,5c9.78,3.32,15.58,20.32,17,26.59a2.9,2.9,0,0,0,5.66-1.27Zm-19-60.67a6.56,6.56,0,0,1-3.67,5.86V76.52a6.56,6.56,0,0,1,3.63,5.87Zm-77,0A6.56,6.56,0,0,1,66,76.52V88.25a6.56,6.56,0,0,1-3.67-5.86Zm35.3,17.37h-11C84,94,81.73,87.5,81.4,82.93c-.56-7.8,1.16-17.86,3.67-21.51,5-7.3,15.64-7.4,15.76-7.4s10.74.1,15.75,7.4c2.51,3.66,4.22,13.71,3.66,21.51-.47,6.55-4.91,17.12-8.94,23.57a8.13,8.13,0,0,1-.7.94,2.91,2.91,0,0,0-.51.55c-3.42,3.34-9.19,3.39-9.25,3.39h0c-.07,0-5.83,0-9.25-3.37a3,3,0,0,0-.54-.57,7.93,7.93,0,0,1-.69-.93l-.57-.94h7.86a2.9,2.9,0,1,0,0-5.8Z"/></g></svg>