<svg xmlns="http://www.w3.org/2000/svg" xmlns:xlink="http://www.w3.org/1999/xlink" viewBox="0 0 201.31 189.88"><defs><style>.cls-1{fill:#ecf8fc;}.cls-2{fill:#f3fdff;}.cls-3{fill:url(#linear-gradient);}.cls-4{fill:url(#linear-gradient-2);}</style><linearGradient id="linear-gradient" x1="61.74" y1="144.53" x2="166.74" y2="68.53" gradientUnits="userSpaceOnUse"><stop offset="0" stop-color="#006dff"/><stop offset="1" stop-color="#43d2f1"/></linearGradient><linearGradient id="linear-gradient-2" x1="52.23" y1="131.38" x2="157.23" y2="55.38" xlink:href="#linear-gradient"/></defs><title>02-02-04</title><g id="Layer_1" data-name="Layer 1"><path class="cls-1" d="M49.12,135.59a32.13,32.13,0,0,0,45.44.15l.15-.15,39.71-40.06a32.82,32.82,0,0,0,0-46l-39.71-40a32.13,32.13,0,0,0-45.44-.15l-.15.15L9.4,49.54a32.81,32.81,0,0,0,0,46Z"/><path class="cls-2" d="M124.51,141.82a25.72,25.72,0,0,0,36.37.12l.12-.12,32.78-33.07a26.27,26.27,0,0,0,0-36.81L161,38.88a25.72,25.72,0,0,0-36.37-.12l-.12.12L91.73,71.95a26.27,26.27,0,0,0,0,36.81Z"/><path class="cls-2" d="M42.69,182.29a25.72,25.72,0,0,0,36.37.12l.12-.12L112,149.22a26.27,26.27,0,0,0,0-36.81L79.18,79.35a25.72,25.72,0,0,0-36.37-.12l-.12.12L9.91,112.41a26.27,26.27,0,0,0,0,36.81Z"/></g><g id="_02-02-04" data-name="02-02-04"><path class="cls-3" d="M127.57,110.75l-1.7-5.06c12.62-3.07,17.72-11.1,19.16-13.95a3.19,3.19,0,0,0-.11-3.06c-2.19-3.62-5.86-10.21-6.41-12.52-3.42-14.35-12-22.58-23.45-22.58a3.18,3.18,0,1,0,0,6.36c11.76,0,16,12.37,17.23,17.69.75,3.15,4.28,9.45,6.19,12.71-2.36,3.58-8.73,10.23-23.42,10.23a3.18,3.18,0,1,0,0,6.36c1.55,0,3-.07,4.41-.19l2.73,8.1a3.2,3.2,0,0,0,3,2.16c4,0,9.24,1.67,13.41,4.26,4.53,2.8,7.12,6.21,7.12,9.35a3.19,3.19,0,0,0,6.39,0C152.16,119.74,137.95,111.82,127.57,110.75Z"/><path class="cls-4" d="M106.86,112.31h-3.41l-3-4.31a26.55,26.55,0,0,0,7.42-14.87c3.64-1,5.28-3.7,5.28-6.17V80.24c0-1.93-1.2-3.76-3.39-5.22V71.26c2.5-3.48,3-7.29,1.33-10.78-2.22-4.69-7.91-7.72-14.49-7.72a23.15,23.15,0,0,0-13.1,4.18c-12.2.22-17.41,4.19-17.41,13.24V75c-2.22,1.48-3.39,3.27-3.39,5.21V87c0,2.31,1.41,5.17,5.28,6.18a26.59,26.59,0,0,0,7.54,15l-2.85,4.2H69.3c-11.67,0-20.14,7.69-20.14,18.28v3.36a3.2,3.2,0,0,0,5.46,2.24,3.15,3.15,0,0,0,.93-2.24v-3.36c0-7,5.66-11.92,13.75-11.92h5.08a3.2,3.2,0,0,0,2.65-1.4l3.66-5.4a15.73,15.73,0,0,0,14.64-.07l3.82,5.5a3.19,3.19,0,0,0,2.63,1.38h5.08c7.93,0,13.48,4.9,13.48,11.92v3.36a3.19,3.19,0,0,0,6.39,0v-3.36C126.73,119.83,118.56,112.31,106.86,112.31Zm-18.92-5a10.68,10.68,0,0,1-6.39-2.34l0,0,0,0a19.62,19.62,0,0,1-7.3-14.57A3.19,3.19,0,0,0,71,87.14a4.16,4.16,0,0,1-1.89-.35v-6a6.29,6.29,0,0,1,1.51-1,3.19,3.19,0,0,0,1.88-2.9V70.18c0-3.39,0-6.89,12.06-6.89a3.25,3.25,0,0,0,1.91-.63,16.91,16.91,0,0,1,10.15-3.54c4,0,7.57,1.68,8.7,4.08.71,1.5.31,3.16-1.19,4.95a3.18,3.18,0,0,0-.74,2v6.71a3.18,3.18,0,0,0,1.89,2.9,6.77,6.77,0,0,1,1.5,1V86.8a4.16,4.16,0,0,1-1.89.34,3.19,3.19,0,0,0-3.2,3.18C101.69,98,95.35,107.28,87.94,107.28Z"/></g></svg>