<svg id="Layer_1" data-name="Layer 1" xmlns="http://www.w3.org/2000/svg" viewBox="0 0 139.53 60"><defs><style>.cls-1{fill:#000268;}.cls-2{fill:#fff;}.cls-3{fill:#ff0007;}</style></defs><title>06-giro</title><g id="layer1"><path id="_92653320" data-name=" 92653320" class="cls-1" d="M0,10.77A10.79,10.79,0,0,1,10.82,0H128.71a10.79,10.79,0,0,1,10.82,10.77V49.24A10.79,10.79,0,0,1,128.71,60H10.82A10.79,10.79,0,0,1,0,49.24V10.77Z"/><path id="_92186184" data-name=" 92186184" class="cls-2" d="M4.44,11.13V48.87A6.75,6.75,0,0,0,11.2,55.6H73V4.41H11.2a6.75,6.75,0,0,0-6.76,6.73ZM88.93,29.81c0,2.4-1.19,4.05-3.16,4.05-1.74,0-3.19-1.65-3.19-3.85s1.27-3.94,3.19-3.94S88.93,27.82,88.93,29.81ZM77.38,43.6h5.21V35.4h.06a5.24,5.24,0,0,0,4.78,2.46c4.49,0,6.89-3.7,6.89-8.16,0-3.65-2.29-7.62-6.46-7.62a6,6,0,0,0-5.62,3.07h-.06V22.43h-4.8Zm24.05-10.86c0-1.45,1.39-2,3.16-2,.78,0,1.53.05,2.2.09a3.4,3.4,0,0,1-3.21,3.56C102.35,34.39,101.43,33.78,101.43,32.74Zm10.51,4.78a18.58,18.58,0,0,1-.29-3.56V28.34c0-4.6-3.33-6.26-7.18-6.26a15.57,15.57,0,0,0-6,1.07l.09,3.53a9.77,9.77,0,0,1,4.8-1.13c1.88,0,3.41.55,3.45,2.61a15.2,15.2,0,0,0-2.43-.21c-2.78,0-7.79.55-7.79,5.15,0,3.27,2.66,4.75,5.64,4.75A5.17,5.17,0,0,0,107,35.14H107c0,.78.09,1.56.12,2.37Zm2.34,6.08a15.16,15.16,0,0,0,3.24.35c4.78,0,5.91-3.68,7.38-7.47l5.53-14h-5.21l-3.1,9.84h-.06l-3.24-9.84h-5.61l6.11,15.43a2.65,2.65,0,0,1-2.64,2.09,6.26,6.26,0,0,1-2.06-.32Z"/><path id="_47303032" data-name=" 47303032" class="cls-3" d="M17.17,29.84c0-2.06,1-3.77,3-3.77a3.3,3.3,0,0,1,3.33,3.56c0,2.32-1.48,3.88-3.33,3.88C18.56,33.52,17.17,32.19,17.17,29.84Zm11.32-7.41H23.77v2.72h-.05a5.9,5.9,0,0,0-5.13-3.07c-4.69,0-6.8,3.36-6.8,7.85s2.58,7.58,6.71,7.58a5.88,5.88,0,0,0,5.07-2.58h.06v.81c0,3-1.62,4.37-4.63,4.37a10.37,10.37,0,0,1-5.1-1.24L13.64,43a17.51,17.51,0,0,0,5.76,1c6.08,0,9.09-2,9.09-8.2Zm8.81-6.28H32.08V20h5.21ZM32.09,37.52h5.21V22.43H32.09ZM51.8,22.26A11.27,11.27,0,0,0,50,22.08c-2.26,0-3.56,1.22-4.46,3.13h-.06V22.43H40.78V37.52H46V31.15c0-3,1.36-4.72,3.79-4.72a6.08,6.08,0,0,1,1.77.17Zm9,12c-2.4,0-3.39-2-3.39-4.23s1-4.26,3.39-4.26,3.39,2,3.39,4.26S63.18,34.22,60.78,34.22Zm0,3.65c5,0,8.77-2.89,8.77-7.87s-3.79-7.91-8.77-7.91S52,25,52,30,55.8,37.86,60.78,37.86Z"/></g></svg>