<svg xmlns="http://www.w3.org/2000/svg" width="79.01" height="95.292" viewBox="0 0 79.01 95.292">
    <defs>
        <linearGradient id="linear-gradient" x1=".5" x2=".5" y2="1" gradientUnits="objectBoundingBox">
            <stop offset="0" stop-color="#006dff"/>
            <stop offset="1" stop-color="#43d2f1"/>
        </linearGradient>
    </defs>
    <path id="Unión_115" fill="url(#linear-gradient)" stroke="rgba(0,0,0,0)" stroke-miterlimit="10" d="M-2050.188-3419.136a4.89 4.89 0 0 1-4.013-4.192c-.329-2.029-.624-4.065-.935-6.1-.091-.592-.181-1.041-.948-1.26a2.8 2.8 0 0 1-2.079-2.752c-.038-.816-.051-1.638-.018-2.454a3.112 3.112 0 0 1 3.171-3.2c.113-.005.224-.027.4-.049 0-2.111.05-4.2-.023-6.282a2.373 2.373 0 0 0-1.525-2.058c-8.757-4.342-14.228-11.4-15.971-21.162a28.278 28.278 0 0 1 7.009-24.729 26.851 26.851 0 0 1 17.84-9.2 27.394 27.394 0 0 1 21.46 6.811 1.371 1.371 0 0 1 .331 1.989 1.261 1.261 0 0 1-2.023.137 26.107 26.107 0 0 0-10.486-5.542 25.38 25.38 0 0 0-26.687 9.586c-9.434 12.654-5.609 31.153 8.037 38.786.7.391 1.45.695 2.148 1.089a4.871 4.871 0 0 1 2.577 4.459c.027 2.025.006 4.05.006 6.119h15.323v-2.047c0-1.183.039-2.369-.009-3.55a5.206 5.206 0 0 1 3.166-5.291 25.334 25.334 0 0 0 8.156-6.2 26.02 26.02 0 0 0 6.565-19.275 26.287 26.287 0 0 0-4.445-13.135 2.153 2.153 0 0 1-.491-1.38 1.733 1.733 0 0 1 1.022-1.166 1.756 1.756 0 0 1 1.47.674 41.735 41.735 0 0 1 3.192 5.957 29.266 29.266 0 0 1-10.074 34.511 39.945 39.945 0 0 1-4.3 2.552 2.731 2.731 0 0 0-1.594 2.687c.041 1.874.01 3.75.01 5.483a10.53 10.53 0 0 1 2.158.76c2.011 1.263 2.114 6.018.185 7.418a11.988 11.988 0 0 1-1.633.826c-.34 2.132-.729 4.422-1.066 6.72a4.968 4.968 0 0 1-5.043 4.526h-1.514c-1.081-.008-1.62-.452-1.636-1.341-.016-.914.547-1.38 1.679-1.387h.5c.337 0 .673.009 1.009-.011a2.19 2.19 0 0 0 2.223-1.858c.391-2.11.682-4.238 1.01-6.359a2.53 2.53 0 0 0-.037-.459h-.972c-2.316 0-4.632.012-6.948-.007-1.031-.009-1.632-.557-1.623-1.4.009-.812.662-1.366 1.671-1.369 3.325-.008 6.65-.021 9.976.012.732.007.992-.209.969-.977-.063-2.2.242-2.172-1.439-2.148-.185 0-.4.005-.633.005q-9.619-.014-19.238 0c-1.167 0-1.177 0-1.167 1.228.018 1.914-.212 1.9 1.156 1.88.193 0 .417-.005.679 0h1.346c.531 0 1.062 0 1.594.006a1.454 1.454 0 0 1 1.581 1.372c.022.793-.579 1.348-1.54 1.389-.56.024-1.12 0-1.854 0 .129.878.241 1.665.36 2.45.2 1.316.406 2.63.6 3.947a2.366 2.366 0 0 0 2.513 2.29c.249.005.5 0 .749 0 .314 0 .629 0 .943.009a1.313 1.313 0 0 1 1.318 1.4 1.292 1.292 0 0 1-1.3 1.315c-.493.009-.99.034-1.484.034a8.412 8.412 0 0 1-1.354-.087zm37.161-35.07a43.1 43.1 0 0 1-3.744-2.167 1.374 1.374 0 0 1-.433-1.955 1.346 1.346 0 0 1 1.889-.652 42.938 42.938 0 0 1 3.831 2.211c.346.222.509.729.638.924a1.609 1.609 0 0 1-1.5 1.806 1.5 1.5 0 0 1-.681-.167zm-64.455-.606a1.507 1.507 0 0 1 .607-2.083c1.169-.723 2.356-1.426 3.584-2.042 1.072-.539 2.2.213 2.175 1.7a3.477 3.477 0 0 1-.793.964c-1.091.718-2.239 1.354-3.387 1.982a1.878 1.878 0 0 1-.9.245 1.461 1.461 0 0 1-1.287-.765zm19.466-3.672c-1.29 0-1.668-.378-1.675-1.7-.01-2.254-.019-4.506 0-6.759a7.974 7.974 0 0 1 8.2-8.223h.647a9.783 9.783 0 0 1-.068-14.216 9.629 9.629 0 0 1 13.344.037 9.753 9.753 0 0 1-.056 14.117 17.98 17.98 0 0 1 2 .145 8.019 8.019 0 0 1 6.81 8.216c.049 2.253.02 4.505.005 6.759-.008 1.246-.416 1.628-1.671 1.628h-27.532zm22.106-4.377c.007.6 0 1.206 0 1.841h4.528c0-2.03.013-4 0-5.965a5.422 5.422 0 0 0-5.505-5.667q-7.376-.093-14.754 0a5.463 5.463 0 0 0-5.5 5.676c.1 1.578.019 3.167.019 4.75v1.174h4.529c0-.678-.007-1.289 0-1.9.012-.895.488-1.409 1.277-1.4.756.009 1.208.5 1.228 1.367.015.653 0 1.308 0 1.948h11.662c0-.658-.007-1.263 0-1.868.013-.939.438-1.436 1.226-1.445h.022c.803 0 1.256.53 1.267 1.49zm-8.352-26.662a7.256 7.256 0 0 0-7.164 7.094 7.222 7.222 0 0 0 7.169 7.254 7.3 7.3 0 0 0 7.18-7.089 7.278 7.278 0 0 0-7.163-7.259zm36.881 16.687c-.727-.052-1.458-.041-2.189-.03-.41.006-.822.012-1.231.008a1.532 1.532 0 0 1-1.661-1.5 1.547 1.547 0 0 1 1.652-1.519c.427-.009.855 0 1.282 0 .68.011 1.361.021 2.038-.028a2.076 2.076 0 0 1 2.267 1.229v.606a1.936 1.936 0 0 1-1.918 1.239q-.117.005-.241-.003zm-74.375-.026a1.518 1.518 0 0 1-1.477-1.478 1.5 1.5 0 0 1 1.435-1.527c1.44-.041 2.885-.042 4.324 0a1.5 1.5 0 0 1 1.425 1.533 1.51 1.51 0 0 1-1.484 1.47c-.7.029-1.408.006-2.112.006-.432 0-.864.009-1.3.009-.269.004-.541 0-.812-.012zm64.522-17.658a1.777 1.777 0 0 1 .318-1.6 26.867 26.867 0 0 1 4.151-2.432 1.73 1.73 0 0 1 1.551.518c.29.367.379 1.412.13 1.6-1.466 1.117-3.055 2.071-4.746 3.172-.611-.516-1.254-.805-1.405-1.257zm-56.283.68c-1.112-.623-2.22-1.252-3.309-1.917a1.516 1.516 0 0 1-.63-2.146 1.485 1.485 0 0 1 2.1-.526c1.178.641 2.336 1.322 3.482 2.018a1.343 1.343 0 0 1 .649 1.809c-.245.49-.822.811-1.193 1.154a8.2 8.2 0 0 1-1.1-.39zm45.281-11.576a1.51 1.51 0 0 1-.562-2.229c.628-1.143 1.278-2.276 1.966-3.384a1.324 1.324 0 0 1 1.691-.718 6.1 6.1 0 0 1 1.35 1.214c-.228.553-.323.876-.483 1.162-.6 1.081-1.21 2.161-1.848 3.22a1.66 1.66 0 0 1-1.388.931 1.511 1.511 0 0 1-.727-.194zm-33.9-.436a23.114 23.114 0 0 1-2.279-4 1.815 1.815 0 0 1 .528-1.608c.344-.291 1.4-.355 1.593-.1 1.113 1.479 2.063 3.08 3.176 4.806-.539.57-.884 1.234-1.374 1.368a1.283 1.283 0 0 1-.334.04 1.791 1.791 0 0 1-1.315-.504zm16.329-6.1a24.867 24.867 0 0 1 .036-3.618 5.8 5.8 0 0 1 .919-1.767h1.212a2.35 2.35 0 0 1 .975 2.164c-.053 1.071.009 2.146-.019 3.22a1.559 1.559 0 0 1-1.562 1.724 1.557 1.557 0 0 1-1.566-1.721z" data-name="Unión 115" transform="translate(2083.734 3513.834)"/>
</svg>
