<svg xmlns="http://www.w3.org/2000/svg" width="89.589" height="85.361" viewBox="0 0 89.589 85.361">
    <defs>
        <linearGradient id="linear-gradient" x1=".5" x2=".5" y2="1" gradientUnits="objectBoundingBox">
            <stop offset="0" stop-color="#006dff"/>
            <stop offset="1" stop-color="#43d2f1"/>
        </linearGradient>
    </defs>
    <path id="Unión_116" fill="url(#linear-gradient)" stroke="rgba(0,0,0,0)" stroke-miterlimit="10" d="M154.83 84.235c-8.632-2.174-17.281-4.283-25.9-6.518a12.123 12.123 0 0 1-2.93-1.755v-3.555c1.973-7.574 3.976-15.139 5.908-22.723 1.164-4.57 1.114-4.581 5.648-3.44 2.278.573 4.568 1.1 6.833 1.718 3.095.846 3.3 1.7.98 3.942-1.508 1.46-2.266 3.345-.884 4.968a5.914 5.914 0 0 0 4.178 1.8c2.354-.072 3.421-2.562 2.644-5.2-.967-3.282-.394-3.872 2.976-3.062 2.761.663 5.519 1.335 8.282 1.986 2.01.474 2.771 1.557 2.1 3.663-.619 1.942-1 3.961-1.489 5.953 6.044 1.087 9.031 4.636 7.864 9.2-1.232 4.817-5.509 6.7-11.253 4.722-.514 2.07-1.048 4.113-1.526 6.172-.351 1.513-1.1 2.278-2.373 2.278a4.368 4.368 0 0 1-1.058-.149zm-25.421-9.916l25.545 6.421c.658-2.666 1.225-5.044 1.834-7.412.838-3.267 1.6-3.327 4.218-1.229a5.591 5.591 0 0 0 4.4.972 3.287 3.287 0 0 0 2.127-4.735c-1.007-2.454-2.918-2.955-5.326-2.193-2.785.88-3.633.111-2.986-2.744.435-1.918 1-3.8 1.5-5.7.358-1.353.144-2.306-1.5-2.515-1.238-.156-2.453-.495-3.652-.747-2.059 6.368-5.029 8.915-9.341 7.722a9.676 9.676 0 0 1-4.3-2.832c-2.267-2.517-1.705-5.57-.526-8.565l-5.822-1.422-6.171 24.979zm71.784-26.612c-2.871-1.259-5.839-2.293-8.7-3.564-.809-.358-1.814-1.126-1.959-1.859-.108-.548.911-1.5 1.618-2 1.857-1.317 2.633-2.948 1.661-5.081-.923-2.027-2.679-2.547-4.682-1.941-2.13.644-2.768 2.295-2.512 4.406.443 3.641-.129 4.1-3.485 2.79-2.647-1.033-5.275-2.116-7.926-3.142-1.78-.69-2.471-1.724-1.6-3.65.886-1.952 1.569-4 2.343-6.01-5.681-1.577-8.231-5.625-6.512-10.222 1.706-4.568 6.1-5.78 11.907-3.178.785-1.9 1.672-3.766 2.321-5.71s1.816-2.429 3.61-1.7c8.269 3.336 16.544 6.654 24.791 10.043 2.283.939 3.01 2.746 2.087 5.067Q209.307 34.137 204.4 46.3c-.435 1.083-1.018 1.72-1.939 1.72a3.2 3.2 0 0 1-1.268-.313zm-8.207-17.652c4.338 1.738 5.524 6.072 3.146 11.92l5.439 2.165c3.255-8.14 6.369-15.929 9.529-23.84l-24.341-9.851c-1.164 2.881-2.088 5.361-3.163 7.775-1.056 2.373-2.261 2.477-3.733.321-1.311-1.921-2.834-3.035-5.175-1.9a3.557 3.557 0 0 0-1.959 4.7c.8 2.371 2.727 2.84 5.03 2.4 2.494-.478 3.314.439 2.455 2.769-.94 2.556-2.005 5.065-3.09 7.781l5.5 2.247c1.549-4.57 4.389-7.031 7.636-7.031a7.3 7.3 0 0 1 2.726.544zM145.171 45.02c-4.737-1.053-6.711-5.2-5.134-11.1-2.112-.422-4.2-.891-6.313-1.247-1.975-.335-2.594-1.366-2.211-3.334 1.6-8.2 3.1-16.41 4.672-24.61C137 .49 138.238-.5 142.122.211c8.09 1.486 16.149 3.147 24.246 4.6 2.335.419 2.906 1.424 2.366 3.663-.691 2.859-1.022 5.8-1.644 8.683-.589 2.734-1.738 3.091-3.687 1.144-1.7-1.7-3.492-2.244-5.472-.709a3.611 3.611 0 0 0-.846 5.036c1.256 2.09 3.163 2.3 5.37 1.242 2.3-1.105 3.388-.251 2.972 2.266-.529 3.2-1.145 6.382-1.8 9.557-.348 1.69-1.233 2.516-3.171 1.994-1.969-.531-4.026-.729-6.234-1.1-.934 5.535-3.729 8.623-7.439 8.623a7.414 7.414 0 0 1-1.612-.19zm-10.176-15.409c2.834.506 5.352.872 7.823 1.442a3.57 3.57 0 0 1 2.326 1.427c.229.526-.53 1.715-1.132 2.327-1.633 1.659-2.022 3.409-.545 5.243a3.55 3.55 0 0 0 4.974.987c2.024-1.225 2.255-3 1.414-5.111-1.126-2.823-.553-3.57 2.477-3.159 2.585.349 5.146.862 7.885 1.331l1.246-5.748c-6.6-1.349-9.271-4.3-8.386-9.118.846-4.611 4.738-6.522 11.045-5.258l.967-5.814-25.175-4.539c-1.675 8.854-3.288 17.379-4.919 25.99z" data-name="Unión 116" transform="translate(-125.5 .48)"/>
</svg>
