<svg width="48" height="32" viewBox="0 0 48 32" fill="none" xmlns="http://www.w3.org/2000/svg">
<mask id="mask0" mask-type="alpha" maskUnits="userSpaceOnUse" x="0" y="0" width="48" height="32">
<rect width="48" height="32" fill="white"/>
</mask>
<g mask="url(#mask0)">
<path d="M19.2739 19.7117C19.134 19.7841 18.9765 19.8259 18.8091 19.8259C18.4215 19.8259 18.0846 19.6076 17.9077 19.2845L17.84 19.1328L15.0181 12.7936C14.9877 12.7247 14.9688 12.6467 14.9688 12.5708C14.9688 12.2786 15.2002 12.042 15.4856 12.042C15.6014 12.042 15.7086 12.0812 15.7947 12.1468L19.1247 14.5741C19.3679 14.7368 19.6586 14.8324 19.9711 14.8324C20.1576 14.8324 20.3354 14.7969 20.5012 14.7351L36.1608 7.60002C33.3538 4.21342 28.731 2 23.4997 2C14.9391 2 8 7.92014 8 15.2235C8 19.2076 10.0877 22.7943 13.3556 25.2185C13.6177 25.4102 13.7894 25.7249 13.7894 26.0802C13.7894 26.1977 13.7648 26.3049 13.7347 26.417C13.4737 27.4136 13.056 29.0098 13.0366 29.0846C13.004 29.2096 12.9532 29.3403 12.9532 29.4712C12.9532 29.7633 13.1844 30 13.4702 30C13.5821 30 13.6738 29.9573 13.7684 29.9016L17.1617 27.8959C17.417 27.7453 17.6872 27.6516 17.985 27.6516C18.1434 27.6516 18.2964 27.6768 18.4403 27.7219C20.0233 28.188 21.7313 28.447 23.4998 28.447C32.0599 28.447 39 22.5265 39 15.2235C39 13.0114 38.3596 10.9281 37.2343 9.09554L19.3875 19.6447L19.2739 19.7117Z" fill="#1AAD19"/>
</g>
</svg>
