<svg width="70" height="48" viewBox="0 0 70 48" fill="none" xmlns="http://www.w3.org/2000/svg">
<g clip-path="url(#clip0)">
<path d="M27.004 36.2031H31.1653L31.8589 38.4375H34.4597L30.4718 27.4375H27.871L23.8831 38.4375H26.3105L27.004 36.2031ZM29.0847 30.0156L30.4718 34.3125H27.6976L29.0847 30.0156ZM23.1895 35.1719C23.1895 34.1406 22.8427 32.9375 21.4556 32.4219C21.9758 32.25 22.8427 31.7344 22.8427 30.1875C22.8427 28.9844 22.1492 27.4375 19.375 27.4375H14V38.4375H18.6815C20.9355 38.4375 21.629 38.0938 22.1492 37.4063C22.8427 36.8906 23.1895 36.0313 23.1895 35.1719ZM16.254 29.3281H18.8548C19.8952 29.3281 20.5887 29.6719 20.5887 30.5313C20.5887 31.3906 19.8952 31.7344 19.0282 31.7344H16.254V29.3281ZM19.0282 36.5469H16.254V33.625H19.2016C20.0685 33.625 20.9355 33.9688 20.9355 35C20.9355 36.0313 20.2419 36.5469 19.0282 36.5469ZM52.3185 31.9063L57.1734 38.4375H54.2258L50.7581 33.625L49.5444 34.6563V38.4375H47.2903V27.4375H49.5444V31.9063L53.7056 27.4375H56.6532L52.3185 31.9063ZM23.8831 44.625C23.8831 43.5938 23.7097 43.4219 23.1895 43.25C23.7097 43.0781 24.0565 42.5625 24.0565 41.875C24.0565 41.3594 23.7097 40.3281 22.3226 40.3281H19.375V46H20.5887V43.7656H21.8024C22.6694 43.5938 22.6694 43.9375 22.6694 44.7969C22.6694 45.3125 22.6694 45.6563 22.8427 46H24.2298V45.8281C23.8831 45.6563 23.8831 45.4844 23.8831 44.625ZM21.9758 42.7344H20.5887V41.1875H22.1492C22.8427 41.1875 23.0161 41.7031 23.0161 41.875C22.8427 42.5625 22.496 42.7344 21.9758 42.7344ZM25.7903 17.8125C25.7903 17.6406 25.7903 17.2969 25.7903 16.9531C25.7903 16.6094 25.7903 16.2656 25.9637 15.75C25.9637 15.2344 26.1371 14.8906 26.3105 14.375C26.4839 13.8594 26.6573 13.3438 26.8306 12.8281C26.8306 12.4844 26.8306 12.3125 27.004 11.9688C27.1774 11.625 27.3508 11.4531 27.5242 11.2813C27.871 10.7656 28.2177 10.25 28.5645 9.73438C29.0847 9.21875 29.6048 8.875 29.9516 8.53125C30.4718 8.1875 30.9919 7.84375 31.5121 7.5C32.0323 7.15625 32.5524 6.98438 33.0726 6.64063C33.5927 6.29688 34.1129 6.125 34.4597 5.95313C35.1532 5.60938 35.6734 5.4375 36.1935 5.26563C36.0202 4.75 35.8468 4.23438 35.6734 3.71875C35.5 3.20313 35.5 2.51563 35.3266 1.82812C36.0202 2 36.5403 2.34375 37.0605 2.51563C37.5806 2.85938 38.1008 3.03125 38.4476 3.375C39.3145 4.0625 40.1815 4.75 40.875 5.60937C41.3952 6.29687 41.3952 7.15625 41.0484 7.67188V7.84375C40.3548 8.875 39.6613 9.90625 38.7944 10.7656C38.2742 11.2813 37.754 11.625 37.2339 11.9688C36.8871 12.1406 36.7137 12.3125 36.3669 12.4844C36.0202 12.6563 35.6734 12.8281 35.3266 13C35.3266 12.6563 35.3266 12.3125 35.3266 11.9688C35.3266 11.625 35.3266 11.2813 35.5 10.9375C35.6734 10.25 35.8468 9.73438 36.0202 9.04688V8.875C35.8468 8.875 35.6734 8.875 35.3266 9.04688C34.9798 9.04688 34.4597 9.21875 34.1129 9.39063C33.5927 9.5625 33.246 9.5625 32.7258 9.73438C32.2056 9.90625 31.8589 10.0781 31.3387 10.25C30.8185 10.7656 30.2984 10.9375 29.9516 11.2813C29.6048 11.625 29.0847 11.7969 28.7379 12.3125C28.5645 12.4844 28.3911 12.6563 28.2177 12.8281C28.0444 13 27.871 13.1719 27.6976 13.3438C27.3508 13.8594 27.1774 14.2031 27.004 14.7188C26.6573 15.0625 26.6573 15.4063 26.4839 15.9219C26.3105 16.2656 26.1371 16.6094 26.1371 16.9531C25.9637 17.2969 25.9637 17.6406 25.7903 17.8125C25.7903 18.3281 25.7903 18.6719 25.7903 18.6719C25.7903 18.6719 25.7903 18.3281 25.7903 17.8125ZM14 40.1563H18.6815V41.1875H16.9476V45.8281H15.7339V41.1875H14V40.1563ZM26.4839 40.1563L24.4032 45.8281H25.6169L26.1371 44.625H28.2177L28.5645 45.8281H29.7782L27.871 40.1563H26.4839ZM26.4839 43.7656L27.1774 41.5313L27.871 43.7656H26.4839ZM36.8871 21.25C36.3669 21.5938 36.0202 21.7656 35.5 21.9375C34.8065 22.2813 34.2863 22.4531 33.7661 22.625C33.9395 23.1406 34.1129 23.6563 34.2863 24.1719C34.4597 24.6875 34.6331 25.375 34.6331 26.0625C33.9395 25.8906 33.4194 25.7188 32.8992 25.375C32.379 25.0313 31.8589 24.8594 31.3387 24.5156C30.4718 23.8281 29.6048 23.1406 28.9113 22.2813C28.3911 21.7656 28.2177 20.9063 28.7379 20.2188V20.0469C29.6048 18.8438 30.2984 17.8125 31.1653 16.9531C31.6855 16.4375 32.0323 16.0938 32.7258 15.75C33.0726 15.5781 33.246 15.4063 33.5927 15.2344C33.9395 15.0625 34.2863 14.8906 34.6331 14.7188C34.6331 15.0625 34.6331 15.4063 34.6331 15.75C34.6331 16.0938 34.6331 16.4375 34.4597 16.7813C34.2863 17.4688 34.2863 18.1563 33.9395 18.6719V18.8438C34.1129 18.8438 34.2863 18.8438 34.6331 18.6719C34.9798 18.5 35.5 18.5 35.8468 18.3281C36.1935 18.1563 36.7137 17.9844 37.2339 17.8125C37.754 17.6406 38.1008 17.4688 38.621 17.125C38.9677 16.7813 39.4879 16.6094 40.0081 16.2656C40.3548 15.9219 40.875 15.5781 41.2218 15.2344C41.3952 15.0625 41.5685 14.8906 41.7419 14.7188C41.9153 14.5469 42.0887 14.375 42.2621 14.0313C42.6089 13.6875 42.7823 13.1719 42.9556 12.8281C43.129 12.4844 43.3024 11.9688 43.4758 11.625C43.3024 11.2813 43.4758 10.9375 43.4758 10.5938C43.4758 10.25 43.6492 9.90625 43.6492 9.73438C43.6492 9.21875 43.8226 8.875 43.8226 8.875C43.8226 8.875 43.8226 9.21875 43.8226 9.73438C43.8226 9.90625 43.8226 10.25 43.8226 10.5938C43.8226 10.9375 43.8226 11.2813 43.8226 11.7969C43.8226 12.3125 43.8226 12.6563 43.6492 13.1719C43.4758 13.6875 43.4758 14.2031 43.129 14.7188C42.9556 15.0625 42.9556 15.2344 42.7823 15.5781C42.6089 15.9219 42.4355 16.0938 42.2621 16.4375C41.9153 16.9531 41.5685 17.4688 41.2218 17.9844C40.875 18.5 40.3548 18.8438 39.8347 19.3594C39.3145 19.7031 38.7944 20.2188 38.4476 20.3906C37.9274 20.5625 37.4073 20.9063 36.8871 21.25ZM41.7419 40.1563H45.7298V41.1875H42.9556V42.3906H45.3831V43.4219H42.9556V45.8281H41.7419V40.1563ZM34.1129 40.1563H35.1532V45.8281H33.9395L31.6855 41.875V45.8281H30.6452V40.1563H31.8589L34.1129 44.1094V40.1563ZM56.3065 44.625C56.3065 43.5938 56.1331 43.4219 55.6129 43.25C56.1331 43.0781 56.4798 42.5625 56.4798 41.875C56.4798 41.3594 56.1331 40.3281 54.746 40.3281H51.7984V46H53.0121V43.7656H54.2258C55.0927 43.7656 55.0927 44.1094 55.0927 44.7969C55.0927 45.3125 55.0927 45.6563 55.2661 46H56.6532V45.8281C56.3065 45.6563 56.3065 45.4844 56.3065 44.625ZM54.3992 42.7344H53.0121V41.1875H54.5726C55.2661 41.1875 55.4395 41.7031 55.4395 41.875C55.2661 42.5625 54.9194 42.7344 54.3992 42.7344ZM40.7016 44.1094C40.7016 45.8281 38.9677 46 38.4476 46C36.3669 46 36.0202 44.7969 36.0202 44.1094H37.2339C37.2339 44.4531 37.4073 44.9688 38.4476 44.9688C38.9677 44.9688 39.6613 44.7969 39.6613 44.2813C39.6613 43.7656 39.3145 43.7656 38.621 43.5938L37.9274 43.4219C37.0605 43.25 36.1935 43.0781 36.1935 41.7031C36.1935 41.0156 36.5403 39.9844 38.4476 39.9844C40.1815 39.9844 40.7016 41.1875 40.7016 41.875H39.4879C39.4879 41.7031 39.3145 41.0156 38.2742 41.0156C37.754 41.0156 37.2339 41.1875 37.2339 41.7031C37.2339 42.2188 37.5806 42.2188 37.754 42.2188L39.1411 42.5625C40.0081 42.9063 40.7016 43.0781 40.7016 44.1094ZM47.6371 44.7969H50.7581V45.8281H46.4234V40.1563H50.5847V41.1875H47.6371V42.3906H50.4113V43.4219H47.6371V44.7969ZM37.9274 38.4375H35.8468V27.4375H38.2742L42.6089 35.1719V27.4375H44.8629V38.4375H42.6089L38.1008 30.5313V38.4375H37.9274Z" fill="black"/>
</g>
<defs>
<clipPath id="clip0">
<rect width="43" height="44" fill="white" transform="translate(14 2)"/>
</clipPath>
</defs>
</svg>
