<svg width="48" height="32" viewBox="0 0 48 32" fill="none" xmlns="http://www.w3.org/2000/svg">
<mask id="mask0" mask-type="alpha" maskUnits="userSpaceOnUse" x="0" y="0" width="48" height="32">
<rect width="48" height="32" fill="white"/>
</mask>
<g mask="url(#mask0)">
<path d="M12.2791 9.66538H3.95284C2.87564 9.66466 2.00077 10.5381 2.00006 11.616V19.923C1.99151 21.003 2.86068 21.8843 3.94073 21.8922H12.2584C13.3377 21.9 14.219 21.0315 14.2268 19.9515C14.2276 19.9479 14.2276 19.9437 14.2276 19.9394V19.8126C14.2276 19.8126 11.0679 18.4946 9.46351 17.7166C8.54519 18.9633 7.11961 19.737 5.57363 19.8282C3.14423 19.8282 2.31781 17.7002 3.46198 16.3031C3.81392 15.9134 4.28127 15.647 4.79565 15.5408C5.82797 15.2865 7.47939 15.6997 9.01896 16.2077C9.30322 15.6712 9.53191 15.1069 9.70218 14.5242H4.93814V14.0476H7.39888V13.1741H4.44727V12.6975H7.41669V11.4586C7.41456 11.3467 7.50361 11.2541 7.61546 11.2527H8.83016V12.6975H11.7675V13.1741H8.83016V14.0476H11.2275C11.0166 14.9502 10.6747 15.8172 10.2116 16.6202C10.9425 16.8902 11.5937 17.1281 12.0853 17.3027C12.7813 17.5705 13.4987 17.7779 14.229 17.9218V11.6174C14.2297 10.5395 13.357 9.66538 12.2791 9.66538Z" fill="#00A0E9"/>
<path d="M3.87724 16.6251C2.92531 17.4187 3.49714 18.88 5.41784 18.8801C6.66536 18.782 7.80207 18.1283 8.51383 17.0988C7.47356 16.4934 6.28759 16.1853 5.0834 16.2098C4.65086 16.2307 4.23223 16.3749 3.87724 16.6251Z" fill="#00A0E9"/>
<path d="M40.2686 13.6392H41.8873L43.491 16.7675L44.809 13.8295C44.8339 13.7689 44.8795 13.7183 44.9372 13.687C44.9956 13.6563 45.0612 13.64 45.1267 13.6392H46.0002L43.4596 19.2924C43.0785 20.2335 42.0946 20.7821 41.0936 20.6104V19.7555C41.3002 19.7555 41.9827 19.7712 42.2848 19.4221C42.3589 19.3252 42.4173 19.2183 42.4594 19.1043C42.5078 19.0089 42.5392 18.9298 42.5862 18.85L42.7607 18.4368L40.2686 13.6392ZM38.6172 13.7953C37.649 13.553 36.6331 13.5808 35.6798 13.8743C35.7276 14.0012 35.7746 14.2234 35.8223 14.351C37.8392 14.0019 38.2204 14.2712 38.2204 15.1446V15.4146C37.8542 15.3826 37.4096 15.3355 37.0613 15.3192C36.0938 15.2543 35.2567 15.9853 35.1911 16.9521C35.1883 16.9955 35.1868 17.0383 35.1868 17.0817C35.1868 18.2886 36.3274 19.4157 38.2204 18.5778V18.768H39.792V15.1004C39.7357 14.4521 39.2555 13.9207 38.6172 13.7981V13.7953ZM36.4571 17.1437C36.4557 16.5595 36.9074 16.0736 37.4901 16.0323C37.7345 15.996 37.9853 16.0401 38.2026 16.1591V17.953C38.0166 18.1475 37.7587 18.2558 37.4901 18.2551C36.9017 18.2245 36.4457 17.7322 36.4571 17.1437ZM29.471 14.0311C29.4703 13.9549 29.4988 13.8808 29.5508 13.8245C29.6028 13.7646 29.6783 13.7297 29.7574 13.729H30.9949V14.1258C31.1787 13.9769 31.3817 13.8544 31.599 13.7611C31.8512 13.6613 32.1205 13.6122 32.3927 13.6186C32.6947 13.6136 32.9933 13.6791 33.2661 13.8088C33.5247 13.9321 33.7563 14.1045 33.9493 14.3168C34.1403 14.5405 34.2856 14.7998 34.3761 15.0791C34.4794 15.3754 34.5335 15.6868 34.5357 16.0002C34.5364 16.3871 34.478 16.7718 34.3611 17.1401C34.2507 17.475 34.0726 17.7828 33.8375 18.0449C33.6138 18.3021 33.3374 18.508 33.0275 18.6484C32.6869 18.798 32.3193 18.8742 31.9474 18.8706C31.7721 18.8749 31.5976 18.8692 31.4231 18.855C31.2756 18.8407 31.1317 18.803 30.9956 18.7438V20.7764H29.471V14.0311ZM31.0583 17.4928C31.0547 17.6125 31.0768 17.7315 31.1224 17.8419C31.1673 17.948 31.2314 18.0449 31.3126 18.1269C31.4003 18.2088 31.5021 18.2729 31.614 18.3178C31.7351 18.3634 31.8648 18.3848 31.9951 18.3812C32.1269 18.3776 32.2545 18.3335 32.3599 18.2544C32.4853 18.1546 32.5879 18.0307 32.662 17.8889C32.7553 17.7087 32.8251 17.517 32.8686 17.319C32.9213 17.0853 32.9477 16.8459 32.9491 16.6065C32.9541 16.3144 32.9334 16.0216 32.8857 15.7331C32.8479 15.5144 32.7831 15.3013 32.6947 15.0983C32.6342 14.9487 32.5359 14.8176 32.4098 14.7172C32.3036 14.6381 32.1761 14.5939 32.0443 14.5903C31.9467 14.5911 31.8512 14.6067 31.7593 14.6381C31.6667 14.6701 31.5812 14.7186 31.5057 14.7806C31.4223 14.8447 31.3433 14.9138 31.2677 14.9872C31.1901 15.0648 31.121 15.1503 31.0611 15.2415V17.4964L31.0583 17.4928ZM26.6127 14.0945C26.6134 14.0154 26.6483 13.9399 26.7082 13.8879C26.768 13.8323 26.8485 13.8031 26.9297 13.8088H28.2128V18.8899H26.6255V14.0945H26.6127ZM25.3581 18.7153H23.7537V12.1731C23.7551 12.094 23.79 12.0192 23.8499 11.9665C23.9097 11.9109 23.9902 11.8824 24.0722 11.8874H25.3581V18.7153ZM21.4355 18.7153H23.1196L19.9757 11.8874H19.5176C19.4435 11.8838 19.3701 11.9066 19.311 11.9508C19.2511 11.9914 19.2027 12.0462 19.1685 12.1096L15.9761 18.7153H17.1039L17.6745 17.6039H20.9139L21.4369 18.7153H21.4355ZM19.3402 14.1102L20.7373 17.1273H17.8783L19.3402 14.1102Z" fill="black"/>
<path d="M28.2017 12.2771C28.2494 12.7159 27.9324 13.1099 27.4942 13.1569C27.0561 13.2047 26.6614 12.8876 26.6136 12.4495C26.5659 12.0106 26.8829 11.6174 27.3218 11.5696C27.3503 11.5661 27.3795 11.5646 27.408 11.5646C27.8226 11.5411 28.1781 11.8575 28.2017 12.2721V12.2771Z" fill="#00A0E9"/>
</g>
</svg>
