<svg width="48" height="32" viewBox="0 0 48 32" fill="none" xmlns="http://www.w3.org/2000/svg">
<mask id="mask0" mask-type="alpha" maskUnits="userSpaceOnUse" x="0" y="0" width="48" height="32">
<rect width="48" height="32" fill="white"/>
</mask>
<g mask="url(#mask0)">
<path d="M10.9495 3.00107H21.3234C22.7716 3.00107 23.6722 4.1814 23.3344 5.63431L18.5046 26.3705C18.1638 27.8183 16.7139 28.9997 15.2648 28.9997H4.89188C3.4458 28.9997 2.54311 27.8183 2.88092 26.3705L7.71274 5.63431C8.05055 4.1814 9.49967 3.00107 10.9495 3.00107Z" fill="#E21836"/>
<path d="M20.4596 3H32.3894C33.8372 3 33.1843 4.18033 32.8437 5.63324L28.0147 26.3694C27.6759 27.8173 27.7816 28.9986 26.3307 28.9986H14.401C12.9501 28.9986 12.0522 27.8173 12.393 26.3694L17.2218 5.63324C17.5647 4.18033 19.0108 3 20.4596 3Z" fill="#00447C"/>
<path d="M31.9162 3H42.2901C43.7402 3 44.6409 4.18033 44.3003 5.63324L39.4713 26.3694C39.1304 27.8173 37.6795 28.9986 36.2296 28.9986H25.8605C24.4097 28.9986 23.5097 27.8173 23.8496 26.3694L28.6794 5.63324C29.0172 4.18033 30.4653 3 31.9162 3Z" fill="#007B84"/>
<path d="M13.658 9.64559C12.5912 9.65646 12.2762 9.64559 12.1755 9.62182C12.1369 9.80565 11.417 13.1264 11.415 13.1292C11.26 13.801 11.1472 14.2799 10.7641 14.5892C10.5466 14.7689 10.2928 14.8557 9.99846 14.8557C9.52536 14.8557 9.24975 14.6208 9.20348 14.1752L9.19463 14.0223C9.19463 14.0223 9.33876 13.1224 9.33876 13.1173C9.33876 13.1173 10.0943 10.0911 10.2296 9.69111C10.2366 9.66835 10.2387 9.65646 10.2404 9.64559C8.76983 9.65849 8.50914 9.64559 8.49118 9.62182C8.48132 9.65444 8.44491 9.84206 8.44491 9.84206L7.67345 13.2528L7.6072 13.5421L7.479 14.4883C7.479 14.7689 7.53413 14.998 7.64387 15.1917C7.99533 15.8059 8.99791 15.8979 9.56506 15.8979C10.2958 15.8979 10.9813 15.7427 11.4445 15.4592C12.2486 14.9841 12.459 14.2415 12.6466 13.5815L12.7336 13.243C12.7336 13.243 13.5119 10.1 13.6441 9.69111C13.6492 9.66835 13.6512 9.65646 13.658 9.64559ZM16.3061 12.1811C16.1185 12.1811 15.7756 12.2266 15.4676 12.3775C15.3559 12.4349 15.2502 12.5012 15.1387 12.5672L15.2393 12.2038L15.1842 12.1426C14.5311 12.2749 14.3849 12.2926 13.7816 12.3775L13.731 12.4112C13.661 12.992 13.5988 13.4287 13.3391 14.5703C13.2402 14.9911 13.1376 15.4159 13.0347 15.8356L13.0625 15.8889C13.6807 15.8563 13.8683 15.8563 14.4057 15.8652L14.4491 15.8179C14.5174 15.4682 14.5263 15.3863 14.6775 14.678C14.7485 14.3422 14.8967 13.6044 14.9698 13.3417C15.104 13.2795 15.2365 13.2183 15.363 13.2183C15.6641 13.2183 15.6274 13.481 15.6158 13.5857C15.6029 13.7614 15.4932 14.3354 15.3807 14.8282L15.3056 15.1463C15.2532 15.3812 15.1958 15.6095 15.1435 15.8424L15.1662 15.8889C15.7756 15.8563 15.9615 15.8563 16.4818 15.8652L16.543 15.8179C16.6371 15.2717 16.6647 15.1256 16.8315 14.3303L16.9155 13.965C17.0786 13.2499 17.1605 12.8873 17.0371 12.592C16.9066 12.261 16.5936 12.1811 16.3061 12.1811ZM19.2643 12.9298C18.9404 12.992 18.7338 13.0334 18.5285 13.0602C18.325 13.0928 18.1265 13.1224 17.8134 13.1659L17.7887 13.1884L17.7659 13.2064C17.7333 13.4395 17.7105 13.641 17.6673 13.878C17.6306 14.123 17.5742 14.4014 17.4824 14.8014C17.4114 15.1076 17.3747 15.2143 17.3343 15.322C17.2948 15.4297 17.2513 15.5344 17.1714 15.8356L17.1901 15.8634L17.2058 15.8889C17.4984 15.875 17.6898 15.8652 17.8865 15.8634C18.083 15.8563 18.2865 15.8634 18.6016 15.8652L18.6291 15.8427L18.6587 15.8179C18.7042 15.5463 18.7111 15.4732 18.7389 15.3407C18.7664 15.1986 18.814 15.0019 18.9306 14.4765C18.9857 14.2297 19.0471 13.9837 19.1043 13.7318C19.1637 13.481 19.2259 13.2339 19.2851 12.9872L19.2762 12.9573L19.2643 12.9298ZM19.2712 11.9203C18.9769 11.7466 18.4603 11.8017 18.1126 12.0417C17.766 12.2768 17.7265 12.6106 18.0198 12.7866C18.3091 12.9555 18.8277 12.9052 19.1724 12.6632C19.5183 12.423 19.5615 12.0922 19.2712 11.9203ZM21.0512 15.9434C21.6467 15.9434 22.2571 15.7793 22.7165 15.2923C23.07 14.8973 23.2321 14.3097 23.2882 14.0677C23.471 13.2656 23.3287 12.8911 23.1499 12.6631C22.8783 12.3154 22.3984 12.2039 21.9005 12.2039C21.6012 12.2039 20.8881 12.2335 20.3311 12.747C19.9311 13.1174 19.7462 13.6201 19.6347 14.1021C19.5222 14.5931 19.3927 15.4771 20.2057 15.8061C20.4565 15.9138 20.8181 15.9434 21.0512 15.9434ZM21.0047 14.1387C21.142 13.5314 21.3041 13.0216 21.7177 13.0216C22.0419 13.0216 22.0654 13.4009 21.9213 14.0103C21.8955 14.1456 21.7771 14.6485 21.6171 14.8627C21.5053 15.0207 21.3731 15.1165 21.2269 15.1165C21.1834 15.1165 20.9248 15.1165 20.9207 14.7324C20.9187 14.5428 20.9574 14.3491 21.0047 14.1387ZM24.7768 15.8653L24.8233 15.818C24.8893 15.4683 24.9002 15.3861 25.0463 14.6781C25.1194 14.3423 25.2706 13.6045 25.3417 13.3418C25.4762 13.2793 25.6064 13.2181 25.7369 13.2181C26.036 13.2181 25.9996 13.4808 25.9877 13.5855C25.9768 13.7615 25.8671 14.3352 25.7525 14.828L25.6815 15.1461C25.6271 15.3813 25.568 15.6094 25.5156 15.8425L25.5384 15.889C26.1498 15.8564 26.3285 15.8564 26.852 15.8653L26.9152 15.818C27.007 15.2716 27.0317 15.1254 27.2037 14.3304L27.2856 13.9648C27.4495 13.2497 27.5324 12.8874 27.411 12.592C27.2768 12.2611 26.9617 12.1812 26.6782 12.1812C26.4904 12.1812 26.1457 12.2264 25.8395 12.3776C25.73 12.435 25.6203 12.501 25.5126 12.5673L25.6064 12.2039L25.5561 12.1425C24.9032 12.275 24.754 12.2927 24.1515 12.3776L24.1052 12.4112C24.0321 12.9921 23.9727 13.4285 23.713 14.5704C23.6141 14.9911 23.5115 15.4159 23.4088 15.8357L23.4364 15.889C24.0556 15.8564 24.2405 15.8564 24.7768 15.8653ZM29.2689 15.8889C29.3073 15.7013 29.5356 14.5892 29.5377 14.5892C29.5377 14.5892 29.7321 13.7733 29.744 13.7437C29.744 13.7437 29.8052 13.6587 29.8664 13.6251H29.9564C30.8057 13.6251 31.7648 13.6251 32.5166 13.0721C33.0281 12.6928 33.3778 12.1327 33.5338 11.452C33.5743 11.2852 33.6041 11.0867 33.6041 10.8882C33.6041 10.6275 33.5517 10.3696 33.4005 10.168C33.0172 9.63173 32.2538 9.62187 31.3726 9.61783C31.3699 9.61783 30.9382 9.62187 30.9382 9.62187C29.8102 9.63578 29.3579 9.63174 29.172 9.60898C29.1564 9.69116 29.1268 9.83731 29.1268 9.83731C29.1268 9.83731 28.7227 11.71 28.7227 11.713C28.7227 11.713 27.7558 15.6945 27.7103 15.8821C28.6952 15.8702 29.099 15.8702 29.2689 15.8889ZM30.0176 12.5623C30.0176 12.5623 30.4472 10.6935 30.4452 10.7006L30.4591 10.6047L30.4651 10.5316L30.6368 10.5493C30.6368 10.5493 31.5228 10.6255 31.5436 10.6275C31.8933 10.7628 32.0374 11.1114 31.9368 11.5666C31.845 11.9825 31.5752 12.3322 31.2285 12.5011C30.943 12.6443 30.5933 12.6561 30.233 12.6561H29.9999L30.0176 12.5623ZM32.6924 14.1733C32.5789 14.6573 32.4484 15.5413 33.2573 15.8564C33.5152 15.9661 33.7463 15.9987 33.9812 15.9868C34.2292 15.9734 34.4591 15.849 34.672 15.67C34.6528 15.7436 34.6336 15.8172 34.6143 15.891L34.651 15.9383C35.2328 15.9138 35.4134 15.9138 36.0437 15.9186L36.1009 15.8751C36.1929 15.334 36.2797 14.8085 36.5189 13.7733C36.6354 13.2775 36.7517 12.7864 36.8713 12.2926L36.8526 12.2382C36.2018 12.3589 36.0278 12.3846 35.4017 12.4734L35.3542 12.5121C35.3479 12.5624 35.3413 12.6107 35.3352 12.659C35.2379 12.5017 35.0968 12.3675 34.8791 12.2838C34.6007 12.1743 33.9468 12.3154 33.3847 12.8271C32.9897 13.1925 32.8001 13.6932 32.6924 14.1733ZM34.0593 14.2029C34.1987 13.6064 34.3587 13.1017 34.7734 13.1017C35.0356 13.1017 35.1737 13.3437 35.1456 13.7564C35.1233 13.8593 35.0993 13.9678 35.0707 14.0904C35.0293 14.2677 34.9843 14.4434 34.9405 14.6194C34.896 14.7397 34.8442 14.8533 34.7873 14.9289C34.6806 15.0801 34.4267 15.1739 34.2806 15.1739C34.2391 15.1739 33.9832 15.1739 33.9744 14.7966C33.9723 14.6088 34.011 14.4153 34.0593 14.2029ZM41.1976 12.2334L41.1473 12.176C40.5032 12.3065 40.3867 12.3272 39.795 12.4071L39.7515 12.4506C39.7495 12.4577 39.7477 12.4686 39.7447 12.4784L39.7426 12.4686C39.3022 13.4848 39.3151 13.2656 38.9565 14.0656C38.9545 14.0292 38.9545 14.0064 38.9525 13.9678L38.8627 12.2334L38.8063 12.176C38.1317 12.3065 38.1158 12.3272 37.4927 12.4071L37.4442 12.4506C37.4374 12.4714 37.4374 12.4941 37.4333 12.5189L37.4374 12.5277C37.5152 12.9257 37.4965 12.837 37.5747 13.4651C37.6111 13.7733 37.6596 14.0833 37.696 14.3877C37.7575 14.8972 37.7919 15.1481 37.867 15.9256C37.4462 16.62 37.3466 16.8827 36.9415 17.4921L36.9443 17.4981L36.6591 17.9492C36.6264 17.9968 36.5969 18.0294 36.5554 18.0433C36.5099 18.0658 36.4507 18.0698 36.3685 18.0698H36.2105L35.9756 18.8511L36.7814 18.8651C37.2545 18.863 37.5519 18.6418 37.712 18.3444L38.2187 17.4761H38.2106L38.2639 17.4149C38.6048 16.6811 41.1976 12.2334 41.1976 12.2334ZM32.6924 22.4949H32.3505L33.6158 18.3099H34.0355L34.1688 17.8788L34.1817 18.3582C34.166 18.6546 34.3991 18.9173 35.0116 18.8738H35.7198L35.9636 18.0679H35.6971C35.5438 18.0679 35.4728 18.0292 35.4816 17.9463L35.4687 17.4585H34.1572V17.4611C33.7331 17.4699 32.4668 17.5018 32.2104 17.5701C31.9002 17.65 31.5732 17.8851 31.5732 17.8851L31.7017 17.4535H30.4748L30.2192 18.3099L28.937 22.5589H28.6881L28.4441 23.3589H30.8877L30.8058 23.6257H32.0099L32.0898 23.3589H32.4276L32.6924 22.4949ZM31.6898 19.1603C31.4933 19.2146 31.1277 19.3795 31.1277 19.3795L31.4529 18.3099H32.4276L32.1925 19.0892C32.1925 19.0892 31.8913 19.1069 31.6898 19.1603ZM31.7085 20.6883C31.7085 20.6883 31.4023 20.7267 31.2008 20.7722C31.0023 20.8324 30.6301 21.022 30.6301 21.022L30.9659 19.909H31.9457L31.7085 20.6883ZM31.1623 22.5048H30.1845L30.468 21.5654H31.4428L31.1623 22.5048ZM33.5171 19.909H34.9265L34.724 20.5649H33.2958L33.0814 21.282H34.331L33.3848 22.6143C33.3186 22.7121 33.2592 22.7468 33.1932 22.7743C33.1269 22.808 33.0399 22.8474 32.9393 22.8474H32.5926L32.3545 23.6328H33.2612C33.7325 23.6328 34.0109 23.4184 34.2165 23.1369L34.8653 22.2489L35.0046 23.1506C35.0342 23.3195 35.1556 23.4184 35.2378 23.4568C35.3285 23.5023 35.4223 23.5804 35.5548 23.5921C35.6969 23.5981 35.7996 23.6029 35.8679 23.6029H36.3134L36.5809 22.724H36.4052C36.3043 22.724 36.1306 22.7071 36.101 22.6755C36.0714 22.637 36.0714 22.5779 36.0555 22.4878L35.9142 21.5841H35.3354L35.5892 21.282H37.0146L37.2338 20.5649H35.9142L36.1197 19.909H37.4353L37.6793 19.1001H33.757L33.5171 19.909ZM21.6131 22.6874L21.9421 21.5931H23.2941L23.5411 20.7791H22.1878L22.3944 20.1055H23.7169L23.9619 19.3174H20.653L20.413 20.1055H21.1648L20.9643 20.7791H20.2105L19.9607 21.607H20.7122L20.2737 23.0548C20.2146 23.2465 20.3015 23.3196 20.3567 23.4086C20.413 23.4953 20.4702 23.5527 20.5986 23.5853C20.7311 23.6149 20.8219 23.6326 20.9453 23.6326H22.4695L22.7411 22.7309L22.0655 22.8237C21.935 22.8237 21.5737 22.808 21.6131 22.6874ZM21.7682 17.4486L21.4256 18.0678C21.3522 18.2031 21.2862 18.287 21.2268 18.3257C21.1745 18.3583 21.0708 18.372 20.9206 18.372H20.7418L20.5029 19.1642H21.0966C21.3821 19.1642 21.6013 19.0595 21.706 19.0072C21.8185 18.947 21.8481 18.9814 21.9351 18.8974L22.1356 18.7237H23.9895L24.2355 17.8989H22.8785L23.1154 17.4486H21.7682ZM24.5052 22.7033C24.4736 22.6578 24.4963 22.5777 24.5446 22.4108L25.0514 20.7336H26.854C27.1167 20.7298 27.3063 20.7268 27.4297 20.7179C27.5622 20.704 27.7063 20.6567 27.8634 20.5718C28.0254 20.4828 28.1084 20.3889 28.1784 20.2812C28.2565 20.1738 28.382 19.9386 28.4897 19.576L29.1266 17.4535L27.256 17.4644C27.256 17.4644 26.68 17.5494 26.4264 17.6432C26.1705 17.7479 25.8049 18.0402 25.8049 18.0402L25.9738 17.4583H24.8182L23.2004 22.8237C23.1431 23.032 23.1046 23.1832 23.0958 23.274C23.0927 23.3719 23.2192 23.4687 23.3011 23.5418C23.3979 23.6149 23.541 23.603 23.6783 23.6149C23.8227 23.6257 24.028 23.6326 24.3115 23.6326H25.1995L25.4721 22.7122L24.6771 22.7873C24.5922 22.7873 24.5307 22.7418 24.5052 22.7033ZM25.3783 19.6008H27.2717L27.1513 19.9781C27.1344 19.9869 27.0939 19.9593 26.9012 19.9821H25.2617L25.3783 19.6008ZM25.7576 18.3355H27.6669L27.5296 18.7899C27.5296 18.7899 26.6297 18.781 26.4855 18.8076C25.8514 18.9173 25.481 19.2561 25.481 19.2561L25.7576 18.3355ZM27.1937 21.2414C27.178 21.2978 27.1532 21.3322 27.1186 21.358C27.0802 21.3827 27.018 21.3916 26.9252 21.3916H26.6554L26.6713 20.9321H25.5491L25.5036 23.1783C25.5018 23.3403 25.5175 23.4342 25.6361 23.5093C25.7547 23.6031 26.1201 23.6149 26.6119 23.6149H27.3151L27.5689 22.7742L26.9568 22.8078L26.7532 22.8197C26.7254 22.8078 26.6989 22.797 26.6693 22.7674C26.6435 22.7418 26.6 22.7575 26.6071 22.5954L26.6119 22.0197L27.2539 21.9931C27.6005 21.9931 27.7487 21.8804 27.8751 21.7729C27.9958 21.67 28.0352 21.5516 28.0807 21.3916L28.1884 20.8818H27.3062L27.1937 21.2414Z" fill="#FEFEFE"/>
</g>
</svg>
