<svg width="70" height="48" viewBox="0 0 70 48" fill="none" xmlns="http://www.w3.org/2000/svg">
<mask id="mask0" mask-type="alpha" maskUnits="userSpaceOnUse" x="5" y="4" width="60" height="40">
<rect x="5" y="4" width="60" height="40" fill="#C4C4C4"/>
</mask>
<g mask="url(#mask0)">
<path fill-rule="evenodd" clip-rule="evenodd" d="M39.8213 21.976H42.1131C42.8398 21.9498 43.2817 21.8938 43.4408 21.8062C43.6581 21.6865 43.8039 21.447 43.8765 21.0876C43.9229 20.8484 43.9461 20.4928 43.9461 20.0204C43.9461 19.4417 43.9 19.0128 43.8074 18.7326C43.6751 18.3402 43.3585 18.1011 42.8568 18.0143C42.7577 18.0012 42.5203 17.9942 42.1441 17.9942H39.8213V21.976ZM36.1449 28.6828V15H42.9941C43.9335 15 44.6504 15.0769 45.1429 15.2304C46.2694 15.584 47.0252 16.3079 47.4124 17.402C47.6122 17.9762 47.7121 18.8407 47.7121 19.995C47.7121 21.3829 47.6013 22.3804 47.382 22.9876C46.9427 24.1884 46.0384 24.8801 44.6729 25.0594C44.5123 25.0863 43.8291 25.1104 42.6232 25.1296L42.0129 25.1501H39.8211V28.6828H36.1449ZM17.6852 19.3647H21.1052C21.1273 19.0624 21.1384 18.8364 21.1384 18.6851C21.1384 16.8414 20.3943 15.7194 18.906 15.3189C18.2962 15.155 17.2732 15.0724 15.8378 15.0724C14.9261 15.0724 14.0971 15.1057 13.3499 15.171C12.4519 15.2433 11.7142 15.4855 11.1376 15.898C10.7441 16.1668 10.4589 16.5597 10.2819 17.0773C10.1051 17.5947 10.0166 18.2826 10.0166 19.1405C10.0166 20.2669 10.1803 21.109 10.5076 21.6656C10.8799 22.3206 11.6262 22.7521 12.7459 22.9619C13.1711 23.0348 13.9304 23.11 15.0235 23.1881C16.3847 23.2799 17.1473 23.3523 17.3112 23.4043C17.7495 23.5357 17.9691 23.9023 17.9691 24.5047C17.9691 24.7736 17.9431 24.9934 17.8907 25.1632C17.7921 25.4391 17.5858 25.6384 17.2714 25.7623C17.0948 25.8283 16.6853 25.8612 16.0436 25.8612H14.7864C14.4516 25.8539 14.1669 25.7923 13.9311 25.6749C13.5909 25.5048 13.4204 25.1227 13.4204 24.5286L13.4202 24.4304L13.42 24.244H10C10 25.3574 10.0814 26.1527 10.2458 26.6303C10.5409 27.4881 11.1507 28.0578 12.0757 28.339C12.8294 28.5686 14.1643 28.6828 16.0796 28.6828C17.227 28.6828 18.0801 28.6302 18.6377 28.5249C19.9688 28.2761 20.8242 27.6837 21.205 26.7456C21.4151 26.2343 21.52 25.4276 21.52 24.326C21.52 23.8481 21.4972 23.418 21.4511 23.0379C21.3724 22.4025 21.1256 21.8879 20.7118 21.4941C20.186 20.9895 19.3385 20.6781 18.1696 20.5601C17.8014 20.5207 16.8782 20.4515 15.4 20.3532L14.7103 20.3044C14.4075 20.2848 14.1648 20.2193 13.981 20.1077C13.7244 19.9505 13.5965 19.6225 13.5965 19.1244C13.5965 18.5741 13.741 18.2167 14.0297 18.0524C14.3185 17.8885 14.9105 17.8067 15.8033 17.8067C16.7227 17.8067 17.2845 17.9489 17.488 18.2331C17.6193 18.4252 17.6852 18.8025 17.6852 19.3647ZM10.013 31.3964L10.5257 31.3446C10.5565 31.5177 10.6192 31.6447 10.7134 31.726C10.8079 31.8072 10.9352 31.8477 11.0954 31.8477C11.2651 31.8477 11.3929 31.8117 11.4791 31.7396C11.5651 31.6674 11.608 31.5831 11.608 31.4865C11.608 31.4246 11.5899 31.372 11.554 31.3283C11.5178 31.2848 11.4549 31.2471 11.3649 31.2148C11.3032 31.1937 11.163 31.1558 10.9441 31.1014C10.6622 31.0317 10.4647 30.9457 10.351 30.8436C10.1913 30.7002 10.1114 30.5252 10.1114 30.3187C10.1114 30.1861 10.149 30.0617 10.2244 29.9462C10.2997 29.8305 10.4084 29.7424 10.5501 29.6819C10.6919 29.6215 10.8631 29.5911 11.0636 29.5911C11.3911 29.5911 11.6375 29.6633 11.803 29.8074C11.9686 29.9517 12.0554 30.1441 12.0637 30.3848L11.5356 30.4055C11.513 30.2711 11.4646 30.1745 11.3904 30.1154C11.3163 30.0564 11.2051 30.0269 11.0568 30.0269C10.9037 30.0269 10.784 30.0584 10.6974 30.1215C10.6415 30.1618 10.6137 30.216 10.6137 30.2837C10.6137 30.3456 10.6399 30.3984 10.6921 30.4425C10.7584 30.4983 10.9196 30.5566 11.1758 30.6168C11.4318 30.6773 11.6212 30.7398 11.744 30.8049C11.8667 30.8698 11.9628 30.9586 12.0322 31.0712C12.1015 31.184 12.1363 31.3232 12.1363 31.4888C12.1363 31.6392 12.0947 31.7798 12.0115 31.9109C11.9283 32.0421 11.8108 32.1395 11.6589 32.2033C11.5069 32.267 11.3175 32.2991 11.0906 32.2991C10.7605 32.2991 10.507 32.2222 10.33 32.0685C10.1532 31.9148 10.0474 31.6908 10.013 31.3964ZM12.6838 30.3589H13.1861V32.2523H12.6838V30.3589ZM12.6838 29.6378H13.1861V30.0996H12.6838V29.6378ZM15.0281 32.2522H15.5304V31.0732C15.5304 30.9268 15.5211 30.8142 15.5027 30.7357C15.4843 30.657 15.4517 30.5868 15.4048 30.5249C15.3579 30.463 15.2888 30.412 15.1975 30.3722C15.1062 30.3323 15.0053 30.3122 14.8949 30.3122C14.6447 30.3122 14.4369 30.4205 14.272 30.6371V30.3589H13.806V32.2522H14.3083V31.3929C14.3083 31.1807 14.3209 31.0355 14.3464 30.957C14.3717 30.8783 14.4186 30.8152 14.4872 30.7676C14.5558 30.7199 14.6332 30.696 14.7196 30.696C14.7869 30.696 14.8445 30.7128 14.8924 30.746C14.9403 30.7794 14.9748 30.8263 14.9962 30.8864C15.0174 30.9465 15.0281 31.079 15.0281 31.2838V32.2522ZM16.5462 31.2647C16.5462 31.4663 16.5847 31.6138 16.6619 31.7073C16.739 31.8011 16.8341 31.8477 16.9473 31.8477C17.0684 31.8477 17.1708 31.7998 17.2545 31.7038C17.338 31.6079 17.38 31.4656 17.38 31.2772C17.38 31.0807 17.3398 30.9346 17.2598 30.8391C17.1796 30.7438 17.0785 30.696 16.9561 30.696C16.8371 30.696 16.739 30.743 16.6619 30.8365C16.5847 30.9303 16.5462 31.0728 16.5462 31.2647ZM16.0958 32.3767L16.6653 32.439C16.6749 32.5095 16.697 32.558 16.7314 32.5846C16.7792 32.6224 16.8542 32.6413 16.9566 32.6413C17.0877 32.6413 17.186 32.6218 17.2516 32.5826C17.2955 32.5564 17.329 32.5142 17.3517 32.4559C17.3671 32.4141 17.3749 32.3376 17.3749 32.2257L17.3764 31.9493C17.2282 32.1513 17.0403 32.2522 16.8123 32.2522C16.5579 32.2522 16.3568 32.1447 16.2083 31.9291C16.0918 31.7587 16.0336 31.5466 16.0336 31.293C16.0336 30.9749 16.1098 30.732 16.2625 30.5641C16.4151 30.3962 16.605 30.3122 16.8319 30.3122C17.0658 30.3122 17.2589 30.4153 17.411 30.6212V30.3589H17.8772V32.0609C17.8772 32.2848 17.8588 32.4521 17.8218 32.5627C17.7851 32.6735 17.7333 32.7604 17.6667 32.8234C17.6001 32.8865 17.5113 32.936 17.4001 32.9717C17.2889 33.0074 17.1484 33.0253 16.9785 33.0253C16.6575 33.0253 16.4298 32.9699 16.2954 32.8591C16.161 32.7484 16.0939 32.608 16.0939 32.4378C16.0939 32.4211 16.0946 32.4008 16.0958 32.3767ZM18.9809 29.6378H18.4786V32.2523H18.9809V29.6378ZM20.7298 31.1474C20.7263 31 20.6887 30.8881 20.6169 30.8112C20.5453 30.7345 20.4582 30.696 20.3554 30.696C20.2456 30.696 20.1547 30.7367 20.0832 30.8175C20.0114 30.8984 19.9763 31.0084 19.9774 31.1474H20.7298ZM20.7039 31.6558L21.2011 31.7388C21.1368 31.9212 21.0352 32.0604 20.8965 32.1558C20.7578 32.2514 20.5841 32.2991 20.3758 32.2991C20.0459 32.2991 19.8018 32.191 19.6435 31.975C19.5184 31.8021 19.4559 31.5838 19.4559 31.3198C19.4559 31.0051 19.538 30.7583 19.7024 30.5798C19.8666 30.4014 20.0742 30.3122 20.3253 30.3122C20.6075 30.3122 20.83 30.4059 20.9931 30.5929C21.1562 30.7804 21.2341 31.067 21.2269 31.4535H19.9687C19.9721 31.6025 20.0129 31.7184 20.0908 31.8014C20.1687 31.8841 20.2658 31.9256 20.3821 31.9256C20.4612 31.9256 20.5278 31.9043 20.5816 31.8617C20.6355 31.8192 20.6764 31.7504 20.7039 31.6558ZM22.8704 29.6378V32.2523H24.8538V31.8114H23.3987V31.1007H24.7037V30.6598H23.3987V30.0789H24.8021V29.6378H22.8704ZM26.6492 32.2522V31.9687C26.5801 32.0698 26.4895 32.1501 26.377 32.2097C26.2645 32.2692 26.1458 32.299 26.0208 32.299C25.8934 32.299 25.7794 32.271 25.6782 32.215C25.5771 32.1591 25.5038 32.0804 25.4586 31.9793C25.4133 31.8781 25.3908 31.7381 25.3908 31.5595V30.3589H25.8931V31.2297C25.8931 31.4963 25.9022 31.6596 25.9208 31.7195C25.9392 31.78 25.9726 31.8274 26.0213 31.8626C26.0701 31.8976 26.1317 31.9151 26.2066 31.9151C26.2921 31.9151 26.3689 31.8918 26.4365 31.8447C26.5042 31.7977 26.5505 31.7395 26.5755 31.6697C26.6004 31.6002 26.6129 31.4297 26.6129 31.1585V30.3589H27.1152V32.2522H26.6492ZM27.7168 32.2522H28.2191V31.6668C28.2191 31.3444 28.2332 31.1324 28.2612 31.0313C28.2892 30.9302 28.3276 30.8604 28.3765 30.8215C28.4254 30.783 28.4849 30.7636 28.5553 30.7636C28.6279 30.7636 28.7068 30.791 28.7913 30.8456L28.9441 30.4072C28.8383 30.3439 28.7283 30.3122 28.6143 30.3122C28.5334 30.3122 28.4613 30.3332 28.3977 30.3748C28.3341 30.4167 28.2625 30.501 28.1828 30.6281V30.3589H27.7168V32.2522ZM29.6593 31.3056C29.6593 31.4943 29.7039 31.6386 29.7932 31.7388C29.8826 31.8391 29.9926 31.8892 30.1237 31.8892C30.2546 31.8892 30.3645 31.8391 30.4531 31.7388C30.5418 31.6386 30.5862 31.493 30.5862 31.3021C30.5862 31.116 30.5418 30.9726 30.4531 30.8725C30.3645 30.7722 30.2546 30.7221 30.1237 30.7221C29.9926 30.7221 29.8826 30.7722 29.7932 30.8725C29.7039 30.9726 29.6593 31.1172 29.6593 31.3056ZM29.1467 31.2787C29.1467 31.1117 29.1876 30.95 29.2696 30.7936C29.3515 30.6374 29.4675 30.5181 29.6178 30.4357C29.7679 30.3534 29.9358 30.3122 30.1211 30.3122C30.4072 30.3122 30.6417 30.4055 30.8247 30.5923C31.0075 30.779 31.0989 31.0151 31.0989 31.3003C31.0989 31.5878 31.0065 31.8263 30.8219 32.0154C30.6373 32.2044 30.4048 32.2991 30.1245 32.2991C29.9512 32.2991 29.7858 32.2596 29.6286 32.181C29.4711 32.1022 29.3515 31.9868 29.2696 31.8346C29.1876 31.6824 29.1467 31.4973 29.1467 31.2787ZM33.2626 30.8259V30.0789H33.5165C33.7061 30.0789 33.832 30.0848 33.8948 30.0968C33.98 30.1124 34.0505 30.1512 34.1061 30.2135C34.1618 30.2757 34.1897 30.3548 34.1897 30.4505C34.1897 30.5284 34.1698 30.5966 34.1302 30.6552C34.0906 30.714 34.0357 30.7571 33.9659 30.7847C33.896 30.8122 33.7575 30.8259 33.5503 30.8259H33.2626ZM32.7345 29.6378V32.2523H33.2627V31.2667H33.606C33.8442 31.2667 34.0261 31.2543 34.1519 31.2292C34.2444 31.209 34.3354 31.1678 34.4248 31.1052C34.5143 31.0428 34.5882 30.9568 34.6462 30.8476C34.7044 30.7379 34.7334 30.6031 34.7334 30.4426C34.7334 30.2344 34.683 30.0646 34.5821 29.9333C34.4812 29.8018 34.3561 29.7163 34.2066 29.6771C34.1093 29.6511 33.9004 29.6378 33.58 29.6378H32.7345ZM36.3115 31.3446C36.2473 31.3662 36.1461 31.3917 36.0076 31.4216C35.869 31.4513 35.7784 31.4807 35.7359 31.5093C35.6707 31.5559 35.6383 31.615 35.6383 31.6865C35.6383 31.7571 35.6642 31.8178 35.7162 31.8693C35.7684 31.9206 35.8347 31.9463 35.9154 31.9463C36.0054 31.9463 36.0911 31.9165 36.1729 31.8569C36.2333 31.8114 36.273 31.7559 36.2919 31.6902C36.3048 31.6472 36.3115 31.5654 36.3115 31.4447V31.3446ZM35.6384 30.9347L35.1878 30.8517C35.2389 30.6683 35.3267 30.5327 35.4513 30.4445C35.5761 30.3564 35.7614 30.3122 36.0071 30.3122C36.2303 30.3122 36.3967 30.3388 36.5059 30.3916C36.6151 30.4449 36.6922 30.5121 36.7366 30.5936C36.7812 30.6751 36.8035 30.825 36.8035 31.043L36.7984 31.6289C36.7984 31.7956 36.8064 31.9188 36.8223 31.9978C36.8383 32.077 36.8683 32.1618 36.9123 32.2522H36.4151C36.4018 32.2195 36.3859 32.1709 36.3669 32.1065C36.3586 32.0771 36.3526 32.0579 36.3493 32.0484C36.2638 32.1319 36.1725 32.1946 36.0752 32.2365C35.9779 32.2781 35.8744 32.2991 35.764 32.2991C35.5695 32.2991 35.416 32.2459 35.304 32.14C35.192 32.034 35.1359 31.8998 35.1359 31.7378C35.1359 31.6308 35.1615 31.5351 35.2123 31.4511C35.2635 31.3672 35.3351 31.3027 35.4271 31.2581C35.5192 31.2136 35.652 31.1743 35.8253 31.1409C36.0591 31.0969 36.2212 31.0559 36.3115 31.0177V30.9671C36.3115 30.8695 36.2877 30.7999 36.2399 30.7583C36.1921 30.7168 36.1021 30.696 35.9695 30.696C35.88 30.696 35.8102 30.7138 35.76 30.749C35.7098 30.7843 35.6692 30.8463 35.6384 30.9347ZM37.6974 30.3589H37.1642L37.8849 32.2575C37.855 32.3644 37.8121 32.4526 37.7559 32.522C37.6998 32.591 37.6134 32.6257 37.4963 32.6257C37.4331 32.6257 37.3619 32.6181 37.2832 32.6023L37.3299 32.9949C37.4225 33.0151 37.5173 33.0253 37.6136 33.0253C37.7087 33.0253 37.7941 33.0151 37.8696 32.9947C37.9452 32.9746 38.0085 32.9461 38.0604 32.9097C38.1121 32.8735 38.158 32.8261 38.1977 32.7678C38.2375 32.7094 38.2794 32.6249 38.3235 32.514L39.1113 30.3589H38.5935L38.1507 31.7031L37.6974 30.3589ZM39.5029 30.3589H39.9638V30.6175C40.1293 30.414 40.3264 30.3122 40.555 30.3122C40.6763 30.3122 40.7817 30.3371 40.8711 30.3871C40.9604 30.4372 41.0336 30.5129 41.0906 30.614C41.1738 30.5129 41.2638 30.4372 41.3599 30.3871C41.4564 30.3371 41.5589 30.3122 41.6683 30.3122C41.8075 30.3122 41.9252 30.3405 42.0215 30.3972C42.1177 30.4535 42.1898 30.5367 42.2374 30.6464C42.2717 30.7272 42.2889 30.8582 42.2889 31.0393V32.2522H41.7866V31.1678C41.7866 30.9795 41.7694 30.8582 41.7351 30.8034C41.6887 30.7317 41.6176 30.696 41.5217 30.696C41.4516 30.696 41.3856 30.7174 41.324 30.7604C41.2623 30.8034 41.2179 30.8662 41.1907 30.949C41.1634 31.0317 41.1496 31.1625 41.1496 31.3411V32.2522H40.6473V31.2126C40.6473 31.0277 40.6386 30.9088 40.6207 30.8551C40.6029 30.8014 40.5754 30.7616 40.538 30.7354C40.5005 30.7093 40.45 30.696 40.3858 30.696C40.3088 30.696 40.2394 30.7169 40.1777 30.7586C40.1161 30.8003 40.072 30.8605 40.0451 30.939C40.0185 31.0177 40.0052 31.148 40.0052 31.3303V32.2522H39.5029V30.3589ZM43.9062 30.8112C43.9781 30.8881 44.0156 31 44.0192 31.1474H43.2669C43.2657 31.0084 43.3008 30.8984 43.3726 30.8175C43.444 30.7367 43.535 30.696 43.6447 30.696C43.7474 30.696 43.8348 30.7345 43.9062 30.8112ZM44.4905 31.7388L43.9934 31.6558C43.9659 31.7504 43.9251 31.8192 43.8709 31.8617C43.817 31.9043 43.7506 31.9256 43.6715 31.9256C43.555 31.9256 43.4579 31.8841 43.3802 31.8014C43.3023 31.7184 43.2616 31.6025 43.2579 31.4535H44.5164C44.5235 31.067 44.4454 30.7804 44.2824 30.5929C44.1193 30.4059 43.8969 30.3122 43.6147 30.3122C43.3635 30.3122 43.156 30.4014 42.9916 30.5798C42.8276 30.7583 42.7452 31.0051 42.7452 31.3198C42.7452 31.5838 42.8077 31.8021 42.9328 31.975C43.0912 32.191 43.3353 32.2991 43.6651 32.2991C43.8735 32.2991 44.0471 32.2514 44.1859 32.1558C44.3246 32.0604 44.426 31.9212 44.4905 31.7388ZM46.7517 32.2522H46.2494V31.2838C46.2494 31.079 46.2386 30.9465 46.2176 30.8864C46.1962 30.8263 46.1616 30.7794 46.1137 30.746C46.0658 30.7128 46.0081 30.696 45.9408 30.696C45.8547 30.696 45.7771 30.7199 45.7087 30.7676C45.6401 30.8152 45.5932 30.8783 45.5676 30.957C45.5423 31.0355 45.5295 31.1807 45.5295 31.3929V32.2522H45.0273V30.3589H45.4932V30.6371C45.6583 30.4205 45.8659 30.3122 46.1162 30.3122C46.2265 30.3122 46.3276 30.3323 46.4188 30.3722C46.5101 30.412 46.5793 30.463 46.6262 30.5249C46.6731 30.5868 46.7056 30.657 46.724 30.7357C46.7426 30.8142 46.7517 30.9268 46.7517 31.0732V32.2522ZM48.2338 30.7583V30.3589H47.8919V29.6846L47.3896 29.9802V30.3589H47.1617V30.7583H47.3896V31.5859C47.3896 31.7634 47.3947 31.8814 47.4055 31.9398C47.4184 32.022 47.4416 32.0872 47.4753 32.1354C47.5091 32.1837 47.5619 32.2232 47.6339 32.2534C47.706 32.2838 47.7867 32.2991 47.8766 32.2991C48.023 32.2991 48.154 32.274 48.2699 32.224L48.226 31.8359C48.1395 31.868 48.0738 31.8841 48.0281 31.8841C47.9955 31.8841 47.9679 31.8756 47.9451 31.859C47.9224 31.8422 47.9078 31.8211 47.9015 31.7954C47.895 31.7699 47.8919 31.6794 47.8919 31.5243V30.7583H48.2338ZM48.5162 31.7181L49.0185 31.6402C49.0398 31.737 49.0831 31.8104 49.1482 31.8607C49.2135 31.911 49.3047 31.9359 49.422 31.9359C49.5514 31.9359 49.6487 31.912 49.7138 31.8641C49.7577 31.8305 49.7798 31.7858 49.7798 31.7294C49.7798 31.6912 49.7677 31.6593 49.7438 31.6344C49.7186 31.6103 49.6626 31.5883 49.5754 31.5678C49.1696 31.478 48.9122 31.3962 48.8039 31.3223C48.6534 31.2199 48.5783 31.0773 48.5783 30.8952C48.5783 30.7306 48.6431 30.5923 48.7732 30.4804C48.9035 30.3683 49.1051 30.3122 49.3784 30.3122C49.6386 30.3122 49.8318 30.3542 49.9584 30.4381C50.0848 30.5221 50.172 30.6461 50.2199 30.8102L49.7486 30.8984C49.7282 30.8248 49.6894 30.7682 49.6324 30.7291C49.5753 30.6897 49.4939 30.6701 49.3883 30.6701C49.2551 30.6701 49.1595 30.6886 49.102 30.7259C49.0634 30.7521 49.0443 30.7862 49.0443 30.828C49.0443 30.864 49.0609 30.8946 49.0944 30.9198C49.1396 30.9532 49.2962 31.0005 49.5638 31.0616C49.8315 31.1226 50.0184 31.1973 50.1246 31.2858C50.2293 31.3755 50.282 31.5004 50.282 31.6606C50.282 31.8351 50.2095 31.9852 50.0648 32.1107C49.9198 32.2363 49.7057 32.2991 49.422 32.2991C49.1646 32.2991 48.9608 32.2468 48.8107 32.1427C48.6605 32.0383 48.5624 31.897 48.5162 31.7181ZM52.9742 30.25L53.3391 31.2201H52.6216L52.9742 30.25ZM53.739 32.2523H54.3078L53.2538 29.6378H52.6983L51.6873 32.2523H52.2463L52.4613 31.661H53.5133L53.739 32.2523ZM55.1698 32.2522H54.6676V30.3589H55.1335V30.6281C55.2133 30.501 55.2847 30.4167 55.3485 30.3748C55.4119 30.3332 55.484 30.3122 55.5651 30.3122C55.6791 30.3122 55.7889 30.3439 55.8948 30.4072L55.742 30.8456C55.6574 30.791 55.5787 30.7636 55.5061 30.7636C55.4355 30.7636 55.376 30.783 55.3271 30.8215C55.2782 30.8604 55.2398 30.9302 55.2119 31.0313C55.1838 31.1324 55.1698 31.3444 55.1698 31.6668V32.2522ZM57.2326 30.8112C57.3042 30.8881 57.3418 31 57.3454 31.1474H56.5931C56.5918 31.0084 56.6271 30.8984 56.6988 30.8175C56.7704 30.7367 56.861 30.696 56.9711 30.696C57.0737 30.696 57.1608 30.7345 57.2326 30.8112ZM57.8167 31.7388L57.3195 31.6558C57.2919 31.7504 57.2511 31.8192 57.1972 31.8617C57.1432 31.9043 57.0768 31.9256 56.9975 31.9256C56.8814 31.9256 56.7843 31.8841 56.7062 31.8014C56.6285 31.7184 56.5877 31.6025 56.5841 31.4535H57.8425C57.8496 31.067 57.7716 30.7804 57.6087 30.5929C57.4455 30.4059 57.2229 30.3122 56.9409 30.3122C56.6898 30.3122 56.482 30.4014 56.3179 30.5798C56.1536 30.7583 56.0714 31.0051 56.0714 31.3198C56.0714 31.5838 56.1338 31.8021 56.259 31.975C56.4172 32.191 56.6615 32.2991 56.9914 32.2991C57.1997 32.2991 57.3734 32.2514 57.5121 32.1558C57.6508 32.0604 57.7524 31.9212 57.8167 31.7388ZM59.3995 31.3446C59.3356 31.3662 59.2342 31.3917 59.0956 31.4216C58.9571 31.4513 58.8666 31.4807 58.824 31.5093C58.7587 31.5559 58.7264 31.615 58.7264 31.6865C58.7264 31.7571 58.7523 31.8178 58.8045 31.8693C58.8565 31.9206 58.9228 31.9463 59.0035 31.9463C59.0935 31.9463 59.1791 31.9165 59.261 31.8569C59.3213 31.8114 59.3611 31.7559 59.38 31.6902C59.3929 31.6472 59.3995 31.5654 59.3995 31.4447V31.3446ZM58.7263 30.9347L58.2758 30.8517C58.3268 30.6683 58.4146 30.5327 58.5392 30.4445C58.664 30.3564 58.8493 30.3122 59.0951 30.3122C59.3183 30.3122 59.4846 30.3388 59.5939 30.3916C59.7031 30.4449 59.7801 30.5121 59.8245 30.5936C59.8691 30.6751 59.8915 30.825 59.8915 31.043L59.8863 31.6289C59.8863 31.7956 59.8943 31.9188 59.9102 31.9978C59.9263 32.077 59.9563 32.1618 60 32.2522H59.503C59.4898 32.2195 59.474 32.1709 59.4548 32.1065C59.4467 32.0771 59.4406 32.0579 59.4373 32.0484C59.3517 32.1319 59.2606 32.1946 59.1633 32.2365C59.0661 32.2781 58.9623 32.2991 58.8519 32.2991C58.6574 32.2991 58.5039 32.2459 58.3919 32.14C58.2801 32.034 58.2241 31.8998 58.2241 31.7378C58.2241 31.6308 58.2494 31.5351 58.3004 31.4511C58.3515 31.3672 58.4231 31.3027 58.515 31.2581C58.6072 31.2136 58.7399 31.1743 58.9133 31.1409C59.1471 31.0969 59.3092 31.0559 59.3995 31.0177V30.9671C59.3995 30.8695 59.3756 30.7999 59.3279 30.7583C59.2802 30.7168 59.19 30.696 59.0574 30.696C58.9679 30.696 58.8982 30.7138 58.848 30.749C58.7979 30.7843 58.7572 30.8463 58.7263 30.9347ZM53.1067 17.7212L54.8292 23.6524H51.4351L53.1067 17.7212ZM50.6442 26.318H55.5594L56.2607 28.6828H59.9844L55.8299 15H50.2844L46.1803 28.6828H49.9838L50.6442 26.318Z" fill="#10298E"/>
<path fill-rule="evenodd" clip-rule="evenodd" d="M31.0708 16.9251C32.5871 16.9251 33.9404 17.6247 34.8299 18.7206L35.6224 17.0187C34.383 15.8452 32.6962 15.1218 30.8357 15.1218C27.939 15.1218 25.461 16.8743 24.4441 19.3549H22.8988L21.9863 21.3143H23.9742C23.9593 21.4961 23.9497 21.678 23.9497 21.8636C23.9497 22.0882 23.9613 22.3102 23.9835 22.5294H22.9844L22.0722 24.4895H24.4914C25.5374 26.9074 27.9844 28.6049 30.8357 28.6049C32.2726 28.6049 33.6059 28.1737 34.7099 27.437V25.0348C33.8209 26.0487 32.5205 26.6895 31.0708 26.6895C29.3762 26.6895 27.8856 25.8142 27.0176 24.4895H32.0837L32.9959 22.5294H26.2722C26.2376 22.2936 26.219 22.0525 26.219 21.807C26.219 21.641 26.2276 21.4767 26.2436 21.3143H33.5614L34.4736 19.3549H26.8764C27.7166 17.9024 29.2801 16.9251 31.0708 16.9251" fill="#FFBE00"/>
</g>
</svg>
