<svg width="48" height="32" viewBox="0 0 48 32" fill="none" xmlns="http://www.w3.org/2000/svg">
<path fill-rule="evenodd" clip-rule="evenodd" d="M22.2928 21.0798V15.7975H25.0369C26.1614 15.7975 27.1105 15.4231 27.8842 14.6849L28.0699 14.4977C29.4833 12.9691 29.3904 10.5879 27.8842 9.17373C27.1311 8.42505 26.0995 8.01952 25.0369 8.04031H20.6318V21.0798H22.2928ZM22.293 14.1961V9.64162H25.0788C25.6773 9.64162 26.2447 9.87038 26.6678 10.2863C27.5654 11.1598 27.5861 12.6155 26.7194 13.5202C26.2963 13.9673 25.6979 14.2169 25.0788 14.1961H22.293ZM35.8175 12.8548C35.1057 12.1997 34.136 11.8669 32.9083 11.8669C31.3299 11.8669 30.1435 12.4492 29.3595 13.6035L30.8244 14.5289C31.3609 13.7386 32.0933 13.3435 33.0218 13.3435C33.6098 13.3435 34.1772 13.5619 34.6208 13.957C35.0541 14.3313 35.3017 14.8721 35.3017 15.444V15.8287C34.6621 15.4752 33.8574 15.288 32.8671 15.288C31.7116 15.288 30.7832 15.5583 30.092 16.1095C29.4008 16.6606 29.05 17.3885 29.05 18.3139C29.0294 19.1562 29.3904 19.9569 30.0301 20.4976C30.68 21.0799 31.5053 21.371 32.475 21.371C33.6201 21.371 34.528 20.8615 35.2192 19.8425H35.2914V21.0799H36.8801V15.5791C36.8801 14.4249 36.5294 13.5099 35.8175 12.8548ZM31.3096 19.4369C30.9691 19.1874 30.7627 18.7818 30.7627 18.3451C30.7627 17.8564 30.9897 17.4508 31.4334 17.1285C31.8874 16.8061 32.4549 16.6398 33.1255 16.6398C34.0542 16.6294 34.7764 16.8373 35.2923 17.2533C35.2923 17.9604 35.0137 18.5739 34.4669 19.0938C33.9716 19.5929 33.3009 19.8737 32.5993 19.8737C32.135 19.8841 31.681 19.7281 31.3096 19.4369ZM40.4496 25L45.9998 12.1581H44.1944L41.6257 18.5634H41.5947L38.964 12.1581H37.1587L40.8003 20.5079L38.7371 25H40.4496Z" fill="#3C4043"/>
<path d="M16.5588 14.6536C16.5588 14.1441 16.5175 13.6346 16.435 13.1354H9.43018V16.0158H13.4432C13.2782 16.9412 12.7417 17.7731 11.9577 18.293V20.1647H14.3511C15.7541 18.8649 16.5588 16.9412 16.5588 14.6536Z" fill="#4285F4"/>
<path d="M9.43077 21.9741C11.4321 21.9741 13.124 21.3086 14.3517 20.1648L11.9583 18.2931C11.2877 18.7506 10.4315 19.0106 9.43077 19.0106C7.4913 19.0106 5.851 17.69 5.26297 15.9222H2.79736V17.8563C4.05596 20.3831 6.62472 21.9741 9.43077 21.9741Z" fill="#34A853"/>
<path d="M5.26306 15.9222C4.95352 14.9968 4.95352 13.9881 5.26306 13.0523V11.1286H2.79706C1.73431 13.2395 1.73431 15.7351 2.79706 17.8459L5.26306 15.9222Z" fill="#FBBC04"/>
<path d="M9.43077 9.96398C10.4934 9.94319 11.5147 10.3487 12.2781 11.087L14.4032 8.94494C13.0518 7.67635 11.2774 6.97966 9.43077 7.00045C6.62472 7.00045 4.05596 8.6018 2.79736 11.1286L5.26297 13.0627C5.851 11.2846 7.4913 9.96398 9.43077 9.96398Z" fill="#EA4335"/>
</svg>
