<svg width="48" height="32" viewBox="0 0 48 32" fill="none" xmlns="http://www.w3.org/2000/svg">
<mask id="mask0" mask-type="alpha" maskUnits="userSpaceOnUse" x="0" y="0" width="48" height="32">
<rect width="48" height="32" fill="white"/>
</mask>
<g mask="url(#mask0)">
<path d="M37 16.0055C36.9972 23.1856 31.1739 29.0034 23.9945 29C16.8151 28.9972 10.9973 23.1745 11 15.9945C11.0028 8.8172 16.8213 3.00069 23.9986 3C31.1787 2.99931 36.9993 8.81995 37 16V16.0055Z" fill="#F7931A"/>
<path d="M26.3698 13.4782C26.3698 15.1395 23.7617 14.9456 22.9317 14.9456V12.0095C23.7617 12.0081 26.3664 11.7441 26.3664 13.4769L26.3698 13.4782ZM27.0533 18.0454C27.0533 19.871 23.9281 19.6633 22.931 19.664V16.4267C23.9281 16.426 27.054 16.1393 27.054 18.044L27.0533 18.0454ZM29.1106 12.8195C28.9435 11.0778 27.4397 10.494 25.5419 10.3276V7.91202H24.0718V10.2643C23.6854 10.2643 23.29 10.2719 22.8973 10.2802V7.91271H21.4279V10.3276C21.1096 10.3338 20.7967 10.34 20.4921 10.34V10.3324H18.4636V11.905C18.4636 11.905 19.5494 11.8844 19.5315 11.905C19.942 11.852 20.3195 12.1395 20.3772 12.5493V15.2997C20.4288 15.2997 20.4811 15.3032 20.5326 15.31H20.3772V19.1655C20.3601 19.4522 20.1146 19.6702 19.8285 19.653H19.8272C19.8457 19.6695 18.7586 19.653 18.7586 19.653L18.4664 21.4092H20.38C20.7362 21.4092 21.0862 21.4154 21.43 21.4181V23.8612H22.8987V21.4435C23.3017 21.4518 23.6922 21.4552 24.0732 21.4552V23.8619H25.5412V21.4229C28.0166 21.2813 29.7439 20.6583 29.9584 18.3369C30.1317 16.4673 29.2523 15.6332 27.8495 15.2963C28.784 14.8535 29.3018 13.8358 29.1106 12.8195Z" fill="white"/>
</g>
</svg>
