<svg xmlns="http://www.w3.org/2000/svg" width="91.84" height="91.815" viewBox="0 0 91.84 91.815">
    <defs>
        <linearGradient id="linear-gradient" x1=".5" x2=".5" y2="1" gradientUnits="objectBoundingBox">
            <stop offset="0" stop-color="#006dff"/>
            <stop offset="1" stop-color="#43d2f1"/>
        </linearGradient>
    </defs>
    <path id="Unión_114" fill="url(#linear-gradient)" stroke="rgba(0,0,0,0)" stroke-miterlimit="10" d="M214.758 90.814q-20.5-.027-41-.017h-12.421c-4.843 0-8.052-3.206-8.054-8.037V60.531h-1.16q-10.684 0-21.369-.005a4.8 4.8 0 0 1-1.3-.133 4.612 4.612 0 0 1-3.407-4.563c-.005-9.865.058-19.731-.045-29.595a4.982 4.982 0 0 1 5.072-5.084c7.026.118 14.056.037 21.084.037h1.126V20.01c0-4.128-.006-8.258 0-12.386a7.012 7.012 0 0 1 2.687-5.787A21.3 21.3 0 0 1 159.523 0h38.968a3.129 3.129 0 0 0 .413.194 7.575 7.575 0 0 1 5.827 7.882V18.161c2.442 0 4.736-.005 7.03 0a7.779 7.779 0 0 1 1.5.1 4.792 4.792 0 0 1 3.578 3.49v14.191a1.284 1.284 0 0 0-.2.267A4.545 4.545 0 0 1 212 39.344h-1.228c2.062 4.175 4.067 8.236 6.071 12.3v38.209a2.192 2.192 0 0 1-2.07.961zm-58.434-14.883c-.008 2.237-.02 4.473-.015 6.71.005 3.3 1.852 5.13 5.173 5.132h32.608c.263 0 .526-.024.977-.047a17.018 17.018 0 0 1-6.944-12.033h-31.707a.96.96 0 0 0-.092.238zm56.812 11.839a5.468 5.468 0 0 0 .651-.067c.011-.239.026-.425.026-.61 0-11.219.024-22.44-.036-33.659a7.39 7.39 0 0 0-.846-3.133c-1.546-3.092-3.325-6.071-4.8-9.194a2.6 2.6 0 0 0-3.395-1.683v25.265c0 1.381-.5 1.889-1.859 1.895h-1.346c-.876-.005-1.75-.011-2.624.015a1.809 1.809 0 0 1-1.661-.866c-.957-1.367-1.942-2.714-2.921-4.066-1.976-2.729-3.911-5.488-5.95-8.17a4.206 4.206 0 0 0-4.949-1.568 4.511 4.511 0 0 0-2.206 7.013c2.776 4.164 5.546 8.335 8.419 12.432a9.108 9.108 0 0 1 1.679 4.577 13.257 13.257 0 0 0 11.527 11.609c2.371.2 4.761.2 7.15.2h.852c.763-.004 1.526-.002 2.289.01zm-56.751-15.189h30.294c-.221-.348-.377-.611-.549-.865q-3.625-5.36-7.252-10.716a8.523 8.523 0 0 1-1.6-4.271 7.551 7.551 0 0 1 4.842-7.564 7.458 7.458 0 0 1 8.581 2.331c2.684 3.578 5.353 7.171 7.857 10.874.886 1.31 1.865 1.291 3.074 1.127V39.406a7.852 7.852 0 0 0-4.386.639 54.613 54.613 0 0 1-5.432 2.149 2.427 2.427 0 0 1-1.723-.27c-.624-.342-.595-1.049-.383-1.695.068-.209.143-.416.213-.624.883-2.653 2.109-5.251 2.553-7.975.452-2.764.133-5.655.152-8.49v-.094a4.5 4.5 0 0 1 4.876-4.885h4.138v-2.952h-45.312v5.979c1.468 0 2.848-.005 4.229 0a4.56 4.56 0 0 1 4.828 4.872c0 7.535-.006 15.07.015 22.6a4.875 4.875 0 0 0 .331 1.728q2.674 6.8 5.413 13.573c.342.848.545 1.643-.283 2.308s-1.571.256-2.314-.248c-2.162-1.468-4.449-2.777-6.48-4.406a6.164 6.164 0 0 0-4.425-1.072c-.418.009-.838.019-1.256 0zm3.808-15.048a4.205 4.205 0 0 1 2.009.6c1.435.844 2.8 1.814 4.414 2.881-.194-.525-.294-.813-.407-1.1-1.175-2.946-2.367-5.886-3.517-8.842a4.665 4.665 0 0 1-.316-1.639q-.03-11.436-.014-22.874c0-1.825-.527-2.346-2.366-2.347H131.45c-1.883 0-2.383.508-2.383 2.423v28.451c0 1.893.521 2.421 2.391 2.421h11.412q8.662-.007 17.323.026zM197.7 21.188c-1.52 0-2.044.529-2.047 2.049-.006 2.677.013 5.354-.014 8.032a5.816 5.816 0 0 1-.27 1.655c-.522 1.672-1.1 3.328-1.742 5.27 1.105-.438 1.993-.731 2.827-1.136a8.228 8.228 0 0 1 3.83-.757c3.81.054 7.621.022 11.433.018 1.556 0 2.092-.541 2.1-2.106q.008-5.48 0-10.96c0-1.527-.528-2.064-2.034-2.065H197.7zM161.24 3.03c-2.382.01-4.349 1.274-4.683 3.311a52.175 52.175 0 0 0-.337 5.734h45.488V8.311c0-3.511-1.783-5.285-5.3-5.286h-30.799q-2.185-.003-4.369.005zm13.23 78.663a4.538 4.538 0 1 1 4.53 4.564 4.519 4.519 0 0 1-4.531-4.564zm3.042 0a1.5 1.5 0 1 0 2.992.045 1.642 1.642 0 0 0-1.429-1.516h-.067a1.622 1.622 0 0 0-1.496 1.473zm-27.62-27.215h-14.184c-1.732 0-2.2-.455-2.075-2.209.236-3.266.527-6.528.8-9.79.2-2.416.4-4.833.643-7.244.17-1.66.513-1.931 2.141-1.939h.913c-.727-5.476 4.5-7.524 7.592-4.958a4.491 4.491 0 0 1 5.5-.36c1.949 1.208 2.19 3.157 2.042 5.319.483 0 .882-.005 1.281 0 1.165.016 1.654.432 1.768 1.618.262 2.758.5 5.52.732 8.28q.36 4.188.7 8.376a12.964 12.964 0 0 1 .061 1.321 1.444 1.444 0 0 1-1.583 1.581q-1.38.01-2.761.009c-1.187-.001-2.379-.004-3.57-.004zm-13.1-3.072h11.783l-1.251-15.019h-9.283c-.416 5.033-.828 10.002-1.241 15.019zm14.872 0h2.965l-1.252-15.019h-2.965c.424 5.04.838 10.013 1.256 15.013zM147.9 30.63c-.977.638-.661 1.679-.619 2.619h2.951c0-1.025.322-2.137-.784-2.715a1.425 1.425 0 0 0-.641-.131 1.754 1.754 0 0 0-.907.227zm-5.984-.057c-1.038.59-.714 1.67-.712 2.674h3c-.055-.988.31-2.073-.73-2.667a1.657 1.657 0 0 0-.789-.175 1.617 1.617 0 0 0-.771.168zm58.465 2.715c-1.1-.008-1.718-.595-1.694-1.574.022-.919.626-1.441 1.715-1.444q4.343-.011 8.687 0c1.079 0 1.679.539 1.694 1.466.015.975-.6 1.544-1.715 1.552-1.448.01-2.9 0-4.343 0h-2.632q-.859.006-1.714 0zm-.052-6.054a1.467 1.467 0 0 1-1.642-1.531c0-.928.6-1.477 1.673-1.486 1.479-.012 2.958 0 4.438 0 1.447 0 2.9-.011 4.343 0 1.053.011 1.655.582 1.642 1.516a1.477 1.477 0 0 1-1.673 1.5q-2.243.007-4.485.007-2.15.002-4.298-.006zM177.687 9.076c-1.1-.007-1.722-.591-1.7-1.567.018-.921.621-1.449 1.708-1.452q5.1-.011 10.2 0c1.083 0 1.684.534 1.7 1.457.02.974-.6 1.554-1.708 1.561-1.732.01-3.463 0-5.194 0h-3q-1.005.006-2.006.001zm-6.326 0a1.519 1.519 0 1 1 .073 0z" data-name="Unión 114" transform="translate(-125.5 .5)"/>
</svg>
