<svg xmlns="http://www.w3.org/2000/svg" width="92.104" height="92" viewBox="0 0 92.104 92">
    <defs>
        <linearGradient id="linear-gradient" x1=".5" x2=".5" y2="1" gradientUnits="objectBoundingBox">
            <stop offset="0" stop-color="#006dff"/>
            <stop offset="1" stop-color="#43d2f1"/>
        </linearGradient>
    </defs>
    <g id="_32JwON.tif" data-name="32JwON.tif" transform="translate(44 -80.275)">
        <g id="Grupo_11019" data-name="Grupo 11019" transform="translate(-44 80.275)">
            <path id="Trazado_3598" fill="url(#linear-gradient)" d="M-44 160.964c.161-.574.3-1.156.487-1.722a9.921 9.921 0 0 1 9.65-6.8c1.842.018 3.69-.055 5.524.079a17.373 17.373 0 0 1 3.043.751c.167.044.325.121.566.212 0-1.831.024-3.6-.007-5.36a9.394 9.394 0 0 1 1.329-5.131 9.767 9.767 0 0 1 8.829-4.954c1.842-.011 3.689-.048 5.524.071a16.2 16.2 0 0 1 2.859.675 6.813 6.813 0 0 1 .689.263c.015-.3.035-.53.037-.765.013-1.84-.015-3.68.04-5.519a9.794 9.794 0 0 1 8.819-9.077c2.306-.113 4.626-.109 6.931.008a20.015 20.015 0 0 1 3.4.759v-12.775h-1.658c-1.663 0-3.326-.018-4.988.006a2.726 2.726 0 0 1-2.274-4.478q3.588-4.837 7.174-9.675L23.8 81.592a2.734 2.734 0 0 1 4.682.01q9.4 12.672 18.793 25.352c.314.424.552.9.825 1.359v1.347a3.139 3.139 0 0 1-3.454 2.038c-1.816-.084-3.638-.019-5.458-.019H38.5v.958q0 28.127.016 56.254a3.151 3.151 0 0 1-2.148 3.383h-78.345A3.39 3.39 0 0 1-44 170.255zm77.037 5.9v-.994q0-28.243-.017-56.486a2.889 2.889 0 0 1 3.133-3.108c1.242.075 2.492.014 3.876.014L26.136 87.569l-13.892 18.725c1.5 0 2.85-.031 4.2.017a3.369 3.369 0 0 1 1.4.361 2.857 2.857 0 0 1 1.392 2.849q-.006 28.243 0 56.486v.86zm-19.258 0V166v-28.4c0-1.5.026-3.008-.054-4.507a4.322 4.322 0 0 0-4.183-4.05q-2.627-.073-5.257 0a4.4 4.4 0 0 0-4.327 4.482V166.87zm-19.294 0a3.278 3.278 0 0 0 .04-.331c0-6.144.038-12.288-.014-18.432a4.458 4.458 0 0 0-4.8-4.656c-1.482 0-2.964-.009-4.446 0a4.477 4.477 0 0 0-4.586 4.6V166.87zm-19.217 0v-4.091a6.688 6.688 0 0 0-.071-.869 4.159 4.159 0 0 0-3.756-3.947 33.822 33.822 0 0 0-6.443.053 4.227 4.227 0 0 0-3.595 4.24c-.022 1.39-.006 2.78 0 4.171a3.349 3.349 0 0 0 .059.444z" data-name="Trazado 3598" transform="translate(44 -80.275)"/>
        </g>
    </g>
</svg>
