<svg xmlns="http://www.w3.org/2000/svg" id="Componente_1_37" width="89" height="58" data-name="Componente 1 – 37" viewBox="0 0 89 58">
    <defs>
        <clipPath id="clip-path">
            <rect id="Rectángulo_48" width="89" height="58" class="cls-1" data-name="Rectángulo 48" rx="2" transform="translate(3204 1001)"/>
        </clipPath>
        <style>
            .cls-1{fill:#fff}.cls-3{fill:#29327f}.cls-9{fill:#296db6}
        </style>
    </defs>
    <g id="Enmascarar_grupo_2" clip-path="url(#clip-path)" data-name="Enmascarar grupo 2" transform="translate(-3204 -1001)">
        <g id="visa" transform="translate(3202 999)">
            <path id="Rectángulo_47" d="M0 0H93V62H0z" class="cls-3" data-name="Rectángulo 47"/>
            <g id="Page-1" transform="translate(10.56 19.635)">
                <g id="Grupo_34" data-name="Grupo 34">
                    <g id="visa-65x41">
                        <g id="Page-1-2">
                            <path id="Path" d="M53.781 22.225h-5.2c-.178-.791-.388-1.558-.513-2.337A.889.889 0 0 0 47.006 19c-1.931.043-3.865-.025-5.793.05a1.521 1.521 0 0 0-1.031.76 21.728 21.728 0 0 0-.945 2.436h-5.892c.162-.44.284-.821.44-1.188C36.41 14.89 39.062 8.734 41.65 2.552A3.011 3.011 0 0 1 44.837.457c1.422.05 2.847.011 4.333.011l4.611 21.757" class="cls-1" transform="translate(17.204 -.085)"/>
                            <path id="Fill-3" d="M.622.627a6.079 6.079 0 0 1 .984-.164q4.232-.018 8.464 0a2.664 2.664 0 0 1 3.052 2.472c.753 3.8 1.468 7.617 2.2 11.426.034.175.083.348.188.787.248-.494.407-.763.522-1.049 1.7-4.2 3.405-8.4 5.065-12.618.288-.732.609-1.088 1.48-1.041 1.571.084 3.149.024 4.914.024-.879 2.092-1.693 4.047-2.522 6-2.1 4.943-4.238 9.872-6.3 14.832a1.408 1.408 0 0 1-1.617 1.022c-1.579-.069-3.163-.02-4.872-.02-.646-2.431-1.291-4.842-1.926-7.255C9.395 11.761 8.494 8.5 7.709 5.2a3.426 3.426 0 0 0-2.365-2.689C3.783 1.983 2.213 1.48.647.965z" class="cls-1" transform="translate(-.622 -.09)"/>
                            <path id="Fill-5" d="M40.164 1.236l-.925 4.3a28.993 28.993 0 0 0-3.865-.755 7.625 7.625 0 0 0-3.15.428c-1.414.547-1.507 1.846-.29 2.748A22.635 22.635 0 0 0 34.215 9.3c.567.325 1.142.637 1.711.959a6.153 6.153 0 0 1 0 10.8 14.231 14.231 0 0 1-9.3 1.49 16.31 16.31 0 0 1-3.04-.687 1.14 1.14 0 0 1-.606-.928c.2-1.308.541-2.6.807-3.786 1.772.365 3.467.822 5.193 1.024a6.268 6.268 0 0 0 2.819-.4 1.745 1.745 0 0 0 .435-3.269 17.9 17.9 0 0 0-1.786-1.05 29.019 29.019 0 0 1-2.866-1.709 5.6 5.6 0 0 1-.661-8.678A9.183 9.183 0 0 1 31.86.5a14.643 14.643 0 0 1 8.3.731" class="cls-1" transform="translate(11.556 -.211)"/>
                            <path id="Fill-8" d="M22.292 22.2H16.6L21.319.493H27L22.292 22.2" class="cls-1" transform="translate(8.08 -.056)"/>
                            <path id="Fill-10" d="M42.179 4.553l1.636 7.764h-4.8L41.9 4.489z" class="cls-3" transform="translate(20.291 2.12)"/>
                        </g>
                    </g>
                </g>
            </g>
        </g>
        <g id="mastercard" transform="translate(3202.615 1000)">
            <g id="Grupo_35" data-name="Grupo 35" transform="translate(-.615)">
                <path id="Rectangle-path" fill="#272622" d="M0 0H93V60.45H0z"/>
                <g id="Group" transform="translate(17.67 12.322)">
                    <path id="Shape" fill="#f79e1b" d="M33.52.462a17.9 17.9 0 1 0-.232 35.8 18.061 18.061 0 0 0 17.9-17.9A17.568 17.568 0 0 0 33.52.462" transform="translate(6.703 -.462)"/>
                    <path id="Shape-2" fill="#eb001b" d="M18.672.462a17.9 17.9 0 1 0 0 35.8 18.109 18.109 0 0 0 18.135-17.9A17.961 17.961 0 0 0 18.672.462" data-name="Shape" transform="translate(-.769 -.462)"/>
                    <path id="Shape-3" fill="#ff5f00" d="M29.3 17.106a17.952 17.952 0 0 0-6.979-14.183 17.815 17.815 0 0 0-3.021 25.11 18.584 18.584 0 0 0 3.022 3.022A17.182 17.182 0 0 0 29.3 17.106" data-name="Shape" transform="translate(6.742 .797)"/>
                </g>
            </g>
        </g>
        <g id="americanexpress-light-large" transform="translate(3202.492 999)">
            <rect id="card_bg" width="94" height="62" fill="#dfe3e8" rx="4" transform="translate(-.492)"/>
            <g id="amex" transform="translate(2.218 14.822)">
                <path id="Path-2" d="M2.343 1.624l1 2.435H0l1.015-2.435L1.679 0l.664 1.624z" class="cls-9" data-name="Path" transform="translate(4.393 4.539)"/>
                <path id="Shape-4" d="M57.124 15.131a7.342 7.342 0 0 1-4.281-1.367v1.365h-8.874l-2.14-2.693v2.693H7.99l-.849-2.25H5.076l-.868 2.25H0v-2.251h2.806l.885-2.178h4.852l.887 2.1h2.841L7.806 2.4H4.521L0 12.874V7.011L2.954 0h6.014L10.7 3.874V0h7.381l1.108 3.321L20.3.073h32.543v1.514A7.2 7.2 0 0 1 57.249.07H67.308l1.845 3.876V.073h5.794l1.974 3.064V.073h6.624v15.056h-6.236l-1.847-2.914v2.914h-9.04l-.9-2.25h-2.07l-.849 2.25h-5.3zM71.145 2.4v10.479h2.473V5.867l.664 1.144L78.14 12.8h2.95l.093-10.48H78.6v6.79l-.7-1.181L74.209 2.4zm-8.245 0l-4.466 10.479h2.693l.885-2.179h4.927l.885 2.1h2.843L66.22 2.4zm-6.036-.012a4.706 4.706 0 0 0-4.684 5.141v.148a4.613 4.613 0 0 0 4.58 5.136c.084 0 .169 0 .253-.007h.148l1.015-2.213h-.922a2.584 2.584 0 0 1-2.565-2.919v-.147a2.585 2.585 0 0 1 2.565-2.881h2.878V2.4H57.2c-.114-.01-.226-.014-.337-.014zm-8.689.012v10.4H50.7V2.4zM40.2 9.115h1.144l3.1 3.69h3.21L44.19 8.967a3.214 3.214 0 0 0 2.841-3.285 3.267 3.267 0 0 0-3.69-3.282h-5.7v10.4H40.2V9.115zM23.227 4.4v8.4h2.436V2.4h-4.075l-2.065 6.014-.332 1.144-.332-1.144L16.828 2.4h-4.077v10.4h2.416V4.39l.516 1.587 2.363 6.823H20.3l2.454-6.826zm4.451-2v10.331h8.3v-2.215H30.13V8.671h5.7V6.458h-5.7V4.613h5.85V2.4zm38.561 6.2h-3.282l.957-2.436.664-1.624.628 1.551.368.893-.368-.893-.628-1.551.664 1.624.38.93.586 1.424-1.095-2.356L66.237 8.6zM43.285 6.913a1.143 1.143 0 0 1-.165-.012H40.2V4.613h2.916a1.159 1.159 0 0 1 1.29 1.138v.037a1.125 1.125 0 0 1-1.126 1.125zm.747-.357a1.123 1.123 0 0 1-.738.283 1.122 1.122 0 0 0 .738-.283z" class="cls-9" data-name="Shape"/>
                <path id="Shape-5" d="M37.824 15.058h-6.326v-3.8a9.09 9.09 0 0 1-2.687.406h-1.117v3.4h-9.317L16.826 12.8l-1.586 2.256H0V0h15.277l1.549 2.213L18.414 0h53.765v2.325h-5.407a3.21 3.21 0 0 0-3.578 3.285 2.9 2.9 0 0 0 3.246 3.061h2.38a.942.942 0 0 1 .968.4.94.94 0 0 1-.968 1.445h-5.333v2.215h5.3c.1.009.2.014.3.014a3.279 3.279 0 0 0 3.057-2.118v3.505a6.176 6.176 0 0 1-3.253.924H39.964l-2.14-2.7v2.7zm-21-5.648l2.508 3.319 3.175.073L18.3 7.565l4.133-5.241h-3.059l-2.548 3.285L14.3 2.361h-3.138l4.188 5.2-4.058 5.166h2.934l2.6-3.319zm37.048 1.106v2.215h5.388c.085.007.172.01.257.01A3.23 3.23 0 0 0 62.75 9.41a2.858 2.858 0 0 0-3.25-2.989h-2.414a.941.941 0 1 1 0-1.845h4.483l1-2.215h-5.41a3.211 3.211 0 0 0-3.578 3.248 2.9 2.9 0 0 0 3.246 3.062h2.436a.941.941 0 1 1 0 1.845zM36.107 9.04h1.144l3.1 3.691h3.21l-3.487-3.837a3.307 3.307 0 0 0-.774-6.569h-5.646v10.406h2.453V9.04zM22.952 2.325v10.406h2.473V9.3h3.192a3.414 3.414 0 0 0 3.763-3.506 3.339 3.339 0 0 0-3.69-3.469zm21.2 0v10.3h8.394v-2.218H46.7V8.562h5.7V6.383h-5.7V4.538h5.794l.055-2.214zm-41.752 0v10.3h8.359v-2.218h-5.85V8.562h5.737V6.383H4.909V4.538h5.848V2.325zm69.682 5.786a2.987 2.987 0 0 0-3.022-1.728h-2.418a.941.941 0 1 1 0-1.845h4.54l.9-2.14V8.11zM28.468 7.086h-2.989V4.538h2.989a1.274 1.274 0 1 1 0 2.547zm10.777-.246a1.129 1.129 0 0 1-.168-.013h-2.914V4.538h2.914a1.163 1.163 0 0 1 .145-.009 1.145 1.145 0 0 1 1.147 1.153v.031a1.126 1.126 0 0 1-1.125 1.125z" class="cls-9" data-name="Shape" transform="translate(16.385 19.742)"/>
            </g>
        </g>
        <rect id="Rectángulo_2150" width="95" height="62" class="cls-1" data-name="Rectángulo 2150" rx="2" transform="translate(3201 999)"/>
        <g id="Page-1-2-2" data-name="Page-1" transform="translate(3226.719 1008.86)">
            <g id="Artboard-Copy" transform="translate(.134 .364)">
                <g id="Group-12">
                    <g id="Group-11">
                        <path id="Fill-7" fill="#53565a" fill-rule="evenodd" d="M23.686 26.333a3.313 3.313 0 0 0-4.628.735l-3.9 5.365a3.314 3.314 0 1 0 5.363 3.895l3.9-5.363a3.318 3.318 0 0 0-.737-4.632zm6.1 8.527a3.315 3.315 0 1 0 .735 4.63 3.317 3.317 0 0 0-.735-4.63zM6.129 5.382a3.315 3.315 0 1 0-4.629.733 3.315 3.315 0 0 0 4.629-.733zm19.254 1.7a3.31 3.31 0 0 0-4.627.731L5.167 29.268a3.314 3.314 0 1 0 5.362 3.9L26.118 11.71a3.308 3.308 0 0 0-.735-4.627zM7.6 14.646a3.317 3.317 0 0 0 4.631-.738l3.895-5.361a3.314 3.314 0 0 0-5.362-3.9l-3.9 5.363a3.317 3.317 0 0 0 .736 4.636zm179.585 7.924c0-4.351-2.014-7.949-7.538-7.949a7.384 7.384 0 0 0-5.432 1.921 7.393 7.393 0 0 0-5.446-1.921c-5.489 0-7.537 3.6-7.537 7.949v9.766a2.1 2.1 0 1 0 4.2 0V22.57c0-2.574.8-4.162 3.338-4.162 2.573 0 3.337 1.588 3.337 4.162v9.766a2.1 2.1 0 1 0 4.2 0V22.57c0-2.574.8-4.162 3.337-4.162 2.573 0 3.338 1.588 3.338 4.162v9.766a2.1 2.1 0 1 0 4.2 0zm-32.119-7.947a2.114 2.114 0 0 0-2.119 2.12v9.766c0 2.572-1.138 4.162-3.674 4.162-2.573 0-3.671-1.59-3.671-4.162v-9.766a2.1 2.1 0 1 0-4.2 0v9.766c0 4.352 2.346 7.948 7.871 7.948 5.489 0 7.876-3.6 7.876-7.948v-9.766a2.107 2.107 0 0 0-2.082-2.12zm-43.226 7.419c0-4.393-2.319-7.193-7.659-7.193h-3.886V8.944a2.1 2.1 0 1 0-4.2 0v17.565c0 4.352 2.346 7.948 7.871 7.948 5.488 0 7.876-3.6 7.876-7.948v-4.39zm-4.2 4.466c0 2.572-1.137 4.162-3.674 4.162-2.574 0-3.671-1.59-3.671-4.162V18.52h3.851c3.1 0 3.493 1.7 3.493 3.6zm30.912-9.844a1.8 1.8 0 0 0-1.967-1.815H126.1a1.826 1.826 0 0 0-1.856 1.815 1.856 1.856 0 0 0 1.856 1.856h6.888l-8.93 12.416a2.233 2.233 0 0 0-.415 1.249 2.012 2.012 0 0 0 1.929 2.044H136.7a1.858 1.858 0 0 0 1.852-1.856 1.833 1.833 0 0 0-1.852-1.855h-7.494l8.742-12.147a2.69 2.69 0 0 0 .6-1.706zm-20.666-9.84a2.376 2.376 0 0 0-2.386 2.385 2.386 2.386 0 1 0 4.771 0 2.375 2.375 0 0 0-2.386-2.384zm0 7.8a2.107 2.107 0 0 0-2.12 2.081v15.632a2.121 2.121 0 0 0 4.241 0V16.705a2.108 2.108 0 0 0-2.121-2.081z" transform="translate(6.866 -.12)"/>
                    </g>
                </g>
            </g>
        </g>
    </g>
</svg>
