<svg xmlns="http://www.w3.org/2000/svg" id="visa" width="93" height="62" viewBox="0 0 93 62">
    <defs>
        <style>
            .cls-1{fill:#29327f}.cls-2{fill:#fff}
        </style>
    </defs>
    <path id="Rectángulo_47" d="M0 0H93V62H0z" class="cls-1" data-name="Rectángulo 47"/>
    <g id="Page-1" transform="translate(10.56 19.635)">
        <g id="Grupo_34" data-name="Grupo 34">
            <g id="visa-65x41">
                <g id="Page-1-2">
                    <path id="Path" d="M53.781 22.225h-5.2c-.178-.791-.388-1.558-.513-2.337A.889.889 0 0 0 47.006 19c-1.931.043-3.865-.025-5.793.05a1.521 1.521 0 0 0-1.031.76 21.728 21.728 0 0 0-.945 2.436h-5.892c.162-.44.284-.821.44-1.188C36.41 14.89 39.062 8.734 41.65 2.552A3.011 3.011 0 0 1 44.837.457c1.422.05 2.847.011 4.333.011l4.611 21.757" class="cls-2" transform="translate(17.204 -.085)"/>
                    <path id="Fill-3" d="M.622.627a6.079 6.079 0 0 1 .984-.164q4.232-.018 8.464 0a2.664 2.664 0 0 1 3.052 2.472c.753 3.8 1.468 7.617 2.2 11.426.034.175.083.348.188.787.248-.494.407-.763.522-1.049 1.7-4.2 3.405-8.4 5.065-12.618.288-.732.609-1.088 1.48-1.041 1.571.084 3.149.024 4.914.024-.879 2.092-1.693 4.047-2.522 6-2.1 4.943-4.238 9.872-6.3 14.832a1.408 1.408 0 0 1-1.617 1.022c-1.579-.069-3.163-.02-4.872-.02-.646-2.431-1.291-4.842-1.926-7.255C9.395 11.761 8.494 8.5 7.709 5.2a3.426 3.426 0 0 0-2.365-2.689C3.783 1.983 2.213 1.48.647.965z" class="cls-2" transform="translate(-.622 -.09)"/>
                    <path id="Fill-5" d="M40.164 1.236l-.925 4.3a28.993 28.993 0 0 0-3.865-.755 7.625 7.625 0 0 0-3.15.428c-1.414.547-1.507 1.846-.29 2.748A22.635 22.635 0 0 0 34.215 9.3c.567.325 1.142.637 1.711.959a6.153 6.153 0 0 1 0 10.8 14.231 14.231 0 0 1-9.3 1.49 16.31 16.31 0 0 1-3.04-.687 1.14 1.14 0 0 1-.606-.928c.2-1.308.541-2.6.807-3.786 1.772.365 3.467.822 5.193 1.024a6.268 6.268 0 0 0 2.819-.4 1.745 1.745 0 0 0 .435-3.269 17.9 17.9 0 0 0-1.786-1.05 29.019 29.019 0 0 1-2.866-1.709 5.6 5.6 0 0 1-.661-8.678A9.183 9.183 0 0 1 31.86.5a14.643 14.643 0 0 1 8.3.731" class="cls-2" transform="translate(11.556 -.211)"/>
                    <path id="Fill-8" d="M22.292 22.2H16.6L21.319.493H27L22.292 22.2" class="cls-2" transform="translate(8.08 -.056)"/>
                    <path id="Fill-10" d="M42.179 4.553l1.636 7.764h-4.8L41.9 4.489z" class="cls-1" transform="translate(20.291 2.12)"/>
                </g>
            </g>
        </g>
    </g>
</svg>
