<svg width="48" height="32" viewBox="0 0 48 32" fill="none" xmlns="http://www.w3.org/2000/svg">
<path d="M10.0395 9.32065C9.52383 9.92864 8.69874 10.4082 7.87365 10.3397C7.77051 9.5176 8.17446 8.64415 8.64717 8.10466C9.16286 7.47954 10.0653 7.03425 10.7959 7C10.8818 7.85633 10.5466 8.69553 10.0395 9.32065Z" fill="black"/>
<path d="M10.7874 10.5024C9.59269 10.4339 8.56992 11.1789 8.00267 11.1789C7.42682 11.1789 6.55875 10.5366 5.61333 10.5538C4.38429 10.5709 3.24119 11.2645 2.61378 12.3692C1.32457 14.5785 2.27858 17.8497 3.52482 19.648C4.13504 20.5385 4.86559 21.5147 5.8282 21.4805C6.73924 21.4462 7.10022 20.8896 8.20035 20.8896C9.30906 20.8896 9.62707 21.4805 10.5897 21.4634C11.5867 21.4462 12.2141 20.5728 12.8243 19.6822C13.5205 18.6717 13.8041 17.687 13.8213 17.6356C13.8041 17.6185 11.8961 16.8906 11.8789 14.6984C11.8617 12.8658 13.383 11.9924 13.4517 11.941C12.5922 10.6736 11.2515 10.5366 10.7874 10.5024Z" fill="black"/>
<path fill-rule="evenodd" clip-rule="evenodd" d="M17.689 21.3692V8.01901H22.7169C25.3125 8.01901 27.126 9.80017 27.126 12.4034C27.126 15.0066 25.2781 16.8049 22.6481 16.8049H19.7689V21.3692H17.689ZM22.1666 9.76593H19.7687V15.0666H22.158C23.9715 15.0666 25.0029 14.0989 25.0029 12.412C25.0029 10.725 23.9715 9.76593 22.1666 9.76593Z" fill="black"/>
<path fill-rule="evenodd" clip-rule="evenodd" d="M33.9931 19.7678C33.443 20.8125 32.2312 21.4719 30.9248 21.4719C28.991 21.4719 27.6416 20.3244 27.6416 18.5946C27.6416 16.882 28.948 15.8972 31.3631 15.7516L33.9587 15.5975V14.8611C33.9587 13.7735 33.2454 13.1827 31.9733 13.1827C30.9248 13.1827 30.1599 13.7221 30.0052 14.5442H28.1315C28.1917 12.8144 29.8247 11.5556 32.0335 11.5556C34.4142 11.5556 35.9613 12.7973 35.9613 14.724V21.3691H34.0361V19.7678H33.9931ZM29.6698 18.5433C29.6698 19.3568 30.3746 19.8877 31.4833 19.8877C32.8929 19.8877 33.9586 18.9971 33.9586 17.7469V16.9933L31.6466 17.1389C30.3488 17.216 29.6698 17.7041 29.6698 18.5433Z" fill="black"/>
<path d="M38.531 25C40.5593 25 41.5133 24.2293 42.347 21.8915L45.9998 11.6841H43.8855L41.436 19.5709H41.393L38.9435 11.6841H36.769L40.2929 21.4034L40.1038 21.9943C39.7858 22.9962 39.2701 23.3815 38.3505 23.3815C38.1872 23.3815 37.8692 23.3644 37.7402 23.3473V24.9486C37.8606 24.9829 38.3763 25 38.531 25Z" fill="black"/>
</svg>
