<svg xmlns="http://www.w3.org/2000/svg" width="107" height="107" viewBox="0 0 107 107">
    <g>
        <path fill="none" d="M0 0H107V107H0z" transform="translate(-29 -28.92) translate(29 28.92)"/>
        <g>
            <g>
                <path d="M700.352 1615h5.163v-24.22h-5.163zm32.7-13.982v-2.15h-4.862v16.175h4.862v-8.474c0-2.453 2.754-3.528 4.689-3.012h.043v-4.689a5.66 5.66 0 0 0-4.732 2.15zm-16.606 10.24a4.351 4.351 0 1 1 4.56-4.347 4.439 4.439 0 0 1-4.56 4.347zm4.517-11.315a8.53 8.53 0 1 0-4.948 15.488 8.869 8.869 0 0 0 4.948-1.549V1615h4.216v-16.176h-4.216zm28.953-1.55a5.9 5.9 0 0 0-4.99 2.238v-1.807h-4.861V1615h4.861v-8.861a3.408 3.408 0 0 1 3.656-3.657c2.108 0 3.356 1.29 3.356 3.613v8.862h4.862v-10.28c0-3.7-3.012-6.283-6.884-6.283zm31.405 10.884a3.055 3.055 0 1 0 3.054 3.055 3.067 3.067 0 0 0-3.054-3.055zm-13.9 1.98a4.351 4.351 0 1 1 4.561-4.347 4.439 4.439 0 0 1-4.561 4.347zm4.561-11.315a8.53 8.53 0 1 0-4.948 15.488 8.871 8.871 0 0 0 4.948-1.549V1615h4.218v-16.176h-4.215zm7.27-.817h.215a.2.2 0 0 1 .215.171c0 .13-.043.173-.215.173h-.215zm0 .558h.215l.215.473h.215l-.215-.473a.34.34 0 0 0 .215-.343.4.4 0 0 0-.43-.387h-.43v1.2h.215zM677.637 1615h5.378v-24.22h-5.378zm19.187-24.22h-5.205a14.335 14.335 0 0 1-7.83 12.519l8.045 11.7h6.539l-7.313-10.626a19.429 19.429 0 0 0 5.764-13.594zm82.6 7.83a.946.946 0 1 1-.946.946.954.954 0 0 1 .946-.946zm0 2.107a1.162 1.162 0 1 0-1.162-1.161 1.156 1.156 0 0 0 1.162 1.161z" transform="translate(-29 -28.92) translate(29.265 70.099) translate(-677.637 -1590.779)"/>
            </g>
        </g>
    </g>
</svg>
