<svg xmlns="http://www.w3.org/2000/svg" width="107" height="107" viewBox="0 0 107 107">
    <g>
        <path fill="none" d="M0 0H107V107H0z" transform="translate(12.71 29.235) translate(-12.71 -29.235)"/>
        <path fill="#2a2a6c" d="M50.9 28.924a21.038 21.038 0 0 1-7.79-1.491l1.29-6.075a14.835 14.835 0 0 0 7.11 1.825h.19c2.13-.031 4.279-.9 4.279-2.764.029-1.19-.977-2.137-3.711-3.494-2.684-1.333-6.252-3.573-6.252-7.626 0-5.474 4.921-9.3 11.966-9.3a18.93 18.93 0 0 1 6.7 1.247l-1.253 6.076a13.329 13.329 0 0 0-5.744-1.312c-.439 0-.882.022-1.319.066-2.067.278-2.992 1.376-2.992 2.341 0 1.177 1.482 1.966 3.359 2.963 2.978 1.583 6.683 3.554 6.663 8.187l.151-.243c-.03 5.833-4.929 9.6-12.475 9.6zm19.825-.242h-7.537L73.93 2.644A3.252 3.252 0 0 1 76.922.577H82.9l5.8 28.1h-6.639l-.861-4.188h-9.006l-1.465 4.191zm7.12-20.509l-3.77 10.541h5.954zM38 28.59h-7.185L36.8.487h7.18L38 28.588zm-15.71-.09h-7.809L8.767 6.046A3.053 3.053 0 0 0 7.06 3.585 29.356 29.356 0 0 0 0 1.214l.18-.82h12.177a3.36 3.36 0 0 1 3.32 2.857L18.668 19.5 26.119.394H33.9L22.291 28.5z" transform="translate(12.71 29.235) translate(-3.71 9.765)"/>
    </g>
</svg>
