<svg id="Layer_1" data-name="Layer 1" xmlns="http://www.w3.org/2000/svg" viewBox="0 0 140.88 90"><defs><style>.cls-1{fill:none;}.cls-2{fill:#db383c;}.cls-3{fill:#e20613;}.cls-4{fill:#2c4f7a;}.cls-5{fill:#0069b3;}.cls-6{fill:#00919d;}.cls-7{fill:#fff;}</style></defs><title>09-unionpay</title><path class="cls-1" d="M60.69,0h0Z"/><path class="cls-1" d="M0,83.95V90H6.78A6.56,6.56,0,0,1,0,83.95Z"/><path class="cls-2" d="M99.23,0h0Z"/><path class="cls-3" d="M32.22,81.3,48.63,8.7C49.71,4,55.72.11,60.5,0H28.67c-4.81,0-11,3.89-12.07,8.7L.19,81.3A9.11,9.11,0,0,0,0,82.6v1.35A6.56,6.56,0,0,0,6.78,90h32C34.08,89.93,31.13,86.06,32.22,81.3Z"/><path class="cls-4" d="M85.36,0h0Z"/><path class="cls-5" d="M71,81.3,87.37,8.7C88.45,4,94.38.17,99.15,0H60.5C55.72.11,49.71,4,48.63,8.7L32.22,81.3c-1.09,4.76,1.86,8.63,6.59,8.7H77.55C72.82,89.93,69.88,86.06,71,81.3Z"/><path class="cls-6" d="M133.93,0H99.15C94.38.17,88.45,4,87.37,8.7L71,81.3c-1.08,4.76,1.86,8.63,6.59,8.7H114a11.6,11.6,0,0,0,10.25-8.67l16.41-72.6C141.75,3.93,138.74,0,133.93,0Z"/><path class="cls-7" d="M61.17,52.91h.6a1.1,1.1,0,0,0,1.1-.55L64.44,50h4.19l-.87,1.54h5l-.64,2.36h-6a2.8,2.8,0,0,1-2.56,1.47H60.5l.68-2.47m-.69,3.38h11l-.7,2.56H66.37l-.68,2.48H70l-.7,2.56H65l-1,3.66q-.37.92,1,.82h3.51l-.65,2.38H61.08q-1.92,0-1.32-2.2L61,63.9H58.29l.7-2.56h2.76l.68-2.48H59.79ZM78.06,50l-.17,1.5a8.08,8.08,0,0,1,4-1.56h7l-2.67,9.65q-.33,1.66-2.84,1.65h-7.9L73.56,68c-.11.36,0,.55.44.55h1.56L75,70.67H71q-2.28,0-1.9-1.37L74.37,50ZM84,52.72H77.75L77,55.33a5.17,5.17,0,0,1,2.77-.78c1.73,0,3.7,0,3.7,0Zm-2.25,6c.46.06.72-.12.75-.55l.38-1.37H76.61l-.52,1.92Zm-4.2,3.12H81.1L81,63.44h1c.48,0,.72-.15.72-.46L83,62h3l-.4,1.47a2.58,2.58,0,0,1-2.68,1.92H81V68c0,.43.35.64,1.14.64h1.8l-.58,2.1H79c-1.21.06-1.8-.52-1.79-1.74Z"/><path class="cls-7" d="M92.78,53l.83-2.93h4.21l-.18,1.08a10.59,10.59,0,0,1,3.7-1.08h5.21L105.73,53h-.82L101,66.84h.82L101,69.59h-.82l-.34,1.19H95.78l.34-1.19h-8l.78-2.75h.81L93.59,53h-.81m4.54,0-1.07,3.74a17.47,17.47,0,0,1,3.42-.9c.35-1.31.81-2.84.81-2.84Zm-1.57,5.5-1.08,3.92a11.71,11.71,0,0,1,3.43-1.09c.4-1.51.81-2.83.81-2.83Zm.79,8.33L97.35,64H94.21l-.81,2.84ZM106.73,49.9h4l.17,1.46c0,.37.19.55.66.55h.7l-.71,2.48h-2.91c-1.11.06-1.68-.37-1.74-1.28Zm-1.16,5.31H118.4l-.75,2.66h-4.08l-.7,2.47h4.08L116.18,63h-4.54l-1,1.56h2.22l.51,3.11c.06.31.34.46.81.46h.69l-.73,2.56h-2.45c-1.27.06-1.92-.36-2-1.28l-.59-2.84-2,3a2.19,2.19,0,0,1-2.21,1.19h-3.73l.73-2.56H103a1.56,1.56,0,0,0,1.24-.64L107.44,63h-4.08l.76-2.65h4.43l.7-2.47h-4.43Z"/><path class="cls-7" d="M34,37.13a8.78,8.78,0,0,1-3.37,5.52,11,11,0,0,1-6.72,1.92q-3.87,0-5.68-2A5.13,5.13,0,0,1,17,39.05a9.51,9.51,0,0,1,.21-1.92L20.09,23H24.5L21.62,37A4.48,4.48,0,0,0,21.5,38,2.72,2.72,0,0,0,22,39.79a3,3,0,0,0,2.55,1,5.33,5.33,0,0,0,3.34-1A4.6,4.6,0,0,0,29.62,37L32.51,23H36.9L34,37.13"/><path class="cls-7" d="M38,31.59h3.12L40.8,33.4l.45-.52a4.85,4.85,0,0,1,3.69-1.62,3.37,3.37,0,0,1,2.85,1.15,3.82,3.82,0,0,1,.47,3.19l-1.72,8.57h-3.2l1.55-7.76a2.48,2.48,0,0,0-.13-1.79A1.51,1.51,0,0,0,43.37,34a3,3,0,0,0-2.08.77,3.8,3.8,0,0,0-1.13,2.14l-1.43,7.22H35.53L38,31.59"/><path class="cls-7" d="M73.78,31.59h3.12l-.35,1.82.44-.52a4.86,4.86,0,0,1,3.69-1.62,3.36,3.36,0,0,1,2.85,1.15A3.81,3.81,0,0,1,84,35.6l-1.71,8.57H79.07l1.55-7.76a2.49,2.49,0,0,0-.13-1.79A1.52,1.52,0,0,0,79.11,34a3,3,0,0,0-2.09.77,3.76,3.76,0,0,0-1.12,2.14l-1.44,7.22H71.26l2.51-12.58"/><path class="cls-7" d="M52.51,31.59H56L53.25,44.16H49.81l2.7-12.57M53.59,27h3.49l-.65,3.05H52.94Z"/><path class="cls-7" d="M59,43.21a4.64,4.64,0,0,1-1.36-3.51,8.15,8.15,0,0,1,0-.85c0-.32.08-.63.14-.92a8.52,8.52,0,0,1,2.63-4.86,7,7,0,0,1,4.86-1.8A5.09,5.09,0,0,1,69,32.57a4.7,4.7,0,0,1,1.35,3.55,8.66,8.66,0,0,1-.05.87c0,.32-.09.63-.14.94a8.29,8.29,0,0,1-2.62,4.79,7.08,7.08,0,0,1-4.84,1.77A5.13,5.13,0,0,1,59,43.21m6.58-2.49a6.13,6.13,0,0,0,1.31-3c0-.21.08-.43.1-.64a5.75,5.75,0,0,0,0-.59,2.55,2.55,0,0,0-.59-1.8A2.16,2.16,0,0,0,64.77,34a3,3,0,0,0-2.35,1,6.33,6.33,0,0,0-1.33,3c0,.21-.07.42-.1.62a4.46,4.46,0,0,0,0,.58,2.5,2.5,0,0,0,.59,1.79,2.19,2.19,0,0,0,1.69.63,3,3,0,0,0,2.35-1"/><path class="cls-7" d="M89.19,23.79h9.05a6.12,6.12,0,0,1,4,1.17,4.19,4.19,0,0,1,1.38,3.38v0c0,.28,0,.59,0,.93s-.1.68-.18,1A8,8,0,0,1,100.66,35a7.79,7.79,0,0,1-5.09,1.77H90.71l-1.5,7.37H85l4.18-20.38m2.26,9.47h4A3.9,3.9,0,0,0,98,32.53a3.8,3.8,0,0,0,1.22-2.24c0-.19.06-.35.08-.51s0-.29,0-.43a1.73,1.73,0,0,0-.77-1.57,4.6,4.6,0,0,0-2.44-.49H92.68Z"/><path class="cls-7" d="M122.46,46.6a19.81,19.81,0,0,1-3.34,5.24,6.76,6.76,0,0,1-5.77,2.39l.31-2.16c3-.92,4.61-5.07,5.53-6.91l-1.1-13.54,2.31,0h1.94l.21,8.49,3.64-8.49h3.68l-7.4,15"/><path class="cls-7" d="M112.16,32.61l-1.46,1c-1.53-1.2-2.92-1.94-5.62-.69-3.67,1.7-6.73,14.75,3.37,10.45l.58.68,4,.1,2.61-11.85-3.45.3M109.9,39.1c-.64,1.88-2.06,3.13-3.18,2.77s-1.51-2.16-.87-4S107.93,34.69,109,35s1.52,2.16.87,4"/></svg>