<svg xmlns="http://www.w3.org/2000/svg" width="107" height="107" viewBox="0 0 107 107">
    <defs>
        <style>
            .cls-2,.cls-3{fill:#100f0c;fill-rule:evenodd}.cls-3{fill:#70a918}
        </style>
    </defs>
    <g id="Trustly" transform="translate(-24 -29.92)">
        <path id="Rectángulo_2822" fill="none" d="M0 0H107V107H0z" transform="translate(24 29.92)"/>
        <g id="Grupo_11934" transform="translate(24.376 66.182)">
            <g id="Grupo_11812" transform="translate(0 .739)">
                <g id="Grupo_2268" transform="translate(31.885 9.944)">
                    <path id="Trazado_2206" d="M437.479 292.967c0 1.213.007 2.426 0 3.639a3.66 3.66 0 0 1-.306 1.436 2.4 2.4 0 0 1-2.2 1.533h-.22c-1.713 0-3.426.005-5.14 0a4.645 4.645 0 0 1-.984-.1 2.5 2.5 0 0 1-1.988-2.01 4.841 4.841 0 0 1-.135-1.09c-.012-2.3-.008-4.6 0-6.9a1.942 1.942 0 0 1 .087-.562.731.731 0 0 1 .773-.562h1.412c.471 0 .926-.008 1.39 0a1.617 1.617 0 0 1 .515.094.847.847 0 0 1 .573.854v5.206a2.656 2.656 0 0 0 .053.568.7.7 0 0 0 .69.6.766.766 0 0 0 .849-.52 1.735 1.735 0 0 0 .082-.54c.006-1.728 0-3.455.006-5.184a3.552 3.552 0 0 1 .043-.57.554.554 0 0 1 .517-.492 2.2 2.2 0 0 1 .285-.02h2.625a2.368 2.368 0 0 1 .395.034.781.781 0 0 1 .683.728 2.732 2.732 0 0 1 .012.308v3.551z" class="cls-2" transform="translate(-403.082 -284.08)"/>
                    <path id="Trazado_2207" d="M313.449 267.762h5.624a2.661 2.661 0 0 1 .525.046.436.436 0 0 1 .4.478c.008.25 0 .5 0 .75v1.875c0 .4-.1.518-.5.527-.544.013-1.088.006-1.632.006h-1.5c-.381.01-.459.09-.459.475v10.189a3.355 3.355 0 0 1-.022.374.47.47 0 0 1-.357.43 1.812 1.812 0 0 1-.454.076c-.566.011-1.132.009-1.7.009-.617 0-1.235 0-1.852-.008a1.77 1.77 0 0 1-.413-.057.393.393 0 0 1-.308-.338 2.511 2.511 0 0 1-.029-.373v-10.167c0-.1 0-.206-.009-.308a.265.265 0 0 0-.256-.28 1.728 1.728 0 0 0-.285-.021h-2.625a2.32 2.32 0 0 1-.373-.023.334.334 0 0 1-.313-.34 2.558 2.558 0 0 1-.012-.264v-2.36c0-.507.156-.667.669-.691h.309z" class="cls-2" transform="translate(-306.892 -267.529)"/>
                    <path id="Trazado_2208" d="M629.392 293.349l.716-1.777q.469-1.165.936-2.331a1.608 1.608 0 0 1 .511-.705.883.883 0 0 1 .551-.19h2.537a1.733 1.733 0 0 1 .456.065.315.315 0 0 1 .242.423 1.753 1.753 0 0 1-.1.29l-5.813 13.668a1.888 1.888 0 0 1-.42.64.979.979 0 0 1-.714.29c-.735-.006-1.471 0-2.205 0a2.645 2.645 0 0 1-.4-.033c-.332-.052-.442-.227-.346-.544a2.643 2.643 0 0 1 .1-.267q.718-1.705 1.44-3.41a.449.449 0 0 0 0-.375q-2-4.932-3.99-9.867a2.3 2.3 0 0 1-.1-.29.4.4 0 0 1 .344-.552 2.034 2.034 0 0 1 .394-.037h3.242a1.019 1.019 0 0 1 .751.312 1.571 1.571 0 0 1 .373.616q.679 1.933 1.364 3.865c.025.074.056.146.083.219z" class="cls-2" transform="translate(-560.948 -284.082)"/>
                    <path id="Trazado_2209" d="M496.166 298.173a18.563 18.563 0 0 1-4.166-.49c-.142-.036-.279-.089-.421-.126a.3.3 0 0 1-.232-.26 6.452 6.452 0 0 1-.114-1.4c0-.271.045-.541.073-.811a.943.943 0 0 1 .04-.171c.1-.331.175-.377.51-.288a10.643 10.643 0 0 0 3.19.314 2.948 2.948 0 0 0 .564-.088.792.792 0 0 0 .294-.144.345.345 0 0 0 .021-.553 1.887 1.887 0 0 0-.405-.262c-.263-.13-.538-.235-.8-.362-.451-.214-.906-.42-1.344-.659a3.658 3.658 0 0 1-1.194-1 3.212 3.212 0 0 1-.476-3.245 2.791 2.791 0 0 1 1.076-1.282 5.845 5.845 0 0 1 2.1-.871 11.108 11.108 0 0 1 2.717-.224 11.44 11.44 0 0 1 2.039.179c.158.032.311.088.467.126a.292.292 0 0 1 .247.3 7.176 7.176 0 0 1-.007.813 4.352 4.352 0 0 1-.258 1.135c-.02.055-.043.109-.068.162-.173.37-.267.415-.668.365-.612-.076-1.225-.149-1.839-.211a3.523 3.523 0 0 0-.572.006 1.563 1.563 0 0 0-.344.067.384.384 0 0 0-.3.316c-.027.169.083.262.2.336.192.12.39.235.593.337.452.228.915.435 1.363.672a5.936 5.936 0 0 1 1.473 1.074 3.51 3.51 0 0 1 1.054 2.84 4.813 4.813 0 0 1-.157.953 2.892 2.892 0 0 1-1.468 1.791 5.016 5.016 0 0 1-1.844.56c-.531.06-1.068.08-1.344.101z" class="cls-2" transform="translate(-455.151 -282.397)"/>
                    <path id="Trazado_2210" d="M546.988 280.2h-.5a3.14 3.14 0 0 1-.33-.011.443.443 0 0 1-.391-.311 1.123 1.123 0 0 1-.064-.344c-.007-.559 0-1.117 0-1.676a.764.764 0 0 1 .006-.088.566.566 0 0 1 .6-.578c.22-.012.441-.005.661-.007h.261c0-.087.012-.158.012-.229 0-.39.007-.779 0-1.169a.754.754 0 0 1 .435-.733 1.815 1.815 0 0 1 .514-.189c.868-.151 1.738-.289 2.609-.426a1.309 1.309 0 0 1 .349 0 .323.323 0 0 1 .3.306 3.675 3.675 0 0 1 .031.462v1.786c0 .051.007.1.012.173.067 0 .13.013.193.013h1.081a.553.553 0 0 1 .594.425 1.881 1.881 0 0 1 .084.518c.011.5 0 1 0 1.5 0 .044 0 .088-.006.132-.023.367-.155.5-.523.506s-.735 0-1.1 0c-.057 0-.113.008-.183.013 0 .083-.01.155-.01.226v4.169c0 .418.142.588.557.646a2.5 2.5 0 0 0 .417.012c.159 0 .2 0 .246.152a5.4 5.4 0 0 1 .168.638 8.984 8.984 0 0 1 .173 1.708c0 .073-.009.147-.006.22a.23.23 0 0 1-.205.264c-.381.079-.758.183-1.141.24a7.158 7.158 0 0 1-1.977.061 3.309 3.309 0 0 1-1.979-.873 2.8 2.8 0 0 1-.834-1.779c-.038-.379-.038-.763-.038-1.145 0-1.485 0-2.97.005-4.455-.009-.038-.017-.081-.021-.157z" class="cls-2" transform="translate(-498.956 -272.889)"/>
                    <path id="Trazado_2211" d="M593.741 274.339v-6.971-.265a.543.543 0 0 1 .505-.521 2.032 2.032 0 0 1 .242-.011h2.8a2.956 2.956 0 0 1 .569.049.465.465 0 0 1 .436.5c.007.081.007.162.007.242v13.809a3.168 3.168 0 0 1-.017.352.509.509 0 0 1-.49.5 2.144 2.144 0 0 1-.286.013h-3a3.01 3.01 0 0 1-.439-.03.333.333 0 0 1-.3-.3 2.1 2.1 0 0 1-.027-.284v-7.083z" class="cls-2" transform="translate(-537.596 -266.57)"/>
                    <path id="Trazado_2212" d="M377.628 294.476v-3.595a4.9 4.9 0 0 1 .07-.811 1.844 1.844 0 0 1 1.126-1.424 3.545 3.545 0 0 1 1.28-.3c.513-.028 1.028-.037 1.542-.04 1.213-.007 2.426-.006 3.639-.008h.088c.347.005.444.1.445.449v2.249a1.3 1.3 0 0 1 0 .154.4.4 0 0 1-.364.38c-.167.021-.337.011-.506.024-.373.028-.747.055-1.119.094a2.288 2.288 0 0 0-.864.312 1.4 1.4 0 0 0-.756 1.215c-.008.124-.008.249-.008.374v4.984a2.615 2.615 0 0 1-.038.46.575.575 0 0 1-.57.515c-.051.005-.1.007-.154.007h-2.8a1.675 1.675 0 0 1-.391-.049.739.739 0 0 1-.582-.645 2.71 2.71 0 0 1-.031-.439q-.01-1.955-.007-3.906z" class="cls-2" transform="translate(-363.782 -284.044)"/>
                </g>
                <g id="Grupo_2269">
                    <path id="Trazado_2213" d="M174.989 225.952c.132.006.226.015.32.015h3.331a2.566 2.566 0 0 1 1.15.262 1.354 1.354 0 0 1 .777 1.627c-.242 1.172-.516 2.337-.776 3.5q-.7 3.16-1.408 6.319c-.133.595-.264 1.19-.4 1.783a2.046 2.046 0 0 1-1 1.416 2.4 2.4 0 0 1-1.08.266c-.22.011-.441 0-.662 0h-16.9a2.267 2.267 0 0 1-1.317-.364 1.946 1.946 0 0 1-.8-1.2c-.182-.764-.351-1.531-.523-2.3l-1.894-8.467c-.07-.315-.155-.629-.2-.948a2.335 2.335 0 0 1 0-.7 1.239 1.239 0 0 1 .651-.873 2.549 2.549 0 0 1 1.287-.33c1.1-.007 2.206 0 3.309 0 .329 0 .33 0 .33-.326v-1.985a7.873 7.873 0 0 1 8.757-7.843 7.629 7.629 0 0 1 4.077 1.68 7.772 7.772 0 0 1 2.793 4.5 7.452 7.452 0 0 1 .177 1.617v2.051l.001.3zm-7.909.016h4.984c.142-.008.164-.028.176-.168.005-.058 0-.117 0-.176 0-.683.009-1.367 0-2.05a6.745 6.745 0 0 0-.085-1.029 4.952 4.952 0 0 0-1.778-3.057 5.024 5.024 0 0 0-3.92-1.148 4.807 4.807 0 0 0-2.1.743 5.074 5.074 0 0 0-2.423 4.35c-.019.742 0 1.484 0 2.226 0 .311 0 .311.321.311zm-.013 3.182h-3.044c-.339 0-.447.114-.45.453s0 .706 0 1.059c0 .432.064.5.5.5h1.169c.367 0 .368 0 .368.364v5.052a2.275 2.275 0 0 0 .014.308c.034.243.108.324.357.33.617.015 1.234.015 1.852.019a1.5 1.5 0 0 0 .241-.022.331.331 0 0 0 .309-.3 1.706 1.706 0 0 0 .02-.307v-5.14c0-.3.007-.306.313-.307h1.345a1.975 1.975 0 0 0 .306-.034.2.2 0 0 0 .173-.177 1.07 1.07 0 0 0 .02-.2v-1.147c0-.344-.108-.45-.446-.457h-.177z" class="cls-3" transform="translate(-153.584 -215.766)"/>
                    <path id="Trazado_2214" d="M234 351.98a3.1 3.1 0 1 1 3 3.14 3.1 3.1 0 0 1-3-3.14z" class="cls-3" transform="translate(-218.258 -322.845)"/>
                    <path id="Trazado_2215" d="M185.646 352.006a3.1 3.1 0 1 1-3.085-3.107 3.108 3.108 0 0 1 3.085 3.107z" class="cls-3" transform="translate(-174.378 -322.841)"/>
                </g>
            </g>
        </g>
    </g>
</svg>
