<svg xmlns="http://www.w3.org/2000/svg" width="107.15" height="107" viewBox="0 0 107.15 107">
    <g>
        <path fill="none" d="M0 0H107V107H0z" transform="translate(-28.85 -28.92) translate(29 28.92)"/>
        <g fill-rule="evenodd">
            <path fill="#000268" d="M17.717 30.391a8.275 8.275 0 0 1 8.294-8.254H116.4a8.273 8.273 0 0 1 8.294 8.254v29.5a8.273 8.273 0 0 1-8.294 8.252H26.011a8.275 8.275 0 0 1-8.294-8.252v-29.5z" transform="translate(-28.85 -28.92) translate(28.85 59.046) translate(-17.717 -22.137)"/>
            <path fill="#fff" d="M45.9 55.272v28.933a5.172 5.172 0 0 0 5.185 5.157h47.359V50.114H51.089a5.172 5.172 0 0 0-5.189 5.158zm64.775 14.322c0 1.842-.911 3.108-2.42 3.108a2.711 2.711 0 0 1-2.444-2.953c0-1.732.977-3.019 2.444-3.019 1.56 0 2.424 1.332 2.424 2.864zm-8.857 10.565h3.994v-6.282h.045a4.017 4.017 0 0 0 3.665 1.887c3.44 0 5.282-2.84 5.282-6.259 0-2.8-1.753-5.839-4.95-5.839a4.561 4.561 0 0 0-4.307 2.354h-.045v-2.086h-3.684zm18.441-8.324c0-1.109 1.064-1.529 2.42-1.529.6 0 1.177.042 1.687.066A2.6 2.6 0 0 1 121.9 73.1c-.927 0-1.637-.464-1.637-1.265zm8.057 3.663a14.244 14.244 0 0 1-.221-2.73v-4.306c0-3.529-2.551-4.8-5.5-4.8a11.939 11.939 0 0 0-4.617.822l.068 2.709a7.491 7.491 0 0 1 3.684-.867c1.441 0 2.617.423 2.641 2a11.656 11.656 0 0 0-1.865-.157c-2.129 0-5.97.423-5.97 3.951 0 2.509 2.041 3.64 4.328 3.64a3.963 3.963 0 0 0 3.663-2.087h.045c0 .6.065 1.2.089 1.821zm1.8 4.661a11.622 11.622 0 0 0 2.485.268c3.663 0 4.527-2.82 5.66-5.728l4.239-10.765h-4l-2.375 7.546h-.045l-2.48-7.546h-4.3l4.683 11.829a2.032 2.032 0 0 1-2.021 1.6 4.8 4.8 0 0 1-1.576-.244z" transform="translate(-28.85 -28.92) translate(28.85 59.046) translate(-42.5 -46.736)"/>
            <path fill="#ff0007" d="M96.65 135.17c0-1.576.778-2.887 2.265-2.887a2.529 2.529 0 0 1 2.551 2.73 2.7 2.7 0 0 1-2.551 2.974c-1.198 0-2.265-1.019-2.265-2.817zm8.679-5.683h-3.618v2.086h-.042a4.522 4.522 0 0 0-3.931-2.354c-3.6 0-5.216 2.577-5.216 6.017 0 3.419 1.976 5.815 5.147 5.815a4.506 4.506 0 0 0 3.886-1.976h.045v.623c0 2.263-1.243 3.351-3.55 3.351a7.951 7.951 0 0 1-3.907-.954l-.2 3.153a13.427 13.427 0 0 0 4.418.733c4.661 0 6.968-1.532 6.968-6.283zm6.752-4.817h-4v2.93h4zm-3.994 16.38h3.994v-11.563h-3.994zm15.119-11.7a8.636 8.636 0 0 0-1.353-.134 3.569 3.569 0 0 0-3.419 2.4h-.045v-2.13h-3.64v11.564h3.995v-4.882c0-2.265 1.045-3.618 2.908-3.618a4.663 4.663 0 0 1 1.353.131zm6.879 9.168c-1.842 0-2.6-1.532-2.6-3.24 0-1.732.754-3.263 2.6-3.263s2.6 1.532 2.6 3.263c-.001 1.711-.756 3.243-2.6 3.243zm0 2.8c3.818 0 6.726-2.218 6.726-6.036 0-3.841-2.908-6.062-6.726-6.062s-6.724 2.22-6.724 6.062c0 3.818 2.907 6.035 6.724 6.035z" transform="translate(-28.85 -28.92) translate(28.85 59.046) translate(-83.488 -112.289)"/>
        </g>
    </g>
</svg>
