<svg xmlns="http://www.w3.org/2000/svg" width="107" height="107" viewBox="0 0 107 107">
    <defs>
        <style>
            .cls-3{fill:#fff}
        </style>
    </defs>
    <g id="ideal" transform="translate(-29 -28.92)">
        <path id="Rectángulo_2823" fill="none" d="M0 0H107V107H0z" transform="translate(29 28.92)"/>
        <g id="Grupo_11814" transform="translate(47 50.92)">
            <g id="Layer_2">
                <path id="Rectángulo_1871" d="M0 0H11.506V19.106H0z" transform="translate(7.982 35.24)"/>
                <path id="Trazado_2180" d="M175.829 382.013a6.513 6.513 0 1 1-6.513-6.513 6.515 6.515 0 0 1 6.513 6.513z" transform="translate(-155.473 -356.325)"/>
                <g id="Grupo_2258">
                    <g id="Grupo_2257">
                        <path id="Trazado_2181" d="M142.387 214.1H101.1v62.607h41.283v-.007c9.018-.123 16.161-2.363 21.231-6.676 6.165-5.245 9.291-13.528 9.291-24.616a38.2 38.2 0 0 0-2.444-14.131 25.753 25.753 0 0 0-6.814-9.854c-5.231-4.648-12.573-7.162-21.265-7.3zm-.781 4.158c8 0 14.669 2.168 19.284 6.269 5.217 4.636 7.862 11.66 7.862 20.877 0 18.266-8.879 27.145-27.145 27.145h-36.345v-54.286z" transform="translate(-101.104 -214.105)"/>
                    </g>
                </g>
                <g id="Grupo_2260" transform="translate(24.771 9.22)">
                    <g id="Grupo_2259">
                        <path id="Trazado_2182" fill="#cd0067" d="M324.2 336.86h-14.6v-45.147h14.01c12.172 0 25.127 4.8 25.127 22.633 0 18.849-12.956 22.514-25.127 22.514z" transform="translate(-309.604 -291.713)"/>
                    </g>
                </g>
            </g>
            <g id="Layer_3" transform="translate(21.959 20.576)">
                <g id="Grupo_2265">
                    <g id="Grupo_2261">
                        <path id="Trazado_2183" d="M288.43 389.809h4.007a7.829 7.829 0 0 1 2.067.207 3.631 3.631 0 0 1 1.637 1 4.745 4.745 0 0 1 1.037 1.76 8.017 8.017 0 0 1 .356 2.567 7.14 7.14 0 0 1-.334 2.312 4.786 4.786 0 0 1-1.163 1.919 3.852 3.852 0 0 1-1.541.867 6.633 6.633 0 0 1-1.941.23h-4.125zm2.19 1.841v7.181h1.641a6 6 0 0 0 1.329-.1 2.038 2.038 0 0 0 .887-.451 2.293 2.293 0 0 0 .576-1.046 7.049 7.049 0 0 0 .223-1.986 6.457 6.457 0 0 0-.223-1.93 2.473 2.473 0 0 0-.624-1.05 2.092 2.092 0 0 0-1.017-.51 9.989 9.989 0 0 0-1.8-.1z" class="cls-3" transform="translate(-288.133 -389.512)"/>
                        <path id="Trazado_2184" d="M285.93 387.309v11.458h4.423a6.946 6.946 0 0 0 2.03-.244 4.162 4.162 0 0 0 1.658-.937 5.108 5.108 0 0 0 1.237-2.036 7.476 7.476 0 0 0 .349-2.408 8.351 8.351 0 0 0-.372-2.664 5.063 5.063 0 0 0-1.1-1.868 3.943 3.943 0 0 0-1.769-1.081 8.025 8.025 0 0 0-2.151-.22zm4.3.594a7.6 7.6 0 0 1 1.983.2 3.356 3.356 0 0 1 1.5.92 4.478 4.478 0 0 1 .971 1.652 7.766 7.766 0 0 1 .34 2.472 6.885 6.885 0 0 1-.317 2.215 4.519 4.519 0 0 1-1.089 1.8 3.584 3.584 0 0 1-1.424.8 6.383 6.383 0 0 1-1.85.216h-3.829V387.9z" class="cls-3" transform="translate(-285.93 -387.309)"/>
                        <path id="Trazado_2185" d="M304.367 402.809v7.774h1.938a6.182 6.182 0 0 0 1.4-.112 2.328 2.328 0 0 0 1.013-.518 2.549 2.549 0 0 0 .661-1.18 7.253 7.253 0 0 0 .236-2.073 6.666 6.666 0 0 0-.237-2.023 2.789 2.789 0 0 0-.7-1.173 2.4 2.4 0 0 0-1.158-.584 10.109 10.109 0 0 0-1.867-.11zm1.284.594a9.4 9.4 0 0 1 1.739.1 1.816 1.816 0 0 1 .879.437 2.207 2.207 0 0 1 .545.927 6.216 6.216 0 0 1 .208 1.836 6.8 6.8 0 0 1-.21 1.9 2.024 2.024 0 0 1-.49.913 1.745 1.745 0 0 1-.76.383 5.766 5.766 0 0 1-1.257.095h-1.344V403.4z" class="cls-3" transform="translate(-302.177 -400.968)"/>
                    </g>
                    <g id="Grupo_2262" transform="translate(11.582)">
                        <path id="Trazado_2186" d="M385.916 400.672v-10.863h8.042v1.841h-5.851v2.406h5.443v1.844h-5.443v2.933h6.059v1.841z" class="cls-3" transform="translate(-385.619 -389.512)"/>
                        <path id="Trazado_2187" d="M383.416 387.309v11.458h8.844v-2.436h-6.06v-2.339h5.443v-2.436H386.2v-1.812h5.851v-2.435zm8.042.594v1.247h-5.851v3h5.443v1.25h-5.443v3.527h6.059v1.247h-7.656V387.9z" class="cls-3" transform="translate(-383.416 -387.309)"/>
                    </g>
                    <g id="Grupo_2263" transform="translate(21.061)">
                        <path id="Trazado_2188" d="M477.756 400.672h-2.387l-.948-2.465h-4.34l-.9 2.465h-2.328l4.222-10.863h2.335zm-4.038-4.307l-1.5-4.025-1.467 4.025z" class="cls-3" transform="translate(-466.421 -389.512)"/>
                        <path id="Trazado_2189" d="M467.654 387.309l-4.454 11.458h2.969l.9-2.466H471l.947 2.466h3.029l-4.582-11.458zm2.337.594l4.106 10.269h-1.744l-.947-2.465h-4.752l-.9 2.465h-1.684l3.991-10.269z" class="cls-3" transform="translate(-463.202 -387.309)"/>
                        <path id="Trazado_2190" d="M496.089 409.07h3.811l-1.927-5.181zm1.894-3.462l1.068 2.868h-2.113l1.045-2.868z" class="cls-3" transform="translate(-492.182 -401.919)"/>
                    </g>
                    <g id="Grupo_2264" transform="translate(33.931 .089)">
                        <path id="Trazado_2191" d="M574.029 401.333v-10.774h2.191v8.933h5.457v1.842z" class="cls-3" transform="translate(-573.732 -390.262)"/>
                        <path id="Trazado_2192" d="M571.529 388.059v11.368h8.242v-2.436h-5.458v-8.933zm2.191.594v8.933h5.458v1.248h-7.054v-10.18z" class="cls-3" transform="translate(-571.529 -388.059)"/>
                    </g>
                </g>
            </g>
        </g>
    </g>
</svg>
