<svg xmlns="http://www.w3.org/2000/svg" width="107" height="107" viewBox="0 0 107 107">
    <g>
        <path fill="none" d="M0 0H107V107H0z" transform="translate(-8.174 12.899) translate(8.174 -12.899)"/>
        <g>
            <path fill="#ea1d25" d="M29.7 24.261a24.321 24.321 0 0 1 9.02-19.07A23.69 23.69 0 0 0 6.35 7.8a24.511 24.511 0 0 0 0 32.923 23.69 23.69 0 0 0 32.366 2.609A24.321 24.321 0 0 1 29.7 24.261z" transform="translate(-8.174 12.899) translate(7.26 3.738) translate(16.09 12.23)"/>
            <path fill="#f69e1e" d="M38.7 24.246a24.293 24.293 0 0 1-13.468 21.8A23.657 23.657 0 0 1 0 43.316 24.491 24.491 0 0 0 4.014 9.268 23.622 23.622 0 0 0 0 5.175a23.657 23.657 0 0 1 25.23-2.734A24.294 24.294 0 0 1 38.7 24.246z" transform="translate(-8.174 12.899) translate(7.26 3.738) translate(54.868 12.246)"/>
        </g>
    </g>
</svg>
