<svg xmlns="http://www.w3.org/2000/svg" width="107" height="107" viewBox="0 0 107 107">
    <g>
        <path fill="none" d="M0 0H107V107H0z" transform="translate(-29 -28.92) translate(29 28.92)"/>
        <g>
            <path fill-rule="evenodd" d="M18.521 20.585a2.587 2.587 0 0 0-3.613.574l-3.043 4.189a2.587 2.587 0 1 0 4.187 3.041L19.1 24.2a2.591 2.591 0 0 0-.576-3.616zm4.76 6.658a2.588 2.588 0 1 0 .574 3.615 2.59 2.59 0 0 0-.574-3.615zM4.814 4.228A2.588 2.588 0 1 0 1.2 4.8a2.588 2.588 0 0 0 3.614-.572zm15.032 1.328a2.584 2.584 0 0 0-3.613.571l-12.17 16.75a2.587 2.587 0 1 0 4.186 3.042L20.42 9.168a2.583 2.583 0 0 0-.574-3.612zM5.961 11.46a2.59 2.59 0 0 0 3.615-.576L12.617 6.7a2.587 2.587 0 0 0-4.186-3.044L5.387 7.843a2.59 2.59 0 0 0 .574 3.617zm101.171 6.187c0-3.4-1.572-6.206-5.885-6.206a5.764 5.764 0 0 0-4.241 1.5 5.772 5.772 0 0 0-4.252-1.5c-4.286 0-5.884 2.809-5.884 6.206v7.625a1.64 1.64 0 1 0 3.281 0v-7.624c0-2.01.626-3.25 2.606-3.25 2.009 0 2.605 1.24 2.605 3.25v7.625a1.641 1.641 0 1 0 3.282 0v-7.625c0-2.01.625-3.25 2.605-3.25 2.009 0 2.606 1.24 2.606 3.25v7.625a1.64 1.64 0 1 0 3.281 0zm-25.076-6.2A1.651 1.651 0 0 0 80.4 13.1v7.624c0 2.008-.888 3.249-2.869 3.249-2.009 0-2.866-1.241-2.866-3.249V13.1a1.64 1.64 0 1 0-3.28 0v7.624c0 3.4 1.831 6.205 6.145 6.205 4.285 0 6.149-2.808 6.149-6.205V13.1a1.645 1.645 0 0 0-1.626-1.655zm-33.747 5.789c0-3.429-1.811-5.616-5.98-5.616H39.3V7.009a1.64 1.64 0 1 0-3.28 0v13.713c0 3.4 1.831 6.205 6.145 6.205 4.285 0 6.149-2.808 6.149-6.205v-3.427zm-3.28 3.487c0 2.008-.888 3.249-2.868 3.249-2.009 0-2.866-1.241-2.866-3.249v-6.237H42.3c2.424 0 2.727 1.331 2.727 2.809zm24.134-7.685a1.4 1.4 0 0 0-1.536-1.417h-8.184a1.426 1.426 0 0 0-1.449 1.417 1.449 1.449 0 0 0 1.449 1.449h5.377l-6.972 9.693a1.743 1.743 0 0 0-.324.975 1.571 1.571 0 0 0 1.506 1.6h8.688a1.45 1.45 0 0 0 1.445-1.455 1.431 1.431 0 0 0-1.446-1.448h-5.85l6.825-9.484a2.1 2.1 0 0 0 .472-1.332zM53.028 5.355a1.855 1.855 0 0 0-1.862 1.861 1.863 1.863 0 1 0 3.725 0 1.854 1.854 0 0 0-1.863-1.861zm0 6.089a1.645 1.645 0 0 0-1.655 1.625v12.2a1.656 1.656 0 0 0 3.311 0v-12.2a1.645 1.645 0 0 0-1.656-1.625z" transform="translate(-29 -28.92) translate(28.866 66.8)"/>
        </g>
    </g>
</svg>
