<?xml version="1.0" encoding="utf-8"?>
<!-- Generator: Adobe Illustrator 21.1.0, SVG Export Plug-In . SVG Version: 6.00 Build 0)  -->
<svg version="1.1" id="Layer_1" xmlns="http://www.w3.org/2000/svg" xmlns:xlink="http://www.w3.org/1999/xlink" x="0px" y="0px"
	 viewBox="0 0 280.4 156.7" style="enable-background:new 0 0 280.4 156.7;" xml:space="preserve">
<style type="text/css">
	.st0{fill:url(#Trazado_2531_1_);stroke:#000000;stroke-width:2;stroke-linecap:round;stroke-linejoin:round;}
	.st1{fill:url(#Trazado_2532_1_);stroke:#000000;stroke-width:2;stroke-linecap:round;stroke-linejoin:round;}
	.st2{fill:url(#Trazado_2533_1_);stroke:#000000;stroke-width:2;stroke-linecap:round;stroke-linejoin:round;}
	.st3{fill:url(#Trazado_2534_1_);stroke:#000000;stroke-width:2;stroke-linecap:round;stroke-linejoin:round;}
	.st4{fill:url(#Trazado_2535_1_);stroke:#000000;stroke-width:2;stroke-linecap:round;stroke-linejoin:round;}
	.st5{fill:url(#Trazado_2536_1_);stroke:#000000;stroke-width:2;stroke-linecap:round;stroke-linejoin:round;}
	.st6{fill:url(#Trazado_2537_1_);stroke:#000000;stroke-width:2;stroke-linecap:round;stroke-linejoin:round;}
	.st7{fill:url(#Trazado_2538_1_);stroke:#000000;stroke-width:2;stroke-linecap:round;stroke-linejoin:round;}
	.st8{fill:url(#Trazado_2539_1_);stroke:#000000;stroke-width:2;stroke-linecap:round;stroke-linejoin:round;}
	.st9{fill:url(#Trazado_2540_1_);stroke:#000000;stroke-width:2;stroke-linecap:round;stroke-linejoin:round;}
	.st10{fill:url(#Trazado_2541_1_);stroke:#000000;stroke-width:2;stroke-linecap:round;stroke-linejoin:round;}
	.st11{fill:url(#Trazado_2542_1_);stroke:#000000;stroke-width:2;stroke-linecap:round;stroke-linejoin:round;}
	.st12{fill:url(#Trazado_2545_1_);stroke:#000000;stroke-width:2;stroke-linecap:round;stroke-linejoin:round;}
	.st13{fill:url(#Trazado_2546_1_);stroke:#000000;stroke-width:2;stroke-linecap:round;stroke-linejoin:round;}
	.st14{fill:url(#Trazado_2547_1_);stroke:#000000;stroke-width:2;stroke-linecap:round;stroke-linejoin:round;}
	.st15{fill:url(#Trazado_2548_1_);stroke:#000000;stroke-width:2;stroke-linecap:round;stroke-linejoin:round;}
	.st16{fill:url(#Trazado_2549_3_);stroke:#000000;stroke-width:2;stroke-linecap:round;stroke-linejoin:round;}
	.st17{fill:url(#Trazado_2549_4_);stroke:#000000;stroke-width:2;stroke-linecap:round;stroke-linejoin:round;}
	.st18{fill:url(#Trazado_2550_1_);stroke:#000000;stroke-width:2;stroke-linecap:round;stroke-linejoin:round;}
	.st19{fill:url(#Trazado_2551_1_);stroke:#000000;stroke-width:2;stroke-linecap:round;stroke-linejoin:round;}
	.st20{fill:url(#Trazado_2554_1_);stroke:#000000;stroke-width:2;stroke-linecap:round;stroke-linejoin:round;}
	.st21{fill:url(#Trazado_2555_1_);stroke:#000000;stroke-width:2;stroke-linecap:round;stroke-linejoin:round;}
	.st22{fill:url(#Trazado_2556_1_);stroke:#000000;stroke-width:2;stroke-linecap:round;stroke-linejoin:round;}
	.st23{fill:url(#Trazado_2557_1_);stroke:#000000;stroke-width:2;stroke-linecap:round;stroke-linejoin:round;}
	.st24{fill:url(#Trazado_2558_1_);stroke:#000000;stroke-width:2;stroke-linecap:round;stroke-linejoin:round;}
	.st25{fill:url(#Trazado_2559_1_);stroke:#000000;stroke-width:2;stroke-linecap:round;stroke-linejoin:round;}
	.st26{fill:url(#Trazado_2560_1_);stroke:#000000;stroke-width:2;stroke-linecap:round;stroke-linejoin:round;}
	.st27{fill:url(#Trazado_2561_1_);stroke:#000000;stroke-width:2;stroke-linecap:round;stroke-linejoin:round;}
	.st28{fill:url(#Trazado_2562_1_);stroke:#000000;stroke-width:2;stroke-linecap:round;stroke-linejoin:round;}
	.st29{fill:url(#Trazado_2563_1_);stroke:#000000;stroke-width:2;stroke-linecap:round;stroke-linejoin:round;}
	.st30{fill:url(#Trazado_2564_1_);stroke:#000000;stroke-width:2;stroke-linecap:round;stroke-linejoin:round;}
	.st31{fill:url(#Trazado_2565_1_);stroke:#000000;stroke-width:2;stroke-linecap:round;stroke-linejoin:round;}
	.st32{fill:url(#Trazado_2566_1_);stroke:#000000;stroke-width:2;stroke-linecap:round;stroke-linejoin:round;}
	.st33{fill:url(#Trazado_2567_1_);stroke:#000000;stroke-width:2;stroke-linecap:round;stroke-linejoin:round;}
	.st34{fill:url(#Trazado_2568_1_);stroke:#000000;stroke-width:2;stroke-linecap:round;stroke-linejoin:round;}
	.st35{fill:url(#Trazado_2569_1_);stroke:#000000;stroke-width:2;stroke-linecap:round;stroke-linejoin:round;}
	.st36{fill:url(#Trazado_2570_1_);stroke:#000000;stroke-width:2;stroke-linecap:round;stroke-linejoin:round;}
	.st37{fill:url(#Trazado_2571_1_);stroke:#000000;stroke-width:2;stroke-linecap:round;stroke-linejoin:round;}
	.st38{fill:url(#Trazado_2572_1_);stroke:#000000;stroke-width:2;stroke-linecap:round;stroke-linejoin:round;}
	.st39{fill:url(#Trazado_2573_1_);stroke:#000000;stroke-width:2;stroke-linecap:round;stroke-linejoin:round;}
	.st40{fill:url(#Trazado_2576_1_);stroke:#000000;stroke-width:2;stroke-linecap:round;stroke-linejoin:round;}
	.st41{fill:url(#Trazado_2577_1_);stroke:#000000;stroke-width:2;stroke-linecap:round;stroke-linejoin:round;}
	.st42{fill:url(#Trazado_2578_3_);stroke:#000000;stroke-width:2;stroke-linecap:round;stroke-linejoin:round;}
	.st43{fill:url(#Trazado_2578_4_);stroke:#000000;stroke-width:2;stroke-linecap:round;stroke-linejoin:round;}
	.st44{fill:url(#Trazado_2583_1_);stroke:#000000;stroke-width:2;stroke-linecap:round;stroke-linejoin:round;}
	.st45{fill:url(#Trazado_2584_1_);stroke:#000000;stroke-width:2;stroke-linecap:round;stroke-linejoin:round;}
	.st46{fill:url(#Trazado_2585_1_);stroke:#000000;stroke-width:2;stroke-linecap:round;stroke-linejoin:round;}
	.st47{fill:url(#Trazado_2586_1_);stroke:#000000;stroke-width:2;stroke-linecap:round;stroke-linejoin:round;}
	.st48{fill:url(#Trazado_2587_1_);stroke:#000000;stroke-width:2;stroke-linecap:round;stroke-linejoin:round;}
	.st49{fill:url(#Trazado_2588_1_);stroke:#000000;stroke-width:2;stroke-linecap:round;stroke-linejoin:round;}
	.st50{fill:url(#Trazado_2589_1_);stroke:#000000;stroke-width:2;stroke-linecap:round;stroke-linejoin:round;}
	.st51{fill:url(#Trazado_2592_1_);stroke:#000000;stroke-width:2;stroke-linecap:round;stroke-linejoin:round;}
	.st52{fill:url(#Trazado_2593_1_);stroke:#000000;stroke-width:2;stroke-linecap:round;stroke-linejoin:round;}
	.st53{fill:url(#Trazado_2594_1_);stroke:#000000;stroke-width:2;stroke-linecap:round;stroke-linejoin:round;}
	.st54{fill:url(#Trazado_2596_1_);stroke:#000000;stroke-width:2;stroke-linecap:round;stroke-linejoin:round;}
	.st55{fill:url(#Trazado_2597_1_);stroke:#000000;stroke-width:2;stroke-linecap:round;stroke-linejoin:round;}
	.st56{fill:url(#Trazado_2598_3_);stroke:#000000;stroke-width:2;stroke-linecap:round;stroke-linejoin:round;}
	.st57{fill:url(#Trazado_2598_4_);stroke:#000000;stroke-width:2;stroke-linecap:round;stroke-linejoin:round;}
	.st58{fill:url(#Trazado_2599_1_);stroke:#000000;stroke-width:2;stroke-linecap:round;stroke-linejoin:round;}
	.st59{fill:url(#Trazado_2600_1_);stroke:#000000;stroke-width:2;stroke-linecap:round;stroke-linejoin:round;}
	.st60{fill:url(#Trazado_2601_1_);stroke:#000000;stroke-width:2;stroke-linecap:round;stroke-linejoin:round;}
	.st61{fill:url(#Trazado_2602_1_);stroke:#000000;stroke-width:2;stroke-linecap:round;stroke-linejoin:round;}
	.st62{fill:url(#Trazado_2603_1_);stroke:#000000;stroke-width:2;stroke-linecap:round;stroke-linejoin:round;}
	.st63{fill:url(#Trazado_2604_1_);stroke:#000000;stroke-width:2;stroke-linecap:round;stroke-linejoin:round;}
	.st64{fill:url(#Trazado_2605_1_);stroke:#000000;stroke-width:2;stroke-linecap:round;stroke-linejoin:round;}
	.st65{fill:url(#Trazado_2606_1_);stroke:#000000;stroke-width:2;stroke-linecap:round;stroke-linejoin:round;}
	.st66{fill:url(#Trazado_2607_1_);stroke:#000000;stroke-width:2;stroke-linecap:round;stroke-linejoin:round;}
	.st67{fill:url(#Trazado_2608_1_);stroke:#000000;stroke-width:2;stroke-linecap:round;stroke-linejoin:round;}
	.st68{fill:url(#Trazado_2609_1_);stroke:#000000;stroke-width:2;stroke-linecap:round;stroke-linejoin:round;}
</style>
<g id="Capa_2_1_">
	<g id="Capa_1-2_1_">
		<g id="_7HJW7x.tif">
			<g id="Grupo_1280">
				
					<linearGradient id="Trazado_2531_1_" gradientUnits="userSpaceOnUse" x1="-2732.4722" y1="883.828" x2="-2732.4722" y2="882.8273" gradientTransform="matrix(35.39 0 0 -76.25 96916.3906 67402.6562)">
					<stop  offset="0" style="stop-color:#006DFF"/>
					<stop  offset="1" style="stop-color:#43D2F1"/>
				</linearGradient>
				<path id="Trazado_2531" class="st0" d="M231.9,89c-0.5-9.3-1-18.5-1.5-27.8c-0.6-11.9-1-23.8-1.5-35.8c-0.1-1.5-0.4-3-0.6-4.8
					c-10.4-1.8-20-8-31.3-7.9c0,21.5,0,42.1,0,62.8c-0.1,1.7-0.2,3.3-0.5,5"/>
				
					<linearGradient id="Trazado_2532_1_" gradientUnits="userSpaceOnUse" x1="-2760.5854" y1="829.9821" x2="-2760.5854" y2="828.9829" gradientTransform="matrix(63.8 0 0 -17.43 176158.2969 14606.8506)">
					<stop  offset="0" style="stop-color:#006DFF"/>
					<stop  offset="1" style="stop-color:#43D2F1"/>
				</linearGradient>
				<path id="Trazado_2532" class="st1" d="M64.9,140.2c-15,0-29.9,0-44.9,0c-4.6,0-9.2-1.9-14-0.5c-1.4,0.4-2.8,0.7-5,1.3v15.6"/>
				
					<linearGradient id="Trazado_2533_1_" gradientUnits="userSpaceOnUse" x1="1672.16" y1="882.1636" x2="1672.16" y2="881.1636" gradientTransform="matrix(0.5 0 0 -69.03 -613.43 60917.9375)">
					<stop  offset="0" style="stop-color:#006DFF"/>
					<stop  offset="1" style="stop-color:#43D2F1"/>
				</linearGradient>
				<path id="Trazado_2533" class="st2" d="M222.9,20.5c-0.3,1.7-0.4,3.3-0.5,5c0.1,19.7,0.3,39.4,0.5,59.1c-0.1,1.7-0.2,3.3-0.5,5"
					/>
				
					<linearGradient id="Trazado_2534_1_" gradientUnits="userSpaceOnUse" x1="-2424.8894" y1="880.3437" x2="-2424.8894" y2="879.3429" gradientTransform="matrix(6.03 0 0 -62.58 14758.2871 55184.6797)">
					<stop  offset="0" style="stop-color:#006DFF"/>
					<stop  offset="1" style="stop-color:#43D2F1"/>
				</linearGradient>
				<path id="Trazado_2534" class="st3" d="M139.2,94c-1.2,6.5-1.4,13.3-3.7,19.3c-2.6,6.6-3.2,12.6-0.7,19
					c3.2,7.9,3.6,16.1,3.4,24.4"/>
				
					<linearGradient id="Trazado_2535_1_" gradientUnits="userSpaceOnUse" x1="-2762.3887" y1="858.9611" x2="-2762.3887" y2="857.9611" gradientTransform="matrix(67.43 0 0 -29.8 186316.5938 25704.9395)">
					<stop  offset="0" style="stop-color:#006DFF"/>
					<stop  offset="1" style="stop-color:#43D2F1"/>
				</linearGradient>
				<path id="Trazado_2535" class="st4" d="M82.3,107.9c-0.5,6.4,1.3,13.1-1.3,19.4c-12.1-0.5-22.8,4.8-34.1,6.7
					c-6.8,1.2-14,0.2-20.9,0.8c-3.7,0.3-7.3,1.9-11,2.9"/>
				
					<linearGradient id="Trazado_2536_1_" gradientUnits="userSpaceOnUse" x1="-2596.0432" y1="873.7243" x2="-2596.0432" y2="872.7241" gradientTransform="matrix(11.18 0 0 -46.69 29297.6328 40901.1211)">
					<stop  offset="0" style="stop-color:#006DFF"/>
					<stop  offset="1" style="stop-color:#43D2F1"/>
				</linearGradient>
				<path id="Trazado_2536" class="st5" d="M268.3,109.9c3.5,3.1,7,6.2,10.4,9.5c1.7,1.6,0.3,6.1-2.5,8.4
					c-5.2,4.3-6.4,14.5-3.1,20.4c1.3,2.3,0.8,5.6,1.1,8.4"/>
				
					<linearGradient id="Trazado_2537_1_" gradientUnits="userSpaceOnUse" x1="-2765.0122" y1="-1485.3983" x2="-2765.0122" y2="-1486.3983" gradientTransform="matrix(73.28 0 0 -0.51 202800.3906 -625.6)">
					<stop  offset="0" style="stop-color:#006DFF"/>
					<stop  offset="1" style="stop-color:#43D2F1"/>
				</linearGradient>
				<path id="Trazado_2537" class="st6" d="M216.9,129.8c-6.8,0-13.6,0-20.4,0c-17.6-0.1-35.2-0.3-52.8-0.5"/>
				
					<linearGradient id="Trazado_2538_1_" gradientUnits="userSpaceOnUse" x1="-1300.249" y1="875.0393" x2="-1300.249" y2="874.0387" gradientTransform="matrix(1.49 0 0 -49.17 2040.9211 43131.9609)">
					<stop  offset="0" style="stop-color:#006DFF"/>
					<stop  offset="1" style="stop-color:#43D2F1"/>
				</linearGradient>
				<path id="Trazado_2538" class="st7" d="M104.3,107.4c-0.2,2.2-0.4,4.3-0.5,6.5c-0.4,14.2-0.7,28.5-1,42.7"/>
				
					<linearGradient id="Trazado_2539_1_" gradientUnits="userSpaceOnUse" x1="-563.93" y1="874.7888" x2="-563.93" y2="873.7882" gradientTransform="matrix(1 0 0 -48.67 652.73 42684.5)">
					<stop  offset="0" style="stop-color:#006DFF"/>
					<stop  offset="1" style="stop-color:#43D2F1"/>
				</linearGradient>
				<path id="Trazado_2539" class="st8" d="M88.8,107.9v48.7"/>
				
					<linearGradient id="Trazado_2540_1_" gradientUnits="userSpaceOnUse" x1="-2742.2268" y1="825.3789" x2="-2742.2268" y2="824.379" gradientTransform="matrix(41.87 0 0 -16.35 114867.9844 13599.7305)">
					<stop  offset="0" style="stop-color:#006DFF"/>
					<stop  offset="1" style="stop-color:#43D2F1"/>
				</linearGradient>
				<path id="Trazado_2540" class="st9" d="M71.9,104.9c-10.3,5.3-20.5,10.9-31,15.7c-3,1.4-7.2,0.2-10.9,0.2"/>
				
					<linearGradient id="Trazado_2541_1_" gradientUnits="userSpaceOnUse" x1="-2722.0361" y1="844.1301" x2="-2722.0361" y2="843.1301" gradientTransform="matrix(30.41 0 0 -21.86 82953.8672 18512.6992)">
					<stop  offset="0" style="stop-color:#006DFF"/>
					<stop  offset="1" style="stop-color:#43D2F1"/>
				</linearGradient>
				<path id="Trazado_2541" class="st10" d="M192,84.6l-5.8-19.2c-5.9-0.9-11.8-2-17.7-2.6c-2.3-0.3-4.6,0.3-7,0.4"/>
				
					<linearGradient id="Trazado_2542_1_" gradientUnits="userSpaceOnUse" x1="-563.92" y1="864.2889" x2="-563.92" y2="863.2881" gradientTransform="matrix(1 0 0 -34.27 657.72 29725.6816)">
					<stop  offset="0" style="stop-color:#006DFF"/>
					<stop  offset="1" style="stop-color:#43D2F1"/>
				</linearGradient>
				<path id="Trazado_2542" class="st11" d="M93.8,107.9v34.3"/>
				
					<linearGradient id="Trazado_2545_1_" gradientUnits="userSpaceOnUse" x1="-2745.272" y1="856.0333" x2="-2745.272" y2="855.0336" gradientTransform="matrix(44.36 0 0 -27.81 122011.4688 23900.2207)">
					<stop  offset="0" style="stop-color:#006DFF"/>
					<stop  offset="1" style="stop-color:#43D2F1"/>
				</linearGradient>
				<path id="Trazado_2545" class="st12" d="M209,92.5l5.4,1.1l-1.7,8.2h40.7v18.5"/>
				
					<linearGradient id="Trazado_2546_1_" gradientUnits="userSpaceOnUse" x1="-2700.1768" y1="711.4573" x2="-2700.1768" y2="710.4573" gradientTransform="matrix(23.43 0 0 -6.46 63491.8398 4687.98)">
					<stop  offset="0" style="stop-color:#006DFF"/>
					<stop  offset="1" style="stop-color:#43D2F1"/>
				</linearGradient>
				<path id="Trazado_2546" class="st13" d="M238.4,101v-6.5H215"/>
				
					<linearGradient id="Trazado_2547_1_" gradientUnits="userSpaceOnUse" x1="-2718.3386" y1="-1533.41" x2="-2718.3386" y2="-1534.41" gradientTransform="matrix(28.91 0 0 -0.5 78829.0156 -640.41)">
					<stop  offset="0" style="stop-color:#006DFF"/>
					<stop  offset="1" style="stop-color:#43D2F1"/>
				</linearGradient>
				<path id="Trazado_2547" class="st14" d="M256.3,126.8l-28.9-0.5"/>
				
					<linearGradient id="Trazado_2548_1_" gradientUnits="userSpaceOnUse" x1="-2741.6252" y1="865.5206" x2="-2741.6252" y2="864.5206" gradientTransform="matrix(41.37 0 0 -35.51 113660.1328 30855.1504)">
					<stop  offset="0" style="stop-color:#006DFF"/>
					<stop  offset="1" style="stop-color:#43D2F1"/>
				</linearGradient>
				<path id="Trazado_2548" class="st15" d="M259.8,121.8c-13.7-0.4-27.6-2.5-41.4,2.7v32.1"/>
				
					<linearGradient id="Trazado_2549_3_" gradientUnits="userSpaceOnUse" x1="-2709.8999" y1="-1534.38" x2="-2709.8999" y2="-1534.38" gradientTransform="matrix(25.92 0 0 -0.5 70288.6094 -687.09)">
					<stop  offset="0" style="stop-color:#006DFF"/>
					<stop  offset="1" style="stop-color:#43D2F1"/>
				</linearGradient>
				<path id="Trazado_2549_2_" class="st16" d="M48,80.1"/>
				
					<linearGradient id="Trazado_2549_4_" gradientUnits="userSpaceOnUse" x1="-2708.9006" y1="-1533.38" x2="-2708.9006" y2="-1533.38" gradientTransform="matrix(25.92 0 0 -0.5 70288.6094 -687.09)">
					<stop  offset="0" style="stop-color:#006DFF"/>
					<stop  offset="1" style="stop-color:#43D2F1"/>
				</linearGradient>
				<path id="Trazado_2549_1_" class="st17" d="M73.9,79.6"/>
				
					<linearGradient id="Trazado_2550_1_" gradientUnits="userSpaceOnUse" x1="-2769.5205" y1="874.804" x2="-2769.5205" y2="873.8035" gradientTransform="matrix(85.76 0 0 -48.7 237618.3906 42664.0703)">
					<stop  offset="0" style="stop-color:#006DFF"/>
					<stop  offset="1" style="stop-color:#43D2F1"/>
				</linearGradient>
				<path id="Trazado_2550" class="st18" d="M108.3,95c-1,3.6-2,7.3-3.2,11.6c-15.1,1.6-29.9,0.4-43.7-7.2c0.8-4.3,3.3-6.2,8-6
					c12.9,0.6,26,1.8,38.8,0.7c9.2-0.8,18.3-0.8,27.5-1.1c3.3-0.1,6.6,0,10.4,0c0.4-6.4,0.7-12.4,1.1-19l-15.5,2.4l-11.1-6.2
					c0.2-1.9,0.5-3.8,0.7-5.2c-4.6-5.9-10-8.3-17-5.3"/>
				
					<linearGradient id="Trazado_2551_1_" gradientUnits="userSpaceOnUse" x1="-2706.0471" y1="-1533.41" x2="-2706.0471" y2="-1534.41" gradientTransform="matrix(24.92 0 0 -0.5 67674.5469 -635.45)">
					<stop  offset="0" style="stop-color:#006DFF"/>
					<stop  offset="1" style="stop-color:#43D2F1"/>
				</linearGradient>
				<path id="Trazado_2551" class="st19" d="M252.3,131.8l-24.9-0.5"/>
				
					<linearGradient id="Trazado_2554_1_" gradientUnits="userSpaceOnUse" x1="-2739.8765" y1="849.9087" x2="-2739.8765" y2="848.9088" gradientTransform="matrix(40.1 0 0 -24.39 109968.6875 20795.291)">
					<stop  offset="0" style="stop-color:#006DFF"/>
					<stop  offset="1" style="stop-color:#43D2F1"/>
				</linearGradient>
				<path id="Trazado_2554" class="st20" d="M119.7,69.2c-11.6-3-22.1,0.9-32.4,5.5c-2.5,1.1-4.7,2.8-7.7,4.7
					c0.9,4.3,1.8,8.7,2.7,13.2"/>
				
					<linearGradient id="Trazado_2555_1_" gradientUnits="userSpaceOnUse" x1="-2688.7251" y1="-1533.41" x2="-2688.7251" y2="-1534.41" gradientTransform="matrix(20.94 0 0 -0.5 56539.7578 -630.48)">
					<stop  offset="0" style="stop-color:#006DFF"/>
					<stop  offset="1" style="stop-color:#43D2F1"/>
				</linearGradient>
				<path id="Trazado_2555" class="st21" d="M248.3,136.7l-20.9-0.5"/>
				
					<linearGradient id="Trazado_2556_1_" gradientUnits="userSpaceOnUse" x1="-2750.3882" y1="853.5629" x2="-2750.3882" y2="852.5636" gradientTransform="matrix(49.47 0 0 -26.32 136250.5625 22533.6816)">
					<stop  offset="0" style="stop-color:#006DFF"/>
					<stop  offset="1" style="stop-color:#43D2F1"/>
				</linearGradient>
				<path id="Trazado_2556" class="st22" d="M164.1,66.7c2.4,6.6,4.9,13.2,7.7,20.7C177.1,87,183,86.7,189,86
					c7.3-0.8,14.4-0.7,21.5,1.5c3.1,1,3.3,3,3,5.5"/>
				
					<linearGradient id="Trazado_2557_1_" gradientUnits="userSpaceOnUse" x1="-2706.0474" y1="697.3525" x2="-2706.0474" y2="696.3525" gradientTransform="matrix(24.92 0 0 -6.01 67593.3438 4280.1802)">
					<stop  offset="0" style="stop-color:#006DFF"/>
					<stop  offset="1" style="stop-color:#43D2F1"/>
				</linearGradient>
				<path id="Trazado_2557" class="st23" d="M171.1,87.6c-5.5,1.3-11,2.5-16.4,4c-2.8,0.8-5.3,3.4-8.5,0.9"/>
				
					<linearGradient id="Trazado_2558_1_" gradientUnits="userSpaceOnUse" x1="-2708.9644" y1="836.4225" x2="-2708.9644" y2="835.4225" gradientTransform="matrix(25.76 0 0 -19.2 69878.8281 16114.6797)">
					<stop  offset="0" style="stop-color:#006DFF"/>
					<stop  offset="1" style="stop-color:#43D2F1"/>
				</linearGradient>
				<path id="Trazado_2558" class="st24" d="M108.8,67.2l-9.2-11.8L83,67l2.3,7.6"/>
				
					<linearGradient id="Trazado_2559_1_" gradientUnits="userSpaceOnUse" x1="-2663.7324" y1="-1533.41" x2="-2663.7324" y2="-1534.41" gradientTransform="matrix(16.95 0 0 -0.5 45386.1172 -625.51)">
					<stop  offset="0" style="stop-color:#006DFF"/>
					<stop  offset="1" style="stop-color:#43D2F1"/>
				</linearGradient>
				<path id="Trazado_2559" class="st25" d="M244.3,141.7l-16.9-0.5"/>
				
					<linearGradient id="Trazado_2560_1_" gradientUnits="userSpaceOnUse" x1="-2531.8999" y1="823.2263" x2="-2531.8999" y2="822.2257" gradientTransform="matrix(8.48 0 0 -15.89 21610.4609 13140.6494)">
					<stop  offset="0" style="stop-color:#006DFF"/>
					<stop  offset="1" style="stop-color:#43D2F1"/>
				</linearGradient>
				<path id="Trazado_2560" class="st26" d="M135.7,57.8c5,1.7,5.8,6.2,7,10.4c0.5,1.8,1,3.6,1.5,5.5"/>
				
					<linearGradient id="Trazado_2561_1_" gradientUnits="userSpaceOnUse" x1="-2635.4436" y1="834.309" x2="-2635.4436" y2="833.309" gradientTransform="matrix(13.96 0 0 -18.58 36918.4922 15557.3203)">
					<stop  offset="0" style="stop-color:#006DFF"/>
					<stop  offset="1" style="stop-color:#43D2F1"/>
				</linearGradient>
				<path id="Trazado_2561" class="st27" d="M120.7,63.7c3.7-4.1,8.6-5.7,14-7.2v18.6"/>
				
					<linearGradient id="Trazado_2562_1_" gradientUnits="userSpaceOnUse" x1="-2663.7341" y1="-1533.41" x2="-2663.7341" y2="-1534.41" gradientTransform="matrix(16.95 0 0 -0.5 45359.1953 -710.93)">
					<stop  offset="0" style="stop-color:#006DFF"/>
					<stop  offset="1" style="stop-color:#43D2F1"/>
				</linearGradient>
				<path id="Trazado_2562" class="st28" d="M217.4,55.8l-17,0.5"/>
				
					<linearGradient id="Trazado_2563_1_" gradientUnits="userSpaceOnUse" x1="-2663.7283" y1="-1533.41" x2="-2663.7283" y2="-1534.41" gradientTransform="matrix(16.95 0 0 -0.5 45359.1953 -741.23)">
					<stop  offset="0" style="stop-color:#006DFF"/>
					<stop  offset="1" style="stop-color:#43D2F1"/>
				</linearGradient>
				<path id="Trazado_2563" class="st29" d="M200.5,25.5l17,0.5"/>
				
					<linearGradient id="Trazado_2564_1_" gradientUnits="userSpaceOnUse" x1="-2663.7341" y1="-1533.41" x2="-2663.7341" y2="-1534.41" gradientTransform="matrix(16.95 0 0 -0.5 45359.1953 -716.89)">
					<stop  offset="0" style="stop-color:#006DFF"/>
					<stop  offset="1" style="stop-color:#43D2F1"/>
				</linearGradient>
				<path id="Trazado_2564" class="st30" d="M217.4,49.8l-17,0.5"/>
				
					<linearGradient id="Trazado_2565_1_" gradientUnits="userSpaceOnUse" x1="-2663.7283" y1="-1533.41" x2="-2663.7283" y2="-1534.41" gradientTransform="matrix(16.95 0 0 -0.5 45359.1953 -686.6)">
					<stop  offset="0" style="stop-color:#006DFF"/>
					<stop  offset="1" style="stop-color:#43D2F1"/>
				</linearGradient>
				<path id="Trazado_2565" class="st31" d="M200.5,80.1l17,0.5"/>
				
					<linearGradient id="Trazado_2566_1_" gradientUnits="userSpaceOnUse" x1="-2663.7283" y1="-1533.41" x2="-2663.7283" y2="-1534.41" gradientTransform="matrix(16.95 0 0 -0.5 45359.1953 -692.56)">
					<stop  offset="0" style="stop-color:#006DFF"/>
					<stop  offset="1" style="stop-color:#43D2F1"/>
				</linearGradient>
				<path id="Trazado_2566" class="st32" d="M200.5,74.1l17,0.5"/>
				
					<linearGradient id="Trazado_2567_1_" gradientUnits="userSpaceOnUse" x1="-2660.3237" y1="-316.78" x2="-2659.3237" y2="-316.78" gradientTransform="matrix(16.45 0 0 -1 43962.8281 -254.58)">
					<stop  offset="0" style="stop-color:#006DFF"/>
					<stop  offset="1" style="stop-color:#43D2F1"/>
				</linearGradient>
				<path id="Trazado_2567" class="st33" d="M216.9,62.2h-16.4"/>
				
					<linearGradient id="Trazado_2568_1_" gradientUnits="userSpaceOnUse" x1="-2660.3237" y1="-316.82" x2="-2659.3237" y2="-316.82" gradientTransform="matrix(16.45 0 0 -1 43962.8281 -248.62)">
					<stop  offset="0" style="stop-color:#006DFF"/>
					<stop  offset="1" style="stop-color:#43D2F1"/>
				</linearGradient>
				<path id="Trazado_2568" class="st34" d="M216.9,68.2h-16.4"/>
				
					<linearGradient id="Trazado_2569_1_" gradientUnits="userSpaceOnUse" x1="-2656.1313" y1="-316.76" x2="-2655.1282" y2="-316.76" gradientTransform="matrix(15.95 0 0 -1 42566.7344 -272.96)">
					<stop  offset="0" style="stop-color:#006DFF"/>
					<stop  offset="1" style="stop-color:#43D2F1"/>
				</linearGradient>
				<path id="Trazado_2569" class="st35" d="M217.4,43.8h-16"/>
				
					<linearGradient id="Trazado_2570_1_" gradientUnits="userSpaceOnUse" x1="-2426.3835" y1="829.7842" x2="-2426.3835" y2="828.7842" gradientTransform="matrix(6.04 0 0 -17.38 14681.7559 14536.75)">
					<stop  offset="0" style="stop-color:#006DFF"/>
					<stop  offset="1" style="stop-color:#43D2F1"/>
				</linearGradient>
				<path id="Trazado_2570" class="st36" d="M28,116.4l1.4,11.1l-6,0.8l0.6,5.5"/>
				
					<linearGradient id="Trazado_2571_1_" gradientUnits="userSpaceOnUse" x1="-2656.1313" y1="-316.78" x2="-2655.1282" y2="-316.78" gradientTransform="matrix(15.95 0 0 -1 42566.7344 -284.88)">
					<stop  offset="0" style="stop-color:#006DFF"/>
					<stop  offset="1" style="stop-color:#43D2F1"/>
				</linearGradient>
				<path id="Trazado_2571" class="st37" d="M217.4,31.9h-16"/>
				
					<linearGradient id="Trazado_2572_1_" gradientUnits="userSpaceOnUse" x1="-2656.1313" y1="-316.82" x2="-2655.1282" y2="-316.82" gradientTransform="matrix(15.95 0 0 -1 42566.7344 -278.92)">
					<stop  offset="0" style="stop-color:#006DFF"/>
					<stop  offset="1" style="stop-color:#43D2F1"/>
				</linearGradient>
				<path id="Trazado_2572" class="st38" d="M217.4,37.9h-16"/>
				
					<linearGradient id="Trazado_2573_1_" gradientUnits="userSpaceOnUse" x1="-2659.8289" y1="770.9084" x2="-2659.8289" y2="769.9084" gradientTransform="matrix(16.45 0 0 -9.44 43910.0391 7340.1899)">
					<stop  offset="0" style="stop-color:#006DFF"/>
					<stop  offset="1" style="stop-color:#43D2F1"/>
				</linearGradient>
				<path id="Trazado_2573" class="st39" d="M164.1,64.7c-1.7,1-3.3,2-5,3c-3.8,2.2-7.6,4.3-11.5,6.5"/>
				
					<linearGradient id="Trazado_2576_1_" gradientUnits="userSpaceOnUse" x1="-2646.936" y1="-316.85" x2="-2645.936" y2="-316.85" gradientTransform="matrix(14.95 0 0 -1 39799.0938 -171.15)">
					<stop  offset="0" style="stop-color:#006DFF"/>
					<stop  offset="1" style="stop-color:#43D2F1"/>
				</linearGradient>
				<path id="Trazado_2576" class="st40" d="M227.4,145.7h14.9"/>
				
					<linearGradient id="Trazado_2577_1_" gradientUnits="userSpaceOnUse" x1="-2646.4312" y1="-1533.41" x2="-2646.4312" y2="-1534.41" gradientTransform="matrix(14.95 0 0 -0.5 39799.0938 -616.57)">
					<stop  offset="0" style="stop-color:#006DFF"/>
					<stop  offset="1" style="stop-color:#43D2F1"/>
				</linearGradient>
				<path id="Trazado_2577" class="st41" d="M242.4,150.6l-14.9-0.5"/>
				
					<linearGradient id="Trazado_2578_3_" gradientUnits="userSpaceOnUse" x1="-2635.9436" y1="-316.85" x2="-2635.9436" y2="-316.85" gradientTransform="matrix(13.96 0 0 -1 36857.6719 -230.75)">
					<stop  offset="0" style="stop-color:#006DFF"/>
					<stop  offset="1" style="stop-color:#43D2F1"/>
				</linearGradient>
				<path id="Trazado_2578_2_" class="st42" d="M59.9,86.1"/>
				
					<linearGradient id="Trazado_2578_4_" gradientUnits="userSpaceOnUse" x1="-2634.9407" y1="-316.85" x2="-2634.9407" y2="-316.85" gradientTransform="matrix(13.96 0 0 -1 36857.6719 -230.75)">
					<stop  offset="0" style="stop-color:#006DFF"/>
					<stop  offset="1" style="stop-color:#43D2F1"/>
				</linearGradient>
				<path id="Trazado_2578_1_" class="st43" d="M73.9,86.1"/>
				
					<linearGradient id="Trazado_2583_1_" gradientUnits="userSpaceOnUse" x1="-2612.7058" y1="823.2263" x2="-2612.7058" y2="822.2257" gradientTransform="matrix(12.21 0 0 -15.89 31972.9375 13212.4102)">
					<stop  offset="0" style="stop-color:#006DFF"/>
					<stop  offset="1" style="stop-color:#43D2F1"/>
				</linearGradient>
				<path id="Trazado_2583" class="st44" d="M77.9,128.3l-12.2,12.8l1.2,3.1"/>
				
					<linearGradient id="Trazado_2584_1_" gradientUnits="userSpaceOnUse" x1="-2656.72" y1="845.3524" x2="-2656.72" y2="844.3524" gradientTransform="matrix(16.11 0 0 -22.35 42874.1289 19020.7402)">
					<stop  offset="0" style="stop-color:#006DFF"/>
					<stop  offset="1" style="stop-color:#43D2F1"/>
				</linearGradient>
				<path id="Trazado_2584" class="st45" d="M80.9,127.8l1.5,4.5c-5.9,4.8-11.1,8.7-15.8,13.1c-0.7,0.7,0.2,3.2,0.4,4.8"/>
				
					<linearGradient id="Trazado_2585_1_" gradientUnits="userSpaceOnUse" x1="-2646.4338" y1="827.7531" x2="-2646.4338" y2="826.7525" gradientTransform="matrix(14.95 0 0 -16.89 39637.5859 14117.96)">
					<stop  offset="0" style="stop-color:#006DFF"/>
					<stop  offset="1" style="stop-color:#43D2F1"/>
				</linearGradient>
				<path id="Trazado_2585" class="st46" d="M80.9,139.7l-15,11.6v5.3"/>
				
					<linearGradient id="Trazado_2586_1_" gradientUnits="userSpaceOnUse" x1="-2706.0852" y1="876.4525" x2="-2706.0852" y2="875.4534" gradientTransform="matrix(25 0 0 -52.15 67908.0078 45810.3594)">
					<stop  offset="0" style="stop-color:#006DFF"/>
					<stop  offset="1" style="stop-color:#43D2F1"/>
				</linearGradient>
				<path id="Trazado_2586" class="st47" d="M268.3,104.4c0.6,4.5-3.1,7.2-4.5,10.9c-3.9,10.3-11.1,18.4-18.4,26.4
					c-0.8,1-1.5,2.1-2,3.2v11.6"/>
				
					<linearGradient id="Trazado_2587_1_" gradientUnits="userSpaceOnUse" x1="-2559.9434" y1="788.4802" x2="-2559.9434" y2="787.4802" gradientTransform="matrix(9.47 0 0 -10.93 24318.8125 8761.8096)">
					<stop  offset="0" style="stop-color:#006DFF"/>
					<stop  offset="1" style="stop-color:#43D2F1"/>
				</linearGradient>
				<path id="Trazado_2587" class="st48" d="M80.9,145.7c-4.1,2.9-9.5,4.5-9.5,10.9"/>
				
					<linearGradient id="Trazado_2588_1_" gradientUnits="userSpaceOnUse" x1="-2609.1675" y1="770.9084" x2="-2609.1675" y2="769.9084" gradientTransform="matrix(11.96 0 0 -9.44 31328.8438 7351.4502)">
					<stop  offset="0" style="stop-color:#006DFF"/>
					<stop  offset="1" style="stop-color:#43D2F1"/>
				</linearGradient>
				<path id="Trazado_2588" class="st49" d="M129.2,76.6l-12,9.4"/>
				
					<linearGradient id="Trazado_2589_1_" gradientUnits="userSpaceOnUse" x1="-2616.5098" y1="820.7353" x2="-2616.5098" y2="819.7346" gradientTransform="matrix(12.46 0 0 -15.39 32727.1641 12709.5098)">
					<stop  offset="0" style="stop-color:#006DFF"/>
					<stop  offset="1" style="stop-color:#43D2F1"/>
				</linearGradient>
				<path id="Trazado_2589" class="st50" d="M131.7,77.1v4.5l-1-0.5l-11.5,11.4"/>
				
					<linearGradient id="Trazado_2592_1_" gradientUnits="userSpaceOnUse" x1="-1901.5094" y1="845.3524" x2="-1901.5094" y2="844.3524" gradientTransform="matrix(2.5 0 0 -22.35 4834.9199 19027.2012)">
					<stop  offset="0" style="stop-color:#006DFF"/>
					<stop  offset="1" style="stop-color:#43D2F1"/>
				</linearGradient>
				<path id="Trazado_2592" class="st51" d="M81.9,134.2c0.7,7.6,1.1,15.1-2,22.4"/>
				
					<linearGradient id="Trazado_2593_1_" gradientUnits="userSpaceOnUse" x1="-2515.3899" y1="711.4573" x2="-2515.3899" y2="710.4573" gradientTransform="matrix(7.98 0 0 -6.46 20194.0117 4667.1201)">
					<stop  offset="0" style="stop-color:#006DFF"/>
					<stop  offset="1" style="stop-color:#43D2F1"/>
				</linearGradient>
				<path id="Trazado_2593" class="st52" d="M125.2,73.6l-8,6.5"/>
				
					<linearGradient id="Trazado_2594_1_" gradientUnits="userSpaceOnUse" x1="-2515.3911" y1="-1533.41" x2="-2515.3911" y2="-1534.41" gradientTransform="matrix(7.98 0 0 -0.5 20219.4219 -622.53)">
					<stop  offset="0" style="stop-color:#006DFF"/>
					<stop  offset="1" style="stop-color:#43D2F1"/>
				</linearGradient>
				<path id="Trazado_2594" class="st53" d="M150.6,144.2l-8,0.5"/>
				
					<linearGradient id="Trazado_2596_1_" gradientUnits="userSpaceOnUse" x1="-2515.3799" y1="-1533.41" x2="-2515.3799" y2="-1534.41" gradientTransform="matrix(7.98 0 0 -0.5 20219.4316 -667.72)">
					<stop  offset="0" style="stop-color:#006DFF"/>
					<stop  offset="1" style="stop-color:#43D2F1"/>
				</linearGradient>
				<path id="Trazado_2596" class="st54" d="M142.7,99l8,0.5"/>
				
					<linearGradient id="Trazado_2597_1_" gradientUnits="userSpaceOnUse" x1="-2515.3911" y1="-1533.41" x2="-2515.3911" y2="-1534.41" gradientTransform="matrix(7.98 0 0 -0.5 20219.4219 -617.56)">
					<stop  offset="0" style="stop-color:#006DFF"/>
					<stop  offset="1" style="stop-color:#43D2F1"/>
				</linearGradient>
				<path id="Trazado_2597" class="st55" d="M150.6,149.1l-8,0.5"/>
				
					<linearGradient id="Trazado_2598_3_" gradientUnits="userSpaceOnUse" x1="-2516.4761" y1="-1534.3" x2="-2516.4761" y2="-1534.3" gradientTransform="matrix(7.97 0 0 -0.5 20125.2129 -693.05)">
					<stop  offset="0" style="stop-color:#006DFF"/>
					<stop  offset="1" style="stop-color:#43D2F1"/>
				</linearGradient>
				<path id="Trazado_2598_2_" class="st56" d="M68.9,74.1"/>
				
					<linearGradient id="Trazado_2598_4_" gradientUnits="userSpaceOnUse" x1="-2515.4722" y1="-1533.3" x2="-2515.4722" y2="-1533.3" gradientTransform="matrix(7.97 0 0 -0.5 20125.2129 -693.05)">
					<stop  offset="0" style="stop-color:#006DFF"/>
					<stop  offset="1" style="stop-color:#43D2F1"/>
				</linearGradient>
				<path id="Trazado_2598_1_" class="st57" d="M76.9,73.6"/>
				
					<linearGradient id="Trazado_2599_1_" gradientUnits="userSpaceOnUse" x1="-2515.3911" y1="-1533.41" x2="-2515.3911" y2="-1534.41" gradientTransform="matrix(7.98 0 0 -0.5 20219.4219 -627.5)">
					<stop  offset="0" style="stop-color:#006DFF"/>
					<stop  offset="1" style="stop-color:#43D2F1"/>
				</linearGradient>
				<path id="Trazado_2599" class="st58" d="M150.6,139.2l-8,0.5"/>
				
					<linearGradient id="Trazado_2600_1_" gradientUnits="userSpaceOnUse" x1="1574.6447" y1="853.5629" x2="1574.6447" y2="852.5629" gradientTransform="matrix(0.51 0 0 -26.32 -651.241 22597.25)">
					<stop  offset="0" style="stop-color:#006DFF"/>
					<stop  offset="1" style="stop-color:#43D2F1"/>
				</linearGradient>
				<path id="Trazado_2600" class="st59" d="M152.1,130.3c-0.2,6.6-0.4,13.2-0.5,19.9c-0.1,2.2,0,4.3,0,6.5"/>
				
					<linearGradient id="Trazado_2601_1_" gradientUnits="userSpaceOnUse" x1="1500.5275" y1="863.761" x2="1500.5275" y2="862.761" gradientTransform="matrix(0.52 0 0 -33.77 -554.1021 29293.2109)">
					<stop  offset="0" style="stop-color:#006DFF"/>
					<stop  offset="1" style="stop-color:#43D2F1"/>
				</linearGradient>
				<path id="Trazado_2601" class="st60" d="M225.9,122.8c0.2,7.8,0.4,15.6,0.5,23.3c0.1,3.5,0,6.9,0,10.4"/>
				
					<linearGradient id="Trazado_2602_1_" gradientUnits="userSpaceOnUse" x1="-563.85" y1="845.3524" x2="-563.85" y2="844.3524" gradientTransform="matrix(1 0 0 -22.35 680.65 18965.8105)">
					<stop  offset="0" style="stop-color:#006DFF"/>
					<stop  offset="1" style="stop-color:#43D2F1"/>
				</linearGradient>
				<path id="Trazado_2602" class="st61" d="M116.8,69.7v22.4"/>
				
					<linearGradient id="Trazado_2603_1_" gradientUnits="userSpaceOnUse" x1="-2217.2341" y1="818.1335" x2="-2217.2341" y2="817.1335" gradientTransform="matrix(3.86 0 0 -14.9 8765.9736 12304.0898)">
					<stop  offset="0" style="stop-color:#006DFF"/>
					<stop  offset="1" style="stop-color:#43D2F1"/>
				</linearGradient>
				<path id="Trazado_2603" class="st62" d="M205.5,113.9l3.9,1l-2.4,13.9"/>
				
					<linearGradient id="Trazado_2604_1_" gradientUnits="userSpaceOnUse" x1="-2305.1538" y1="774.107" x2="-2305.1538" y2="773.107" gradientTransform="matrix(4.56 0 0 -9.68 10641.0439 7579.0801)">
					<stop  offset="0" style="stop-color:#006DFF"/>
					<stop  offset="1" style="stop-color:#43D2F1"/>
				</linearGradient>
				<path id="Trazado_2604" class="st63" d="M131.2,82.6c0.7,2.4,1.4,4.7-1.9,6.1c-1,0.4-1.4,2.3-2,3.6"/>
				
					<linearGradient id="Trazado_2605_1_" gradientUnits="userSpaceOnUse" x1="1498.4121" y1="865.2811" x2="1498.4121" y2="864.2811" gradientTransform="matrix(0.52 0 0 -35.26 -627.802 30605.1113)">
					<stop  offset="0" style="stop-color:#006DFF"/>
					<stop  offset="1" style="stop-color:#43D2F1"/>
				</linearGradient>
				<path id="Trazado_2605" class="st64" d="M151.1,94c0.2,8,0.4,15.9,0.5,23.8c0.1,3.8,0,7.6,0,11.4"/>
				
					<linearGradient id="Trazado_2606_1_" gradientUnits="userSpaceOnUse" x1="-2601.0317" y1="854.8448" x2="-2601.0317" y2="853.8448" gradientTransform="matrix(11.46 0 0 -27.07 30015.5742 23240.6406)">
					<stop  offset="0" style="stop-color:#006DFF"/>
					<stop  offset="1" style="stop-color:#43D2F1"/>
				</linearGradient>
				<path id="Trazado_2606" class="st65" d="M213.5,102l-3.2,6.5h-4.9c-1.1,6.7-2.2,13.7-3.4,20.6"/>
				
					<linearGradient id="Trazado_2607_1_" gradientUnits="userSpaceOnUse" x1="-2432.1052" y1="667.6107" x2="-2432.1052" y2="666.6107" gradientTransform="matrix(6.14 0 0 -5.24 15142.5762 3596.4797)">
					<stop  offset="0" style="stop-color:#006DFF"/>
					<stop  offset="1" style="stop-color:#43D2F1"/>
				</linearGradient>
				<path id="Trazado_2607" class="st66" d="M212.5,98.5l-6.1-0.3c0.3,2.3,0.5,3.8,0.7,5.2"/>
				
					<linearGradient id="Trazado_2608_1_" gradientUnits="userSpaceOnUse" x1="-563.36" y1="777.265" x2="-563.36" y2="776.265" gradientTransform="matrix(1 0 0 -9.93 771.86 7808.21)">
					<stop  offset="0" style="stop-color:#006DFF"/>
					<stop  offset="1" style="stop-color:#43D2F1"/>
				</linearGradient>
				<path id="Trazado_2608" class="st67" d="M209,88c-0.3,3.3-0.7,6.6-1,9.9"/>
				
					<linearGradient id="Trazado_2609_1_" gradientUnits="userSpaceOnUse" x1="-2404.1611" y1="653.5079" x2="-2404.1611" y2="652.5079" gradientTransform="matrix(5.71 0 0 -4.94 13935.9092 3332.4402)">
					<stop  offset="0" style="stop-color:#006DFF"/>
					<stop  offset="1" style="stop-color:#43D2F1"/>
				</linearGradient>
				<path id="Trazado_2609" class="st68" d="M211,104l-5.7-0.5c0.3,2.3,0.5,3.7,0.7,5"/>
			</g>
		</g>
	</g>
</g>
</svg>
