<svg id="Layer_1" data-name="Layer 1" xmlns="http://www.w3.org/2000/svg" viewBox="0 0 100 100"><defs><style>.cls-1{fill:#fff;}</style></defs><title>case-04-01-02</title><path class="cls-1" d="M75.86,19.1l-.16-.29-.14-.18v-.25l-.33-.12L75,17.91l-.33.1h-.09l-.22,0,0,0H29.51a2,2,0,0,0-.59.09c-6.69,2.16-10.4,13.56-10.8,14.86A1.93,1.93,0,0,0,20,35.39h5a35,35,0,0,0-2.63,6.08,52.07,52.07,0,0,0-2.6,16.61V77.63a4.46,4.46,0,0,0,4.45,4.45h45a1.88,1.88,0,0,0,.71-.14l.18-.09a1.5,1.5,0,0,0,.32-.19l7.46-5.93a10.4,10.4,0,0,0,3.88-7.64C83.27,34.41,76.75,20.78,75.86,19.1Zm-.41,53.62L71,76.26c-.2-7.49-.31-24.35,2.33-30.07a30.18,30.18,0,0,0,2.14-5.74,45.25,45.25,0,0,0,.78-6.25c1.36,7.66,2.32,18.63,1.64,33.72A6.54,6.54,0,0,1,75.45,72.72Zm-8.27,5.5h-43a.59.59,0,0,1-.59-.59V58.07A48.23,48.23,0,0,1,26,42.69a26.34,26.34,0,0,1,3.55-7.31h5.62a53.07,53.07,0,0,0-1.84,8.69,1.93,1.93,0,0,0,1.92,2.14H46.59a1.94,1.94,0,0,0,1.93-1.81,37.1,37.1,0,0,1,1.71-9h16a1.92,1.92,0,0,0,1.88-1.51c.46-2.06,2-7.24,4.36-10.25a73.64,73.64,0,0,1-.78,15.94,26.76,26.76,0,0,1-1.88,5C66.58,51.59,66.93,70.95,67.19,78.22ZM37.49,42.35C38.28,38,40.7,27.89,47,21.8H52.9a41.32,41.32,0,0,0-8.09,20.55ZM51.7,31.52a37.27,37.27,0,0,1,6.23-9.72H69a32.85,32.85,0,0,0-4.3,9.72ZM41.78,21.8a37.81,37.81,0,0,0-5.32,9.72H22.73c1.22-3,3.83-8.43,7.12-9.72Z"/></svg>