<svg id="Layer_1" data-name="Layer 1" xmlns="http://www.w3.org/2000/svg" viewBox="0 0 100 100"><defs><style>.cls-1{fill:#fff;}</style></defs><title>case-04-01-01</title><path class="cls-1" d="M80.42,58.82a2.13,2.13,0,0,0-.18-3.23,1.92,1.92,0,0,0-1.08-.31,1.92,1.92,0,0,1,1.08.31A2.13,2.13,0,0,1,80.42,58.82Z"/><path class="cls-1" d="M77,30.4a2,2,0,0,0,.69-1.58A2,2,0,0,1,77,30.4Z"/><path class="cls-1" d="M25.66,28.75a1.86,1.86,0,0,1,.58-1.4A1.86,1.86,0,0,0,25.66,28.75Z"/><path class="cls-1" d="M31.53,24.58c-2.65,0-3.42.87-5.29,2.77C28.11,25.45,28.88,24.57,31.53,24.58Z"/><path class="cls-1" d="M27.73,30.76a1.9,1.9,0,0,1-.78-.17A1.9,1.9,0,0,0,27.73,30.76Z"/><path class="cls-1" d="M20.72,75.41h0Z"/><path class="cls-1" d="M68.18,31.1l-.65.88-28.27.09L67.53,32Z"/><path class="cls-1" d="M41.63,25.73a2,2,0,0,0-1.76-1.11A2,2,0,0,1,41.63,25.73Z"/><path class="cls-1" d="M30.7,28.57a5.42,5.42,0,0,0-.56.51A5.54,5.54,0,0,1,30.7,28.57Z"/><path class="cls-1" d="M63.07,50.47c.22-.49.45-1,.71-1.43C63.52,49.5,63.29,50,63.07,50.47Z"/><path class="cls-1" d="M27.82,69.14a14.29,14.29,0,0,0,3.77-20.21,1.67,1.67,0,0,1,.34-2.38,1.67,1.67,0,0,0-.34,2.38,14.29,14.29,0,0,1-3.77,20.21,13.2,13.2,0,0,1-7.25,2.25A13.2,13.2,0,0,0,27.82,69.14Z"/><path class="cls-1" d="M3.65,51.42a18.18,18.18,0,0,1,17.1-11.77A18.19,18.19,0,0,0,3.65,51.42c-3.24,7.92.71,16.83,7.48,21.34A16,16,0,0,0,19.3,75.4a16,16,0,0,1-8.16-2.64C4.36,68.25.41,59.33,3.65,51.42Z"/><path class="cls-1" d="M33.27,33.44a2.19,2.19,0,0,1,.4-.64A2.18,2.18,0,0,0,33.27,33.44Z"/><path class="cls-1" d="M18.63,57.36a1.8,1.8,0,0,1,.14-.65A1.8,1.8,0,0,0,18.63,57.36Z"/><path class="cls-1" d="M23,43.73a14.8,14.8,0,0,0-2.71-.15,14.8,14.8,0,0,1,2.71.15,2.1,2.1,0,0,0,1.16-.14A2.1,2.1,0,0,1,23,43.73Z"/><path class="cls-1" d="M64.31,53.6A2.21,2.21,0,0,1,63,50.66h0A2.21,2.21,0,0,0,64.3,53.6a1.58,1.58,0,0,0,2.11-.93h0A1.58,1.58,0,0,1,64.31,53.6Z"/><path class="cls-1" d="M82.85,44.22a14.55,14.55,0,0,0-8.38.57A13.8,13.8,0,0,0,71,46.69a14.1,14.1,0,0,0-2.6,2.57A14.11,14.11,0,0,1,71,46.69a13.83,13.83,0,0,1,3.44-1.9,14.54,14.54,0,0,1,8.38-.57A13.5,13.5,0,0,1,93.5,57.42a12.45,12.45,0,0,1-1.23,5.89,12.45,12.45,0,0,0,1.24-5.89A13.5,13.5,0,0,0,82.85,44.22Z"/><path class="cls-1" d="M64.42,48c.1-.16.19-.33.3-.49C64.62,47.67,64.53,47.84,64.42,48Z"/><path class="cls-1" d="M83.31,75A18.24,18.24,0,0,1,62.94,64.19a2.07,2.07,0,0,1,0-1.78,2.07,2.07,0,0,0,0,1.79A18.24,18.24,0,0,0,83.3,75a16.91,16.91,0,0,0,12.2-9.63A16.91,16.91,0,0,1,83.31,75Z"/><path class="cls-1" d="M76.22,39.71c.54-.07,1.07-.11,1.6-.12h0c-.54,0-1.07.05-1.62.13a2.1,2.1,0,0,0-.83.29h0A2.11,2.11,0,0,1,76.22,39.71Z"/><path class="cls-1" d="M76.22,39.71a2.11,2.11,0,0,0-.83.29,16.82,16.82,0,0,1,2.43-.42C77.29,39.6,76.76,39.64,76.22,39.71Z"/><path class="cls-1" d="M33.88,46.1a2.27,2.27,0,0,0-1.95.45,2.27,2.27,0,0,1,1.95-.45,2,2,0,0,1,1.16.82c4.75,6.87,4.66,16.78-1.47,22.89-.33.33-.69.65-1,1a19.37,19.37,0,0,1-11.8,4.64,19.37,19.37,0,0,0,11.8-4.64c.36-.31.71-.62,1-1,6.14-6.11,6.22-16,1.47-22.89A2,2,0,0,0,33.88,46.1Z"/><path class="cls-1" d="M6.89,54.53c-1.13,6,1.52,12.54,7.18,15.31a14.51,14.51,0,0,0,6.5,1.55,14.51,14.51,0,0,1-6.5-1.55c-5.66-2.77-8.31-9.31-7.18-15.31C8.12,48,14,43.81,20.32,43.58,14,43.81,8.12,48,6.89,54.53Z"/><path class="cls-1" d="M24.61,40c1.48.65,1,2.91-.42,3.55,1.46-.64,1.91-2.89.42-3.55a2,2,0,0,0-.52-.16,21.69,21.69,0,0,0-3.34-.24,21.69,21.69,0,0,1,3.34.24A2,2,0,0,1,24.61,40Z"/><path class="cls-1" d="M20.53,75.41c-.41,0-.82,0-1.23,0C19.71,75.42,20.12,75.41,20.53,75.41Z"/><path class="cls-1" d="M33.56,69.81c6.14-6.11,6.22-16,1.47-22.89a2,2,0,0,0-1.16-.82,2.27,2.27,0,0,0-1.95.45,1.67,1.67,0,0,0-.34,2.38,14.29,14.29,0,0,1-3.77,20.21,13.2,13.2,0,0,1-7.25,2.25,14.51,14.51,0,0,1-6.5-1.55c-5.66-2.77-8.31-9.31-7.18-15.31C8.12,48,14,43.81,20.32,43.58a14.8,14.8,0,0,1,2.71.15,2.1,2.1,0,0,0,1.16-.14c1.46-.64,1.9-2.89.42-3.55a2,2,0,0,0-.52-.16,21.69,21.69,0,0,0-3.34-.24A18.18,18.18,0,0,0,3.65,51.42c-3.24,7.92.71,16.83,7.48,21.34A16,16,0,0,0,19.3,75.4c.41,0,.82,0,1.23,0h.19a19.37,19.37,0,0,0,11.8-4.64C32.88,70.46,33.23,70.14,33.56,69.81Z"/><path class="cls-1" d="M29.06,30.17a1.84,1.84,0,0,1-1.33.59A1.83,1.83,0,0,0,29.06,30.17Z"/><path class="cls-1" d="M73.31,30.82l-.2.28.2-.28h2.46A1.87,1.87,0,0,0,77,30.4a1.88,1.88,0,0,1-1.23.42Z"/><path class="cls-1" d="M66.35,28.22a2,2,0,0,0,1.84,2.61A2,2,0,0,1,66.35,28.22Z"/><path class="cls-1" d="M77.69,28.83a1.89,1.89,0,0,0-1.56-2A1.89,1.89,0,0,1,77.69,28.83Z"/><path class="cls-1" d="M25.66,28.75a2.19,2.19,0,0,0,1.29,1.84A2.19,2.19,0,0,1,25.66,28.75Z"/><path class="cls-1" d="M80.42,58.82a1.88,1.88,0,0,1-1.27.44H51.44A2,2,0,0,1,50,58.63L50,58.56l-.12-.14s-.09-.09-.13-.14L35.52,38.06l-.23-.33L22.39,58.39l12.9-20.67.23.33L49.72,58.28c0,.06.08.1.13.14l.12.14.06.07a2,2,0,0,0,1.42.64H79.15A1.88,1.88,0,0,0,80.42,58.82Z"/><path class="cls-1" d="M18.63,57.36a2.1,2.1,0,0,0,2.86,1.82A2.1,2.1,0,0,1,18.63,57.36Z"/><path class="cls-1" d="M35.52,38.06,49.72,58.28c0,.06.08.1.13.14l.12.14.06.07a2,2,0,0,0,1.42.64H79.16a1.88,1.88,0,0,0,1.27-.44,2.13,2.13,0,0,0-.18-3.23,1.92,1.92,0,0,0-1.08-.31H55.36l.05-.07L67.08,39.3l2.58-3.51L73.1,31.1l.2-.28h2.46A1.88,1.88,0,0,0,77,30.4a2,2,0,0,0,.69-1.58,1.89,1.89,0,0,0-1.56-2,2.26,2.26,0,0,0-.37,0H68.19a1.82,1.82,0,0,0-1.84,1.38,2,2,0,0,0,1.84,2.61h.2l-.2.28-.65.88-28.27.09h-.44l2.78-4.45a1.87,1.87,0,0,0,0-1.89,2,2,0,0,0-1.76-1.11l-8.34,0c-2.65,0-3.42.87-5.29,2.77a1.86,1.86,0,0,0-.58,1.4,2.19,2.19,0,0,0,1.29,1.84,1.9,1.9,0,0,0,.78.17,1.84,1.84,0,0,0,1.33-.59l1.08-1.1a5.42,5.42,0,0,1,.56-.51h2.2l3.39,0-.19.31-2.43,3.9a2.19,2.19,0,0,0-.4.64L18.94,56.38a2.27,2.27,0,0,0-.17.33,1.8,1.8,0,0,0-.14.65,2.1,2.1,0,0,0,2.86,1.82,2,2,0,0,0,.9-.79l12.9-20.67ZM64.6,36l-.15.2L51.55,53.77l-.07.1L39,36.06Z"/><path class="cls-1" d="M51.55,53.77l-.07.1.07-.1,12.9-17.59.15-.2-.15.2Z"/><path class="cls-1" d="M66.41,52.67a15.59,15.59,0,0,1,2-3.42,15.55,15.55,0,0,0-2,3.42Z"/><path class="cls-1" d="M65.22,61.16a1.58,1.58,0,0,1,1.16,1,16.43,16.43,0,0,0,2.75,4.35c3.22,3.68,8,5.85,13.11,4.63a15.05,15.05,0,0,0,10-7.86,15.05,15.05,0,0,1-10,7.86c-5.07,1.22-9.89-1-13.11-4.63a16.4,16.4,0,0,1-2.75-4.35,1.58,1.58,0,0,0-1.16-1A2.21,2.21,0,0,0,63,62.41,2.21,2.21,0,0,1,65.22,61.16Z"/><path class="cls-1" d="M63.77,49c.2-.36.43-.7.65-1C64.2,48.34,64,48.68,63.77,49Z"/><path class="cls-1" d="M77.85,39.58h0a16.23,16.23,0,0,1,5.35.33c8,1.87,14.53,9,14.28,17.51a19.69,19.69,0,0,1-2,8,19.7,19.7,0,0,0,2-8c.25-8.49-6.32-15.64-14.28-17.51a16.29,16.29,0,0,0-5.35-.33h0Z"/><path class="cls-1" d="M69.07,43a18.61,18.61,0,0,1,3.38-2,17.56,17.56,0,0,1,2.92-1h0a17.7,17.7,0,0,0-2.92,1,18.49,18.49,0,0,0-3.38,2,19.15,19.15,0,0,0-2,1.75,19.34,19.34,0,0,0-2.31,2.74A19.29,19.29,0,0,1,67,44.78,19,19,0,0,1,69.07,43Z"/><path class="cls-1" d="M63,50.66h0l.1-.19Z"/><path class="cls-1" d="M62.94,64.19A18.24,18.24,0,0,0,83.31,75a16.91,16.91,0,0,0,12.2-9.63,19.69,19.69,0,0,0,2-8c.25-8.49-6.32-15.65-14.28-17.51a16.23,16.23,0,0,0-5.35-.33h0a16.85,16.85,0,0,0-2.46.42h0a17.56,17.56,0,0,0-2.92,1,18.61,18.61,0,0,0-3.38,2,19,19,0,0,0-2,1.75,19.29,19.29,0,0,0-2.3,2.74c-.11.16-.2.33-.3.49-.22.34-.45.68-.65,1s-.49.94-.71,1.43l-.1.19a2.21,2.21,0,0,0,1.33,2.94,1.58,1.58,0,0,0,2.11-.93,15.55,15.55,0,0,1,2-3.42A14.1,14.1,0,0,1,71,46.69a13.8,13.8,0,0,1,3.44-1.9,14.55,14.55,0,0,1,8.38-.57A13.5,13.5,0,0,1,93.5,57.42a12.45,12.45,0,0,1-1.24,5.89,15.05,15.05,0,0,1-10,7.86c-5.07,1.22-9.89-1-13.11-4.63a16.43,16.43,0,0,1-2.75-4.35,1.58,1.58,0,0,0-1.16-1A2.21,2.21,0,0,0,63,62.41,2.07,2.07,0,0,0,62.94,64.19Z"/><path class="cls-1" d="M77.85,39.58h0Z"/><circle class="cls-1" cx="75.39" cy="40" transform="translate(-9.93 37.94) rotate(-26.57)"/><path class="cls-1" d="M75.39,40h0a16.85,16.85,0,0,1,2.46-.42h0A16.82,16.82,0,0,0,75.39,40Z"/></svg>