<svg id="Layer_1" data-name="Layer 1" xmlns="http://www.w3.org/2000/svg" viewBox="0 0 100 100"><defs><style>.cls-1{fill:#fff;}</style></defs><title>case-04-03-01</title><path class="cls-1" d="M92.6,28.78a2.3,2.3,0,1,0-4.1,2.1A41.64,41.64,0,0,1,93,50a41.64,41.64,0,0,1-4.5,19.1,2.33,2.33,0,0,0,1,3.1,1.8,1.8,0,0,0,1,.2,2.4,2.4,0,0,0,2-1.2,46.6,46.6,0,0,0,5-21.2A46.81,46.81,0,0,0,92.6,28.78Z"/><path class="cls-1" d="M10.6,27.78a2.33,2.33,0,0,0-3.1,1,47.44,47.44,0,0,0,0,42.4,2.3,2.3,0,0,0,2,1.3,3.55,3.55,0,0,0,1-.2,2.3,2.3,0,0,0,1-3.1A45,45,0,0,1,7.1,50a42.35,42.35,0,0,1,4.5-19.2A2.11,2.11,0,0,0,10.6,27.78Z"/><path class="cls-1" d="M76.7,34.18a2.3,2.3,0,0,0-1,3.1,28.38,28.38,0,0,1,0,25.4,2.33,2.33,0,0,0,1,3.1,1.8,1.8,0,0,0,1,.2,2.4,2.4,0,0,0,2-1.2,33,33,0,0,0,0-29.6A2.27,2.27,0,0,0,76.7,34.18Z"/><path class="cls-1" d="M23.5,34.18a2.33,2.33,0,0,0-3.1,1,33,33,0,0,0,0,29.6,2.2,2.2,0,0,0,2,1.2,3.55,3.55,0,0,0,1-.2,2.3,2.3,0,0,0,1-3.1,28.38,28.38,0,0,1,0-25.4A2.14,2.14,0,0,0,23.5,34.18Z"/><path class="cls-1" d="M50.1,31.18A18.8,18.8,0,1,0,68.9,50,18.84,18.84,0,0,0,50.1,31.18Zm0,33A14.2,14.2,0,1,1,64.3,50,14.25,14.25,0,0,1,50.1,64.18Z"/><path class="cls-1" d="M47.5,43a1.15,1.15,0,0,0-1.8,1V56a1.18,1.18,0,0,0,1.8,1l9.1-6a1.21,1.21,0,0,0,0-2Z"/></svg>