<svg id="Layer_1" data-name="Layer 1" xmlns="http://www.w3.org/2000/svg" viewBox="0 0 100 100"><defs><style>.cls-1{fill:#fff;}</style></defs><title>case-04-03-02</title><path class="cls-1" d="M50,77.4A19.18,19.18,0,1,0,30.82,58.22,19.18,19.18,0,0,0,50,77.4ZM34.47,58.22a15.53,15.53,0,1,1,30.21,5.07,7.68,7.68,0,0,1-8.93-1.91,7.67,7.67,0,0,1-11.51,0,7.68,7.68,0,0,1-8.93,1.91A15.51,15.51,0,0,1,34.47,58.22Z"/><circle class="cls-1" cx="67.36" cy="24.42" r="3.65"/><path class="cls-1" d="M76.49,15.29h-53A5.49,5.49,0,0,0,18,20.77V79.23a5.49,5.49,0,0,0,5.48,5.48h53A5.49,5.49,0,0,0,82,79.23V20.77A5.49,5.49,0,0,0,76.49,15.29Zm1.83,63.95a1.83,1.83,0,0,1-1.83,1.82h-53a1.84,1.84,0,0,1-1.83-1.82V35.38H78.32Zm0-47.5H21.68v-11a1.83,1.83,0,0,1,1.83-1.82h53a1.84,1.84,0,0,1,1.83,1.82Z"/></svg>