<?xml version="1.0" encoding="utf-8"?>
<!-- Generator: Adobe Illustrator 21.1.0, SVG Export Plug-In . SVG Version: 6.00 Build 0)  -->
<svg version="1.1" id="Capa_1" xmlns="http://www.w3.org/2000/svg" xmlns:xlink="http://www.w3.org/1999/xlink" x="0px" y="0px"
	 viewBox="0 0 113.4 56.7" style="enable-background:new 0 0 113.4 56.7;" xml:space="preserve">
<style type="text/css">
	.st0{fill:#FFFFFF;}
</style>
<g>
	<g>
		<path class="st0" d="M15.1,28.4c-0.5,0-1-0.1-1.4-0.2c-0.4-0.1-0.8-0.3-1.2-0.5l0.9-1.9c0.2,0.1,0.5,0.2,0.8,0.3
			c0.2,0.1,0.5,0.1,0.8,0.1c0.3,0,0.7-0.1,0.9-0.3c0.3-0.3,0.5-0.6,0.7-1l-4.7-11.2h2.7l3.2,8.4l2.9-8.3h2.7l-4.4,11.5
			c-0.2,0.5-0.4,1-0.7,1.5c-0.2,0.4-0.5,0.7-0.8,1c-0.3,0.2-0.6,0.4-1,0.5C16,28.3,15.5,28.4,15.1,28.4z"/>
		<path class="st0" d="M30.4,25.2c-0.8,0-1.6-0.1-2.4-0.5c-0.7-0.3-1.4-0.7-1.9-1.2c-0.5-0.5-1-1.2-1.2-1.8
			c-0.3-0.7-0.5-1.5-0.4-2.3l0,0c0-0.8,0.1-1.6,0.5-2.3c0.6-1.4,1.7-2.5,3.2-3.1c0.8-0.3,1.6-0.5,2.4-0.5c0.8,0,1.6,0.1,2.4,0.5
			c2.2,0.9,3.6,3,3.6,5.4v0c0,0.8-0.2,1.5-0.5,2.3c-0.6,1.4-1.7,2.5-3.2,3.1C32.1,25,31.3,25.2,30.4,25.2z M30.5,22.9
			c0.5,0,0.9-0.1,1.4-0.3c0.4-0.2,0.8-0.4,1.1-0.8c0.3-0.3,0.5-0.7,0.7-1.1c0.2-0.4,0.2-0.9,0.2-1.4v0c0-0.5-0.1-1-0.3-1.4
			c-0.2-0.4-0.4-0.8-0.7-1.1c-0.3-0.3-0.7-0.6-1.1-0.8c-0.9-0.4-1.9-0.4-2.8,0c-0.4,0.2-0.8,0.4-1.1,0.8c-0.3,0.3-0.5,0.7-0.7,1.1
			c-0.2,0.4-0.2,0.9-0.2,1.4v0c0,0.5,0.1,0.9,0.3,1.4c0.2,0.4,0.4,0.8,0.7,1.1c0.3,0.3,0.7,0.6,1.1,0.8C29.5,22.8,30,22.9,30.5,22.9
			L30.5,22.9z"/>
		<path class="st0" d="M42.5,25.1c-1.1,0.1-2.2-0.4-2.9-1.2c-0.7-0.9-1.1-2-1-3.1v-7.2h2.6V20c0,0.7,0.2,1.4,0.6,2
			c0.5,0.5,1.1,0.7,1.8,0.7c0.7,0,1.3-0.3,1.8-0.8c0.5-0.6,0.7-1.3,0.7-2.1v-6.3h2.6v11.2H46v-1.8c-0.4,0.5-0.8,1-1.3,1.4
			C44,25,43.3,25.2,42.5,25.1z"/>
		<path class="st0" d="M51.4,13.7H54v1.8c0.2-0.3,0.4-0.5,0.6-0.8c0.2-0.2,0.5-0.5,0.8-0.6c0.3-0.2,0.6-0.3,1-0.4
			c0.4-0.1,0.8-0.2,1.2-0.2c1.1-0.1,2.2,0.4,2.9,1.2c0.7,0.9,1.1,2,1,3.2v7.1h-2.6v-6.4c0-0.7-0.2-1.5-0.6-2
			c-0.5-0.5-1.1-0.8-1.8-0.7c-0.7,0-1.3,0.3-1.8,0.8c-0.5,0.6-0.7,1.3-0.7,2.1V25h-2.6V13.7z"/>
		<path class="st0" d="M64.2,9.5H67V12h-2.8V9.5z M64.3,13.7h2.6v11.2h-2.6V13.7z"/>
		<path class="st0" d="M73.6,25.1c-0.4,0-0.9-0.1-1.3-0.2c-0.4-0.1-0.7-0.3-1-0.6c-0.3-0.3-0.5-0.6-0.7-1c-0.2-0.5-0.2-1-0.2-1.5
			v-5.9h-1.4v-2.2h1.4v-3.1H73v3.1h3v2.3h-3v5.5c0,0.4,0.1,0.8,0.4,1.1c0.3,0.2,0.6,0.4,1,0.3c0.6,0,1.1-0.1,1.6-0.4v2.1
			c-0.3,0.2-0.7,0.3-1,0.4C74.5,25.1,74.1,25.1,73.6,25.1z"/>
		<path class="st0" d="M83.3,25.2c-0.8,0-1.6-0.1-2.3-0.4c-1.4-0.6-2.5-1.7-3.1-3.1c-0.3-0.8-0.5-1.6-0.4-2.4l0,0
			c0-0.8,0.1-1.6,0.4-2.3c0.3-0.7,0.7-1.3,1.2-1.9c0.5-0.5,1.1-1,1.8-1.3c0.7-0.3,1.4-0.5,2.2-0.5c0.8,0,1.6,0.2,2.3,0.5
			c0.7,0.3,1.2,0.8,1.7,1.3c0.5,0.6,0.8,1.2,1,1.9c0.2,0.7,0.3,1.5,0.3,2.3v0.7h-8.4c0.1,0.8,0.5,1.6,1.1,2.1
			c0.6,0.5,1.4,0.8,2.1,0.8c0.6,0,1.1-0.1,1.7-0.3c0.5-0.3,1-0.6,1.4-1l1.5,1.3c-0.5,0.6-1.2,1.2-1.9,1.5
			C85.1,25,84.2,25.2,83.3,25.2z M85.8,18.5c0-0.4-0.1-0.8-0.3-1.2c-0.1-0.3-0.3-0.7-0.6-0.9c-0.2-0.3-0.5-0.5-0.9-0.6
			c-0.4-0.2-0.7-0.2-1.1-0.2c-0.7,0-1.5,0.3-2,0.8c-0.5,0.6-0.9,1.3-1,2.1H85.8z"/>
		<path class="st0" d="M95.2,25.1c-0.7,0-1.3-0.1-1.9-0.4c-0.6-0.3-1.2-0.6-1.7-1.1c-0.5-0.5-0.9-1.1-1.2-1.8
			C90.1,21,90,20.2,90,19.3v0c0-0.8,0.1-1.7,0.4-2.5c0.3-0.7,0.7-1.3,1.2-1.8c0.5-0.5,1-0.9,1.7-1.1c0.6-0.3,1.3-0.4,1.9-0.4
			c0.8,0,1.6,0.2,2.3,0.6c0.6,0.4,1.1,0.8,1.5,1.4V9.4h2.6v15.5H99V23c-0.4,0.6-0.9,1.1-1.5,1.5C96.8,25,96,25.2,95.2,25.1z
			 M95.8,22.9c0.9,0,1.7-0.3,2.3-1c0.3-0.3,0.5-0.7,0.7-1.1c0.2-0.5,0.3-1,0.3-1.5v0c0-0.5-0.1-1-0.3-1.5c-0.2-0.4-0.4-0.8-0.7-1.1
			c-0.3-0.3-0.6-0.6-1-0.7c-0.4-0.2-0.8-0.3-1.2-0.3c-0.4,0-0.8,0.1-1.2,0.3c-0.4,0.2-0.7,0.4-1,0.7c-0.3,0.3-0.6,0.7-0.7,1.2
			c-0.2,0.5-0.3,1-0.3,1.5l0,0c0,0.5,0.1,1,0.3,1.5c0.2,0.4,0.4,0.8,0.7,1.1c0.3,0.3,0.6,0.6,1,0.8C95,22.9,95.4,22.9,95.8,22.9z"/>
	</g>
	<g>
		<path class="st0" d="M32.8,47.3c-0.7,0-1.5-0.1-2.2-0.5c-0.7-0.3-1.2-0.7-1.7-1.2c-0.5-0.5-0.9-1.1-1.2-1.8
			c-0.3-0.7-0.4-1.4-0.4-2.2v0c0-0.7,0.1-1.5,0.4-2.2c0.5-1.3,1.6-2.4,2.9-3c0.7-0.3,1.4-0.5,2.2-0.5c0.9,0,1.7,0.2,2.5,0.6
			c0.7,0.4,1.3,0.9,1.8,1.4l-0.3,0.3c-0.5-0.5-1.1-1-1.7-1.3c-0.7-0.4-1.5-0.6-2.3-0.6c-0.7,0-1.4,0.1-2,0.4
			c-0.6,0.3-1.1,0.6-1.6,1.1c-0.5,0.5-0.8,1-1.1,1.7c-0.3,0.6-0.4,1.3-0.4,2v0c0,1.4,0.5,2.7,1.5,3.6c0.5,0.5,1,0.9,1.6,1.2
			c0.6,0.3,1.3,0.4,2,0.4c0.8,0,1.6-0.2,2.3-0.6c0.6-0.4,1.2-0.9,1.7-1.4l0.3,0.3c-0.5,0.6-1.1,1.1-1.8,1.6
			C34.6,47.1,33.7,47.3,32.8,47.3z"/>
		<path class="st0" d="M39.8,36.3h0.5v3.5c0.1-0.5,0.3-0.9,0.6-1.3c0.2-0.5,0.6-0.9,0.9-1.2c0.4-0.4,0.8-0.6,1.3-0.9
			c0.5-0.2,1.1-0.4,1.6-0.4v0.5h-0.1c-0.6,0-1.3,0.2-1.8,0.5c-0.5,0.3-1,0.7-1.4,1.2c-0.4,0.5-0.7,1.1-0.9,1.7
			c-0.2,0.5-0.3,1.1-0.3,1.6v5.6h-0.5L39.8,36.3z"/>
		<path class="st0" d="M51.2,47.3c-0.7,0-1.4-0.1-2.1-0.4c-0.6-0.3-1.2-0.7-1.7-1.1c-0.5-0.5-0.9-1.1-1.2-1.8
			c-0.3-0.7-0.4-1.5-0.4-2.3v0c0-0.8,0.1-1.5,0.4-2.2c0.2-0.7,0.6-1.3,1.1-1.8c0.5-0.5,1-0.9,1.6-1.2c0.7-0.3,1.4-0.4,2.1-0.4
			c0.8,0,1.5,0.2,2.2,0.5c0.6,0.3,1.1,0.8,1.6,1.3c0.4,0.6,0.7,1.2,0.9,1.8c0.2,0.7,0.3,1.3,0.3,2v0.1h-9.7c0,0.7,0.2,1.4,0.4,2.1
			c0.3,0.6,0.6,1.1,1.1,1.6c0.4,0.4,1,0.8,1.6,1c0.6,0.2,1.2,0.4,1.9,0.4c0.8,0,1.6-0.2,2.3-0.6c0.7-0.4,1.2-0.9,1.7-1.6l0.4,0.3
			c-0.5,0.7-1.1,1.3-1.8,1.7C53,47.1,52.1,47.3,51.2,47.3z M55.5,41.4c0-0.6-0.1-1.2-0.3-1.8c-0.2-0.6-0.5-1.1-0.9-1.6
			c-0.4-0.5-0.8-0.9-1.4-1.1c-0.6-0.3-1.2-0.4-1.9-0.4c-0.6,0-1.3,0.1-1.9,0.4c-0.5,0.2-1,0.6-1.5,1c-0.4,0.5-0.8,1-1,1.6
			c-0.2,0.6-0.4,1.3-0.4,2L55.5,41.4z"/>
		<path class="st0" d="M63.4,47.3c-2.2,0-4.2-1.4-5-3.4c-0.3-0.7-0.4-1.5-0.4-2.2v0c0-0.8,0.1-1.5,0.4-2.2c0.8-2.1,2.8-3.5,5-3.4
			c0.6,0,1.2,0.1,1.7,0.3c0.5,0.2,1,0.4,1.5,0.8c0.4,0.3,0.8,0.7,1.1,1.1c0.3,0.4,0.5,0.9,0.7,1.4v-8.3h0.5v15.8h-0.4v-3.3
			c-0.2,0.5-0.4,1-0.7,1.4c-0.3,0.4-0.7,0.8-1.1,1.1c-0.4,0.3-0.9,0.6-1.5,0.8C64.6,47.2,64,47.3,63.4,47.3z M63.4,46.9
			c0.7,0,1.4-0.1,2-0.4c0.6-0.3,1.1-0.7,1.6-1.1c0.4-0.5,0.8-1,1-1.7c0.2-0.6,0.4-1.3,0.4-2v0c0-0.7-0.1-1.4-0.4-2
			c-0.5-1.2-1.4-2.2-2.6-2.8c-0.6-0.3-1.3-0.4-2-0.4c-0.7,0-1.4,0.1-2,0.4c-0.6,0.3-1.1,0.6-1.5,1.1c-0.4,0.5-0.8,1-1,1.7
			c-0.2,0.6-0.4,1.3-0.4,2v0c0,0.7,0.1,1.4,0.4,2.1c0.2,0.6,0.6,1.2,1,1.7c0.4,0.5,1,0.9,1.6,1.1C62.1,46.8,62.8,46.9,63.4,46.9
			L63.4,46.9z"/>
		<path class="st0" d="M72.5,31.9h0.7v1.2h-0.7V31.9z M72.6,36.3h0.5v10.8h-0.5L72.6,36.3z"/>
		<path class="st0" d="M80.1,47.3c-0.8,0.1-1.5-0.2-2.1-0.8c-0.5-0.6-0.8-1.4-0.7-2.2v-7.6h-1.7v-0.4h1.7v-3.8h0.5v3.8h4v0.4h-4v7.6
			c0,0.7,0.2,1.4,0.6,1.9c0.4,0.5,1.1,0.7,1.7,0.7c0.6,0,1.1-0.1,1.6-0.4v0.5C81.2,47.1,80.7,47.3,80.1,47.3z"/>
		<rect x="83.6" y="44.5" class="st0" width="2.5" height="2.6"/>
	</g>
</g>
</svg>
