<?xml version="1.0" encoding="utf-8"?>
<!-- Generator: Adobe Illustrator 21.1.0, SVG Export Plug-In . SVG Version: 6.00 Build 0)  -->
<svg version="1.1" id="Capa_1" xmlns="http://www.w3.org/2000/svg" xmlns:xlink="http://www.w3.org/1999/xlink" x="0px" y="0px"
	 viewBox="0 0 113.4 56.7" style="enable-background:new 0 0 113.4 56.7;" xml:space="preserve">
<style type="text/css">
	.st0{fill:#FFFFFF;}
</style>
<g>
	<path class="st0" d="M31.3,21.8c1.5-0.1,3,0.2,4.3,1c1.2,0.8,2,2,2.4,3.3c0.5,1.6,0.4,3.3-0.2,4.8c-0.5,1.3-1.4,2.4-2.6,3.1
		c-1.4,0.8-3.1,1.1-4.7,0.8c-1.5-0.3-2.8-1-3.7-2.2c-1.1-1.4-1.6-3.2-1.5-4.9c0.1-1.6,0.7-3.1,1.8-4.2
		C28.4,22.4,29.8,21.8,31.3,21.8 M31.2,23.6c-0.9,0.2-1.7,0.6-2.2,1.3c-0.8,1.1-1.2,2.4-1.1,3.7c0,1.1,0.4,2.1,1,3
		c0.5,0.6,1.2,1.1,2,1.3c0.9,0.2,1.9,0.1,2.8-0.4c0.8-0.5,1.4-1.2,1.7-2.1c0.5-1.4,0.5-2.9,0-4.3c-0.3-0.8-0.8-1.5-1.5-2
		C33.1,23.7,32.2,23.5,31.2,23.6L31.2,23.6z"/>
	<path class="st0" d="M44.6,22c1-0.3,2.2-0.4,3.2-0.2c0.6,0.1,1.1,0.2,1.7,0.4c-0.1,0.6-0.1,1.3-0.2,1.9c-0.7-0.3-1.5-0.5-2.3-0.5
		c-0.9-0.1-1.8,0.2-2.5,0.7c-0.9,0.7-1.5,1.8-1.7,3c-0.2,1.2,0,2.4,0.4,3.4c0.4,0.8,1,1.4,1.7,1.9c1.4,0.7,3.1,0.6,4.5-0.3
		c0,0.7,0.1,1.4,0.2,2.1c-0.9,0.4-1.9,0.5-2.9,0.5c-1.3,0-2.5-0.3-3.6-1c-0.9-0.6-1.6-1.3-2-2.2c-0.7-1.2-0.9-2.6-0.8-4
		c0.1-1.4,0.6-2.7,1.4-3.8C42.5,23,43.5,22.3,44.6,22z"/>
	<path class="st0" d="M53.9,22.7c1-0.6,2.2-1,3.4-0.9c1,0,2.1,0.2,3,0.8c0.8,0.5,1.4,1.3,1.8,2.2c0.5,1.3,0.8,2.8,0.7,4.2h-9
		c0,2.3,1.8,4.2,4.1,4.2c0.2,0,0.4,0,0.6,0c1-0.1,1.9-0.4,2.8-0.8c0.2-0.1,0.4-0.2,0.6-0.4c0,0.8,0,1.6,0,2.3
		c-0.7,0.3-1.4,0.5-2.1,0.7c-1.2,0.2-2.4,0.2-3.5,0c-1.1-0.2-2.2-0.7-3-1.4c-0.7-0.6-1.2-1.4-1.4-2.3c-0.3-0.9-0.4-1.8-0.4-2.7
		c-0.1-1.1,0.1-2.2,0.6-3.2C52.2,24.2,52.9,23.3,53.9,22.7 M54.7,24.7c-0.6,0.7-0.9,1.6-1,2.5c0.4,0,0.8,0,1.2,0h5.4
		c0-1-0.3-1.9-0.9-2.6c-1.3-1.2-3.3-1.2-4.5,0C54.8,24.6,54.7,24.6,54.7,24.7z"/>
	<path class="st0" d="M70.1,22c0.9-0.3,2-0.3,2.9-0.1c0.8,0.2,1.5,0.5,2.1,1.1c0.5,0.6,0.9,1.2,1,2c0.2,0.7,0.3,1.5,0.3,2.2v7.5
		h-2.3v-5.4c0.1-1.2,0-2.3-0.2-3.5c-0.1-0.7-0.5-1.3-1-1.7c-0.6-0.4-1.3-0.5-1.9-0.4c-0.8,0.1-1.6,0.4-2.1,1.1
		c-0.6,0.7-0.9,1.5-1.1,2.4c-0.1,1.1-0.2,2.1-0.2,3.2c0,1.5,0,2.9,0,4.4h-2.3V22h2.3c0,0.7,0,1.4,0,2c0.1-0.2,0.2-0.3,0.3-0.5
		C68.4,22.8,69.2,22.2,70.1,22z"/>
	<path class="st0" d="M93.4,21.8c1.3-0.1,2.6,0.1,3.8,0.7c0.9,0.5,1.7,1.2,2.2,2c0.6,0.9,0.9,1.9,1,3c0.2,1.4-0.1,2.8-0.7,4.1
		c-0.5,0.9-1.2,1.7-2,2.3c-1.9,1.3-4.3,1.5-6.3,0.5c-1.1-0.5-2-1.2-2.6-2.2c-0.6-0.9-1-2-1.1-3.1c-0.1-1.3,0-2.6,0.6-3.8
		c0.4-1,1.1-1.8,2-2.5C91.2,22.2,92.3,21.8,93.4,21.8 M93.3,23.7c-0.8,0.2-1.5,0.6-2.1,1.2c-0.6,0.8-1,1.7-1.2,2.7
		c-0.2,1.2,0,2.5,0.6,3.6c0.4,0.8,1.2,1.5,2,1.8c1,0.3,2.1,0.2,3.1-0.3c0.7-0.4,1.3-1.1,1.6-1.9c0.5-1.2,0.6-2.5,0.3-3.7
		c-0.2-1-0.7-2-1.5-2.6C95.4,23.7,94.4,23.5,93.3,23.7L93.3,23.7z"/>
	<path class="st0" d="M12.9,22h2.6c1.1,3.4,2.2,6.7,3.3,10.1c0,0.1,0.1,0.2,0.1,0.3c0.4-1.1,0.8-2.2,1.1-3.3c0.8-2.4,1.6-4.7,2.4-7
		h2.3c-1.5,4.2-3,8.5-4.5,12.7h-2.8C15.9,30.5,14.4,26.2,12.9,22z"/>
	<path class="st0" d="M77.7,22h8.5v1.9h-3.3c0,2.3,0,4.7,0,7c0,0.7,0.3,1.3,0.7,1.7c0.3,0.3,0.7,0.4,1.2,0.4c0.6,0,1.1-0.1,1.6-0.4
		c0,0.7,0,1.3,0,2C85.7,34.9,85,35,84.2,35c-0.6,0-1.3-0.1-1.9-0.4c-0.6-0.3-1.1-0.7-1.4-1.3c-0.3-0.6-0.4-1.2-0.4-1.9
		c0-2.5,0-5,0-7.5h-2.8V22z"/>
</g>
</svg>
