<?xml version="1.0" encoding="utf-8"?>
<!-- Generator: Adobe Illustrator 21.1.0, SVG Export Plug-In . SVG Version: 6.00 Build 0)  -->
<svg version="1.1" id="Layer_1" xmlns="http://www.w3.org/2000/svg" xmlns:xlink="http://www.w3.org/1999/xlink" x="0px" y="0px"
	 viewBox="0 0 40 40" style="enable-background:new 0 0 40 40;" xml:space="preserve">
<style type="text/css">
	.st0{fill:#FFFFFF;}
</style>
<title>cruz</title>
<path class="st0" d="M25.2,20L38.9,6.3c1.4-1.4,1.4-3.8,0-5.2c-1.4-1.4-3.8-1.4-5.2,0L20,14.8L6.3,1.1c-1.4-1.4-3.8-1.4-5.2,0
	c-1.4,1.4-1.4,3.8,0,5.2L14.8,20L1.1,33.7c-1.4,1.4-1.4,3.8,0,5.2C1.8,39.6,2.7,40,3.7,40s1.9-0.4,2.6-1.1L20,25.2l13.7,13.7
	c0.7,0.7,1.7,1.1,2.6,1.1c0.9,0,1.9-0.4,2.6-1.1c1.4-1.4,1.4-3.8,0-5.2L25.2,20z"/>
</svg>
