<svg id="Layer_1" data-name="Layer 1" xmlns="http://www.w3.org/2000/svg" viewBox="0 0 289.51 169.02"><defs><style>.cls-1{fill:#0046b3;}.cls-2{fill:#fff;}</style></defs><title>demos</title><path class="cls-1" d="M235.44,154.54H45.74V42.12a14.21,14.21,0,0,1,14.2-14.2H221.24a14.21,14.21,0,0,1,14.2,14.2ZM50.51,149.77H230.66V42.12a9.43,9.43,0,0,0-9.42-9.42H59.93a9.43,9.43,0,0,0-9.42,9.42Z"/><path class="cls-1" d="M259.94,168.3H21.24a5.58,5.58,0,0,1,0-11.15h238.7a5.58,5.58,0,1,1,0,11.15Zm-238.7-6.38a.8.8,0,0,0,0,1.61h238.7a.8.8,0,1,0,0-1.61Z"/><path class="cls-2" d="M158.51,62.84c-.15.34-.4,1-.73,1.63q-11.93,23-23.87,46c-1.66,3.19-3.3,6.39-5,9.58a2.31,2.31,0,0,1-3,1.4,1.88,1.88,0,0,1-1.59-2.44,7,7,0,0,1,.64-1.52q14.34-27.64,28.69-55.27a6.31,6.31,0,0,1,.89-1.39,2.29,2.29,0,0,1,2.61-.46A2.41,2.41,0,0,1,158.51,62.84Z"/><path class="cls-2" d="M170.35,91.52c-.49-.43-.88-.81-1.3-1.14l-9.81-7.94a11.27,11.27,0,0,1-1-.85,2.19,2.19,0,0,1-.25-3,2.41,2.41,0,0,1,3-.67,4.72,4.72,0,0,1,.81.57c4.48,3.62,8.95,7.25,13.44,10.85a2.46,2.46,0,0,1,1.1,2.73,3.88,3.88,0,0,1-1.23,1.69c-2.85,2.37-5.75,4.68-8.64,7l-4.78,3.87a2.45,2.45,0,0,1-2.75.54,2.22,2.22,0,0,1-.82-3.58,8.52,8.52,0,0,1,1.12-1l9.68-7.83C169.36,92.4,169.8,92,170.35,91.52Z"/><path class="cls-2" d="M111.46,91.53l7.77,6.28c1.46,1.19,3,2.33,4.37,3.57a2.17,2.17,0,0,1,.36,3,2.37,2.37,0,0,1-3.1.69,7.74,7.74,0,0,1-1.06-.79L109.59,96c-1-.8-2-1.58-3-2.4-1.54-1.31-1.57-2.95,0-4.22,4.54-3.71,9.12-7.39,13.68-11.08a2.49,2.49,0,0,1,2.47-.56,2.24,2.24,0,0,1,1.08,3.61,7.57,7.57,0,0,1-1.11,1l-9.55,7.73C112.65,90.52,112.16,90.95,111.46,91.53Z"/><circle class="cls-1" cx="28.6" cy="42.32" r="2.18"/><circle class="cls-1" cx="26.42" cy="66.32" r="2.18"/><path class="cls-1" d="M15.51,48.86h0a2.18,2.18,0,0,1-2.18-2.18h0a2.18,2.18,0,0,0-2.18-2.18h0A2.18,2.18,0,0,0,9,46.68H9a2.18,2.18,0,0,1-2.18,2.18h0A2.18,2.18,0,0,0,4.6,51h0a2.18,2.18,0,0,0,2.18,2.18h0A2.18,2.18,0,0,1,9,55.41H9a2.18,2.18,0,0,0,2.18,2.18h0a2.18,2.18,0,0,0,2.18-2.18h0a2.18,2.18,0,0,1,2.18-2.18h0A2.18,2.18,0,0,0,17.7,51h0A2.18,2.18,0,0,0,15.51,48.86Z"/><path class="cls-1" d="M38.06,23.41h0A1.45,1.45,0,0,1,36.6,22h0a1.45,1.45,0,0,0-1.45-1.45h0A1.45,1.45,0,0,0,33.7,22h0a1.45,1.45,0,0,1-1.45,1.45h0a1.45,1.45,0,0,0-1.45,1.45h0a1.45,1.45,0,0,0,1.45,1.45h0a1.45,1.45,0,0,1,1.45,1.45h0a1.45,1.45,0,0,0,1.45,1.45h0a1.45,1.45,0,0,0,1.45-1.45h0a1.45,1.45,0,0,1,1.45-1.45h0a1.45,1.45,0,0,0,1.45-1.45h0A1.45,1.45,0,0,0,38.06,23.41Z"/><circle class="cls-1" cx="270.22" cy="110.91" r="2.41"/><circle class="cls-1" cx="287.1" cy="125.38" r="2.41"/><circle class="cls-1" cx="250.93" cy="122.97" r="2.41"/><circle class="cls-1" cx="282.28" cy="156.74" r="2.41"/><path class="cls-1" d="M273,134.23h0a2,2,0,0,1-2-2h0a2,2,0,0,0-2-2h0a2,2,0,0,0-2,2h0a2,2,0,0,1-2,2h0a2,2,0,0,0-2,2h0a2,2,0,0,0,2,2h0a2,2,0,0,1,2,2h0a2,2,0,0,0,2,2h0a2,2,0,0,0,2-2h0a2,2,0,0,1,2-2h0a2,2,0,0,0,2-2h0A2,2,0,0,0,273,134.23Z"/></svg>