<svg id="Layer_1" data-name="Layer 1" xmlns="http://www.w3.org/2000/svg" viewBox="0 0 289.51 169.02"><defs><style>.cls-1{fill:#0046b3;}.cls-2{fill:#fff;}</style></defs><title>demos</title><path class="cls-1" d="M236,155H46.34V42.62a14.21,14.21,0,0,1,14.2-14.2H221.85A14.21,14.21,0,0,1,236,42.62ZM51.11,150.27H231.27V42.62a9.43,9.43,0,0,0-9.42-9.42H60.54a9.43,9.43,0,0,0-9.42,9.42Z"/><path class="cls-1" d="M260.54,168.8H21.84a5.58,5.58,0,0,1,0-11.15h238.7a5.58,5.58,0,1,1,0,11.15Zm-238.7-6.38a.8.8,0,0,0,0,1.61h238.7a.8.8,0,1,0,0-1.61Z"/><path class="cls-2" d="M180.12,56.71a2.66,2.66,0,0,0-.19-1l0-.06a2.66,2.66,0,0,0-1.44-1.42,2.71,2.71,0,0,0-1-.2H159.56a2.66,2.66,0,1,0,0,5.32H171L151.92,78.49a2.66,2.66,0,0,0,0,3.76,2.72,2.72,0,0,0,3.76,0L174.8,63.13V74.61a2.66,2.66,0,0,0,5.32,0Z"/><path class="cls-2" d="M132.37,100.66a2.66,2.66,0,0,0-3.76,0l-19.27,19.27V108.45a2.66,2.66,0,1,0-5.32,0v17.89a2.76,2.76,0,0,0,.63,1.73h.1l.11.21a2.62,2.62,0,0,0,.81.52,2.75,2.75,0,0,0,1,.2h17.9a2.66,2.66,0,1,0,0-5.32H113.1l19.26-19.27a2.66,2.66,0,0,0,0-3.76Z"/><circle class="cls-1" cx="257.34" cy="36.11" r="2.78"/><circle class="cls-1" cx="251.78" cy="13.89" r="2.78"/><path class="cls-1" d="M224,5.56h0a2.78,2.78,0,0,1-2.78-2.78h0A2.78,2.78,0,0,0,218.45,0h0a2.78,2.78,0,0,0-2.78,2.78h0a2.78,2.78,0,0,1-2.78,2.78h0a2.78,2.78,0,0,0-2.78,2.78h0a2.78,2.78,0,0,0,2.78,2.78h0a2.78,2.78,0,0,1,2.78,2.78h0a2.78,2.78,0,0,0,2.78,2.78h0a2.78,2.78,0,0,0,2.78-2.78h0A2.78,2.78,0,0,1,224,11.11h0a2.78,2.78,0,0,0,2.78-2.78h0A2.78,2.78,0,0,0,224,5.56Z"/><circle class="cls-1" cx="21.18" cy="93.12" r="2.12"/><circle class="cls-1" cx="21.18" cy="124.88" r="2.12"/><path class="cls-1" d="M10.59,107.94h0a2.12,2.12,0,0,1-2.12-2.12h0a2.12,2.12,0,0,0-2.12-2.12h0a2.12,2.12,0,0,0-2.12,2.12h0a2.12,2.12,0,0,1-2.12,2.12h0A2.12,2.12,0,0,0,0,110.06H0a2.12,2.12,0,0,0,2.12,2.12h0a2.12,2.12,0,0,1,2.12,2.12h0a2.12,2.12,0,0,0,2.12,2.12h0a2.12,2.12,0,0,0,2.12-2.12h0a2.12,2.12,0,0,1,2.12-2.12h0a2.12,2.12,0,0,0,2.12-2.12h0A2.12,2.12,0,0,0,10.59,107.94Z"/></svg>