<svg id="Layer_1" data-name="Layer 1" xmlns="http://www.w3.org/2000/svg" viewBox="0 0 289.51 169.02"><defs><style>.cls-1{fill:#0046b3;}.cls-2{fill:#fff;}</style></defs><title>demos</title><path class="cls-1" d="M235.91,155.26H46.21V42.83a14.21,14.21,0,0,1,14.2-14.2H221.71a14.21,14.21,0,0,1,14.2,14.2ZM51,150.49H231.14V42.83a9.43,9.43,0,0,0-9.42-9.42H60.4A9.43,9.43,0,0,0,51,42.83Z"/><path class="cls-1" d="M260.41,169H21.71a5.58,5.58,0,0,1,0-11.15h238.7a5.58,5.58,0,1,1,0,11.15Zm-238.7-6.38a.8.8,0,0,0,0,1.61h238.7a.8.8,0,1,0,0-1.61Z"/><path class="cls-2" d="M175.92,116.28H105.84a9.08,9.08,0,0,1-9.07-9.07V75.77a9.08,9.08,0,0,1,9.07-9.07h70.07A9.08,9.08,0,0,1,185,75.77v31.44A9.08,9.08,0,0,1,175.92,116.28ZM105.84,70.59a5.19,5.19,0,0,0-5.18,5.18v31.44a5.19,5.19,0,0,0,5.18,5.18h70.07a5.19,5.19,0,0,0,5.18-5.18V75.77a5.19,5.19,0,0,0-5.18-5.18Z"/><path class="cls-2" d="M137.36,84.37H110.17a.73.73,0,1,1,0-1.46h27.19a.73.73,0,1,1,0,1.46Z"/><path class="cls-2" d="M171.59,92.22H110.17a.73.73,0,1,1,0-1.46h61.43a.73.73,0,1,1,0,1.46Z"/><path class="cls-2" d="M141.57,100.07h-31.4a.73.73,0,1,1,0-1.46h31.4a.73.73,0,1,1,0,1.46Z"/><path class="cls-2" d="M171.59,84.37H144.4a.73.73,0,0,1,0-1.46h27.19a.73.73,0,1,1,0,1.46Z"/><circle class="cls-1" cx="34.84" cy="42.63" r="2.57"/><circle class="cls-1" cx="50.26" cy="14.36" r="2.57"/><path class="cls-1" d="M30.55,22.92h0a1.71,1.71,0,0,1-1.71-1.71h0a1.71,1.71,0,0,0-1.71-1.71h0a1.71,1.71,0,0,0-1.71,1.71h0a1.71,1.71,0,0,1-1.71,1.71h0A1.71,1.71,0,0,0,22,24.64h0a1.71,1.71,0,0,0,1.71,1.71h0a1.71,1.71,0,0,1,1.71,1.71h0a1.71,1.71,0,0,0,1.71,1.71h0a1.71,1.71,0,0,0,1.71-1.71h0a1.71,1.71,0,0,1,1.71-1.71h0a1.71,1.71,0,0,0,1.71-1.71h0A1.71,1.71,0,0,0,30.55,22.92Z"/><circle class="cls-1" cx="268.65" cy="122.21" r="2.67"/><circle class="cls-1" cx="279.32" cy="92.88" r="2.67"/><circle class="cls-1" cx="257.99" cy="103.55" r="2.67"/><path class="cls-1" d="M263.32,71.55h0a2.67,2.67,0,0,1-2.67-2.67h0A2.67,2.67,0,0,0,258,66.21h0a2.67,2.67,0,0,0-2.67,2.67h0a2.67,2.67,0,0,1-2.67,2.67h0A2.67,2.67,0,0,0,250,74.21h0a2.67,2.67,0,0,0,2.67,2.67h0a2.67,2.67,0,0,1,2.67,2.67h0A2.67,2.67,0,0,0,258,82.21h0a2.67,2.67,0,0,0,2.67-2.67h0a2.67,2.67,0,0,1,2.67-2.67h0A2.67,2.67,0,0,0,266,74.21h0A2.67,2.67,0,0,0,263.32,71.55Z"/></svg>