<?xml version="1.0" encoding="utf-8"?>
<!-- Generator: Adobe Illustrator 21.1.0, SVG Export Plug-In . SVG Version: 6.00 Build 0)  -->
<svg version="1.1" id="Layer_1" xmlns="http://www.w3.org/2000/svg" xmlns:xlink="http://www.w3.org/1999/xlink" x="0px" y="0px"
	 viewBox="0 0 31.3 29.5" style="enable-background:new 0 0 31.3 29.5;" xml:space="preserve">
<style type="text/css">
	.st0{fill:url(#SVGID_1_);}
	.st1{fill:url(#SVGID_2_);}
	.st2{fill:url(#SVGID_3_);}
</style>
<title>menu</title>
<g>
	<linearGradient id="SVGID_1_" gradientUnits="userSpaceOnUse" x1="27.5477" y1="5.6275" x2="2.2144" y2="20.1275">
		<stop  offset="0" style="stop-color:#006DFF"/>
		<stop  offset="1" style="stop-color:#43D2F1"/>
	</linearGradient>
	<path class="st0" d="M10.7,7.3c-0.3-0.1-0.6-0.1-0.8,0.1l-8.2,6.4l-0.5,0.4c-0.2,0.1-0.3,0.4-0.3,0.6v1.3c0,0.2,0.1,0.4,0.3,0.6
		l8.4,6.5l0.4,0.3c0.1,0.1,0.3,0.2,0.5,0.2c0.1,0,0.2,0,0.3-0.1c0.3-0.1,0.4-0.4,0.4-0.7v-3.3c0-0.2-0.1-0.5-0.3-0.6l-4.5-3.5
		l4.5-3.5c0.2-0.1,0.3-0.4,0.3-0.6V8C11.2,7.7,11,7.5,10.7,7.3z"/>
	<linearGradient id="SVGID_2_" gradientUnits="userSpaceOnUse" x1="28.8415" y1="7.8878" x2="3.5081" y2="22.3878">
		<stop  offset="0" style="stop-color:#006DFF"/>
		<stop  offset="1" style="stop-color:#43D2F1"/>
	</linearGradient>
	<path class="st1" d="M19.3,4.6h-2.7c-0.4,0-0.7,0.3-0.7,0.6l-4.4,19.3l-0.2,0.7c0,0.2,0,0.5,0.1,0.6c0.1,0.2,0.4,0.3,0.6,0.3h2.7
		c0.4,0,0.7-0.3,0.7-0.6l4.4-19.3L20,5.6c0-0.2,0-0.5-0.1-0.6C19.7,4.7,19.5,4.6,19.3,4.6z"/>
	<linearGradient id="SVGID_3_" gradientUnits="userSpaceOnUse" x1="30.1351" y1="10.148" x2="4.8018" y2="24.648">
		<stop  offset="0" style="stop-color:#006DFF"/>
		<stop  offset="1" style="stop-color:#43D2F1"/>
	</linearGradient>
	<path class="st2" d="M30.1,14.2l-8.4-6.5l-0.4-0.3c-0.2-0.2-0.5-0.2-0.8-0.1c-0.3,0.1-0.4,0.4-0.4,0.7v3.3c0,0.2,0.1,0.4,0.3,0.6
		l4.5,3.5L20.4,19c-0.2,0.1-0.3,0.4-0.3,0.6v3.3c0,0.3,0.2,0.5,0.4,0.7c0.1,0.1,0.2,0.1,0.3,0.1c0.2,0,0.3-0.1,0.5-0.2l8.2-6.4
		l0.5-0.4c0.2-0.1,0.3-0.4,0.3-0.6v-1.3C30.4,14.6,30.3,14.4,30.1,14.2z"/>
</g>
</svg>
