<?xml version="1.0" encoding="utf-8"?>
<!-- Generator: Adobe Illustrator 21.1.0, SVG Export Plug-In . SVG Version: 6.00 Build 0)  -->
<svg version="1.1" id="Layer_1" xmlns="http://www.w3.org/2000/svg" xmlns:xlink="http://www.w3.org/1999/xlink" x="0px" y="0px"
	 viewBox="0 0 31.3 29.5" style="enable-background:new 0 0 31.3 29.5;" xml:space="preserve">
<style type="text/css">
	.st0{fill:url(#SVGID_1_);}
	.st1{fill:url(#SVGID_2_);}
	.st2{fill:url(#SVGID_3_);}
	.st3{fill:url(#SVGID_4_);}
</style>
<title>menu</title>
<g>
	<linearGradient id="SVGID_1_" gradientUnits="userSpaceOnUse" x1="27.5084" y1="2.2573" x2="15.175" y2="21.924">
		<stop  offset="0" style="stop-color:#006DFF"/>
		<stop  offset="1" style="stop-color:#43D2F1"/>
	</linearGradient>
	<path class="st0" d="M29.6,15.7c0-0.4-0.3-0.8-0.7-0.9L10.7,8.5c-0.4-0.1-0.8,0-1.1,0.2S9.3,9.5,9.4,9.8L15.7,28
		c0.1,0.4,0.5,0.7,0.9,0.7c0,0,0.1,0,0.1,0c0.4,0,0.7-0.2,0.9-0.5l2.6-4.9l3.4,3.4c0.2,0.2,0.4,0.3,0.7,0.3l0,0
		c0.3,0,0.5-0.1,0.7-0.3l2.5-2.5c0.2-0.2,0.3-0.4,0.3-0.7c0-0.3-0.1-0.5-0.3-0.7l-3.4-3.4l4.9-2.6C29.4,16.5,29.6,16.2,29.6,15.7z"
		/>
	<linearGradient id="SVGID_2_" gradientUnits="userSpaceOnUse" x1="12.904" y1="-6.9014" x2="0.5706" y2="12.7653">
		<stop  offset="0" style="stop-color:#006DFF"/>
		<stop  offset="1" style="stop-color:#43D2F1"/>
	</linearGradient>
	<path class="st1" d="M5.3,2.9c-0.4-0.4-1.1-0.4-1.4,0C3.4,3.3,3.4,4,3.8,4.4L6,6.5c0.2,0.2,0.5,0.3,0.7,0.3c0.2,0,0.5-0.1,0.7-0.3
		c0.4-0.4,0.4-1.1,0-1.4L5.3,2.9z"/>
	<linearGradient id="SVGID_3_" gradientUnits="userSpaceOnUse" x1="16.9242" y1="-4.3802" x2="4.5909" y2="15.2865">
		<stop  offset="0" style="stop-color:#006DFF"/>
		<stop  offset="1" style="stop-color:#43D2F1"/>
	</linearGradient>
	<path class="st2" d="M11.3,5.4c0.1,0.5,0.5,0.8,1,0.8c0.1,0,0.1,0,0.2,0C13,6,13.4,5.5,13.3,4.9l-0.6-3.3c-0.1-0.5-0.7-0.9-1.2-0.8
		c-0.5,0.1-0.9,0.7-0.8,1.2L11.3,5.4z"/>
	<linearGradient id="SVGID_4_" gradientUnits="userSpaceOnUse" x1="14.9235" y1="-5.6348" x2="2.5902" y2="14.0318">
		<stop  offset="0" style="stop-color:#006DFF"/>
		<stop  offset="1" style="stop-color:#43D2F1"/>
	</linearGradient>
	<path class="st3" d="M6.2,10.4L3,9.8c-0.5-0.1-1.1,0.3-1.2,0.8c-0.1,0.5,0.3,1.1,0.8,1.2l3.3,0.6c0.1,0,0.1,0,0.2,0
		c0.5,0,0.9-0.3,1-0.8C7.2,11,6.8,10.5,6.2,10.4z"/>
</g>
</svg>
