<?xml version="1.0" encoding="utf-8"?>
<!-- Generator: Adobe Illustrator 21.1.0, SVG Export Plug-In . SVG Version: 6.00 Build 0)  -->
<svg version="1.1" id="Layer_1" xmlns="http://www.w3.org/2000/svg" xmlns:xlink="http://www.w3.org/1999/xlink" x="0px" y="0px"
	 viewBox="0 0 31.3 29.5" style="enable-background:new 0 0 31.3 29.5;" xml:space="preserve">
<style type="text/css">
	.st0{fill:url(#SVGID_1_);}
</style>
<title>menu</title>
<linearGradient id="SVGID_1_" gradientUnits="userSpaceOnUse" x1="24.6334" y1="5.579" x2="2.3001" y2="29.2456">
	<stop  offset="0" style="stop-color:#006DFF"/>
	<stop  offset="1" style="stop-color:#43D2F1"/>
</linearGradient>
<path class="st0" d="M15.6,0.6c-8,0-14.5,6.5-14.5,14.5c0,6.4,4.2,11.8,9.9,13.8c0.7,0.1,1-0.3,1-0.7v-2.7c-4,0.9-4.9-1.7-4.9-1.7
	c-0.7-1.7-1.6-2.1-1.6-2.1c-1.3-0.9,0.1-0.9,0.1-0.9c1.5,0.1,2.2,1.5,2.2,1.5c1.3,2.2,3.4,1.6,4.2,1.2c0.1-0.9,0.5-1.6,0.9-1.9
	c-3.2-0.4-6.6-1.6-6.6-7.2c0-1.6,0.6-2.9,1.5-3.9C7.7,10.1,7.2,8.6,8,6.6c0,0,1.2-0.4,4,1.5c1.2-0.3,2.4-0.5,3.6-0.5
	c1.2,0,2.5,0.2,3.6,0.5c2.8-1.9,4-1.5,4-1.5c0.8,2,0.3,3.5,0.1,3.8c0.9,1,1.5,2.3,1.5,3.9c0,5.6-3.4,6.8-6.6,7.2
	c0.5,0.4,1,1.3,1,2.7v4c0,0.4,0.2,0.8,1,0.7c5.8-1.9,9.9-7.4,9.9-13.8C30.1,7.1,23.7,0.6,15.6,0.6z"/>
</svg>
