<?xml version="1.0" encoding="utf-8"?>
<!-- Generator: Adobe Illustrator 21.1.0, SVG Export Plug-In . SVG Version: 6.00 Build 0)  -->
<svg version="1.1" id="Layer_1" xmlns="http://www.w3.org/2000/svg" xmlns:xlink="http://www.w3.org/1999/xlink" x="0px" y="0px"
	 viewBox="0 0 31.3 29.5" style="enable-background:new 0 0 31.3 29.5;" xml:space="preserve">
<style type="text/css">
	.st0{fill:url(#SVGID_1_);}
</style>
<title>menu</title>
<g transform="translate(0,-952.36218)">
	<linearGradient id="SVGID_1_" gradientUnits="userSpaceOnUse" x1="27.0933" y1="957.8578" x2="4.4266" y2="978.5245">
		<stop  offset="0" style="stop-color:#006DFF"/>
		<stop  offset="1" style="stop-color:#43D2F1"/>
	</linearGradient>
	<path class="st0" d="M7.2,956v19.9c0,1.3-1.1,2.4-2.4,2.4h20.9c1.3,0,2.4-1.1,2.4-2.4V956H7.2z M10.6,959.3h6.8v4.7h-6.8V959.3z
		 M20,959.3h4.7c0.4,0,0.7,0.3,0.7,0.7c0,0.4-0.3,0.7-0.7,0.7H20c-0.4,0-0.7-0.3-0.7-0.7C19.4,959.6,19.7,959.3,20,959.3z
		 M3.1,968.1v7.8c0,0.9,0.7,1.7,1.7,1.7s1.7-0.7,1.7-1.7v-7.8H3.1z M20,962.7h4.7c0.4,0,0.7,0.3,0.7,0.7c0,0.4-0.3,0.7-0.7,0.7H20
		c-0.4,0-0.7-0.3-0.7-0.7C19.4,963,19.7,962.7,20,962.7z M10.6,966.8h14.2c0.4,0,0.7,0.3,0.7,0.7s-0.3,0.7-0.7,0.7H10.6
		c-0.4,0-0.7-0.3-0.7-0.7S10.2,966.8,10.6,966.8z M10.6,970.5h14.2c0.4,0,0.7,0.3,0.7,0.7s-0.3,0.7-0.7,0.7H10.6
		c-0.4,0-0.7-0.3-0.7-0.7S10.2,970.5,10.6,970.5z M10.6,974.2h14.2c0.4,0,0.7,0.3,0.7,0.7s-0.3,0.7-0.7,0.7H10.6
		c-0.4,0-0.7-0.3-0.7-0.7S10.2,974.2,10.6,974.2z"/>
</g>
</svg>
