<?xml version="1.0" encoding="utf-8"?>
<!-- Generator: Adobe Illustrator 21.1.0, SVG Export Plug-In . SVG Version: 6.00 Build 0)  -->
<svg version="1.1" id="Layer_1" xmlns="http://www.w3.org/2000/svg" xmlns:xlink="http://www.w3.org/1999/xlink" x="0px" y="0px"
	 viewBox="0 0 31.3 29.5" style="enable-background:new 0 0 31.3 29.5;" xml:space="preserve">
<style type="text/css">
	.st0{fill:url(#SVGID_1_);}
</style>
<title>menu</title>
<linearGradient id="SVGID_1_" gradientUnits="userSpaceOnUse" x1="27.6055" y1="4.0451" x2="5.2722" y2="27.7118">
	<stop  offset="0" style="stop-color:#006DFF"/>
	<stop  offset="1" style="stop-color:#43D2F1"/>
</linearGradient>
<path class="st0" d="M28.6,14.7v7.8c0,2.2-1.7,3.9-3.9,3.9H6.5c-2.2,0-3.9-1.7-3.9-3.9v-7.8C3.8,15.6,5.1,16,6.5,16h18.2
	C26.2,16,27.5,15.6,28.6,14.7z M2.6,10.2C3,8.4,4.6,6.9,6.5,6.9h3.9c0-2.2,1.7-3.9,3.9-3.9h2.6c2.2,0,3.9,1.7,3.9,3.9h3.9
	c1.9,0,3.6,1.3,3.9,3.2c-0.3,1.9-2,3.2-3.9,3.2H6.5C4.6,13.4,3,12,2.6,10.2z M13,6.9h5.2c0-0.8-0.5-1.3-1.3-1.3h-2.6
	C13.6,5.6,13,6.2,13,6.9z"/>
</svg>
