<?xml version="1.0" encoding="utf-8"?>
<!-- Generator: Adobe Illustrator 21.1.0, SVG Export Plug-In . SVG Version: 6.00 Build 0)  -->
<svg version="1.1" id="Layer_1" xmlns="http://www.w3.org/2000/svg" xmlns:xlink="http://www.w3.org/1999/xlink" x="0px" y="0px"
	 viewBox="0 0 31.3 29.5" style="enable-background:new 0 0 31.3 29.5;" xml:space="preserve">
<style type="text/css">
	.st0{fill:url(#SVGID_1_);}
</style>
<title>menu</title>
<linearGradient id="SVGID_1_" gradientUnits="userSpaceOnUse" x1="23.5782" y1="11.165" x2="5.4116" y2="25.3317">
	<stop  offset="0" style="stop-color:#006DFF"/>
	<stop  offset="1" style="stop-color:#43D2F1"/>
</linearGradient>
<path class="st0" d="M29.6,22.6V25h-28v-3.7c0.1-0.7,0.5-1.4,1.2-1.7c0.6-0.3,1.2-0.5,1.8-0.7c0,0,1.9-0.5,2.8-1l0.1,0
	c0.2-0.1,0.3-0.3,0.3-0.6v-1.1c-3,0-3.9-1.3-3.9-1.3s1.7,0,1.6-4.5c-0.1-4.5,2-5.3,2.8-5.6c2.3-0.9,3.4,0.5,3.4,0.5
	c2.6-0.2,3.3,2.6,3,5.9s1.5,3.8,1.5,3.8c-1.2,1.3-3.8,1.2-3.8,1.2v0.3l0,0v0.9c0,0.2,0.1,0.4,0.3,0.6l0.1,0c0.9,0.5,2.8,1,2.8,1
	c0.4,0.1,0.7,0.2,1,0.3c0.9-0.6,1.6-0.9,1.9-1c0.1,0,0.1-0.1,0.1-0.1v-1.6c-0.2-0.4-0.4-0.8-0.5-1.3c-0.2,0-0.4-0.3-0.7-1.2
	c-0.4-1.2,0-1.4,0.3-1.4c-0.1-0.2-0.1-0.3-0.1-0.5l0,0c-0.1-0.5-0.1-1.1,0-1.6c0.2-0.6,0.5-1.2,1-1.7c0.3-0.3,0.6-0.5,0.9-0.7
	c0.3-0.2,0.6-0.3,0.9-0.4l0,0c0.2-0.1,0.5-0.1,0.8-0.1c0.7-0.1,1.4,0.1,2,0.4c0.4,0.2,0.7,0.5,1,0.9c0,0,1.6,0.1,1,3.3
	c0,0.2-0.1,0.3-0.1,0.5c0.3,0,0.7,0.2,0.3,1.4c-0.3,0.9-0.5,1.2-0.7,1.2c-0.1,0.5-0.2,0.9-0.5,1.3v1.6c0,0.1,0,0.1,0.1,0.1
	c1.7,0.9,3.4,1.9,4.9,3.1C29.4,21.7,29.6,22.1,29.6,22.6z"/>
</svg>
