<?xml version="1.0" encoding="utf-8"?>
<!-- Generator: Adobe Illustrator 21.1.0, SVG Export Plug-In . SVG Version: 6.00 Build 0)  -->
<svg version="1.1" id="Layer_1" xmlns="http://www.w3.org/2000/svg" xmlns:xlink="http://www.w3.org/1999/xlink" x="0px" y="0px"
	 viewBox="0 0 31.3 29.5" style="enable-background:new 0 0 31.3 29.5;" xml:space="preserve">
<style type="text/css">
	.st0{fill:url(#SVGID_1_);}
</style>
<title>menu</title>
<g transform="translate(0,-952.36218)">
	<linearGradient id="SVGID_1_" gradientUnits="userSpaceOnUse" x1="27.5636" y1="959.2114" x2="1.8969" y2="976.2114">
		<stop  offset="0" style="stop-color:#006DFF"/>
		<stop  offset="1" style="stop-color:#43D2F1"/>
	</linearGradient>
	<path class="st0" d="M1.6,957.9L1.6,957.9L1.6,957.9L1.6,957.9z M3.1,957.9l12.6,11.4l12.6-11.4C28.2,957.9,3.1,957.9,3.1,957.9z
		 M29.6,957.9L29.6,957.9L29.6,957.9L29.6,957.9z M1.6,959.1V975l8.5-8.2L1.6,959.1z M29.6,959.1l-8.5,7.7l8.5,8.2V959.1z
		 M11.5,968.1L3,976.3h25.2l-8.5-8.2l-3.5,3.2c-0.4,0.3-0.9,0.3-1.3,0L11.5,968.1z M1.6,976.3L1.6,976.3L1.6,976.3L1.6,976.3z
		 M29.6,976.3L29.6,976.3L29.6,976.3L29.6,976.3z"/>
</g>
</svg>
