<svg xmlns="http://www.w3.org/2000/svg" width="111.339" height="110.014" viewBox="0 0 111.339 110.014">
    <defs>
        <linearGradient id="linear-gradient" x1=".5" x2=".5" y2="1" gradientUnits="objectBoundingBox">
            <stop offset="0" stop-color="#006dff"/>
            <stop offset="1" stop-color="#43d2f1"/>
        </linearGradient>
        <style>
            .cls-2{fill:url(#linear-gradient)}
        </style>
    </defs>
    <g id="Grupo_11818" transform="translate(-.031)">
        <ellipse id="Elipse_19" cx="55.67" cy="55.007" fill="#fff" rx="55.67" ry="55.007" transform="translate(.031)"/>
        <g id="icono-soluciones-01" transform="translate(-33.745 -29.173)">
            <path id="Trazado_4" d="M69.91 64.37a2.3 2.3 0 0 0-2.3 2.3v36.769a2.3 2.3 0 1 0 4.6 0V66.67a2.3 2.3 0 0 0-2.3-2.3z" class="cls-2" transform="translate(-3.964 -3.198)"/>
            <path id="Trazado_6" d="M113.28 49.68H61.538c-4.758 0-8.614 4.117-8.618 9.192v46a9.115 9.115 0 0 0 6.469 8.895v2.605a2.161 2.161 0 1 0 4.313 0v-2.292h47.43v2.3a2.161 2.161 0 1 0 4.313 0v-2.605a9.114 9.114 0 0 0 6.476-8.9v-46c-.005-5.087-3.874-9.204-8.641-9.195zm4.305 55.192a4.463 4.463 0 0 1-4.305 4.592H61.538a4.463 4.463 0 0 1-4.305-4.592v-46a4.463 4.463 0 0 1 4.305-4.592h51.75a4.463 4.463 0 0 1 4.305 4.592z" class="cls-2"/>
            <path id="Trazado_7" d="M121.126 88.007c-1.885-2.7-1.885-3.2 0-5.9l.149-.25a6.923 6.923 0 0 0 .164-7.143 6.853 6.853 0 0 0-6.258-3.434h-.305c-3.286.282-3.708 0-5.109-2.949l-.133-.25a6.869 6.869 0 0 0-12.22 0l-.141.25c-1.393 2.981-1.823 3.231-5.109 2.949h-.3a6.877 6.877 0 0 0-6.11 10.569l.156.258c1.885 2.7 1.885 3.2 0 5.9l-.156.25a6.877 6.877 0 0 0 6.1 10.577h.3c3.294-.282 3.716 0 5.109 2.949l.141.25a6.877 6.877 0 0 0 12.22 0l.141-.258c1.4-2.981 1.823-3.231 5.109-2.949h.3a6.877 6.877 0 0 0 6.11-10.569zm-3.669 5.1a2.245 2.245 0 0 1-2.19 1.127h-.258c-4.921-.376-7.158.915-9.3 5.374l-.117.219a2.347 2.347 0 0 1-4.154 0l-.117-.219c-2.136-4.459-4.373-5.75-9.294-5.382h-.258a2.277 2.277 0 0 1-2.069-3.551l.133-.219c2.785-4.076 2.785-6.65 0-10.733L89.7 79.5a2.277 2.277 0 0 1 2.073-3.591h.25c4.944.383 7.158-.915 9.3-5.374l.11-.211a2.347 2.347 0 0 1 4.154 0l.11.211c2.136 4.467 4.357 5.766 9.3 5.382h.258a2.277 2.277 0 0 1 2.073 3.591l-.133.219c-2.785 4.076-2.785 6.657 0 10.733l.141.219a2.277 2.277 0 0 1 .117 2.433z" class="cls-2" transform="translate(-9.753 -3.672)"/>
            <circle id="Elipse_2" cx="9" cy="9" r="9" class="cls-2" transform="translate(84.919 72.68)"/>
        </g>
    </g>
</svg>
