<svg xmlns="http://www.w3.org/2000/svg" width="80" height="80" viewBox="0 0 80 80">
    <defs>
        <linearGradient id="t083238dfb" x1=".5" x2=".5" y2="1" gradientUnits="objectBoundingBox">
            <stop offset="0" stop-color="#43d2f1"/>
            <stop offset="1" stop-color="#006dff"/>
        </linearGradient>
        <clipPath id="8ixspy5nfa">
            <path d="M0 0H80V80H0z" transform="translate(-.008 .474)"/>
        </clipPath>
    </defs>
    <g clip-path="url(#8ixspy5nfa)" transform="translate(.008 -.474)">
        <path fill="url(#t083238dfb)" stroke="rgba(0,0,0,0)" stroke-miterlimit="10" d="M14.327 61.306C6.961 59.152 2.377 54.089.491 46.646c-.874-3.452-.453-6.88.265-10.319A130.81 130.81 0 0 0 3.1 17.678a18.585 18.585 0 0 1 .252-2.673A5.387 5.387 0 0 1 14 16.233c-.1 3.389-.324 6.773-.491 10.159-.015.3 0 .607 0 .91l.279.21a7.933 7.933 0 0 1 .7-.934q10.84-10.859 21.7-21.7a5.405 5.405 0 1 1 7.751 7.532c-2.681 2.709-5.386 5.394-8.08 8.089-.214.216-.421.44-.684.715 3.045 1.284 4.236 3.537 3.66 6.8a5.451 5.451 0 0 1 3.807 2.615 5.87 5.87 0 0 1 .5 4.578c.217.079.42.161.628.229a5.383 5.383 0 0 1 2.271 8.906c-1.893 1.989-3.873 3.9-5.814 5.838-2.08 2.08-4.113 4.212-6.253 6.229a19.546 19.546 0 0 1-13.633 5.8 21.328 21.328 0 0 1-6.014-.903zM5.98 16.218c-.08 1.033-.138 2.069-.2 3.1a148.343 148.343 0 0 1-2.13 16.814c-.46 2.618-1.144 5.2-.772 7.9.93 6.771 4.489 11.634 10.832 14.12s12.409 1.492 17.487-3.07c4.477-4.021 8.586-8.453 12.844-12.717a2.368 2.368 0 0 0 .67-2.243A2.533 2.533 0 0 0 42.9 38.1a2.478 2.478 0 0 0-2.625.668c-1.716 1.693-3.409 3.409-5.12 5.106a1.415 1.415 0 1 1-1.99-1.959c.136-.142.276-.278.415-.417 2.061-2.061 4.106-4.139 6.189-6.178a2.655 2.655 0 0 0-.969-4.42 2.969 2.969 0 0 0-3.115 1.08c-1.529 1.559-3.06 3.113-4.619 4.641a1.362 1.362 0 0 1-2.137-.075c-.508-.644-.36-1.391.4-2.146 2-1.99 4-3.979 5.985-5.987a2.574 2.574 0 0 0 .1-3.812 2.606 2.606 0 0 0-3.816.155c-.943.921-1.866 1.861-2.8 2.792-.833.833-1.645 1.685-2.5 2.492a1.548 1.548 0 0 1-2.064.04 1.435 1.435 0 0 1 .118-2.034c.152-.164.316-.318.475-.477q8.5-8.5 17-17.006a2.6 2.6 0 0 0 .18-3.821 2.639 2.639 0 0 0-3.882.146q-2.357 2.338-4.7 4.7-10.251 10.247-20.5 20.5a1.35 1.35 0 0 1-1.683.325 1.518 1.518 0 0 1-.763-1.634q.353-6.59.681-13.181h.04c0-.364-.009-.728 0-1.092a2.61 2.61 0 0 0-2.455-2.925H8.61a2.632 2.632 0 0 0-2.63 2.637zm17.349-2.753c-.6-.362-.693-.99-.234-1.751.81-1.338 1.635-2.667 2.457-4a1.022 1.022 0 0 1 1.364-.484c.349.164.581.576.848.861a8.119 8.119 0 0 1-.4.923Q26.2 10.952 25 12.872a1.361 1.361 0 0 1-1.1.764 1.088 1.088 0 0 1-.571-.172zm-3.328.1a1.061 1.061 0 0 1-.949-1.182c.487-2.763.958-5.434 1.431-8.106.191-1.074.374-2.15.584-3.219A1.124 1.124 0 0 1 22.34.015a1.106 1.106 0 0 1 .91 1.373q-.972 5.621-1.993 11.235a1.021 1.021 0 0 1-1.036.958 1.517 1.517 0 0 1-.221-.017zm-4.376-1.856Q15 8.421 14.477 5.115a.95.95 0 0 1 .87-1.133 1 1 0 0 1 1.272.8c.424 2.191.8 4.392 1.165 6.466 0 .741-.3 1.162-.891 1.272a1.454 1.454 0 0 1-.267.026.967.967 0 0 1-1.001-.838z" transform="translate(16.102 9.295)"/>
    </g>
</svg>
