<svg xmlns="http://www.w3.org/2000/svg" width="112.664" height="110.014" viewBox="0 0 112.664 110.014">
    <defs>
        <linearGradient id="5jkwz771vb" x1=".126" x2=".886" y2=".875" gradientUnits="objectBoundingBox">
            <stop offset="0" stop-color="#006dff"/>
            <stop offset="1" stop-color="#43d2f1"/>
        </linearGradient>
        <clipPath id="j6n6i7322a">
            <path d="M0 0H82V82H0z" transform="translate(0 -.138)"/>
        </clipPath>
    </defs>
    <g transform="translate(.155)">
        <ellipse cx="56.332" cy="55.007" fill="#fff" rx="56.332" ry="55.007" transform="translate(-.155)"/>
        <g clip-path="url(#j6n6i7322a)" transform="translate(14.992 13.718)">
            <path fill="url(#5jkwz771vb)" stroke="rgba(0,0,0,0)" stroke-miterlimit="10" d="M0 60.489s4.576-4.6 6.868-6.909c.464-.466.948-.911 1.485-1.422-.814-.795-1.625-1.5-2.33-2.294-2.852-3.225-2.654-6.627-.036-9.228q4.461-4.434 8.9-8.906a5.558 5.558 0 0 1 2.729-1.705 6.172 6.172 0 0 1 5.8 1.661 3.941 3.941 0 0 1 .358-.553q1.627-1.815 3.273-3.612a6.172 6.172 0 0 1 8.527-.6 6.061 6.061 0 0 1 1.9 5.695 4.538 4.538 0 0 1-1.564 3.034c-1.479 1.334-2.84 2.8-4.3 4.247a5.268 5.268 0 0 1 1.59 4.086 6.327 6.327 0 0 1-1.837 4.5c-2.852 2.9-5.558 5.969-8.493 8.78a6.089 6.089 0 0 1-8.937.125c-.8-.822-1.617-1.632-2.533-2.558-.305.358-.551.682-.837.974-2.176 2.186-7.333 7.115-7.719 7.4h-.115A2.664 2.664 0 0 1 0 60.489zm17.34-26.056c-2.933 2.939-5.894 5.85-8.79 8.826a2.1 2.1 0 0 0-.534 2.1 4.419 4.419 0 0 0 1.023 1.586c2.548 2.6 5.133 5.157 7.709 7.726a1.983 1.983 0 0 0 3.278-.046c2.875-3 5.741-6 8.626-8.986a1.545 1.545 0 0 0 .576-1.456 2.12 2.12 0 0 0-.769-1.912q-3.716-3.651-7.371-7.366a3.167 3.167 0 0 0-1.96-.906 4.365 4.365 0 0 0-.541-.039 1.658 1.658 0 0 0-1.248.478zm13-4.317l-3.752 3.752c-.171.171-.324.341-.476.5l2.744 2.717c1.52-1.474 3.024-2.928 4.518-4.4a.708.708 0 0 0 .171-.449 10.028 10.028 0 0 0-.026-1.412 1.491 1.491 0 0 0-1.223-1.3 1.982 1.982 0 0 0-.529-.075 2 2 0 0 0-1.427.667zm13.26 3.21a5.969 5.969 0 0 1-.138-8.016c.628-.65 1.284-1.274 1.915-1.922a1.89 1.89 0 0 0 0-2.886q-1.122-1.144-2.268-2.267a1.895 1.895 0 0 0-2.8-.022c-.624.6-1.218 1.226-1.838 1.827a6.14 6.14 0 0 1-6.822.994 5.348 5.348 0 0 1-2.683-5.256 5.2 5.2 0 0 1 1.67-3.723q4.823-4.775 9.6-9.595C43-.751 46.186-.783 49.459 1.707a30.47 30.47 0 0 1 2.278 2.246c.79.8 1.571 1.6 2.5 2.546L60.5.032a2.558 2.558 0 0 1 2.715 2.715l-6.31 6.377c1.364 1.364 2.683 2.729 4.044 4.028 3.525 3.392 3.411 6.841.776 9.673q-5.2 5.22-10.429 10.422a5.56 5.56 0 0 1-3.923 1.569 5.417 5.417 0 0 1-3.773-1.49zm2.643-17.5c.593.655 1.247 1.254 1.876 1.876a5.718 5.718 0 0 1-.015 8.5c-.58.583-1.17 1.156-1.743 1.746a1.738 1.738 0 0 0-.258 1.893 1.323 1.323 0 0 0 1.552.43 1.992 1.992 0 0 0 .814-.5c3.341-3.319 6.663-6.651 10-9.975a2.488 2.488 0 0 0-.032-3.6c-3.832-3.873-7.7-7.712-11.555-11.563a1.987 1.987 0 0 0-3.24-.022q-5.129 5.106-10.254 10.236a4.434 4.434 0 0 0-.524.6 1.277 1.277 0 0 0-.026 1.5 1.578 1.578 0 0 0 2.444.341c.522-.5 1.042-1 1.535-1.535a6.382 6.382 0 0 1 5.14-1.915h.061a5.771 5.771 0 0 1 4.221 1.98z" transform="translate(9.102 9.36)"/>
        </g>
    </g>
</svg>
