<svg xmlns="http://www.w3.org/2000/svg" width="80" height="80" viewBox="0 0 80 80">
    <defs>
        <linearGradient id="61hw5bpvea" x1=".5" x2=".5" y2="1" gradientUnits="objectBoundingBox">
            <stop offset="0" stop-color="#43d2f1"/>
            <stop offset="1" stop-color="#006dff"/>
        </linearGradient>
    </defs>
    <g transform="translate(.116 -.289)">
        <circle cx="40" cy="40" r="40" fill="none" transform="translate(-.116 .289)"/>
        <path fill="url(#61hw5bpvea)" d="M17.448 48.925a50.981 50.981 0 0 1-5.518-1.117l1.385 2.815a1.054 1.054 0 0 1 .072.147 1.117 1.117 0 1 1-2.072.836L8.9 46.435a1.64 1.64 0 0 1-.1-.726v-.089l.078-.179.067-.1.112-.134.1-.089.089-.078 4.379-2.725a1.117 1.117 0 0 1 1.173 1.9l-2.29 1.418a47.616 47.616 0 0 0 4.658 1.028 70.947 70.947 0 0 1 0-16.488c-9.145 1.539-14.932 5.046-14.932 8.241a3.721 3.721 0 0 0 .966 2.345 1.119 1.119 0 0 1-1.732 1.419A5.9 5.9 0 0 1 0 38.414c0-4.859 7.15-8.937 17.5-10.568 1.636-10.346 5.779-17.493 10.572-17.493s8.937 6.9 10.556 17.483c10.355 1.642 17.505 5.719 17.505 10.579s-7.139 8.935-17.482 10.567c-1.642 10.41-5.72 17.5-10.579 17.5s-8.936-7.146-10.624-17.557zm2.38.38c1.542 9.149 5.072 14.947 8.244 14.947s6.646-5.731 8.244-14.935a69.335 69.335 0 0 1-8.244.481 69.157 69.157 0 0 1-8.244-.5zm-.347-19.492a66.488 66.488 0 0 0 0 17.192v.011a66.531 66.531 0 0 0 8.58.547 65.919 65.919 0 0 0 8.6-.558q.324-2.391.458-5.027L34.5 44.111a1.238 1.238 0 0 1-.107.088 1.117 1.117 0 1 1-1.311-1.808l4.412-3.631a1.137 1.137 0 0 1 .146-.078 1.1 1.1 0 0 1 .2-.112 1.068 1.068 0 0 1 .2 0 1.047 1.047 0 0 1 .212 0 1.047 1.047 0 0 1 .212 0 1.065 1.065 0 0 1 .2.056 1.1 1.1 0 0 1 .178.122.953.953 0 0 1 .145.09l3.665 3.63a1.118 1.118 0 1 1-1.576 1.587l-1.742-1.732c-.078 1.5-.2 2.938-.368 4.334 9.146-1.541 14.934-5.048 14.934-8.243s-5.786-6.7-14.924-8.244l.1.8a1.123 1.123 0 0 1-2.235.234l-.167-1.4a67.024 67.024 0 0 0-17.192 0zm16.845-2.29c-1.553-8.835-4.792-14.935-8.255-14.935-3.2 0-6.7 5.786-8.244 14.924v.011a70.744 70.744 0 0 1 16.5 0zM38.1 13a13 13 0 1 1 13 13 13 13 0 0 1-13-13zm6.046-.941l-1.186 1.186a.84.84 0 0 0 0 1.187l5.452 5.452a.84.84 0 0 0 1.187 0l9.647-9.647a.839.839 0 0 0 0-1.186l-1.185-1.183a.839.839 0 0 0-1.186 0l-7.868 7.868-3.674-3.674a.839.839 0 0 0-1.186 0z" transform="translate(7.883 7.289)"/>
    </g>
</svg>
