<svg xmlns="http://www.w3.org/2000/svg" width="80" height="80" viewBox="0 0 80 80">
    <defs>
        <linearGradient id="405u1b6soa" x1=".5" x2=".5" y2="1" gradientUnits="objectBoundingBox">
            <stop offset="0" stop-color="#006dff"/>
            <stop offset="1" stop-color="#43d2f1"/>
        </linearGradient>
    </defs>
    <g transform="translate(-.024 .498)">
        <circle cx="40" cy="40" r="40" fill="#fff" transform="translate(.024 -.498)"/>
        <g>
            <path fill="url(#405u1b6soa)" d="M8.694 60.61a1.336 1.336 0 0 1-1.18-1.436v-.483c.338-4.15 1.948-7.425 5.538-9.165 3.774-1.828 8.128-.052 10.3 4.044a11.832 11.832 0 0 1 1.383 5.45c.013.936-.491 1.574-1.231 1.593S22.24 60 22.208 59.069a8.26 8.26 0 0 0-2.332-5.837 5.189 5.189 0 0 0-8.153.73 8.346 8.346 0 0 0-1.662 4.6c-.018.275-.015.554-.058.823a1.319 1.319 0 0 1-1.232 1.22zm-7.516-.31c-.749-.06-1.2-.7-1.177-1.65a7.707 7.707 0 0 1 6.95-7.75 1.317 1.317 0 0 1 1.516 1.266 1.268 1.268 0 0 1-1.307 1.473 5.072 5.072 0 0 0-4.639 5.2c-.043.912-.545 1.465-1.232 1.465a.787.787 0 0 1-.111-.004zm30.3-.028c-.683-.136-1.011-.639-1.061-1.636a5.1 5.1 0 0 0-3.608-4.827 9.918 9.918 0 0 0-1.119-.17 1.378 1.378 0 0 1 .256-2.744 7.011 7.011 0 0 1 5.872 3.705 8.043 8.043 0 0 1 1.126 3.963c.023 1.06-.456 1.728-1.2 1.728a1.372 1.372 0 0 1-.265-.022zM16.029 47.233a1.267 1.267 0 0 1-1.17-1.291c-.035-1.309-.02-2.62-.023-3.929s0-2.621 0-3.93c0-2.557-.008-5.1 0-7.654 0-1.032.547-1.613 1.381-1.534.689.063 1.134.639 1.142 1.542.015 1.884 0 3.77 0 5.656V45.4a3.708 3.708 0 0 1-.054.752 1.294 1.294 0 0 1-1.215 1.088zm6.024-1.9a1.514 1.514 0 0 1-.6-1.354c0-1.121 0-2.242-.01-3.364a.979.979 0 0 0-.045-.18 3.108 3.108 0 0 0-.331-.051 1.374 1.374 0 1 1 .087-2.745c1.893-.008 3.789 0 5.683 0h.749c-.147-1.406.341-2.79-.5-4.11-.943-1.484-1.79-3.041-2.622-4.6a3.8 3.8 0 0 1-.445-1.662c-.038-3.963-.082-7.919 0-11.874a12.08 12.08 0 0 0-1.051-5.293 12.785 12.785 0 0 0-6.314-6.957 1.758 1.758 0 0 0-1.567-.013 12.685 12.685 0 0 0-7.37 9.66 3.707 3.707 0 0 0-.045.748c0 4.576.008 9.152-.017 13.728a3.58 3.58 0 0 1-.33 1.428q-1.085 2.359-2.271 4.665a3.665 3.665 0 0 0-.442 1.952c.04.7.008 1.406.008 2.218h.708c1.685 0 3.367.009 5.052 0a1.374 1.374 0 0 1 1.51.859 1.479 1.479 0 0 1-.453 1.7 1.036 1.036 0 0 0-.193.667c-.02 1.1 0 2.2-.015 3.295-.012.895-.522 1.5-1.241 1.5a1.349 1.349 0 0 1-1.278-1.48c-.019-1.232 0-2.465 0-3.8h-.732c-1.493 0-2.988.015-4.482 0-.951-.013-1.386-.5-1.394-1.534-.01-1.534-.024-3.068.008-4.6a2.983 2.983 0 0 1 .29-1.167c.785-1.662 1.624-3.306 2.4-4.986a3.558 3.558 0 0 0 .336-1.415c.027-3.982.081-7.966-.006-11.945a15.059 15.059 0 0 1 2.256-8.117A13.765 13.765 0 0 1 14.268.538a4.037 4.037 0 0 1 3.236 0 14.949 14.949 0 0 1 7.611 8.015 14.551 14.551 0 0 1 1.451 6.581c-.109 3.863-.037 7.733-.015 11.6a2.534 2.534 0 0 0 .3 1.151c.926 1.689 1.918 3.334 2.824 5.036a4.053 4.053 0 0 1 .432 1.662c.061 1.368.026 2.744.019 4.115 0 1.177-.469 1.679-1.534 1.68h-3.918c-.2 0-.408.022-.689.037 0 1.278.019 2.5 0 3.732a1.328 1.328 0 0 1-1.238 1.406 1.188 1.188 0 0 1-.694-.222zM10.841 15.967a5.2 5.2 0 0 1 4.931-5.473 5.2 5.2 0 0 1 4.908 5.431 5.262 5.262 0 0 1-4.858 5.5h-.041a5.252 5.252 0 0 1-4.94-5.455zm2.536-.054a2.6 2.6 0 0 0 2.343 2.723 2.588 2.588 0 0 0 2.429-2.7 2.557 2.557 0 0 0-2.379-2.668h-.008a2.544 2.544 0 0 0-2.387 2.644z" transform="translate(24.021 9.071) translate(.001 -.199)"/>
        </g>
    </g>
</svg>
