<svg xmlns="http://www.w3.org/2000/svg" width="80" height="80" viewBox="0 0 80 80">
    <defs>
        <linearGradient id="g6m2km2lta" x1=".5" x2=".5" y2="1" gradientUnits="objectBoundingBox">
            <stop offset="0" stop-color="#006dff"/>
            <stop offset="1" stop-color="#43d2f1"/>
        </linearGradient>
    </defs>
    <g transform="translate(-.024 -.289)">
        <circle cx="40" cy="40" r="40" fill="none" transform="translate(.024 .289)"/>
        <path fill="url(#g6m2km2lta)" d="M19.545 62.767a19.72 19.72 0 0 1-13.637-33.8L19.22 15.906a2.3 2.3 0 0 1 3.222 3.283L9.13 32.252a15.13 15.13 0 1 0 21.2 21.595l4.97-4.879a2.3 2.3 0 1 1 3.222 3.283l-4.971 4.876a19.664 19.664 0 0 1-13.815 5.64zm6.192-11.125a2.3 2.3 0 0 1-1.59-3.939l5.74-5.634a2.3 2.3 0 0 1 3.221 3.28l-5.739 5.634a2.283 2.283 0 0 1-1.607.659zm16.078-3.574a2.3 2.3 0 0 1-1.59-3.94l1.1-1.081a2.3 2.3 0 1 1 3.222 3.28l-1.1 1.085a2.287 2.287 0 0 1-1.607.656zm-19.47-5.306a2.3 2.3 0 0 1-1.59-3.943l7.891-7.743a2.3 2.3 0 0 1 3.222 3.281L23.977 42.1a2.3 2.3 0 0 1-1.611.66zm14.063-1.6a2.3 2.3 0 0 1-1.589-3.939l8.142-7.992a2.3 2.3 0 0 1 3.222 3.283L38.04 40.51a2.3 2.3 0 0 1-1.607.656zm-23.533-1.315a2.3 2.3 0 0 1-1.589-3.94L40.391 7.338a2.3 2.3 0 1 1 3.219 3.28l-29.1 28.57a2.3 2.3 0 0 1-1.612.66zm22.294-9.674a2.3 2.3 0 0 1-1.59-3.94l1.654-1.624a2.3 2.3 0 1 1 3.222 3.281L36.8 29.516a2.3 2.3 0 0 1-1.61.657zm6.586-6.467a2.3 2.3 0 0 1-1.59-3.939L54.9 5.306a2.3 2.3 0 1 1 3.222 3.28L43.386 23.051a2.287 2.287 0 0 1-1.607.656zM4.274 16.069l-2.4-2.45a.4.4 0 0 1 0-.564l2.451-2.4a.4.4 0 0 1 .563.005l2.4 2.451a.4.4 0 0 1 0 .563l-2.451 2.4a.4.4 0 0 1-.563-.005zm9.953-9.256l-2.951-3.007a.5.5 0 0 1 .006-.7L14.289.15a.5.5 0 0 1 .7.006l2.951 3.007a.5.5 0 0 1-.006.7L14.932 6.82a.5.5 0 0 1-.7-.007z" transform="translate(11.024 9.281)"/>
    </g>
</svg>
