<svg xmlns="http://www.w3.org/2000/svg" width="80" height="80" viewBox="0 0 80 80">
    <defs>
        <linearGradient id="linear-gradient" x1=".688" x2=".304" y1="1.127" y2=".035" gradientUnits="objectBoundingBox">
            <stop offset="0" stop-color="#006dff"/>
            <stop offset="1" stop-color="#43d2f1"/>
        </linearGradient>
        <style>
            .cls-4{fill:#fcf9f0}
        </style>
    </defs>
    <g id="Grupo_11816" transform="translate(.116 .498)">
        <circle id="Elipse_19" cx="40" cy="40" r="40" fill="none" transform="translate(-.116 -.498)"/>
        <g id="SCA_READY" transform="translate(9.312 9.213)">
            <circle id="Elipse_506" cx="21" cy="21" r="21" fill="#fff" transform="translate(10.57 10.288)"/>
            <path id="Unión_17" fill="url(#linear-gradient)" stroke="rgba(0,0,0,0)" stroke-miterlimit="10" d="M0 31.3a31.3 31.3 0 1 1 31.3 31.29A31.3 31.3 0 0 1 0 31.3zm9.539 0A21.757 21.757 0 1 0 31.3 9.539 21.757 21.757 0 0 0 9.539 31.3zm21.8 17.444a37.114 37.114 0 0 1-6.885-4.768 24.381 24.381 0 0 1-4.731-5.476 13.558 13.558 0 0 1-2.152-7.1V19.257l13.771-5.2 13.771 5.2V31.4a13.557 13.557 0 0 1-2.152 7.1 24.381 24.381 0 0 1-4.734 5.474 37.124 37.124 0 0 1-6.884 4.768zM25.4 31.14a1.739 1.739 0 0 0 0 2.443l3.048 3.072a1.708 1.708 0 0 0 2.426 0l1.418-1.428 6.56-6.612a1.736 1.736 0 0 0 0-2.443 1.707 1.707 0 0 0-2.425 0l-6.773 6.818-1.837-1.849a1.7 1.7 0 0 0-2.425 0z" transform="translate(0 .001)"/>
            <g id="Grupo_2231" transform="translate(18.897 53.125)">
                <g id="Grupo_2230">
                    <path id="Trazado_3468" d="M552.024 206.584l-.534-.215-.53 1.317-.991-.4 1.5-3.723 1.612.649a2.081 2.081 0 0 1 1.021.752 1.036 1.036 0 0 1 .076.991 1.211 1.211 0 0 1-.432.574 1.3 1.3 0 0 1-.708.2l.25 1.847-.016.039-1.058-.425zm-.257-.906l.624.252a.644.644 0 0 0 .478.036.615.615 0 0 0 .3-.754.635.635 0 0 0-.367-.307l-.625-.252z" class="cls-4" transform="translate(-549.968 -203.317)"/>
                    <path id="Trazado_3469" d="M568.742 211.275l-1.643-.32-.183.942 1.941.378-.142.73-2.985-.581.767-3.94 2.991.583-.143.733-1.947-.379-.161.831 1.643.319z" class="cls-4" transform="translate(-560.298 -206.543)"/>
                    <path id="Trazado_3470" d="M582.548 213.871l-1.458-.023-.267.745-1.137-.018 1.685-3.987 1 .016 1.567 4.039-1.143-.018zm-1.189-.766l.948.015-.454-1.4z" class="cls-4" transform="translate(-569.448 -207.919)"/>
                    <path id="Trazado_3471" d="M596.365 213.448l-.793-3.935 1.395-.28a2.253 2.253 0 0 1 1.079.03 1.784 1.784 0 0 1 .848.524 1.906 1.906 0 0 1 .454.914l.037.181a1.917 1.917 0 0 1-.056 1.019 1.784 1.784 0 0 1-.574.812 2.2 2.2 0 0 1-.969.449zm.4-3.411l.5 2.473.363-.072a.861.861 0 0 0 .631-.429 1.352 1.352 0 0 0 .068-.912l-.034-.17a1.343 1.343 0 0 0-.413-.811.877.877 0 0 0-.759-.149z" class="cls-4" transform="translate(-579.864 -207)"/>
                    <path id="Trazado_3472" d="M611.127 205.211l.077-1.921 1.061-.443-.32 2.921.556 1.33-1 .416-.556-1.33-2.3-1.826 1.055-.44z" class="cls-4" transform="translate(-588.433 -202.847)"/>
                </g>
            </g>
            <g id="Grupo_2233" transform="translate(24.344 2.465)">
                <g id="Grupo_2232">
                    <path id="Trazado_3473" d="M568.341 59.674a.386.386 0 0 0-.216-.3 2.157 2.157 0 0 0-.613-.151 5.869 5.869 0 0 1-.709-.135q-.908-.243-1.013-.9a.891.891 0 0 1 .117-.614 1.391 1.391 0 0 1 .535-.488 2.572 2.572 0 0 1 .846-.278 2.24 2.24 0 0 1 .867.018 1.33 1.33 0 0 1 .648.342 1.075 1.075 0 0 1 .31.611l-1.048.168a.463.463 0 0 0-.224-.349.685.685 0 0 0-.463-.063.78.78 0 0 0-.427.184.342.342 0 0 0-.117.313.347.347 0 0 0 .223.248 2.411 2.411 0 0 0 .673.155 4.147 4.147 0 0 1 .788.167 1.142 1.142 0 0 1 .87.908.949.949 0 0 1-.3.885 2.089 2.089 0 0 1-1.135.486 2.577 2.577 0 0 1-.991-.02 1.443 1.443 0 0 1-.722-.371 1.165 1.165 0 0 1-.328-.658l1.053-.168a.586.586 0 0 0 .256.441.93.93 0 0 0 .612.056.735.735 0 0 0 .4-.167.331.331 0 0 0 .106-.315z" class="cls-4" transform="translate(-565.777 -56.429)"/>
                    <path id="Trazado_3474" d="M584.906 58.524a1.374 1.374 0 0 1-.263.735 1.471 1.471 0 0 1-.648.486 2.357 2.357 0 0 1-.942.159 1.821 1.821 0 0 1-1.36-.542 2 2 0 0 1-.472-1.465v-.2a2.244 2.244 0 0 1 .246-1.028 1.611 1.611 0 0 1 .663-.671 1.958 1.958 0 0 1 .991-.222 2.031 2.031 0 0 1 1.288.409 1.47 1.47 0 0 1 .534 1.07l-1.06-.021a.684.684 0 0 0-.193-.53.892.892 0 0 0-.579-.17.655.655 0 0 0-.588.259 1.6 1.6 0 0 0-.21.858l-.006.283a1.772 1.772 0 0 0 .159.922.67.67 0 0 0 .606.287.871.871 0 0 0 .564-.147.637.637 0 0 0 .216-.5z" class="cls-4" transform="translate(-575.901 -55.776)"/>
                    <path id="Trazado_3475" d="M598.365 60.906l-1.431-.282-.4.686-1.115-.22 2.367-3.624.981.2.822 4.253-1.119-.225zm-1.036-.966l.931.184-.2-1.458z" class="cls-4" transform="translate(-585.211 -56.883)"/>
                </g>
            </g>
        </g>
    </g>
</svg>
