<svg id="Layer_1" data-name="Layer 1" xmlns="http://www.w3.org/2000/svg" viewBox="0 0 30 30"><defs><style>.cls-1{fill:#323232;}</style></defs><title>filter</title><path class="cls-1" d="M4.12,22.31v1.88H2a1.81,1.81,0,0,0-2,1.52,1.81,1.81,0,0,0,2,1.53H4.12v1.88A1,1,0,0,0,5.28,30h5a1,1,0,0,0,1.15-.88V27.24H28a1.81,1.81,0,0,0,2-1.53,1.81,1.81,0,0,0-2-1.52H11.43V22.31a1,1,0,0,0-1.15-.88h-5A1,1,0,0,0,4.12,22.31Z"/><path class="cls-1" d="M19.08.88V2.76H2A1.81,1.81,0,0,0,0,4.29,1.81,1.81,0,0,0,2,5.81H19.08V7.69a1,1,0,0,0,1.15.88h4.68a1,1,0,0,0,1.15-.88V5.81H28a1.81,1.81,0,0,0,2-1.52,1.81,1.81,0,0,0-2-1.53H26.06V.88A1,1,0,0,0,24.91,0H20.23A1,1,0,0,0,19.08.88Z"/><path class="cls-1" d="M14.58,11.6v1.88H2A1.81,1.81,0,0,0,0,15a1.81,1.81,0,0,0,2,1.52H14.58V18.4a1,1,0,0,0,1.15.88h4.68a1,1,0,0,0,1.15-.88V16.53H28A1.81,1.81,0,0,0,30,15a1.81,1.81,0,0,0-2-1.53H21.56V11.6a1,1,0,0,0-1.15-.88H15.73A1,1,0,0,0,14.58,11.6Z"/></svg>