<?xml version="1.0" encoding="utf-8"?>
<!-- Generator: Adobe Illustrator 21.1.0, SVG Export Plug-In . SVG Version: 6.00 Build 0)  -->
<svg version="1.1" id="Layer_1" xmlns="http://www.w3.org/2000/svg" xmlns:xlink="http://www.w3.org/1999/xlink" x="0px" y="0px"
	 viewBox="0 0 74.1 50.1" style="enable-background:new 0 0 74.1 50.1;" xml:space="preserve">
<g transform="translate(0,-952.36218)">
	<path fill="#17a117" d="M68.9,952.4c-1.3,0-2.5,0.6-3.4,1.5c-0.2,0.2-3.2,3.1-7,6.8c-3.9,3.7-8.9,8.4-13.9,13.2c-5,4.8-10,9.5-13.9,13.2
		c-2.1,2-2.6,2.5-3.8,3.7l-18.6-16c-2.1-1.8-5.3-1.6-7.1,0.5c-1.8,2.1-1.6,5.3,0.5,7.1l0,0l22,19c2,1.7,5,1.6,6.8-0.2
		c0.2-0.2,3.2-3.1,7-6.8s8.9-8.4,13.9-13.2s10-9.5,13.9-13.2s6.4-6.1,7.2-6.9c2-1.9,2-5.1,0.1-7.1C71.7,952.9,70.3,952.3,68.9,952.4
		L68.9,952.4z"/>
</g>
</svg>
