<svg class="lazy" id="Layer_1" data-name="Layer 1"  xmlns="http://www.w3.org/2000/svg" xmlns:xlink="http://www.w3.org/1999/xlink" viewBox="0 0 105.82 94.53">
                      <defs>
                          <style>.cls-1{fill:url(#linear-gradient);}</style>
                          <linearGradient id="linear-gradient" x1="78.54" y1="16.72" x2="27.28" y2="77.81" gradientUnits="userSpaceOnUse">
                              <stop offset="0%" stop-color="#006dff">
                                  <animate attributeName="stop-color" values="#006dff; #43d2f1; #006dff" dur="8s" repeatCount="indefinite"></animate>
                              </stop>
                              <stop offset="100%" stop-color="#43d2f1">
                                  <animate attributeName="stop-color" values="#43d2f1; #006dff; #43d2f1" dur="8s" repeatCount="indefinite"></animate>
                              </stop>
                          </linearGradient>
                      </defs>
                      <title>Email</title>
                      <path class="cls-1" d="M20.94,26.61a6.41,6.41,0,0,0-5.67,7L19.06,68.6a6.41,6.41,0,0,0,7,5.67l58.78-6.36a6.41,6.41,0,0,0,5.67-7L86.76,25.92a6.41,6.41,0,0,0-7-5.67Zm.34,3.18,58.78-6.36a3.15,3.15,0,0,1,3.52,2.83l3.78,34.95a3.15,3.15,0,0,1-2.83,3.52L25.75,71.09a3.15,3.15,0,0,1-3.52-2.83L18.45,33.31A3.15,3.15,0,0,1,21.29,29.79Zm55.43.36a1.6,1.6,0,0,0-.94.58L55.88,52.44a3.64,3.64,0,0,1-4.82.52L27,36a1.59,1.59,0,1,0-1.83,2.61L39.89,49,27.71,61.59A1.6,1.6,0,1,0,30,63.84h0l12.54-13,6.66,4.7a6.87,6.87,0,0,0,9-1l5.55-6,15,10a1.6,1.6,0,0,0,1.78-2.67h0L66,46.15,78.12,32.89a1.6,1.6,0,0,0-1.4-2.74Z"/>
                  </svg>