                  <svg id="Layer_2" data-name="Layer 2"  xmlns="http://www.w3.org/2000/svg" xmlns:xlink="http://www.w3.org/1999/xlink" viewBox="0 0 105.82 94.53">
                      <defs>
                          <linearGradient id="linear-gradient" x1="81.48" y1="13.22" x2="25.35" y2="80.11" gradientUnits="userSpaceOnUse">
                              <stop offset="0%" stop-color="#006dff">
                                  <animate attributeName="stop-color" values="#006dff; #43d2f1; #006dff" dur="8s" repeatCount="indefinite"></animate>
                              </stop>
                              <stop offset="100%" stop-color="#43d2f1">
                                  <animate attributeName="stop-color" values="#43d2f1; #006dff; #43d2f1" dur="8s" repeatCount="indefinite"></animate>
                              </stop>
                          </linearGradient>
                          <linearGradient id="linear-gradient-2" x1="26" y1="30.06" x2="7.61" y2="51.97" xlink:href="#linear-gradient"></linearGradient>
                          <linearGradient id="linear-gradient-3" x1="84.47" y1="48.34" x2="71.43" y2="63.89" xlink:href="#linear-gradient"></linearGradient>
                      </defs>
                      <title>Web</title>
                      <path class="cls-1" fill="url(#linear-gradient)" d="M12.55,14.34a6.41,6.41,0,0,0-6.37,6.37V52.57a2.12,2.12,0,1,0,4.25.06s0,0,0-.06V20.71a2.07,2.07,0,0,1,2.12-2.12h68a2.07,2.07,0,0,1,2.12,2.12V35.58H76.27A6.41,6.41,0,0,0,69.9,42V63.19H12.55a2.07,2.07,0,0,1-2.12-2.12,2.12,2.12,0,0,0-2.09-2.16H8.27a2.12,2.12,0,0,0-2.09,2.16h0a6.41,6.41,0,0,0,6.37,6.37H44.41v8.5H36.78a2.13,2.13,0,0,0,.2,4.25H56.09a2.12,2.12,0,1,0,.06-4.25H48.66v-8.5H69.9v6.37a6.41,6.41,0,0,0,6.37,6.37h17a6.41,6.41,0,0,0,6.37-6.37V42a6.41,6.41,0,0,0-6.37-6.37H86.89V20.71a6.41,6.41,0,0,0-6.37-6.37ZM76.27,39.83h17A2.07,2.07,0,0,1,95.39,42V73.81a2.07,2.07,0,0,1-2.12,2.12h-17a2.07,2.07,0,0,1-2.12-2.12V42A2.07,2.07,0,0,1,76.27,39.83ZM46.54,55.76a2.12,2.12,0,1,0,2.12,2.12A2.12,2.12,0,0,0,46.54,55.76ZM84.77,68.5a2.12,2.12,0,1,0,2.12,2.12A2.12,2.12,0,0,0,84.77,68.5Z"/>
                      <rect class="cls-2" fill="url(#linear-gradient-2" x="14.39" y="23.08" width="4.82" height="35.88" rx="2.41" ry="2.41"/><rect class="cls-3" fill="url(#linear-gradient-3" x="76.78" y="43.23" width="2.35" height="25.78" rx="1.17" ry="1.17"/>
                  </svg>