                  <svg id="Layer_1" data-name="Layer 1"  xmlns="http://www.w3.org/2000/svg" xmlns:xlink="http://www.w3.org/1999/xlink" viewBox="0 0 105.82 94.53">
                      <defs>
                          <style>.cls-1{fill:url(#linear-gradient);}.cls-2{fill:url(#linear-gradient-2);}.cls-3{fill:url(#linear-gradient-3);}.cls-4{fill:url(#linear-gradient-4);}.cls-5{fill:url(#linear-gradient-5);}</style>
                          <linearGradient id="linear-gradient" x1="75.79" y1="5.32" x2="32.2" y2="57.26" gradientUnits="userSpaceOnUse">
                              <stop offset="0%" stop-color="#006dff">
                                  <animate attributeName="stop-color" values="#006dff; #43d2f1; #006dff" dur="8s" repeatCount="indefinite"></animate>
                              </stop>
                              <stop offset="100%" stop-color="#43d2f1">
                                  <animate attributeName="stop-color" values="#43d2f1; #006dff; #43d2f1" dur="8s" repeatCount="indefinite"></animate>
                              </stop>
                          </linearGradient>
                          <linearGradient id="linear-gradient-2" x1="76.6" y1="43.37" x2="31.14" y2="97.54" xlink:href="#linear-gradient"/>
                          <linearGradient id="linear-gradient-3" x1="38.44" y1="60.79" x2="32.47" y2="67.89" xlink:href="#linear-gradient"/>
                          <linearGradient id="linear-gradient-4" x1="75.41" y1="51.08" x2="56.9" y2="73.14" xlink:href="#linear-gradient"/>
                          <linearGradient id="linear-gradient-5" x1="75.97" y1="61.93" x2="62.14" y2="78.41" xlink:href="#linear-gradient"/>
                      </defs>
                      <title>{{ __('Presencial') }}</title>
                      <path class="cls-1" d="M16.05,43.64a10.62,10.62,0,0,0,7.58,3.19,10.43,10.43,0,0,0,7.22-2.91,10.42,10.42,0,0,0,7.22,2.91,10.21,10.21,0,0,0,7.31-3,10.69,10.69,0,0,0,7.29,3,10.21,10.21,0,0,0,7.31-3,10.68,10.68,0,0,0,7.29,3,10.21,10.21,0,0,0,7.31-3,10.69,10.69,0,0,0,7.29,3A10.55,10.55,0,0,0,92.41,36.29a1.72,1.72,0,0,0-.35-1.06l-.38-.87a7.61,7.61,0,0,0,.63-2.75L83.46,11.76H75l.24,1.62H61.31l-.08-1.62H51.45l-.08,1.62H37.44l.24-1.62H29.22l-.72,1.62H23.71a.86.86,0,0,0-.42.11l-.52.41-.32.65-9.22,21-.07.47v.22A10.08,10.08,0,0,0,16.05,43.64Zm62.48-8v.08a7.52,7.52,0,0,0,6.16,3.23,7.62,7.62,0,0,0,4.24-1.27A7,7,0,0,1,82,43.28a6.93,6.93,0,0,1-5.58-2.83l-3.5-23.61h2.81ZM56.3,39a7.39,7.39,0,0,0,1.9-.26l.09,1.85a6.93,6.93,0,0,1-5.55,2.78,7,7,0,0,1-5.47-2.63L48.5,16.84h2.7l-1,19.07A7.54,7.54,0,0,0,56.3,39Zm5.19-22.15h8l3.5,23.84a7,7,0,0,1-11,0l-.23-4.07a7.37,7.37,0,0,0,.76-.86ZM28,39a7.59,7.59,0,0,0,1.43-.17l-.26,1.76a7,7,0,0,1-5.6,2.78,7.11,7.11,0,0,1-7.06-6.76l8.84-19.76h1.61L20.37,31.53A7.65,7.65,0,0,0,28,39Zm5.32-2.25a7.86,7.86,0,0,0,.83-.9l2.78-18.91H45L43.81,40.46a7.11,7.11,0,0,1-5.66,2.9,7.28,7.28,0,0,1-5.44-2.54Z"/>
                      <path class="cls-2" d="M91.62,79.38H84.95V51.21a1.73,1.73,0,1,0-3.47,0V79.3H43.77V51.21a1.73,1.73,0,1,0-3.47,0V79.3H25.13V51.21a1.73,1.73,0,1,0-3.47,0V79.3H14.19a1.73,1.73,0,0,0,0,3.47H91.62A1.7,1.7,0,0,0,93.36,81,1.68,1.68,0,0,0,91.62,79.38Z"/>
                      <path class="cls-3" d="M33.72,60.57v7.54a1.73,1.73,0,0,0,3.47,0V60.57a1.73,1.73,0,1,0-3.47,0Z"/>
                      <path class="cls-4" d="M76.31,51.84h0a1.71,1.71,0,0,0-2.46,0l-17.93,18a1.72,1.72,0,0,0-.53,1.23,1.75,1.75,0,0,0,.53,1.24,1.79,1.79,0,0,0,1.26.54,1.63,1.63,0,0,0,1.27-.54l18-18A1.88,1.88,0,0,0,76.31,51.84Z"/>
                      <path class="cls-5" d="M62.67,78.33a1.75,1.75,0,0,0,1.27-.54L76.71,65a1.72,1.72,0,0,0,.53-1.23,1.74,1.74,0,0,0-.53-1.23,1.7,1.7,0,0,0-2.45,0L61.4,75.33a1.72,1.72,0,0,0-.53,1.23,1.83,1.83,0,0,0,1.79,1.77Z"/>
                  </svg>