                  <svg  id="Layer_1" data-name="Layer 1"  xmlns="http://www.w3.org/2000/svg" xmlns:xlink="http://www.w3.org/1999/xlink" viewBox="0 0 105.82 94.53">
                      <defs>
                          <style>.cls-1{fill:url(#linear-gradient);}.cls-2{fill:url(#linear-gradient-2);}.cls-3{fill:url(#linear-gradient-3);}</style>
                          <linearGradient id="linear-gradient" x1="35.54" y1="22.05" x2="33.31" y2="24.7" gradientTransform="matrix(0.76, -0.65, 0.65, 0.76, -6.95, 27.81)" gradientUnits="userSpaceOnUse">
                              <stop offset="0%" stop-color="#006dff">
                                  <animate attributeName="stop-color" values="#006dff; #43d2f1; #006dff" dur="8s" repeatCount="indefinite"></animate>
                              </stop>
                              <stop offset="100%" stop-color="#43d2f1">
                                  <animate attributeName="stop-color" values="#43d2f1; #006dff; #43d2f1" dur="8s" repeatCount="indefinite"></animate>
                              </stop>
                          </linearGradient>
                          <linearGradient id="linear-gradient-2" x1="78.79" y1="63.67" x2="75.6" y2="67.47" gradientTransform="translate(-23.3 78.21) rotate(-47.52)" xlink:href="#linear-gradient"/>
                          <linearGradient id="linear-gradient-3" x1="63.52" y1="35.41" x2="38.49" y2="65.25" gradientTransform="matrix(1, 0, 0, 1, 0, 0)" xlink:href="#linear-gradient"/>
                      </defs>
                      <title>{{ __('Teléfono') }}</title>
                      <rect class="cls-1" x="26.78" y="21.67" width="15.28" height="3.4" rx="1.7" ry="1.7" transform="translate(23.29 -16.72) rotate(40.3)"/><rect class="cls-2" x="69.55" y="63.87" width="15.28" height="3.4" rx="1.7" ry="1.7" transform="translate(73.41 -35.65) rotate(47.52)"/><path class="cls-3" d="M88.05,64.88c-2-3.15-7.46-9.18-10.9-10.32a.28.28,0,0,1-.29-.29c-4.59-1.72-8,0-11.76,2.58-.86.57-3.44,2.58-4.59,3.15-.29-.29-.57-.29-.57-.57-2.87-1.72-17.49-16.06-19.21-18.93a1,1,0,0,0-.29-.57C41,38.79,43,36.21,43.6,35.35c2.58-4,4-7.17,2.29-11.76,0-.29,0-.29-.29-.57-.86-3.44-7.17-8.89-10-10.9-3.44-2.29-7.74-2.29-10,.86-3.44,4-8,10.32-9.18,15.48C14.07,38.79,30.41,56.57,37,63.16,43.6,70,61.38,86.1,71.71,83.81c5.16-1.15,11.47-5.74,15.48-9.18C90.34,72.34,90.34,68,88.05,64.88ZM84.9,71.77s-8,7.17-14.05,8.32C58.23,83,17.22,42.23,20.09,29.33c1.43-5.74,8.32-14.05,8.32-14.05s1.72-2.29,4.87,0c3.15,2,8.32,6.88,8.89,8.89s2,3.15-2,8.89c-3.73,5.74-4.59,6-2.87,9.18C39,45.1,55.07,61.44,57.94,62.88c3.15,1.72,3.44.86,9.18-2.87s7.17-2.29,8.89-1.72c2,.57,6.88,5.74,8.89,8.6C87.19,70,84.9,71.77,84.9,71.77Z"/>
                  </svg>