<svg id="Layer_1" data-name="Layer 1" xmlns="http://www.w3.org/2000/svg" viewBox="0 0 39.02 37.79"><defs><style>.cls-1{fill:#006dff;}</style></defs><title>icono-06-01</title><path class="cls-1" d="M29.74,22.36h0a3,3,0,0,0-2.8,1.86h-1.6V21H27A5.83,5.83,0,0,0,27,9.35H26.9a7.68,7.68,0,0,0-14.77,0h-.06A5.83,5.83,0,0,0,11.81,21h1.88v3.22h-1.6a3,3,0,1,0,0,2.36h2.78A1.18,1.18,0,0,0,16,25.4V21h2.29v7.18a3,3,0,1,0,2.36,0V21H23v4.4a1.18,1.18,0,0,0,1.18,1.18h2.78a3,3,0,1,0,2.8-4.22Zm.68,3a.68.68,0,1,1-.68-.68A.68.68,0,0,1,30.42,25.4ZM20.19,31a.68.68,0,1,1-.68-.68A.68.68,0,0,1,20.19,31ZM27.7,18.57a3.46,3.46,0,0,1-.75.08H12.08a3.47,3.47,0,0,1,0-6.94h0a3.48,3.48,0,0,1,.74.08,1.18,1.18,0,0,0,1.4-.91l0-.1a5.32,5.32,0,0,1,10.56,0,1.17,1.17,0,0,0,.45.78,1.15,1.15,0,0,0,.87.24l.11,0a3.47,3.47,0,1,1,1.49,6.77ZM10,25.4a.68.68,0,1,1-.68-.68A.68.68,0,0,1,10,25.4Z"/></svg>