<svg id="Layer_1" data-name="Layer 1" xmlns="http://www.w3.org/2000/svg" viewBox="0 0 39.02 37.79"><defs><style>.cls-1{fill:#006dff;}</style></defs><title>icono-04-03</title><path class="cls-1" d="M14.82,21.35c.65.63,1.31,1.27,2,2a1.67,1.67,0,0,0,2.36.12l.06-.06c2.67-2.64,4.57-4.74,5.71-6l.64-.7a1.66,1.66,0,1,0-2.44-2.26l-.46.5c-1,1.05-2.53,2.77-4.63,4.91l-.74-.74c-.5-.5-1-1-1.33-1.33a1.67,1.67,0,1,0-2.54,2.16h0l.12.12C13.92,20.49,14.36,20.9,14.82,21.35Z"/><path class="cls-1" d="M31.43,4.4,29.71,4a36.76,36.76,0,0,0-10.2-1.37A36.76,36.76,0,0,0,9.32,4L7.6,4.4A1.57,1.57,0,0,0,6.38,5.94v14c0,3.17,1.78,6.51,5.28,9.91a27.14,27.14,0,0,0,7.24,5.2,1.59,1.59,0,0,0,1.21,0,27.16,27.16,0,0,0,7.24-5.2c3.5-3.4,5.28-6.74,5.28-9.91v-14A1.57,1.57,0,0,0,31.43,4.4ZM9.53,7.17,10.12,7a33.34,33.34,0,0,1,9.39-1.25A33.34,33.34,0,0,1,28.91,7l.58.14V20c0,2.2-1.57,5-4.32,7.64a27,27,0,0,1-5.66,4.2,27,27,0,0,1-5.66-4.2C11.11,24.93,9.53,22.15,9.53,20Z"/></svg>