<svg xmlns="http://www.w3.org/2000/svg" width="40" height="40" viewBox="0 0 40 40">
    <g>
        <path fill="none" d="M0 0H40V40H0z" transform="translate(-1117 -618) translate(1117 618)"/>
        <g>
            <path fill="#ff62c3" d="M21.047 20.838a1.449 1.449 0 0 0 2.121 0l9.059-9.5a6.9 6.9 0 0 0-.466-9.882 6.323 6.323 0 0 0-8.726.641l-.935.973-.92-.97a6.316 6.316 0 0 0-8.726-.649 6.9 6.9 0 0 0-.466 9.882z" transform="translate(-1117 -618) translate(1240.692 598.295) translate(-125.82 25.707)"/>
            <path fill="#fff1d6" stroke="#dccfb8" d="M31.361 22.949a1.836 1.836 0 0 0-2.363 0l-5.126 4.1a3.532 3.532 0 0 1-2.219.777H15.09a.888.888 0 1 1 0-1.775h4.344a1.847 1.847 0 0 0 1.847-1.476 1.777 1.777 0 0 0-1.753-2.075h-8.877a6.529 6.529 0 0 0-4.111 1.459L3.961 26.05H.888a.89.89 0 0 0-.888.888v5.326a.89.89 0 0 0 .888.888h19.794a3.555 3.555 0 0 0 2.219-.777l8.388-6.713a1.774 1.774 0 0 0 .072-2.713z" transform="translate(-1117 -618) translate(1240.692 598.295) translate(-119.692 19.773)"/>
        </g>
    </g>
</svg>
