<svg xmlns="http://www.w3.org/2000/svg" width="48" height="48" viewBox="0 0 48 48">
    <defs>
        <linearGradient id="ri544zqh9b" x1=".5" x2=".5" y2="1" gradientUnits="objectBoundingBox">
            <stop offset="0" stop-color="#006dff"/>
            <stop offset="1" stop-color="#43d2f1"/>
        </linearGradient>
        <clipPath id="2qa54v107a">
            <path d="M0 0H48V48H0z"/>
        </clipPath>
    </defs>
    <g clip-path="url(#2qa54v107a)">
        <path fill="url(#ri544zqh9b)" stroke="rgba(0,0,0,0)" stroke-miterlimit="10" d="M14.631 4.34H4.983v9.648h9.648zm2.412-2.412V16.4H2.571V1.928zM7.395 6.752h4.824v4.824H7.395zM38.752 4.34H29.1v9.648h9.648zm2.412-2.412V16.4H26.691V1.928h14.473zm-9.649 4.824h4.825v4.824h-4.825zM14.631 28.461H4.983v9.648h9.648zm2.412-2.412v14.472H2.571V26.049zm-9.648 4.824h4.824V35.7H7.395zm12.06-28.945h2.412V4.34h-2.412zm2.412 2.412h2.412v2.412h-2.412zm-2.412 2.412h2.412v2.412h-2.412zm2.412 2.412h2.412v2.412h-2.412zm-2.412 2.412h2.412v2.412h-2.412zm2.412 2.412h2.412V16.4h-2.412zM19.455 16.4h2.412v2.412h-2.412zm0 4.824h2.412v2.412h-2.412zm2.412 2.412h2.412v2.412h-2.412zm-2.412 2.412h2.412v2.412h-2.412zm2.412 2.412h2.412v2.412h-2.412zm-2.412 2.412h2.412v2.412h-2.412zm2.412 2.412h2.412V35.7h-2.412zM19.455 35.7h2.412v2.412h-2.412zm2.412 2.412h2.412v2.412h-2.412zm16.885-16.887h2.412v2.412h-2.412zm-33.769 0h2.412v2.412H4.983zm2.412-2.412h2.412v2.412H7.395zm-4.824 0h2.412v2.412H2.571zm9.648 0h2.412v2.412h-2.412zm2.412 2.412h2.412v2.412h-2.412zm2.412-2.412h2.412v2.412h-2.412zm7.236 2.412h2.412v2.412h-2.412zm2.412-2.412H29.1v2.412h-2.409zm2.409 2.412h2.412v2.412H29.1zm2.412-2.412h2.412v2.412h-2.409zm2.412 2.412h2.416v2.412h-2.412zm2.412-2.412h2.412v2.412H36.34zm2.412 7.236h2.412v2.412h-2.408zm-14.472 0h2.412v2.412h-2.409zm2.412-2.412H29.1v2.412h-2.409zm2.412 2.412h2.412v2.412H29.1zm4.824 0h2.416v2.412h-2.412zm2.412-2.412h2.412v2.412H36.34zm2.412 7.236h2.412v2.412h-2.408zm-14.472 0h2.412v2.412h-2.409zm2.412-2.412H29.1v2.412h-2.409zm4.824 0h2.412v2.412h-2.409zm2.412 2.412h2.416v2.412h-2.412zm2.412-2.412h2.412v2.412H36.34zm2.416 7.239h2.412v2.412h-2.412zm-12.06-2.412H29.1V35.7h-2.409zM29.1 35.7h2.412v2.412H29.1zm2.412-2.412h2.412V35.7h-2.409zm2.416 2.412h2.412v2.412h-2.412zm-7.236 2.412H29.1v2.412h-2.409zm4.824 0h2.412v2.412h-2.413zm4.824 0h2.412v2.412H36.34z" transform="translate(2.31 2.629)"/>
    </g>
</svg>
