<svg id="Layer_1" data-name="Layer 1" xmlns="http://www.w3.org/2000/svg" viewBox="0 0 39.02 37.79"><defs><style>.cls-1{fill:#006dff;}</style></defs><title>icono-05-02</title><path class="cls-1" d="M31.8,28.54,27.42,17.72q-.31-.81-.51-1.3a4.89,4.89,0,0,0-.49-.91,2.28,2.28,0,0,0-.77-.69,2.38,2.38,0,0,0-1.18-.27,2.35,2.35,0,0,0-1.17.27,2.24,2.24,0,0,0-.77.7A5.73,5.73,0,0,0,22,16.62l-.44,1.13-1.83,4.64A5.31,5.31,0,0,1,17.52,21a8.54,8.54,0,0,0,3.1-6.58V13.23h4.89a1.62,1.62,0,1,0,0-3.24H20.62V7.52a1.62,1.62,0,1,0-3.24,0V10h-9a1.62,1.62,0,0,0,0,3.24h9v1.18a5.28,5.28,0,0,1-1.28,3.45c0-.17,0-.33,0-.5a1.62,1.62,0,0,0-3.24,0,8.53,8.53,0,0,0,.3,2.25,5.3,5.3,0,0,1-1.06.11,1.62,1.62,0,1,0,0,3.24,8.52,8.52,0,0,0,2.54-.39,8.58,8.58,0,0,0,3.9,2.84l-1.27,3.22q-.26.65-.38,1a2.37,2.37,0,0,0-.11.71,1.43,1.43,0,0,0,.49,1.06,1.59,1.59,0,0,0,1.13.47,1.27,1.27,0,0,0,1.09-.44,7.52,7.52,0,0,0,.8-1.7l.8-2.15h6.82l.8,2.11.38.9a3.59,3.59,0,0,0,.42.75,1.41,1.41,0,0,0,.48.39,1.52,1.52,0,0,0,.69.14,1.6,1.6,0,0,0,1.17-.49,1.49,1.49,0,0,0,.49-1.07A5.41,5.41,0,0,0,31.8,28.54ZM22,25.06l2.48-6.92L27,25.06Z"/></svg>