<svg xmlns="http://www.w3.org/2000/svg" width="33.513" height="33.851" viewBox="0 0 33.513 33.851">
    <defs>
        <style>
            .cls-2{fill:#8a9da7}
        </style>
    </defs>
    <g id="Sfiau5.tif" transform="rotate(14.98 10.991 27.758)">
        <g id="Grupo_11938">
            <path id="Trazado_11445" fill="#f8ab29" d="M8.441 4.623c.009-.168 0-.262.02-.351.459-2.572.789-2.849 3.412-2.849h13.135c.208 0 .468.069.613-.029.239-.161.552-.429.556-.657s-.3-.5-.527-.686c-.115-.093-.358-.03-.543-.03H10.93a3.53 3.53 0 0 0-3.748 3.238q-1.176 7.117-2.4 14.226a2.13 2.13 0 0 1-2.389 2c-.533 0-1.066.006-1.6 0a.685.685 0 0 0-.793.687.672.672 0 0 0 .762.713c.788 0 1.578.035 2.362-.022a3.5 3.5 0 0 0 3.065-3.118c.131-.82.276-1.638.428-2.533h21.068c.232 0 .465.013.695-.01a.683.683 0 0 0 .668-.955c-.738-2.335-1.452-4.68-2.264-6.99A4.032 4.032 0 0 0 22.9 4.626q-6.811-.012-13.622 0z" transform="translate(0 8.324)"/>
            <path id="Trazado_11446" d="M3.221 0A3.227 3.227 0 0 0 0 3.221a3.235 3.235 0 0 0 6.47-.031A3.225 3.225 0 0 0 3.221 0z" class="cls-2" transform="translate(7.353)"/>
            <path id="Trazado_11447" d="M6.422 3.2A3.179 3.179 0 0 0 3.208 0a3.205 3.205 0 1 0 .012 6.41A3.182 3.182 0 0 0 6.422 3.2z" class="cls-2" transform="translate(19.978)"/>
        </g>
    </g>
</svg>
