<svg id="Layer_1" data-name="Layer 1" xmlns="http://www.w3.org/2000/svg" viewBox="0 0 29 29"><defs><style>.cls-1{fill:#006dff;}</style></defs><title>icono-custom</title><path class="cls-1" d="M27.5,13H11.73a4.48,4.48,0,0,0-8.46,0H1.5a1.5,1.5,0,0,0,0,3H3.27a4.48,4.48,0,0,0,8.46,0H27.5a1.5,1.5,0,0,0,0-3Z"/><path class="cls-1" d="M1.5,6H16.27a4.48,4.48,0,0,0,8.46,0H27.5a1.5,1.5,0,0,0,0-3H24.73a4.48,4.48,0,0,0-8.46,0H1.5a1.5,1.5,0,0,0,0,3Z"/><path class="cls-1" d="M27.5,23H22.73a4.48,4.48,0,0,0-8.46,0H1.5a1.5,1.5,0,0,0,0,3H14.27a4.48,4.48,0,0,0,8.46,0H27.5a1.5,1.5,0,0,0,0-3Z"/></svg>