<svg xmlns="http://www.w3.org/2000/svg" width="48" height="48" viewBox="0 0 48 48">
    <defs>
    <style>#prefix__Icon_-_Call_TPV{fill:url(#prefix__linear-gradient);}</style>
        <linearGradient id="prefix__linear-gradient" x1=".5" x2=".5" y2="1" gradientUnits="objectBoundingBox">
            <stop offset="0" stop-color="#43d2f1"/>
            <stop offset="1" stop-color="#006dff"/>
        </linearGradient>
        <clipPath id="prefix__clip-path">
            <path id="prefix__Rect치ngulo_1805" d="M0 0H48V48H0z" data-name="Rect치ngulo 1805"/>
        </clipPath>
    </defs>
    <g id="prefix__Icon_-_Call_TPV" data-name="Icon - Call TPV">
        <g id="prefix__Grupo_3185" data-name="Grupo 3185" transform="translate(9.112 29.53)">
            <path id="prefix__Trazado_3395" d="M8.06 12.11l-6.73 5.7 4.312 9.924 10.222 10.835 4.438 2.68 6.145 2.768 4.334-.735 2.69-3.238 1.177-2.83-2.432-3.172-3.836-3h-1.933l-4.532 3.6L11.229 24.14l3.732-3.39v-3.572z" data-name="Trazado 3395" transform="translate(-3.549 -32.576)" style="stroke:transparent;fill:#fff"/>
            <path id="prefix__Uni칩n_16" d="M15.94 31.586A51.232 51.232 0 0 1 4.977 20.948C.6 15.27-1.59 9.738 1.329 6.9A31.513 31.513 0 0 1 4.54 3.915a4.624 4.624 0 0 1 6.138.428l3.056 2.984a4.452 4.452 0 0 1 .216 6.309q-.1.112-.216.215L11.845 15.7a69.685 69.685 0 0 0 9.355 9.079l2.043-1.847a4.768 4.768 0 0 1 6.722 0l3.065 2.984a4.63 4.63 0 0 1 .292 6.105c-.73 1.137-2.043 1.984-2.919 2.984a4.885 4.885 0 0 1-3.539 1.3c-3.051-.005-7.022-1.892-10.924-4.719zM5.561 5.471c-.858.71-1.9 1.847-2.773 2.694-2.043 1.984 0 6.669 3.648 11.638A55.227 55.227 0 0 0 17.1 30.063c4.97 3.694 9.786 5.678 11.838 3.694.858-.855 2.043-1.847 2.919-2.839a2.754 2.754 0 0 0-.292-3.694L28.5 24.24a2.979 2.979 0 0 0-3.949 0l-3.21 3.121a72.227 72.227 0 0 1-12.122-11.8l3.21-3.121a2.78 2.78 0 0 0 0-3.831L9.364 5.617a2.954 2.954 0 0 0-3.8-.145zm29.158 10.26h-.092a1.149 1.149 0 0 1-1.06-1.232q.033-.446.033-.9A11.342 11.342 0 0 0 22.256 2.294a11.509 11.509 0 0 0-1.454.092 1.147 1.147 0 1 1-.371-2.264c.027 0 .054-.008.081-.01A13.867 13.867 0 0 1 22.256 0 13.641 13.641 0 0 1 35.91 13.6q0 .544-.04 1.075a1.149 1.149 0 0 1-1.148 1.055zm-6.376-1.31a6.568 6.568 0 0 0-6.581-6.555 1.147 1.147 0 1 1 0-2.294 8.879 8.879 0 0 1 8.884 8.848 1.152 1.152 0 0 1-2.3 0z" data-name="Uni칩n 16" transform="translate(-2.606 -24.001)"/>
        </g>
    </g>
</svg>
