<svg id="Layer_1" data-name="Layer 1" xmlns="http://www.w3.org/2000/svg" viewBox="0 0 39.06 30.63"><defs><style>.cls-1{fill:#006dff;}</style></defs><title>icono-pluguin</title><path class="cls-1" d="M38,14.91a10.25,10.25,0,0,0-6-5.27,12.05,12.05,0,0,0-21.8-4.32H10.1A7.27,7.27,0,0,0,2.9,13.5,10,10,0,0,0,0,20.92a9.05,9.05,0,0,0,.11.93,9.34,9.34,0,0,0,9.21,7.68h3.22a1.87,1.87,0,0,0,0-3.73h-3a5.59,5.59,0,0,1-5.68-4.47,2.37,2.37,0,0,0-.07-.68,6.46,6.46,0,0,1,2.32-5,1.84,1.84,0,0,0,.65-2,3.66,3.66,0,0,1,1-3.67,3.86,3.86,0,0,1,3.19-.89,1.84,1.84,0,0,0,2-.92,8.54,8.54,0,0,1,8.49-4.37,8.49,8.49,0,0,1,7.24,7.57A1.88,1.88,0,0,0,30,13a6.5,6.5,0,0,1,1.58,12.26,5.37,5.37,0,0,1-2.43.53h-3a1.87,1.87,0,0,0,0,3.73h2.93a8.82,8.82,0,0,0,4.1-.93A10.23,10.23,0,0,0,38,14.91Z"/><path class="cls-1" d="M26.4,19.81A1.86,1.86,0,0,0,27,18.5a1.88,1.88,0,0,0-.54-1.34L26.29,17h-.07l-5.36-5.34a1.87,1.87,0,0,0-1.31-.54,1.66,1.66,0,0,0-.66.13,1.88,1.88,0,0,0-.73.42l-5.5,5.48a1.86,1.86,0,0,0,0,2.64,1.91,1.91,0,0,0,2.64,0l2.36-2.36V28.77a1.86,1.86,0,0,0,1.86,1.86h0a1.86,1.86,0,0,0,1.86-1.86V17.44l2.35,2.35a1.82,1.82,0,0,0,1.35.55A2,2,0,0,0,26.4,19.81Z"/></svg>