<svg id="Layer_1" data-name="Layer 1" xmlns="http://www.w3.org/2000/svg" xmlns:xlink="http://www.w3.org/1999/xlink" viewBox="0 0 60.23 60.23"><defs><style>.cls-1{fill:url(#linear-gradient);}.cls-2{fill:url(#linear-gradient-2);}.cls-3{fill:url(#linear-gradient-3);}.cls-4{fill:url(#linear-gradient-4);}.cls-5{fill:url(#linear-gradient-5);}.cls-6{fill:url(#linear-gradient-6);}.cls-7{fill:url(#linear-gradient-7);}.cls-8{fill:url(#linear-gradient-8);}.cls-9{fill:url(#linear-gradient-9);}.cls-10{fill:url(#linear-gradient-10);}.cls-11{fill:url(#linear-gradient-11);}.cls-12{fill:url(#linear-gradient-12);}.cls-13{fill:url(#linear-gradient-13);}</style><linearGradient id="linear-gradient" x1="44.96" y1="30.1" x2="34.61" y2="42.44" gradientUnits="userSpaceOnUse"><stop offset="0" stop-color="#006dff"/><stop offset="1" stop-color="#43d2f1"/></linearGradient><linearGradient id="linear-gradient-2" x1="44.96" y1="22.33" x2="34.6" y2="34.68" xlink:href="#linear-gradient"/><linearGradient id="linear-gradient-3" x1="19.71" y1="29.86" x2="12.34" y2="38.64" xlink:href="#linear-gradient"/><linearGradient id="linear-gradient-4" x1="23.61" y1="26.35" x2="19.47" y2="31.29" xlink:href="#linear-gradient"/><linearGradient id="linear-gradient-5" x1="14.19" y1="43.73" x2="10.86" y2="47.7" xlink:href="#linear-gradient"/><linearGradient id="linear-gradient-6" x1="22.97" y1="43.73" x2="19.64" y2="47.7" xlink:href="#linear-gradient"/><linearGradient id="linear-gradient-7" x1="31.81" y1="43.73" x2="28.48" y2="47.7" xlink:href="#linear-gradient"/><linearGradient id="linear-gradient-8" x1="40.65" y1="43.73" x2="37.32" y2="47.7" xlink:href="#linear-gradient"/><linearGradient id="linear-gradient-9" x1="49.43" y1="43.73" x2="46.1" y2="47.7" xlink:href="#linear-gradient"/><linearGradient id="linear-gradient-10" x1="54.98" y1="0.48" x2="5.27" y2="59.72" xlink:href="#linear-gradient"/><linearGradient id="linear-gradient-11" x1="10.29" y1="10.19" x2="7.69" y2="13.28" xlink:href="#linear-gradient"/><linearGradient id="linear-gradient-12" x1="16.16" y1="10.19" x2="13.56" y2="13.28" xlink:href="#linear-gradient"/><linearGradient id="linear-gradient-13" x1="22.1" y1="10.19" x2="19.5" y2="13.28" xlink:href="#linear-gradient"/></defs><title>icono-card</title><path class="cls-1" d="M30.21,38.45H49.35a1,1,0,0,0,1-1V35.1a1,1,0,0,0-1-1H30.21a1,1,0,0,0-1,1v2.34A1,1,0,0,0,30.21,38.45Z"/><path class="cls-2" d="M30.21,30.68H49.35a1,1,0,0,0,1-1V27.34a1,1,0,0,0-1-1H30.21a1,1,0,0,0-1,1v2.34A1,1,0,0,0,30.21,30.68Z"/><path class="cls-3" d="M16.5,40.22a6.59,6.59,0,0,0,6.7-6.13.46.46,0,0,0-.51-.51H17.07a.54.54,0,0,1-.51-.51V27.46a.5.5,0,0,0-.51-.51,6.65,6.65,0,0,0-6.13,6.76A6.77,6.77,0,0,0,16.5,40.22Z"/><path class="cls-4" d="M19.53,31.19h5.62a.5.5,0,0,0,.51-.51,6.64,6.64,0,0,0-6.13-6.13.46.46,0,0,0-.51.51v5.62A.5.5,0,0,0,19.53,31.19Z"/><circle class="cls-5" cx="12.52" cy="45.72" r="2.59"/><circle class="cls-6" cx="21.3" cy="45.72" r="2.59"/><circle class="cls-7" cx="30.15" cy="45.72" r="2.59"/><circle class="cls-8" cx="38.99" cy="45.72" r="2.59"/><circle class="cls-9" cx="47.77" cy="45.72" r="2.59"/><path class="cls-10" d="M56.93,3.08H3.36A3.25,3.25,0,0,0,.14,6.37v47.5a3.25,3.25,0,0,0,3.22,3.28h53.5a3.25,3.25,0,0,0,3.22-3.28V6.37A3.16,3.16,0,0,0,56.93,3.08ZM56,20.39V53H4.25V20.39ZM4.25,16.22v-9H56v9Z"/><circle class="cls-11" cx="8.99" cy="11.73" r="2.02"/><circle class="cls-12" cx="14.86" cy="11.73" r="2.02"/><circle class="cls-13" cx="20.8" cy="11.73" r="2.02"/></svg>