<svg xmlns="http://www.w3.org/2000/svg" width="40" height="40" viewBox="0 0 40 40">
    <defs>
        <linearGradient id="linear-gradient" x1=".5" x2=".5" y2="1" gradientUnits="objectBoundingBox">
            <stop offset="0" stop-color="#ff575f"/>
            <stop offset="1" stop-color="#ff9a6b"/>
        </linearGradient>
        <clipPath id="clip-path">
            <path id="Rect치ngulo_2849" fill="none" d="M0 0H40V40H0z" transform="translate(-5.031 -6.18)"/>
        </clipPath>
        <style>
            .cls-3{fill:url(#linear-gradient)}
        </style>
    </defs>
    <g id="chargeback" clip-path="url(#clip-path)" transform="translate(5.031 6.18)">
        <g id="Grupo_11981" transform="translate(-1.971 -2.121)">
            <path id="Exclusi칩n_31" d="M16.5 33A16.5 16.5 0 0 1 4.833 4.833a16.5 16.5 0 0 1 23.334 23.335A16.391 16.391 0 0 1 16.5 33zm0-25.3a8.8 8.8 0 1 0 8.8 8.8 8.81 8.81 0 0 0-8.8-8.8z" class="cls-3" transform="translate(-.059 -.059)"/>
            <path id="Uni칩n_71" fill="#fff" d="M3.191 15.963c-.074-.434-.126-.871-.2-1.375l-1.668 1.7a.754.754 0 0 1-.748.256.746.746 0 0 1-.365-1.251c.982-1.02 1.98-2.023 2.984-3.022a.7.7 0 0 1 1.056.024q1.476 1.479 2.935 2.976a.75.75 0 0 1 .015 1.074.724.724 0 0 1-1.063-.017c-.454-.44-.891-.9-1.336-1.347-.069-.069-.147-.139-.221-.212l-.091.035c.129.648.221 1.306.394 1.946A11.819 11.819 0 0 0 27 18.872a4.375 4.375 0 0 1 .2-.4.724.724 0 0 1 .937-.316.745.745 0 0 1 .4.915 1.731 1.731 0 0 1-.114.266A13.087 13.087 0 0 1 18.083 27a12.872 12.872 0 0 1-1.839.132A13.393 13.393 0 0 1 3.191 15.963zm25.16-1.227q-1.412-1.429-2.822-2.86a.764.764 0 0 1-.217-.8.705.705 0 0 1 .567-.511.755.755 0 0 1 .718.261l1.287 1.3a.679.679 0 0 0 .3.191c-.079-.468-.135-.942-.239-1.4A11.825 11.825 0 0 0 5.67 8.285c-.05.107-.1.215-.154.319a.732.732 0 0 1-1 .366.753.753 0 0 1-.336-1.017 12.907 12.907 0 0 1 2.159-3.381A13.042 13.042 0 0 1 16.925.007 13.388 13.388 0 0 1 29.507 11.22c.069.411.12.826.189 1.317.335-.347.625-.648.924-.951.2-.208.406-.413.609-.618.595-.6.992-.579 1.468.095v.453c-.162.2-.311.405-.486.586q-1.291 1.32-2.594 2.634a.764.764 0 0 1-1.264 0z" transform="translate(.086 3.04)"/>
        </g>
        <path id="Uni칩n_71-2" d="M10.855 14.335a.384.384 0 0 0-.441-.269 1.727 1.727 0 0 1-.389-.005.656.656 0 0 1 .011-1.31c.1-.01.2-.011.3-.016v-1.418c-.087 0-.195-.005-.3-.015a.663.663 0 0 1-.628-.667.591.591 0 0 1 .611-.635c.574.067.795-.233 1.052-.685a5 5 0 0 1 5.669-2.36 4.129 4.129 0 0 1 1.906 1.27.667.667 0 0 1 .028.962.645.645 0 0 1-.965-.043 3.374 3.374 0 0 0-1.66-1.031 3.813 3.813 0 0 0-3.813 1.843c.109.007.2.018.3.018h2.006a.648.648 0 0 1 .622.352.635.635 0 0 1-.032.667.7.7 0 0 1-.653.3h-2.825c0 .447-.01.868.012 1.286 0 .055.171.144.263.146.549.007 1.1.007 1.649.005h.8a1.723 1.723 0 0 1 .36.029.64.64 0 0 1 .5.628.628.628 0 0 1-.5.631 3.4 3.4 0 0 1-.609.035h-1.88l-.05.079a9.227 9.227 0 0 0 .733.828 3.654 3.654 0 0 0 3.228.925 2.688 2.688 0 0 0 1.285-.752c.111-.1.213-.21.326-.307a.629.629 0 0 1 .883 0 .646.646 0 0 1 .038.915 4.054 4.054 0 0 1-2.364 1.441 4.527 4.527 0 0 1-.906.091 5.154 5.154 0 0 1-4.574-2.947z" class="cls-3" transform="translate(-.067 2.436)"/>
    </g>
</svg>
