<svg id="Layer_1" data-name="Layer 1" xmlns="http://www.w3.org/2000/svg" viewBox="0 0 32.49 24.39"><defs><style>.cls-1{fill:#006dff;}</style></defs><title>icono-integracion</title><path class="cls-1" d="M4.05,12.2l6-6A1.68,1.68,0,1,0,7.65,3.85L.49,11a1.69,1.69,0,0,0,0,2.38l7.16,7.16A1.68,1.68,0,1,0,10,18.17Z"/><path class="cls-1" d="M28.44,12.2l-6-6a1.68,1.68,0,1,1,2.38-2.37L32,11a1.69,1.69,0,0,1,0,2.38l-7.17,7.16a1.68,1.68,0,0,1-2.38-2.38Z"/><path class="cls-1" d="M12.46,24.39a1.64,1.64,0,0,1-.57-.1,1.69,1.69,0,0,1-1-2.15l7.57-21a1.68,1.68,0,0,1,3.16,1.14L14,23.28A1.68,1.68,0,0,1,12.46,24.39Z"/><path class="cls-1" d="M4.05,12.2l6-6A1.68,1.68,0,1,0,7.65,3.85L.49,11a1.69,1.69,0,0,0,0,2.38l7.16,7.16A1.68,1.68,0,1,0,10,18.17Z"/><path class="cls-1" d="M28.44,12.2l-6-6a1.68,1.68,0,1,1,2.38-2.37L32,11a1.69,1.69,0,0,1,0,2.38l-7.17,7.16a1.68,1.68,0,0,1-2.38-2.38Z"/><path class="cls-1" d="M12.46,24.39a1.64,1.64,0,0,1-.57-.1,1.69,1.69,0,0,1-1-2.15l7.57-21a1.68,1.68,0,0,1,3.16,1.14L14,23.28A1.68,1.68,0,0,1,12.46,24.39Z"/></svg>