<svg xmlns="http://www.w3.org/2000/svg" width="48" height="48" viewBox="0 0 48 48">
    <defs>
    <style>#prefix__Icon_-_Link{fill:url(#prefix__linear-gradient);}</style>
        <linearGradient id="prefix__linear-gradient" x1=".079" x2=".695" y2=".902" gradientUnits="objectBoundingBox">
            <stop offset="0" stop-color="#006dff"/>
            <stop offset="1" stop-color="#43d2f1"/>
            <stop offset="1"/>
        </linearGradient>
        <clipPath id="prefix__clip-path">
            <path id="prefix__Rect치ngulo_1806" d="M0 0H48V48H0z" data-name="Rect치ngulo 1806"/>
        </clipPath>
    </defs>
    <g id="prefix__Icon_-_Link" data-name="Icon - Link">
        <path id="prefix__Uni칩n_66" d="M.488 22.887c-1.016-2.008-.4-4.222 1.4-6.042q3-3.025 6-6.042c.125-.129.247-.26.383-.377a1.129 1.129 0 0 1 1.6 1.592c-.638.71-1.332 1.371-2 2.05-1.514 1.527-3.037 3.044-4.54 4.583a2.962 2.962 0 0 0-.078 4.4 11.886 11.886 0 0 0 .952.949 2.872 2.872 0 0 0 4.227-.112q3.268-3.251 6.5-6.552a3.025 3.025 0 0 0 .257-4.218 1.871 1.871 0 0 1-.245-1.444c.252-.755 1.284-.731 1.92-.04a5.121 5.121 0 0 1 .154 6.752c-2.408 2.609-4.956 5.092-7.493 7.584a4.937 4.937 0 0 1-3.653 1.16c-2.456-.175-4.201-1.914-5.384-4.243zm18.629-6.2c-.519-.533-.458-1.116.28-1.862 2.007-2.044 4.014-4.091 6.053-6.107 1.05-1.038 1.64-2.246.957-3.63-.73-1.475-1.826-2.782-3.625-2.8a3.5 3.5 0 0 0-2.206.952c-2.234 2.11-4.376 4.319-6.52 6.529a2.928 2.928 0 0 0-.179 4.2c.458.6.6 1.183 0 1.75-.529.5-1.158.372-1.774-.316a5.213 5.213 0 0 1 .052-6.9c2.33-2.436 4.734-4.813 7.126-7.194A4.721 4.721 0 0 1 22.778 0a6.982 6.982 0 0 1 5.76 4.207 5.32 5.32 0 0 1-1.455 6.049q-3.067 3.084-6.114 6.175a1.672 1.672 0 0 1-1.12.6 1.014 1.014 0 0 1-.732-.344z" data-name="Uni칩n 66" transform="translate(9.524 10.437)"/>
    </g>
</svg>
