<svg id="Layer_1" data-name="Layer 1" xmlns="http://www.w3.org/2000/svg" xmlns:xlink="http://www.w3.org/1999/xlink" viewBox="0 0 60.23 60.23"><defs><style>.cls-1{fill:url(#linear-gradient);}.cls-2{fill:url(#linear-gradient-2);}</style><linearGradient id="linear-gradient" x1="53.2" y1="14.04" x2="9.23" y2="66.45" gradientUnits="userSpaceOnUse"><stop offset="0" stop-color="#006dff"/><stop offset="1" stop-color="#43d2f1"/></linearGradient><linearGradient id="linear-gradient-2" x1="47.32" y1="53.91" x2="41.02" y2="61.42" xlink:href="#linear-gradient"/></defs><title>icono-card</title><path class="cls-1" d="M60,57.67c-.14-.63-3.47-9.27-12.18-12.29-4.87-1.69-5.69-2.52-8.33-2.92,2.06-3.71,4.65-9.73,5-14.34.34-4.79-.61-11.9-2.74-15.05-3.94-5.86-11.7-5.92-12-5.92s-8.09.07-12,5.92c-2.12,3.15-3.07,10.27-2.74,15.05a32.55,32.55,0,0,0,2.76,9.79,5.2,5.2,0,0,1-5-5.24V21.24a17.19,17.19,0,0,1,17-17.33,17.19,17.19,0,0,1,17,17.33v12a1.72,1.72,0,0,0,1.7,1.73,7.4,7.4,0,0,0,1.68-14.57A20.61,20.61,0,0,0,29.69.45,20.61,20.61,0,0,0,9.3,20.37,7.42,7.42,0,0,0,9.55,34.8a8.59,8.59,0,0,0,8.28,6.6h1.49q.29.56.57,1.07c-2.64.4-2.61,1.23-7.48,2.92C3.7,48.4.37,57,.23,57.67a1.74,1.74,0,0,0,1.29,2.07,1.67,1.67,0,0,0,.37,0,1.71,1.71,0,0,0,1.66-1.35c.83-3.74,4.23-7.78,10-9.76,6-2.09,6.86-2.8,8.72-3A11.25,11.25,0,0,0,28,48.18V58a1.7,1.7,0,1,0,3.4,0V48.18a11.23,11.23,0,0,0,5.75-2.53c1.86.21,3.54.92,9.58,3,5.73,2,9.13,6,10,9.76a1.71,1.71,0,0,0,1.66,1.35,1.67,1.67,0,0,0,.37,0A1.73,1.73,0,0,0,60,57.67ZM52.25,27.56a3.92,3.92,0,0,1-2.15,3.5v-7A3.92,3.92,0,0,1,52.25,27.56Zm-45.12,0a3.92,3.92,0,0,1,2.15-3.5v7A3.92,3.92,0,0,1,7.13,27.56ZM27.82,37.93h-6.4a32.68,32.68,0,0,1-3.11-10C18,23.22,19,17.22,20.46,15c2.93-4.36,9.17-4.42,9.23-4.42S36,10.68,38.92,15c1.47,2.19,2.48,8.19,2.15,12.85-.27,3.91-2.88,10.23-5.24,14.07a4.85,4.85,0,0,1-.41.56,1.72,1.72,0,0,0-.3.33c-2,2-5.38,2-5.42,2h0s-3.41,0-5.42-2a1.77,1.77,0,0,0-.31-.34,4.73,4.73,0,0,1-.4-.55l-.33-.56h4.61a1.73,1.73,0,0,0,0-3.46Z"/><path class="cls-2" d="M49.12,55.94h-9.9a1.73,1.73,0,0,0,0,3.47h9.9a1.73,1.73,0,0,0,0-3.47Z"/></svg>