<svg id="Layer_1" data-name="Layer 1" xmlns="http://www.w3.org/2000/svg" viewBox="0 0 39.02 37.79"><defs><style>.cls-1{fill:#006dff;}</style></defs><title>icono-02-02</title><path class="cls-1" d="M5.9,8.32,14,31.67a1.43,1.43,0,0,0,1.24,1h.1a1.43,1.43,0,0,0,1.29-.72l3.58-6.78,4.06,4.06a2.39,2.39,0,0,0,3.38,0h0l2.05-2.05a2.39,2.39,0,0,0,0-3.38h0l-4.06-4.06,6.83-3.63a1.43,1.43,0,0,0-.19-2.63L9,5.31A2.39,2.39,0,0,0,5.9,8.37Zm22.35,6.73-5.63,3a1.43,1.43,0,0,0-.33,2.29l5.11,5.11L26,26.8l-5.11-5.11A1.43,1.43,0,0,0,18.6,22l-3,5.63L8.91,8.32Z"/></svg>