<svg id="Layer_1" data-name="Layer 1" xmlns="http://www.w3.org/2000/svg" viewBox="0 0 39.02 37.79"><defs><style>.cls-1{fill:#006dff;}</style></defs><title>icono-01-02</title><path class="cls-1" d="M34.8,18H19a4.48,4.48,0,0,0-8.46,0H8.8a1.5,1.5,0,0,0,0,3h1.77A4.48,4.48,0,0,0,19,21H34.8a1.5,1.5,0,0,0,0-3Z"/><path class="cls-1" d="M8.8,11H23.57A4.48,4.48,0,0,0,32,11H34.8a1.5,1.5,0,0,0,0-3H32a4.48,4.48,0,0,0-8.46,0H8.8a1.5,1.5,0,0,0,0,3Z"/><path class="cls-1" d="M34.8,28H30a4.48,4.48,0,0,0-8.46,0H8.8a1.5,1.5,0,0,0,0,3H21.57A4.48,4.48,0,0,0,30,31H34.8a1.5,1.5,0,0,0,0-3Z"/></svg>