<svg xmlns="http://www.w3.org/2000/svg" width="33.642" height="31.153" viewBox="0 0 33.642 31.153">
    <defs>
        <style>
            .cls-3{fill:#fe318f}.cls-4{fill:#fd0f7f}.cls-5{fill:#1bd9de}
        </style>
    </defs>
    <g id="_595990" transform="rotate(14.98 30.12 -65.116)">
        <path id="Trazado_11431" fill="#713708" d="M232.762 320l-1.337 1.337a.946.946 0 0 1-1.338-1.337l1.337-1.337a.946.946 0 0 0 0-1.337l-1.23-1.23a.946.946 0 0 1 1.337-1.337l1.23 1.23a2.84 2.84 0 0 1 .001 4.011z" transform="translate(-193.236 -295.229)"/>
        <path id="Trazado_11432" fill="#994c0f" d="M167.234 359.38a1.891 1.891 0 0 1-2.675 0l-6.687-6.687 2.675-2.675 6.687 6.687a1.891 1.891 0 0 1 0 2.675z" transform="translate(-125.702 -328.591)"/>
        <path id="Trazado_11433" d="M32.117 261.753l4.146 4.146-.08 2.595-4.683 4.681a2.866 2.866 0 0 1-4.039-.027l-2.675-2.675a2.813 2.813 0 0 1 .027-3.986l4.681-4.681z" class="cls-3" transform="translate(0 -245.729)"/>
        <path id="Trazado_11434" d="M67.583 295.4l2.086 2.086-.08 2.595-4.681 4.681a2.866 2.866 0 0 1-4.039-.027l-1.311-1.311z" class="cls-4" transform="translate(-33.406 -277.316)"/>
        <g id="Grupo_11937" transform="translate(42.924)">
            <path id="Trazado_11435" d="M334.484 3.783a.945.945 0 0 1-.946-.946V.946a.946.946 0 1 1 1.891 0v1.891a.945.945 0 0 1-.945.946z" class="cls-5" transform="translate(-333.538)"/>
            <path id="Trazado_11436" d="M429.067 125.48h-1.892a.946.946 0 0 1 0-1.891h1.892a.946.946 0 0 1 0 1.891z" class="cls-5" transform="translate(-420.556 -116.022)"/>
            <path id="Trazado_11437" d="M397.23 28.922a.936.936 0 0 1 0 1.337l-2.006 2.006a.946.946 0 1 1-1.337-1.337l2.006-2.006a.936.936 0 0 1 1.337 0z" class="cls-5" transform="translate(-389.928 -26.888)"/>
        </g>
        <path id="Trazado_11438" fill="#cae8f9" d="M123.538 49.183l9.362 9.362c.268.268.6 3.089.95 3.143l-2.635.548a20.509 20.509 0 0 0-10.124 5.443l-.227.227-6.687-6.687.227-.227a19.875 19.875 0 0 0 5.4-10.165l.548-2.742z" transform="translate(-84.681 -45.142)"/>
        <path id="Trazado_11439" fill="#e1e4fb" d="M101.62 334.787a.936.936 0 0 1 0 1.337l-1.337 1.337a.946.946 0 0 1-1.337-1.337l1.337-1.337a.936.936 0 0 1 1.337 0z" transform="translate(-70.119 -314.029)"/>
        <path id="Trazado_11440" fill="#b7e0f6" d="M179.5 142.467l4.681 4.681c.268.268.6 3.089.95 3.143l-2.635.548a20.508 20.508 0 0 0-10.124 5.443l-.227.227-3.344-3.344z" transform="translate(-135.957 -133.746)"/>
        <path id="Trazado_11441" fill="#c5c9f7" d="M105.928 339.094a.936.936 0 0 1 0 1.337l-1.337 1.337a.936.936 0 0 1-1.337 0z" transform="translate(-74.427 -318.335)"/>
        <path id="Trazado_11442" d="M218.046 13.847l12.037 12.037a1.9 1.9 0 0 1 0 2.675 1.1 1.1 0 0 1-.294.187 1.767 1.767 0 0 1-1.431.281 1.685 1.685 0 0 1-.95-.468l-12.037-12.038a1.941 1.941 0 0 1-.281-2.26 2.254 2.254 0 0 1 .281-.415 1.9 1.9 0 0 1 2.675.001z" class="cls-3" transform="translate(-179.189 -12.481)"/>
        <path id="Trazado_11443" d="M324.4 120.62l6.018 6.018a1.9 1.9 0 0 1 0 2.675 1.1 1.1 0 0 1-.294.187 1.767 1.767 0 0 1-1.431.281 1.685 1.685 0 0 1-.95-.468l-6.018-6.018z" class="cls-4" transform="translate(-279.525 -113.236)"/>
    </g>
</svg>
