<svg id="Layer_1" data-name="Layer 1" xmlns="http://www.w3.org/2000/svg" viewBox="0 0 39.02 37.79"><defs><style>.cls-1{fill:#006dff;}</style></defs><title>icono-03-03</title><path class="cls-1" d="M34.35,22.86V7.33a2.16,2.16,0,0,0-2.16-2.16H6.83A2.16,2.16,0,0,0,4.68,7.33V26.42h0a1.9,1.9,0,0,0,1.9,1.83H16.2c0,.43-.25,2.36-3.15,2.73h.09a.83.83,0,1,0,0,1.65H25.83a.83.83,0,0,0,0-1.65H26c-2.89-.36-3.13-2.3-3.15-2.73h9.63a1.9,1.9,0,0,0,1.9-1.83h0V22.86ZM19.51,27.17a1.06,1.06,0,1,1,1.06-1.06A1.06,1.06,0,0,1,19.51,27.17ZM31.68,22.7a.35.35,0,0,1-.35.35H7.7a.35.35,0,0,1-.35-.35V7.87a.35.35,0,0,1,.35-.35H31.33a.35.35,0,0,1,.35.35Z"/></svg>