<svg xmlns="http://www.w3.org/2000/svg" width="48" height="48" viewBox="0 0 48 48">
    <defs>
    <style>#prefix__Unión_65{fill:url(#prefix__linear-gradient);}</style>
        <linearGradient id="prefix__linear-gradient" x1=".058" x2=".887" y2="1.034" gradientUnits="objectBoundingBox">
            <stop offset="0" stop-color="#006dff"/>
            <stop offset="1" stop-color="#43d2f1"/>
        </linearGradient>
        <clipPath id="prefix__clip-path">
            <path id="prefix__Rectángulo_1805" d="M0 0H48V48H0z" data-name="Rectángulo 1805"/>
        </clipPath>
    </defs>
    <g id="prefix__Icon_-_TPV_Virtual" data-name="Icon - TPV Virtual">
        <path id="prefix__Unión_65" d="M12.591 31.933a3.511 3.511 0 1 1 3.509 3.655 3.588 3.588 0 0 1-3.509-3.655zm1.56 0a1.97 1.97 0 1 0 .547-1.426 1.951 1.951 0 0 0-.547 1.426zm25.518 3.645a.827.827 0 0 1-.548-.347l-3.852-5.352-2.8 4.91a.841.841 0 0 1-.529.4.779.779 0 0 1-.353 0 .85.85 0 0 1-.643-.655l-4.819-21.9a.877.877 0 0 1 .414-.956.8.8 0 0 1 .807.016l18.831 10.94a.859.859 0 0 1 .4.544.892.892 0 0 1-.092.654.828.828 0 0 1-.51.4l-5.3 1.42 3.881 5.394a.857.857 0 0 1 .137.609.868.868 0 0 1-.322.57l-4.087 3.194a.834.834 0 0 1-.5.172.73.73 0 0 1-.116-.013zm-4.307-8.092a.832.832 0 0 1 .495.327l4.1 5.693 2.767-2.162-4.106-5.689a.847.847 0 0 1-.139-.3.891.891 0 0 1 .184-.8.812.812 0 0 1 .41-.259l4.49-1.211-15.4-8.941 3.941 17.889 2.371-4.141a.833.833 0 0 1 .217-.252.82.82 0 0 1 .239-.13.792.792 0 0 1 .257-.042.814.814 0 0 1 .17.018zm-22.542-.2a.936.936 0 0 1-.769-.427 1.019 1.019 0 0 1-.085-.906l2.165-5.429-2.071-5.4Q9.652 8.835 7.231 2.563l-.116-.3H1.274A.945.945 0 0 1 .351 1.3a.945.945 0 0 1 .923-.962h6.467a.955.955 0 0 1 .855.6l1.617 4.211H41a.91.91 0 0 1 .694.383.985.985 0 0 1 .209.787l-3.739 9.84-1.687-.98 3.354-8.1H10.955l4.782 12.445 10.31-1.284.415 1.888-10.682 1.315-1.58 3.914 13.27.031.423 1.925z" data-name="Unión 65" transform="translate(.393 7.135)"/>
    </g>
</svg>
