<?xml version="1.0" encoding="utf-8"?>
<!-- Generator: Adobe Illustrator 21.1.0, SVG Export Plug-In . SVG Version: 6.00 Build 0)  -->
<svg version="1.1" id="Layer_1" xmlns="http://www.w3.org/2000/svg" xmlns:xlink="http://www.w3.org/1999/xlink" x="0px" y="0px"
	 viewBox="0 0 39 37.8" style="enable-background:new 0 0 39 37.8;" xml:space="preserve">
<style type="text/css">
	.st0{fill:#006DFF;}
</style>
<title>icono-02-04</title>
<g>
	<path class="st0" d="M21.5,4.3l-0.8-0.1l-0.3-0.8c-0.1-0.2-0.3-0.4-0.5-0.5c-0.2-0.1-0.5-0.1-0.7,0c-0.2,0.1-0.4,0.3-0.5,0.5
		l-0.3,0.8l-0.8,0.1c-0.5,0-0.9,0.4-0.8,0.9c0,0.2,0.1,0.5,0.3,0.6l0.7,0.5l-0.2,0.8c-0.1,0.2,0,0.5,0.1,0.7
		c0.1,0.2,0.3,0.3,0.6,0.4c0.2,0.1,0.5,0,0.7-0.1l0.7-0.5l0.7,0.5c0.1,0.1,0.3,0.1,0.5,0.1c0.1,0,0.1,0,0.2,0c0.2,0,0.4-0.2,0.6-0.4
		c0.1-0.2,0.2-0.5,0.1-0.7l-0.2-0.8L22,5.9c0.4-0.3,0.4-0.9,0.1-1.3C22,4.4,21.8,4.3,21.5,4.3z M20.5,4.2
		C20.6,4.2,20.6,4.2,20.5,4.2L20.5,4.2C20.5,4.2,20.5,4.2,20.5,4.2z"/>
	<path class="st0" d="M10.8,8.9l0.8,0.1l0.2,0.8c0.1,0.2,0.2,0.4,0.4,0.5c0.1,0.1,0.3,0.1,0.4,0.1c0.1,0,0.2,0,0.3,0
		c0.2-0.1,0.4-0.2,0.5-0.4l0.4-0.8l0.8,0c0.2,0,0.5-0.1,0.6-0.2c0.2-0.2,0.3-0.4,0.3-0.6c0-0.3-0.1-0.5-0.3-0.7l-0.6-0.6l0.3-0.8
		c0.1-0.2,0.1-0.5,0-0.7s-0.3-0.4-0.5-0.5c-0.2-0.1-0.5-0.1-0.7,0l-0.8,0.4l-0.6-0.5c-0.4-0.3-1-0.2-1.3,0.2C11.1,5.5,11,5.7,11,6
		l0.1,0.9l-0.7,0.5C10,7.6,9.9,8.2,10.2,8.6C10.4,8.8,10.6,8.9,10.8,8.9z"/>
	<path class="st0" d="M6.2,12.6l-0.4,0.8c-0.2,0.4-0.1,1,0.4,1.2c0.2,0.1,0.5,0.1,0.7,0.1l0.8-0.3L8.3,15c0.2,0.2,0.4,0.2,0.6,0.2
		c0.2,0,0.5-0.1,0.7-0.3c0.2-0.2,0.2-0.4,0.2-0.6l0-0.9l0.8-0.4c0.4-0.2,0.6-0.8,0.4-1.2c-0.1-0.2-0.3-0.4-0.5-0.4l-0.8-0.2
		l-0.1-0.9c-0.1-0.5-0.6-0.8-1-0.7C8.2,9.6,8,9.7,7.9,10l-0.5,0.7l-0.9-0.2c-0.5-0.1-0.9,0.3-1,0.8c0,0.2,0,0.5,0.2,0.7L6.2,12.6z"
		/>
	<path class="st0" d="M5.9,21.8c0.2,0,0.5-0.1,0.6-0.3L7,20.8L7.9,21c0.2,0.1,0.5,0,0.7-0.1c0.2-0.1,0.3-0.3,0.4-0.6
		c0.1-0.2,0-0.5-0.1-0.7l-0.5-0.7l0.4-0.7c0.3-0.4,0.2-1-0.2-1.2c-0.2-0.1-0.4-0.2-0.7-0.1L7,17.1l-0.5-0.7
		c-0.2-0.2-0.4-0.3-0.6-0.3c-0.2,0-0.5,0-0.7,0.2c-0.2,0.2-0.3,0.4-0.3,0.6l-0.1,0.8l-0.8,0.3c-0.5,0.2-0.7,0.7-0.5,1.2
		c0.1,0.2,0.3,0.4,0.5,0.5l0.8,0.3l0.1,0.8C4.9,21.4,5.3,21.8,5.9,21.8C5.8,21.8,5.8,21.8,5.9,21.8z"/>
	<path class="st0" d="M11,26.1c0.1-0.2,0.2-0.4,0.1-0.7c-0.1-0.3-0.2-0.5-0.5-0.6l-0.8-0.4l0-0.8c0-0.2-0.1-0.5-0.2-0.6
		c-0.2-0.2-0.4-0.3-0.6-0.3c-0.3,0-0.5,0.1-0.7,0.2l-0.6,0.6l-0.9-0.3c-0.5-0.2-1,0.1-1.2,0.5c-0.1,0.2-0.1,0.5,0,0.7l0.4,0.8
		l-0.5,0.6c-0.1,0.2-0.2,0.4-0.2,0.7s0.2,0.5,0.4,0.6c0.2,0.1,0.4,0.2,0.6,0.2l0.9-0.1l0.5,0.6c0.1,0.2,0.3,0.4,0.5,0.4
		c0.1,0,0.2,0,0.3,0c0.1,0,0.3,0,0.4-0.1c0.3-0.1,0.4-0.4,0.5-0.7l0.1-0.8l0.8-0.2C10.7,26.5,10.9,26.3,11,26.1z"/>
	<path class="st0" d="M14.8,28.5l-0.8,0l-0.4-0.7c-0.1-0.2-0.3-0.4-0.5-0.4c-0.2-0.1-0.5-0.1-0.7,0.1c-0.2,0.1-0.4,0.3-0.4,0.5
		l-0.2,0.9L10.8,29c-0.2,0-0.4,0.2-0.6,0.4c-0.1,0.2-0.2,0.4-0.1,0.7c0,0.2,0.2,0.4,0.4,0.6l0.7,0.5L11,31.9c-0.1,0.5,0.3,0.9,0.8,1
		c0,0,0.1,0,0.1,0c0.2,0,0.4-0.1,0.6-0.2l0.7-0.5l0.8,0.4c0.2,0.1,0.5,0.1,0.7,0.1c0.2-0.1,0.4-0.2,0.5-0.4c0.1-0.2,0.1-0.5,0.1-0.7
		L15,30.7l0.6-0.6c0.4-0.4,0.4-1,0-1.3C15.3,28.6,15.1,28.5,14.8,28.5z M14.9,30.8C14.9,30.8,14.9,30.8,14.9,30.8L14.9,30.8
		C14.9,30.8,14.9,30.8,14.9,30.8z"/>
	<path class="st0" d="M21.4,31.4l0.2-0.8c0.1-0.2,0-0.5-0.1-0.7c-0.1-0.2-0.3-0.4-0.5-0.4c-0.3-0.1-0.5,0-0.7,0.1L19.5,30l-0.7-0.5
		c-0.4-0.3-1-0.1-1.2,0.3c-0.1,0.2-0.2,0.5-0.1,0.7l0.2,0.8l-0.7,0.5c-0.4,0.3-0.4,0.9-0.1,1.3c0.2,0.2,0.4,0.3,0.6,0.3l0.8,0.1
		l0.3,0.8c0.2,0.3,0.5,0.5,0.8,0.5c0.1,0,0.2,0,0.4-0.1c0.2-0.1,0.4-0.3,0.5-0.5l0.3-0.8l0.8-0.1c0.5,0,0.9-0.4,0.8-0.9
		c0-0.2-0.1-0.5-0.3-0.6L21.4,31.4z"/>
	<path class="st0" d="M28.2,28.9l-0.8-0.1l-0.3-0.8c-0.1-0.2-0.2-0.4-0.4-0.5c-0.2-0.1-0.4-0.1-0.7-0.1c-0.2,0.1-0.4,0.2-0.5,0.4
		L25,28.5h-0.8c-0.2,0-0.5,0.1-0.6,0.2s-0.3,0.4-0.3,0.6c0,0.3,0.1,0.5,0.3,0.7l0.6,0.7l-0.3,0.8c-0.2,0.5,0.1,1,0.5,1.2
		c0.2,0.1,0.5,0.1,0.7,0l0.8-0.4l0.7,0.5c0.2,0.1,0.3,0.2,0.5,0.2c0.3,0,0.6-0.1,0.7-0.4c0.1-0.2,0.2-0.4,0.2-0.7L27.8,31l0.6-0.4
		c0.4-0.2,0.6-0.8,0.4-1.2C28.7,29.1,28.5,28.9,28.2,28.9z M24.1,30.6L24.1,30.6L24.1,30.6L24.1,30.6z"/>
	<path class="st0" d="M32.8,25.3l0.4-0.8c0.2-0.4,0.1-1-0.4-1.2c-0.2-0.1-0.5-0.1-0.7-0.1l-0.8,0.3l-0.7-0.6c-0.4-0.3-0.9-0.3-1.3,0
		c-0.2,0.2-0.2,0.4-0.2,0.6l0,0.9l-0.8,0.4c-0.2,0.1-0.4,0.3-0.4,0.5s0,0.5,0.1,0.7c0.1,0.2,0.3,0.4,0.5,0.4l0.8,0.2l0.1,0.8
		c0,0.2,0.2,0.4,0.4,0.6c0.2,0.1,0.3,0.2,0.5,0.2c0.1,0,0.1,0,0.2,0c0.2,0,0.4-0.2,0.6-0.4l0.5-0.7l0.9,0.1c0.2,0,0.5,0,0.7-0.2
		c0.2-0.1,0.3-0.4,0.3-0.6c0-0.2,0-0.5-0.2-0.7L32.8,25.3z"/>
	<path class="st0" d="M35.4,18.6c-0.1-0.2-0.3-0.4-0.5-0.5l-0.8-0.3L34.1,17c0-0.2-0.1-0.5-0.3-0.6c-0.2-0.2-0.4-0.2-0.6-0.2
		c-0.2,0-0.5,0.1-0.6,0.3L32,17.1l-0.9-0.3c-0.2-0.1-0.5,0-0.7,0.1c-0.2,0.1-0.3,0.3-0.4,0.5c-0.1,0.2,0,0.5,0.1,0.7l0.5,0.7
		l-0.5,0.7c-0.3,0.4-0.1,1,0.3,1.2c0.2,0.1,0.5,0.2,0.7,0.1l0.8-0.2l0.5,0.7c0.2,0.2,0.4,0.3,0.7,0.3c0.2,0,0.4-0.1,0.6-0.2
		c0.2-0.2,0.3-0.4,0.3-0.6l0.1-0.8l0.8-0.3c0.2-0.1,0.4-0.2,0.5-0.5C35.5,19.1,35.5,18.8,35.4,18.6z"/>
	<path class="st0" d="M27.9,12.3c0.1,0.3,0.2,0.5,0.5,0.6l0.8,0.4v0.8c0,0.5,0.4,0.9,0.9,0.9c0,0,0,0,0,0c0.2,0,0.5-0.1,0.6-0.3
		l0.7-0.6l0.8,0.3c0.2,0.1,0.5,0.1,0.7,0c0.2-0.1,0.4-0.3,0.5-0.5c0.1-0.2,0.1-0.5,0-0.7l-0.4-0.8l0.5-0.7c0.3-0.4,0.2-1-0.2-1.3
		c-0.2-0.1-0.4-0.2-0.7-0.2l-0.8,0.2l-0.5-0.7c-0.1-0.2-0.3-0.3-0.6-0.4c-0.2,0-0.5,0-0.7,0.2c-0.2,0.1-0.3,0.3-0.4,0.6l-0.1,0.8
		l-0.8,0.2C28.1,11.4,27.8,11.9,27.9,12.3z M31.2,14.3L31.2,14.3L31.2,14.3L31.2,14.3z M29.4,11L29.4,11L29.4,11
		C29.4,11,29.4,11,29.4,11z"/>
	<path class="st0" d="M23.7,9.3c0.2,0.1,0.4,0,0.6,0l0.8,0l0.4,0.8c0.2,0.3,0.5,0.5,0.8,0.5c0.1,0,0.3,0,0.4-0.1
		c0.2-0.1,0.4-0.3,0.4-0.5l0.2-0.8l0.8-0.1c0.5-0.1,0.8-0.6,0.7-1c0-0.2-0.2-0.4-0.4-0.6l-0.7-0.5L27.9,6C28,5.5,27.7,5,27.2,5
		c-0.2,0-0.5,0-0.6,0.1l-0.8,0.4L25,5.2c-0.4-0.2-1-0.1-1.2,0.4c-0.1,0.2-0.1,0.5-0.1,0.7L24,7.1l-0.5,0.6c-0.2,0.1-0.3,0.3-0.4,0.5
		c-0.1,0.2,0,0.5,0.1,0.7C23.3,9.1,23.5,9.3,23.7,9.3z"/>
</g>
</svg>
