<svg id="Layer_1" data-name="Layer 1" xmlns="http://www.w3.org/2000/svg" xmlns:xlink="http://www.w3.org/1999/xlink" viewBox="0 0 60.23 60.23"><defs><style>.cls-1{fill:url(#linear-gradient);}.cls-2{fill:url(#linear-gradient-2);}.cls-3{fill:url(#linear-gradient-3);}</style><linearGradient id="linear-gradient" x1="33.48" y1="11.59" x2="28.43" y2="17.6" gradientUnits="userSpaceOnUse"><stop offset="0" stop-color="#006dff"/><stop offset="1" stop-color="#43d2f1"/></linearGradient><linearGradient id="linear-gradient-2" x1="52.78" y1="46.91" x2="47.57" y2="53.12" xlink:href="#linear-gradient"/><linearGradient id="linear-gradient-3" x1="37.45" y1="5.49" x2="8.16" y2="40.38" xlink:href="#linear-gradient"/></defs><title>icono-card</title><path class="cls-1" d="M23.51,10.89A11.35,11.35,0,0,1,34.85,22.23a1.61,1.61,0,1,0,3.22,0A14.54,14.54,0,0,0,23.51,7.67a1.61,1.61,0,1,0,0,3.22Z"/><path class="cls-2" d="M41.09,40.9a3.19,3.19,0,0,0,0,4.57L54.74,59.12a3.23,3.23,0,0,0,2.25,1,3.12,3.12,0,0,0,2.25-1,3.19,3.19,0,0,0,0-4.57L45.6,40.9A3.23,3.23,0,0,0,41.09,40.9Z"/><path class="cls-3" d="M22.81,45.73A22.79,22.79,0,1,0,0,22.94,22.84,22.84,0,0,0,22.81,45.73Zm0-41.08A18.29,18.29,0,1,1,4.52,22.94,18.27,18.27,0,0,1,22.81,4.65Z"/></svg>