<svg id="Layer_1" data-name="Layer 1" xmlns="http://www.w3.org/2000/svg" viewBox="0 0 39.02 37.79"><defs><style>.cls-1{fill:#006dff;}</style></defs><title>icono-02-01</title><path class="cls-1" d="M33.49,12.64H30.26a10.87,10.87,0,0,0-21.49,0H5.54A1.55,1.55,0,0,0,4,14.2v6.21A1.55,1.55,0,0,0,5.54,22h.34L8.64,33.2a1.55,1.55,0,0,0,1.55,1.18H28.83a1.55,1.55,0,0,0,1.55-1.18L33.14,22h.34A1.55,1.55,0,0,0,35,20.41V14.2A1.55,1.55,0,0,0,33.49,12.64Zm-14-6.21a7.76,7.76,0,0,1,7.61,6.21H11.9A7.76,7.76,0,0,1,19.51,6.43ZM7.09,15.75H31.93v3.11H7.09Zm14,15.53V22h4.22L23,31.28Zm-5,0L13.74,22H18v9.32ZM9.08,22h1.46l2.33,9.32H11.41Zm18.54,9.32H26.16L28.49,22h1.46Z"/></svg>