<svg id="Layer_1" data-name="Layer 1" xmlns="http://www.w3.org/2000/svg" xmlns:xlink="http://www.w3.org/1999/xlink" viewBox="0 0 94.06 88.18"><defs><style>.cls-1{fill:url(#linear-gradient);}</style><linearGradient id="linear-gradient" y1="44.09" x2="94.06" y2="44.09" gradientUnits="userSpaceOnUse"><stop offset="0" stop-color="#006dff"/><stop offset="1" stop-color="#43d2f1"/></linearGradient></defs><title>icono</title><path class="cls-1" d="M82.31,82.3H11.75A11.76,11.76,0,0,1,0,70.55V11.75A11.76,11.76,0,0,1,11.75,0H82.31A11.76,11.76,0,0,1,94.06,11.75v58.8A11.77,11.77,0,0,1,82.31,82.3ZM11.75,5.88a5.88,5.88,0,0,0-5.87,5.87v58.8a5.88,5.88,0,0,0,5.87,5.87H82.31a5.88,5.88,0,0,0,5.87-5.87V11.75a5.88,5.88,0,0,0-5.87-5.87Zm5.88,61.73a2.94,2.94,0,0,1-2.94-2.94v-47a2.94,2.94,0,0,1,5.88,0v47A2.94,2.94,0,0,1,17.64,67.61Zm38.21,0A8.85,8.85,0,0,1,48,62.85l-.18-.32c-1.78-3.81-2.32-4.13-6.53-3.77H41a8.79,8.79,0,0,1-7.8-13.52l.2-.32c2.41-3.45,2.41-4.09,0-7.54l-.2-.33A8.79,8.79,0,0,1,41,23.54h.38c4.19.36,4.74,0,6.53-3.77l.18-.32a8.78,8.78,0,0,1,15.62,0l.17.32c1.79,3.81,2.33,4.13,6.53,3.77h.39a8.76,8.76,0,0,1,8,4.39,8.85,8.85,0,0,1-.21,9.13l-.19.32c-2.41,3.45-2.41,4.09,0,7.54l.2.33a8.79,8.79,0,0,1-7.81,13.51h-.38c-4.2-.36-4.74,0-6.53,3.77l-.18.33A8.85,8.85,0,0,1,55.85,67.61ZM53,59.74l.15.28a3,3,0,0,0,5.31,0l.15-.28c2.74-5.7,5.59-7.35,11.89-6.87h.33a2.87,2.87,0,0,0,2.8-1.44,2.91,2.91,0,0,0-.15-3.15L73.34,48c-3.56-5.21-3.56-8.5,0-13.72l.17-.28a2.91,2.91,0,0,0-2.65-4.59h-.33c-6.32.49-9.15-1.17-11.89-6.88l-.14-.27a3,3,0,0,0-5.31,0l-.14.27c-2.74,5.71-5.57,7.36-11.89,6.87h-.32A2.91,2.91,0,0,0,38.18,34l.17.28c3.56,5.21,3.56,8.5,0,13.72l-.17.28a2.91,2.91,0,0,0,2.65,4.59h.33C47.46,52.39,50.31,54,53,59.74Zm2.8-6.83A11.76,11.76,0,1,1,67.61,41.15,11.77,11.77,0,0,1,55.85,52.91Zm0-17.64a5.88,5.88,0,1,0,5.88,5.88A5.88,5.88,0,0,0,55.85,35.27ZM11.76,88.18a2.94,2.94,0,0,1-2.94-2.94V79.36a2.94,2.94,0,1,1,5.88,0v5.88A2.94,2.94,0,0,1,11.76,88.18Zm70.54,0a2.94,2.94,0,0,1-2.94-2.94V79.36a2.94,2.94,0,1,1,5.88,0v5.88A2.94,2.94,0,0,1,82.3,88.18Z"/></svg>