<svg id="Layer_1" data-name="Layer 1" xmlns="http://www.w3.org/2000/svg" viewBox="0 0 39.02 37.79"><defs><style>.cls-1{fill:#006dff;}</style></defs><title>icono-04-01</title><path class="cls-1" d="M32,7.59H7.07A3.39,3.39,0,0,0,3.68,11V26.81a3.39,3.39,0,0,0,3.39,3.39H32a3.39,3.39,0,0,0,3.39-3.39V11A3.39,3.39,0,0,0,32,7.59ZM7.07,9.85H32A1.13,1.13,0,0,1,33.08,11v1.13H5.94V11A1.13,1.13,0,0,1,7.07,9.85ZM32,27.94H7.07a1.13,1.13,0,0,1-1.13-1.13V16.64H33.08V26.81A1.13,1.13,0,0,1,32,27.94Zm-1.13-5.65v2.26a1.13,1.13,0,0,1-1.13,1.13H27.43a1.13,1.13,0,0,1-1.13-1.13V22.29a1.13,1.13,0,0,1,1.13-1.13h2.26A1.13,1.13,0,0,1,30.82,22.29ZM24,23.42a1.13,1.13,0,0,1-1.13,1.13H9.33a1.13,1.13,0,1,1,0-2.26H22.9A1.13,1.13,0,0,1,24,23.42Z"/></svg>