<svg id="Layer_1" data-name="Layer 1" xmlns="http://www.w3.org/2000/svg" viewBox="0 0 39.02 37.79"><defs><style>.cls-1{fill:#006dff;}</style></defs><title>icono-04-02</title><path class="cls-1" d="M27.73,15.32A11.86,11.86,0,1,0,15.87,27.18,11.87,11.87,0,0,0,27.73,15.32ZM15.87,23.93a8.61,8.61,0,1,1,8.61-8.61A8.62,8.62,0,0,1,15.87,23.93Z"/><path class="cls-1" d="M15.27,8a1.3,1.3,0,1,0,0,2.6,5.15,5.15,0,0,1,5.15,5.15,1.3,1.3,0,0,0,2.6,0A7.76,7.76,0,0,0,15.27,8Z"/><path class="cls-1" d="M34.38,30.72l-6.8-6.8a2.12,2.12,0,0,0-3,0,2.09,2.09,0,0,0,0,3l6.8,6.8a2.11,2.11,0,0,0,1.48.63,2,2,0,0,0,1.48-.63,2.09,2.09,0,0,0,0-3Z"/></svg>