<svg id="Layer_1" data-name="Layer 1" xmlns="http://www.w3.org/2000/svg" viewBox="0 0 39.02 37.79"><defs><style>.cls-1{fill:#006dff;}</style></defs><title>icono-03-02</title><path class="cls-1" d="M23.4,14.36l-5.17,5.85-2.68-2.67a1.53,1.53,0,0,0-2.16,2.16l3.84,3.84a1.56,1.56,0,0,0,1.12.45,1.49,1.49,0,0,0,1.11-.52l6.24-7.11a1.56,1.56,0,0,0-.14-2.16A1.53,1.53,0,0,0,23.4,14.36Z"/><path class="cls-1" d="M25,5.81H14a7.58,7.58,0,0,0-7.57,7.57v11A7.58,7.58,0,0,0,14,32H25a7.58,7.58,0,0,0,7.57-7.57v-11A7.58,7.58,0,0,0,25,5.81Zm4.51,7.57v11A4.51,4.51,0,0,1,25,28.91H14a4.51,4.51,0,0,1-4.51-4.5v-11A4.51,4.51,0,0,1,14,8.88H25A4.51,4.51,0,0,1,29.53,13.39Z"/></svg>