<svg id="Layer_1" data-name="Layer 1" xmlns="http://www.w3.org/2000/svg" viewBox="0 0 39.02 37.79"><defs><style>.cls-1{fill:#006dff;}</style></defs><title>icono-01-04</title><path class="cls-1" d="M7.32,18.87l6-6A1.68,1.68,0,1,0,11,10.46l-.06.06L3.76,17.67a1.69,1.69,0,0,0,0,2.38l7.16,7.16a1.68,1.68,0,1,0,2.35-2.37Z"/><path class="cls-1" d="M31.71,18.87l-6-6A1.68,1.68,0,1,1,28,10.44l.06.06,7.18,7.17a1.69,1.69,0,0,1,0,2.38L28.1,27.21a1.68,1.68,0,1,1-2.38-2.38h0Z"/><path class="cls-1" d="M15.73,31.06a1.64,1.64,0,0,1-.57-.1,1.69,1.69,0,0,1-1-2.15l7.57-21A1.68,1.68,0,0,1,24.89,9L17.27,30A1.68,1.68,0,0,1,15.73,31.06Z"/></svg>