<svg xmlns="http://www.w3.org/2000/svg" width="31.737" height="31.256" viewBox="0 0 31.737 31.256">
    <defs>
        <linearGradient id="linear-gradient" x1=".5" x2=".5" y2="1" gradientUnits="objectBoundingBox">
            <stop offset="0" stop-color="#ff575f"/>
            <stop offset="1" stop-color="#ff9a6b"/>
        </linearGradient>
        <style>
            .cls-1{fill:#accffd}.cls-3{fill:#dae9fe}.cls-4{fill:none}
        </style>
    </defs>
    <g id="email-marketing" transform="translate(-10.504 -17.688)">
        <path id="Trazado_11283" d="M0 8.88V0l5.486 4.075z" class="cls-1" transform="translate(36.29 25.808)"/>
        <path id="Trazado_11284" d="M0 4.318l5.486 4.8V0z" class="cls-1" transform="translate(10.969 25.565)"/>
        <path id="Trazado_11285" fill="#fff" stroke="#ff6c62" d="M14.732 23.282H5.145L0 18.292V1.833A1.75 1.75 0 0 1 1.653 0h16.53a1.75 1.75 0 0 1 1.653 1.833V18.3z" transform="translate(16.455 18.188)"/>
        <path id="Trazado_11287" d="M29.648 8.787a1.853 1.853 0 0 1-1.28.511H1.28A1.853 1.853 0 0 1 0 8.787L10.051 0s7.232.021 9.587 0z" class="cls-3" transform="translate(11.548 39.181)"/>
        <path id="Trazado_11288" d="M5.589 4.658h-3.26a2.329 2.329 0 0 1 0-4.658h3.26z" class="cls-4" transform="translate(18.659 24.952)"/>
        <path id="Trazado_11289" d="M.932 11.179A.932.932 0 0 1 0 10.247V.932a.932.932 0 0 1 1.863 0v9.316a.932.932 0 0 1-.931.931z" class="cls-4" transform="translate(28.906 21.691)"/>
        <path id="Trazado_11290" d="M10.631 9.3L.58 18.085A1.852 1.852 0 0 1 0 16.736V0z" class="cls-3" transform="translate(10.969 29.883)"/>
        <path id="Trazado_11293" d="M10.589 0v16.736a1.853 1.853 0 0 1-.58 1.348L0 9.3z" class="cls-3" transform="translate(31.187 29.883)"/>
        <g id="Grupo_11383" transform="translate(10.504 20.001)">
            <path id="Trazado_11294" fill="#95c0fa" d="M31.272 13.538a.465.465 0 0 0 .465-.465v-7.21a.465.465 0 0 0-.188-.373l-5.156-3.765c0-3.873 0-.017 0 0 .025 1.227 0 3.595 0 7.773l-5.886 5.2c-1.918.013-8.118 0-9.236 0L5.259 9.653c0-3.638.056-6.307.081-8.193L.177 5.5A.465.465 0 0 0 0 5.863V22.6a2.326 2.326 0 0 0 2.325 2.325h27.088a2.326 2.326 0 0 0 2.324-2.325v-9.95a.465.465 0 1 0-.93 0v9.95a1.383 1.383 0 0 1-.174.677l-9.245-8.116 9.42-8.271v6.183a.465.465 0 0 0 .465.465zM26.393 2.883l4.141 3.01L26.393 9.5zM5.259 9.653L1.193 5.882 5.34 2.447zM2.325 23.994a1.39 1.39 0 0 1-.514-.1l7.82-6.833a.465.465 0 0 0-.612-.7L1.1 23.278a1.383 1.383 0 0 1-.17-.678V6.887l4.715 4.124 4.745 4.15-1.776 1.552a.465.465 0 1 0 .62.693l2.036-1.78c1.124 0 7.313.014 9.24 0l9.419 8.274a1.39 1.39 0 0 1-.516.1H2.325z" transform="translate(0 4.019)"/>
            <path id="Trazado_11343" fill="url(#linear-gradient)" d="M13.625 6.082a6.073 6.073 0 0 1-.384 2.2 3.641 3.641 0 0 1-1.085 1.564 2.51 2.51 0 0 1-1.627.567 2.024 2.024 0 0 1-1.093-.3 1.7 1.7 0 0 1-.684-.78h-.133a2.862 2.862 0 0 1-2.294 1.076A3.071 3.071 0 0 1 4 9.524a3.371 3.371 0 0 1-.851-2.432 3.758 3.758 0 0 1 1.115-2.837 4.034 4.034 0 0 1 2.92-1.076 10.108 10.108 0 0 1 1.581.138 8.7 8.7 0 0 1 1.423.33L10 7.726q0 1.16.634 1.16.534 0 .851-.78a5.5 5.5 0 0 0 .317-2.04 4.9 4.9 0 0 0-.559-2.374 3.794 3.794 0 0 0-1.577-1.573 4.832 4.832 0 0 0-2.315-.542 5.923 5.923 0 0 0-2.929.693 4.63 4.63 0 0 0-1.907 2 6.572 6.572 0 0 0-.663 3.016 4.782 4.782 0 0 0 1.231 3.534 4.83 4.83 0 0 0 3.567 1.228 10.75 10.75 0 0 0 1.944-.2 12.885 12.885 0 0 0 2.086-.572v1.6a10.029 10.029 0 0 1-3.963.759 6.93 6.93 0 0 1-4.944-1.669A6.062 6.062 0 0 1 0 7.334a7.765 7.765 0 0 1 .905-3.742A6.569 6.569 0 0 1 3.483.955 7.627 7.627 0 0 1 7.334 0a7 7 0 0 1 3.279.751 5.325 5.325 0 0 1 2.228 2.136 6.373 6.373 0 0 1 .784 3.195zM5.081 7.125q0 1.761 1.435 1.761a1.334 1.334 0 0 0 1.143-.53 3.35 3.35 0 0 0 .476-1.723l.108-1.844a4.569 4.569 0 0 0-.96-.092 2.061 2.061 0 0 0-1.623.651 2.575 2.575 0 0 0-.579 1.777z" transform="rotate(5 4.81 110.156)"/>
        </g>
    </g>
</svg>
