<svg xmlns="http://www.w3.org/2000/svg" width="31.393" height="31.393" viewBox="0 0 31.393 31.393">
    <defs>
        <linearGradient id="rbu5ib8r5a" x1="1" x2=".319" y1=".168" y2="1.156" gradientUnits="objectBoundingBox">
            <stop offset="0" stop-color="#39ba00"/>
            <stop offset="1" stop-color="#309602"/>
        </linearGradient>
    </defs>
    <g>
        <circle cx="11.837" cy="11.837" r="11.837" fill="#fff" transform="translate(6.996 6.996)"/>
        <path fill="url(#rbu5ib8r5a)" d="M0 31.393l2.781-8.2a15.207 15.207 0 0 1 2.3-18.71 15.5 15.5 0 0 1 21.795 0 15.208 15.208 0 0 1 0 21.626 15.512 15.512 0 0 1-18.343 2.573L0 31.392zm13.64-11.651l3 2.975a.741.741 0 0 0 .527.218.751.751 0 0 0 .644-.358l7.155-11.695a.739.739 0 0 0 .017-.757.749.749 0 0 0-.651-.387.776.776 0 0 0-.108.008L7.64 12.071a.752.752 0 0 0-.443 1.28l2.563 2.54 11.308-3.98a.2.2 0 0 1 .068-.012.187.187 0 0 1 .177.146.179.179 0 0 1-.093.209l-10.433 5.693-.944 2.336a.753.753 0 0 0 .064.717.765.765 0 0 0 .625.337.742.742 0 0 0 .359-.094l2.749-1.5z"/>
    </g>
</svg>
