<svg id="Layer_1" data-name="Layer 1" xmlns="http://www.w3.org/2000/svg" viewBox="0 0 75 93"><defs><style>.cls-1{fill:#006dff;}</style></defs><title>icono-seguridad</title><path class="cls-1" d="M24.81,47.12c1.75,1.69,3.55,3.43,5.35,5.39a4.51,4.51,0,0,0,6.36.33l.15-.15C43.89,45.57,49,39.88,52.08,36.47l1.72-1.9A4.5,4.5,0,0,0,50.2,27a4.46,4.46,0,0,0-3,1.48l-1.24,1.35c-2.59,2.84-6.83,7.49-12.51,13.25l-2-2c-1.35-1.34-2.62-2.6-3.59-3.6a4.5,4.5,0,1,0-6.85,5.84,3.65,3.65,0,0,0,.32.33C22.39,44.78,23.56,45.91,24.81,47.12Z"/><path class="cls-1" d="M71.53,5.1c-1.67-.39-3.28-.79-4.9-1.2A105,105,0,0,0,37.5,0,105,105,0,0,0,8.38,3.9c-1.62.41-3.24.81-4.91,1.2A4.48,4.48,0,0,0,0,9.5v40c0,9.06,5.07,18.58,15.08,28.3C22.77,85.27,31,90.64,35.77,92.65a4.54,4.54,0,0,0,3.47,0c4.75-2,13-7.38,20.68-14.84C69.93,68.09,75,58.57,75,49.51v-40A4.48,4.48,0,0,0,71.53,5.1ZM9,13l1.67-.42A95.22,95.22,0,0,1,37.5,9a95.22,95.22,0,0,1,26.83,3.6L66,13V49.51c0,6.27-4.49,14.23-12.33,21.83a77,77,0,0,1-16.17,12,77,77,0,0,1-16.17-12C13.49,63.74,9,55.78,9,49.51Z"/></svg>