<svg xmlns="http://www.w3.org/2000/svg" xmlns:xlink="http://www.w3.org/1999/xlink" width="29.273" height="35.665" viewBox="0 0 29.273 35.665">
  <defs>
    <linearGradient id="linear-gradient" x1="0.5" x2="0.5" y2="1" gradientUnits="objectBoundingBox">
      <stop offset="0" stop-color="#006dff"/>
      <stop offset="1" stop-color="#43d2f1"/>
    </linearGradient>
  </defs>
  <path id="Bizum" d="M20504.266,14091.96a3.011,3.011,0,0,1,6.012-.066,2.832,2.832,0,0,1-2.961,2.771h-.043A2.862,2.862,0,0,1,20504.266,14091.96Zm-8.684-4.154a60.557,60.557,0,0,1,3.887-5.018,3.092,3.092,0,0,1,3.988-.449,2.676,2.676,0,0,1,.75,3.793,60.052,60.052,0,0,1-3.758,4.8,8.46,8.46,0,0,1-2.211,1.279C20495.781,14091.95,20494.336,14089.638,20495.582,14087.806Zm-8.312.973a2.714,2.714,0,0,1-.488-4.184q6.943-8.959,13.926-17.906a3.065,3.065,0,0,1,3.531-1.154,3.156,3.156,0,0,1,2.145,2.664,9.455,9.455,0,0,1-.879,1.836q-6.885,8.927-13.832,17.818a3.519,3.519,0,0,1-2.727,1.463A2.924,2.924,0,0,1,20487.27,14088.778Zm1.488-16.473a2.681,2.681,0,0,1-.68-3.8c1.172-1.605,2.352-3.221,3.676-4.711a8.7,8.7,0,0,1,2.172-1.336,3.621,3.621,0,0,1,2.754,1.584,2.469,2.469,0,0,1-.012,2.887c-1.219,1.672-2.484,3.314-3.828,4.91a2.977,2.977,0,0,1-2.285,1.021A3.129,3.129,0,0,1,20488.758,14072.306Zm-6.754-9.506a2.828,2.828,0,0,1,3.059-2.8,2.767,2.767,0,0,1,2.883,2.809,2.868,2.868,0,0,1-2.953,2.791A2.952,2.952,0,0,1,20482,14062.8Z" transform="translate(-20481.504 -14059.5)" stroke="rgba(0,0,0,0)" stroke-miterlimit="10" stroke-width="1" fill="url(#linear-gradient)"/>
</svg>
