<svg id="Layer_1" data-name="Layer 1" xmlns="http://www.w3.org/2000/svg" viewBox="0 0 39.02 37.79"><defs><style>.cls-1{fill:#006dff;}</style></defs><title>icono-05-04</title><path class="cls-1" d="M32.59,20.59l-.85-.35a1.46,1.46,0,0,1-.91-1.39,1.41,1.41,0,0,1,.91-1.33l.84-.34a3,3,0,0,0,1.76-1.84,3.14,3.14,0,0,0-.24-2.54l-2-3.49a3.06,3.06,0,0,0-4.54-.87l-.76.6a1.44,1.44,0,0,1-1.59,0,1.33,1.33,0,0,1-.74-1.35l.13-.95a3,3,0,0,0-.72-2.43,3.09,3.09,0,0,0-2.3-1.06H17.5a3.08,3.08,0,0,0-3,3.49l.13.95a1.44,1.44,0,0,1-.81,1.38,1.4,1.4,0,0,1-1.55,0l-.77-.6a3.06,3.06,0,0,0-4.53.87l-2,3.49a3.15,3.15,0,0,0-.24,2.54,3,3,0,0,0,1.75,1.84l.86.35a1.46,1.46,0,0,1,.91,1.39,1.41,1.41,0,0,1-.91,1.33l-.84.34a3,3,0,0,0-1.76,1.84A3.14,3.14,0,0,0,4.92,25l2,3.49a3.06,3.06,0,0,0,4.54.87l.76-.6a1.44,1.44,0,0,1,1.59,0,1.33,1.33,0,0,1,.74,1.35l-.13.95a3,3,0,0,0,.72,2.43,3.09,3.09,0,0,0,2.3,1.06h4.06a3.08,3.08,0,0,0,3-3.49l-.13-.94a1.44,1.44,0,0,1,.81-1.39,1.4,1.4,0,0,1,1.55,0l.77.61a3.06,3.06,0,0,0,4.53-.88l2-3.49a3.14,3.14,0,0,0,.24-2.54A3,3,0,0,0,32.59,20.59Zm-3.18,6.1-.63-.5a4.59,4.59,0,0,0-5.13-.28,4.52,4.52,0,0,0-2.34,4.56l.11.78h-3.8l.11-.79a4.58,4.58,0,0,0-2.37-4.59,4.8,4.8,0,0,0-2.4-.65,4.42,4.42,0,0,0-2.73.93l-.63.5-1.86-3.2.72-.29a4.69,4.69,0,0,0,0-8.66l-.73-.3L9.61,11l.62.5a4.58,4.58,0,0,0,5.13.28A4.55,4.55,0,0,0,17.7,7.2l-.11-.79,3.83,0-.11.81a4.53,4.53,0,0,0,2.36,4.58,4.57,4.57,0,0,0,5.1-.27l.63-.5,1.86,3.2-.72.29a4.69,4.69,0,0,0,0,8.66l.74.3Zm-19.89,0h0Z"/><path class="cls-1" d="M19.53,11.86a7,7,0,1,0,7,7A7,7,0,0,0,19.53,11.86Zm3.82,7a3.82,3.82,0,1,1-3.82-3.82A3.82,3.82,0,0,1,23.35,18.88Z"/></svg>