<svg id="Layer_1" data-name="Layer 1" xmlns="http://www.w3.org/2000/svg" viewBox="0 0 39.02 37.79"><defs><style>.cls-1{fill:#006dff;}</style></defs><title>icono-02-05</title><path class="cls-1" d="M7.58,27.84a1.28,1.28,0,0,0,.07,2.56H32.36a1.28,1.28,0,1,0,0-2.56H7.58Z"/><path class="cls-1" d="M10.14,26.31a1.2,1.2,0,0,0,1.28-1.07V15.35a1,1,0,0,0-.29-.75,1.35,1.35,0,0,0-1-.4H10a1.16,1.16,0,0,0-1.15,1.12v9.86a1,1,0,0,0,.3.74,1.36,1.36,0,0,0,1,.39Z"/><path class="cls-1" d="M6.24,15.86,20,7.12l13.76,8.74a1.28,1.28,0,0,0,.69.2,1.3,1.3,0,0,0,.28,0,1.29,1.29,0,0,0,.41-2.34L20.71,4.53a1.29,1.29,0,0,0-1.38,0L4.88,13.69a1.28,1.28,0,1,0,1.36,2.18Z"/><path class="cls-1" d="M35.75,31.29a1.29,1.29,0,0,0-.93-.39H5.11a1.28,1.28,0,0,0,.07,2.56H34.83a1.28,1.28,0,0,0,.92-2.17Z"/><path class="cls-1" d="M16.49,19.88a1.29,1.29,0,0,0-.39.93,3,3,0,0,0,1.29,2.36,4.22,4.22,0,0,0,1.34.65v.07A1.28,1.28,0,0,0,20,25.19h0a1.28,1.28,0,0,0,1.28-1.25v-.1a3.87,3.87,0,0,0,1.44-.68,3,3,0,0,0,1.17-2.35,2.94,2.94,0,0,0-1.3-2.35l-.32-.21a1.28,1.28,0,0,0,1.23-.32,1.27,1.27,0,0,0,.39-.89V17a3,3,0,0,0-1.28-2.34A4.13,4.13,0,0,0,21.29,14V13.9A1.28,1.28,0,0,0,20,12.61h-.17a1.28,1.28,0,0,0-1.12,1.27V14a3.87,3.87,0,0,0-1.44.68A3,3,0,0,0,16.11,17a2.94,2.94,0,0,0,1.3,2.35l.32.21a1.28,1.28,0,0,0-.32,0A1.25,1.25,0,0,0,16.49,19.88ZM21.84,18a4.82,4.82,0,0,0-1.66-.38H20a2.1,2.1,0,0,1-1.09-.34c-.2-.15-.25-.26-.25-.28s0-.17.2-.33a1.84,1.84,0,0,1,1.15-.3,1.91,1.91,0,0,1,1.1.33c.2.15.24.27.24.29a1.27,1.27,0,0,0,.36.91Zm-3.65,1.78a4.8,4.8,0,0,0,1.67.38H20a2.1,2.1,0,0,1,1.08.35c.17.13.24.23.24.28s0,.17-.2.33a1.81,1.81,0,0,1-1.14.3,1.91,1.91,0,0,1-1.1-.33c-.21-.15-.25-.28-.25-.29A1.28,1.28,0,0,0,18.18,19.79Z"/><path class="cls-1" d="M29.89,26.31a1.2,1.2,0,0,0,1.28-1.07V15.35a1,1,0,0,0-.29-.75,1.35,1.35,0,0,0-1-.4h-.16a1.16,1.16,0,0,0-1.15,1.12v9.86a1,1,0,0,0,.3.74,1.36,1.36,0,0,0,1,.39Z"/></svg>