<svg id="Layer_1" data-name="Layer 1" xmlns="http://www.w3.org/2000/svg" xmlns:xlink="http://www.w3.org/1999/xlink" viewBox="0 0 60.23 60.23"><defs><style>.cls-1{fill:url(#linear-gradient);}.cls-2{fill:url(#linear-gradient-2);}.cls-3{fill:url(#linear-gradient-3);}</style><linearGradient id="linear-gradient" x1="54.84" y1="16.58" x2="13.21" y2="66.19" gradientUnits="userSpaceOnUse"><stop offset="0" stop-color="#006dff"/><stop offset="1" stop-color="#43d2f1"/></linearGradient><linearGradient id="linear-gradient-2" x1="47.02" y1="-5.96" x2="5.39" y2="43.65" xlink:href="#linear-gradient"/><linearGradient id="linear-gradient-3" x1="37.95" y1="20.97" x2="22.44" y2="39.45" xlink:href="#linear-gradient"/></defs><title>icono-card</title><path class="cls-1" d="M58.52,20.08a2.32,2.32,0,0,0-4.37,1.54,25.48,25.48,0,0,1-41.51,27h5.89a2.32,2.32,0,1,0,0-4.63H6.95a2.32,2.32,0,0,0-2.32,2.32V57.91a2.32,2.32,0,0,0,4.63,0V51.83a30,30,0,0,0,20.85,8.4,30.13,30.13,0,0,0,28.4-40.15Z"/><path class="cls-2" d="M6.08,38.6a25.48,25.48,0,0,1,41.51-27H41.7a2.32,2.32,0,1,0,0,4.63H53.28A2.32,2.32,0,0,0,55.6,13.9V2.32a2.32,2.32,0,0,0-4.63,0V8.4A30,30,0,0,0,30.11,0,30.14,30.14,0,0,0,1.71,40.16,2.33,2.33,0,0,0,3.9,41.7a2.22,2.22,0,0,0,.76-.14A2.32,2.32,0,0,0,6.08,38.6Z"/><path class="cls-3" d="M28.7,44.71a2.18,2.18,0,0,0,1.39.5,2.14,2.14,0,0,0,1.36-.5,1.81,1.81,0,0,0,.63-1.5v-1A7,7,0,0,0,35.81,40a6.1,6.1,0,0,0,1.46-4.18,6.21,6.21,0,0,0-.74-3.11,9.08,9.08,0,0,0-1.87-2.31,14.31,14.31,0,0,0-2.42-1.74L29.82,27.3A14.81,14.81,0,0,1,28,26.07a1.64,1.64,0,0,1-.74-1.28v-.52A1.84,1.84,0,0,1,28,22.71a3.15,3.15,0,0,1,1.92-.57h.31a3.69,3.69,0,0,1,2,.48A1.39,1.39,0,0,1,33,23.79a1.6,1.6,0,0,0,.61,1.38,2.21,2.21,0,0,0,1.34.45,2.36,2.36,0,0,0,1.41-.47A1.69,1.69,0,0,0,37,23.69a4.67,4.67,0,0,0-.38-1.9,5.19,5.19,0,0,0-1-1.54A6.39,6.39,0,0,0,34,19.1a7.84,7.84,0,0,0-1.93-.73V17a1.81,1.81,0,0,0-.63-1.5,2.19,2.19,0,0,0-1.39-.5,2.14,2.14,0,0,0-1.36.5,1.81,1.81,0,0,0-.63,1.5v1.38a7.43,7.43,0,0,0-1.81.74,6.47,6.47,0,0,0-1.55,1.23A6,6,0,0,0,23.62,22a5,5,0,0,0-.41,2v.73a4.8,4.8,0,0,0,.74,2.71,8.51,8.51,0,0,0,1.87,2,16.38,16.38,0,0,0,2.42,1.57q1.29.69,2.42,1.38A8.71,8.71,0,0,1,32.52,34a2.71,2.71,0,0,1,.74,1.88,2.32,2.32,0,0,1-.86,2,3.49,3.49,0,0,1-2.18.66h-.31a3,3,0,0,1-2.12-.74A2.83,2.83,0,0,1,27,35.54a1.82,1.82,0,0,0-.62-1.5,2.16,2.16,0,0,0-2.76,0,1.81,1.81,0,0,0-.62,1.5,6.44,6.44,0,0,0,1.47,4.4,7.47,7.47,0,0,0,3.64,2.3v1A1.81,1.81,0,0,0,28.7,44.71Z"/></svg>