<svg id="Layer_1" data-name="Layer 1" xmlns="http://www.w3.org/2000/svg" viewBox="0 0 39.02 37.79"><defs><style>.cls-1{fill:#006dff;}</style></defs><title>icono-06-03</title><path class="cls-1" d="M19.51,3.77A15.13,15.13,0,1,0,34.64,18.9,15.14,15.14,0,0,0,19.51,3.77ZM25.75,16h5.62a12.19,12.19,0,0,1,.37,2.95,12.33,12.33,0,0,1-.27,2.54h-5.7c.06-.87.09-1.72.09-2.54S25.83,17,25.75,16Zm-12.2,8.38a22.34,22.34,0,0,0,1.66,6,12.22,12.22,0,0,1-6.65-6ZM8.77,13.06a12.27,12.27,0,0,1,6.45-5.6,21.88,21.88,0,0,0-1.6,5.6Zm16.64,0a21.91,21.91,0,0,0-1.6-5.6,12.28,12.28,0,0,1,6.45,5.6ZM23,18.9c0,.85,0,1.7-.09,2.54H16.14c-.06-.86-.09-1.69-.09-2.54s0-2,.12-2.95h6.68C22.93,16.92,23,17.91,23,18.9Zm.83,11.44a22.43,22.43,0,0,0,1.66-6h5A12.22,12.22,0,0,1,23.81,30.34ZM16.55,13.06c.71-3.95,2.09-6.39,3-6.39s2.25,2.44,3,6.39Zm6,11.27c-.69,4.2-2.11,6.8-3,6.8s-2.34-2.6-3-6.8Zm-9.3-2.89H7.55A11.93,11.93,0,0,1,7.65,16h5.62c-.08,1-.11,2-.11,2.95C13.16,19.7,13.19,20.56,13.25,21.44Z"/></svg>