<?xml version="1.0" encoding="utf-8"?>
<!-- Generator: Adobe Illustrator 21.1.0, SVG Export Plug-In . SVG Version: 6.00 Build 0)  -->
<svg version="1.1" id="Layer_1" xmlns="http://www.w3.org/2000/svg" xmlns:xlink="http://www.w3.org/1999/xlink" x="0px" y="0px"
	 viewBox="0 0 23.5 23.8" style="enable-background:new 0 0 23.5 23.8;" xml:space="preserve">
<style type="text/css">
	.st0{fill:#323232;}
</style>
<title>login</title>
<path class="st0" d="M23.4,21.8c0-1.1-0.2-2.1-0.5-3.1c-0.2-0.7-0.7-1.4-1.3-1.8c-0.9-0.4-1.8-0.8-2.8-1.1c-1.2-0.4-2.3-0.9-3.5-1.4
	c-0.5-0.5-0.8-1.3-0.9-2c0.1-0.2,0.2-0.3,0.3-0.4c0.8-0.9,1.4-1.9,1.7-3.1c0.4-1.6,0.8-4.9-0.7-7c-1-1.2-2.5-1.9-4-1.8h-0.2
	c-1.5-0.1-3,0.6-4,1.8c-1.5,2-1.2,5.3-0.7,7C7.2,10,7.8,11,8.6,11.9l0,0c0.1,0.1,0.2,0.3,0.3,0.4c0,0.8-0.3,1.5-0.9,2
	c-1.1,0.5-2.3,1-3.5,1.4c-0.9,0.3-1.9,0.7-2.8,1.1c-0.7,0.4-1.1,1.1-1.3,1.8c-0.3,1-0.4,2.1-0.5,3.2V22l0.1,0.1
	c0.4,0.4,2.4,1.6,11.6,1.6s11.2-1.2,11.6-1.6l0.1-0.1L23.4,21.8z"/>
</svg>
