<svg id="Isolation_Mode" data-name="Isolation Mode" xmlns="http://www.w3.org/2000/svg" viewBox="0 0 566 220"><defs><style>.cls-1{fill:#006dff;}.cls-2{fill:#fff;}</style></defs><title>logo-paycomet-bg</title><path class="cls-1" d="M.28,171.17A381.71,381.71,0,0,0,186.7,220,383.17,383.17,0,0,0,458.43,107.51L566,0H0L.28,171.17"/><path class="cls-2" d="M162.41,75.75a1.85,1.85,0,0,0-1.51-.45,1.73,1.73,0,0,0-1.26.77L148.58,91.19l-11-15.08a1.77,1.77,0,0,0-1.29-.8,1.82,1.82,0,0,0-1.46.41,1.85,1.85,0,0,0-.41,2.72L146.7,95v16.44a1.93,1.93,0,1,0,3.86,0V95l12.2-16.51a1.93,1.93,0,0,0,.37-1.47A1.68,1.68,0,0,0,162.41,75.75Z"/><path class="cls-2" d="M190.28,78.49a15.76,15.76,0,0,1,9.9,3.42,1.86,1.86,0,0,0,1.42.42,2.07,2.07,0,0,0,1.76-2.21,2.14,2.14,0,0,0-.75-1.36,20.17,20.17,0,0,0-26.36,1.5,19,19,0,0,0,0,27.4,19.5,19.5,0,0,0,14,5.64,19.78,19.78,0,0,0,12.31-4.14,1.87,1.87,0,0,0,.74-1.37,1.81,1.81,0,0,0-.44-1.41,1.71,1.71,0,0,0-1.26-.81,2.15,2.15,0,0,0-1.55.39,15.34,15.34,0,0,1-10.25,3.43,15.18,15.18,0,0,1-10.84-4.5A14.66,14.66,0,0,1,174.34,94,14.83,14.83,0,0,1,179,83,15.62,15.62,0,0,1,190.28,78.49Z"/><path class="cls-2" d="M292,75.58a2.09,2.09,0,0,0-1.42-.28,1.74,1.74,0,0,0-1.26.77L276.76,93.5,264.17,76.06a1.83,1.83,0,0,0-2.69-.48l-.12.12a1.82,1.82,0,0,0-.81,1.55v34.14a1.84,1.84,0,0,0,.6,1.38,2,2,0,0,0,2.74,0,1.89,1.89,0,0,0,.57-1.37V82.94L275,97.79a1.94,1.94,0,0,0,1.77.89,1.81,1.81,0,0,0,1.6-.86L289,82.9v28.5a1.93,1.93,0,1,0,3.86,0V77.25a2.27,2.27,0,0,0-.77-1.58Z"/><path class="cls-2" d="M365.79,75.67a1.9,1.9,0,0,0-1.37-.56H339.65A1.93,1.93,0,0,0,337.72,77a2,2,0,0,0,.55,1.37,1.85,1.85,0,0,0,1.38.61h10.46v32.37a1.93,1.93,0,1,0,3.86,0V79h10.46a1.85,1.85,0,0,0,1.38-.61,2,2,0,0,0,.55-1.38A1.89,1.89,0,0,0,365.79,75.67Z"/><path class="cls-2" d="M240.89,101.65l-4.19,4.18a12.86,12.86,0,1,1-18.19-18.18l11.21-11.21A2,2,0,0,0,227,73.68L215.74,84.89a16.77,16.77,0,0,0,23.73,23.71l4.19-4.18a2,2,0,0,0-2.77-2.76Z"/><path class="cls-2" d="M220.37,93.5a2,2,0,0,0,2.77,0L247.66,69a2,2,0,0,0-2.77-2.76L220.37,90.74A2,2,0,0,0,220.37,93.5Z"/><path class="cls-2" d="M237.86,86.5a2,2,0,0,0-2.77,0l-6.65,6.64a2,2,0,0,0,2.77,2.76l6.65-6.64A2,2,0,0,0,237.86,86.5Z"/><path class="cls-2" d="M260,64.39a2,2,0,0,0-2.77,0L244.8,76.79a2,2,0,0,0,2.77,2.76L260,67.15A2,2,0,0,0,260,64.39Z"/><path class="cls-2" d="M242,85.11l1.39-1.39a2,2,0,0,0-2.77-2.76l-1.39,1.39A2,2,0,0,0,242,85.11Z"/><path class="cls-2" d="M246,96.57l-.93.93a2,2,0,0,0,2.77,2.76l.93-.93A2,2,0,0,0,246,96.57Z"/><path class="cls-2" d="M232.78,104a2,2,0,0,0,1.38-.57L239,98.59a2,2,0,0,0-2.77-2.76l-4.84,4.83a2,2,0,0,0,1.38,3.34Z"/><path class="cls-2" d="M247.25,84.82l-6.86,6.86a2,2,0,0,0,2.77,2.76L250,87.58a2,2,0,0,0-2.77-2.76Z"/><path class="cls-2" d="M116.54,76.52a1.79,1.79,0,0,0-1.84-1.24,2,2,0,0,0-1.94,1.22L100,110.66a1.79,1.79,0,0,0,0,1.53,2.05,2.05,0,0,0,1,1l.74.11a1.86,1.86,0,0,0,1.84-1.28L114.7,82.62l11,29.43a1.87,1.87,0,0,0,1.9,1.27h0l.47-.05.19-.05a2,2,0,0,0,1-1.06,1.82,1.82,0,0,0,0-1.47Z"/><path class="cls-2" d="M326.67,75.11H305.49a2,2,0,1,0,0,4h21.18a2,2,0,1,0,0-4Z"/><path class="cls-2" d="M326.67,92.3H305.49a2,2,0,1,0,0,4h21.18a2,2,0,1,0,0-4Z"/><path class="cls-2" d="M326.67,109.48H305.49a2,2,0,1,0,0,4h21.18a2,2,0,1,0,0-4Z"/><path class="cls-2" d="M82.22,75.11H71.79a1.89,1.89,0,0,0-1.14.38,2,2,0,0,0-.23.19,1.88,1.88,0,0,0-.51.94v0a2,2,0,0,0,0,.38,2,2,0,0,0,.55,1.37,1.85,1.85,0,0,0,1.38.61H82.22a7.27,7.27,0,0,1,5.14,12.43,7.14,7.14,0,0,1-5.14,2.2H71.79a1.92,1.92,0,0,0-1.93,1.93v15.81a1.92,1.92,0,0,0,1.93,1.93,2,2,0,0,0,1.37-.55,1.85,1.85,0,0,0,.61-1.38V97.56l8.46-.1a11.18,11.18,0,0,0,0-22.35Z"/><path class="cls-2" d="M115.92,104.63h-2.55a1.93,1.93,0,1,0,0,3.87h2.55a1.93,1.93,0,1,0,0-3.87Z"/><rect class="cls-2" x="220.73" y="60.94" width="4.43" height="4.43" rx="1.18" ry="1.18" transform="translate(20.61 176.08) rotate(-44.98)"/><rect class="cls-2" x="212.69" y="69.83" width="3.6" height="3.6" rx="0.95" ry="0.95" transform="translate(12.13 172.57) rotate(-44.98)"/></svg>