<svg id="Layer_1" data-name="Layer 1" xmlns="http://www.w3.org/2000/svg" viewBox="0 0 446.52 139.56"><defs><style>.cls-1{fill:#707070;}</style></defs><title>logo-PAYCOMET-BSabadell</title><path class="cls-1" d="M139.43,22.94a2.79,2.79,0,0,0-2.27-.67,2.61,2.61,0,0,0-1.9,1.16L118.61,46.21,102.07,23.48a2.66,2.66,0,0,0-1.94-1.21,2.74,2.74,0,0,0-2.2.62c-1.39,1-1.63,2.48-.62,4.1l18.46,24.89V76.64a2.91,2.91,0,1,0,5.82,0V51.88L140,27a2.91,2.91,0,0,0,.55-2.21A2.53,2.53,0,0,0,139.43,22.94Z"/><path class="cls-1" d="M181.4,27.08a23.72,23.72,0,0,1,14.9,5.15,2.8,2.8,0,0,0,2.13.64,2.52,2.52,0,0,0,1.93-1.08,2.54,2.54,0,0,0,.72-2.24,3.23,3.23,0,0,0-1.13-2,30.36,30.36,0,0,0-39.69,2.26,27.83,27.83,0,0,0-8.76,20.64,27.84,27.84,0,0,0,8.76,20.64,29.35,29.35,0,0,0,21.14,8.5,29.77,29.77,0,0,0,18.54-6.23A2.82,2.82,0,0,0,201,71.25a2.72,2.72,0,0,0-.67-2.12,2.58,2.58,0,0,0-1.89-1.22,3.24,3.24,0,0,0-2.34.59c-4,3.42-9.22,5.16-15.43,5.16a22.85,22.85,0,0,1-16.33-6.78,22.09,22.09,0,0,1-7-16.43,22.35,22.35,0,0,1,7-16.51A23.51,23.51,0,0,1,181.4,27.08Z"/><path class="cls-1" d="M334.52,22.69a3.15,3.15,0,0,0-2.14-.42,2.61,2.61,0,0,0-1.9,1.16L311.6,49.69l-19-26.27a2.75,2.75,0,0,0-4.05-.72l-.19.18a2.74,2.74,0,0,0-1.22,2.33V76.64a2.78,2.78,0,0,0,.91,2.08,3,3,0,0,0,4.13,0,2.85,2.85,0,0,0,.85-2.06V33.78L309,56.14a2.92,2.92,0,0,0,2.67,1.34,2.73,2.73,0,0,0,2.4-1.29l16-22.48V76.64a2.91,2.91,0,1,0,5.82,0V25.21a3.42,3.42,0,0,0-1.17-2.37Z"/><path class="cls-1" d="M445.67,22.83a2.85,2.85,0,0,0-2.06-.85H406.3a2.9,2.9,0,0,0-2.91,2.91,3,3,0,0,0,.82,2.07,2.78,2.78,0,0,0,2.08.92H422V76.64a2.91,2.91,0,1,0,5.81,0V27.88h15.75a2.79,2.79,0,0,0,2.08-.91,3,3,0,0,0,.83-2.07A2.85,2.85,0,0,0,445.67,22.83Z"/><path class="cls-1" d="M257.6,62l-6.3,6.3a19.37,19.37,0,0,1-27.4-27.4L240.78,24a2.94,2.94,0,0,0-4.16-4.16L219.73,36.71a25.26,25.26,0,0,0,35.72,35.72l6.3-6.3A2.94,2.94,0,1,0,257.6,62Z"/><path class="cls-1" d="M226.7,49.69a2.94,2.94,0,0,0,4.16,0l36.93-36.93a2.94,2.94,0,1,0-4.16-4.16L226.7,45.53A2.94,2.94,0,0,0,226.7,49.69Z"/><path class="cls-1" d="M253,39.14a2.94,2.94,0,0,0-4.16,0l-10,10A2.94,2.94,0,1,0,243,53.31l10-10A2.94,2.94,0,0,0,253,39.14Z"/><path class="cls-1" d="M286.34,5.83a2.94,2.94,0,0,0-4.16,0L263.48,24.52a2.94,2.94,0,1,0,4.16,4.16L286.34,10A2.94,2.94,0,0,0,286.34,5.83Z"/><path class="cls-1" d="M259.29,37l2.1-2.1a2.94,2.94,0,1,0-4.16-4.16l-2.1,2.1A2.94,2.94,0,1,0,259.29,37Z"/><path class="cls-1" d="M265.25,54.31l-1.4,1.4A2.94,2.94,0,1,0,268,59.88l1.4-1.4a2.94,2.94,0,1,0-4.16-4.16Z"/><path class="cls-1" d="M245.39,65.5a2.94,2.94,0,0,0,2.08-.86l7.28-7.28a2.94,2.94,0,1,0-4.16-4.16l-7.28,7.28a2.94,2.94,0,0,0,2.08,5Z"/><path class="cls-1" d="M267.18,36.61,256.85,46.94A2.94,2.94,0,1,0,261,51.1l10.33-10.33a2.94,2.94,0,0,0-4.16-4.16Z"/><path class="cls-1" d="M70.37,24.1a2.7,2.7,0,0,0-2.78-1.87,3,3,0,0,0-2.92,1.84L45.4,75.53a2.69,2.69,0,0,0,.05,2.3A3.09,3.09,0,0,0,47,79.4l1.12.16a2.79,2.79,0,0,0,2.77-1.92L67.59,33.3,84.19,77.64A2.82,2.82,0,0,0,87,79.56h0l.71-.08.29-.08a3,3,0,0,0,1.55-1.6,2.75,2.75,0,0,0,0-2.21Z"/><path class="cls-1" d="M386.76,22h-31.9a3,3,0,1,0,0,6h31.9a3,3,0,0,0,0-6Z"/><path class="cls-1" d="M386.76,47.88h-31.9a3,3,0,1,0,0,6h31.9a3,3,0,0,0,0-6Z"/><path class="cls-1" d="M386.76,73.77h-31.9a3,3,0,1,0,0,6h31.9a3,3,0,0,0,0-6Z"/><path class="cls-1" d="M18.69,22H3a2.84,2.84,0,0,0-1.72.57,3,3,0,0,0-.34.28,2.83,2.83,0,0,0-.77,1.41l0,.07a3,3,0,0,0-.05.58A3,3,0,0,0,.89,27,2.78,2.78,0,0,0,3,27.88H18.69a10.48,10.48,0,0,1,7.74,3.24,10.88,10.88,0,0,1,0,15.49,10.75,10.75,0,0,1-7.74,3.32H3a2.85,2.85,0,0,0-2.06.85,2.85,2.85,0,0,0-.85,2.06V76.64A2.84,2.84,0,0,0,.91,78.7,2.84,2.84,0,0,0,3,79.55,3,3,0,0,0,5,78.73,2.78,2.78,0,0,0,6,76.64V55.81l12.73-.15a16.25,16.25,0,0,0,11.86-4.94,16.29,16.29,0,0,0,4.94-11.9,16.28,16.28,0,0,0-4.94-11.9A16.25,16.25,0,0,0,18.69,22Z"/><path class="cls-1" d="M69.44,66.45H65.6a2.91,2.91,0,1,0,0,5.83h3.84a2.91,2.91,0,1,0,0-5.83Z"/><rect class="cls-1" x="227.24" y="0.64" width="6.67" height="6.67" rx="1.78" ry="1.78" transform="translate(64.72 164.2) rotate(-45)"/><rect class="cls-1" x="215.14" y="14.03" width="5.42" height="5.42" rx="1.43" ry="1.43" transform="translate(51.96 158.93) rotate(-45)"/><path class="cls-1" d="M0,134.5V115.32H7.24a6.48,6.48,0,0,1,3.94.89,4.44,4.44,0,0,1,2,3.77,4.22,4.22,0,0,1-3.38,4.31v.06a4.85,4.85,0,0,1,4,4.86,4.91,4.91,0,0,1-1.84,4.05c-1.45,1.15-3,1.23-4.72,1.23Zm6.12-11a5.56,5.56,0,0,0,3.49-.73,3.16,3.16,0,0,0,1.2-2.52,2.73,2.73,0,0,0-1.43-2.54,5.07,5.07,0,0,0-2.66-.48H2.4v6.26Zm1,8.92a4.89,4.89,0,0,0,3.07-.78,3.12,3.12,0,0,0,1.2-2.57,3.82,3.82,0,0,0-1.4-3,5,5,0,0,0-3.21-.73H2.4v7.07Z"/><path class="cls-1" d="M21.38,135.84a7.13,7.13,0,0,1-1.45,2.63A3.34,3.34,0,0,1,17,139.56a6.34,6.34,0,0,1-1.62-.25v-1.76a6.5,6.5,0,0,0,1.45.2c2.21,0,2.6-1.82,3.19-3.49L15.15,120.3h2.26L21.21,131,25.1,120.3h1.84Z"/><path class="cls-1" d="M37.45,134.5V115.32h7.24a6.48,6.48,0,0,1,3.94.89,4.44,4.44,0,0,1,2,3.77,4.23,4.23,0,0,1-3.38,4.31v.06a4.85,4.85,0,0,1,4,4.86,4.91,4.91,0,0,1-1.84,4.05c-1.45,1.15-3,1.23-4.72,1.23Zm6.12-11a5.56,5.56,0,0,0,3.49-.73,3.16,3.16,0,0,0,1.2-2.52,2.73,2.73,0,0,0-1.43-2.54,5.07,5.07,0,0,0-2.66-.48H39.86v6.26Zm1,8.92a4.89,4.89,0,0,0,3.07-.78,3.12,3.12,0,0,0,1.2-2.57,3.82,3.82,0,0,0-1.4-3,5,5,0,0,0-3.21-.73H39.86v7.07Z"/><path class="cls-1" d="M63.5,125.69v-.61c0-2.49-1.09-3.44-3.61-3.44-1.79,0-3.49.56-3.89,2.52l-2-.33c.39-3,3.52-3.89,6.12-3.89,1.54,0,3.3.17,4.36,1.4s1.17,3,1.17,4.67v5.51a10.47,10.47,0,0,0,.31,3H63.75l-.25-2.66a5.09,5.09,0,0,1-5,2.94c-2.66,0-4.95-1.48-4.95-4.31a4.37,4.37,0,0,1,2.63-3.94,13.28,13.28,0,0,1,5.45-.84Zm0,1.65H61.69c-2.24,0-5.76.31-5.76,3.24,0,1.76,1.51,2.49,3.08,2.49a4.62,4.62,0,0,0,4.5-4.81Z"/><path class="cls-1" d="M71.61,122.93h.06a4.85,4.85,0,0,1,4.42-3,4.48,4.48,0,0,1,4,2.21c.73,1.2.67,3.1.67,4.5v7.85H78.6v-8.78a5.53,5.53,0,0,0-.39-2.63,2.9,2.9,0,0,0-2.43-1.29,3.82,3.82,0,0,0-2.94,1.43,5.64,5.64,0,0,0-1.12,3.83v7.44H69.54V120.3h2.07Z"/><path class="cls-1" d="M95.17,129.8c-.5,2.88-2.43,5-5.48,5-4.22,0-6-3.66-6-7.38s1.84-7.46,6.07-7.46c3.07,0,5,2,5.45,4.92l-2,.36c-.2-1.87-1.34-3.44-3.38-3.44-3,0-3.8,3.1-3.8,5.48s.7,5.65,3.66,5.65c2.12,0,3.16-1.54,3.52-3.47Z"/><path class="cls-1" d="M103.81,119.94c4.17,0,6.23,3.63,6.23,7.38,0,4-2.29,7.46-6.6,7.46s-6.15-3.75-6.15-7.49C97.29,123.35,99.53,119.94,103.81,119.94Zm-3.27,11.24a3.61,3.61,0,0,0,6.37-.25,7.75,7.75,0,0,0,.7-3.63,7.19,7.19,0,0,0-.89-3.89,3.7,3.7,0,0,0-3.08-1.68,3.59,3.59,0,0,0-3.21,2,8.14,8.14,0,0,0-.7,3.55A8.38,8.38,0,0,0,100.54,131.17Z"/><path class="cls-1" d="M123,128.85c.78,2.66,3,3.89,5.68,3.89a5.86,5.86,0,0,0,3.44-1,3.2,3.2,0,0,0,1.17-2.46c0-1.93-1.59-2.71-3.27-3.13l-3.19-.78a7.23,7.23,0,0,1-3.47-1.54,4.76,4.76,0,0,1-1.56-3.55c0-3.69,3.19-5.28,6.51-5.28a6.74,6.74,0,0,1,6.82,4.7l-2.18.59c-.42-2.1-2.66-3.38-4.7-3.38-1.82,0-4.11,1-4.11,3s1.68,2.63,3.47,3l2.88.7a7.81,7.81,0,0,1,3.49,1.48,4.72,4.72,0,0,1,1.79,3.8,5.38,5.38,0,0,1-2.15,4.36,8.29,8.29,0,0,1-5,1.4c-3.91,0-6.49-1.73-7.77-5.45Z"/><path class="cls-1" d="M147.91,125.69v-.61c0-2.49-1.09-3.44-3.61-3.44-1.79,0-3.49.56-3.89,2.52l-2-.33c.39-3,3.52-3.89,6.12-3.89,1.54,0,3.3.17,4.36,1.4s1.17,3,1.17,4.67v5.51a10.47,10.47,0,0,0,.31,3h-2.18l-.25-2.66a5.09,5.09,0,0,1-5,2.94c-2.66,0-4.95-1.48-4.95-4.31a4.37,4.37,0,0,1,2.63-3.94,13.29,13.29,0,0,1,5.45-.84Zm0,1.65h-1.82c-2.24,0-5.76.31-5.76,3.24,0,1.76,1.51,2.49,3.08,2.49a4.62,4.62,0,0,0,4.5-4.81Z"/><path class="cls-1" d="M154.81,134.5h-1.06V115.32h2.18v7.32H156a4.46,4.46,0,0,1,4.17-2.71,5.38,5.38,0,0,1,4.36,2.32,9.1,9.1,0,0,1,1.34,4.95c0,3.61-1.73,7.58-5.93,7.58a5,5,0,0,1-4.36-2.71Zm5-12.8c-2.24,0-3.89,2.26-3.89,4.64V128a5.85,5.85,0,0,0,.81,3.35,3.83,3.83,0,0,0,3.08,1.62c2.91,0,3.75-3.1,3.75-5.45S162.84,121.7,159.82,121.7Z"/><path class="cls-1" d="M178.1,125.69v-.61c0-2.49-1.09-3.44-3.61-3.44-1.79,0-3.49.56-3.89,2.52l-2-.33c.39-3,3.52-3.89,6.12-3.89,1.54,0,3.3.17,4.36,1.4s1.17,3,1.17,4.67v5.51a10.47,10.47,0,0,0,.31,3h-2.18l-.25-2.66a5.09,5.09,0,0,1-5,2.94c-2.66,0-4.95-1.48-4.95-4.31a4.37,4.37,0,0,1,2.63-3.94,13.29,13.29,0,0,1,5.45-.84Zm0,1.65h-1.82c-2.24,0-5.76.31-5.76,3.24,0,1.76,1.51,2.49,3.08,2.49a4.62,4.62,0,0,0,4.5-4.81Z"/><path class="cls-1" d="M193.25,115.32h2.18V134.5h-2V132h-.06a4.67,4.67,0,0,1-4.44,2.8,5.06,5.06,0,0,1-4.33-2.4,8.89,8.89,0,0,1-1.34-5c0-3.55,1.76-7.46,5.87-7.46a4.81,4.81,0,0,1,4.11,2.29Zm0,10.76a4.81,4.81,0,0,0-.73-2.82,3.94,3.94,0,0,0-3.19-1.59,3.37,3.37,0,0,0-2.88,1.79,7.32,7.32,0,0,0-.84,3.69c0,2.32.62,5.81,3.66,5.81a3.94,3.94,0,0,0,3.13-1.71,4.59,4.59,0,0,0,.84-2.91Z"/><path class="cls-1" d="M210.88,130.61a6.2,6.2,0,0,1-6,4.17c-4.31,0-6.51-3.41-6.51-7.38s2.32-7.46,6.57-7.46c4.42,0,6.32,3.69,6.21,7.63H200.79a6.8,6.8,0,0,0,.59,3.21,4.09,4.09,0,0,0,3.63,2.15,3.91,3.91,0,0,0,3.8-2.74Zm-2.18-4.67c0-2.35-1.29-4.33-3.8-4.33a4.22,4.22,0,0,0-4,4.33Z"/><path class="cls-1" d="M214.65,134.5V115.32h2.18V134.5Z"/><path class="cls-1" d="M221.36,134.5V115.32h2.18V134.5Z"/></svg>