<svg id="Layer_1" data-name="Layer 1" xmlns="http://www.w3.org/2000/svg" xmlns:xlink="http://www.w3.org/1999/xlink" viewBox="0 0 31.3 29.48"><defs><style>.cls-1{fill:url(#linear-gradient);}.cls-2{fill:url(#linear-gradient-2);}.cls-3{fill:url(#linear-gradient-3);}</style><linearGradient id="linear-gradient" x1="22.03" y1="-1.36" x2="5.83" y2="17.95" gradientUnits="userSpaceOnUse"><stop offset="0" stop-color="#006dff"/><stop offset="1" stop-color="#43d2f1"/></linearGradient><linearGradient id="linear-gradient-2" x1="27.74" y1="14.52" x2="21.25" y2="22.25" xlink:href="#linear-gradient"/><linearGradient id="linear-gradient-3" x1="11.13" y1="26.26" x2="7.26" y2="30.87" xlink:href="#linear-gradient"/></defs><title>menu</title><path class="cls-1" d="M19,9.58a.61.61,0,0,1,.59,0L28,14.3,28.64,12l0,0,.22-.93h0l1.2-5.21A.72.72,0,0,0,29.44,5H7.14L6,2.11a.69.69,0,0,0-.62-.42H.67A.67.67,0,0,0,.67,3H4.9L5,3.24Q6.74,7.6,8.48,12L10,15.73,8.41,19.5a.67.67,0,0,0,.62.93h9.58l-.31-1.34H10l1.14-2.72L20,15.9l-1.3-5.66A.6.6,0,0,1,19,9.58Z"/><path class="cls-2" d="M20.15,11.29,23,23.73l1.72-2.88a.57.57,0,0,1,.16-.17.58.58,0,0,1,.17-.09.6.6,0,0,1,.31,0,.62.62,0,0,1,.36.23l3,4,2-1.5-3-4a.62.62,0,0,1-.1-.21.6.6,0,0,1,.06-.46l.07-.1a.59.59,0,0,1,.3-.18l3.25-.84Z"/><circle class="cls-3" cx="12.38" cy="24.78" r="3.01"/></svg>