<svg id="Layer_1" data-name="Layer 1" xmlns="http://www.w3.org/2000/svg" xmlns:xlink="http://www.w3.org/1999/xlink" viewBox="0 0 31.3 29.48"><defs><style>.cls-1{fill:url(#linear-gradient);}.cls-2{fill:url(#linear-gradient-2);}.cls-3{fill:url(#linear-gradient-3);}</style><linearGradient id="linear-gradient" x1="25.43" y1="5.89" x2="8.92" y2="25.56" gradientUnits="userSpaceOnUse"><stop offset="0" stop-color="#006dff"/><stop offset="1" stop-color="#43d2f1"/></linearGradient><linearGradient id="linear-gradient-2" x1="26.43" y1="14.07" x2="19.92" y2="21.83" xlink:href="#linear-gradient"/><linearGradient id="linear-gradient-3" x1="11.38" y1="14.19" x2="4.87" y2="21.95" xlink:href="#linear-gradient"/></defs><title>menu</title><path class="cls-1" d="M25,5.61A13.25,13.25,0,0,0,2.4,15v5.11H4.64V15a11,11,0,0,1,22,0v8.78a1,1,0,0,1-1,1H18.52v-.8H14.69a1.92,1.92,0,1,0,0,3.83h3.83V27h7.18a3.19,3.19,0,0,0,3.19-3.19V15A13.21,13.21,0,0,0,25,5.61Z"/><path class="cls-2" d="M25.23,23v-9.9H22c-1.4,0-2.55,1.44-2.55,3.19v3.51C19.48,21.53,20.63,23,22,23Z"/><path class="cls-3" d="M9.27,13.06H6.07V23H9.27c1.4,0,2.55-1.44,2.55-3.19V16.26C11.82,14.5,10.67,13.06,9.27,13.06Z"/></svg>