<?xml version="1.0" encoding="utf-8"?>
<!-- Generator: Adobe Illustrator 21.1.0, SVG Export Plug-In . SVG Version: 6.00 Build 0)  -->
<svg version="1.1" id="Layer_1" xmlns="http://www.w3.org/2000/svg" xmlns:xlink="http://www.w3.org/1999/xlink" x="0px" y="0px"
	 viewBox="0 0 31.3 29.5" style="enable-background:new 0 0 31.3 29.5;" xml:space="preserve">
<style type="text/css">
	.st0{fill:url(#SVGID_1_);}
</style>
<title>menu</title>
<linearGradient id="SVGID_1_" gradientUnits="userSpaceOnUse" x1="3.125" y1="14.74" x2="28.175" y2="14.74">
	<stop  offset="0" style="stop-color:#006DFF"/>
	<stop  offset="1" style="stop-color:#43D2F1"/>
</linearGradient>
<path class="st0" d="M17.3,16.4c-0.1-0.9-0.4-1.7-1-2.4c-0.6-0.6-1.4-1-2.4-1c0.1,0.9,0.4,1.7,1.1,2.3C15.6,16,16.4,16.4,17.3,16.4z
	 M6.8,19.9c0,1,0.4,1.9,1.1,2.6c0.7,0.7,1.6,1.1,2.6,1.1c1,0,1.9-0.4,2.6-1.1l2.7-2.7c-1.3-0.3-2.4-1-3.3-1.9
	c-0.9-0.9-1.5-2-1.9-3.3l-2.7,2.7C7.2,18.1,6.8,18.9,6.8,19.9z M21,5.9c-0.9,0-1.8,0.2-2.5,0.8v0l-2.9,2.9c1.3,0.3,2.4,1,3.3,1.9
	c0.9,0.9,1.6,2,1.9,3.3l2.9-2.9h0c0.6-0.7,0.9-1.6,0.8-2.5c0-0.9-0.4-1.8-1.1-2.4C22.8,6.3,22,5.9,21,5.9z M16.1,4.1
	c1.4-1.3,3.1-1.9,5-1.9c1.9,0,3.6,0.8,5,2.1c1.4,1.4,2.1,3,2.1,5c0.1,1.9-0.6,3.6-1.9,5h0L22.7,18c-0.7,0.7-1.4,1.2-2.3,1.5
	c-0.3,0.7-0.7,1.4-1.2,2v0l-3.7,3.7c-1.4,1.4-3.1,2.1-5.1,2.1c-2,0-3.7-0.7-5.1-2.1C3.8,23.7,3.1,22,3.1,20c0-2,0.7-3.7,2.1-5.1
	l3.7-3.7h0c0.6-0.5,1.3-0.9,2-1.2c0.4-0.9,0.9-1.6,1.5-2.3L16.1,4.1z"/>
</svg>
