<svg id="Layer_1" data-name="Layer 1" xmlns="http://www.w3.org/2000/svg" xmlns:xlink="http://www.w3.org/1999/xlink" viewBox="0 0 31.3 29.48"><defs><style>.cls-1{fill:url(#linear-gradient);}.cls-2{fill:url(#linear-gradient-2);}.cls-3{fill:url(#linear-gradient-3);}.cls-4{fill:url(#linear-gradient-4);}.cls-5{fill:url(#linear-gradient-5);}.cls-6{fill:url(#linear-gradient-6);}</style><linearGradient id="linear-gradient" x1="25.78" y1="6.02" x2="6.33" y2="29.21" gradientUnits="userSpaceOnUse"><stop offset="0" stop-color="#006dff"/><stop offset="1" stop-color="#43d2f1"/></linearGradient><linearGradient id="linear-gradient-2" x1="24.17" y1="4.67" x2="4.72" y2="27.86" xlink:href="#linear-gradient"/><linearGradient id="linear-gradient-3" x1="16.53" y1="13.78" x2="11" y2="20.37" xlink:href="#linear-gradient"/><linearGradient id="linear-gradient-4" x1="25.4" y1="5.7" x2="5.94" y2="28.89" xlink:href="#linear-gradient"/><linearGradient id="linear-gradient-5" x1="17.75" y1="14.81" x2="12.22" y2="21.4" xlink:href="#linear-gradient"/><linearGradient id="linear-gradient-6" x1="26.49" y1="6.62" x2="7.04" y2="29.8" xlink:href="#linear-gradient"/></defs><title>menu</title><path class="cls-1" d="M26.66,14.66c0-3.06-.14-3.2-3.16-3.3,0-1.36,0-3.06,0-4.12-.17-4-2.65-6.43-6.63-6.5H14.75c-4.42,0-7,2.72-6.94,7.11v3.54H7.06c-2,0-2.42.48-2.42,2.45,0,4.18,0,8.37,0,12.55,0,1.6.61,2.35,2.21,2.35H24.55c1.5,0,2.18-.68,2.14-2.21C26.62,22.58,26.66,18.64,26.66,14.66ZM11.55,8.5a3.51,3.51,0,0,0,0-.58c0-2.48,1.36-3.5,4.42-3.44,2.52,0,3.78,1.22,3.78,3.61v3.27c-2.76,0-5.48,0-8.23,0Zm8.39,9.73-4.53,4.53A1.1,1.1,0,0,1,15,23a1.12,1.12,0,0,1-.84,0,1.1,1.1,0,0,1-.37-.24l-2.49-2.49a1.1,1.1,0,0,1-.24-.37,1.12,1.12,0,0,1,0-.84,1.11,1.11,0,0,1,.61-.61,1.12,1.12,0,0,1,.42-.08,1.11,1.11,0,0,1,.79.32l1.7,1.7,3.74-3.74a1.1,1.1,0,0,1,.37-.24,1.12,1.12,0,0,1,.84,0,1.11,1.11,0,0,1,.37,1.82Z"/><path class="cls-2" d="M12.14,18.37a1.11,1.11,0,0,1,.79.32A1.11,1.11,0,0,0,12.14,18.37Z"/><path class="cls-3" d="M12.14,18.37a1.11,1.11,0,0,1,.79.32A1.11,1.11,0,0,0,12.14,18.37Z"/><polygon class="cls-4" points="14.63 20.4 12.93 18.7 14.63 20.4 14.63 20.4"/><polygon class="cls-5" points="14.63 20.4 12.93 18.7 14.63 20.4 14.63 20.4"/><polygon class="cls-6" points="18.37 16.66 14.63 20.4 14.63 20.4 18.37 16.66"/></svg>