<svg id="Layer_1" data-name="Layer 1" xmlns="http://www.w3.org/2000/svg" xmlns:xlink="http://www.w3.org/1999/xlink" viewBox="0 0 31.3 29.48"><defs><style>.cls-1{fill:url(#linear-gradient);}</style><linearGradient id="linear-gradient" x1="18.86" y1="10.96" x2="11.16" y2="20.13" gradientUnits="userSpaceOnUse"><stop offset="0" stop-color="#006dff"/><stop offset="1" stop-color="#43d2f1"/></linearGradient></defs><title>menu</title><path class="cls-1" d="M9.2,3.3a1.75,1.75,0,0,0-1.69.36L5.1,6.06C4,7.19,3.9,9,4.55,11a16.21,16.21,0,0,0,4,6.06l4.81,4.81a16.19,16.19,0,0,0,6.06,4c2,.65,3.8.6,4.94-.54l2.4-2.41a1.74,1.74,0,0,0,.36-1.69,3.84,3.84,0,0,0-1-1.74l-1.37-1.38a3.84,3.84,0,0,0-1.74-1,1.75,1.75,0,0,0-1.69.36l-2.06,2.06-8.24-8.25L13,9.15a1.74,1.74,0,0,0,.36-1.69,3.84,3.84,0,0,0-1-1.74L10.94,4.34A3.84,3.84,0,0,0,9.2,3.3Z"/></svg>