<svg id="Layer_1" data-name="Layer 1" xmlns="http://www.w3.org/2000/svg" xmlns:xlink="http://www.w3.org/1999/xlink" viewBox="0 0 31.3 29.48"><defs><style>.cls-1{fill:url(#linear-gradient);}.cls-2{fill:url(#linear-gradient-2);}</style><linearGradient id="linear-gradient" x1="22.68" y1="11.4" x2="8.55" y2="28.25" gradientUnits="userSpaceOnUse"><stop offset="0" stop-color="#006dff"/><stop offset="1" stop-color="#43d2f1"/></linearGradient><linearGradient id="linear-gradient-2" x1="21.74" y1="2.86" x2="10.08" y2="16.76" xlink:href="#linear-gradient"/></defs><title>menu</title><path class="cls-1" d="M24.2,14.91a4.31,4.31,0,0,1-2.85-1.08,4.32,4.32,0,0,1-2.83,1.08,4.22,4.22,0,0,1-2.85-1.08,4.43,4.43,0,0,1-2.85,1.08A4.22,4.22,0,0,1,10,13.83a4.43,4.43,0,0,1-2.85,1.08,4.25,4.25,0,0,1-1.34-.22A2.73,2.73,0,0,1,5,14.38V24.9a.9.9,0,0,0,.89.89H17V18.07a.29.29,0,0,1,.29-.29h4.6a.29.29,0,0,1,.29.29v7.72h3.16a.9.9,0,0,0,.89-.89V14.38a2.42,2.42,0,0,1-.72.31A4,4,0,0,1,24.2,14.91Zm-9.9,6a.29.29,0,0,1-.29.29H9.43a.29.29,0,0,1-.29-.29v-2.8a.29.29,0,0,1,.29-.29H14a.29.29,0,0,1,.29.29v2.8Z"/><path class="cls-2" d="M26.5,8.65,23.4,4.31a1.5,1.5,0,0,0-1.2-.62H9.14a1.47,1.47,0,0,0-1.2.62L4.83,8.65a3,3,0,0,0-.55,1.75,2.92,2.92,0,0,0,1.94,2.85A2.88,2.88,0,0,0,9.5,12.1a.56.56,0,0,1,.93,0,2.87,2.87,0,0,0,2.37,1.29,2.78,2.78,0,0,0,2.37-1.29.56.56,0,0,1,.93,0,2.87,2.87,0,0,0,2.37,1.29,2.78,2.78,0,0,0,2.37-1.29.56.56,0,0,1,.93,0,2.86,2.86,0,0,0,3.28,1.15A2.94,2.94,0,0,0,27,10.4h0A2.89,2.89,0,0,0,26.5,8.65Z"/></svg>