<svg id="Layer_1" data-name="Layer 1" xmlns="http://www.w3.org/2000/svg" xmlns:xlink="http://www.w3.org/1999/xlink" viewBox="0 0 31.3 29.48"><defs><style>.cls-1{fill:url(#linear-gradient);}</style><linearGradient id="linear-gradient" x1="24.97" y1="4.64" x2="6.33" y2="26.85" gradientUnits="userSpaceOnUse"><stop offset="0" stop-color="#006dff"/><stop offset="1" stop-color="#43d2f1"/></linearGradient></defs><title>menu</title><path class="cls-1" d="M27.26,11.33V7.69a.68.68,0,0,0,0-.13,2.5,2.5,0,0,0-1.11-1.92,2.54,2.54,0,0,0-1.45-.4H22.37V4.51s0,0,0,0a1.33,1.33,0,0,0,0-.14h0a1.25,1.25,0,0,0-1.22-1.09H20.06a1.27,1.27,0,0,0-1.21.85,3,3,0,0,0-.07,1v.13H12.5V4.51s0,0,0,0a1.33,1.33,0,0,0,0-.14h0a1.25,1.25,0,0,0-1.22-1.09H10.2A1.27,1.27,0,0,0,9,4.09a3,3,0,0,0-.07,1v.14h-2c-.19,0-.38,0-.57,0A2.52,2.52,0,0,0,4.48,6.3,2.44,2.44,0,0,0,4,7.73v3.6s0,0,0,0V23.79A2.46,2.46,0,0,0,5.42,26a2.74,2.74,0,0,0,1.17.26H24.72A2.65,2.65,0,0,0,26,26a2.47,2.47,0,0,0,1.3-2.16c0-.39,0-.78,0-1.17V11.36S27.26,11.34,27.26,11.33Zm-1.49-3.7,0-.18A.79.79,0,0,1,25.77,7.62Zm-.22-.55,0,0ZM5.88,6.92l0,0Zm0,0h0l.19-.11.25-.07c.36,0,.74,0,1.1,0H8.92v.36c0,.13,0,.26,0,.39A1.3,1.3,0,0,0,9,7.82v0A1.26,1.26,0,0,0,9.06,8h0a1.24,1.24,0,0,0,.32.4l0,0,.1.06.11.06.07,0,.07,0,.14,0h0l.22,0h1.09a1.36,1.36,0,0,0,.42-.07,1.17,1.17,0,0,0,.51-.31,1.2,1.2,0,0,0,.3-.55v0a1.52,1.52,0,0,0,0-.36V6.71h6.28v.36c0,.13,0,.26,0,.39a1.3,1.3,0,0,0,.07.36v0a1.26,1.26,0,0,0,.07.17h0a1.24,1.24,0,0,0,.32.4l0,0,.1.06.11.06.07,0,.07,0,.14,0h0l.22,0h1.09a1.36,1.36,0,0,0,.41-.07A1.17,1.17,0,0,0,22,8.33a1.3,1.3,0,0,0,.35-.93V6.71h2.56l.25.07.18.1h0l.1.09.09.1h0a1.54,1.54,0,0,1,.11.19,1.71,1.71,0,0,1,.08.33s0,0,0,.05v2.9H5.52V8c0-.16,0-.33,0-.5A2,2,0,0,1,5.6,7.3l.1-.18v0L5.8,7Z"/></svg>