<svg id="Layer_1" data-name="Layer 1" xmlns="http://www.w3.org/2000/svg" xmlns:xlink="http://www.w3.org/1999/xlink" viewBox="0 0 60.23 60.23"><defs><style>.cls-1{fill:url(#linear-gradient);}.cls-2{fill:url(#linear-gradient-2);}</style><linearGradient id="linear-gradient" x1="49.08" y1="14.47" x2="12.58" y2="45.97" gradientUnits="userSpaceOnUse"><stop offset="0" stop-color="#006dff"/><stop offset="1" stop-color="#43d2f1"/></linearGradient><linearGradient id="linear-gradient-2" x1="49.15" y1="14.55" x2="12.65" y2="46.05" xlink:href="#linear-gradient"/></defs><title>Artboard 1</title><path class="cls-1" d="M53.34,29.07a1.71,1.71,0,0,0-1.76,1.65s0,.08,0,.11a21.52,21.52,0,1,1-6.45-15.28l2.15,2.11-9.83-.32a1.73,1.73,0,0,0-1.28.42,1.71,1.71,0,0,0,1,3h.11l13.28.44a1.7,1.7,0,0,0,1.77-1.65s0-.07,0-.11L51.9,6.19A1.71,1.71,0,0,0,50.16,4.5h-.05a1.71,1.71,0,0,0-1.62,1.79l.26,7.92-2-1.84a24.83,24.83,0,0,0-39.57,28l.09.22A24.87,24.87,0,0,0,55,30.88,1.72,1.72,0,0,0,53.34,29.07Z"/><path class="cls-2" d="M20.42,17.85a1.5,1.5,0,0,0-2.12,0,17.68,17.68,0,0,0,25,25,1.5,1.5,0,0,0-2.12-2.12A14.68,14.68,0,0,1,20.42,20,1.5,1.5,0,0,0,20.42,17.85Z"/></svg>