<svg id="Layer_1" data-name="Layer 1" xmlns="http://www.w3.org/2000/svg" xmlns:xlink="http://www.w3.org/1999/xlink" viewBox="0 0 60.23 60.23"><defs><style>.cls-1{fill:url(#linear-gradient);}.cls-2{fill:url(#linear-gradient-2);}.cls-3{fill:url(#linear-gradient-3);}.cls-4{fill:url(#linear-gradient-4);}.cls-5{fill:url(#linear-gradient-5);}.cls-6{fill:url(#linear-gradient-6);}.cls-7{fill:url(#linear-gradient-7);}.cls-8{fill:url(#linear-gradient-8);}</style><linearGradient id="linear-gradient" x1="47.67" y1="22.92" x2="18.67" y2="51.92" gradientUnits="userSpaceOnUse"><stop offset="0" stop-color="#006dff"/><stop offset="1" stop-color="#43d2f1"/></linearGradient><linearGradient id="linear-gradient-2" x1="24.55" y1="-0.2" x2="-4.45" y2="28.8" xlink:href="#linear-gradient"/><linearGradient id="linear-gradient-3" x1="27.11" y1="2.36" x2="-1.89" y2="31.36" xlink:href="#linear-gradient"/><linearGradient id="linear-gradient-4" x1="33.68" y1="8.93" x2="4.68" y2="37.93" xlink:href="#linear-gradient"/><linearGradient id="linear-gradient-5" x1="41.53" y1="16.78" x2="12.53" y2="45.78" xlink:href="#linear-gradient"/><linearGradient id="linear-gradient-6" x1="27.1" y1="2.35" x2="-1.9" y2="31.35" xlink:href="#linear-gradient"/><linearGradient id="linear-gradient-7" x1="33.71" y1="8.96" x2="4.71" y2="37.96" xlink:href="#linear-gradient"/><linearGradient id="linear-gradient-8" x1="41.54" y1="16.79" x2="12.54" y2="45.79" xlink:href="#linear-gradient"/></defs><title>Artboard 1 copy</title><path class="cls-1" d="M58.42,34.88a3.64,3.64,0,0,0-2.57-3.33L27.22,22h0A4.12,4.12,0,0,0,22,27.2l9.56,28.68a3.79,3.79,0,0,0,3.32,2.58h.23a3.82,3.82,0,0,0,2.68-1.09,5.22,5.22,0,0,0,.74-1l5.79-12,12-5.79A3.67,3.67,0,0,0,58.42,34.88ZM35.2,53.68,25.91,26l27.74,9.25L42.4,40.66a3.72,3.72,0,0,0-1.77,1.76Z"/><path class="cls-2" d="M13.16,16.07a2,2,0,0,0,1.45.58,2.19,2.19,0,0,0,1.47-.57l0,0a2.09,2.09,0,0,0,.63-1.54,1.94,1.94,0,0,0-.63-1.4L11.23,8.26a2.2,2.2,0,0,0-1.54-.63,1.94,1.94,0,0,0-1.4.63A2.09,2.09,0,0,0,7.66,9.8a1.94,1.94,0,0,0,.63,1.4Z"/><path class="cls-3" d="M20.58,10.94a2,2,0,0,0,.72,1.38,2,2,0,0,0,1.27.45l.28,0h0a2.27,2.27,0,0,0,1.21-.61,2.05,2.05,0,0,0,.61-1.7l-.82-6.87a2.07,2.07,0,0,0-4.1.54Z"/><path class="cls-4" d="M30.23,14.28a2.26,2.26,0,0,0,1.08.28,2,2,0,0,0,1.45-.6,1.42,1.42,0,0,0,.31-.39l3.57-5.91a2,2,0,0,0,.28-1.53,2.13,2.13,0,0,0-1-1.35,2,2,0,0,0-1.58-.26,2.09,2.09,0,0,0-1.28,1l-3.58,5.92A2.06,2.06,0,0,0,30.23,14.28Z"/><path class="cls-5" d="M35,20.05a2,2,0,0,0,1.09,1.17,2.14,2.14,0,0,0,.88.19,2.16,2.16,0,0,0,.73-.13l6.4-2.45a1.66,1.66,0,0,0,.76-.48,2.08,2.08,0,0,0,.48-2.19,1.89,1.89,0,0,0-1-1.17,2.12,2.12,0,0,0-1.67-.11l-6.45,2.46A2.1,2.1,0,0,0,35,20.05Z"/><path class="cls-6" d="M10.72,24.68A1.84,1.84,0,0,0,12.17,24a2.31,2.31,0,0,0,.61-1.23A2.09,2.09,0,0,0,11,20.5l-6.86-.82a2.07,2.07,0,1,0-.54,4.1l6.87.88Z"/><path class="cls-7" d="M13.07,29.23a2.05,2.05,0,0,0-1.57.26L5.57,33.07a2.08,2.08,0,1,0,2.16,3.55L13.64,33a1.76,1.76,0,0,0,.4-.32,2,2,0,0,0,.31-2.55A2.09,2.09,0,0,0,13.07,29.23Z"/><path class="cls-8" d="M20.1,35h0a2.09,2.09,0,0,0-2.69,1.23l-2.47,6.46a2.09,2.09,0,0,0,1.22,2.69,1.94,1.94,0,0,0,.73.14,2.31,2.31,0,0,0,1.51-.6,1.86,1.86,0,0,0,.47-.7l2.47-6.47A2.17,2.17,0,0,0,20.1,35Z"/></svg>