<svg id="Layer_1" data-name="Layer 1" xmlns="http://www.w3.org/2000/svg" xmlns:xlink="http://www.w3.org/1999/xlink" viewBox="0 0 60.23 60.23"><defs><style>.cls-1{fill:url(#linear-gradient);}.cls-2{fill:url(#linear-gradient-2);}.cls-3{fill:url(#linear-gradient-3);}</style><linearGradient id="linear-gradient" x1="42.33" y1="3.41" x2="6.33" y2="41.91" gradientUnits="userSpaceOnUse"><stop offset="0" stop-color="#006dff"/><stop offset="1" stop-color="#43d2f1"/></linearGradient><linearGradient id="linear-gradient-2" x1="48.88" y1="9.54" x2="12.88" y2="48.04" xlink:href="#linear-gradient"/><linearGradient id="linear-gradient-3" x1="55.84" y1="16.05" x2="19.84" y2="54.55" xlink:href="#linear-gradient"/></defs><title>Artboard 1 copy 3</title><path class="cls-1" d="M49.56,14.71H27.15a6.54,6.54,0,0,0-12.61,0H10.67a1.76,1.76,0,1,0,0,3.52h3.87a6.54,6.54,0,0,0,12.61,0H49.56a1.76,1.76,0,1,0,0-3.52ZM20.82,19.52a3.05,3.05,0,1,1,3.05-3.05h0a3.05,3.05,0,0,1-3.05,3.05Z"/><path class="cls-2" d="M49.56,27.85h-4a6.54,6.54,0,0,0-12.61,0H10.67a1.76,1.76,0,1,0,0,3.52H32.9a6.54,6.54,0,0,0,12.61,0h4a1.76,1.76,0,1,0,0-3.52ZM39.24,32.66a3.05,3.05,0,1,1,3-3.11v.06A3.05,3.05,0,0,1,39.24,32.66Z"/><path class="cls-3" d="M49.56,41.8H31.9a6.57,6.57,0,0,0-12.55,0H10.67a1.76,1.76,0,1,0,0,3.52h8.62a6.51,6.51,0,0,0,12.67,0h17.6a1.76,1.76,0,1,0,0-3.52Zm-23.94,5a3.05,3.05,0,1,1,3.05-3.05h0A3.05,3.05,0,0,1,25.63,46.79Z"/></svg>