<svg id="Layer_1" data-name="Layer 1" xmlns="http://www.w3.org/2000/svg" xmlns:xlink="http://www.w3.org/1999/xlink" viewBox="0 0 60.23 60.23"><defs><style>.cls-1{fill:url(#linear-gradient);}.cls-2{fill:url(#linear-gradient-2);}</style><linearGradient id="linear-gradient" x1="46.35" y1="7.69" x2="11.85" y2="47.19" gradientUnits="userSpaceOnUse"><stop offset="0" stop-color="#006dff"/><stop offset="1" stop-color="#43d2f1"/></linearGradient><linearGradient id="linear-gradient-2" x1="17.87" y1="29.73" x2="42.39" y2="29.73" xlink:href="#linear-gradient"/></defs><title>Artboard 1 copy 2</title><path class="cls-1" d="M52.61,12.32a6.1,6.1,0,0,0-4.38-5.88l-.88-.26a59.84,59.84,0,0,0-34.48,0L12,6.44a6.1,6.1,0,0,0-4.37,5.88v21.8A22.52,22.52,0,0,0,45.44,50.59h0a22.57,22.57,0,0,0,7.17-16.47Zm-4.09,21.8a18.47,18.47,0,0,1-5.87,13.48h0a18.41,18.41,0,0,1-31-13.48V12.32a2,2,0,0,1,1.46-2l.89-.27a55.73,55.73,0,0,1,32.13,0l.88.26a2,2,0,0,1,1.46,2Z"/><path class="cls-2" d="M39.15,23,26.25,32.17l-4.91-4.91a2,2,0,0,0-2.89,2.89l6.14,6.14a2,2,0,0,0,.36.24l.24.16a2,2,0,0,0,.85.2h0a2,2,0,0,0,.7-.14l.2-.1.29-.14L41.53,26.28A2,2,0,0,0,39.16,23Z"/></svg>