<svg id="Layer_1" data-name="Layer 1" xmlns="http://www.w3.org/2000/svg" xmlns:xlink="http://www.w3.org/1999/xlink" viewBox="0 0 60.23 60.23"><defs><style>.cls-1{fill:url(#linear-gradient);}.cls-2{fill:url(#linear-gradient-2);}.cls-3{fill:url(#linear-gradient-3);}.cls-4{fill:url(#linear-gradient-4);}</style><linearGradient id="linear-gradient" x1="38.39" y1="-1.26" x2="-3.61" y2="46.24" gradientUnits="userSpaceOnUse"><stop offset="0" stop-color="#006dff"/><stop offset="1" stop-color="#43d2f1"/></linearGradient><linearGradient id="linear-gradient-2" x1="38.39" y1="-1.27" x2="-3.61" y2="46.23" xlink:href="#linear-gradient"/><linearGradient id="linear-gradient-3" x1="65.28" y1="22.51" x2="23.28" y2="70.01" xlink:href="#linear-gradient"/><linearGradient id="linear-gradient-4" x1="65.14" y1="22.39" x2="23.14" y2="69.89" xlink:href="#linear-gradient"/></defs><title>Artboard 1 copy 4</title><path class="cls-1" d="M29.19,19.85a9.46,9.46,0,1,0-9.46,9.46A9.47,9.47,0,0,0,29.19,19.85Zm-9.46,6.43a6.43,6.43,0,1,1,6.43-6.43A6.51,6.51,0,0,1,19.73,26.28Z"/><path class="cls-2" d="M31.54,36.07l4.28-4.28A1.4,1.4,0,0,0,36,30l-2.48-3.89.23-.46,4.5-1.07A1.48,1.48,0,0,0,39.45,23V16.92a1.47,1.47,0,0,0-1.2-1.51l-4.51-1.07-.23-.46L36,10a1.43,1.43,0,0,0,0-2l-4.4-4.4a1.4,1.4,0,0,0-1.83-.16L25.82,5.95l-.46-.23-1.07-4.5A1.48,1.48,0,0,0,22.78,0H16.67a1.48,1.48,0,0,0-1.51,1.2L14.09,5.71l-.46.23L9.76,3.48a1.41,1.41,0,0,0-1.85.15L3.51,8a1.4,1.4,0,0,0-.16,1.83l2.48,3.89-.23.46-4.5,1.07A1.48,1.48,0,0,0-.12,16.79V22.9a1.47,1.47,0,0,0,1.2,1.51l4.51,1.07.23.46L3.36,29.82a1.41,1.41,0,0,0,.15,1.85l4.4,4.4a1.4,1.4,0,0,0,1.83.16l3.89-2.48.46.23,1.07,4.5a1.48,1.48,0,0,0,1.51,1.21h6.11a1.47,1.47,0,0,0,1.51-1.2L25.36,34l.46-.23,3.87,2.46A1.41,1.41,0,0,0,31.54,36.07Zm-13.66.72-.94-4.32a1.47,1.47,0,0,0-1-1l-.5-.19a6.22,6.22,0,0,1-1.16-.52,1.68,1.68,0,0,0-1.48,0L9.14,32.92,6.53,30.32l2.2-3.58a1.41,1.41,0,0,0,0-1.52c-.12-.3-.24-.57-.36-.84s-.24-.54-.35-.82A1.78,1.78,0,0,0,7,22.5l-4.17-.93V17.89l4.32-.82a1.47,1.47,0,0,0,1-1c.07-.17.13-.34.19-.5a6.21,6.21,0,0,1,.52-1.16,1.68,1.68,0,0,0,0-1.48L6.53,9.26l2.6-2.6,3.58,2.2a1.41,1.41,0,0,0,1.52,0l.84-.36.83-.36a1.78,1.78,0,0,0,1-1.07l.93-4.17h3.68l.94,4.32a1.47,1.47,0,0,0,1,1l.5.19A6.22,6.22,0,0,1,25.19,9a1.67,1.67,0,0,0,1.48,0l3.65-2.23,2.61,2.61L30.73,13a1.41,1.41,0,0,0,0,1.52c.12.3.24.57.36.84s.24.54.35.82a1.78,1.78,0,0,0,1.07,1l4.17.93v3.68l-4.32.82a1.47,1.47,0,0,0-1,1c-.07.17-.13.34-.19.5a6.21,6.21,0,0,1-.52,1.16,1.68,1.68,0,0,0,0,1.48l2.23,3.65L30.2,33l-3.47-2.19a1.41,1.41,0,0,0-1.52,0l-.84.36-.82.35a1.78,1.78,0,0,0-1,1.07l-.93,4.17Z"/><path class="cls-3" d="M45.15,37.77a7.51,7.51,0,0,0-7.5,7.5,7.42,7.42,0,0,0,7.5,7.5,7.5,7.5,0,1,0,0-15Zm4.47,7.5a4.53,4.53,0,0,1-4.47,4.47,4.47,4.47,0,1,1,4.47-4.47Z"/><path class="cls-4" d="M59.14,41.44,56,40.74h0l1.74-2.79a1.56,1.56,0,0,0-.18-1.81L54.4,33a1.39,1.39,0,0,0-1.81-.17L49.68,34.3,49,31.16a1.48,1.48,0,0,0-1.51-1.21H42.95a1.48,1.48,0,0,0-1.51,1.21l-.7,3.13h0l-2.79-1.74a1.56,1.56,0,0,0-1.81.18l-3.42,3.42A1.4,1.4,0,0,0,32.56,38l1.73,2.77-3.13.7a1.48,1.48,0,0,0-1.21,1.51v4.52A1.48,1.48,0,0,0,31.15,49l3.13.7h0l-1.74,2.79a1.56,1.56,0,0,0,.18,1.81l3.18,3.18a1.4,1.4,0,0,0,1.83.16l2.77-1.73.7,3.13a1.48,1.48,0,0,0,1.51,1.21h4.52A1.48,1.48,0,0,0,48.73,59l.7-3.13h0l2.79,1.74A1.56,1.56,0,0,0,54,57.46l3.18-3.18a1.39,1.39,0,0,0,.17-1.81L56,49.8l3.14-.7a1.48,1.48,0,0,0,1.21-1.51V43.07A1.52,1.52,0,0,0,59.14,41.44ZM52.92,49.3c0,.11,0,.23,0,.36a2.35,2.35,0,0,0,0,1l1.5,2.55-1.51,1.51-2.48-1.46a1.41,1.41,0,0,0-1.55,0,3.74,3.74,0,0,1-.93.38l-.23.07a1.78,1.78,0,0,0-1,1.07L46,57.57H43.81l-.46-3a1.48,1.48,0,0,0-1-1c-.18-.06-.38-.15-.59-.24s-.42-.18-.6-.24a1.71,1.71,0,0,0-1.44,0l-2.55,1.5L35.62,53l1.46-2.48a1.41,1.41,0,0,0,0-1.55,3.71,3.71,0,0,1-.38-.92l-.07-.23a1.78,1.78,0,0,0-1.07-1l-2.83-.68V43.91l2.85-.69a1.48,1.48,0,0,0,1-1c.06-.18.15-.38.24-.59s.18-.42.24-.6a1.71,1.71,0,0,0,0-1.44L35.62,37l1.51-1.51L39.61,37a1.41,1.41,0,0,0,1.55,0,3.71,3.71,0,0,1,.92-.38l.23-.07a1.78,1.78,0,0,0,1-1.07L44,32.61h2.23l.69,2.85a1.48,1.48,0,0,0,1,1c.18.06.38.15.59.24s.42.18.6.24a1.71,1.71,0,0,0,1.44,0l2.55-1.5L54.68,37,53,39.85a1.41,1.41,0,0,0,0,1.55,3.72,3.72,0,0,1,.38.92l.07.23a1.78,1.78,0,0,0,1.07,1l2.83.68v2.09l-2.82.56C53.69,47.1,52.92,48.75,52.92,49.3Z"/></svg>