<svg id="Layer_1" data-name="Layer 1" xmlns="http://www.w3.org/2000/svg" xmlns:xlink="http://www.w3.org/1999/xlink" viewBox="0 0 60.23 60.23"><defs><style>.cls-1{fill:url(#linear-gradient);}.cls-2{fill:url(#linear-gradient-2);}.cls-3{fill:url(#linear-gradient-3);}.cls-4{fill:url(#linear-gradient-4);}</style><linearGradient id="linear-gradient" x1="50.7" y1="9.03" x2="6.7" y2="55.53" gradientUnits="userSpaceOnUse"><stop offset="0" stop-color="#006dff"/><stop offset="1" stop-color="#43d2f1"/></linearGradient><linearGradient id="linear-gradient-2" x1="44.09" y1="2.77" x2="0.09" y2="49.27" xlink:href="#linear-gradient"/><linearGradient id="linear-gradient-3" x1="49.6" y1="7.99" x2="5.6" y2="54.49" xlink:href="#linear-gradient"/><linearGradient id="linear-gradient-4" x1="55.19" y1="13.28" x2="11.19" y2="59.78" xlink:href="#linear-gradient"/></defs><title>Artboard 1 copy 14</title><path class="cls-1" d="M30.13,4.69C14.6,4.69,1.88,15.31,1.88,28.63c0,11.65,9.85,21.32,23,23.41a33,33,0,0,0,13.94,8.08,2.63,2.63,0,0,0,.5.11,2.21,2.21,0,0,0,.61,0,2.13,2.13,0,0,0,.82-.32c.56-.47.55-.46.87-1.29-.06-1.35-.07-1.37-.37-1.74a2.06,2.06,0,0,0-.29-.32c-.13-.12-.53-.4-.53-.39a6,6,0,0,1-1.24-1.26,8.5,8.5,0,0,1-1.29-3.31c11.86-2.9,20.41-12.09,20.41-22.94C58.35,15.31,45.65,4.69,30.13,4.69Zm0,4.21c13.35,0,24,8.92,24,19.73,0,9.29-7.94,17.37-19,19.31a2.12,2.12,0,0,0-1.74,2.21,15.09,15.09,0,0,0,.66,3.45,28.38,28.38,0,0,1-6.66-4.95A2,2,0,0,0,26.21,48C14.6,46.46,6.08,38.22,6.08,28.63,6.08,17.82,16.78,8.9,30.13,8.9Z"/><path class="cls-2" d="M14.92,29a4.38,4.38,0,1,1,4.38,4.38A4.38,4.38,0,0,1,14.92,29Z"/><path class="cls-3" d="M25.38,29a4.38,4.38,0,1,1,4.38,4.38A4.38,4.38,0,0,1,25.38,29Z"/><path class="cls-4" d="M36,29a4.38,4.38,0,1,1,4.38,4.38A4.38,4.38,0,0,1,36,29Z"/></svg>