<svg id="Layer_1" data-name="Layer 1" xmlns="http://www.w3.org/2000/svg" xmlns:xlink="http://www.w3.org/1999/xlink" viewBox="0 0 60.23 60.23"><defs><style>.cls-1{fill:url(#linear-gradient);}</style><linearGradient id="linear-gradient" x1="49.46" y1="9.54" x2="10.96" y2="50.54" gradientUnits="userSpaceOnUse"><stop offset="0" stop-color="#006dff"/><stop offset="1" stop-color="#43d2f1"/></linearGradient></defs><title>Artboard 1 copy 7</title><path class="cls-1" d="M30.13,2.54A27.56,27.56,0,0,0,2.68,27.75H2.6l-.08,3.45h.09A27.55,27.55,0,1,0,30.13,2.54Zm0,3.45a24,24,0,0,1,9.29,1.87L29.07,28.34,6.12,27.82A24.15,24.15,0,0,1,30.13,6ZM6.07,31.27l23.14.52L43.57,50.14A24.09,24.09,0,0,1,6.07,31.27ZM46.27,48,32.13,29.93,42.49,9.43A24,24,0,0,1,46.27,48Z"/></svg>