<svg id="Layer_1" data-name="Layer 1" xmlns="http://www.w3.org/2000/svg" xmlns:xlink="http://www.w3.org/1999/xlink" viewBox="0 0 60.23 60.23"><defs><style>.cls-1{fill:url(#linear-gradient);}</style><linearGradient id="linear-gradient" x1="48.49" y1="9.01" x2="11.49" y2="51.51" gradientUnits="userSpaceOnUse"><stop offset="0" stop-color="#006dff"/><stop offset="1" stop-color="#43d2f1"/></linearGradient></defs><title>Artboard 1 copy 5</title><path class="cls-1" d="M54.94,27.63H45.17a2.48,2.48,0,0,0-2.32,1.57L37.64,43.1,24.9,9.1a2.48,2.48,0,0,0-2.32-1.57A2.56,2.56,0,0,0,20.27,9.1L13.32,27.63h-8a2.48,2.48,0,1,0,0,5h9.76A2.48,2.48,0,0,0,17.37,31l5.21-13.9,12.74,34a2.48,2.48,0,0,0,2.32,1.57A2.56,2.56,0,0,0,40,51.13L46.91,32.6h8a2.48,2.48,0,1,0,0-5Z"/></svg>