<?xml version="1.0" encoding="utf-8"?>
<!-- Generator: Adobe Illustrator 21.1.0, SVG Export Plug-In . SVG Version: 6.00 Build 0)  -->
<svg version="1.1" id="Layer_1" xmlns="http://www.w3.org/2000/svg" xmlns:xlink="http://www.w3.org/1999/xlink" x="0px" y="0px"
	 viewBox="0 0 60.2 60.2" style="enable-background:new 0 0 60.2 60.2;" xml:space="preserve">
<style type="text/css">
	.st0{fill:url(#SVGID_1_);}
	.st1{fill:url(#SVGID_2_);}
	.st2{fill:url(#SVGID_3_);}
	.st3{fill:url(#SVGID_4_);}
</style>
<title>Artboard 1 copy 11</title>
<g>
	<g>
		<linearGradient id="SVGID_1_" gradientUnits="userSpaceOnUse" x1="55.3493" y1="18.3659" x2="7.0159" y2="42.0325">
			<stop  offset="0" style="stop-color:#006DFF"/>
			<stop  offset="1" style="stop-color:#43D2F1"/>
		</linearGradient>
		<path class="st0" d="M47.6,15.5c-0.7-0.7-1.6-1.1-2.6-1c-0.9,0-1.8,0.4-2.4,1.1c-4.1,4.2-8.1,8.3-12,12.3
			c-2.8,2.9-5.6,5.9-8.5,8.8l-0.6,0.6l-8.8-7c-1.5-1.2-3.7-1-4.9,0.5c-0.6,0.7-0.9,1.6-0.7,2.6c0.1,0.9,0.6,1.8,1.3,2.3l11.3,9
			c1.4,1.1,3.4,1,4.7-0.3c4.1-4.1,8-8.2,11.8-12.2c3.7-3.9,7.6-7.9,11.5-11.9c0.7-0.7,1-1.5,1.1-2.5C48.6,17.1,48.3,16.2,47.6,15.5z
			"/>
	</g>
	<linearGradient id="SVGID_2_" gradientUnits="userSpaceOnUse" x1="62.7363" y1="33.452" x2="14.403" y2="57.1187">
		<stop  offset="0" style="stop-color:#006DFF"/>
		<stop  offset="1" style="stop-color:#43D2F1"/>
	</linearGradient>
	<path class="st1" d="M48.5,45.6H32.7c-0.6,0-1.1-0.5-1.1-1.1v-0.3c0-0.6,0.5-1.1,1.1-1.1h15.8c0.6,0,1.1,0.5,1.1,1.1v0.3
		C49.6,45.1,49.1,45.6,48.5,45.6z"/>
	<linearGradient id="SVGID_3_" gradientUnits="userSpaceOnUse" x1="60.8074" y1="29.5127" x2="12.474" y2="53.1793">
		<stop  offset="0" style="stop-color:#006DFF"/>
		<stop  offset="1" style="stop-color:#43D2F1"/>
	</linearGradient>
	<path class="st2" d="M50.6,38.4H39.7c-0.6,0-1.1-0.5-1.1-1.1V37c0-0.6,0.5-1.1,1.1-1.1h10.9c0.6,0,1.1,0.5,1.1,1.1v0.3
		C51.7,37.9,51.2,38.4,50.6,38.4z"/>
	<linearGradient id="SVGID_4_" gradientUnits="userSpaceOnUse" x1="58.9233" y1="25.665" x2="10.59" y2="49.3317">
		<stop  offset="0" style="stop-color:#006DFF"/>
		<stop  offset="1" style="stop-color:#43D2F1"/>
	</linearGradient>
	<path class="st3" d="M53.1,31.3h-6.2c-0.6,0-1.1-0.5-1.1-1.1v-0.3c0-0.6,0.5-1.1,1.1-1.1h6.2c0.6,0,1.1,0.5,1.1,1.1v0.3
		C54.2,30.8,53.7,31.3,53.1,31.3z"/>
</g>
</svg>
