<svg id="Layer_1" data-name="Layer 1" xmlns="http://www.w3.org/2000/svg" xmlns:xlink="http://www.w3.org/1999/xlink" viewBox="0 0 60.23 60.23"><defs><style>.cls-1{fill:url(#linear-gradient);}.cls-2{fill:url(#linear-gradient-2);}.cls-3{fill:url(#linear-gradient-3);}.cls-4{fill:url(#linear-gradient-4);}</style><linearGradient id="linear-gradient" x1="48.12" y1="2.35" x2="5.12" y2="51.85" gradientUnits="userSpaceOnUse"><stop offset="0" stop-color="#006dff"/><stop offset="1" stop-color="#43d2f1"/></linearGradient><linearGradient id="linear-gradient-2" x1="69.94" y1="21.3" x2="26.94" y2="70.8" xlink:href="#linear-gradient"/><linearGradient id="linear-gradient-3" x1="59.91" y1="12.59" x2="16.91" y2="62.09" xlink:href="#linear-gradient"/><linearGradient id="linear-gradient-4" x1="48.83" y1="2.97" x2="5.83" y2="52.47" xlink:href="#linear-gradient"/></defs><title>Artboard 1 copy 8</title><path class="cls-1" d="M22.91,22.12a14,14,0,0,0,12.8,8.44,13.81,13.81,0,0,0,13.8-13.83,1.51,1.51,0,0,0-1.44-1.56,1.5,1.5,0,0,0-1.55,1.45v.08A10.89,10.89,0,1,1,43.25,9l.07.07L39.6,8.92a1.5,1.5,0,1,0-.21,3l7.15.24a1.46,1.46,0,0,0,1.07-.4,1.49,1.49,0,0,0,.48-1.05l-.23-7.15a1.5,1.5,0,0,0-.46-1.06,1.52,1.52,0,0,0-1.09-.42h0a1.5,1.5,0,0,0-1.42,1.56L45,6.48l-.07-.06A13.83,13.83,0,0,0,22.86,22Z"/><path class="cls-2" d="M43,46.42a5.87,5.87,0,1,0,5.87,5.87A5.89,5.89,0,0,0,43,46.42Zm0,8.21a2.35,2.35,0,1,1,2.35-2.35A2.32,2.32,0,0,1,43,54.64Z"/><path class="cls-3" d="M25.42,46.42a5.87,5.87,0,1,0,5.87,5.87A5.89,5.89,0,0,0,25.42,46.42Zm0,8.21a2.35,2.35,0,1,1,2.35-2.35A2.32,2.32,0,0,1,25.42,54.64Z"/><path class="cls-4" d="M56,17.26v0a1.84,1.84,0,0,0-2.48,1.19L50.47,32.12l-.08.33L23.64,34.58l-5.59-14-1.41-3.52-1.91-4.77a1.8,1.8,0,0,0-1.63-1.1H4.89a1.76,1.76,0,0,0,0,3.52h7c2.91,7.21,5.78,14.44,8.67,21.67l-2.66,6.4a1.76,1.76,0,0,0,1.63,2.44H48.89a1.76,1.76,0,1,0,0-3.52H22.2l1.52-3.63L52,35.85a1.81,1.81,0,0,0,1.58-1.36l3.52-15.25A1.85,1.85,0,0,0,56,17.26Z"/></svg>