<svg id="Layer_1" data-name="Layer 1" xmlns="http://www.w3.org/2000/svg" xmlns:xlink="http://www.w3.org/1999/xlink" viewBox="0 0 60.23 60.23"><defs><style>.cls-1{fill:url(#linear-gradient);}</style><linearGradient id="linear-gradient" x1="54.54" y1="10.81" x2="2.04" y2="52.31" gradientUnits="userSpaceOnUse"><stop offset="0" stop-color="#006dff"/><stop offset="1" stop-color="#43d2f1"/></linearGradient></defs><title>Artboard 1 copy 12</title><path class="cls-1" d="M51.79,10.41H8.44a5.91,5.91,0,0,0-5.91,5.91V43.91a5.91,5.91,0,0,0,5.91,5.91H51.79a5.91,5.91,0,0,0,5.91-5.91V16.32A5.91,5.91,0,0,0,51.79,10.41ZM8.44,14.35H51.79a2,2,0,0,1,2,2v2H6.47v-2A2,2,0,0,1,8.44,14.35ZM51.79,45.88H8.44a2,2,0,0,1-2-2V26.17h47.3V43.91A2,2,0,0,1,51.79,45.88Zm-2-9.85V40a2,2,0,0,1-2,2H43.91a2,2,0,0,1-2-2V36a2,2,0,0,1,2-2h3.94A2,2,0,0,1,49.82,36ZM38,38a2,2,0,0,1-2,2H12.38a2,2,0,0,1,0-3.94H36A2,2,0,0,1,38,38Z"/></svg>