<svg id="Layer_1" data-name="Layer 1" xmlns="http://www.w3.org/2000/svg" xmlns:xlink="http://www.w3.org/1999/xlink" viewBox="0 0 60.23 60.23"><defs><style>.cls-1{fill:url(#linear-gradient);}.cls-2{fill:url(#linear-gradient-2);}.cls-3{fill:url(#linear-gradient-3);}.cls-4{fill:url(#linear-gradient-4);}.cls-5{fill:url(#linear-gradient-5);}.cls-6{fill:url(#linear-gradient-6);}.cls-7{fill:url(#linear-gradient-7);}.cls-8{fill:url(#linear-gradient-8);}.cls-9{fill:url(#linear-gradient-9);}.cls-10{fill:url(#linear-gradient-10);}.cls-11{fill:url(#linear-gradient-11);}.cls-12{fill:url(#linear-gradient-12);}.cls-13{fill:url(#linear-gradient-13);}</style><linearGradient id="linear-gradient" x1="62.26" y1="14.07" x2="12.76" y2="60.57" gradientUnits="userSpaceOnUse"><stop offset="0" stop-color="#006dff"/><stop offset="1" stop-color="#43d2f1"/></linearGradient><linearGradient id="linear-gradient-2" x1="58.66" y1="10.24" x2="9.16" y2="56.74" xlink:href="#linear-gradient"/><linearGradient id="linear-gradient-3" x1="50.91" y1="1.99" x2="1.41" y2="48.49" xlink:href="#linear-gradient"/><linearGradient id="linear-gradient-4" x1="50.77" y1="1.84" x2="1.27" y2="48.34" xlink:href="#linear-gradient"/><linearGradient id="linear-gradient-5" x1="54.77" y1="6.1" x2="5.27" y2="52.6" xlink:href="#linear-gradient"/><linearGradient id="linear-gradient-6" x1="58.59" y1="10.17" x2="9.09" y2="56.67" xlink:href="#linear-gradient"/><linearGradient id="linear-gradient-7" x1="62.44" y1="14.26" x2="12.94" y2="60.76" xlink:href="#linear-gradient"/><linearGradient id="linear-gradient-8" x1="66.29" y1="18.36" x2="16.79" y2="64.86" xlink:href="#linear-gradient"/><linearGradient id="linear-gradient-9" x1="70.11" y1="22.43" x2="20.61" y2="68.93" xlink:href="#linear-gradient"/><linearGradient id="linear-gradient-10" x1="55.2" y1="6.55" x2="5.7" y2="53.05" xlink:href="#linear-gradient"/><linearGradient id="linear-gradient-11" x1="37.48" y1="-12.31" x2="-12.02" y2="34.19" xlink:href="#linear-gradient"/><linearGradient id="linear-gradient-12" x1="40.04" y1="-9.59" x2="-9.46" y2="36.91" xlink:href="#linear-gradient"/><linearGradient id="linear-gradient-13" x1="42.62" y1="-6.83" x2="-6.88" y2="39.67" xlink:href="#linear-gradient"/></defs><title>Artboard 1 copy 13</title><path class="cls-1" d="M30.2,37.86H48a.93.93,0,0,0,.94-.94V34.75a.93.93,0,0,0-.94-.94H30.2a.93.93,0,0,0-.94.94v2.17A1,1,0,0,0,30.2,37.86Z"/><path class="cls-2" d="M30.2,30.64H48a.93.93,0,0,0,.94-.94V27.53A.93.93,0,0,0,48,26.6H30.2a.93.93,0,0,0-.94.94V29.7A.93.93,0,0,0,30.2,30.64Z"/><path class="cls-3" d="M17.47,39.5a6.12,6.12,0,0,0,6.22-5.69.43.43,0,0,0-.47-.47H18a.5.5,0,0,1-.47-.47V27.65a.46.46,0,0,0-.47-.47,6.18,6.18,0,0,0-5.69,6.28A6.28,6.28,0,0,0,17.47,39.5Z"/><path class="cls-4" d="M20.29,31.11h5.22a.46.46,0,0,0,.47-.47A6.17,6.17,0,0,0,20.29,25a.43.43,0,0,0-.47.47v5.22A.46.46,0,0,0,20.29,31.11Z"/><circle class="cls-5" cx="13.78" cy="44.61" r="2.41"/><circle class="cls-6" cx="21.93" cy="44.61" r="2.41"/><circle class="cls-7" cx="30.14" cy="44.61" r="2.41"/><circle class="cls-8" cx="38.36" cy="44.61" r="2.41"/><circle class="cls-9" cx="46.51" cy="44.61" r="2.41"/><path class="cls-10" d="M55,5H5.27a3,3,0,0,0-3,3.05V52.17a3,3,0,0,0,3,3.05H55a3,3,0,0,0,3-3.05V8.06A2.93,2.93,0,0,0,55,5ZM54.2,21.08V51.41H6.09V21.08ZM6.09,17.21V8.82H54.2v8.39Z"/><circle class="cls-11" cx="10.49" cy="13.04" r="1.88"/><circle class="cls-12" cx="15.95" cy="13.04" r="1.88"/><circle class="cls-13" cx="21.46" cy="13.04" r="1.88"/></svg>