<svg xmlns="http://www.w3.org/2000/svg" width="209.12" height="200.718" viewBox="0 0 209.12 200.718">
<style>#prefix__Expired_link{fill:url(#prefix__linear-gradient);}</style>
    <defs>
        <linearGradient id="prefix__linear-gradient" x1=".918" x2=".067" y1="1" gradientUnits="objectBoundingBox">
            <stop offset="0" stop-color="#006dff"/>
            <stop offset="1" stop-color="#4be3ff"/>
        </linearGradient>
    </defs>
    <g id="prefix__Expired_link" transform="translate(-721.962 -123.098)">
        <path id="prefix__Unión_36" d="M4165.312-3499.446c-5.906-11.587-2.3-24.362 8.157-34.865q17.427-17.453 34.876-34.865c.729-.74 1.438-1.5 2.229-2.177 3.052-2.585 6.313-3 9.272-.083s2.615 6.376 0 9.273c-3.708 4.1-7.74 7.91-11.646 11.827-8.8 8.816-17.658 17.569-26.4 26.447-7.73 7.856-7.855 17.224-.448 25.363a68.646 68.646 0 0 0 5.531 5.469c7.887 6.9 17.1 6.732 24.574-.646q19-18.755 37.783-37.8c7.292-7.356 7.47-15.63 1.49-24.341-1.49-2.167-2.25-5.97-1.428-8.336 1.469-4.355 7.47-4.22 11.168-.229 9.792 10.566 10.813 28.3.9 38.96-14 15.058-28.813 29.385-43.564 43.764-5.136 4.94-11.948 6.659-21.241 6.7-14.232-.984-24.378-11.015-31.253-24.461zm117.966 14.58v-35.776a6.313 6.313 0 0 1 6.311-6.313 6.316 6.316 0 0 1 6.315 6.318v35.771a6.314 6.314 0 0 1-6.312 6.314 6.314 6.314 0 0 1-6.313-6.313zm45.363-19.716l-25.3-25.3a6.313 6.313 0 0 1 0-8.929 6.314 6.314 0 0 1 8.931 0l25.3 25.3a6.311 6.311 0 0 1 0 8.929 6.289 6.289 0 0 1-4.464 1.852 6.3 6.3 0 0 1-4.462-1.85zm-2.223-42.367a6.313 6.313 0 0 1-6.312-6.31 6.314 6.314 0 0 1 6.313-6.315h35.773a6.313 6.313 0 0 1 6.313 6.311 6.316 6.316 0 0 1-6.313 6.316zm-24.044-32.465c-3.021-3.074-2.667-6.439 1.625-10.743 11.668-11.8 23.335-23.612 35.19-35.241 6.1-5.992 9.531-12.963 5.563-20.944-4.24-8.513-10.615-16.057-21.074-16.162-4.312-.052-9.584 2.449-12.823 5.491-12.991 12.182-25.46 24.925-37.909 37.679-7.292 7.461-7.542 15.8-1.041 24.258 2.666 3.49 3.468 6.825 0 10.1-3.073 2.876-6.73 2.147-10.313-1.824-9.908-10.909-10.033-29.123.3-39.824 13.542-14.057 27.522-27.77 41.429-41.514 5.313-5.261 12.167-7.565 20.334-7.565 12.887 0 27.929 10.941 33.491 24.279 5.073 12.139 2.083 24.3-8.458 34.907q-17.836 17.8-35.544 35.636c-2.323 2.318-4.5 3.468-6.51 3.468a5.91 5.91 0 0 1-4.257-2zm-136.676-5.474a6.313 6.313 0 0 1-6.313-6.311 6.315 6.315 0 0 1 6.315-6.315h35.774a6.313 6.313 0 0 1 6.313 6.31 6.313 6.313 0 0 1-6.315 6.317zm49.924-20.768l-25.3-25.3a6.313 6.313 0 0 1 0-8.928 6.314 6.314 0 0 1 8.929 0l25.3 25.3a6.315 6.315 0 0 1 0 8.929 6.3 6.3 0 0 1-4.463 1.849 6.3 6.3 0 0 1-4.46-1.849zm16.368-18.166v-35.778a6.313 6.313 0 0 1 6.313-6.314 6.314 6.314 0 0 1 6.313 6.313v35.78a6.313 6.313 0 0 1-6.312 6.313 6.314 6.314 0 0 1-6.312-6.31z" data-name="Unión 36" transform="translate(-3437.423 3798.801)"/>
    </g>
</svg>
