<svg id="Layer_1" data-name="Layer 1" xmlns="http://www.w3.org/2000/svg" xmlns:xlink="http://www.w3.org/1999/xlink" viewBox="0 0 129.25 101"><defs><style>.cls-1{fill:url(#linear-gradient);}.cls-2{fill:url(#linear-gradient-2);}.cls-3{fill:url(#linear-gradient-3);}.cls-4{fill:url(#linear-gradient-4);}.cls-5{fill:#acd6f2;}</style><linearGradient id="linear-gradient" x1="93.13" y1="35.85" x2="42.77" y2="95.87" gradientUnits="userSpaceOnUse"><stop offset="0" stop-color="#006dff"/><stop offset="1" stop-color="#43d2f1"/></linearGradient><linearGradient id="linear-gradient-2" x1="58.46" y1="72.09" x2="47.33" y2="85.36" xlink:href="#linear-gradient"/><linearGradient id="linear-gradient-3" x1="67.15" y1="75.19" x2="51.1" y2="94.31" xlink:href="#linear-gradient"/><linearGradient id="linear-gradient-4" x1="93.66" y1="67.23" x2="81.38" y2="81.86" xlink:href="#linear-gradient"/></defs><title>icono-soluciones</title><path class="cls-1" d="M90.53,36.26,35.39,47.81a5.21,5.21,0,0,0-4,6.16l7.84,37.46a5.21,5.21,0,0,0,6.16,4l55.14-11.55a5.21,5.21,0,0,0,4-6.16L96.7,40.29A5.21,5.21,0,0,0,90.53,36.26Zm5,18.87,4.91,23.47a1,1,0,0,1-.78,1.19L44.51,91.34a1,1,0,0,1-1.19-.78L38.41,67.09Zm-1.42-6.8L94.65,51,37.54,63,37,60.29Zm-1.5-7.18.64,3.07-57.1,12-.64-3.07a1,1,0,0,1,.78-1.19L91.4,40.38A1,1,0,0,1,92.58,41.15Z"/><path class="cls-2" d="M45.16,82.49l16.32-3.42A2.1,2.1,0,0,0,60.63,75L44.3,78.38a2.1,2.1,0,1,0,.86,4.11Z"/><path class="cls-3" d="M46.63,89.51,72.48,84.1A2.1,2.1,0,0,0,71.62,80L45.77,85.4a2.1,2.1,0,0,0,.86,4.11Z"/><path class="cls-4" d="M84.72,81.53a6.27,6.27,0,0,0,3.75-2.41A6.27,6.27,0,1,0,86.56,70a6.27,6.27,0,1,0-1.84,11.57ZM83,73.37a2.07,2.07,0,1,1-1.6,2.45A2.07,2.07,0,0,1,83,73.37Zm8.16-1.71a2.07,2.07,0,1,1-1.6,2.45A2.07,2.07,0,0,1,91.18,71.66Z"/><circle class="cls-5" cx="126.54" cy="48.73" r="2.71"/><circle class="cls-5" cx="121.13" cy="27.08" r="2.71"/><path class="cls-5" d="M107.94,10.85h0a2.71,2.71,0,0,1-2.71-2.71h0a2.71,2.71,0,0,0-2.71-2.71h0a2.71,2.71,0,0,0-2.71,2.71h0a2.71,2.71,0,0,1-2.71,2.71h0a2.71,2.71,0,0,0-2.71,2.71h0a2.71,2.71,0,0,0,2.71,2.71h0A2.71,2.71,0,0,1,99.82,19h0a2.71,2.71,0,0,0,2.71,2.71h0A2.71,2.71,0,0,0,105.23,19h0a2.71,2.71,0,0,1,2.71-2.71h0a2.71,2.71,0,0,0,2.71-2.71h0A2.71,2.71,0,0,0,107.94,10.85Z"/><circle class="cls-5" cx="17.29" cy="59.55" r="2.12"/><circle class="cls-5" cx="28.06" cy="91.32" r="2.12"/><path class="cls-5" d="M10.59,79.32h0A2.12,2.12,0,0,1,8.47,77.2h0a2.12,2.12,0,0,0-2.12-2.12h0A2.12,2.12,0,0,0,4.24,77.2h0a2.12,2.12,0,0,1-2.12,2.12h0A2.12,2.12,0,0,0,0,81.43H0a2.12,2.12,0,0,0,2.12,2.12h0a2.12,2.12,0,0,1,2.12,2.12h0a2.12,2.12,0,0,0,2.12,2.12h0a2.12,2.12,0,0,0,2.12-2.12h0a2.12,2.12,0,0,1,2.12-2.12h0a2.12,2.12,0,0,0,2.12-2.12h0A2.12,2.12,0,0,0,10.59,79.32Z"/></svg>