<svg id="Layer_1" data-name="Layer 1" xmlns="http://www.w3.org/2000/svg" xmlns:xlink="http://www.w3.org/1999/xlink" viewBox="0 0 129.25 101"><defs><style>.cls-1{fill:#acd6f2;}.cls-2{fill:url(#linear-gradient);}.cls-3{fill:url(#linear-gradient-2);}</style><linearGradient id="linear-gradient" x1="88.63" y1="32.12" x2="42.22" y2="87.43" gradientUnits="userSpaceOnUse"><stop offset="0" stop-color="#006dff"/><stop offset="1" stop-color="#43d2f1"/></linearGradient><linearGradient id="linear-gradient-2" x1="68.96" y1="68.98" x2="59.21" y2="80.59" xlink:href="#linear-gradient"/></defs><title>icono-soluciones</title><circle class="cls-1" cx="112.54" cy="45.29" r="2.71"/><circle class="cls-1" cx="107.13" cy="23.65" r="2.71"/><path class="cls-1" d="M93.94,7.41h0a2.71,2.71,0,0,1-2.71-2.71h0A2.71,2.71,0,0,0,88.53,2h0a2.71,2.71,0,0,0-2.71,2.71h0a2.71,2.71,0,0,1-2.71,2.71h0a2.71,2.71,0,0,0-2.71,2.71h0a2.71,2.71,0,0,0,2.71,2.71h0a2.71,2.71,0,0,1,2.71,2.71h0a2.71,2.71,0,0,0,2.71,2.71h0a2.71,2.71,0,0,0,2.71-2.71h0a2.71,2.71,0,0,1,2.71-2.71h0a2.71,2.71,0,0,0,2.71-2.71h0A2.71,2.71,0,0,0,93.94,7.41Z"/><circle class="cls-1" cx="36.06" cy="96.88" r="2.12"/><path class="cls-1" d="M24.59,87.88h0a2.12,2.12,0,0,1-2.12-2.12h0a2.12,2.12,0,0,0-2.12-2.12h0a2.12,2.12,0,0,0-2.12,2.12h0a2.12,2.12,0,0,1-2.12,2.12h0A2.12,2.12,0,0,0,14,90h0a2.12,2.12,0,0,0,2.12,2.12h0a2.12,2.12,0,0,1,2.12,2.12h0a2.12,2.12,0,0,0,2.12,2.12h0a2.12,2.12,0,0,0,2.12-2.12h0a2.12,2.12,0,0,1,2.12-2.12h0A2.12,2.12,0,0,0,26.71,90h0A2.12,2.12,0,0,0,24.59,87.88Z"/><path class="cls-2" d="M35,78.83h6.25a2.24,2.24,0,0,0,2.08-2.08V53.83a2.24,2.24,0,0,0-2.08-2.08H39.17V49.67a25.07,25.07,0,0,1,25-25A25.62,25.62,0,0,1,81.87,32a24.73,24.73,0,0,1,7.29,17.71v2.08H87.08A2.24,2.24,0,0,0,85,53.83V76.75a2.24,2.24,0,0,0,2.08,2.08H89A12.53,12.53,0,0,1,76.67,89.25H72.5a5.2,5.2,0,0,0-5.21-4.17H61A5.21,5.21,0,0,0,61,95.5h6.25a5.44,5.44,0,0,0,4.17-2.08h5.21A16.65,16.65,0,0,0,93.13,78.83h.21a8.36,8.36,0,0,0,8.33-8.33V60.08a8.36,8.36,0,0,0-8.33-8.33V49.67a29.17,29.17,0,1,0-58.33,0v2.08a8.36,8.36,0,0,0-8.33,8.33V70.5A8.36,8.36,0,0,0,35,78.83Zm32.29,12.5H61a1,1,0,0,1,0-2.08h6.25a1,1,0,1,1,0,2.08ZM97.5,60.08V70.5a4.18,4.18,0,0,1-4.17,4.17H89.17V55.92h4.17A4.18,4.18,0,0,1,97.5,60.08Zm-66.67,0A4.18,4.18,0,0,1,35,55.92h4.17V74.67H35a4.18,4.18,0,0,1-4.17-4.17Z"/><path class="cls-3" d="M64.17,80.92a12.43,12.43,0,0,0,10-5,2.08,2.08,0,1,0-3.33-2.5,8.33,8.33,0,0,1-13.33,0,2.08,2.08,0,0,0-3.33,2.5A12.43,12.43,0,0,0,64.17,80.92Z"/></svg>