<?xml version="1.0" encoding="utf-8"?>
<!-- Generator: Adobe Illustrator 21.1.0, SVG Export Plug-In . SVG Version: 6.00 Build 0)  -->
<svg version="1.1" id="Layer_1" xmlns="http://www.w3.org/2000/svg" xmlns:xlink="http://www.w3.org/1999/xlink" x="0px" y="0px"
	 viewBox="0 0 120 120" style="enable-background:new 0 0 120 120;" xml:space="preserve">
<style type="text/css">
	.st0{fill:url(#SVGID_1_);}
	.st1{enable-background:new    ;}
	.st2{fill:#FFFFFF;}
</style>
<linearGradient id="SVGID_1_" gradientUnits="userSpaceOnUse" x1="99.6614" y1="108.2717" x2="21.7393" y2="17.3626" gradientTransform="matrix(1 0 0 -1 0 122)">
	<stop  offset="0" style="stop-color:#006DFF"/>
	<stop  offset="1" style="stop-color:#43D2F1"/>
</linearGradient>
<circle class="st0" cx="60" cy="60" r="60"/>
<g class="st1">
	<path class="st2" d="M83.2,85.7c1.1,1.1,1.7,2.5,1.7,4.2c0,1.6-0.6,2.9-1.7,4c-1.1,1.1-2.5,1.6-4.2,1.6H43.5
		c-1.8,0-3.2-0.6-4.3-1.7s-1.6-2.5-1.6-4.3s0.6-3.3,1.9-4.6l22.8-24.3c2.6-2.8,4.6-5.6,6.1-8.4c1.5-2.8,2.2-5.4,2.2-7.8
		c0-3.1-1.1-5.8-3.3-8.1c-2.2-2.3-4.8-3.4-7.7-3.4c-2,0-4.1,0.7-6.1,2c-2.1,1.4-3.9,3.1-5.6,5.4c-1.3,1.7-2.9,2.5-4.8,2.5
		c-1.5,0-2.9-0.6-4.2-1.8c-1.3-1.2-1.9-2.5-1.9-4c0-1,0.3-2.1,1-3.2c0.7-1.1,1.7-2.3,3.1-3.7c2.6-2.6,5.7-4.8,9.2-6.4
		c3.5-1.6,6.8-2.4,10-2.4c4.6,0,8.6,1,12.1,2.9c3.5,1.9,6.2,4.6,8,8c1.9,3.4,2.8,7.3,2.8,11.6c0,4.2-1.1,8.6-3.4,13.1
		c-2.3,4.5-5.3,8.8-9.1,12.9L57.5,84.1H79C80.7,84.1,82.1,84.6,83.2,85.7z"/>
</g>
</svg>
