<?xml version="1.0" encoding="utf-8"?>
<!-- Generator: Adobe Illustrator 21.1.0, SVG Export Plug-In . SVG Version: 6.00 Build 0)  -->
<svg version="1.1" id="Layer_1" xmlns="http://www.w3.org/2000/svg" xmlns:xlink="http://www.w3.org/1999/xlink" x="0px" y="0px"
	 viewBox="0 0 120 120" style="enable-background:new 0 0 120 120;" xml:space="preserve">
<style type="text/css">
	.st0{fill:url(#SVGID_1_);}
	.st1{enable-background:new    ;}
	.st2{fill:#FFFFFF;}
</style>
<linearGradient id="SVGID_1_" gradientUnits="userSpaceOnUse" x1="99.6614" y1="108.2717" x2="21.7393" y2="17.3626" gradientTransform="matrix(1 0 0 -1 0 122)">
	<stop  offset="0" style="stop-color:#006DFF"/>
	<stop  offset="1" style="stop-color:#43D2F1"/>
</linearGradient>
<circle class="st0" cx="60" cy="60" r="60"/>
<g class="st1">
	<path class="st2" d="M81.9,66.9c1.1,1.1,1.7,2.5,1.7,4.2c0,1.6-0.6,2.9-1.7,4c-1.1,1.1-2.5,1.6-4.2,1.6h-4.4v13.5
		c0,1.8-0.6,3.3-1.8,4.5c-1.2,1.2-2.7,1.8-4.5,1.8c-1.7,0-3.2-0.6-4.4-1.8c-1.2-1.2-1.8-2.7-1.8-4.5V76.7H33.7c-1.5,0-3-0.6-4.3-1.8
		c-1.3-1.2-2-2.7-2-4.3c0-1.5,0.5-2.9,1.6-4.2L62,26c1.3-1.7,3.1-2.5,5.2-2.5c1.7,0,3.2,0.6,4.4,1.8c1.2,1.2,1.8,2.7,1.8,4.5v35.4
		h4.4C79.4,65.2,80.8,65.8,81.9,66.9z M43.9,65.2h16.9V44.4L43.9,65.2z"/>
</g>
</svg>
