<?xml version="1.0" encoding="utf-8"?>
<!-- Generator: Adobe Illustrator 21.1.0, SVG Export Plug-In . SVG Version: 6.00 Build 0)  -->
<svg version="1.1" id="Layer_1" xmlns="http://www.w3.org/2000/svg" xmlns:xlink="http://www.w3.org/1999/xlink" x="0px" y="0px"
	 viewBox="0 0 473 240" style="enable-background:new 0 0 473 240;" xml:space="preserve">
<style type="text/css">
	.st0{fill:#E1E1E1;}
	.st1{fill:url(#SVGID_1_);}
	.st2{fill:url(#SVGID_2_);}
	.st3{fill:url(#SVGID_3_);}
	.st4{fill:url(#SVGID_4_);}
	.st5{fill:url(#SVGID_5_);}
	.st6{fill:url(#SVGID_6_);}
	.st7{fill:url(#SVGID_7_);}
	.st8{fill:url(#SVGID_8_);}
	.st9{fill:url(#SVGID_9_);}
	.st10{fill:url(#SVGID_10_);}
	.st11{fill:url(#SVGID_11_);}
	.st12{fill:url(#SVGID_12_);}
	.st13{fill:url(#SVGID_13_);}
	.st14{fill:url(#SVGID_14_);}
	.st15{fill:#4D99FF;}
</style>
<title>paso</title>
<path class="st0" d="M430.5,152.1c-4.3,0-8.8-0.1-13.5-0.4l0.2-4c5.3,0.3,10.4,0.4,15.3,0.3h2.2v4h-2.2L430.5,152.1z M442.5,151.9
	l-0.1-4c6-0.1,11.9-0.4,17.5-0.6l0.2,4C454.5,151.6,448.6,151.8,442.5,151.9L442.5,151.9z M409.2,151.2c-5.6-0.4-11.5-1-17.6-1.8
	l0.5-4c6,0.7,11.9,1.3,17.4,1.7L409.2,151.2z M467.9,150.8l-0.3-4c6-0.4,11.8-0.9,17.4-1.5l0.4,4C479.9,149.9,474,150.4,467.9,150.8
	L467.9,150.8z M383.8,148.4c-5.6-0.8-11.5-1.7-17.4-2.7l0.7-3.9c5.9,1,11.7,1.9,17.3,2.7L383.8,148.4z M358.7,144.3
	c-5.6-1-11.4-2.2-17.3-3.5l0.8-3.9c5.8,1.2,11.6,2.4,17.2,3.4L358.7,144.3z M333.8,139.2c-5.6-1.2-11.4-2.6-17.1-4l1-3.9
	c5.8,1.4,11.5,2.8,17.1,4L333.8,139.2z"/>
<path class="st0" d="M120.5,68.4c-3.6-1.6-6.9-3.2-9.9-4.6c-1.4-0.7-3.7-1.6-6.6-2.7l1.4-3.7c2.9,1.1,5.4,2.1,6.9,2.8
	c2.9,1.4,6.2,3,9.8,4.5L120.5,68.4z M96.6,58.4c-5.4-1.8-11.1-3.7-17.2-5.5l1.1-3.8c6.1,1.8,12,3.7,17.4,5.5L96.6,58.4z M71.7,50.8
	c-5.8-1.6-11.7-3.1-17.5-4.5l0.9-3.9c5.9,1.4,11.8,2.9,17.6,4.5L71.7,50.8z M46.3,44.5C40.4,43.2,34.5,42,28.6,41l0.7-3.9
	c5.9,1,11.9,2.2,17.8,3.5L46.3,44.5z M20.7,39.7c-6-1-12-1.8-17.9-2.4l0.5-4c5.9,0.7,12,1.5,18,2.5L20.7,39.7z M144.3,78.9
	c-3.6-1.6-6.9-3.2-9.9-4.6c-1.4-0.7-3.7-1.6-6.6-2.7l1.4-3.7c2.9,1.1,5.4,2.1,6.9,2.8c2.9,1.4,6.2,2.9,9.8,4.5L144.3,78.9z"/>
<path class="st0" d="M171.8,90.7c-2.9-1.2-16.7-7-19.3-8.2l1.6-3.6c2.6,1.1,16.4,6.9,19.3,8.1L171.8,90.7z"/>
<g>
	
		<linearGradient id="SVGID_1_" gradientUnits="userSpaceOnUse" x1="240.6942" y1="-1196.5505" x2="218.3882" y2="-1223.1295" gradientTransform="matrix(1 0 0 -1 0 -1120.22)">
		<stop  offset="0" style="stop-color:#006DFF"/>
		<stop  offset="1" style="stop-color:#43D2F1"/>
	</linearGradient>
	<path class="st1" d="M218.4,102.8l25.4-3.3l-3-23.2l-25.4,3.3L218.4,102.8z M237.6,80.4l2.1,16l-18.3,2.4l-2.1-16.1L237.6,80.4z"/>
	
		<linearGradient id="SVGID_2_" gradientUnits="userSpaceOnUse" x1="258.8868" y1="-1158.6624" x2="221.2357" y2="-1203.5316" gradientTransform="matrix(1 0 0 -1 0 -1120.22)">
		<stop  offset="0" style="stop-color:#006DFF"/>
		<stop  offset="1" style="stop-color:#43D2F1"/>
	</linearGradient>
	<path class="st2" d="M212.1,51.1l-1.1,0.1l0.1,1.1l3.2,24.3l0.1,1.1l1.1-0.1l52.4-6.8l1.1-0.1l-0.1-1.1l-3.2-24.3l-0.1-1.1
		l-1.1,0.1L212.1,51.1z M218.6,72.4l-2.2-17.2l45.2-5.9l2.3,17.2L218.6,72.4z"/>
	
		<linearGradient id="SVGID_3_" gradientUnits="userSpaceOnUse" x1="268.7236" y1="-1192.8558" x2="246.4177" y2="-1219.4348" gradientTransform="matrix(1 0 0 -1 0 -1120.22)">
		<stop  offset="0" style="stop-color:#006DFF"/>
		<stop  offset="1" style="stop-color:#43D2F1"/>
	</linearGradient>
	<path class="st3" d="M246.4,99.2l25.4-3.3l-3-23.2L243.3,76L246.4,99.2z M265.7,76.7l2.1,16.1l-18.3,2.4l-2.1-16.1L265.7,76.7z"/>
	
		<linearGradient id="SVGID_4_" gradientUnits="userSpaceOnUse" x1="244.053" y1="-1222.2805" x2="221.747" y2="-1248.8595" gradientTransform="matrix(1 0 0 -1 0 -1120.22)">
		<stop  offset="0" style="stop-color:#006DFF"/>
		<stop  offset="1" style="stop-color:#43D2F1"/>
	</linearGradient>
	<path class="st4" d="M221.7,128.6l25.4-3.3l-3-23.2l-25.4,3.3L221.7,128.6z M241,106.1l2.1,16.1l-18.3,2.4l-2.1-16.1L241,106.1z"/>
	
		<linearGradient id="SVGID_5_" gradientUnits="userSpaceOnUse" x1="272.0476" y1="-1218.676" x2="249.7524" y2="-1245.2639" gradientTransform="matrix(1 0 0 -1 0 -1120.22)">
		<stop  offset="0" style="stop-color:#006DFF"/>
		<stop  offset="1" style="stop-color:#43D2F1"/>
	</linearGradient>
	<path class="st5" d="M249.7,125l25.4-3.3l-3-23.2l-25.4,3.3L249.7,125z M269,102.5l2.1,16.1l-18.3,2.4l-2.1-16.1L269,102.5z"/>
	
		<linearGradient id="SVGID_6_" gradientUnits="userSpaceOnUse" x1="233.2091" y1="-1205.4611" x2="225.8909" y2="-1214.1788" gradientTransform="matrix(1 0 0 -1 0 -1120.22)">
		<stop  offset="0" style="stop-color:#006DFF"/>
		<stop  offset="1" style="stop-color:#43D2F1"/>
	</linearGradient>
	<polygon class="st6" points="229.2,96.3 231.6,96 230.9,90.7 236.2,90 235.9,87.5 230.6,88.2 229.9,82.9 227.5,83.2 228.2,88.5 
		222.9,89.2 223.2,91.7 228.5,91 	"/>
	
		<linearGradient id="SVGID_7_" gradientUnits="userSpaceOnUse" x1="237.4425" y1="-1230.2681" x2="228.4531" y2="-1240.9773" gradientTransform="matrix(1 0 0 -1 0 -1120.22)">
		<stop  offset="0" style="stop-color:#006DFF"/>
		<stop  offset="1" style="stop-color:#43D2F1"/>
	</linearGradient>
	<polygon class="st7" points="229.7,121.6 233.2,117.1 237.7,120.6 239.2,118.6 234.7,115.1 238.1,110.6 236.2,109.1 232.7,113.6 
		228.2,110.2 226.7,112.1 231.2,115.6 227.7,120.1 	"/>
	
		<linearGradient id="SVGID_8_" gradientUnits="userSpaceOnUse" x1="260.9939" y1="-1202.0718" x2="254.113" y2="-1210.2629" gradientTransform="matrix(1 0 0 -1 -2.190468e-04 -1120.2212)">
		<stop  offset="0" style="stop-color:#006DFF"/>
		<stop  offset="1" style="stop-color:#43D2F1"/>
	</linearGradient>
	<polygon class="st8" points="251.3,85.5 263.5,83.9 263.8,86.4 251.7,88 	"/>
	
		<linearGradient id="SVGID_9_" gradientUnits="userSpaceOnUse" x1="263.9639" y1="-1225.1871" x2="257.2236" y2="-1233.2273" gradientTransform="matrix(1 0 0 -1 9.651310e-03 -1120.2112)">
		<stop  offset="0" style="stop-color:#006DFF"/>
		<stop  offset="1" style="stop-color:#43D2F1"/>
	</linearGradient>
	<polygon class="st9" points="254.5,108.5 266.3,107 266.7,109.5 254.8,111 	"/>
	
		<linearGradient id="SVGID_10_" gradientUnits="userSpaceOnUse" x1="264.6603" y1="-1230.6727" x2="257.9203" y2="-1238.7028" gradientTransform="matrix(1 0 0 -1 -2.824495e-03 -1120.2228)">
		<stop  offset="0" style="stop-color:#006DFF"/>
		<stop  offset="1" style="stop-color:#43D2F1"/>
	</linearGradient>
	<polygon class="st10" points="255.2,114 267.1,112.5 267.4,114.9 255.5,116.5 	"/>
	
		<linearGradient id="SVGID_11_" gradientUnits="userSpaceOnUse" x1="234.3976" y1="-1185.4219" x2="231.7076" y2="-1188.6218" gradientTransform="matrix(1 0 0 -1 -5.936015e-03 -1120.2179)">
		<stop  offset="0" style="stop-color:#006DFF"/>
		<stop  offset="1" style="stop-color:#43D2F1"/>
	</linearGradient>
	<polygon class="st11" points="231.2,65.8 234.6,65.4 234.9,67.8 231.5,68.3 	"/>
	
		<linearGradient id="SVGID_12_" gradientUnits="userSpaceOnUse" x1="243.1416" y1="-1186.9746" x2="240.4515" y2="-1190.1746" gradientTransform="matrix(0.9985 -5.382576e-04 -5.382576e-04 -0.9985 -1.6812 -1121.0526)">
		<stop  offset="0" style="stop-color:#006DFF"/>
		<stop  offset="1" style="stop-color:#43D2F1"/>
	</linearGradient>
	<polygon class="st12" points="238.6,64.6 241.9,64.2 242.2,66.6 238.9,67.1 	"/>
	
		<linearGradient id="SVGID_13_" gradientUnits="userSpaceOnUse" x1="249.7009" y1="-1183.4062" x2="247.0208" y2="-1186.6062" gradientTransform="matrix(1 0 0 -1 -4.160719e-03 -1120.2142)">
		<stop  offset="0" style="stop-color:#006DFF"/>
		<stop  offset="1" style="stop-color:#43D2F1"/>
	</linearGradient>
	<polygon class="st13" points="246.5,63.8 249.9,63.3 250.2,65.8 246.8,66.2 	"/>
	
		<linearGradient id="SVGID_14_" gradientUnits="userSpaceOnUse" x1="279.8688" y1="-1163.9845" x2="207.0653" y2="-1250.7462" gradientTransform="matrix(1 0 0 -1 0 -1120.22)">
		<stop  offset="0" style="stop-color:#006DFF"/>
		<stop  offset="1" style="stop-color:#43D2F1"/>
	</linearGradient>
	<path class="st14" d="M271.9,37.1c-1.4-1.1-3.2-1.6-5-1.3l-59.4,7.8c-3.7,0.5-6.2,3.9-5.8,7.5l10.7,81.6c0.5,3.7,3.9,6.3,7.6,5.8
		l59.4-7.8c3.7-0.5,6.3-3.9,5.8-7.6l-10.7-81.5C274.3,39.8,273.3,38.1,271.9,37.1z M280.5,123.7c0.1,1.1-0.6,2.1-1.8,2.3l-59.4,7.8
		c-1.1,0.1-2.2-0.6-2.3-1.8l0,0l-10.7-81.6c-0.1-1.1,0.6-2.2,1.8-2.3l0,0l59.3-7.8c1.1-0.1,2.2,0.6,2.3,1.8l0,0L280.5,123.7z"/>
</g>
<path d="M260.1,227.6c0.8,0.8,1.3,1.9,1.2,3.1c0,1.1-0.4,2.2-1.2,3s-1.9,1.3-3.1,1.2h-26.5c-1.2,0.1-2.4-0.4-3.2-1.2
	c-0.8-0.9-1.2-2-1.2-3.2c0-1.3,0.5-2.5,1.4-3.4l17-18.1c1.8-1.9,3.3-4,4.6-6.3c1-1.8,1.6-3.8,1.7-5.8c0-2.3-0.9-4.5-2.5-6.1
	c-1.5-1.6-3.6-2.6-5.8-2.6c-1.6,0-3.2,0.6-4.6,1.5c-1.6,1.1-3,2.4-4.2,4c-0.8,1.2-2.1,1.9-3.6,1.9c-1.2,0-2.3-0.5-3.1-1.3
	c-0.9-0.7-1.4-1.8-1.4-3c0-0.8,0.3-1.7,0.8-2.4c0.7-1,1.5-1.9,2.3-2.8c2-2,4.3-3.6,6.9-4.8c2.3-1.1,4.9-1.7,7.5-1.8
	c3.1-0.1,6.2,0.7,9,2.2c2.5,1.4,4.6,3.5,6,6c1.4,2.7,2.2,5.6,2.1,8.6c-0.1,3.4-0.9,6.8-2.5,9.8c-1.8,3.5-4.1,6.7-6.8,9.6l-9.9,10.5
	h16C258.1,226.4,259.3,226.8,260.1,227.6z"/>
<g>
	<circle class="st15" cx="259.5" cy="156.6" r="2"/>
	<circle class="st15" cx="304.5" cy="113.6" r="2"/>
	<path class="st15" d="M300.7,81.3L300,83l-1.7-0.7c-1-0.3-2,0.2-2.3,1.2c-0.3,0.9,0.1,1.8,0.9,2.2l1.7,0.7L298,88
		c-0.4,0.9-0.1,2,0.8,2.4s2,0.1,2.4-0.8c0-0.1,0.1-0.1,0.1-0.2l0.7-1.7l1.7,0.7c1,0.3,2-0.2,2.3-1.2c0.3-0.9-0.1-1.8-0.9-2.2
		l-1.7-0.7l0.7-1.7c0.3-1-0.2-2-1.2-2.3C302,80.1,301.1,80.5,300.7,81.3L300.7,81.3z"/>
	<path class="st15" d="M194.7,92.5l-0.2,1.8l-1.8-0.3c-1-0.2-1.9,0.4-2.2,1.4c-0.2,1,0.4,1.9,1.4,2.2c0.1,0,0.2,0,0.3,0l1.8,0.3
		l-0.3,1.8c-0.1,1,0.7,1.9,1.7,1.9c0.9,0.1,1.7-0.5,1.9-1.4l0.3-1.8l1.8,0.3c1,0.2,1.9-0.4,2.2-1.4c0.2-1-0.4-1.9-1.4-2.2
		c-0.1,0-0.2,0-0.3,0l-1.8-0.3l0.3-1.8c0.1-1-0.7-1.9-1.7-1.9C195.7,91,194.9,91.6,194.7,92.5L194.7,92.5z"/>
	<path class="st15" d="M209.8,13.4l-0.2,1.5l-1.5-0.2c-0.9-0.1-1.6,0.6-1.7,1.4c-0.1,0.8,0.5,1.5,1.2,1.7l1.5,0.2l-0.2,1.5
		c-0.2,0.8,0.4,1.7,1.2,1.8c0.8,0.2,1.7-0.4,1.8-1.2c0-0.1,0-0.1,0-0.2l0.2-1.5l1.5,0.2c0.9,0.1,1.6-0.6,1.7-1.4
		c0.1-0.8-0.5-1.5-1.2-1.7l-1.5-0.2l0.2-1.5c0.2-0.8-0.4-1.7-1.2-1.8c-0.8-0.2-1.7,0.4-1.8,1.2C209.8,13.3,209.8,13.3,209.8,13.4z"
		/>
	<path class="st15" d="M283,145l-0.2,1.4l-1.4-0.2c-0.8-0.1-1.5,0.4-1.6,1.2s0.4,1.5,1.2,1.6l1.4,0.2l-0.2,1.4
		c-0.1,0.8,0.4,1.5,1.2,1.6c0.8,0.1,1.5-0.4,1.6-1.2l0,0l0.2-1.4l1.4,0.2c0.8,0.1,1.5-0.4,1.6-1.2s-0.4-1.5-1.2-1.6l-1.4-0.2
		l0.2-1.4c0.1-0.8-0.4-1.5-1.2-1.6C283.9,143.7,283.1,144.2,283,145z"/>
	<circle class="st15" cx="291.5" cy="56.6" r="2"/>
	<circle class="st15" cx="192.5" cy="36.6" r="2"/>
	<circle class="st15" cx="183" cy="73.1" r="2.5"/>
</g>
</svg>
