<?xml version="1.0" encoding="utf-8"?>
<!-- Generator: Adobe Illustrator 21.1.0, SVG Export Plug-In . SVG Version: 6.00 Build 0)  -->
<svg version="1.1" id="Layer_1" xmlns="http://www.w3.org/2000/svg" xmlns:xlink="http://www.w3.org/1999/xlink" x="0px" y="0px"
	 viewBox="0 0 120 120" style="enable-background:new 0 0 120 120;" xml:space="preserve">
<style type="text/css">
	.st0{fill:url(#SVGID_1_);}
	.st1{enable-background:new    ;}
	.st2{fill:#FFFFFF;}
</style>
<linearGradient id="SVGID_1_" gradientUnits="userSpaceOnUse" x1="99.6614" y1="108.2717" x2="21.7393" y2="17.3626" gradientTransform="matrix(1 0 0 -1 0 122)">
	<stop  offset="0" style="stop-color:#006DFF"/>
	<stop  offset="1" style="stop-color:#43D2F1"/>
</linearGradient>
<circle class="st0" cx="60" cy="60" r="60"/>
<g class="st1">
	<path class="st2" d="M73,50.7c3.7,2.1,6.6,5,8.8,8.7c2.1,3.7,3.2,7.8,3.2,12.3c0,4.7-1.3,9-4,12.9c-2.6,4-6.2,7.1-10.5,9.4
		c-4.4,2.3-9.1,3.5-14.2,3.5c-2.7,0-5.5-0.4-8.4-1.3c-2.9-0.8-5.2-2-7-3.4c-0.8-0.7-1.5-1.7-2.1-2.9c-0.6-1.3-0.8-2.4-0.8-3.5
		c0-1.3,0.5-2.4,1.6-3.4c1.1-1,2.5-1.5,4.2-1.5c1.3,0,2.8,0.7,4.7,2c2.9,1.8,5.5,2.7,7.7,2.7c2.9,0,5.5-0.7,8-2
		c2.5-1.3,4.5-3.1,6-5.3c1.5-2.2,2.2-4.6,2.2-7.2c0-3.8-1.3-6.8-3.9-9.2C66,60.2,62.9,59,59.3,59c-1.6,0-3,0.2-4.3,0.6
		c-1.3,0.4-2.8,1-4.5,1.9c-1.3,0.6-2.2,1.1-3,1.4c-0.7,0.3-1.5,0.4-2.2,0.4c-2.7,0-4.6-0.7-5.8-2.2c-1.1-1.5-1.7-3.2-1.7-5.2
		c0-0.7,0-1.2,0.1-1.5l3.2-25.9c0.3-1.5,1-2.7,2.1-3.6s2.5-1.4,4.1-1.4h30.2c1.7,0,3.1,0.6,4.2,1.7c1.1,1.1,1.7,2.5,1.7,4.2
		c0,1.6-0.6,2.9-1.7,4c-1.1,1.1-2.5,1.6-4.2,1.6H51.7l-2,15.1c1.3-0.8,3-1.4,5-1.9c2-0.5,3.9-0.7,5.7-0.7
		C65.1,47.5,69.2,48.5,73,50.7z"/>
</g>
</svg>
