<?xml version="1.0" encoding="utf-8"?>
<!-- Generator: Adobe Illustrator 21.1.0, SVG Export Plug-In . SVG Version: 6.00 Build 0)  -->
<svg version="1.1" id="Layer_1" xmlns="http://www.w3.org/2000/svg" xmlns:xlink="http://www.w3.org/1999/xlink" x="0px" y="0px"
	 viewBox="0 0 473 240" style="enable-background:new 0 0 473 240;" xml:space="preserve">
<style type="text/css">
	<!--.st0{fill:url(#SVGID_1_);}-->
	.st0{fill:#000000;}
	.st1{fill:#D9D9D9;}
	.st2{fill:#4D99FF;}
	.st3{fill:url(#SVGID_2_);}
	.st4{fill:url(#SVGID_3_);}
	.st5{fill:url(#SVGID_4_);}
	.st6{fill:url(#SVGID_5_);}
	.st7{fill:url(#SVGID_6_);}
</style>
<title>paso</title>
<linearGradient id="SVGID_1_" gradientUnits="userSpaceOnUse" x1="287.3301" y1="195.1434" x2="474.5599" y2="195.1434" gradientTransform="matrix(1 0 0 -1 0 242)">
	<stop  offset="0.21" style="stop-color:#FF575F"/>
	<stop  offset="0.78" style="stop-color:#FF9A6B"/>
</linearGradient>
<path class="st1" d="M297,62.6l-1.3-3.8c5.7-2,11.5-4,17.2-5.8l1.2,3.8C308.3,58.7,302.6,60.6,297,62.6z M321.8,54.5l-1.2-3.8
	c5.8-1.8,11.7-3.5,17.5-5l1,3.9C333.4,51,327.5,52.7,321.8,54.5L321.8,54.5z M346.9,47.5l-1-3.9c5.9-1.5,11.9-2.9,17.7-4.1l0.8,3.9
	C358.7,44.7,352.8,46,346.9,47.5z M372.3,41.8l-0.8-3.9c6-1.2,12.1-2.2,18-3.1l0.6,4C384.3,39.7,378.3,40.7,372.3,41.8L372.3,41.8z
	 M398.1,37.7l-0.5-4c6.1-0.8,12.2-1.4,18.1-1.8l0.3,4C410.1,36.4,404.1,37,398.1,37.7L398.1,37.7z M467.9,36.4
	c-6.1-0.6-12.1-1-18-1.2l0.1-4c5.9,0.2,12,0.6,18.2,1.2L467.9,36.4z M423.9,35.4l-0.2-4c6.2-0.3,12.3-0.4,18.3-0.3v4
	C436.1,35,430,35.1,423.9,35.4L423.9,35.4z"/>
<path class="st0" d="M244.2,181.8c0.9,0.9,1.4,2.1,1.3,3.4v45c0,1.3-0.5,2.5-1.5,3.4c-1,0.9-2.3,1.4-3.7,1.4c-1.3,0-2.6-0.4-3.6-1.4
	c-0.9-0.9-1.4-2.1-1.4-3.4v-36.9l-4.8,3c-0.7,0.5-1.6,0.7-2.5,0.7c-1.3,0-2.5-0.5-3.3-1.5c-0.9-0.9-1.3-2-1.4-3.3
	c0-0.8,0.2-1.6,0.7-2.3c0.4-0.7,1-1.3,1.8-1.7l11.8-7c1-0.5,2.2-0.7,3.4-0.7C242.2,180.5,243.4,181,244.2,181.8z"/>
<g>
	<path class="st2" d="M282.1,53.6v1.5h-1.5c-0.9-0.1-1.6,0.6-1.7,1.4c-0.1,0.9,0.6,1.6,1.4,1.7c0.1,0,0.2,0,0.2,0h1.5v1.5
		c0.1,0.9,0.8,1.5,1.7,1.4c0.8-0.1,1.4-0.7,1.4-1.4v-1.5h1.6c0.9-0.1,1.5-0.8,1.4-1.7c-0.1-0.8-0.7-1.4-1.4-1.4h-1.6v-1.5
		c-0.1-0.9-0.8-1.5-1.7-1.4C282.7,52.2,282.1,52.8,282.1,53.6L282.1,53.6z"/>
	<path class="st2" d="M187.8,67.4v1.4h-1.4c-0.8,0-1.4,0.6-1.4,1.4c0,0.8,0.6,1.4,1.4,1.4h1.4v1.4c0,0.8,0.6,1.4,1.4,1.4
		c0.8,0,1.4-0.6,1.4-1.4c0,0,0,0,0,0v-1.4h1.4c0.8,0,1.4-0.6,1.4-1.4c0-0.8-0.6-1.4-1.4-1.4c0,0,0,0,0,0h-1.4v-1.4
		c0-0.8-0.6-1.4-1.4-1.4C188.4,66,187.8,66.7,187.8,67.4L187.8,67.4z"/>
	<path class="st2" d="M187.5,23.3v1.3h-1.3c-0.7-0.1-1.3,0.4-1.4,1.1c-0.1,0.7,0.4,1.3,1.1,1.4c0.1,0,0.1,0,0.2,0h1.3v1.3
		c-0.1,0.7,0.4,1.3,1.1,1.4s1.3-0.4,1.4-1.1c0-0.1,0-0.1,0-0.2v-1.3h1.3c0.7-0.1,1.2-0.7,1.1-1.4c-0.1-0.6-0.5-1.1-1.1-1.1H190v-1.3
		c-0.1-0.7-0.7-1.2-1.4-1.1C188,22.2,187.5,22.7,187.5,23.3L187.5,23.3z"/>
	<path class="st2" d="M243,6.2v1.1h-1.1c-0.6-0.1-1.2,0.4-1.2,1c-0.1,0.6,0.4,1.2,1,1.2c0.1,0,0.1,0,0.2,0h1.1v1.1
		c0.1,0.6,0.6,1.1,1.2,1c0.5-0.1,1-0.5,1-1V9.5h1.1c0.6-0.1,1.1-0.6,1-1.2c-0.1-0.5-0.5-1-1-1h-1.1V6.2c-0.1-0.6-0.6-1.1-1.2-1
		C243.5,5.2,243.1,5.6,243,6.2L243,6.2z"/>
	<circle class="st2" cx="210.3" cy="16.1" r="1.5"/>
	<circle class="st2" cx="279.8" cy="36.6" r="2"/>
	<circle class="st2" cx="278.8" cy="71.6" r="2"/>
</g>
<linearGradient id="SVGID_2_" gradientUnits="userSpaceOnUse" x1="0" y1="146.43" x2="22" y2="146.43" gradientTransform="matrix(1 0 0 -1 0 242)">
	<stop  offset="0.21" style="stop-color:#FF575F"/>
	<stop  offset="0.78" style="stop-color:#FF9A6B"/>
</linearGradient>
<path class="st1" d="M11,106.6c-6.1,0-11-4.9-11-11s4.9-11,11-11s11,4.9,11,11l0,0C22,101.6,17.1,106.6,11,106.6z M11,90.6
	c-2.8,0-5,2.2-5,5s2.2,5,5,5s5-2.2,5-5S13.8,90.6,11,90.6z"/>
<g>
	<linearGradient id="SVGID_3_" gradientUnits="userSpaceOnUse" x1="29.626" y1="109.0054" x2="174.9719" y2="109.0054">
		<stop  offset="0.21" style="stop-color:#FF575F"/>
		<stop  offset="0.78" style="stop-color:#FF9A6B"/>
	</linearGradient>
	<path class="st1" d="M35.2,112.1c-3.6-1.6-5.5-2.8-5.6-2.9l2.2-3.4c0,0,1.8,1.1,5.1,2.6L35.2,112.1z"/>
	<linearGradient id="SVGID_4_" gradientUnits="userSpaceOnUse" x1="30.516" y1="110.8982" x2="168.5069" y2="110.8982">
		<stop  offset="0.21" style="stop-color:#FF575F"/>
		<stop  offset="0.78" style="stop-color:#FF9A6B"/>
	</linearGradient>
	<path class="st1" d="M75.1,119.7c-1,0-2,0-3,0l0.1-4c2,0,4.1,0,6.2,0c2.1-0.1,4.1-0.1,6-0.2l0.1,4c-1.9,0.1-3.9,0.1-6,0.2
		C77.4,119.7,76.2,119.7,75.1,119.7z M97,118.9l-0.3-4c4.5-0.3,8.5-0.7,12.2-1.1l0.5,4C105.6,118.2,101.5,118.6,97,118.9z
		 M59.6,118.7c-4.3-0.6-8.4-1.4-12.4-2.4l1-3.9c3.8,1,7.8,1.8,11.9,2.3L59.6,118.7z M121.7,115.7l-0.8-3.9c3.7-0.7,7.4-1.6,12-2.7
		l0.9,3.9C129.2,114.1,125.4,115,121.7,115.7z M145.9,109.8l-1.2-3.8c3.5-1.1,7.4-2.4,11.6-4l1.4,3.8
		C153.4,107.4,149.4,108.8,145.9,109.8z"/>
	<linearGradient id="SVGID_5_" gradientUnits="userSpaceOnUse" x1="29.6336" y1="98.3594" x2="174.9727" y2="98.3594">
		<stop  offset="0.21" style="stop-color:#FF575F"/>
		<stop  offset="0.78" style="stop-color:#FF9A6B"/>
	</linearGradient>
	<path class="st1" d="M169.4,101.3l-1.5-3.7c3.4-1.3,5.5-2.3,5.5-2.3l1.6,3.7C175,99.1,172.8,100,169.4,101.3z"/>
</g>
<linearGradient id="SVGID_6_" gradientUnits="userSpaceOnUse" x1="268.2261" y1="193.4432" x2="202.3984" y2="114.9983" gradientTransform="matrix(1 0 0 -1 0 242)">
	<stop  offset="0" style="stop-color:#006DFF"/>
	<stop  offset="1" style="stop-color:#43D2F1"/>
</linearGradient>
<path class="st7" d="M259.8,53.7c0.1-0.9,0.2-1.8,0.2-2.7c0-12.2-11.4-22.2-25.4-22.4c-7.7-0.1-15.1,3.2-20.2,9
	c-3.9,4.3-5.8,10.2-5,16l0.6,4.8c-2.6,1.9-4.1,4.9-4,8.1c0,4.4,2.6,8.1,6.1,9.1c1.3,6.3,4.9,11.9,10.1,15.8l-0.2,2.7
	c-0.3,0-0.5,0.1-0.8,0.2l-1.9,0.9c-2.2,1-4.6,1.8-7,2.2c-7.4,1.5-13.8,7.7-16.3,15.6c-0.2,0.6-0.2,1.3,0.1,1.9
	c7.8,16.8,23.6,28.5,38.5,28.5s29.3-9.8,38.5-28.5c0.2-0.3,0.2-0.7,0.2-1.1c0-0.3,0-0.5-0.1-0.8c-2.6-7.9-9-14.1-16.3-15.6
	c-2.4-0.4-4.7-1.2-6.9-2.2l-1.9-0.9c-0.2-0.1-0.5-0.2-0.8-0.2l-0.2-2.7c5.2-3.9,8.8-9.5,10.1-15.8c3.5-1,6.1-4.7,6.1-9.1
	c0.1-3.2-1.4-6.2-4-8.1c0.1-0.9,0.2-1.7,0.3-2.6C259.6,55.1,259.7,54.4,259.8,53.7z M242.4,98.2l-3.1,3.8c-1,1-0.9,2.7,0.2,3.6
	c1,1,2.7,0.9,3.6-0.2c0.1-0.1,0.1-0.1,0.2-0.2l3.7-4.5c0.2-0.3,0.4-0.6,0.5-0.9l0.2,0.1c2.6,1.2,5.3,2.1,8.1,2.6
	c5.3,1.1,10,5.5,12.2,11.2l-0.1,0.2c-8,15.6-20.7,24.4-33.3,24.4s-26.3-10.1-33.4-24.6c2.2-5.8,6.9-10.1,12.2-11.2
	c2.8-0.5,5.5-1.4,8.1-2.6l0.2-0.1c0.1,0.3,0.3,0.7,0.5,0.9l7.4,9c1.2,1.5,3,2.3,4.9,2.4h0.2c1.8,0,3.6-0.8,4.9-2.1c1-1,1-2.6,0-3.6
	c-1-1-2.6-1-3.6,0c0,0-0.1,0.1-0.1,0.1c-0.3,0.3-0.7,0.5-1.1,0.5c-0.4,0-0.8-0.2-1.1-0.5l-6.7-8.2l0.3-4.2c4.8,1.9,10.2,1.9,15.1,0
	L242.4,98.2z M255.2,70.8h-0.4h-0.3h-0.1c-0.3,0.1-0.6,0.2-0.9,0.4l0,0c-0.1,0.1-0.2,0.2-0.3,0.3l-0.1,0.1c-0.1,0.1-0.1,0.2-0.2,0.3
	l-0.1,0.2c0,0.1-0.1,0.2-0.1,0.2c0,0.1-0.1,0.1-0.1,0.2s0,0.1-0.1,0.1s0,0.1,0,0.1s0,0.1,0,0.1c-1.6,9.9-9.2,17.4-17.8,17.4
	s-16.4-7.4-17.9-17.3c0,0,0-0.1,0-0.1s0-0.1,0-0.1s0-0.1,0-0.1s0-0.1-0.1-0.2c0-0.1-0.1-0.2-0.1-0.2l-0.1-0.2
	c-0.1-0.1-0.1-0.2-0.2-0.2l-0.1-0.1c-0.1-0.1-0.2-0.1-0.2-0.2l-0.1-0.1c-0.1-0.1-0.2-0.1-0.3-0.2l-0.2-0.1c-0.1-0.1-0.2-0.1-0.4-0.1
	h-0.2h-0.3H214c-1.6-0.1-2.9-2-2.9-4.3s1.2-3.8,2.4-4.2c0.1,0,0.3-0.1,0.4-0.2c0.7,0,1.3,0.1,2,0.1h0.8c1.7,0,3.4-0.2,5.1-0.5
	c1.4-0.4,2.2-1.8,1.8-3.1c-0.3-1.2-1.5-2-2.7-1.9c-1.4,0.3-2.9,0.4-4.3,0.4c-0.6,0-1.1,0-1.6,0l-0.5-4.1c-0.6-4.4,0.8-8.7,3.8-12
	c4.2-4.6,10.1-7.3,16.3-7.2c11.2,0.1,20.3,7.8,20.3,17.2c0,0.4-0.1,0.8-0.1,1.2c-4.2-1.5-7.9-4.3-10.4-8.1l-0.1-0.1l-0.2-0.2
	l-0.2-0.2l-0.1-0.1l-0.1-0.1l-0.2-0.2l-0.2-0.1l-0.2-0.1l-0.2-0.1h-0.2h-0.3h-0.2h-0.3h-0.2l-0.3,0.1l-0.2,0.1l-0.3,0.1h-0.1
	l-0.1,0.1l-0.2,0.2l-0.2,0.2l-0.1,0c-3.7,4.9-8.5,8.7-14.1,11.1c-1.3,0.5-1.9,2-1.4,3.3c0.4,1,1.3,1.6,2.4,1.6c0.3,0,0.7-0.1,1-0.2
	c5.4-2.3,10.2-5.8,14.1-10.2c3.2,3.7,7.3,6.4,12,7.8c-0.1,0.7-0.2,1.4-0.3,2.1l0,0c0,0.1,0,0.3,0,0.4c0,0,0,0.1,0,0.1s0,0.2,0,0.2
	c0.1,0.4,0.2,0.7,0.5,1v0.1c0.1,0.1,0.2,0.2,0.3,0.3v0c0.1,0.1,0.3,0.2,0.4,0.3h0.1c0.1,0.1,0.3,0.1,0.4,0.2l0,0
	c1.2,0.4,2.4,1.9,2.4,4.2S256.8,70.7,255.2,70.8z"/>
</svg>
