<?xml version="1.0" encoding="utf-8"?>
<!-- Generator: Adobe Illustrator 21.1.0, SVG Export Plug-In . SVG Version: 6.00 Build 0)  -->
<svg version="1.1" id="Layer_1" xmlns="http://www.w3.org/2000/svg" xmlns:xlink="http://www.w3.org/1999/xlink" x="0px" y="0px"
	 viewBox="0 0 473 240" style="enable-background:new 0 0 473 240;" xml:space="preserve">
<style type="text/css">
	.st0{fill:#000000;}
	.st1{fill:#D9D9D9;}
	.st2{fill:url(#SVGID_3_);}
	.st3{fill:url(#SVGID_4_);}
	.st4{fill:url(#SVGID_5_);}
	.st5{fill:url(#SVGID_6_);}
	.st6{fill:#D9D9D9;}
	.st7{fill:#A5CFFF;}
	.st8{fill:#4D99FF;}
</style>
<title>paso</title>
<linearGradient id="SVGID_1_" gradientUnits="userSpaceOnUse" x1="294.72" y1="188.72" x2="652.87" y2="188.72" gradientTransform="matrix(1 0 0 -1 0 239.89)">
	<stop  offset="0.21" style="stop-color:#FF575F"/>
	<stop  offset="0.78" style="stop-color:#FF9A6B"/>
</linearGradient>
<path class="st1" d="M296,54.5l-1.2-3.8l8.6-2.8l1.2,3.8L296,54.5z"/>
<linearGradient id="SVGID_2_" gradientUnits="userSpaceOnUse" x1="302.4639" y1="209.745" x2="490.1995" y2="209.745" gradientTransform="matrix(1 0 0 -1 0 239.89)">
	<stop  offset="0.21" style="stop-color:#FF575F"/>
	<stop  offset="0.78" style="stop-color:#FF9A6B"/>
</linearGradient>
<path class="st1" d="M312.2,49.2l-1.2-3.8c5.9-1.9,11.8-3.7,17.5-5.4l1.1,3.8C324,45.5,318.1,47.4,312.2,49.2L312.2,49.2z
	 M337.4,41.5l-1.1-3.8c6-1.8,11.9-3.5,17.6-5l1.1,3.8C349.3,38.1,343.4,39.8,337.4,41.5L337.4,41.5z M362.8,34.4l-1-3.9
	c6-1.6,12-3.2,17.7-4.6l1,3.9C374.7,31.2,368.8,32.8,362.8,34.4z M388.3,27.9l-0.9-3.9c6.1-1.5,12.1-2.8,17.9-4l0.8,3.9
	C400.4,25.1,394.4,26.5,388.3,27.9z M414,22.3l-0.8-3.9c6.2-1.2,12.3-2.3,18-3.2l0.6,4C426.2,20,420.2,21.1,414,22.3z M439.9,17.9
	l-0.5-4c6.4-0.9,12.5-1.6,18.3-2.1l0.3,4C452.3,16.4,446.2,17,439.9,17.9L439.9,17.9z M466,15.3l-0.2-4c3.7-0.2,7.3-0.3,10.7-0.3
	l0,0c2.6,0,5.1,0,7.6,0v4c-2.5,0-5.1-0.1-7.6,0C473.1,15.1,469.6,15.2,466,15.3z"/>
<linearGradient id="SVGID_3_" gradientUnits="userSpaceOnUse" x1="-13.0626" y1="113.655" x2="163.6895" y2="113.655" gradientTransform="matrix(1 0 0 -1 0 239.89)">
	<stop  offset="0.21" style="stop-color:#FF575F"/>
	<stop  offset="0.78" style="stop-color:#FF9A6B"/>
</linearGradient>
<path class="st1" d="M-5.1,150.8l-0.3-4c6-0.4,11.8-0.9,17.4-1.5l0.4,4C6.9,149.9,1,150.4-5.1,150.8L-5.1,150.8z M20.3,148.4l-0.5-4
	c5.9-0.7,11.7-1.6,17.3-2.6l0.7,3.9C32.1,146.8,26.2,147.7,20.3,148.4L20.3,148.4z M45.5,144.4l-0.8-3.9c5.7-1.2,11.3-2.4,17-3.9
	l1,3.9C56.9,141.9,51.2,143.2,45.5,144.4L45.5,144.4z M70.2,138.3l-1.1-3.9c5.4-1.6,10.9-3.2,16.7-5.2l1.3,3.8
	C81.2,135,75.7,136.8,70.2,138.3L70.2,138.3z M94.5,130.5l-1.3-3.8c5.1-1.8,10.4-3.8,16.4-6.1l1.4,3.7
	C105,126.7,99.6,128.7,94.5,130.5L94.5,130.5z M118.2,121.5l-1.5-3.7c4.6-1.8,9.7-3.9,16.3-6.6l1.5,3.7
	C127.9,117.6,122.9,119.7,118.2,121.5L118.2,121.5z M141.7,112l-1.5-3.7l3.1-1.3l13.2-5.4l1.5,3.7l-13.2,5.4L141.7,112z"/>
<linearGradient id="SVGID_4_" gradientUnits="userSpaceOnUse" x1="-197.26" y1="141.085" x2="173.72" y2="141.085" gradientTransform="matrix(1 0 0 -1 0 239.89)">
	<stop  offset="0.21" style="stop-color:#FF575F"/>
	<stop  offset="0.78" style="stop-color:#FF9A6B"/>
</linearGradient>
<path class="st1" d="M165.4,102.3l-1.5-3.7l8.4-3.4l1.5,3.7L165.4,102.3z"/>
<g>
	
		<linearGradient id="SVGID_5_" gradientUnits="userSpaceOnUse" x1="231.8336" y1="205.279" x2="195.7576" y2="162.2899" gradientTransform="matrix(1 0 0 -1 0 239.89)">
		<stop  offset="0" style="stop-color:#006DFF"/>
		<stop  offset="1" style="stop-color:#43D2F1"/>
	</linearGradient>
	<path class="st4" d="M242.6,57c-0.8-2.7-3-4.7-5.7-5.4l2.8-10.4l-36-9.5c-3.9-1-8,1.3-9,5.2l-8.6,32.5l21.1,5.5l-0.5-2.5
		c0-0.2-0.1-0.5-0.2-0.7c-0.3-1-0.4-2-0.3-3c0.4-1.6,2.1-2.6,3.7-2.2s2.6,2.1,2.2,3.7l0,0c-0.4,0.9-1,1.7-1.8,2.4l-0.5,0.6l-1.7,1.9
		l21.1,5.6l3-11.4c2.7,0.7,5.6,0,7.6-1.9C242.6,64.8,243.7,60.8,242.6,57z M232.8,63.9c-1-0.4-1.8-0.9-2.5-1.7
		c-0.2-0.2-0.5-0.5-0.7-0.7l-1.2-1l-3.5,13.3l-7.7-2c0.9-2.6,0.3-5.6-1.6-7.7c-2.5-2.6-6.4-3.6-9.9-2.6c-2.7,0.8-4.6,3.1-5.1,5.8
		l-7.7-2l7.1-27c0.1-0.8,0.8-1.3,1.5-1.3c0.2,0,0.3,0.1,0.5,0.1l30.4,8l-3.3,12.4l1.5-0.3c1.3-0.4,2.6-0.4,3.9-0.2
		c1.9,0.4,3.1,2.3,2.7,4.2s-2.3,3.1-4.2,2.7C233,64,232.9,63.9,232.8,63.9L232.8,63.9z"/>
	
		<linearGradient id="SVGID_6_" gradientUnits="userSpaceOnUse" x1="275.4081" y1="176.0072" x2="212.4667" y2="100.9998" gradientTransform="matrix(1 0 0 -1 0 239.89)">
		<stop  offset="0" style="stop-color:#006DFF"/>
		<stop  offset="1" style="stop-color:#43D2F1"/>
	</linearGradient>
	<path class="st5" d="M281.6,70l-36.6-9.7l-5,18.9l2.5-0.5c0.4-0.1,0.7-0.2,1-0.2c0.9-0.3,1.8-0.4,2.8-0.2c1.6,0.3,2.6,1.8,2.3,3.4
		c-0.3,1.6-1.8,2.6-3.4,2.3c-0.1,0-0.2-0.1-0.3-0.1c-1.2-0.4-2.3-1.1-3.1-2l-2-1.6l-3.4,13.1l-6-1.6c0.3-2.1-0.1-4.3-1.1-6.1
		c-1.2-2.1-3.3-3.7-5.7-4.3c-2.4-0.8-5-0.4-7.1,1c-1.8,1.1-3.2,2.7-3.9,4.7l-11.8-3.1l-8.6,32.5c-1,3.7,1.2,7.6,4.9,8.6
		c0,0,0.1,0,0.1,0l65.3,17.2c3.9,1,8-1.3,9-5.2l15.4-58.3c1-3.7-1.1-7.6-4.9-8.6C281.7,70,281.6,70,281.6,70z M242.8,89.2
		c2.7,1,5.7,0.4,7.8-1.6c2.7-2.5,3.7-6.4,2.6-9.9c-0.9-2.7-3.2-4.7-6-5.2l1.5-5.8l31,8.2c0.8,0.3,1.3,1.1,1.2,2l-7.2,27.2l-13.3-3.5
		l-0.2,0.9c-0.1,0.5,0,1,0.1,1.4c0.1,0.5,0.1,1.1,0.1,1.6l-0.2,0.6c-0.2,0.7-0.6,1.8-1.5,2.1l-0.2,0.1l-0.1,0.1
		c-0.8,0.6-1.7,0.8-2.7,0.5c-1-0.3-1.7-1-2.1-1.9c-0.4-0.8-0.6-1.8-0.3-2.7l0.1-0.6l0.1-0.1c0.2-0.2,0.3-0.3,0.4-0.6l2.4-2.7
		l-15.1-4L242.8,89.2z M228.9,127.5l-30.4-8c-0.9-0.2-1.4-1.1-1.1-2c0,0,0,0,0,0l7.2-27.3l13,3.4l0.2-0.9c0.1-0.5,0-1-0.1-1.4
		c0-0.3-0.1-0.9-0.1-1.3c0-0.1,0-0.3,0-0.4l0.1-0.4c0.2-0.7,1-3.7,4.4-2.8c1.1,0.1,2,0.8,2.5,1.8c0.4,0.9,0.4,1.9,0,2.8l-0.1,0.4
		l-0.1,0.2c-0.2,0.2-0.3,0.4-0.4,0.6l-2.4,2.7l14.8,3.9l-1.7,6.4c-3-1.1-6.3-0.1-8.4,2.3c-1.9,2.2-2.7,5.2-2.1,8.1
		c0.5,3.2,3,5.6,6.1,6.2L228.9,127.5z M265.9,135.3c-0.1,0.8-0.8,1.3-1.5,1.3c-0.2,0-0.3-0.1-0.5-0.1l-30.4-8l3.3-12.3l-1.5,0.3
		c-1.3,0.4-2.6,0.4-3.9,0.2c-1.9-0.4-3.1-2.3-2.7-4.2s2.3-3.1,4.2-2.7c0.1,0,0.2,0,0.3,0.1c1,0.4,1.8,0.9,2.5,1.7
		c0.2,0.2,0.5,0.5,0.7,0.7l1.2,1l3.5-13.3l7.7,2c-0.9,2.6-0.3,5.6,1.6,7.6c2.5,2.6,6.4,3.6,9.9,2.6c2.7-0.8,4.7-3.1,5.1-5.9l7.7,2
		L265.9,135.3z"/>
</g>
<path class="st0" d="M247.2,202.1c2.2,1.6,4,3.7,5.1,6.1c1.2,2.5,1.8,5.3,1.8,8.1c0.1,3.5-0.8,6.9-2.6,9.9c-1.7,2.8-4.2,5.1-7.2,6.5
	c-3.4,1.6-7.1,2.3-10.9,2.3c-1.9,0-3.8-0.2-5.6-0.7c-1.7-0.4-3.4-1-4.9-1.9c-1.9-1-2.9-2.4-2.9-4.2c0-1.3,0.5-2.5,1.3-3.4
	c0.8-1,1.9-1.6,3.2-1.6c1.2,0.1,2.4,0.5,3.4,1.2c2.1,1.7,4.7,2.6,7.4,2.6c3.4,0,6.5-1.8,8.1-4.7c0.9-1.6,1.4-3.4,1.4-5.2
	c0.1-2.4-0.8-4.8-2.5-6.5c-1.7-1.5-3.8-2.4-6.1-2.3c-0.9,0-1.8,0.1-2.7,0.3l-1.4,0.4c-1.1,0.4-2.2,0.6-3.4,0.6c-1,0-2.1-0.4-2.7-1.2
	c-0.7-0.8-1-1.9-1-3c0-0.7,0.1-1.3,0.4-1.9c0.3-0.7,0.8-1.3,1.3-1.9l12.1-13.2h-15.4c-2.4,0.1-4.3-1.8-4.4-4.2c0-0.1,0-0.1,0-0.2
	c0-1.1,0.4-2.2,1.2-3c0.8-0.8,2-1.2,3.1-1.2h23.8c1.3-0.1,2.6,0.4,3.6,1.3c0.9,0.9,1.3,2.1,1.2,3.4c-0.1,1.4-0.8,2.8-1.9,3.7
	l-10.4,11.5C242.3,199.7,245,200.5,247.2,202.1z"/>
<g>
	<circle class="st7" cx="241.1" cy="15.6" r="3"/>
	<circle class="st7" cx="295.5" cy="42.2" r="2.5"/>
	<circle class="st8" cx="211.6" cy="157.1" r="2.5"/>
	<path class="st7" d="M275.5,16.2l-1.5,1.5l-1.5-1.5c-0.8-0.8-2.2-0.8-3,0c-0.8,0.8-0.8,2.2,0,3l1.5,1.5l-1.5,1.5
		c-0.8,0.8-0.8,2.2,0,3s2.2,0.8,3,0l1.5-1.5l1.5,1.5c0.8,0.8,2.2,0.8,3,0c0.8-0.8,0.8-2.2,0-3l-1.5-1.5l1.5-1.5c0.8-0.8,0.8-2.2,0-3
		C277.7,15.4,276.4,15.4,275.5,16.2z"/>
	<path class="st8" d="M181.6,135.1l-1.5,1.5l-1.5-1.5c-0.8-0.8-2.2-0.8-3,0c-0.8,0.8-0.8,2.2,0,3l1.5,1.5l-1.5,1.5
		c-0.8,0.8-0.8,2.2,0,3c0.8,0.8,2.2,0.8,3,0l0,0l1.5-1.5l1.5,1.5c0.8,0.8,2.2,0.8,3,0s0.8-2.2,0-3l0,0l-1.5-1.5l1.5-1.5
		c0.8-0.8,0.8-2.2,0-3C183.8,134.3,182.4,134.3,181.6,135.1z"/>
</g>
</svg>
