<?xml version="1.0" encoding="utf-8"?>
<!-- Generator: Adobe Illustrator 21.1.0, SVG Export Plug-In . SVG Version: 6.00 Build 0)  -->
<svg version="1.1" id="Layer_1" xmlns="http://www.w3.org/2000/svg" xmlns:xlink="http://www.w3.org/1999/xlink" x="0px" y="0px"
	 viewBox="0 0 120 120" style="enable-background:new 0 0 120 120;" xml:space="preserve">
<style type="text/css">
	.st0{fill:url(#SVGID_1_);}
	.st1{enable-background:new    ;}
	.st2{fill:#FFFFFF;}
</style>
<linearGradient id="SVGID_1_" gradientUnits="userSpaceOnUse" x1="99.6614" y1="108.2717" x2="21.7393" y2="17.3626" gradientTransform="matrix(1 0 0 -1 0 122)">
	<stop  offset="0" style="stop-color:#006DFF"/>
	<stop  offset="1" style="stop-color:#43D2F1"/>
</linearGradient>
<circle class="st0" cx="60" cy="60" r="60"/>
<g class="st1">
	<path class="st2" d="M52.6,62c1.2-1.2,2.7-1.8,4.5-1.8c4.6,0,8.3-1.1,11.1-3.2c2.8-2.2,4.2-5.5,4.2-10c0-3.5-1.3-6.4-3.8-8.7
		c-2.5-2.3-5.6-3.4-9.4-3.4c-3.8,0-7.2,1.3-10.1,3.9c-1.7,1.5-3.4,2.3-5.2,2.3c-1.3,0-2.5-0.4-3.5-1.3c-1.8-1.4-2.7-3-2.7-4.9
		c0-1.6,0.7-3.1,2-4.4c2.5-2.6,5.4-4.6,8.8-6c3.4-1.4,7-2.1,10.8-2.1c4.7,0,9,1.1,12.9,3.2c3.9,2.2,7,5.1,9.3,8.9
		c2.3,3.8,3.4,8,3.4,12.5c0,6.7-1.9,12-5.7,15.9c-3.8,3.9-8.9,6.3-15.2,7.3c-0.3,0.1-0.5,0.3-0.5,0.5v3.9c0,1.8-0.6,3.3-1.8,4.5
		c-1.2,1.2-2.7,1.8-4.5,1.8c-1.8,0-3.3-0.6-4.5-1.8c-1.2-1.2-1.8-2.7-1.8-4.5v-7.9C50.8,64.8,51.4,63.2,52.6,62z M51.9,97.9
		c-1.1-1.1-1.6-2.6-1.6-4.6v-1.8c0-2,0.5-3.6,1.6-4.6c1.1-1.1,2.6-1.6,4.6-1.6h1.4c2,0,3.6,0.5,4.6,1.6c1.1,1.1,1.6,2.6,1.6,4.6v1.8
		c0,2-0.5,3.6-1.6,4.6c-1.1,1.1-2.6,1.6-4.6,1.6h-1.4C54.5,99.6,53,99,51.9,97.9z"/>
</g>
</svg>
