<?xml version="1.0" encoding="utf-8"?>
<!-- Generator: Adobe Illustrator 21.1.0, SVG Export Plug-In . SVG Version: 6.00 Build 0)  -->
<svg version="1.1" id="Layer_1" xmlns="http://www.w3.org/2000/svg" xmlns:xlink="http://www.w3.org/1999/xlink" x="0px" y="0px"
	 viewBox="0 0 473 240" style="enable-background:new 0 0 473 240;" xml:space="preserve">
<style type="text/css">
	.st0{fill:#000000;}
	.st1{fill:#D9D9D9;}
	.st2{fill:url(#SVGID_3_);}
	.st3{fill:url(#SVGID_4_);}
	.st4{fill:url(#SVGID_5_);}
	.st5{fill:url(#SVGID_6_);}
	.st6{fill:url(#SVGID_7_);}
	.st7{fill:#D9D9D9;}
	.st8{fill:#4D99FF;}
</style>
<title>paso</title>
<linearGradient id="SVGID_1_" gradientUnits="userSpaceOnUse" x1="466.7815" y1="153.8855" x2="458.8315" y2="136.0255" gradientTransform="matrix(1 0 0 -1 0 242)">
	<stop  offset="0.21" style="stop-color:#FF575F"/>
	<stop  offset="0.78" style="stop-color:#FF9A6B"/>
</linearGradient>
<path class="st1" d="M471.9,90.6l-17.2,3.5c-0.5,0.1-0.9,0.6-0.8,1.2c0,0.2,0.1,0.4,0.3,0.5l11.7,13.2c0.4,0.4,1,0.5,1.4,0.1
	c0.1-0.1,0.3-0.3,0.3-0.5l5.6-16.7c0.2-0.5-0.1-1.1-0.6-1.3C472.3,90.6,472.1,90.6,471.9,90.6z"/>
<linearGradient id="SVGID_2_" gradientUnits="userSpaceOnUse" x1="318.13" y1="134.51" x2="450.69" y2="134.51" gradientTransform="matrix(1 0 0 -1 0 242)">
	<stop  offset="0.21" style="stop-color:#FF575F"/>
	<stop  offset="0.78" style="stop-color:#FF9A6B"/>
</linearGradient>
<path class="st1" d="M326.3,111.2c-2.6-1.2-5.4-2.5-8.2-3.8l1.7-3.6c2.8,1.3,5.5,2.6,8.1,3.8L326.3,111.2z"/>
<linearGradient id="SVGID_3_" gradientUnits="userSpaceOnUse" x1="318.74" y1="122.455" x2="446.26" y2="122.455" gradientTransform="matrix(1 0 0 -1 0 242)">
	<stop  offset="0.21" style="stop-color:#FF575F"/>
	<stop  offset="0.78" style="stop-color:#FF9A6B"/>
</linearGradient>
<path class="st1" d="M400.6,128.1c-4.3,0-8.3-0.1-12.3-0.4l0.2-4c3.9,0.2,7.8,0.4,12,0.4c1.3,0,2.5,0,3.8,0c0.2,0,1.3-0.1,2.9-0.3
	l0.5,4c-2,0.3-3.1,0.4-3.2,0.4h-0.1C403.2,128.1,401.9,128.1,400.6,128.1z M379.7,127c-6.4-0.7-12.8-1.9-19.1-3.5l1-3.9
	c6.1,1.5,12.3,2.6,18.5,3.3L379.7,127z M416.4,126.2l-0.9-3.9c6.1-1.3,12.1-3.2,17.9-5.6l1.5,3.7C429,122.9,422.7,124.9,416.4,126.2
	L416.4,126.2z M352.4,121.2c-5.9-1.8-11.8-3.9-18.2-6.6l1.5-3.7c6.2,2.6,12.1,4.7,17.8,6.4L352.4,121.2z"/>
<linearGradient id="SVGID_4_" gradientUnits="userSpaceOnUse" x1="318.13" y1="129.455" x2="450.69" y2="129.455" gradientTransform="matrix(1 0 0 -1 0 242)">
	<stop  offset="0.21" style="stop-color:#FF575F"/>
	<stop  offset="0.78" style="stop-color:#FF9A6B"/>
</linearGradient>
<path class="st1" d="M442.9,116.6l-1.9-3.5c2.6-1.4,5-3,7.4-4.7l2.4,3.2C448.2,113.5,445.6,115.2,442.9,116.6z"/>
<linearGradient id="SVGID_5_" gradientUnits="userSpaceOnUse" x1="-15.7011" y1="211.595" x2="170.5827" y2="211.595" gradientTransform="matrix(1 0 0 -1 0 242)">
	<stop  offset="0.21" style="stop-color:#FF575F"/>
	<stop  offset="0.78" style="stop-color:#FF9A6B"/>
</linearGradient>
<path class="st1" d="M162.8,49.8c-5.6-2.9-11.1-5.5-16.3-7.9l1.7-3.6c5.3,2.4,10.9,5.1,16.5,8L162.8,49.8z M139,38.5
	c-5.7-2.4-11.4-4.7-16.9-6.6l1.3-3.8c5.6,2,11.3,4.3,17.1,6.7L139,38.5z M114.6,29.3c-5.7-1.9-11.6-3.5-17.4-5l1-3.9
	c5.9,1.5,11.8,3.2,17.7,5.1L114.6,29.3z M89.3,22.5c-5.8-1.2-11.8-2.3-17.8-3.2l0.6-4c6.2,0.9,12.2,2,18.1,3.3L89.3,22.5z
	 M63.5,18.2c-5.7-0.7-11.8-1.3-18.1-1.8l0.3-4c6.3,0.5,12.4,1.1,18.3,1.8L63.5,18.2z M37.4,15.9c-5.7-0.3-11.8-0.5-18.2-0.7l0.1-4
	c6.4,0.1,12.5,0.4,18.3,0.7L37.4,15.9z M-7,15.4l-0.2-4c3.7-0.2,7.3-0.3,10.7-0.3l0,0c2.6,0,5.1,0,7.6,0v4c-2.5,0-5.1-0.1-7.6,0
	C0.1,15.1-3.4,15.2-7,15.4z"/>
<g>
	
		<linearGradient id="SVGID_6_" gradientUnits="userSpaceOnUse" x1="188.405" y1="180.2475" x2="284.0049" y2="180.2475" gradientTransform="matrix(1 0 0 -1 0 242)">
		<stop  offset="0" style="stop-color:#006DFF"/>
		<stop  offset="1" style="stop-color:#43D2F1"/>
	</linearGradient>
	<path class="st5" d="M197.1,84.9c4.8,0,8.7-3.9,8.7-8.7c0-1.2-0.2-2.3-0.7-3.4l14.6-17.6c2.2,0.9,4.7,0.8,6.9-0.3l13.9,12.4
		c-0.1,0.6-0.2,1.2-0.2,1.8c0,4.8,3.9,8.7,8.7,8.7c4.8,0,8.7-3.9,8.7-8.7c0-0.1,0-0.1,0-0.2l13.4-8.6c4.1,2.4,9.4,1,11.8-3.1
		c0.8-1.3,1.2-2.8,1.2-4.4c0.2-4.8-3.6-8.8-8.4-8.9s-8.8,3.6-8.9,8.4c0,0.6,0,1.1,0.1,1.7L254,62.2c-2.6-1.9-6-2.2-8.9-0.8L231.2,49
		c0.1-0.6,0.2-1.2,0.2-1.7c0-4.8-3.9-8.7-8.7-8.7c-4.8,0-8.7,3.9-8.7,8.7c0,0.8,0.1,1.6,0.4,2.4l-15.2,18.2
		c-0.7-0.2-1.4-0.3-2.2-0.3c-4.8,0-8.7,3.9-8.7,8.7S192.3,84.9,197.1,84.9z M275.4,48.6c2.4,0,4.3,1.9,4.3,4.3
		c0,2.4-1.9,4.3-4.3,4.3c-2.4,0-4.3-1.9-4.3-4.3C271.1,50.5,273,48.6,275.4,48.6z M248.9,64.9c2.4,0,4.3,1.9,4.3,4.3
		c0,2.4-1.9,4.3-4.3,4.3c-2.4,0-4.3-1.9-4.3-4.3S246.5,64.9,248.9,64.9C248.9,64.9,248.9,64.9,248.9,64.9z M222.7,43
		c2.4,0,4.3,1.9,4.3,4.3s-1.9,4.3-4.3,4.3c-2.4,0-4.3-1.9-4.3-4.3v0C218.5,44.9,220.4,43,222.7,43z M197.1,72c2.4,0,4.3,1.9,4.3,4.3
		s-1.9,4.3-4.3,4.3c-2.4,0-4.3-1.9-4.3-4.3c0,0,0,0,0,0C192.8,73.9,194.7,72,197.1,72z"/>
	
		<linearGradient id="SVGID_7_" gradientUnits="userSpaceOnUse" x1="179" y1="139.5048" x2="294" y2="139.5048" gradientTransform="matrix(1 0 0 -1 0 242)">
		<stop  offset="0" style="stop-color:#006DFF"/>
		<stop  offset="1" style="stop-color:#43D2F1"/>
	</linearGradient>
	<path class="st6" d="M285.2,128.8V80.8c0-6.9-6.3-6.9-9.4-6.9H275c-2.8,0-9.4,0-9.4,6.9l0,47.9h-6.9V96.1c0-6.9-6.5-6.9-9.4-6.9
		h-0.9c-1.8-0.1-3.6,0.1-5.3,0.6c-2.6,0.9-4.4,3.5-4.2,6.3l0.1,32.7h-6.5V75.5c0.1-1.8-0.6-3.6-1.8-4.9c-2.1-2.1-5.4-2.1-7.6-2.1
		h-0.9c-1.8-0.1-3.6,0.1-5.3,0.7c-2.6,1-4.3,3.5-4.1,6.3l0.1,53.3h-6v-25.6c0-6.9-6.3-6.9-9.4-6.9h-0.9c-2.8,0-9.4,0-9.4,6.9
		l0.1,25.6H179v7.6h115v-7.6L285.2,128.8z M194.1,102.7c0.8-0.1,1.7-0.1,2.5-0.1h0.9c0.8,0,1.6,0,2.4,0.1l0.6,0.1v27.3h-7l-0.1-27.3
		L194.1,102.7z M219.8,75c0.8-0.1,1.7-0.1,2.5-0.1h1c0.8,0,1.6,0,2.4,0.1l0.6,0.1v55h-7l-0.1-55L219.8,75z M245.9,95.6
		c0.8-0.1,1.6-0.1,2.4-0.1h1c0.8,0,1.6,0,2.5,0.1l0.6,0.1v34.4h-7l-0.1-34.4L245.9,95.6z M272.4,80.3c0.8-0.1,1.7-0.1,2.5-0.1h0.9
		c0.8,0,1.6,0,2.4,0.1l0.6,0.1V130h-7l-0.1-49.7L272.4,80.3z"/>
</g>
<path class="st0" d="M256.2,212.9c0.8,0.8,1.3,1.9,1.2,3.1c0,1.1-0.4,2.2-1.2,3c-0.8,0.8-2,1.2-3.1,1.2h-3.3v10
	c0.1,2.6-2,4.7-4.5,4.8c-0.1,0-0.1,0-0.2,0c-1.2,0-2.4-0.5-3.3-1.4c-0.9-0.9-1.4-2.1-1.3-3.4v-10h-20.2c-1.2,0-2.3-0.5-3.2-1.4
	c-0.9-0.8-1.5-2-1.5-3.2c0-1.1,0.4-2.2,1.2-3.1l24.6-30.1c0.9-1.2,2.4-1.9,3.9-1.9c1.2,0,2.4,0.5,3.3,1.4c0.9,0.9,1.4,2.1,1.3,3.4
	v26.4h3.3C254.2,211.6,255.4,212,256.2,212.9z M227.8,211.6h12.6V196L227.8,211.6z"/>
<g>
	<circle class="st8" cx="175" cy="72.1" r="1.5"/>
	<circle class="st8" cx="179.5" cy="106.6" r="2"/>
	<circle class="st8" cx="275.5" cy="30.6" r="2"/>
	<path class="st8" d="M303,81.6h-1.5v-1.5c0-0.8-0.7-1.5-1.5-1.5s-1.5,0.7-1.5,1.5v1.5H297c-0.8,0-1.5,0.7-1.5,1.5s0.7,1.5,1.5,1.5
		h1.5v1.5c0,0.8,0.7,1.5,1.5,1.5s1.5-0.7,1.5-1.5v-1.5h1.5c0.8,0,1.5-0.7,1.5-1.5S303.8,81.6,303,81.6z"/>
	<path class="st8" d="M175.2,90.2h-1.3v-1.3c0-0.7-0.6-1.3-1.3-1.3c-0.7,0-1.3,0.6-1.3,1.3v1.3h-1.3c-0.7,0-1.3,0.6-1.3,1.3
		s0.6,1.3,1.3,1.3h1.3v1.3c0,0.7,0.6,1.3,1.3,1.3c0.7,0,1.3-0.6,1.3-1.3v-1.3h1.3c0.7,0,1.3-0.6,1.3-1.3S175.9,90.2,175.2,90.2z"/>
	<path class="st8" d="M243.3,23.9h-1.2v-1.2c-0.1-0.6-0.6-1.1-1.3-1.1c-0.6,0.1-1,0.5-1.1,1.1v1.2h-1.2c-0.6-0.1-1.2,0.4-1.3,1.1
		s0.4,1.2,1.1,1.3c0.1,0,0.1,0,0.2,0h1.2v1.2c0.1,0.6,0.6,1.1,1.3,1.1c0.6-0.1,1-0.5,1.1-1.1v-1.2h1.2c0.6,0.1,1.2-0.4,1.3-1.1
		c0.1-0.6-0.4-1.2-1.1-1.3C243.5,23.9,243.4,23.9,243.3,23.9z"/>
	<path class="st8" d="M299.5,37.6h-1v-1c0-0.6-0.4-1-1-1s-1,0.4-1,1v1h-1c-0.6,0-1,0.4-1,1s0.4,1,1,1h1v1c0,0.6,0.4,1,1,1s1-0.4,1-1
		v-1h1c0.6,0,1-0.4,1-1S300,37.6,299.5,37.6z"/>
</g>
</svg>
