<?xml version="1.0" encoding="utf-8"?>
<!-- Generator: Adobe Illustrator 21.1.0, SVG Export Plug-In . SVG Version: 6.00 Build 0)  -->
<svg version="1.1" id="Layer_1" xmlns="http://www.w3.org/2000/svg" xmlns:xlink="http://www.w3.org/1999/xlink" x="0px" y="0px"
	 viewBox="0 0 120 120" style="enable-background:new 0 0 120 120;" xml:space="preserve">
<style type="text/css">
	.st0{fill:url(#SVGID_1_);}
	.st1{enable-background:new    ;}
	.st2{fill:#FFFFFF;}
</style>
<linearGradient id="SVGID_1_" gradientUnits="userSpaceOnUse" x1="99.6614" y1="108.2717" x2="21.7393" y2="17.3626" gradientTransform="matrix(1 0 0 -1 0 122)">
	<stop  offset="0" style="stop-color:#006DFF"/>
	<stop  offset="1" style="stop-color:#43D2F1"/>
</linearGradient>
<circle class="st0" cx="60" cy="60" r="60"/>
<g class="st1">
	<path class="st2" d="M69.4,24.3c1.2,1.2,1.8,2.7,1.8,4.5v60.3c0,1.8-0.7,3.3-2,4.5c-1.3,1.2-3,1.8-4.9,1.8c-1.9,0-3.5-0.6-4.8-1.8
		c-1.3-1.2-1.9-2.7-1.9-4.5V39.7l-6.5,4c-1,0.6-2.2,0.9-3.3,0.9c-1.7,0-3.2-0.7-4.4-2c-1.2-1.3-1.8-2.8-1.8-4.4
		c0-1.1,0.3-2.2,0.9-3.1c0.6-1,1.4-1.7,2.3-2.3l15.8-9.4c1.2-0.6,2.7-0.9,4.5-0.9C66.8,22.5,68.2,23.1,69.4,24.3z"/>
</g>
</svg>
