<svg id="图层_1" data-name="图层 1" xmlns="http://www.w3.org/2000/svg" viewBox="0 0 623.62 187.25"><defs><style>.cls-1{fill:#717070;}</style></defs><title>PCI-logo</title><g id="_Group_" data-name="&lt;Group&gt;"><path class="cls-1" d="M211.64,133.67V58.34h30.73v72.9l43.41-14L234.42,0,0,13.14l45.93,115.7V57.33h32.3c3.67.14,8.58.55,13.27,1,20.76,2,29.66,13.17,29.66,28s-19.48,24.94-38.45,24.94c-2.17,0-4.19,0-6.06-.13v22.53H47.84l21.27,53.59,165.76-53.59Zm-11.1-21.13v17.28c-63.73,16.34-76.32-15.58-76.32-36.48s22.72-45.7,76-32.63l.36,18.68C162.47,69.58,156.9,88.67,156.9,96s7.47,28.68,43.65,16.54M227.65,15A18.45,18.45,0,1,1,209.2,33.46,18.45,18.45,0,0,1,227.65,15"/><path id="_Path_" data-name="&lt;Path&gt;" class="cls-1" d="M92.32,83.87c0-5.19-3.12-8.7-10.4-9.4-1.64-.16-3.37-.31-4.65-.35H75.4V93h3.44c6.65,0,13.48-4,13.48-9.16"/></g><path class="cls-1" d="M311.73,86.18A12.53,12.53,0,0,0,318.07,88c3.61,0,5.73-1.91,5.73-4.67,0-2.56-1.46-4-5.16-5.44-4.47-1.58-7.23-3.9-7.23-7.76,0-4.26,3.53-7.43,8.85-7.43A12.45,12.45,0,0,1,326.31,64l-1,2.88a10.91,10.91,0,0,0-5.2-1.3c-3.74,0-5.16,2.23-5.16,4.1,0,2.56,1.66,3.82,5.44,5.28,4.63,1.79,7,4,7,8,0,4.22-3.13,7.88-9.58,7.88a14.15,14.15,0,0,1-7-1.75Z"/><path class="cls-1" d="M334.12,81.3c.08,4.83,3.17,6.82,6.74,6.82a12.92,12.92,0,0,0,5.44-1l.61,2.56a15.91,15.91,0,0,1-6.54,1.22c-6.05,0-9.67-4-9.67-9.91s3.49-10.6,9.22-10.6c6.42,0,8.12,5.65,8.12,9.26a13.62,13.62,0,0,1-.12,1.66Zm10.48-2.56c0-2.27-.93-5.81-5-5.81-3.61,0-5.2,3.33-5.48,5.81Z"/><path class="cls-1" d="M366.49,89.75a13.17,13.17,0,0,1-5.64,1.14c-5.93,0-9.79-4-9.79-10s4.14-10.44,10.56-10.44a12,12,0,0,1,5,1l-.81,2.76a8.29,8.29,0,0,0-4.14-.94c-4.51,0-6.95,3.33-6.95,7.43,0,4.55,2.92,7.35,6.82,7.35a10.17,10.17,0,0,0,4.39-1Z"/><path class="cls-1" d="M387.13,85.12c0,2,0,3.82.16,5.36h-3.17l-.2-3.21h-.08a7.4,7.4,0,0,1-6.5,3.66c-3.09,0-6.78-1.7-6.78-8.61V70.83h3.57V81.71c0,3.73,1.14,6.25,4.39,6.25a5.17,5.17,0,0,0,4.71-3.25,5.24,5.24,0,0,0,.32-1.83V70.83h3.57Z"/><path class="cls-1" d="M393.06,77c0-2.31,0-4.3-.16-6.13H396l.12,3.86h.16a5.9,5.9,0,0,1,5.44-4.31,3.84,3.84,0,0,1,1,.12v3.37a5.33,5.33,0,0,0-1.22-.12c-2.52,0-4.31,1.91-4.79,4.59A10,10,0,0,0,396.6,80V90.48h-3.53Z"/><path class="cls-1" d="M410.33,65.3a2.21,2.21,0,0,1-4.43,0,2.18,2.18,0,0,1,2.23-2.24A2.12,2.12,0,0,1,410.33,65.3Zm-4,25.18V70.83h3.57V90.48Z"/><path class="cls-1" d="M420.16,65.18v5.65h5.12v2.72h-5.12v10.6c0,2.44.69,3.82,2.68,3.82a8,8,0,0,0,2.07-.24l.16,2.68a8.74,8.74,0,0,1-3.17.49,5,5,0,0,1-3.86-1.5c-1-1.06-1.38-2.8-1.38-5.12V73.55h-3V70.83h3V66.11Z"/><path class="cls-1" d="M431.37,70.83l4.31,11.61c.45,1.3.93,2.84,1.26,4H437c.37-1.18.77-2.68,1.26-4.1l3.9-11.53H446l-5.36,14c-2.56,6.74-4.31,10.19-6.74,12.3a9.67,9.67,0,0,1-4.39,2.31l-.89-3a9.49,9.49,0,0,0,3.13-1.75,10.85,10.85,0,0,0,3-4,2.58,2.58,0,0,0,.28-.85,3.1,3.1,0,0,0-.24-.93l-7.27-18.11Z"/><path class="cls-1" d="M311.73,129.32a12.53,12.53,0,0,0,6.34,1.79c3.61,0,5.73-1.91,5.73-4.67,0-2.56-1.46-4-5.16-5.44-4.47-1.58-7.23-3.9-7.23-7.76,0-4.26,3.53-7.43,8.85-7.43a12.45,12.45,0,0,1,6.05,1.34l-1,2.88a10.91,10.91,0,0,0-5.2-1.3c-3.74,0-5.16,2.23-5.16,4.1,0,2.56,1.66,3.82,5.44,5.28,4.63,1.79,7,4,7,8,0,4.22-3.13,7.88-9.58,7.88a14.15,14.15,0,0,1-7-1.75Z"/><path class="cls-1" d="M336.43,108.32V114h5.12v2.72h-5.12v10.6c0,2.44.69,3.82,2.68,3.82a8,8,0,0,0,2.07-.24l.16,2.68a8.74,8.74,0,0,1-3.17.49,5,5,0,0,1-3.86-1.5c-1-1.06-1.38-2.8-1.38-5.12V116.69h-3V114h3v-4.71Z"/><path class="cls-1" d="M356.46,133.63l-.28-2.48h-.12a7.32,7.32,0,0,1-6,2.92,5.6,5.6,0,0,1-6-5.64c0-4.75,4.22-7.35,11.82-7.31v-.4c0-1.63-.45-4.55-4.47-4.55a9.78,9.78,0,0,0-5.12,1.46l-.81-2.36a12.2,12.2,0,0,1,6.46-1.75c6,0,7.47,4.1,7.47,8v7.35a27.7,27.7,0,0,0,.32,4.71Zm-.53-10c-3.9-.08-8.33.61-8.33,4.43a3.16,3.16,0,0,0,3.37,3.41,4.89,4.89,0,0,0,4.75-3.29,3.73,3.73,0,0,0,.2-1.14Z"/><path class="cls-1" d="M365.15,119.29c0-2,0-3.7-.16-5.32h3.17l.2,3.25h.08a7.23,7.23,0,0,1,6.5-3.7c2.72,0,6.94,1.63,6.94,8.37v11.74h-3.57V122.3c0-3.17-1.18-5.81-4.55-5.81a5.24,5.24,0,0,0-5,5.32v11.82h-3.57Z"/><path class="cls-1" d="M404.68,104.79v23.76c0,1.75,0,3.73.16,5.08h-3.21l-.16-3.41h-.08a7.27,7.27,0,0,1-6.7,3.86c-4.75,0-8.41-4-8.41-10,0-6.54,4-10.56,8.81-10.56a6.57,6.57,0,0,1,5.93,3h.08V104.79ZM401.1,122a6.31,6.31,0,0,0-.16-1.5,5.25,5.25,0,0,0-5.16-4.14c-3.7,0-5.89,3.25-5.89,7.59,0,4,1.95,7.27,5.81,7.27a5.37,5.37,0,0,0,5.24-4.26,6.21,6.21,0,0,0,.16-1.54Z"/><path class="cls-1" d="M421.5,133.63l-.28-2.48h-.12a7.32,7.32,0,0,1-6,2.92,5.6,5.6,0,0,1-6-5.64c0-4.75,4.22-7.35,11.82-7.31v-.4c0-1.63-.45-4.55-4.47-4.55a9.78,9.78,0,0,0-5.12,1.46l-.81-2.36a12.2,12.2,0,0,1,6.46-1.75c6,0,7.47,4.1,7.47,8v7.35a27.7,27.7,0,0,0,.32,4.71Zm-.53-10c-3.9-.08-8.32.61-8.32,4.43a3.16,3.16,0,0,0,3.37,3.41,4.89,4.89,0,0,0,4.75-3.29A3.72,3.72,0,0,0,421,127Z"/><path class="cls-1" d="M430.2,120.1c0-2.31,0-4.3-.16-6.13h3.13l.12,3.86h.16a5.9,5.9,0,0,1,5.44-4.31,3.82,3.82,0,0,1,1,.12V117a5.31,5.31,0,0,0-1.22-.12c-2.52,0-4.31,1.91-4.79,4.59a10,10,0,0,0-.16,1.66v10.48H430.2Z"/><path class="cls-1" d="M460.46,104.79v23.76c0,1.75,0,3.73.16,5.08h-3.21l-.16-3.41h-.08a7.27,7.27,0,0,1-6.7,3.86c-4.75,0-8.41-4-8.41-10,0-6.54,4-10.56,8.81-10.56a6.57,6.57,0,0,1,5.93,3h.08V104.79ZM456.88,122a6.31,6.31,0,0,0-.16-1.5,5.25,5.25,0,0,0-5.16-4.14c-3.7,0-5.89,3.25-5.89,7.59,0,4,1.95,7.27,5.81,7.27a5.37,5.37,0,0,0,5.24-4.26,6.21,6.21,0,0,0,.16-1.54Z"/><path class="cls-1" d="M465.91,130a9.37,9.37,0,0,0,4.71,1.42c2.6,0,3.82-1.3,3.82-2.92s-1-2.64-3.66-3.61c-3.53-1.26-5.2-3.21-5.2-5.57,0-3.17,2.56-5.77,6.78-5.77a9.79,9.79,0,0,1,4.83,1.22l-.89,2.6a7.65,7.65,0,0,0-4-1.14c-2.11,0-3.29,1.22-3.29,2.68,0,1.62,1.18,2.36,3.74,3.33,3.41,1.3,5.16,3,5.16,5.93,0,3.45-2.68,5.89-7.35,5.89a11.23,11.23,0,0,1-5.52-1.34Z"/><path class="cls-1" d="M515.18,132.73A17.52,17.52,0,0,1,508,134c-7.72,0-13.52-4.87-13.52-13.85,0-8.57,5.81-14.38,14.3-14.38a14.68,14.68,0,0,1,6.5,1.22l-.85,2.88a12.89,12.89,0,0,0-5.52-1.14c-6.42,0-10.68,4.1-10.68,11.29,0,6.7,3.86,11,10.52,11a14.11,14.11,0,0,0,5.77-1.14Z"/><path class="cls-1" d="M536.83,123.64c0,7.27-5,10.44-9.79,10.44-5.32,0-9.42-3.9-9.42-10.11,0-6.58,4.31-10.44,9.75-10.44C533,113.52,536.83,117.63,536.83,123.64Zm-15.6.21c0,4.3,2.48,7.55,6,7.55s6-3.21,6-7.64c0-3.33-1.66-7.55-5.89-7.55S521.24,120.1,521.24,123.84Z"/><path class="cls-1" d="M557.8,128.27c0,2,0,3.82.16,5.36h-3.17l-.2-3.21h-.08a7.4,7.4,0,0,1-6.5,3.66c-3.09,0-6.78-1.7-6.78-8.61V114h3.57v10.88c0,3.73,1.14,6.25,4.39,6.25a5.17,5.17,0,0,0,4.71-3.25,5.24,5.24,0,0,0,.32-1.83V114h3.57Z"/><path class="cls-1" d="M563.73,119.29c0-2,0-3.7-.16-5.32h3.17l.2,3.25H567a7.23,7.23,0,0,1,6.5-3.7c2.72,0,6.94,1.63,6.94,8.37v11.74h-3.57V122.3c0-3.17-1.18-5.81-4.55-5.81a5.24,5.24,0,0,0-5,5.32v11.82h-3.57Z"/><path class="cls-1" d="M600.29,132.9a13.17,13.17,0,0,1-5.64,1.14c-5.93,0-9.79-4-9.79-10s4.14-10.44,10.56-10.44a12,12,0,0,1,5,1l-.81,2.76a8.29,8.29,0,0,0-4.14-.94c-4.51,0-6.95,3.33-6.95,7.43,0,4.55,2.92,7.35,6.82,7.35a10.17,10.17,0,0,0,4.39-1Z"/><path class="cls-1" d="M608.46,108.45a2.21,2.21,0,0,1-4.43,0,2.18,2.18,0,0,1,2.23-2.24A2.12,2.12,0,0,1,608.46,108.45Zm-4,25.18V114h3.57v19.66Z"/><path class="cls-1" d="M614,104.79h3.57v28.84H614Z"/><path class="cls-1" d="M604.7,63.4H601V62.05h9.09V63.4H606.3V74.32h-1.6Z"/><path class="cls-1" d="M621.76,68.93c-.09-1.71-.2-3.77-.18-5.3h-.05c-.42,1.44-.93,3-1.55,4.66l-2.17,6h-1.2l-2-5.84c-.58-1.73-1.08-3.32-1.42-4.77h0c0,1.53-.13,3.59-.24,5.43l-.33,5.26h-1.51l.86-12.27h2L616.06,68c.51,1.51.93,2.86,1.24,4.13h.05c.31-1.24.75-2.59,1.29-4.13l2.18-5.94h2l.76,12.27h-1.55Z"/></svg>