<?xml version="1.0" encoding="utf-8"?>
<!-- Generator: Adobe Illustrator 21.1.0, SVG Export Plug-In . SVG Version: 6.00 Build 0)  -->
<svg version="1.1" id="Layer_1" xmlns="http://www.w3.org/2000/svg" xmlns:xlink="http://www.w3.org/1999/xlink" x="0px" y="0px"
	 viewBox="0 0 31.3 29.5" style="enable-background:new 0 0 31.3 29.5;" xml:space="preserve">
<style type="text/css">
	.st0{fill:url(#SVGID_1_);}
</style>
<title>menu</title>
<g>
	<linearGradient id="SVGID_1_" gradientUnits="userSpaceOnUse" x1="27.0713" y1="6.7941" x2="4.0713" y2="22.7941">
		<stop  offset="0" style="stop-color:#006DFF"/>
		<stop  offset="1" style="stop-color:#43D2F1"/>
	</linearGradient>
	<path class="st0" d="M27.9,5.1H3.4c-0.9,0-1.7,0.8-1.7,1.7v15.8c0,0.9,0.8,1.7,1.7,1.7h24.6c0.9,0,1.7-0.8,1.7-1.7V6.8
		C29.6,5.9,28.9,5.1,27.9,5.1z M4.6,16.5h7.7v1.8H4.6V16.5z M16.5,21.7H4.6v-1.8h11.9V21.7z M25.1,21.8c-0.4,0-0.9-0.1-1.2-0.4
		c-0.3,0.2-0.8,0.4-1.2,0.4c-1.2,0-2.2-1-2.2-2.2c0-1.2,1-2.2,2.2-2.2c0.4,0,0.9,0.1,1.2,0.4c0.3-0.2,0.8-0.4,1.2-0.4
		c1.2,0,2.2,1,2.2,2.2C27.3,20.8,26.3,21.8,25.1,21.8z"/>
</g>
</svg>
