<?xml version="1.0" encoding="utf-8"?>
<!-- Generator: Adobe Illustrator 21.1.0, SVG Export Plug-In . SVG Version: 6.00 Build 0)  -->
<svg version="1.1" id="Layer_1" xmlns="http://www.w3.org/2000/svg" xmlns:xlink="http://www.w3.org/1999/xlink" x="0px" y="0px"
	 viewBox="0 0 31.3 29.5" style="enable-background:new 0 0 31.3 29.5;" xml:space="preserve">
<style type="text/css">
	.st0{fill:url(#SVGID_1_);}
	.st1{fill:url(#SVGID_2_);}
	.st2{fill:url(#SVGID_3_);}
</style>
<title>menu</title>
<g>
	<linearGradient id="SVGID_1_" gradientUnits="userSpaceOnUse" x1="17.7886" y1="3.9327" x2="3.0386" y2="20.8493">
		<stop  offset="0" style="stop-color:#006DFF"/>
		<stop  offset="1" style="stop-color:#43D2F1"/>
	</linearGradient>
	<path class="st0" d="M20,15.9l-1.3-5.7C18.6,10,18.8,9.7,19,9.6c0.2-0.1,0.4-0.1,0.6,0l8.4,4.7l0.6-2.3l0.2-0.9l1.2-5.2
		c0.1-0.4-0.2-0.8-0.6-0.9c0,0,0,0-0.1,0H7.1L6,2.1C5.9,1.9,5.7,1.7,5.4,1.7H0.7C0.3,1.8,0.1,2.1,0.2,2.5C0.2,2.7,0.4,2.9,0.7,3h4.2
		L5,3.2C6.2,6.1,7.3,9.1,8.5,12l1.5,3.7l-1.6,3.8c-0.1,0.3,0,0.7,0.4,0.9c0.1,0,0.2,0.1,0.3,0.1h9.6l-0.3-1.3H10l1.1-2.7L20,15.9z"
		/>
	<linearGradient id="SVGID_2_" gradientUnits="userSpaceOnUse" x1="28.7564" y1="13.4957" x2="14.0064" y2="30.4124">
		<stop  offset="0" style="stop-color:#006DFF"/>
		<stop  offset="1" style="stop-color:#43D2F1"/>
	</linearGradient>
	<path class="st1" d="M27.6,19.1c0-0.2,0-0.3,0.1-0.5l0.1-0.1c0.1-0.1,0.2-0.2,0.3-0.2l3.2-0.8l-11.1-6.2L23,23.7l1.7-2.9
		c0-0.1,0.1-0.1,0.2-0.2c0.1,0,0.1-0.1,0.2-0.1c0.1,0,0.2,0,0.3,0c0.1,0,0.3,0.1,0.4,0.2l3,4l2-1.5l-3-4
		C27.7,19.3,27.6,19.2,27.6,19.1z"/>
	<linearGradient id="SVGID_3_" gradientUnits="userSpaceOnUse" x1="25.0425" y1="10.2575" x2="10.2925" y2="27.1742">
		<stop  offset="0" style="stop-color:#006DFF"/>
		<stop  offset="1" style="stop-color:#43D2F1"/>
	</linearGradient>
	<circle class="st2" cx="12.4" cy="24.8" r="3"/>
</g>
</svg>
