<svg id="Layer_1" data-name="Layer 1" xmlns="http://www.w3.org/2000/svg" xmlns:xlink="http://www.w3.org/1999/xlink" viewBox="0 0 31.3 29.48"><defs><style>.cls-1{fill:url(#linear-gradient);}.cls-2{fill:url(#linear-gradient-2);}.cls-3{fill:url(#linear-gradient-3);}</style><linearGradient id="linear-gradient" x1="20.47" y1="-1.89" x2="10.83" y2="9.59" gradientUnits="userSpaceOnUse"><stop offset="0" stop-color="#006dff"/><stop offset="1" stop-color="#43d2f1"/></linearGradient><linearGradient id="linear-gradient-2" x1="18.93" y1="9.53" x2="12.37" y2="17.35" xlink:href="#linear-gradient"/><linearGradient id="linear-gradient-3" x1="25.49" y1="5.25" x2="5.82" y2="28.69" xlink:href="#linear-gradient"/></defs><title>menu</title><path class="cls-1" d="M8.85,7.71h7.66A.74.74,0,0,0,17.26,7s0,0,0,0V1.48h1.26V7a.74.74,0,0,0,.73.75h3.18A.74.74,0,0,0,23.19,7s0,0,0,0v0h0V.77h0v0A.74.74,0,0,0,22.44,0H8.79a.74.74,0,0,0-.67.74V7A.74.74,0,0,0,8.85,7.71Z"/><rect class="cls-2" x="8.95" y="12.39" width="13.4" height="2.09"/><path class="cls-3" d="M25.38,5.17a.74.74,0,1,0-.86,1.22,2.6,2.6,0,0,1,.76.86,3,3,0,0,1,.37,1.18h-20A2.84,2.84,0,0,1,6.79,6.38.74.74,0,0,0,6.26,5a.8.8,0,0,0-.33.14A4.31,4.31,0,0,0,4.15,8.72V25.23a4.13,4.13,0,0,0,4,4.25h15a4.13,4.13,0,0,0,4-4.25V8.72A4.33,4.33,0,0,0,25.38,5.17ZM10.18,26.43c-1.09,0-2-.56-2-1.24s.89-1.23,2-1.23,2,.54,2,1.23S11.27,26.43,10.18,26.43Zm0-3.44c-1.09,0-2-.56-2-1.24s.89-1.24,2-1.24,2,.56,2,1.24S11.27,23,10.18,23Zm0-3.45c-1.09,0-2-.56-2-1.24s.89-1.24,2-1.24,2,.56,2,1.24S11.27,19.53,10.18,19.53Zm5.47,6.9c-1.09,0-2-.56-2-1.24s.89-1.23,2-1.23,2,.54,2,1.23S16.74,26.43,15.65,26.43Zm0-3.44c-1.09,0-2-.56-2-1.24s.89-1.24,2-1.24,2,.56,2,1.24S16.74,23,15.65,23Zm0-3.45c-1.09,0-2-.56-2-1.24s.89-1.24,2-1.24,2,.56,2,1.24S16.74,19.53,15.65,19.53Zm5.47,6.9c-1.09,0-2-.56-2-1.24S20,24,21.12,24s2,.54,2,1.23S22.21,26.43,21.12,26.43Zm0-3.44c-1.09,0-2-.56-2-1.24s.87-1.24,2-1.24,2,.56,2,1.24S22.21,23,21.12,23Zm0-3.45c-1.09,0-2-.56-2-1.24s.87-1.24,2-1.24,2,.56,2,1.24S22.21,19.53,21.12,19.53Zm2.71-4.31a.74.74,0,0,1-.74.74H8.21a.74.74,0,0,1-.74-.74V11.65a.74.74,0,0,1,.67-.74h15a.74.74,0,0,1,.74.74Z"/></svg>