<?xml version="1.0" encoding="utf-8"?>
<!-- Generator: Adobe Illustrator 21.1.0, SVG Export Plug-In . SVG Version: 6.00 Build 0)  -->
<svg version="1.1" id="Layer_1" xmlns="http://www.w3.org/2000/svg" xmlns:xlink="http://www.w3.org/1999/xlink" x="0px" y="0px"
	 viewBox="0 0 156 120" style="enable-background:new 0 0 156 120;" xml:space="preserve">
<style type="text/css">
	.st0{opacity:5.000000e-02;enable-background:new    ;}
	.st1{fill:#FFFFFF;}
</style>
<g class="st0">
	<path class="st1" d="M59.8-265.7l1.5,5.9c-14.3,3.7-25.5,10.2-33.5,19.5c-8,9.3-12.1,20.4-12.1,33.3c0,1.9,0,3.3,0.1,4
		c0.1,0.8,0.2,1.5,0.3,2.3c4.1-2.6,7.9-4.4,11.4-5.6c3.5-1.2,6.9-1.8,10.2-1.8c8.7,0,15.9,2.9,21.6,8.6c5.7,5.7,8.6,13,8.6,21.6
		c0,9.2-3.1,16.7-9.2,22.6c-6.1,5.9-14,8.8-23.7,8.8c-10.3,0-18.7-4.3-25.1-13c-6.4-8.7-9.6-20.2-9.6-34.4c0-18.8,5-34.2,15.1-46.4
		C25.7-252.5,40.5-261,59.8-265.7z M146.7-265.7l1.5,5.9c-14.3,3.8-25.4,10.4-33.4,19.7c-8,9.3-12,20.4-12,33.1c0,1.8,0,3.1,0.1,4
		c0.1,0.9,0.2,1.7,0.3,2.3c4-2.4,7.8-4.3,11.4-5.5c3.6-1.3,7.2-1.9,10.6-1.9c8.5,0,15.7,2.9,21.4,8.6c5.7,5.7,8.6,13,8.6,21.6
		c0,9.2-3.1,16.7-9.3,22.6c-6.2,5.9-14.2,8.8-24,8.8c-10.2,0-18.5-4.3-24.9-13c-6.4-8.7-9.6-20.2-9.6-34.4c0-18.8,5-34.2,15-46.4
		C112.6-252.5,127.3-261,146.7-265.7z"/>
</g>
</svg>
