<?xml version="1.0" encoding="utf-8"?>
<!-- Generator: Adobe Illustrator 21.1.0, SVG Export Plug-In . SVG Version: 6.00 Build 0)  -->
<svg version="1.1" id="Layer_1" xmlns="http://www.w3.org/2000/svg" xmlns:xlink="http://www.w3.org/1999/xlink" x="0px" y="0px"
	 viewBox="0 0 104.3 81.2" style="enable-background:new 0 0 104.3 81.2;" xml:space="preserve">
<style type="text/css">
	.st0{fill:url(#SVGID_1_);}
	.st1{fill:url(#SVGID_2_);}
	.st2{fill:url(#SVGID_3_);}
	.st3{fill:url(#SVGID_4_);}
	.st4{fill:url(#SVGID_5_);}
	.st5{fill:url(#SVGID_6_);}
	.st6{fill:url(#SVGID_7_);}
	.st7{fill:url(#SVGID_8_);}
	.st8{fill:#519BFC;}
	.st9{fill:#73CFF6;}
	.st10{fill:#B5D7FC;}
	.st11{fill:#C4ECFB;}
	.st12{fill:#B9DDFC;}
	.st13{fill:#84BAFB;}
	.st14{fill:#92D0F9;}
	.st15{fill:#93D2F9;}
</style>
<g>
	<g>
		<linearGradient id="SVGID_1_" gradientUnits="userSpaceOnUse" x1="48.2659" y1="6.8759" x2="13.5992" y2="52.5426">
			<stop  offset="0" style="stop-color:#006DFF"/>
			<stop  offset="1" style="stop-color:#43D2F1"/>
		</linearGradient>
		<path class="st0" d="M44.2,26.5c0-4.8-3.9-8.7-8.7-8.7c-0.7,0-1.4,0.1-2.1,0.3c0,0-0.1,0-0.1,0c-0.7-0.2-1.3-0.2-2-0.2
			c-4.8,0-8.7,3.9-8.7,8.7c0,4.8,3.9,8.7,8.7,8.7c0.7,0,1.4-0.1,2.1-0.3c0.7,0.2,1.4,0.3,2.1,0.3C40.3,35.2,44.2,31.3,44.2,26.5z
			 M26.8,26.5c0,2.9,1.5,5.7,3.9,7.3c-3.8-0.3-6.8-3.4-6.8-7.3c0-3.8,3-7,6.8-7.3C28.3,20.8,26.8,23.6,26.8,26.5z M42.8,26.5
			c0,4-3.3,7.3-7.3,7.3s-7.3-3.3-7.3-7.3c0-4,3.3-7.3,7.3-7.3S42.8,22.5,42.8,26.5z"/>
		<linearGradient id="SVGID_2_" gradientUnits="userSpaceOnUse" x1="49.839" y1="8.0701" x2="15.1724" y2="53.7368">
			<stop  offset="0" style="stop-color:#006DFF"/>
			<stop  offset="1" style="stop-color:#43D2F1"/>
		</linearGradient>
		<path class="st1" d="M38.3,29.9c-0.2,0-0.4,0-0.5,0.1c-0.4,0.3-1.8,0.7-3,0.1c-0.8-0.4-1.3-1.1-1.5-2.2h3.9c0.4,0,0.7-0.3,0.7-0.7
			c0-0.4-0.3-0.7-0.7-0.7h-4.1c0,0,0-0.1,0-0.1c0-0.1,0-0.1,0-0.2h4.1c0.4,0,0.7-0.3,0.7-0.7c0-0.4-0.3-0.7-0.7-0.7h-3.8
			c0.4-1.2,1.2-1.7,1.6-2c1-0.5,2.1-0.4,2.6,0c0.2,0.1,0.3,0.2,0.5,0.1c0.2,0,0.3-0.1,0.5-0.3c0.2-0.3,0.2-0.8-0.2-1
			c-1-0.8-2.7-0.8-4.1-0.1c-0.7,0.4-2,1.3-2.4,3.2h-0.7c-0.4,0-0.7,0.3-0.7,0.7c0,0.4,0.3,0.7,0.7,0.7h0.5c0,0.1,0,0.1,0,0.2
			c0,0,0,0.1,0,0.1h-0.5c-0.4,0-0.7,0.3-0.7,0.7c0,0.4,0.3,0.7,0.7,0.7h0.7c0.4,2.1,1.4,3,2.3,3.5c0.6,0.3,1.2,0.4,2,0.4
			c1.1,0,2.1-0.4,2.5-0.7c0.3-0.2,0.4-0.7,0.1-1C38.6,30,38.4,29.9,38.3,29.9z"/>
		<linearGradient id="SVGID_3_" gradientUnits="userSpaceOnUse" x1="59.6247" y1="15.4987" x2="24.958" y2="61.1653">
			<stop  offset="0" style="stop-color:#006DFF"/>
			<stop  offset="1" style="stop-color:#43D2F1"/>
		</linearGradient>
		<path class="st2" d="M46.6,25.8c0.8-0.2,2.4,0.2,3.8,1.4c0.6,0.6,1.6,1.7,1.8,3.3l-1-0.6c-0.3-0.2-0.8-0.1-0.9,0.3
			c-0.2,0.3-0.1,0.8,0.3,0.9l2,1.2c0,0,0,0.1,0.1,0.1c0.1,0.1,0.3,0.2,0.4,0.2c0.2,0,0.4-0.1,0.5-0.3l1.7-2.1c0.2-0.3,0.2-0.7-0.1-1
			c-0.3-0.2-0.7-0.2-1,0.1l-0.6,0.8c-0.2-1.5-1-2.9-2.3-4c-1.5-1.3-3.6-2-5-1.6c-0.4,0.1-0.6,0.5-0.5,0.8
			C45.9,25.7,46.2,25.9,46.6,25.8z"/>
		<linearGradient id="SVGID_4_" gradientUnits="userSpaceOnUse" x1="67.9119" y1="21.7896" x2="33.2452" y2="67.4563">
			<stop  offset="0" style="stop-color:#006DFF"/>
			<stop  offset="1" style="stop-color:#43D2F1"/>
		</linearGradient>
		<path class="st3" d="M50.5,41.3c0,1.4,1.2,2.6,2.6,2.6c1.4,0,2.6-1.2,2.6-2.6c0-1.4-1.2-2.6-2.6-2.6
			C51.7,38.7,50.5,39.9,50.5,41.3z M53.1,42.5c-0.7,0-1.2-0.5-1.2-1.2c0-0.7,0.5-1.2,1.2-1.2c0.7,0,1.2,0.5,1.2,1.2
			C54.3,41.9,53.8,42.5,53.1,42.5z"/>
		<linearGradient id="SVGID_5_" gradientUnits="userSpaceOnUse" x1="69.905" y1="23.3027" x2="35.2383" y2="68.9693">
			<stop  offset="0" style="stop-color:#006DFF"/>
			<stop  offset="1" style="stop-color:#43D2F1"/>
		</linearGradient>
		<path class="st4" d="M52.7,35.9l-13.8,9c-0.3,0.2-0.4,0.5-0.3,0.8c0.1,0.3,0.4,0.5,0.7,0.5h27.6c0.3,0,0.6-0.2,0.7-0.5
			c0.1-0.3,0-0.6-0.3-0.8l-13.8-9C53.3,35.7,53,35.7,52.7,35.9z M64.6,44.7H41.6l11.5-7.5L64.6,44.7z"/>
		<linearGradient id="SVGID_6_" gradientUnits="userSpaceOnUse" x1="74.8511" y1="27.0574" x2="40.1844" y2="72.724">
			<stop  offset="0" style="stop-color:#006DFF"/>
			<stop  offset="1" style="stop-color:#43D2F1"/>
		</linearGradient>
		<path class="st5" d="M39.3,59.6c-0.4,0-0.7,0.3-0.7,0.7c0,0.4,0.3,0.7,0.7,0.7h27.6c0.4,0,0.7-0.3,0.7-0.7c0-0.4-0.3-0.7-0.7-0.7
			h-3.4V48.2h0.7c0.4,0,0.7-0.3,0.7-0.7s-0.3-0.7-0.7-0.7h-5.5c-0.4,0-0.7,0.3-0.7,0.7s0.3,0.7,0.7,0.7h0.7v11.4H46.9V48.2h0.7
			c0.4,0,0.7-0.3,0.7-0.7s-0.3-0.7-0.7-0.7h-5.5c-0.4,0-0.7,0.3-0.7,0.7s0.3,0.7,0.7,0.7h0.7v11.4H39.3z M44.1,59.6V48.2h1.4v11.4
			H44.1z M60.7,59.6V48.2h1.4v11.4H60.7z"/>
		<linearGradient id="SVGID_7_" gradientUnits="userSpaceOnUse" x1="77.9365" y1="29.3996" x2="43.2698" y2="75.0662">
			<stop  offset="0" style="stop-color:#006DFF"/>
			<stop  offset="1" style="stop-color:#43D2F1"/>
		</linearGradient>
		<path class="st6" d="M67.9,61.6h-30c-0.4,0-0.7,0.3-0.7,0.7c0,0.4,0.3,0.7,0.7,0.7h30c0.4,0,0.7-0.3,0.7-0.7
			C68.6,61.9,68.3,61.6,67.9,61.6z"/>
		<g>
			<linearGradient id="SVGID_8_" gradientUnits="userSpaceOnUse" x1="73.316" y1="25.892" x2="38.6493" y2="71.5587">
				<stop  offset="0" style="stop-color:#006DFF"/>
				<stop  offset="1" style="stop-color:#43D2F1"/>
			</linearGradient>
			<path class="st7" d="M55.9,46.8h-5.5c-0.4,0-0.7,0.3-0.7,0.7s0.3,0.7,0.7,0.7H51v11.4h1.4V48.2h1.4v11.4h1.4V48.2h0.7
				c0.4,0,0.7-0.3,0.7-0.7S56.3,46.8,55.9,46.8z"/>
		</g>
	</g>
	<path class="st8" d="M84.5,25c-3.4,0-6.2-2.8-6.2-6.2s2.8-6.2,6.2-6.2s6.2,2.8,6.2,6.2S87.9,25,84.5,25z M84.5,15.6
		c-1.7,0-3.1,1.4-3.1,3.1c0,1.7,1.4,3.1,3.1,3.1c1.7,0,3.1-1.4,3.1-3.1S86.2,15.6,84.5,15.6z"/>
	<path class="st9" d="M54.8,81.2c-2.6,0-4.7-2.1-4.7-4.7s2.1-4.7,4.7-4.7s4.7,2.1,4.7,4.7S57.3,81.2,54.8,81.2z M54.8,75
		c-0.9,0-1.6,0.7-1.6,1.6s0.7,1.6,1.6,1.6s1.6-0.7,1.6-1.6S55.6,75,54.8,75z"/>
	<path class="st10" d="M43.7,9.4c-2.6,0-4.7-2.1-4.7-4.7S41.1,0,43.7,0c2.6,0,4.7,2.1,4.7,4.7S46.3,9.4,43.7,9.4z M43.7,3.1
		c-0.9,0-1.6,0.7-1.6,1.6s0.7,1.6,1.6,1.6c0.9,0,1.6-0.7,1.6-1.6S44.5,3.1,43.7,3.1z"/>
	<path class="st11" d="M20.3,78.1c-3.4,0-6.2-2.8-6.2-6.2s2.8-6.2,6.2-6.2s6.2,2.8,6.2,6.2S23.8,78.1,20.3,78.1z M20.3,68.8
		c-1.7,0-3.1,1.4-3.1,3.1s1.4,3.1,3.1,3.1c1.7,0,3.1-1.4,3.1-3.1S22.1,68.8,20.3,68.8z"/>
	<g>
		<path class="st9" d="M26.6,54.6c-0.9,0-1.6-0.7-1.6-1.6v-6.2c0-0.9,0.7-1.6,1.6-1.6c0.9,0,1.6,0.7,1.6,1.6v6.2
			C28.2,53.9,27.5,54.6,26.6,54.6z"/>
		<path class="st9" d="M29.7,51.5h-6.2c-0.9,0-1.6-0.7-1.6-1.6c0-0.9,0.7-1.6,1.6-1.6h6.2c0.9,0,1.6,0.7,1.6,1.6
			C31.3,50.8,30.6,51.5,29.7,51.5z"/>
	</g>
	<g>
		<path class="st12" d="M81.3,60.9c-0.9,0-1.6-0.7-1.6-1.6v-6.2c0-0.9,0.7-1.6,1.6-1.6c0.9,0,1.6,0.7,1.6,1.6v6.2
			C82.8,60.2,82.1,60.9,81.3,60.9z"/>
		<path class="st12" d="M84.4,57.8h-6.2c-0.9,0-1.6-0.7-1.6-1.6s0.7-1.6,1.6-1.6h6.2c0.9,0,1.6,0.7,1.6,1.6S85.3,57.8,84.4,57.8z"/>
	</g>
	<rect x="79.7" y="34.5" class="st13" width="3.1" height="3.1"/>
	<rect x="12.5" y="28.3" class="st14" width="3.1" height="3.1"/>
	<rect x="61" y="9.4" class="st13" width="3.1" height="3.1"/>
	<rect x="78.2" y="70.3" class="st15" width="3.1" height="3.1"/>
	<rect x="67.1" y="27.5" class="st13" width="3.1" height="3.1"/>
</g>
</svg>
