<?xml version="1.0" encoding="utf-8"?>
<!-- Generator: Adobe Illustrator 21.1.0, SVG Export Plug-In . SVG Version: 6.00 Build 0)  -->
<svg version="1.1" id="Layer_1" xmlns="http://www.w3.org/2000/svg" xmlns:xlink="http://www.w3.org/1999/xlink" x="0px" y="0px"
	 viewBox="0 0 31.3 29.5" style="enable-background:new 0 0 31.3 29.5;" xml:space="preserve">
<style type="text/css">
	.st0{fill:url(#SVGID_1_);}
	.st1{fill:url(#SVGID_2_);}
	.st2{fill:url(#SVGID_3_);}
</style>
<title>menu</title>
<g>
	<linearGradient id="SVGID_1_" gradientUnits="userSpaceOnUse" x1="20.1997" y1="4.1495" x2="3.8663" y2="19.4828">
		<stop  offset="0" style="stop-color:#006DFF"/>
		<stop  offset="1" style="stop-color:#43D2F1"/>
	</linearGradient>
	<path class="st0" d="M23.1,11.5c0-5.9-4.8-10.7-10.7-10.7S1.6,5.6,1.6,11.5c0,5.9,4.8,10.7,10.7,10.7S23.1,17.4,23.1,11.5z
		 M20.1,11.5c0,4.3-3.5,7.8-7.8,7.8s-7.8-3.5-7.8-7.8s3.5-7.8,7.8-7.8S20.1,7.2,20.1,11.5z"/>
	<linearGradient id="SVGID_2_" gradientUnits="userSpaceOnUse" x1="20.0611" y1="4.0019" x2="3.7278" y2="19.3352">
		<stop  offset="0" style="stop-color:#006DFF"/>
		<stop  offset="1" style="stop-color:#43D2F1"/>
	</linearGradient>
	<path class="st1" d="M11.8,4.9c-0.7,0-1.2,0.5-1.2,1.2c0,0.7,0.5,1.2,1.2,1.2c2.6,0,4.6,2.1,4.6,4.6c0,0.7,0.5,1.2,1.2,1.2
		c0.7,0,1.2-0.5,1.2-1.2C18.8,8.1,15.7,4.9,11.8,4.9z"/>
	<linearGradient id="SVGID_3_" gradientUnits="userSpaceOnUse" x1="32.0519" y1="16.7747" x2="15.7186" y2="32.1081">
		<stop  offset="0" style="stop-color:#006DFF"/>
		<stop  offset="1" style="stop-color:#43D2F1"/>
	</linearGradient>
	<path class="st2" d="M29.1,25.4l-6.1-6.1c-0.7-0.7-1.9-0.7-2.7,0c-0.8,0.8-0.8,1.9,0,2.7l6.1,6.1c0.4,0.4,0.8,0.6,1.3,0.6
		c0.5,0,1-0.2,1.3-0.6c0.4-0.4,0.6-0.8,0.6-1.3S29.4,25.8,29.1,25.4z"/>
</g>
</svg>
