<?xml version="1.0" encoding="utf-8"?>
<!-- Generator: Adobe Illustrator 21.1.0, SVG Export Plug-In . SVG Version: 6.00 Build 0)  -->
<svg version="1.1" id="Layer_1" xmlns="http://www.w3.org/2000/svg" xmlns:xlink="http://www.w3.org/1999/xlink" x="0px" y="0px"
	 viewBox="0 0 31.3 29.5" style="enable-background:new 0 0 31.3 29.5;" xml:space="preserve">
<style type="text/css">
	.st0{fill:url(#SVGID_1_);}
</style>
<title>menu</title>
<linearGradient id="SVGID_1_" gradientUnits="userSpaceOnUse" x1="27.3777" y1="1.1829" x2="5.0443" y2="24.8496">
	<stop  offset="0" style="stop-color:#006DFF"/>
	<stop  offset="1" style="stop-color:#43D2F1"/>
</linearGradient>
<path class="st0" d="M10.6,16.2c0.1,0.1,0.1,0.3,0,0.4l-0.7,0.7c-0.1,0.1-0.3,0.1-0.5,0c-0.1-0.1-0.1-0.3,0-0.4l0.7-0.7
	C10.2,16.1,10.4,16.1,10.6,16.2z M9.1,13.1h-1c-0.2,0-0.3,0.1-0.3,0.3s0.1,0.3,0.3,0.3h1c0.2,0,0.3-0.1,0.3-0.3S9.3,13.1,9.1,13.1z
	 M9.9,9.5c-0.1-0.1-0.3-0.1-0.5,0c-0.1,0.1-0.1,0.3,0,0.4l0.7,0.7c0.1,0.1,0.3,0.1,0.5,0c0.1-0.1,0.1-0.3,0-0.4L9.9,9.5z M13.4,9.5
	c0.2,0,0.3-0.1,0.3-0.3v-1c0-0.2-0.1-0.3-0.3-0.3C13.2,7.9,13,8,13,8.2v1C13,9.3,13.2,9.5,13.4,9.5z M16.6,10.6l0.7-0.7
	c0.1-0.1,0.1-0.3,0-0.4s-0.3-0.1-0.5,0l-0.7,0.7c-0.1,0.1-0.1,0.3,0,0.4S16.5,10.7,16.6,10.6z M13.4,17.3c-0.2,0-0.3,0.1-0.3,0.3v1
	c0,0.2,0.1,0.3,0.3,0.3c0.2,0,0.3-0.1,0.3-0.3v-1C13.7,17.5,13.5,17.3,13.4,17.3z M17.3,13.4c0,0.2,0.1,0.3,0.3,0.3h1
	c0.2,0,0.3-0.1,0.3-0.3s-0.1-0.3-0.3-0.3h-1C17.5,13.1,17.3,13.2,17.3,13.4z M16.6,16.2c-0.1-0.1-0.3-0.1-0.5,0s-0.1,0.3,0,0.4
	l0.7,0.7c0.1,0.1,0.3,0.1,0.5,0c0.1-0.1,0.1-0.3,0-0.4L16.6,16.2z M13.4,10.8c-1.5,0-2.7,1.2-2.7,2.6s1.2,2.6,2.7,2.6
	s2.7-1.2,2.7-2.6S14.8,10.8,13.4,10.8z M28.1,4.6v17.7c0,1.3-1.1,2.4-2.4,2.4H5.5c-1.3,0-2.4-1.1-2.4-2.4V4.6c0-1.3,1.1-2.4,2.4-2.4
	h20.2C27.1,2.2,28.1,3.3,28.1,4.6z M19.9,13.4c0-3.6-2.9-6.5-6.5-6.5s-6.5,2.9-6.5,6.5s2.9,6.5,6.5,6.5C17,19.9,19.9,17,19.9,13.4z
	 M24.7,18.3V8.4c0.4-0.2,0.7-0.6,0.7-1.1c0-0.6-0.5-1.2-1.2-1.2c-0.6,0-1.2,0.5-1.2,1.2c0,0.5,0.3,0.9,0.7,1.1v9.8
	c-0.4,0.2-0.7,0.6-0.7,1.1c0,0.6,0.5,1.2,1.2,1.2c0.6,0,1.2-0.5,1.2-1.2C25.4,18.9,25.1,18.5,24.7,18.3z M8.2,26.1
	c0-0.6-0.5-1.1-1.1-1.1l0,0c-0.6,0-1.1,0.5-1.1,1.1l0,0c0,0.6,0.5,1.1,1.1,1.1l0,0C7.7,27.2,8.2,26.8,8.2,26.1L8.2,26.1z M25.3,26.1
	c0-0.6-0.5-1.1-1.1-1.1l0,0c-0.6,0-1.1,0.5-1.1,1.1l0,0c0,0.6,0.5,1.1,1.1,1.1l0,0C24.8,27.2,25.3,26.8,25.3,26.1L25.3,26.1z"/>
</svg>
