<?xml version="1.0" encoding="utf-8"?>
<!-- Generator: Adobe Illustrator 21.1.0, SVG Export Plug-In . SVG Version: 6.00 Build 0)  -->
<svg version="1.1" id="Layer_1" xmlns="http://www.w3.org/2000/svg" xmlns:xlink="http://www.w3.org/1999/xlink" x="0px" y="0px"
	 viewBox="0 0 31.3 29.5" style="enable-background:new 0 0 31.3 29.5;" xml:space="preserve">
<style type="text/css">
	.st0{fill:url(#SVGID_1_);}
</style>
<title>menu</title>
<linearGradient id="SVGID_1_" gradientUnits="userSpaceOnUse" x1="2.4684" y1="14.74" x2="28.8315" y2="14.74" gradientTransform="matrix(-1 0 0 -1 31.3 29.48)">
	<stop  offset="0" style="stop-color:#006DFF"/>
	<stop  offset="1" style="stop-color:#43D2F1"/>
</linearGradient>
<path class="st0" d="M6.1,21.6c-2,0-3.6,1.6-3.6,3.6c0,2,1.6,3.6,3.6,3.6s3.6-1.6,3.6-3.6c0-0.9-0.3-1.7-0.8-2.3l2.9-3.1
	c1.1,0.9,2.4,1.4,3.9,1.4c1.5,0,2.8-0.5,3.9-1.4l2.7,2.5c-0.2,0.4-0.3,0.8-0.3,1.2c0,1.3,1.1,2.4,2.4,2.4s2.4-1.1,2.4-2.4
	s-1.1-2.4-2.4-2.4c-0.5,0-1,0.2-1.4,0.5l-2.7-2.5c1-1.1,1.5-2.5,1.5-4c0-1.5-0.5-2.9-1.4-3.9l2.9-3.1c0.6,0.4,1.3,0.7,2.1,0.7
	c2,0,3.6-1.6,3.6-3.6s-1.6-3.6-3.6-3.6c-2,0-3.6,1.6-3.6,3.6c0,0.8,0.3,1.6,0.8,2.3l-2.9,3.1c-1.1-0.9-2.4-1.5-3.9-1.5
	c-0.1,0-0.2,0-0.3,0L15,6.3c1.2-0.4,2.1-1.4,2.1-2.7c0-1.6-1.3-2.9-2.9-2.9c-1.6,0-2.9,1.3-2.9,2.9c0,1.5,1.2,2.8,2.7,2.9l0.3,2.8
	c-1.4,0.3-2.7,1.1-3.5,2.3L8.4,9.8c0.1-0.3,0.2-0.6,0.2-1c0-1.3-1.1-2.4-2.4-2.4S3.9,7.5,3.9,8.8s1.1,2.4,2.4,2.4
	c0.6,0,1.2-0.2,1.6-0.6l2.4,1.7c-0.5,0.8-0.7,1.8-0.7,2.8c0,1.5,0.6,2.9,1.5,4l-2.9,3.1C7.5,21.8,6.8,21.6,6.1,21.6z"/>
</svg>
