<?xml version="1.0" encoding="utf-8"?>
<!-- Generator: Adobe Illustrator 21.1.0, SVG Export Plug-In . SVG Version: 6.00 Build 0)  -->
<svg version="1.1" id="Layer_1" xmlns="http://www.w3.org/2000/svg" xmlns:xlink="http://www.w3.org/1999/xlink" x="0px" y="0px"
	 viewBox="0 0 31.3 29.5" style="enable-background:new 0 0 31.3 29.5;" xml:space="preserve">
<style type="text/css">
	.st0{fill:url(#SVGID_1_);}
	.st1{fill:url(#SVGID_2_);}
	.st2{fill:url(#SVGID_3_);}
</style>
<title>menu</title>
<g>
	<linearGradient id="SVGID_1_" gradientUnits="userSpaceOnUse" x1="26.578" y1="7.4395" x2="4.578" y2="38.1062">
		<stop  offset="0" style="stop-color:#006DFF"/>
		<stop  offset="1" style="stop-color:#43D2F1"/>
	</linearGradient>
	<path class="st0" d="M25.2,22.6c-0.2-0.2-0.4-0.2-0.6,0L24,23.1c0,0,0,0,0,0c-4.2,4.2-10.8,4.7-15.5,1.2H9c0.2,0,0.4-0.2,0.4-0.4
		v-1.7c0-0.2-0.2-0.4-0.4-0.4H4.6c-0.2,0-0.4,0.2-0.4,0.4v4.4c0,0.2,0.2,0.4,0.4,0.4h1.7c0.2,0,0.4-0.2,0.4-0.4V26
		c2.5,2,5.7,3.1,9,3.1c3.9,0,7.5-1.5,10.1-4.2l0.6-0.6c0.1-0.1,0.1-0.2,0.1-0.3c0-0.1,0-0.2-0.1-0.3L25.2,22.6z"/>
	<linearGradient id="SVGID_2_" gradientUnits="userSpaceOnUse" x1="22.8167" y1="4.7412" x2="0.8167" y2="35.4078">
		<stop  offset="0" style="stop-color:#006DFF"/>
		<stop  offset="1" style="stop-color:#43D2F1"/>
	</linearGradient>
	<path class="st1" d="M15.6,22.8c4.5,0,8.1-3.6,8.1-8.1c0-4.4-3.6-8.1-8.1-8.1c-2.3,0-4.4,1-5.9,2.6c-1.3,1.4-2.2,3.4-2.2,5.5
		C7.6,19.2,11.1,22.8,15.6,22.8z M16.2,15.9c-0.2-0.1-0.4-0.2-0.6-0.3c-0.5-0.2-1.1-0.4-1.6-0.7c-0.8-0.5-1.3-1.1-1.3-2.1
		c0-1.1,0.7-1.8,1.7-2.2c0.4-0.1,0.4-0.1,0.4-0.6c0-0.1,0-0.3,0-0.4c0-0.3,0-0.4,0.4-0.4c0.1,0,0.2,0,0.3,0c0.7,0,0.7,0,0.7,0.7
		c0,0.5,0,0.5,0.5,0.6c0.4,0,0.7,0.2,1.1,0.3c0.2,0.1,0.3,0.2,0.2,0.4C18,11.4,18,11.7,17.9,12c-0.1,0.3-0.2,0.3-0.4,0.2
		c-0.5-0.3-1.1-0.4-1.7-0.4c-0.2,0-0.3,0-0.4,0.1c-0.5,0.2-0.6,0.8-0.2,1.2c0.2,0.2,0.5,0.3,0.7,0.4c0.4,0.2,0.9,0.4,1.3,0.6
		c1.4,0.9,1.7,2.6,0.8,3.8c-0.4,0.4-0.8,0.7-1.3,0.9c-0.2,0-0.4,0.2-0.3,0.4c0,0.2,0,0.5,0,0.7c0,0.2-0.1,0.3-0.3,0.3
		c-0.3,0-0.5,0-0.8,0c-0.2,0-0.3-0.1-0.3-0.4c0-0.2,0-0.4,0-0.5c0-0.4,0-0.4-0.4-0.4c-0.5-0.1-0.9-0.2-1.4-0.4
		c-0.4-0.2-0.4-0.3-0.3-0.6c0.1-0.3,0.1-0.5,0.2-0.8c0.1-0.3,0.2-0.4,0.4-0.2c0.5,0.3,1,0.4,1.5,0.4c0.4,0,0.7,0,1-0.1
		C16.6,16.9,16.7,16.3,16.2,15.9z"/>
	<linearGradient id="SVGID_3_" gradientUnits="userSpaceOnUse" x1="19.0494" y1="2.0385" x2="-2.9506" y2="32.7052">
		<stop  offset="0" style="stop-color:#006DFF"/>
		<stop  offset="1" style="stop-color:#43D2F1"/>
	</linearGradient>
	<path class="st2" d="M26.7,2.4H25c-0.2,0-0.4,0.2-0.4,0.4v0.7c-2.5-2-5.7-3.1-9-3.1c-3.9,0-7.5,1.5-10.1,4.2L4.9,5.2
		C4.8,5.3,4.8,5.4,4.8,5.5c0,0.1,0,0.2,0.1,0.3l1.2,1.2c0.2,0.2,0.4,0.2,0.6,0l0.6-0.6C11.4,2.1,18,1.7,22.7,5.1h-0.4
		c-0.2,0-0.4,0.2-0.4,0.4v1.7c0,0.2,0.2,0.4,0.4,0.4h4.4c0.2,0,0.4-0.2,0.4-0.4V2.8C27.1,2.6,27,2.4,26.7,2.4z"/>
</g>
</svg>
