<svg xmlns="http://www.w3.org/2000/svg" width="400.074" height="156.32" viewBox="0 0 400.074 156.32">
    <defs>
        <filter id="ic_check_circle_24px" width="78.241" height="78.241" x="83.254" y="37.458" filterUnits="userSpaceOnUse">
            <feOffset dy="-1"/>
            <feGaussianBlur result="blur" stdDeviation=".5"/>
            <feFlood flood-color="#0043a0" flood-opacity=".161"/>
            <feComposite in2="blur" operator="in"/>
            <feComposite in="SourceGraphic"/>
        </filter>
        <style>
            .cls-8{fill:#006dff}.cls-3,.cls-6{fill:#fff}.cls-4,.cls-5{fill:none;stroke:#006dff;stroke-linecap:round;stroke-width:3px}.cls-4{stroke-linejoin:round}.cls-5{stroke-dasharray:6 5}.cls-7,.cls-8{stroke:none}
        </style>
    </defs>
    <g id="Grupo_11791" transform="translate(-262 -776.082)">
        <path id="Rectángulo_2707" fill="#e5f0ff" d="M0 0H400.074V156.32H0z" transform="translate(262 776.082)"/>
        <g id="Grupo_11793" transform="translate(346.754 816.039)">
            <g filter="url(#ic_check_circle_24px)" transform="translate(-84.75 -39.96)">
                <path id="ic_check_circle_24px-2" fill="#006dff" d="M39.621 2a37.621 37.621 0 1 0 37.62 37.621A37.634 37.634 0 0 0 39.621 2z" transform="translate(82.75 37.96)"/>
            </g>
            <g id="Capa_2" transform="translate(16.078 18.381)">
                <g id="Capa_1">
                    <path id="Trazado_2578" d="M8.729 81.02C5.071 80.769 2.463 78.19.7 74.736c-1.518-2.977-.592-6.26 2.1-8.959q4.48-4.485 8.964-8.959c.187-.19.37-.386.573-.56a1.678 1.678 0 1 1 2.383 2.362c-.953 1.052-1.989 2.032-2.993 3.039-2.263 2.265-4.538 4.514-6.785 6.8a4.369 4.369 0 0 0-.115 6.517 17.613 17.613 0 0 0 1.422 1.406 4.314 4.314 0 0 0 6.316-.166q4.884-4.82 9.711-9.714c1.874-1.89 1.92-4.016.383-6.255a2.759 2.759 0 0 1-.367-2.142c.378-1.119 1.92-1.084 2.87-.059a7.549 7.549 0 0 1 .23 10.012c-3.6 3.869-7.406 7.551-11.2 11.246-1.324 1.264-3.075 1.706-5.463 1.716z" class="cls-3" transform="translate(.033 -40.797)"/>
                    <path id="Trazado_2579" d="M78.234 0c3.312 0 7.178 2.811 8.608 6.239 1.3 3.119.535 6.244-2.174 8.97q-4.584 4.573-9.136 9.157c-1.052 1.05-1.992 1.167-2.769.378s-.685-1.655.418-2.761c3-3.031 6-6.067 9.045-9.056 1.569-1.54 2.45-3.331 1.43-5.382-1.09-2.188-2.728-4.126-5.417-4.153a5.261 5.261 0 0 0-3.3 1.411c-3.339 3.13-6.544 6.4-9.744 9.682-1.874 1.917-1.939 4.059-.268 6.233.685.9.892 1.754 0 2.595-.79.739-1.73.552-2.651-.469a7.686 7.686 0 0 1 .078-10.234C65.839 9 69.433 5.476 73.007 1.944A7.086 7.086 0 0 1 78.234 0z" class="cls-3" transform="translate(-44.196)"/>
                </g>
            </g>
        </g>
        <g id="Grupo_11794" transform="translate(446.498 803.441)">
            <g id="Grupo_11507" transform="translate(1.07 47.548)">
                <path id="Trazado_11330" d="M17.378-4.186l8.579 8.579-8.579 8.579" class="cls-4" transform="translate(41.563 4.186)"/>
                <path id="Trazado_11337" d="M63.069.092H7.651" class="cls-5" transform="translate(-7.651 8.05)"/>
            </g>
            <g id="Grupo_11508" transform="rotate(-14.98 66.332 8.704)">
                <path id="Trazado_11330-2" d="M0 0l8.579 8.579L0 17.158" class="cls-4" transform="translate(58.941)"/>
                <path id="Trazado_11339" d="M55.417 0H0" class="cls-5" transform="translate(0 8.142)"/>
            </g>
            <g id="Grupo_11509" transform="rotate(14.98 -294.625 55.823)">
                <path id="Trazado_11330-3" d="M0 0l8.579 8.579L0 17.158" class="cls-4" transform="translate(58.941)"/>
                <path id="Trazado_11338" d="M55.417 0H0" class="cls-5" transform="translate(0 8.142)"/>
            </g>
        </g>
        <g id="Grupo_11795" transform="translate(541.867 786.01)">
            <g id="Icon_awesome-user-alt" class="cls-6">
                <path d="M31.62 33.89H3.27C2.019 33.89 1 32.873 1 31.62v-1.09c0-4.26 3.464-7.723 7.723-7.723h3.541c1.653.723 3.395 1.09 5.181 1.09 1.793 0 3.535-.367 5.182-1.09h3.54c4.26 0 7.723 3.464 7.723 7.722v1.09c0 1.253-1.018 2.272-2.27 2.272zM17.444 18.627c-4.86 0-8.813-3.954-8.813-8.813C8.632 4.953 12.586 1 17.445 1c4.86 0 8.813 3.953 8.813 8.813 0 4.86-3.953 8.813-8.813 8.813z" class="cls-7"/>
                <path d="M31.62 32.89c.7 0 1.27-.57 1.27-1.27v-1.09c0-3.708-3.015-6.723-6.722-6.723h-3.335c-1.716.723-3.526 1.09-5.388 1.09-1.855 0-3.665-.367-5.386-1.09H8.723C5.016 23.807 2 26.822 2 30.529v1.09c0 .701.57 1.272 1.271 1.272h28.348M17.445 17.626c4.308 0 7.813-3.505 7.813-7.813S21.753 2 17.445 2 9.632 5.505 9.632 9.813s3.505 7.813 7.813 7.813M31.62 34.89H3.271C1.465 34.89 0 33.425 0 31.62v-1.09c0-4.819 3.905-8.723 8.723-8.723h3.754c1.52.695 3.196 1.09 4.968 1.09 1.772 0 3.455-.395 4.968-1.09h3.755c4.818 0 8.722 3.904 8.722 8.722v1.09c0 1.806-1.465 3.272-3.27 3.272zM17.445 19.626c-5.417 0-9.813-4.395-9.813-9.813C7.632 4.395 12.028 0 17.445 0c5.418 0 9.813 4.395 9.813 9.813 0 5.418-4.395 9.813-9.813 9.813z" class="cls-8"/>
            </g>
            <g id="Icon_awesome-user-alt-2" class="cls-6">
                <path d="M31.62 33.89H3.27C2.019 33.89 1 32.873 1 31.62v-1.09c0-4.26 3.464-7.723 7.723-7.723h3.541c1.653.723 3.395 1.09 5.181 1.09 1.793 0 3.535-.367 5.182-1.09h3.54c4.26 0 7.723 3.464 7.723 7.722v1.09c0 1.253-1.018 2.272-2.27 2.272zM17.444 18.627c-4.86 0-8.813-3.954-8.813-8.813C8.632 4.953 12.586 1 17.445 1c4.86 0 8.813 3.953 8.813 8.813 0 4.86-3.953 8.813-8.813 8.813z" class="cls-7" transform="translate(0 50.589)"/>
                <path d="M31.62 32.89c.7 0 1.27-.57 1.27-1.27v-1.09c0-3.708-3.015-6.723-6.722-6.723h-3.335c-1.716.723-3.526 1.09-5.388 1.09-1.855 0-3.665-.367-5.386-1.09H8.723C5.016 23.807 2 26.822 2 30.529v1.09c0 .701.57 1.272 1.271 1.272h28.348M17.445 17.626c4.308 0 7.813-3.505 7.813-7.813S21.753 2 17.445 2 9.632 5.505 9.632 9.813s3.505 7.813 7.813 7.813M31.62 34.89H3.271C1.465 34.89 0 33.425 0 31.62v-1.09c0-4.819 3.905-8.723 8.723-8.723h3.754c1.52.695 3.196 1.09 4.968 1.09 1.772 0 3.455-.395 4.968-1.09h3.755c4.818 0 8.722 3.904 8.722 8.722v1.09c0 1.806-1.465 3.272-3.27 3.272zM17.445 19.626c-5.417 0-9.813-4.395-9.813-9.813C7.632 4.395 12.028 0 17.445 0c5.418 0 9.813 4.395 9.813 9.813 0 5.418-4.395 9.813-9.813 9.813z" class="cls-8" transform="translate(0 50.589)"/>
            </g>
            <g id="Icon_awesome-user-alt-3" class="cls-6">
                <path d="M31.62 33.89H3.27C2.019 33.89 1 32.873 1 31.62v-1.09c0-4.26 3.464-7.723 7.723-7.723h3.541c1.653.723 3.395 1.09 5.181 1.09 1.793 0 3.535-.367 5.182-1.09h3.54c4.26 0 7.723 3.464 7.723 7.722v1.09c0 1.253-1.018 2.272-2.27 2.272zM17.444 18.627c-4.86 0-8.813-3.954-8.813-8.813C8.632 4.953 12.586 1 17.445 1c4.86 0 8.813 3.953 8.813 8.813 0 4.86-3.953 8.813-8.813 8.813z" class="cls-7" transform="translate(0 100.838)"/>
                <path d="M31.62 32.89c.7 0 1.27-.57 1.27-1.27v-1.09c0-3.708-3.015-6.723-6.722-6.723h-3.335c-1.716.723-3.526 1.09-5.388 1.09-1.855 0-3.665-.367-5.386-1.09H8.723C5.016 23.807 2 26.822 2 30.529v1.09c0 .701.57 1.272 1.271 1.272h28.348M17.445 17.626c4.308 0 7.813-3.505 7.813-7.813S21.753 2 17.445 2 9.632 5.505 9.632 9.813s3.505 7.813 7.813 7.813M31.62 34.89H3.271C1.465 34.89 0 33.425 0 31.62v-1.09c0-4.819 3.905-8.723 8.723-8.723h3.754c1.52.695 3.196 1.09 4.968 1.09 1.772 0 3.455-.395 4.968-1.09h3.755c4.818 0 8.722 3.904 8.722 8.722v1.09c0 1.806-1.465 3.272-3.27 3.272zM17.445 19.626c-5.417 0-9.813-4.395-9.813-9.813C7.632 4.395 12.028 0 17.445 0c5.418 0 9.813 4.395 9.813 9.813 0 5.418-4.395 9.813-9.813 9.813z" class="cls-8" transform="translate(0 100.838)"/>
            </g>
        </g>
    </g>
</svg>
