<svg xmlns="http://www.w3.org/2000/svg" width="400.074" height="156.32" viewBox="0 0 400.074 156.32">
    <defs>
        <style>
            .cls-2{fill:#fff}.cls-3{fill:#cad9fc}.cls-4{fill:#accffd}
        </style>
    </defs>
    <g id="Grupo_11791" transform="translate(0 -776.082)">
        <path id="Rectángulo_2707" fill="#e5f0ff" d="M0 0H400.074V156.32H0z" transform="translate(0 776.082)"/>
        <g id="_039---Market-Investment" transform="translate(60.228 792.172)">
            <g id="Layer_9" transform="translate(19.067 26.689)">
                <path id="Shape" d="M86.048 50.89H0l4.035-18.231C5.139 27.628 10.008 24 15.667 24h54.714c5.659 0 10.528 3.628 11.631 8.659z" class="cls-2" transform="translate(0 -24)"/>
                <path id="Shape-2" d="M14.756 39v29.579H4V39a5.378 5.378 0 0 0 10.756 0z" class="cls-2" transform="translate(6.756 1.335)"/>
                <path id="Shape-3" d="M34.756 39v29.579H24V39a5.378 5.378 0 0 0 10.756 0z" class="cls-2" transform="translate(40.536 1.335)"/>
                <path id="Shape-4" d="M77.292 52.689v18.823H2V52.689A2.689 2.689 0 0 1 4.689 50H74.6a2.689 2.689 0 0 1 2.692 2.689z" class="cls-3" transform="translate(3.378 19.914)"/>
                <g id="Grupo_11962" transform="translate(0 26.89)">
                    <path id="Shape-5" d="M78.18 52.689v18.823H2V52.689A2.885 2.885 0 0 1 5.047 50h70.086a2.885 2.885 0 0 1 3.047 2.689z" class="cls-2" transform="translate(3.378 -6.976)"/>
                    <path id="Shape-6" d="M0 34v13.445a5.378 5.378 0 0 0 10.756 0 5.378 5.378 0 0 0 10.756 0 5.378 5.378 0 0 0 10.756 0 5.378 5.378 0 1 0 10.756 0 5.378 5.378 0 0 0 10.756 0 5.378 5.378 0 0 0 10.756 0 5.378 5.378 0 0 0 10.756 0 5.378 5.378 0 1 0 10.756 0V34z" class="cls-2" transform="translate(0 -34)"/>
                    <path id="Shape-7" d="M10.756 34v13.445a5.378 5.378 0 0 1-10.756 0V34z" class="cls-2" transform="translate(0 -34)"/>
                    <path id="Shape-8" d="M18.756 34v13.445a5.378 5.378 0 0 1-10.756 0V34z" class="cls-2" transform="translate(13.512 -34)"/>
                    <path id="Shape-9" d="M26.756 34v13.445a5.378 5.378 0 0 1-10.756 0V34z" class="cls-2" transform="translate(27.024 -34)"/>
                    <path id="Shape-10" d="M34.756 34v13.445a5.378 5.378 0 0 1-10.756 0V34z" class="cls-2" transform="translate(40.536 -34)"/>
                </g>
            </g>
            <g id="Layer_11" transform="translate(11 24)">
                <g id="Grupo_11963">
                    <path id="Shape-11" d="M21.089 35.756c-4.222 21.055-3.576 17.8-3.657 18.473s-.054-2.339-.054 13.795a8.067 8.067 0 0 0 10.756 7.583v19.307a5.378 5.378 0 0 0-5.378 5.378v16.134h-8.067a2.689 2.689 0 0 0 0 5.378h96.8a2.689 2.689 0 0 0 0-5.378h-8.067v-16.134a5.378 5.378 0 0 0-5.378-5.378V75.607a8.067 8.067 0 0 0 10.756-7.583c0-17.505.753-10-3.711-32.268A13.445 13.445 0 0 0 91.917 25H34.265a13.445 13.445 0 0 0-13.176 10.756zm4.356 34.957a2.689 2.689 0 0 1-2.689-2.689V57.268h5.378v10.756a2.689 2.689 0 0 1-2.689 2.689zM38.89 57.268v10.756a2.689 2.689 0 0 1-5.378 0V57.268zm10.756 0v10.756a2.689 2.689 0 0 1-5.378 0V57.268zm10.756 0v10.756a2.689 2.689 0 1 1-5.378 0V57.268zm10.756 0v10.756a2.689 2.689 0 0 1-5.378 0V57.268zm10.756 0v10.756a2.689 2.689 0 0 1-5.378 0V57.268zm10.756 0v10.756a2.689 2.689 0 0 1-5.378 0V57.268zm-48.4 37.646V75.607a7.852 7.852 0 0 0 8.067-1.613 8.067 8.067 0 0 0 10.756 0 8.067 8.067 0 0 0 10.756 0 7.879 7.879 0 0 0 8.067 1.613v19.307zM33.512 75.607a7.717 7.717 0 0 0 5.378 0v19.307h-5.378zm-5.378 40.819v-16.134h69.914v16.134zm59.158-21.512V75.607a7.717 7.717 0 0 0 5.378 0v19.307zm16.134-26.89a2.689 2.689 0 1 1-5.378 0V57.268h5.378zM34.265 30.378h57.652a8.067 8.067 0 0 1 7.906 6.48l3.012 15.032H23.348l3.012-15.032a8.067 8.067 0 0 1 7.905-6.48z" class="cls-4" transform="translate(-12 -25)"/>
                </g>
            </g>
        </g>
        <g id="_039---Market-Investment-2" transform="translate(214.228 792.172)">
            <g id="Layer_9-2" transform="translate(19.067 26.689)">
                <path id="Shape-12" d="M86.048 50.89H0l4.035-18.231C5.139 27.628 10.008 24 15.667 24h54.714c5.659 0 10.528 3.628 11.631 8.659z" class="cls-2" transform="translate(0 -24)"/>
                <path id="Shape-13" d="M14.756 39v29.579H4V39a5.378 5.378 0 0 0 10.756 0z" class="cls-2" transform="translate(6.756 1.335)"/>
                <path id="Shape-14" d="M34.756 39v29.579H24V39a5.378 5.378 0 0 0 10.756 0z" class="cls-2" transform="translate(40.536 1.335)"/>
                <path id="Shape-15" d="M77.292 52.689v18.823H2V52.689A2.689 2.689 0 0 1 4.689 50H74.6a2.689 2.689 0 0 1 2.692 2.689z" class="cls-3" transform="translate(3.378 19.914)"/>
                <g id="Grupo_11962-2" transform="translate(0 26.89)">
                    <path id="Shape-16" d="M78.18 52.689v18.823H2V52.689A2.885 2.885 0 0 1 5.047 50h70.086a2.885 2.885 0 0 1 3.047 2.689z" class="cls-2" transform="translate(3.378 -6.976)"/>
                    <path id="Shape-17" d="M0 34v13.445a5.378 5.378 0 0 0 10.756 0 5.378 5.378 0 0 0 10.756 0 5.378 5.378 0 0 0 10.756 0 5.378 5.378 0 1 0 10.756 0 5.378 5.378 0 0 0 10.756 0 5.378 5.378 0 0 0 10.756 0 5.378 5.378 0 0 0 10.756 0 5.378 5.378 0 1 0 10.756 0V34z" class="cls-2" transform="translate(0 -34)"/>
                    <path id="Shape-18" d="M10.756 34v13.445a5.378 5.378 0 0 1-10.756 0V34z" class="cls-2" transform="translate(0 -34)"/>
                    <path id="Shape-19" d="M18.756 34v13.445a5.378 5.378 0 0 1-10.756 0V34z" class="cls-2" transform="translate(13.512 -34)"/>
                    <path id="Shape-20" d="M26.756 34v13.445a5.378 5.378 0 0 1-10.756 0V34z" class="cls-2" transform="translate(27.024 -34)"/>
                    <path id="Shape-21" d="M34.756 34v13.445a5.378 5.378 0 0 1-10.756 0V34z" class="cls-2" transform="translate(40.536 -34)"/>
                </g>
            </g>
            <g id="Layer_11-2" transform="translate(11 24)">
                <g id="Grupo_11963-2">
                    <path id="Shape-22" d="M21.089 35.756c-4.222 21.055-3.576 17.8-3.657 18.473s-.054-2.339-.054 13.795a8.067 8.067 0 0 0 10.756 7.583v19.307a5.378 5.378 0 0 0-5.378 5.378v16.134h-8.067a2.689 2.689 0 0 0 0 5.378h96.8a2.689 2.689 0 0 0 0-5.378h-8.067v-16.134a5.378 5.378 0 0 0-5.378-5.378V75.607a8.067 8.067 0 0 0 10.756-7.583c0-17.505.753-10-3.711-32.268A13.445 13.445 0 0 0 91.917 25H34.265a13.445 13.445 0 0 0-13.176 10.756zm4.356 34.957a2.689 2.689 0 0 1-2.689-2.689V57.268h5.378v10.756a2.689 2.689 0 0 1-2.689 2.689zM38.89 57.268v10.756a2.689 2.689 0 0 1-5.378 0V57.268zm10.756 0v10.756a2.689 2.689 0 0 1-5.378 0V57.268zm10.756 0v10.756a2.689 2.689 0 1 1-5.378 0V57.268zm10.756 0v10.756a2.689 2.689 0 0 1-5.378 0V57.268zm10.756 0v10.756a2.689 2.689 0 0 1-5.378 0V57.268zm10.756 0v10.756a2.689 2.689 0 0 1-5.378 0V57.268zm-48.4 37.646V75.607a7.852 7.852 0 0 0 8.067-1.613 8.067 8.067 0 0 0 10.756 0 8.067 8.067 0 0 0 10.756 0 7.879 7.879 0 0 0 8.067 1.613v19.307zM33.512 75.607a7.717 7.717 0 0 0 5.378 0v19.307h-5.378zm-5.378 40.819v-16.134h69.914v16.134zm59.158-21.512V75.607a7.717 7.717 0 0 0 5.378 0v19.307zm16.134-26.89a2.689 2.689 0 1 1-5.378 0V57.268h5.378zM34.265 30.378h57.652a8.067 8.067 0 0 1 7.906 6.48l3.012 15.032H23.348l3.012-15.032a8.067 8.067 0 0 1 7.905-6.48z" class="cls-4" transform="translate(-12 -25)"/>
                </g>
            </g>
        </g>
        <g id="_039---Market-Investment-3" transform="translate(133.228 781.405)">
            <g id="Layer_9-3" transform="translate(19.964 26.988)">
                <path id="Shape-23" d="M95.619 53.881H0l4.484-20.259C5.71 28.032 11.121 24 17.409 24h60.8c6.289 0 11.7 4.032 12.925 9.622z" class="cls-2" transform="translate(0 -24)"/>
                <path id="Shape-24" d="M15.952 39v32.869H4V39a5.976 5.976 0 0 0 11.952 0z" class="cls-2" transform="translate(7.952 5.821)"/>
                <path id="Shape-25" d="M35.952 39v32.869H24V39a5.976 5.976 0 0 0 11.952 0z" class="cls-2" transform="translate(47.714 5.821)"/>
                <path id="Shape-26" d="M85.667 52.988V73.9H2V52.988A2.988 2.988 0 0 1 4.988 50h77.69a2.988 2.988 0 0 1 2.989 2.988z" class="cls-3" transform="translate(3.976 27.69)"/>
                <g id="Grupo_11962-3" transform="translate(0 29.881)">
                    <path id="Shape-27" d="M86.654 52.988V73.9H2V52.988A3.206 3.206 0 0 1 5.386 50h77.881a3.206 3.206 0 0 1 3.387 2.988z" class="cls-2" transform="translate(3.976 -2.191)"/>
                    <path id="Shape-28" d="M0 34v14.94a5.976 5.976 0 0 0 11.952 0 5.976 5.976 0 0 0 11.952 0 5.976 5.976 0 0 0 11.952 0 5.976 5.976 0 0 0 11.952 0 5.976 5.976 0 0 0 11.952 0 5.976 5.976 0 0 0 11.952 0 5.976 5.976 0 0 0 11.952 0 5.976 5.976 0 1 0 11.952 0V34z" class="cls-2" transform="translate(0 -34)"/>
                    <path id="Shape-29" d="M11.952 34v14.94A5.976 5.976 0 0 1 0 48.94V34z" class="cls-2" transform="translate(0 -34)"/>
                    <path id="Shape-30" d="M19.952 34v14.94A5.976 5.976 0 0 1 8 48.94V34z" class="cls-2" transform="translate(15.905 -34)"/>
                    <path id="Shape-31" d="M27.952 34v14.94a5.976 5.976 0 0 1-11.952 0V34z" class="cls-2" transform="translate(31.809 -34)"/>
                    <path id="Shape-32" d="M35.952 34v14.94a5.976 5.976 0 0 1-11.952 0V34z" class="cls-2" transform="translate(47.714 -34)"/>
                </g>
            </g>
            <g id="Layer_11-3" transform="translate(11 24)">
                <g id="Grupo_11963-3">
                    <path id="Shape-33" fill="#006dff" d="M22.1 36.952c-4.691 23.4-3.974 19.781-4.064 20.528s-.06-2.6-.06 15.329a8.964 8.964 0 0 0 11.952 8.426v21.455a5.976 5.976 0 0 0-5.976 5.976V126.6h-8.964a2.988 2.988 0 1 0 0 5.976h107.571a2.988 2.988 0 0 0 0-5.976H113.6v-17.933a5.976 5.976 0 0 0-5.976-5.976V81.236a8.964 8.964 0 0 0 11.952-8.426c0-19.452.837-11.116-4.124-35.857A14.94 14.94 0 0 0 100.806 25H36.741A14.94 14.94 0 0 0 22.1 36.952zM26.94 75.8a2.988 2.988 0 0 1-2.988-2.988V60.857h5.976v11.952A2.988 2.988 0 0 1 26.94 75.8zm14.94-14.94v11.949a2.988 2.988 0 0 1-5.976 0V60.857zm11.952 0v11.949a2.988 2.988 0 1 1-5.976 0V60.857zm11.952 0v11.949a2.988 2.988 0 1 1-5.976 0V60.857zm11.952 0v11.949a2.988 2.988 0 0 1-5.976 0V60.857zm11.952 0v11.949a2.988 2.988 0 0 1-5.976 0V60.857zm11.952 0v11.949a2.988 2.988 0 0 1-5.976 0V60.857zm-53.783 41.83V81.236a8.725 8.725 0 0 0 8.964-1.793 8.964 8.964 0 0 0 11.952 0 8.964 8.964 0 0 0 11.952 0 8.755 8.755 0 0 0 8.964 1.793v21.454zM35.9 81.236a8.576 8.576 0 0 0 5.976 0v21.454H35.9zM29.929 126.6v-17.933h77.69V126.6zm65.738-23.9V81.236a8.576 8.576 0 0 0 5.976 0v21.454zM113.6 72.809a2.988 2.988 0 1 1-5.976 0V60.857h5.976zM36.741 30.976h64.065a8.964 8.964 0 0 1 8.785 7.2l3.347 16.7H24.61l3.347-16.7a8.964 8.964 0 0 1 8.784-7.2z" transform="translate(-12 -25)"/>
                </g>
            </g>
        </g>
    </g>
</svg>
