<svg xmlns="http://www.w3.org/2000/svg" width="400.074" height="156.32" viewBox="0 0 400.074 156.32">
    <defs>
        <clipPath id="clip-path">
            <path id="Rectángulo_2714" d="M0 0H120.919V78.655H0z" class="cls-1"/>
        </clipPath>
        <filter id="Unión_186" width="140.636" height="127.21" x="120.557" y="17.997" filterUnits="userSpaceOnUse">
            <feOffset dy="5"/>
            <feGaussianBlur result="blur" stdDeviation="2"/>
            <feFlood flood-color="#006dff" flood-opacity=".102"/>
            <feComposite in2="blur" operator="in"/>
            <feComposite in="SourceGraphic"/>
        </filter>
        <style>
            .cls-1{fill:#accffd}.cls-8{fill:#accfff}
        </style>
    </defs>
    <g id="Grupo_11905" transform="translate(0 -776.082)">
        <path id="Rectángulo_2707" fill="#e5f0ff" d="M0 0H400.074V156.32H0z" transform="translate(0 776.082)"/>
        <g id="Grupo_11683" transform="translate(15.108 795.379)">
            <path id="Trazado_11414" fill="none" stroke="#006dff" stroke-dasharray="6 5" stroke-linecap="round" stroke-width="3px" d="M225.841.092H7.651" transform="translate(63.547 57.408)"/>
            <g id="Componente_15_14" transform="translate(0 22)">
                <path id="ic_check_circle_24px" fill="#006dff" d="M37.6 2a35.6 35.6 0 1 0 35.6 35.6A35.612 35.612 0 0 0 37.6 2z" transform="translate(-2 -2)"/>
                <path id="Icon_awesome-qrcode" fill="#fff" d="M0 18.6h16.346V2.25H0zM5.449 7.7H10.9v5.449H5.449zM21.8 2.25V18.6h16.342V2.25zm10.9 10.9h-5.456V7.7h5.449zM0 40.392h16.346V24.045H0zm5.449-10.9H10.9v5.449H5.449zm29.969-5.449h2.724v10.9h-8.173v-2.724h-2.725v8.173H21.8V24.045h8.173v2.725h5.449zm0 13.622h2.724v2.724h-2.725zm-5.449 0h2.724v2.724h-2.724z" transform="translate(16.371 14.281)"/>
            </g>
            <g id="Grupo_11623" transform="translate(249.941 22.835)">
                <g id="Grupo_11544" clip-path="url(#clip-path)">
                    <path id="Trazado_11353" d="M23.011 94.232a3.611 3.611 0 0 1 3.589-4.143c4.086-.167 8.179-.173 12.27-.244.446-.008.893 0 .861.321-.81-1.046-1.594-2.113-2.434-3.135-1.616-1.965-1.113-4.252-1.016-6.47.192-4.379.424-8.756.63-13.135a3.9 3.9 0 0 1 2.806-3.844 4.392 4.392 0 0 1 5.053 1.154c1.917 2.306 3.744 4.687 5.685 6.972a2.892 2.892 0 0 0 1.694.887c1.873.245 3.765.368 5.652.474 1.392.078 1.814.944 1.831 2.122s-.4 2.087-1.752 2.222c-2.616.261-5.23.541-7.847.782a3.36 3.36 0 0 1-2.981-1.45c-.552-.674-1.079-1.368-1.887-2.4-.2 2.975-.373 5.583-.552 8.266 1.94.392 3.773.769 5.608 1.132 1.936.383 3.888.7 5.809 1.143a4.2 4.2 0 0 1 3.36 4.262c-.154 4.471-.049 8.951-.055 13.428 0 1.92-.7 2.792-2.246 2.825-1.708.038-2.556-.851-2.709-2.754-.27-3.356-.542-6.713-.891-10.062a1.47 1.47 0 0 0-.884-1.054c-2.864-.451-5.746-.795-8.864-1.2 1.66 1.729 1.717 3.731 1.716 5.749v11.467c.5.034.938.088 1.378.089 4.246.006 8.492-.037 12.736.032 1.114.018 1.476-.4 1.736-1.408q3.091-11.912 6.288-23.8c.547-2.042-.748-3.607-1.286-5.365-.065-.212-.62-.31-.965-.4-1.512-.374-3.03-.724-4.656-1.109l.486-2.241c4.908.437 10.261-.587 13.065 5.314a7.337 7.337 0 0 1 6.145-2.987v11.44l-4.17-1.039c.815 2.1 1.456 3.948 2.273 5.713.175.379.974.623 1.5.656a14.218 14.218 0 0 1 6.467 1.8 10.677 10.677 0 0 1 4.845 6.034c-.612.03-1.09.074-1.567.075-5.4 0-10.8.035-16.2-.025a1.515 1.515 0 0 0-1.73 1.282c-1.069 3.383-2.24 6.735-3.325 10.114a1.279 1.279 0 0 1-1.443 1.064q-24.3-.042-48.593-.025a3.407 3.407 0 0 1-3.687-3.057 12.787 12.787 0 0 1 4.065-12.793 28 28 0 0 1 4.187-2.683" class="cls-1" transform="translate(27.523 -45.733)"/>
                    <path id="Trazado_11354" fill="#026dfa" d="M22.8 108.567H0V91.484h9.145v5.529H13.6v-5.55h9.2z" transform="translate(37.934 -66.13)"/>
                    <path id="Trazado_11355" d="M239.731 212.545a11.471 11.471 0 1 1-11.344-11.39 11.5 11.5 0 0 1 11.344 11.39m-11.279 5.4a5.366 5.366 0 0 0 5.137-5.437 5.2 5.2 0 1 0-5.137 5.437" class="cls-1" transform="translate(-118.812 -145.441)"/>
                    <path id="Trazado_11356" d="M114.746 8.027a11.112 11.112 0 0 1-3.287 7.191c-1.875 1.936-3.683 2.23-6.148 1.119a9.651 9.651 0 0 1-5.343-10.878A6.581 6.581 0 0 1 105.619.14c4.908-.888 9.171 2.5 9.126 7.887" class="cls-1" transform="translate(-34.165 .001)"/>
                    <path id="Trazado_11357" d="M31.892 252.3c1.941 0 3.786-.035 5.628.028a1.884 1.884 0 0 1 1.124.6c2.5 2.6 5.717 2.625 8.308.109a2.757 2.757 0 0 1 1.637-.71c1.692-.092 3.392-.033 5.088-.033-.087 4.154-5.106 8.427-10.115 8.741-5.491.344-10.883-3.618-11.67-8.74" class="cls-1" transform="translate(14.875 -182.407)"/>
                    <rect id="Rectángulo_2715" width="14.504" height="3.641" class="cls-8" rx="1.821" transform="translate(25.001 46.869)"/>
                    <rect id="Rectángulo_2716" width="23.43" height="3.641" class="cls-8" rx="1.821" transform="translate(13.426 55.795)"/>
                    <rect id="Rectángulo_2717" width="17.851" height="3.641" class="cls-8" rx="1.821" transform="translate(21.654 64.72)"/>
                </g>
            </g>
            <g id="Grupo_11691" transform="translate(111.749)">
                <g filter="url(#Unión_186)" transform="translate(-126.86 -19.3)">
                    <g id="Unión_186-2" fill="#fff" stroke="none">
                        <path d="M126.036 114.76H2c-1.186 0-2.15-.964-2.15-2.15V2C-.15.814.814-.15 2-.15h124.036c1.185 0 2.15.964 2.15 2.15v110.61c0 1.186-.965 2.15-2.15 2.15z" transform="translate(126.86 19.3)"/>
                        <path fill="#98c4ff" d="M2 0C.895 0 0 .895 0 2v110.61c0 1.105.895 2 2 2h124.036c1.104 0 2-.895 2-2V2c0-1.105-.896-2-2-2H2m0-.3h124.036c1.268 0 2.3 1.032 2.3 2.3v110.61c0 1.269-1.032 2.3-2.3 2.3H2c-1.268 0-2.3-1.031-2.3-2.3V2C-.3.732.732-.3 2-.3z" transform="translate(126.86 19.3)"/>
                    </g>
                </g>
                <rect id="Rectángulo_2655" width="105.98" height="7.948" class="cls-8" rx="2" transform="translate(10.917 25.428)"/>
                <rect id="Rectángulo_2797" width="105.98" height="7.948" class="cls-8" rx="2" transform="translate(10.917 9.531)"/>
                <text id="_-50_" fill="#accfff" font-family="OpenSans-Bold, Open Sans" font-size="17px" font-weight="700" letter-spacing="0.1em" transform="translate(10.917 59.325)">
                    <tspan x="0" y="0">-50%</tspan>
                </text>
                <rect id="Main_Base_Image" width="105.266" height="28.445" fill="rgba(206,227,255,0.32)" stroke="#006dff" rx="2" transform="rotate(180 58.578 50.063)"/>
                <text id="PAGAR_AHORA" fill="#006dff" font-family="OpenSans-Bold, Open Sans" font-size="9px" font-weight="700" letter-spacing="0.1em" transform="translate(26.786 89.628)">
                    <tspan x="0" y="0">PAGAR AHORA</tspan>
                </text>
            </g>
        </g>
    </g>
</svg>
