<svg xmlns="http://www.w3.org/2000/svg" width="400.074" height="156.32" viewBox="0 0 400.074 156.32">
    <defs>
        <style>
            .cls-2{fill:#accffd}.cls-3{fill:#006dff}.cls-4{fill:#fefefe}
        </style>
    </defs>
    <g id="Grupo_11905" transform="translate(0 -776.082)">
        <path id="Rectángulo_2707" fill="#e5f0ff" d="M0 0H400.074V156.32H0z" transform="translate(0 776.082)"/>
        <g id="Page-1" transform="translate(33.2 594.353)">
            <g id="Grupo_11961" transform="translate(20.8 206.8)">
                <g id="Grupo_11958" transform="translate(191.525 56.845)">
                    <path id="Trazado_11481" d="M422.531 338.362l2.915.875a4.946 4.946 0 0 1-.923 2.041 3.779 3.779 0 0 1-1.555 1.215 5.632 5.632 0 0 1-2.381.437 7.065 7.065 0 0 1-2.867-.486 4.44 4.44 0 0 1-1.895-1.8 5.984 5.984 0 0 1-.825-3.254 5.7 5.7 0 0 1 1.409-4.081 5.261 5.261 0 0 1 3.984-1.409 5.42 5.42 0 0 1 3.158.826 4.436 4.436 0 0 1 1.7 2.526l-2.915.632a1.7 1.7 0 0 0-.34-.729 1.98 1.98 0 0 0-.68-.583 1.906 1.906 0 0 0-.875-.194 1.874 1.874 0 0 0-1.7.923 3.937 3.937 0 0 0-.437 2.089 4.161 4.161 0 0 0 .534 2.429 1.851 1.851 0 0 0 1.506.68 1.793 1.793 0 0 0 1.409-.534 3.315 3.315 0 0 0 .778-1.603z" class="cls-2" transform="translate(-415 -331.851)"/>
                    <path id="Trazado_11482" d="M438.9 337.339a5.062 5.062 0 0 1 5.539-5.539 5.744 5.744 0 0 1 4.13 1.409 5.4 5.4 0 0 1 1.458 4.033 6.232 6.232 0 0 1-.632 3.061 4.506 4.506 0 0 1-1.846 1.846 6.075 6.075 0 0 1-2.964.68 6.937 6.937 0 0 1-3.012-.583 4.7 4.7 0 0 1-1.943-1.846 5.506 5.506 0 0 1-.73-3.061zm3.3 0a3.736 3.736 0 0 0 .583 2.332 1.973 1.973 0 0 0 1.652.729 2.086 2.086 0 0 0 1.652-.68 4.034 4.034 0 0 0 .583-2.478 3.018 3.018 0 0 0-.632-2.186 2 2 0 0 0-1.652-.68 1.941 1.941 0 0 0-1.6.729 3.248 3.248 0 0 0-.586 2.234z" class="cls-2" transform="translate(-427.288 -331.8)"/>
                    <path id="Trazado_11483" d="M465.2 332.2h4.324l1.652 6.51 1.652-6.51h4.324v10.689h-2.721v-8.162l-2.089 8.162h-2.432l-2.089-8.162v8.162H465.1V332.2z" class="cls-2" transform="translate(-440.758 -332.006)"/>
                    <path id="Trazado_11484" d="M494.3 332.2h5.49a3.611 3.611 0 0 1 2.672.875 3.233 3.233 0 0 1 .875 2.429 3.329 3.329 0 0 1-.972 2.526 4.093 4.093 0 0 1-2.964.923h-1.8v3.984h-3.3zm3.3 4.567h.826a2.079 2.079 0 0 0 1.36-.34 1.113 1.113 0 0 0 .389-.826 1.171 1.171 0 0 0-.34-.875 1.712 1.712 0 0 0-1.263-.34h-.923v2.381z" class="cls-2" transform="translate(-455.771 -332.006)"/>
                    <path id="Trazado_11485" d="M516.5 332.2h3.3v8.065h5.15v2.624h-8.45V332.2z" class="cls-2" transform="translate(-467.185 -332.006)"/>
                    <path id="Trazado_11486" d="M537.3 332.2h3.3v10.689h-3.3z" class="cls-2" transform="translate(-477.88 -332.006)"/>
                    <path id="Trazado_11487" d="M554.428 341.04h-3.741l-.534 1.749H546.8l4.033-10.689h3.6l4.033 10.689h-3.45zm-.68-2.284l-1.166-3.838-1.166 3.838z" class="cls-2" transform="translate(-482.764 -331.954)"/>
                    <path id="Trazado_11488" d="M572.9 332.2h3.061l4.033 5.927V332.2h3.106v10.689h-3.109l-3.984-5.879v5.879H572.9V332.2z" class="cls-2" transform="translate(-496.183 -332.006)"/>
                    <path id="Trazado_11489" d="M596.9 332.2h10.057v2.624H603.6v8.065h-3.3v-8.065h-3.352V332.2z" class="cls-2" transform="translate(-508.522 -332.006)"/>
                </g>
                <g id="Rectangle-3-_x2B_-Letters">
                    <path id="Rectangle-3" d="M180.113 279.616l9.571-3.012-3.109-6.9a79.062 79.062 0 0 0-6.462 9.912zm-3.255-31.532L158.1 206.3l-137.3 7.774 38.043 103.779 73.219-23.078c-4.664-6.7-6.365-14.673-.972-18.56 6.025-4.373 15.11.68 20.892 7.822 5.587-9.328 21.28-31.046 24.876-35.953z" class="cls-3" transform="translate(-20.8 -206.3)"/>
                    <g id="Letters" transform="translate(26.234 10.567)">
                        <path id="Oval-1" d="M181.6 206.329c5.733 0 10.4-4.373 10.4-9.814s-4.664-9.814-10.4-9.814-10.4 4.373-10.4 9.814c0 5.392 4.664 9.814 10.4 9.814zm-8.5 4.227h17v44.456h-17.005z" class="cls-4" transform="translate(-74.806 -186.7)"/>
                        <path id="Path-3" d="M112.658 247.879c.146.049.243 0 .243-.146v-11.272a.5.5 0 0 0-.243-.389s-2.235-1.458-9.037-1.846a47.209 47.209 0 0 0-7.919 0c-24.779 1.992-25.7 19.92-25.7 20.7v4.374c0 .534 0 18.851 25.7 20.455 2.526.194 7.434 0 7.919 0a27.088 27.088 0 0 0 10.009-1.8.365.365 0 0 0 .243-.34V267.07c0-.146-.1-.194-.194-.1 0 0-1.846 1.458-9.911 2.284a14.381 14.381 0 0 1-4.227 0c-11.466-1.943-12-10.3-12-10.3 0-.146-.049-.389-.049-.486v-3.207a1.5 1.5 0 0 1 .049-.486s.777-8.988 12-9.96h4.227a25.322 25.322 0 0 1 8.89 3.064z" class="cls-4" transform="translate(-22.775 -211.051)"/>
                        <path id="Path-1" d="M-27.2 280.086a.23.23 0 0 0 .243.243h16.568a.23.23 0 0 0 .243-.243v-12.923a.23.23 0 0 1 .243-.243s26.479 1.895 26.479-15.839c0-14.041-16.616-15.547-22.058-15.3h-21.475a.23.23 0 0 0-.243.243zm16.762-23.03v-11.611h4.081s5.879.243 6.365 4.276a9.721 9.721 0 0 1 0 2.381c-.777 4.713-5.879 4.956-5.879 4.956z" class="cls-4" transform="translate(27.2 -211.921)"/>
                    </g>
                    <path id="Path-7" d="M272.772 337.935a8.744 8.744 0 0 0 4.178-.777c6.025-3.158 26.382-52.861 47.857-68.166a1.478 1.478 0 0 0 .389-.389.711.711 0 0 0 .146-.389s0-1.02-3.158-1.02c-19.094-.534-38.966 39.549-49.412 55.388-.146.194-.826 0-.826 0s-7-8.26-13.07-11.418a4.161 4.161 0 0 0-1.555-.243 8.813 8.813 0 0 0-4.616 1.943c-1.555 1.652-1.506 2.575-1.506 4.567a3.36 3.36 0 0 0 .292 1.166 99.9 99.9 0 0 0 13.847 17.1c.826.635 2.138 2.238 7.434 2.238z" class="cls-3" transform="translate(-139.258 -237.606)"/>
                </g>
                <g id="Grupo_11959" transform="translate(191.185 15.742)">
                    <path id="Trazado_11490" d="M414.3 248.5h15.888a19.22 19.22 0 0 1 7.579 1.263 12.369 12.369 0 0 1 4.761 3.644 14.779 14.779 0 0 1 2.721 5.539 24.849 24.849 0 0 1 .875 6.7 23.618 23.618 0 0 1-1.263 8.6 14.249 14.249 0 0 1-3.5 5.15 12.157 12.157 0 0 1-4.81 2.769 24.534 24.534 0 0 1-6.365.923H414.3V248.5zm10.689 7.822v18.9h2.624a11.118 11.118 0 0 0 4.761-.729 5.149 5.149 0 0 0 2.235-2.575 16.244 16.244 0 0 0 .826-6.025c0-3.693-.583-6.17-1.8-7.531s-3.158-2.041-5.976-2.041z" class="cls-2" transform="translate(-414.3 -247.868)"/>
                    <path id="Trazado_11491" d="M485.9 271.007l10.2-.632a8.05 8.05 0 0 0 1.36 3.79 5.633 5.633 0 0 0 4.713 2.089 5.246 5.246 0 0 0 3.547-1.069 3.087 3.087 0 0 0 .1-4.907c-.777-.729-2.624-1.36-5.49-1.992-4.713-1.069-8.017-2.478-10.057-4.227a8.394 8.394 0 0 1-3.012-6.7 9.216 9.216 0 0 1 1.555-5.053 10.136 10.136 0 0 1 4.664-3.741 21.429 21.429 0 0 1 8.5-1.36c4.421 0 7.822.826 10.106 2.478 2.332 1.652 3.693 4.276 4.13 7.871l-10.106.583a5.532 5.532 0 0 0-1.7-3.4 5.332 5.332 0 0 0-3.547-1.069 4.242 4.242 0 0 0-2.818.777 2.413 2.413 0 0 0-.923 1.943 1.933 1.933 0 0 0 .777 1.506 8.918 8.918 0 0 0 3.6 1.263 46.834 46.834 0 0 1 10.057 3.061 10.554 10.554 0 0 1 4.421 3.838 9.718 9.718 0 0 1 1.36 5.15 10.927 10.927 0 0 1-1.846 6.122 11.467 11.467 0 0 1-5.15 4.276 20.785 20.785 0 0 1-8.357 1.458c-5.879 0-9.96-1.117-12.244-3.4a13.822 13.822 0 0 1-3.84-8.655z" class="cls-2" transform="translate(-451.113 -247.2)"/>
                </g>
                <g id="Grupo_11960" transform="translate(260.128 15.742)">
                    <path id="Trazado_11492" d="M556.2 271.007l10.2-.632a8.05 8.05 0 0 0 1.36 3.79 5.633 5.633 0 0 0 4.713 2.089 5.246 5.246 0 0 0 3.547-1.069 3.087 3.087 0 0 0 .1-4.907c-.777-.729-2.624-1.36-5.49-1.992-4.713-1.069-8.017-2.478-10.057-4.227a8.545 8.545 0 0 1-3.012-6.7 9.216 9.216 0 0 1 1.555-5.053 10.136 10.136 0 0 1 4.664-3.741 21.428 21.428 0 0 1 8.5-1.36c4.421 0 7.822.826 10.106 2.478 2.332 1.652 3.693 4.276 4.13 7.871l-10.106.583a5.532 5.532 0 0 0-1.7-3.4 5.331 5.331 0 0 0-3.547-1.069 4.242 4.242 0 0 0-2.818.777 2.413 2.413 0 0 0-.923 1.943 1.933 1.933 0 0 0 .777 1.506 8.917 8.917 0 0 0 3.6 1.263 46.833 46.833 0 0 1 10.057 3.061 10.555 10.555 0 0 1 4.421 3.838 9.719 9.719 0 0 1 1.36 5.15 10.927 10.927 0 0 1-1.846 6.122 11.467 11.467 0 0 1-5.15 4.276 20.785 20.785 0 0 1-8.357 1.458c-5.879 0-9.96-1.117-12.244-3.4a13.326 13.326 0 0 1-3.84-8.655z" class="cls-2" transform="translate(-556.2 -247.2)"/>
                </g>
            </g>
        </g>
    </g>
</svg>
