<svg xmlns="http://www.w3.org/2000/svg" width="400.074" height="156.32" viewBox="0 0 400.074 156.32">
    <defs>
        <filter id="Trazado_11331" width="66.727" height="58.208" x="199.023" y="68.44" filterUnits="userSpaceOnUse">
            <feOffset dy="-1"/>
            <feGaussianBlur result="blur" stdDeviation=".5"/>
            <feFlood flood-color="#0043a0" flood-opacity=".161"/>
            <feComposite in2="blur" operator="in"/>
            <feComposite in="SourceGraphic"/>
        </filter>
        <style>
            .cls-5{fill:#fff}.cls-3{fill:#accfff}.cls-5{stroke:#fff;stroke-linecap:round;stroke-linejoin:round;stroke-width:6px}
        </style>
    </defs>
    <g id="Grupo_11791" transform="translate(0 -776.082)">
        <path id="Rectángulo_2707" fill="#e5f0ff" d="M0 0H400.074V156.32H0z" transform="translate(0 776.082)"/>
        <g id="Grupo_11797" transform="translate(136.175 796.96)">
            <g id="Grupo_11433">
                <circle id="Elipse_568" cx="48.427" cy="48.427" r="48.427" fill="#fff" transform="translate(1.584 1.692)"/>
                <g id="Grupo_11432">
                    <path id="Trazado_11323" d="M44.036 0h12.01a6.218 6.218 0 0 0 1.48.619C85.349 4.452 104.85 32.09 99.235 59.757 94.866 81.286 77.7 97.192 55.02 99.809A49.223 49.223 0 0 1 4.81 71.392C2.658 66.754 1.575 61.619 0 56.713V43.369a7.506 7.506 0 0 0 .617-1.5C3.748 24.488 13.381 12 29.326 4.62 33.95 2.478 39.118 1.507 44.036 0M7.924 49.776c.031 23.7 18.629 42.436 42.114 42.423A42.167 42.167 0 1 0 7.924 49.776" class="cls-3"/>
                    <path id="Trazado_11325" d="M68.568 50.085V39.104c0-2.587 1.126-4.382 3.845-4.43 2.91-.052 4.069 1.806 4.068 4.544 0 6.1-.093 12.2.081 18.3A5.255 5.255 0 0 0 78.3 61c3.6 2.946 7.38 5.671 11.13 8.428 2.237 1.646 3.388 3.6 1.739 6.218-1.357 2.152-3.642 2.242-6.375.243-4.653-3.4-9.361-6.753-13.764-10.46a8.2 8.2 0 0 1-2.357-5.039 96.474 96.474 0 0 1-.105-10.3" class="cls-3" transform="translate(-22.484 -11.384)"/>
                </g>
            </g>
            <g id="Icon_feather-alert-triangle" transform="translate(64.348 50.062)">
                <g filter="url(#Trazado_11331)" transform="translate(-200.52 -70.94)">
                    <path id="Trazado_11331-2" fill="#006dff" d="M28.976 7.282L3.145 50.4a6.1 6.1 0 0 0 5.215 9.154h51.662a6.1 6.1 0 0 0 5.215-9.154L39.406 7.282a6.1 6.1 0 0 0-10.43 0z" transform="translate(198.2 66.59)"/>
                </g>
                <path id="Trazado_11332" d="M18 13.5v16.252" class="cls-5" transform="translate(13.863 3.524)"/>
            </g>
        </g>
    </g>
</svg>
