<svg xmlns="http://www.w3.org/2000/svg" width="400.074" height="156.32" viewBox="0 0 400.074 156.32">
    <defs>
        <style>
            .cls-2{fill:#fff}
        </style>
    </defs>
    <g id="Grupo_11791" transform="translate(0 -776.082)">
        <path id="Rectángulo_2707" fill="#e5f0ff" d="M0 0H400.074V156.32H0z" transform="translate(0 776.082)"/>
        <g id="Grupo_11964" transform="translate(-42.894 -1.412)">
            <path id="Trazado_11493" d="M75.32 36.021l-9.427-9.428a9.885 9.885 0 0 0 4.016-2.43l.24-.24c4.154-4.154 3.821-11.247-.743-15.811A12.272 12.272 0 0 0 61.5 4.471a10.126 10.126 0 0 0-7.9 2.9l-.24.24a9.878 9.878 0 0 0-2.431 4.018L41.5 2.2a6.885 6.885 0 0 0-9.7-.374l-8.55 8.543a4.421 4.421 0 0 0-1.163 4.065A4.9 4.9 0 0 0 25.129 18a7.634 7.634 0 0 1 2.654 1.743c.83.83 5.759 8.715 2.721 10.154-2.192 1.041-10.75.326-10.931-.143-.6-1.561-3.518-7.315-5.149-7.66a4.422 4.422 0 0 0-4.065 1.163l-8.535 8.537A6.884 6.884 0 0 0 2.2 41.5l9.428 9.428a9.885 9.885 0 0 0-4.018 2.431l-.24.24c-4.154 4.154-3.821 11.247.743 15.811a12.217 12.217 0 0 0 8.587 3.65 10.106 10.106 0 0 0 7.223-2.91l.24-.24a9.88 9.88 0 0 0 2.431-4.018l9.428 9.428a7.411 7.411 0 0 0 4.78 2.192q.2.012.407.012a6.372 6.372 0 0 0 4.517-1.831l8.127-8.127a12.586 12.586 0 0 0 2.764 4.126l.271.271c4.564 4.563 11.656 4.9 15.811.743s3.819-11.246-.745-15.806l-.271-.271a12.576 12.576 0 0 0-4.126-2.764l8.137-8.137c1.268-1.272.932-8.401-.374-9.707zm-64.2 20.845z" class="cls-2" transform="rotate(14.98 -3043.258 1113.652)"/>
            <path id="Trazado_11496" fill="#006dff" d="M75.32 36.021l-9.427-9.428a9.885 9.885 0 0 0 4.016-2.43l.24-.24c4.154-4.154 3.821-11.247-.743-15.811A12.272 12.272 0 0 0 61.5 4.471a10.126 10.126 0 0 0-7.9 2.9l-.24.24a9.878 9.878 0 0 0-2.431 4.018L41.5 2.2a6.885 6.885 0 0 0-9.7-.374l-8.55 8.543a4.421 4.421 0 0 0-1.163 4.065A4.9 4.9 0 0 0 25.129 18a7.634 7.634 0 0 1 2.654 1.743l.271.271a7.314 7.314 0 0 1 2.2 4.7 5.054 5.054 0 0 1-5.546 5.546 7.313 7.313 0 0 1-4.7-2.2l-.271-.271a7.636 7.636 0 0 1-1.743-2.654 4.9 4.9 0 0 0-3.569-3.035 4.422 4.422 0 0 0-4.065 1.163l-8.536 8.531A6.884 6.884 0 0 0 2.2 41.5l9.428 9.428a9.885 9.885 0 0 0-4.018 2.431l-.24.24c-4.154 4.154-3.821 11.247.743 15.811a12.217 12.217 0 0 0 8.587 3.65 10.106 10.106 0 0 0 7.223-2.91l.24-.24a9.88 9.88 0 0 0 2.431-4.018l9.428 9.428a7.411 7.411 0 0 0 4.78 2.192q.2.012.407.012a6.372 6.372 0 0 0 4.517-1.831l8.127-8.127a12.586 12.586 0 0 0 2.764 4.126l.271.271c4.564 4.563 11.656 4.9 15.811.743s3.819-11.246-.745-15.806l-.271-.271a12.576 12.576 0 0 0-4.126-2.764l8.137-8.137c1.268-1.272.932-8.401-.374-9.707zm-3.136 6.194l-8.544 8.544a4.421 4.421 0 0 0-1.163 4.065 4.9 4.9 0 0 0 3.043 3.568 7.629 7.629 0 0 1 2.654 1.743l.271.271c2.628 2.629 2.962 6.572.743 8.791s-6.163 1.886-8.791-.743l-.271-.271a7.635 7.635 0 0 1-1.743-2.654 4.9 4.9 0 0 0-3.568-3.043 4.421 4.421 0 0 0-4.065 1.163l-8.535 8.535a1.42 1.42 0 0 1-1.115.373 2.489 2.489 0 0 1-1.569-.747l-3.782-3.782-6.08-6.08a4.862 4.862 0 0 0-3.425-1.448 4.528 4.528 0 0 0-1.286.186 4.219 4.219 0 0 0-2.967 3.214 4.919 4.919 0 0 1-1.339 2.5l-.24.24c-2.219 2.219-6.163 1.886-8.791-.743s-2.962-6.572-.743-8.791l.24-.24a4.92 4.92 0 0 1 2.5-1.339 4.219 4.219 0 0 0 3.213-2.967 4.768 4.768 0 0 0-1.262-4.711l-9.861-9.862a2.489 2.489 0 0 1-.748-1.569 1.424 1.424 0 0 1 .374-1.118l8.127-8.127a12.586 12.586 0 0 0 2.764 4.127l.271.271c4.564 4.564 11.656 4.9 15.811.743s3.821-11.246-.743-15.811l-.271-.271a12.576 12.576 0 0 0-4.126-2.764L35.3 5.334a1.982 1.982 0 0 1 2.684.374l9.862 9.861a4.768 4.768 0 0 0 4.711 1.263 4.219 4.219 0 0 0 2.967-3.213 4.915 4.915 0 0 1 1.339-2.5l.24-.24A5.234 5.234 0 0 1 61.2 9.424a7.313 7.313 0 0 1 4.7 2.2c2.628 2.629 2.962 6.572.743 8.791l-.24.24a4.919 4.919 0 0 1-2.5 1.339 4.219 4.219 0 0 0-3.213 2.967 4.768 4.768 0 0 0 1.262 4.711l9.862 9.862a2.487 2.487 0 0 1 .747 1.569 1.424 1.424 0 0 1-.377 1.111z" transform="rotate(14.98 -3043.258 1113.652)"/>
            <path id="Trazado_11494" d="M72.107 57.039a12.667 12.667 0 0 0-4.733-3l8.32-8.32a6.4 6.4 0 0 0 1.818-4.919 7.409 7.409 0 0 0-2.192-4.78l-9.242-9.243a9.892 9.892 0 0 0 3.465-2.239l.24-.24c4.154-4.154 3.821-11.247-.743-15.811s-11.656-4.9-15.811-.743l-.24.24a9.9 9.9 0 0 0-2.239 3.466L41.5 2.2a6.884 6.884 0 0 0-9.7-.374l-8.32 8.32a12.664 12.664 0 0 0-3-4.733l-.271-.271C15.645.577 8.552.244 4.4 4.4s-3.823 11.244.74 15.808l.271.271a12.67 12.67 0 0 0 4.733 3l-8.32 8.32A6.884 6.884 0 0 0 2.2 41.5l9.87 9.863a4.77 4.77 0 0 0 4.711 1.262 4.22 4.22 0 0 0 2.967-3.213 4.915 4.915 0 0 1 1.339-2.5l.24-.24a5.235 5.235 0 0 1 4.092-1.454 7.6 7.6 0 0 1 6.9 6.9 5.233 5.233 0 0 1-1.458 4.082l-.24.24a4.92 4.92 0 0 1-2.5 1.339 4.219 4.219 0 0 0-3.213 2.967 4.768 4.768 0 0 0 1.262 4.71l9.852 9.86a7.38 7.38 0 0 0 5.2 2.2 6.316 6.316 0 0 0 4.508-1.825l8.32-8.32a12.669 12.669 0 0 0 3 4.733l.271.271c4.564 4.564 11.656 4.9 15.811.743s3.811-11.244-1.025-16.079zm-3.507 3.51z" class="cls-2" transform="rotate(14.98 -2880.047 1326.466)"/>
            <path id="Trazado_11495" fill="#accffd" d="M72.107 57.039a12.667 12.667 0 0 0-4.733-3l8.32-8.32a6.4 6.4 0 0 0 1.818-4.919 7.409 7.409 0 0 0-2.192-4.78l-9.242-9.243a9.892 9.892 0 0 0 3.465-2.239l.24-.24c4.154-4.154 3.821-11.247-.743-15.811s-11.656-4.9-15.811-.743l-.24.24a9.9 9.9 0 0 0-2.239 3.466L41.5 2.2a6.884 6.884 0 0 0-9.7-.374l-8.32 8.32a12.664 12.664 0 0 0-3-4.733l-.271-.271C15.645.577 8.552.244 4.4 4.4s-3.823 11.244.74 15.808l.271.271a12.67 12.67 0 0 0 4.733 3l-8.32 8.32A6.884 6.884 0 0 0 2.2 41.5l9.87 9.863a4.77 4.77 0 0 0 4.711 1.262 4.22 4.22 0 0 0 2.967-3.213 4.915 4.915 0 0 1 1.339-2.5l.24-.24a5.235 5.235 0 0 1 4.092-1.454 7.6 7.6 0 0 1 6.9 6.9 5.233 5.233 0 0 1-1.458 4.082l-.24.24a4.92 4.92 0 0 1-2.5 1.339 4.219 4.219 0 0 0-3.213 2.967 4.768 4.768 0 0 0 1.262 4.71l9.852 9.86a7.38 7.38 0 0 0 5.2 2.2 6.316 6.316 0 0 0 4.508-1.825l8.32-8.32a12.669 12.669 0 0 0 3 4.733l.271.271c4.564 4.564 11.656 4.9 15.811.743s3.821-11.247-.743-15.811zm-2.5 12.571c-2.219 2.219-6.163 1.886-8.791-.743l-.271-.271a7.646 7.646 0 0 1-1.874-3.022 4.951 4.951 0 0 0-3.531-3.264 4.414 4.414 0 0 0-4.191 1.134l-8.738 8.738a1.422 1.422 0 0 1-1.115.373 2.487 2.487 0 0 1-1.568-.747l-9.419-9.427a9.885 9.885 0 0 0 4.018-2.431l.24-.24a10.13 10.13 0 0 0 2.9-7.9 12.562 12.562 0 0 0-11.549-11.549 10.132 10.132 0 0 0-7.9 2.9l-.24.24a9.882 9.882 0 0 0-2.431 4.018l-9.437-9.43a2.489 2.489 0 0 1-.747-1.569 1.424 1.424 0 0 1 .372-1.12l8.738-8.738a4.415 4.415 0 0 0 1.134-4.192 4.952 4.952 0 0 0-3.264-3.531 7.652 7.652 0 0 1-3.022-1.874l-.27-.265c-2.628-2.628-2.962-6.572-.743-8.791s6.163-1.886 8.791.743l.271.271a7.65 7.65 0 0 1 1.874 3.022 4.951 4.951 0 0 0 3.531 3.264 4.415 4.415 0 0 0 4.192-1.134L35.3 5.334a1.982 1.982 0 0 1 2.684.374l9.643 9.643a4.8 4.8 0 0 0 4.578 1.3 4.231 4.231 0 0 0 3.032-2.983 4.892 4.892 0 0 1 1.263-2.173l.24-.24c2.218-2.219 6.16-1.886 8.791.745s2.962 6.572.743 8.791l-.24.24a4.887 4.887 0 0 1-2.173 1.259 4.232 4.232 0 0 0-2.983 3.032 4.8 4.8 0 0 0 1.3 4.579l9.632 9.629a2.489 2.489 0 0 1 .748 1.569 1.424 1.424 0 0 1-.374 1.115L68.2 46.2l-3.51 3.51-1.246 1.246a4.415 4.415 0 0 0-1.134 4.192 4.951 4.951 0 0 0 3.263 3.531 7.653 7.653 0 0 1 3.027 1.87l.271.271c2.629 2.628 2.959 6.572.74 8.791z" transform="rotate(14.98 -2880.047 1326.466)"/>
        </g>
    </g>
</svg>
