<?xml version="1.0" encoding="utf-8"?>
<!-- Generator: Adobe Illustrator 21.1.0, SVG Export Plug-In . SVG Version: 6.00 Build 0)  -->
<svg version="1.1" id="Layer_1" xmlns="http://www.w3.org/2000/svg" xmlns:xlink="http://www.w3.org/1999/xlink" x="0px" y="0px"
	 viewBox="0 0 104.3 81.2" style="enable-background:new 0 0 104.3 81.2;" xml:space="preserve">
<style type="text/css">
	.st0{fill:#519BFC;}
	.st1{fill:#73CFF6;}
	.st2{fill:#B5D7FC;}
	.st3{fill:#C4ECFB;}
	.st4{fill:#B9DDFC;}
	.st5{fill:#86BEFC;}
	.st6{fill:#92D0F9;}
	.st7{fill:#84BAFB;}
	.st8{fill:#93D2F9;}
	.st9{fill:#99DAF8;}
	.st10{fill:url(#SVGID_1_);}
	.st11{fill:url(#SVGID_2_);}
	.st12{fill:url(#SVGID_3_);}
	.st13{fill:url(#SVGID_4_);}
</style>
<g>
	<path class="st0" d="M82.9,25c-3.4,0-6.2-2.8-6.2-6.2s2.8-6.2,6.2-6.2s6.2,2.8,6.2,6.2S86.3,25,82.9,25z M82.9,15.6
		c-1.7,0-3.1,1.4-3.1,3.1c0,1.7,1.4,3.1,3.1,3.1s3.1-1.4,3.1-3.1S84.6,15.6,82.9,15.6z"/>
	<path class="st1" d="M53.2,81.2c-2.6,0-4.7-2.1-4.7-4.7s2.1-4.7,4.7-4.7s4.7,2.1,4.7,4.7S55.8,81.2,53.2,81.2z M53.2,75
		c-0.9,0-1.6,0.7-1.6,1.6s0.7,1.6,1.6,1.6s1.6-0.7,1.6-1.6S54,75,53.2,75z"/>
	<path class="st2" d="M42.1,9.4c-2.6,0-4.7-2.1-4.7-4.7S39.5,0,42.1,0c2.6,0,4.7,2.1,4.7,4.7S44.7,9.4,42.1,9.4z M42.1,3.1
		c-0.9,0-1.6,0.7-1.6,1.6s0.7,1.6,1.6,1.6c0.9,0,1.6-0.7,1.6-1.6S43,3.1,42.1,3.1z"/>
	<path class="st3" d="M25,71.9c-3.4,0-6.2-2.8-6.2-6.2s2.8-6.2,6.2-6.2s6.2,2.8,6.2,6.2S28.4,71.9,25,71.9z M25,62.5
		c-1.7,0-3.1,1.4-3.1,3.1c0,1.7,1.4,3.1,3.1,3.1s3.1-1.4,3.1-3.1C28.1,63.9,26.7,62.5,25,62.5z"/>
	<g>
		<path class="st1" d="M4.7,39.7c-0.9,0-1.6-0.7-1.6-1.6v-6.2c0-0.9,0.7-1.6,1.6-1.6s1.6,0.7,1.6,1.6v6.2C6.2,39,5.6,39.7,4.7,39.7z
			"/>
		<path class="st1" d="M7.8,36.6H1.6c-0.9,0-1.6-0.7-1.6-1.6c0-0.9,0.7-1.6,1.6-1.6h6.2c0.9,0,1.6,0.7,1.6,1.6
			C9.4,35.9,8.7,36.6,7.8,36.6z"/>
	</g>
	<g>
		<path class="st4" d="M79.7,60.9c-0.9,0-1.6-0.7-1.6-1.6v-6.2c0-0.9,0.7-1.6,1.6-1.6s1.6,0.7,1.6,1.6v6.2
			C81.2,60.2,80.5,60.9,79.7,60.9z"/>
		<path class="st4" d="M82.8,57.8h-6.2c-0.9,0-1.6-0.7-1.6-1.6s0.7-1.6,1.6-1.6h6.2c0.9,0,1.6,0.7,1.6,1.6S83.7,57.8,82.8,57.8z"/>
	</g>
	<rect x="78.1" y="34.5" class="st5" width="3.1" height="3.1"/>
	<rect x="12.5" y="18.8" class="st6" width="3.1" height="3.1"/>
	<rect x="59.4" y="9.4" class="st7" width="3.1" height="3.1"/>
	<rect x="70.3" y="68.8" class="st8" width="3.1" height="3.1"/>
	<rect x="18.8" y="45.6" class="st9" width="3.1" height="3.1"/>
	<g>
		<linearGradient id="SVGID_1_" gradientUnits="userSpaceOnUse" x1="78.223" y1="20.7082" x2="32.0563" y2="69.7082">
			<stop  offset="0" style="stop-color:#006DFF"/>
			<stop  offset="1" style="stop-color:#43D2F1"/>
		</linearGradient>
		<path class="st10" d="M68,55.6l-2-6.5c0.7-0.5,1-1.4,0.7-2.3l-0.9-2.9c-0.3-0.8-1.1-1.4-1.9-1.5l-2-6.5c-0.1-0.4-0.6-0.7-1-0.5
			L60,35.8l-0.5-1.4c-0.1-0.4-0.6-0.6-1-0.5l-22,6.8c-1,0.3-1.6,1.4-1.3,2.4l6,19.4c0.3,1.1,1.6,1.8,2.7,1.4l23.6-7.3
			C67.9,56.4,68.2,56,68,55.6z M64.3,44.4l0.9,2.9l0,0c0.1,0.3-0.1,0.6-0.4,0.7l-5.7,1.8c-0.5,0.2-1.1-0.1-1.3-0.7l-0.6-2
			c-0.2-0.5,0.1-1.1,0.7-1.3l5.6-1.8C63.9,44,64.2,44.1,64.3,44.4z M36.8,42.6L36.8,42.6c-0.1-0.2,0.1-0.4,0.2-0.5l21.3-6.6l0.2,0.7
			L43.1,41l-5.9,1.8C37,42.9,36.8,42.8,36.8,42.6z M43.5,62.4c-0.3,0.1-0.6-0.1-0.7-0.4l-5.5-17.6c0.1,0,0.2,0,0.3-0.1l22.1-6.9
			l0.9-0.3l1.7,5.6l-5,1.5c-1.4,0.4-2.1,1.9-1.7,3.2l0.6,2c0.4,1.4,1.9,2.1,3.2,1.7l4.9-1.5l1.7,5.6L43.5,62.4z"/>
		<linearGradient id="SVGID_2_" gradientUnits="userSpaceOnUse" x1="56.8261" y1="0.5485" x2="10.6594" y2="49.5485">
			<stop  offset="0" style="stop-color:#006DFF"/>
			<stop  offset="1" style="stop-color:#43D2F1"/>
		</linearGradient>
		<path class="st11" d="M43.7,26c0-4.8-3.9-8.7-8.7-8.7c-0.7,0-1.4,0.1-2.1,0.3c0,0-0.1,0-0.1,0c-0.7-0.2-1.3-0.2-2-0.2
			c-4.8,0-8.7,3.9-8.7,8.7c0,4.8,3.9,8.7,8.7,8.7c0.7,0,1.4-0.1,2.1-0.3c0.7,0.2,1.4,0.3,2.1,0.3C39.8,34.7,43.7,30.8,43.7,26z
			 M26.3,26c0,2.9,1.5,5.7,3.9,7.3c-3.8-0.3-6.8-3.4-6.8-7.3c0-3.9,3-7,6.8-7.3C27.8,20.3,26.3,23.1,26.3,26z M42.3,26
			c0,4-3.3,7.3-7.3,7.3c-4,0-7.3-3.3-7.3-7.3c0-4,3.3-7.3,7.3-7.3C39,18.7,42.3,22,42.3,26z"/>
		<linearGradient id="SVGID_3_" gradientUnits="userSpaceOnUse" x1="58.2952" y1="1.9328" x2="12.1286" y2="50.9328">
			<stop  offset="0" style="stop-color:#006DFF"/>
			<stop  offset="1" style="stop-color:#43D2F1"/>
		</linearGradient>
		<path class="st12" d="M37.8,29.4c-0.2,0-0.4,0-0.5,0.1c-0.4,0.3-1.8,0.7-3,0.1c-0.8-0.4-1.3-1.1-1.5-2.2h3.9
			c0.4,0,0.7-0.3,0.7-0.7c0-0.4-0.3-0.7-0.7-0.7h-4.1c0,0,0-0.1,0-0.1c0-0.1,0-0.1,0-0.2h4.1c0.4,0,0.7-0.3,0.7-0.7
			c0-0.4-0.3-0.7-0.7-0.7h-3.8c0.4-1.2,1.2-1.7,1.6-2c1-0.5,2.1-0.4,2.6,0c0.2,0.1,0.3,0.2,0.5,0.1c0.2,0,0.4-0.1,0.5-0.3
			c0.2-0.3,0.2-0.8-0.2-1c-1-0.8-2.7-0.8-4.1-0.1c-0.7,0.4-2,1.3-2.4,3.2h-0.7c-0.4,0-0.7,0.3-0.7,0.7c0,0.4,0.3,0.7,0.7,0.7h0.5
			c0,0.1,0,0.1,0,0.2c0,0,0,0.1,0,0.1h-0.5c-0.4,0-0.7,0.3-0.7,0.7c0,0.4,0.3,0.7,0.7,0.7h0.7c0.4,2.1,1.4,3,2.3,3.5
			c0.6,0.3,1.3,0.4,2,0.4c1.2,0,2.1-0.4,2.5-0.7c0.2-0.1,0.2-0.3,0.3-0.5c0-0.2,0-0.4-0.1-0.5C38.1,29.5,37.9,29.4,37.8,29.4z"/>
		<linearGradient id="SVGID_4_" gradientUnits="userSpaceOnUse" x1="66.4964" y1="9.6597" x2="20.3297" y2="58.6597">
			<stop  offset="0" style="stop-color:#006DFF"/>
			<stop  offset="1" style="stop-color:#43D2F1"/>
		</linearGradient>
		<path class="st13" d="M46.1,25.3c0.8-0.2,2.5,0.2,3.8,1.4c0.6,0.6,1.6,1.7,1.8,3.4l-1-0.6c-0.3-0.2-0.8-0.1-0.9,0.3
			c-0.2,0.3-0.1,0.8,0.3,0.9l2,1.2c0,0,0,0.1,0.1,0.1c0.1,0.1,0.3,0.2,0.4,0.2c0.2,0,0.4-0.1,0.5-0.3l1.7-2.1c0.2-0.3,0.2-0.7-0.1-1
			c-0.3-0.2-0.7-0.2-1,0.1l-0.6,0.8c-0.2-1.5-1-2.9-2.3-4c-1.5-1.3-3.6-2-5-1.7c-0.4,0.1-0.6,0.5-0.5,0.8
			C45.4,25.1,45.8,25.4,46.1,25.3z"/>
	</g>
</g>
</svg>
