<svg xmlns="http://www.w3.org/2000/svg" xmlns:xlink="http://www.w3.org/1999/xlink" id="Grupo_11783" width="696.806" height="267.781" viewBox="0 0 696.806 267.781">
    <defs>
        <clipPath id="clip-path">
            <path id="Trazado_11371" d="M111.781 124.883v11.523a20.41 20.41 0 0 0 5.791.932 18.081 18.081 0 0 0 5.578-.932v-11.523z" class="cls-1" transform="translate(-111.781 -124.883)"/>
        </clipPath>
        <clipPath id="clip-path-5">
            <path id="Trazado_11375" d="M111.791 124.434c0 .559 2.545 1.013 5.685 1.013s5.686-.454 5.686-1.013-2.546-1.014-5.686-1.014-5.685.454-5.685 1.014" class="cls-1" transform="translate(-111.791 -123.42)"/>
        </clipPath>
        <clipPath id="clip-path-6">
            <path id="Rectángulo_2753" fill="#accffd" stroke="#4d8cde" d="M0 0H103.209V156.952H0z"/>
        </clipPath>
        <clipPath id="clip-path-7">
            <path id="Rectángulo_2755" d="M0 0H91.245V142.532H0z" class="cls-3"/>
        </clipPath>
        <clipPath id="clip-path-8">
            <path id="Trazado_11371-2" d="M0 0v16.99a30.093 30.093 0 0 0 8.538 1.374 26.659 26.659 0 0 0 8.225-1.374V0z" class="cls-1"/>
        </clipPath>
        <clipPath id="clip-path-12">
            <path id="Trazado_11375-2" d="M0 1.5c0 .819 3.753 1.49 8.381 1.49s8.384-.67 8.384-1.494S13.011 0 8.381 0 0 .669 0 1.5" class="cls-1"/>
        </clipPath>
        <clipPath id="clip-path-13">
            <path id="Trazado_11376" d="M11.137.112S-.765 9.643.039 10.447s8.615.992 10.789 0S21.63 0 21.63 0z" class="cls-1"/>
        </clipPath>
        <clipPath id="clip-path-14">
            <path id="Trazado_11364" d="M10.8 10.447c2.174.992 9.984.805 10.788 0S10.493.112 10.493.112L0 0s8.629 9.456 10.8 10.447" class="cls-1"/>
        </clipPath>
        <clipPath id="clip-path-15">
            <path id="Trazado_11363" d="M102.584 282.259s-11.9 9.532-11.1 10.335 8.615.992 10.789 0 10.8-10.447 10.8-10.447z" class="cls-1" transform="translate(-91.447 -282.147)"/>
        </clipPath>
        <clipPath id="clip-path-16">
            <path id="Trazado_11364-2" d="M187.214 292.594c2.174.992 9.984.8 10.788 0s-11.1-10.335-11.1-10.335l-10.493-.112s8.629 9.456 10.8 10.447" class="cls-1" transform="translate(-176.411 -282.147)"/>
        </clipPath>
        <clipPath id="clip-path-17">
            <path id="Trazado_11365" d="M147.8 0c-1.51 0-1.717.638-1.717.638V8.46h3.3V.638S149.307 0 147.8 0z" class="cls-1" transform="translate(-146.079)"/>
        </clipPath>
        <clipPath id="clip-path-18">
            <path id="Rectángulo_2723" d="M0 0H94.076V208.458H0z" class="cls-1"/>
        </clipPath>
        <clipPath id="clip-path-19">
            <path id="Rectángulo_2725" d="M0 0H91.026V205.768H0z" class="cls-1"/>
        </clipPath>
        <clipPath id="clip-path-20">
            <path id="Rectángulo_2727" d="M0 0H107.301V3.794H0z" class="cls-1"/>
        </clipPath>
        <clipPath id="clip-path-21">
            <path id="Rectángulo_2731" d="M0 0H106.208V9.385H0z" class="cls-1"/>
        </clipPath>
        <linearGradient id="linear-gradient" x1="-33.443" x2="-33.159" y1="1.335" y2="1.335" gradientUnits="objectBoundingBox">
            <stop offset="0" stop-color="#c5c5c5"/>
            <stop offset=".522" stop-color="#f5f5f5"/>
            <stop offset="1" stop-color="#ececec"/>
        </linearGradient>
        <linearGradient id="linear-gradient-2" x1="-7.014" x2="-6.952" y1="8.873" y2="8.873" gradientUnits="objectBoundingBox">
            <stop offset="0" stop-color="#575756"/>
            <stop offset=".537" stop-color="#706f6f"/>
            <stop offset="1" stop-color="#575756"/>
        </linearGradient>
        <linearGradient id="linear-gradient-6" x1="-7.014" x2="-6.951" y1="55.023" y2="55.023" xlink:href="#linear-gradient-2"/>
        <style>
            .cls-1,.cls-5{fill:none}.cls-32{fill:#accffd}.cls-3{fill:#fff}.cls-5{stroke:#fff;stroke-width:8px}.cls-7{clip-path:url(#clip-path)}.cls-8{fill:url(#linear-gradient-2)}.cls-10{fill:url(#linear-gradient-6)}.cls-11{fill:#4d8cde}.cls-15{fill:#f4f9ff}.cls-16{fill:#accfff}.cls-17{fill:#dae9fe}.cls-18{fill:#006dff}.cls-19{clip-path:url(#clip-path-8)}.cls-21{fill:#003884;opacity:.347}
        </style>
    </defs>
    <g id="Grupo_11782">
        <path id="Trazado_11326" fill="#e5f0ff" d="M0 0h696.806v267.781H0z"/>
        <g id="Grupo_11902" transform="translate(9.024 .181)">
            <path id="Línea_295" d="M0 0L0 267" class="cls-5" transform="translate(340.722)"/>
            <path id="Línea_298" d="M0 0L0 267" class="cls-5" transform="translate(165.032)"/>
            <g id="Grupo_11568" transform="translate(201.035 42.997)">
                <g id="Grupo_11615">
                    <g id="Grupo_11571" transform="translate(49.865 97.888)">
                        <g id="Grupo_11614">
                            <path id="Rectángulo_2734" fill="url(#linear-gradient)" d="M0 0H2.517V75.848H0z"/>
                        </g>
                    </g>
                    <g id="Grupo_11583" transform="translate(45.438 88.654)">
                        <g id="Grupo_11582" class="cls-7">
                            <path id="Rectángulo_2743" d="M0 0H11.369V12.455H0z" class="cls-8"/>
                        </g>
                    </g>
                    <g id="Grupo_11585" transform="translate(45.438 88.654)">
                        <g id="Grupo_11584" class="cls-7">
                            <path id="Rectángulo_2744" d="M0 0H11.369V12.455H0z" class="cls-8"/>
                        </g>
                    </g>
                    <g id="Grupo_11587" transform="translate(45.438 88.654)">
                        <g id="Grupo_11586" class="cls-7">
                            <path id="Rectángulo_2745" d="M0 0H11.369V12.455H0z" class="cls-8"/>
                        </g>
                    </g>
                    <g id="Grupo_11589" transform="translate(45.438 88.654)">
                        <g id="Grupo_11588" class="cls-7">
                            <path id="Rectángulo_2746" d="M0 0H11.369V12.455H0z" class="cls-8"/>
                        </g>
                    </g>
                    <g id="Grupo_11591" transform="translate(45.445 87.61)">
                        <g id="Grupo_11590" clip-path="url(#clip-path-5)">
                            <path id="Rectángulo_2747" d="M0 0H11.37V2.028H0z" class="cls-10"/>
                        </g>
                    </g>
                    <g id="Grupo_11601">
                        <path id="Trazado_11377" d="M.167 8.079L97.51-7.645v23.63H.167" class="cls-11" transform="translate(.121 7.645)"/>
                        <g id="Grupo_11600" clip-path="url(#clip-path-6)" transform="translate(0 16.047)">
                            <path id="Rectángulo_2752" fill="#f4f9ff" stroke="#accffd" d="M0 0H103.209V156.952H0z"/>
                        </g>
                    </g>
                    <g id="Grupo_11603" transform="translate(5.5 22.781)">
                        <g id="Grupo_11602" clip-path="url(#clip-path-7)">
                            <path id="Rectángulo_2754" d="M0 0H99.859V154H0z" class="cls-3" transform="translate(-4.307 -5.734)"/>
                            <g id="Grupo_11616" transform="translate(5.137 5.622)">
                                <path id="Rectángulo_2662" d="M0 0H80.272V39.189H0z" class="cls-15"/>
                                <rect id="Rectángulo_2664" width="61.797" height="6.029" class="cls-16" rx="1" transform="translate(9.274 51.247)"/>
                                <rect id="Rectángulo_2667" width="46.725" height="6.029" class="cls-16" rx="1" transform="translate(17.122 60.29)"/>
                                <rect id="Rectángulo_2668" width="28.638" height="3.015" class="cls-17" rx="1" transform="translate(25.683 91.466)"/>
                                <rect id="Rectángulo_2666" width="46.725" height="12.058" class="cls-11" rx="2" transform="translate(17.122 76.394)"/>
                            </g>
                            <g id="Componente_15_15" transform="translate(29.985 106.785)">
                                <path id="ic_check_circle_24px" d="M17.578 2a15.578 15.578 0 1 0 15.579 15.578A15.584 15.584 0 0 0 17.578 2z" class="cls-18" transform="translate(-2 -2)"/>
                                <path id="Icon_awesome-qrcode" d="M0 8.986h6.736V2.25H0zM2.245 4.5h2.246v2.241H2.245zm6.737-2.25v6.736h6.736V2.25zm4.491 4.491h-2.246V4.5h2.245zM0 17.968h6.736v-6.736H0zm2.245-4.491h2.246v2.245H2.245zM14.6 11.232h1.123v4.491H12.35V14.6h-1.123v3.368H8.982v-6.736h3.368v1.123h2.25zm0 5.614h1.123v1.123H14.6zm-2.245 0h1.123v1.123H12.35z" class="cls-3" transform="translate(7.608 5.471)"/>
                            </g>
                        </g>
                    </g>
                </g>
            </g>
            <g id="Grupo_11617" transform="rotate(90 283.602 352.087)">
                <g id="Grupo_11615-2">
                    <g id="Grupo_11583-2" transform="translate(65.104 106.752)">
                        <g id="Grupo_11582-2" class="cls-19">
                            <path id="Rectángulo_2743-2" d="M0 0H16.763V18.364H0z" class="cls-8"/>
                        </g>
                    </g>
                    <g id="Grupo_11585-2" transform="translate(65.104 106.752)">
                        <g id="Grupo_11584-2" class="cls-19">
                            <path id="Rectángulo_2744-2" d="M0 0H16.763V18.364H0z" class="cls-8"/>
                        </g>
                    </g>
                    <g id="Grupo_11587-2" transform="translate(65.104 106.752)">
                        <g id="Grupo_11586-2" class="cls-19">
                            <path id="Rectángulo_2745-2" d="M0 0H16.763V18.364H0z" class="cls-8"/>
                        </g>
                    </g>
                    <g id="Grupo_11589-2" transform="translate(65.104 106.752)">
                        <g id="Grupo_11588-2" class="cls-19">
                            <path id="Rectángulo_2746-2" d="M0 0H16.763V18.364H0z" class="cls-8"/>
                        </g>
                    </g>
                    <g id="Grupo_11591-2" transform="translate(65.115 105.213)">
                        <g id="Grupo_11590-2" clip-path="url(#clip-path-12)">
                            <path id="Rectángulo_2747-2" d="M0 0H16.765V2.989H0z" class="cls-10"/>
                        </g>
                    </g>
                    <g id="Grupo_11603-2">
                        <ellipse id="Elipse_569" cx="114.793" cy="4.435" class="cls-21" rx="114.793" ry="4.435" transform="rotate(-90 191.647 37.939)"/>
                        <g id="Grupo_11620" clip-path="url(#clip-path-13)" transform="rotate(-90 172.733 25.858)">
                            <path id="Rectángulo_2763" d="M0 0H22.395V11.439H0z" class="cls-11" transform="translate(-.765)"/>
                        </g>
                        <g id="Grupo_11621" transform="rotate(-90 101.236 -45.638)">
                            <g id="Grupo_11551" clip-path="url(#clip-path-14)">
                                <path id="Rectángulo_2720" d="M0 0H22.396V11.439H0z" class="cls-11"/>
                            </g>
                        </g>
                        <path id="Rectángulo_2754-2" fill="#fff" stroke="#accffd" stroke-width="2px" d="M0 0H146.972V226.655H0z" transform="translate(0 1.377)"/>
                        <g id="Grupo_11618" transform="rotate(-90 61.398 50.678)">
                            <path id="Rectángulo_2662-2" d="M0 0H99.601V123.084H0z" class="cls-15"/>
                        </g>
                        <g id="Grupo_11619" transform="translate(26.858 131.77)">
                            <rect id="Rectángulo_2756" width="77.194" height="7.531" class="cls-16" rx="1" transform="rotate(-90 51.489 25.705)"/>
                            <rect id="Rectángulo_2762" width="77.194" height="7.531" class="cls-16" rx="1" transform="rotate(-90 57.889 19.305)"/>
                            <rect id="Rectángulo_2760" width="77.194" height="7.531" class="cls-16" rx="1" transform="rotate(-90 45.043 32.151)"/>
                            <rect id="Rectángulo_2761" width="77.194" height="7.531" class="cls-16" rx="1" transform="rotate(-90 38.597 38.597)"/>
                            <rect id="Rectángulo_2757" width="58.366" height="7.531" class="cls-16" rx="1" transform="rotate(-90 64.636 12.558)"/>
                            <rect id="Rectángulo_2759" width="58.366" height="15.062" class="cls-11" rx="2" transform="rotate(-90 73.297 3.897)"/>
                        </g>
                        <g id="Grupo_11907" transform="rotate(-90 68.086 33.07)">
                            <path id="ic_check_circle_24px-2" d="M38.7 0a38.7 38.7 0 1 0 38.7 38.7A38.711 38.711 0 0 0 38.7 0z" class="cls-18"/>
                            <path id="Icon_awesome-qrcode-2" d="M0 17.6h17.6V0H0zM5.866 5.866h5.866v5.866H5.866zM23.463 0v17.6h17.6V0zm11.731 11.731h-5.865V5.866h5.866zM0 41.06h17.6v-17.6H0zm5.866-11.731h5.866v5.866H5.866zm32.262-5.866h2.932v11.731h-8.8v-2.932h-2.931v8.8h-5.866v-17.6h8.8V26.4h5.866zm0 14.664h2.932v2.933h-2.933zm-5.866 0h2.933v2.933h-2.933z" class="cls-3" transform="translate(18.223 18.907)"/>
                        </g>
                    </g>
                </g>
            </g>
            <g id="Grupo_11622" transform="translate(0 19.759)">
                <g id="Grupo_11753">
                    <ellipse id="Elipse_568" cx="74.47" cy="4.435" class="cls-21" rx="74.47" ry="4.435" transform="translate(0 219.715)"/>
                    <g id="Grupo_11567" transform="translate(19.334)">
                        <g id="Grupo_11550" transform="translate(10.782 212.881)">
                            <g id="Grupo_11549" clip-path="url(#clip-path-15)">
                                <path id="Rectángulo_2719" d="M0 0H22.395V11.439H0z" class="cls-11" transform="translate(-.765)"/>
                            </g>
                        </g>
                        <g id="Grupo_11552" transform="translate(74.887 212.881)">
                            <g id="Grupo_11551-2" clip-path="url(#clip-path-16)">
                                <path id="Rectángulo_2720-2" d="M0 0H22.396V11.439H0z" class="cls-11"/>
                            </g>
                        </g>
                        <g id="Grupo_11554" transform="translate(52.002)">
                            <g id="Grupo_11553" clip-path="url(#clip-path-17)">
                                <path id="Rectángulo_2721" d="M0 0H3.296V8.46H0z" class="cls-11"/>
                            </g>
                        </g>
                        <g id="Grupo_11556" transform="translate(6.611 8.356)">
                            <g id="Grupo_11555" clip-path="url(#clip-path-18)">
                                <path id="Rectángulo_2722" fill="#eef6ff" stroke="#accffd" d="M0 0H94.076V208.458H0z"/>
                            </g>
                        </g>
                        <g id="Grupo_11558" transform="translate(8.137 9.701)">
                            <g id="Grupo_11557" clip-path="url(#clip-path-19)">
                                <path id="Rectángulo_2724" d="M0 0H91.026V205.768H0z" class="cls-3"/>
                            </g>
                        </g>
                        <g id="Grupo_11560" transform="translate(0 8.356)">
                            <g id="Grupo_11559" clip-path="url(#clip-path-20)">
                                <path id="Rectángulo_2726" d="M0 0H107.301V3.794H0z" class="cls-32"/>
                            </g>
                        </g>
                        <g id="Grupo_11564" transform="translate(.547 206.623)">
                            <g id="Grupo_11563" clip-path="url(#clip-path-21)">
                                <path id="Rectángulo_2730" d="M0 0H106.208V9.385H0z" class="cls-32"/>
                            </g>
                        </g>
                        <g id="Grupo_11567-2" transform="translate(13.211 26.378)">
                            <path id="Rectángulo_2662-3" d="M0 0H80.645V45.897H0z" class="cls-15"/>
                            <rect id="Rectángulo_2664-2" width="72.376" height="7.061" class="cls-16" rx="1" transform="translate(3.252 60.019)"/>
                            <rect id="Rectángulo_2667-2" width="54.723" height="7.061" class="cls-16" rx="1" transform="translate(12.078 70.611)"/>
                            <rect id="Rectángulo_2668-2" width="33.54" height="3.531" class="cls-17" rx="1" transform="translate(22.67 150.124)"/>
                            <rect id="Rectángulo_2666-2" width="54.723" height="14.122" class="cls-11" rx="2" transform="translate(12.078 132.471)"/>
                            <g id="Componente_15_16" transform="translate(23.976 89.427)">
                                <path id="ic_check_circle_24px-3" d="M17.578 2a15.578 15.578 0 1 0 15.579 15.578A15.584 15.584 0 0 0 17.578 2z" class="cls-18" transform="translate(-2 -2)"/>
                                <path id="Icon_awesome-qrcode-3" d="M0 8.986h6.736V2.25H0zM2.245 4.5h2.246v2.241H2.245zm6.737-2.25v6.736h6.736V2.25zm4.491 4.491h-2.246V4.5h2.245zM0 17.968h6.736v-6.736H0zm2.245-4.491h2.246v2.245H2.245zM14.6 11.232h1.123v4.491H12.35V14.6h-1.123v3.368H8.982v-6.736h3.368v1.123h2.25zm0 5.614h1.123v1.123H14.6zm-2.245 0h1.123v1.123H12.35z" class="cls-3" transform="translate(7.608 5.471)"/>
                            </g>
                        </g>
                    </g>
                </g>
            </g>
            <ellipse id="Elipse_586" cx="51.793" cy="4.435" class="cls-21" rx="51.793" ry="4.435" transform="translate(201.103 222.193)"/>
        </g>
    </g>
</svg>
