<svg xmlns="http://www.w3.org/2000/svg" id="Grupo_11777" width="696.964" height="267" viewBox="0 0 696.964 267">
    <defs>
        <style>
            .cls-1{fill:#e5f0ff}.cls-2{fill:#fff}.cls-3{fill:#006dff}.cls-4{fill:#026dfa}.cls-8{fill:#263238}.cls-10,.cls-9{fill:none;stroke:#006dff;stroke-linecap:round;stroke-width:3px}.cls-9{stroke-linejoin:round}.cls-10{stroke-dasharray:6 8}
        </style>
    </defs>
    <path id="Rectángulo_2270" d="M0 0H696.964V267H0z" class="cls-1"/>
    <g id="Grupo_11542" transform="translate(254.862 54.731)">
        <g id="Grupo_11965" transform="translate(0 12)">
            <rect id="Rectángulo_2843" width="120" height="94" class="cls-2" rx="10" transform="translate(152.213 78.651)"/>
            <rect id="Rectángulo_2844" width="120" height="94" class="cls-2" rx="10" transform="translate(288.213 78.651)"/>
            <path id="Icon_awesome-sms" d="M33.307 0C14.91 0 0 12.113 0 27.062a24.02 24.02 0 0 0 7.416 17C5.79 50.624.351 56.466.286 56.531a1.034 1.034 0 0 0-.2 1.132 1.019 1.019 0 0 0 .95.625A29.754 29.754 0 0 0 19.334 51.6a39.679 39.679 0 0 0 13.973 2.524c18.4 0 33.307-12.113 33.307-27.062S51.7 0 33.307 0zM16.679 35.389h-1.587a1.044 1.044 0 0 1-1.041-1.041v-2.082a1.044 1.044 0 0 1 1.041-1.041h1.6c.781 0 1.353-.455 1.353-.859a.689.689 0 0 0-.273-.494l-2.849-2.446a4.809 4.809 0 0 1-1.73-3.656 5.29 5.29 0 0 1 5.516-5.022H20.3a1.044 1.044 0 0 1 1.041 1.041v2.082a1.044 1.044 0 0 1-1.041 1.041h-1.6c-.781 0-1.353.455-1.353.859a.689.689 0 0 0 .273.494l2.849 2.446a4.809 4.809 0 0 1 1.73 3.656 5.281 5.281 0 0 1-5.52 5.022zm24.954-1.041a1.044 1.044 0 0 1-1.041 1.041h-2.081a1.044 1.044 0 0 1-1.041-1.041v-8.873l-3.227 7.26a1.039 1.039 0 0 1-1.861 0l-3.24-7.26v8.873a1.044 1.044 0 0 1-1.042 1.041h-2.079a1.044 1.044 0 0 1-1.041-1.041V20.817a2.088 2.088 0 0 1 2.082-2.082h2.082A2.072 2.072 0 0 1 31 19.88l2.3 4.606 2.3-4.606a2.086 2.086 0 0 1 1.86-1.145h2.082a2.088 2.088 0 0 1 2.082 2.082zm6.284 1.041h-1.6a1.044 1.044 0 0 1-1.041-1.041v-2.082a1.044 1.044 0 0 1 1.041-1.041h1.6c.781 0 1.353-.455 1.353-.859a.689.689 0 0 0-.27-.494l-2.849-2.446a4.809 4.809 0 0 1-1.73-3.656 5.29 5.29 0 0 1 5.516-5.022h1.587a1.044 1.044 0 0 1 1.041 1.041v2.082a1.044 1.044 0 0 1-1.041 1.041h-1.6c-.781 0-1.353.455-1.353.859a.689.689 0 0 0 .273.494l2.849 2.446a4.809 4.809 0 0 1 1.73 3.656 5.27 5.27 0 0 1-5.505 5.022z" class="cls-3" transform="rotate(1 -5424.15 10311.766)"/>
            <g id="Grupo_11966" transform="translate(306.939 97.566)">
                <path id="Exclusión_28" d="M74.387 58.126H8.266a8.81 8.81 0 0 1-5.838-2.134A6.8 6.8 0 0 1 0 50.86L.041 7.266C.041 3.259 3.731 0 8.266 0h66.121a8.808 8.808 0 0 1 5.837 2.134 6.805 6.805 0 0 1 2.428 5.131V50.86a6.805 6.805 0 0 1-2.428 5.131 8.808 8.808 0 0 1-5.837 2.135zM42.135 11.048a16.534 16.534 0 0 0-6.8 1.363 15.6 15.6 0 0 0-5.252 3.757 17.84 17.84 0 0 0-3.443 5.694 22.9 22.9 0 0 0-1.428 7.167 23.035 23.035 0 0 0 .828 7.471 13.756 13.756 0 0 0 2.975 5.379 12.568 12.568 0 0 0 4.955 3.259 19.642 19.642 0 0 0 6.8 1.094 17.465 17.465 0 0 0 3.729-.418 14.666 14.666 0 0 0 1.786-.517 7.738 7.738 0 0 0 1.51-.748l-.7-3.135a11.872 11.872 0 0 1-1.35.483c-.541.158-1.054.284-1.568.387a17.4 17.4 0 0 1-3.333.358 14.18 14.18 0 0 1-5.079-.849 9.08 9.08 0 0 1-3.68-2.559 10.783 10.783 0 0 1-2.173-4.261 19.508 19.508 0 0 1-.55-5.945 21.161 21.161 0 0 1 1.079-5.828A14.881 14.881 0 0 1 33 18.527a11.725 11.725 0 0 1 3.909-3.109 11.535 11.535 0 0 1 5.144-1.118 13 13 0 0 1 5.2.952 9.273 9.273 0 0 1 3.57 2.682 10.75 10.75 0 0 1 1.995 4.166 18.488 18.488 0 0 1 .453 5.382 15.976 15.976 0 0 1-.356 2.88 9.947 9.947 0 0 1-.814 2.313 4.824 4.824 0 0 1-1.209 1.539 2.385 2.385 0 0 1-2.256.444 1.43 1.43 0 0 1-.642-.418 1.819 1.819 0 0 1-.4-.8 3.694 3.694 0 0 1-.028-1.3l.962-11.081c-.414-.281-.8-.534-1.169-.774a8.271 8.271 0 0 0-1.275-.673 8.175 8.175 0 0 0-1.539-.462 10.4 10.4 0 0 0-1.983-.169h-.048a7.655 7.655 0 0 0-3.268.737 8.4 8.4 0 0 0-2.726 2.106 11.789 11.789 0 0 0-1.984 3.3 16.416 16.416 0 0 0-1.073 4.314 11.61 11.61 0 0 0 .141 3.523 7.587 7.587 0 0 0 1.077 2.7 5.047 5.047 0 0 0 4.333 2.331 5.889 5.889 0 0 0 4.97-2.492 4.724 4.724 0 0 0 1.851 1.9 5.518 5.518 0 0 0 2.74.671 7.366 7.366 0 0 0 3.788-.934 8.108 8.108 0 0 0 2.594-2.456 11.353 11.353 0 0 0 1.531-3.456 18.147 18.147 0 0 0 .584-3.936 19.691 19.691 0 0 0-.765-6.609 13.683 13.683 0 0 0-2.822-5.129 12.885 12.885 0 0 0-4.758-3.32 17.246 17.246 0 0 0-6.592-1.183zM40.491 34.4a2 2 0 0 1-1.913-1.254 7.527 7.527 0 0 1-.387-3.709 18.621 18.621 0 0 1 .521-2.948 7.7 7.7 0 0 1 .915-2.155A3.863 3.863 0 0 1 41 23.027a4.075 4.075 0 0 1 1.946-.445 4.464 4.464 0 0 1 1.17.154l-.752 8.609a7.127 7.127 0 0 1-.7 1.561 4.032 4.032 0 0 1-.766.923 2.322 2.322 0 0 1-.753.453 2.109 2.109 0 0 1-.654.118z" class="cls-4"/>
            </g>
        </g>
        <rect id="Rectángulo_2842" width="94" height="94" class="cls-2" rx="10" transform="translate(152.213 -27.349)"/>
        <g id="smartphone" transform="translate(171.343 -17.349)">
            <path id="Trazado_11497" d="M42.926 0H12.185A5.317 5.317 0 0 0 6.87 5.324v62.418a5.317 5.317 0 0 0 5.315 5.317h30.741a5.322 5.322 0 0 0 5.32-5.317V5.324A5.325 5.325 0 0 0 42.926 0zm1.333 59.195h-33.4V8.981h33.4zM34.683 5.4H20.43V3.848h14.255v1.554zm6.1-.71a1.363 1.363 0 1 1-1.363-1.36 1.363 1.363 0 0 1 1.362 1.362zm-6.738 62.7h-12.98v-3.996h12.979z" class="cls-4"/>
        </g>
    </g>
    <g id="_1028931" transform="translate(87.698 37.267)">
        <ellipse id="Elipse_598" cx="95.5" cy="96" class="cls-2" rx="95.5" ry="96" transform="translate(.378 .115)"/>
        <path id="Trazado_11458" d="M195.151 309.249l-31.274-4a7.691 7.691 0 0 1-6.716-7.629v-14.186h-22.593v14.185a7.691 7.691 0 0 1-6.716 7.629l-31.274 4a19.179 19.179 0 0 0-16.745 19.023v14.5a95.947 95.947 0 0 0 132.063 0v-14.5a19.178 19.178 0 0 0-16.745-19.022z" class="cls-1" transform="translate(-49.91 -177.196)"/>
        <path id="Trazado_11460" d="M217.319 200.075l-5.309 2.858a27.561 27.561 0 0 1-26.133 0l-5.309-2.858a30.265 30.265 0 0 1-15.917-26.648v-32.744h68.583v32.744a30.264 30.264 0 0 1-15.915 26.648z" class="cls-1" transform="translate(-102.936 -87.951)"/>
        <path id="Trazado_11461" d="M290.313 140.683h-34.361v65.544a27.543 27.543 0 0 0 13.136-3.293l5.309-2.858a30.265 30.265 0 0 0 15.917-26.648v-32.745z" class="cls-1" transform="translate(-160.015 -87.952)"/>
        <path id="Trazado_11462" fill="#accffd" d="M195.152 346.659l-26.469-3.386a31.253 31.253 0 0 1-45.635 0l-26.469 3.386a19.179 19.179 0 0 0-16.745 19.023v14.5a95.946 95.946 0 0 0 132.063 0v-14.5a19.178 19.178 0 0 0-16.745-19.023z" transform="translate(-49.91 -214.606)"/>
        <path id="Trazado_11466" fill="#98c3ff" d="M229.9 102.576a39.076 39.076 0 1 0-78.151 0V131.4h6.994v-19.149c8.141-9.354 19.405-15.391 32.081-15.391s23.94 6.037 32.081 15.391V131.4h6.995z" transform="translate(-94.87 -39.699)"/>
        <path id="Trazado_11467" fill="#37474f" d="M228.315 117.919h-8.04V94.6a33.41 33.41 0 0 0-66.82 0v23.316h-8.04V94.6a41.45 41.45 0 0 1 82.9 0v23.316z" transform="translate(-90.91 -33.23)"/>
        <g id="Grupo_11948" transform="translate(91.221 19.923)">
            <path id="Trazado_11468" d="M255.97 53.153h-.018v8.04h.018A33.448 33.448 0 0 1 289.38 94.6v23.316h8.04V94.6a41.5 41.5 0 0 0-41.45-41.447z" class="cls-8" transform="translate(-251.236 -53.153)"/>
            <path id="Trazado_11469" d="M266.239 254.707H243.37v-8.04h22.869a14.935 14.935 0 0 0 14.918-14.918h8.04a22.985 22.985 0 0 1-22.958 22.958z" class="cls-8" transform="translate(-243.37 -164.807)"/>
        </g>
        <path id="Trazado_11470" d="M133.344 190.152h-8.791A11.755 11.755 0 0 1 112.8 178.4v-13.669a11.755 11.755 0 0 1 11.755-11.755h8.791v37.176z" class="cls-4" transform="translate(-70.518 -95.637)"/>
        <path id="Trazado_11471" d="M353.178 190.153h-8.791v-37.176h8.791a11.755 11.755 0 0 1 11.755 11.755V178.4a11.755 11.755 0 0 1-11.755 11.753z" class="cls-4" transform="translate(-215.302 -95.637)"/>
        <path id="Trazado_11472" d="M220.332 276.846h-9.469a8.487 8.487 0 0 1-8.486-8.486 8.487 8.487 0 0 1 8.486-8.486h9.469a8.487 8.487 0 0 1 8.486 8.486 8.486 8.486 0 0 1-8.486 8.486z" class="cls-3" transform="translate(-126.52 -162.466)"/>
    </g>
    <g id="Grupo_11956" transform="translate(71.698 51.977)">
        <g id="Grupo_11949" transform="translate(223.643 22.431)">
            <g id="Grupo_11506" transform="rotate(-30 75.404 20.204)">
                <path id="Trazado_11330" d="M0 0l9.949 9.949L0 19.9" class="cls-9" transform="translate(70.87)"/>
                <path id="Trazado_11340" d="M64.264 0H0" class="cls-10" transform="translate(0 9.442)"/>
            </g>
            <g id="Grupo_11949-2" transform="rotate(30 -109.49 49.236)">
                <path id="Trazado_11330-2" d="M0 0l9.949 9.949L0 19.9" class="cls-9" transform="translate(70.87)"/>
                <path id="Trazado_11340-2" d="M64.264 0H0" class="cls-10" transform="translate(0 9.442)"/>
            </g>
        </g>
    </g>
</svg>
