<svg xmlns="http://www.w3.org/2000/svg" width="696.806" height="267.781" viewBox="0 0 696.806 267.781">
    <defs>
        <style>
            .cls-6{fill:#accfff}.cls-3{opacity:.5}.cls-5,.cls-8{fill:#fff}.cls-13,.cls-7{fill:#006dff}.cls-10,.cls-9{fill:none;stroke:#006dff;stroke-linecap:round;stroke-width:3px}.cls-9{stroke-linejoin:round}.cls-10{stroke-dasharray:6 5}.cls-12,.cls-13{stroke:none}
        </style>
    </defs>
    <g id="Grupo_11783" transform="translate(-1036.999 -1539.819)">
        <g id="Grupo_11782" transform="translate(1037.074 1515.475)">
            <path id="Trazado_11326" fill="#e5f0ff" d="M0 0h696.806v267.781H0z" transform="translate(-.075 24.344)"/>
        </g>
        <g id="Grupo_11538" transform="translate(1036.98 1545.715)">
            <g id="Grupo_11543" transform="translate(400.274 34.711)">
                <g id="Grupo_11505" transform="translate(48.101)">
                    <path id="Trazado_11334" fill="#accfff" d="M29.689 13.253a13.232 13.232 0 0 1-.836 4.791 7.934 7.934 0 0 1-2.363 3.409 5.469 5.469 0 0 1-3.545 1.236 4.411 4.411 0 0 1-2.382-.645 3.7 3.7 0 0 1-1.491-1.7h-.292a6.235 6.235 0 0 1-5 2.345 6.692 6.692 0 0 1-5.072-1.936 7.344 7.344 0 0 1-1.854-5.3A8.188 8.188 0 0 1 9.29 9.272a8.791 8.791 0 0 1 6.363-2.345 22.025 22.025 0 0 1 3.445.3 18.962 18.962 0 0 1 3.1.718l-.418 8.89q0 2.527 1.382 2.527 1.164 0 1.854-1.7a11.98 11.98 0 0 0 .691-4.445 10.675 10.675 0 0 0-1.218-5.172 8.266 8.266 0 0 0-3.427-3.427 10.528 10.528 0 0 0-5.045-1.182 12.906 12.906 0 0 0-6.381 1.509A10.089 10.089 0 0 0 5.481 9.3a14.319 14.319 0 0 0-1.445 6.572q0 5.018 2.682 7.7t7.772 2.682a23.424 23.424 0 0 0 4.236-.427 28.076 28.076 0 0 0 4.545-1.245v3.488a21.852 21.852 0 0 1-8.636 1.654q-6.909 0-10.772-3.636T0 15.981a16.92 16.92 0 0 1 1.973-8.154A14.313 14.313 0 0 1 7.59 2.082 16.619 16.619 0 0 1 15.981 0a15.252 15.252 0 0 1 7.145 1.636A11.6 11.6 0 0 1 27.98 6.29a13.886 13.886 0 0 1 1.709 6.963zm-18.617 2.273q0 3.836 3.127 3.836a2.906 2.906 0 0 0 2.491-1.154 7.3 7.3 0 0 0 1.036-3.754l.236-4.018a9.956 9.956 0 0 0-2.091-.2 4.49 4.49 0 0 0-3.536 1.418 5.612 5.612 0 0 0-1.263 3.872z" opacity="0.5" transform="rotate(-14.98 556.1 47.384)"/>
                    <g id="bubble_x1" class="cls-3" transform="rotate(14.98 -625.606 397.033)">
                        <g id="Grupo_11341">
                            <g id="Grupo_11340">
                                <path id="Trazado_11265" fill="#accfff" fill-rule="evenodd" d="M31.986 0H6.437A6.456 6.456 0 0 0 0 6.437v16.094a6.387 6.387 0 0 0 6.035 6.437h4.1c4.064 0 6.719 6.4 9.053 6.4 2.414 0 5.472-6.4 9.093-6.4h3.661a6.456 6.456 0 0 0 6.437-6.437V6.437A6.4 6.4 0 0 0 31.986 0z"/>
                            </g>
                        </g>
                        <path id="Trazado_11266" d="M14.15 0a4.9 4.9 0 0 1 2.458.712A5.814 5.814 0 0 1 18.42 8.28c-.97 1.876-5.11 5.434-8.668 8.086a.323.323 0 0 1-.388 0c-3.558-2.652-7.7-6.21-8.668-8.086A5.831 5.831 0 0 1 2.506.712 4.555 4.555 0 0 1 4.964 0a4.763 4.763 0 0 1 3.817 1.358l.776 1.035.776-1.035A4.84 4.84 0 0 1 14.15 0" class="cls-5" transform="translate(9.891 7.637)"/>
                    </g>
                    <g id="Icon_material-camera-alt" class="cls-3" transform="rotate(-14.98 279.577 -166.218)">
                        <ellipse id="Elipse_551" cx="9.997" cy="9.996" class="cls-5" rx="9.997" ry="9.996" transform="translate(4.925 5.992)"/>
                        <path id="Trazado_11267" d="M10.16 5.08A5.08 5.08 0 1 1 5.08 0a5.08 5.08 0 0 1 5.08 5.08z" class="cls-6" transform="translate(10.795 10.795)"/>
                        <path id="Trazado_11268" d="M11.112 0L8.207 3.175H3.175A3.184 3.184 0 0 0 0 6.35V25.4a3.184 3.184 0 0 0 3.175 3.175h25.4A3.184 3.184 0 0 0 31.75 25.4V6.35a3.184 3.184 0 0 0-3.175-3.175h-5.032L20.637 0zm4.762 23.812a7.937 7.937 0 1 1 7.937-7.937 7.94 7.94 0 0 1-7.936 7.937z" class="cls-6"/>
                    </g>
                    <g id="Icon_ionic-md-megaphone" class="cls-3">
                        <path id="Trazado_11269" d="M2.577 0L0 2.566a9.093 9.093 0 0 1 2.666 6.426A9.093 9.093 0 0 1 0 15.418l2.577 2.577A12.7 12.7 0 0 0 6.3 9a12.726 12.726 0 0 0-3.723-9z" class="cls-6" transform="translate(36.48 7.073)"/>
                        <path id="Trazado_11270" d="M2.532 0L0 2.532a16.114 16.114 0 0 1 4.719 11.413A16.107 16.107 0 0 1 0 25.358l2.532 2.532a19.748 19.748 0 0 0 5.779-13.945A19.7 19.7 0 0 0 2.532 0z" class="cls-6" transform="translate(41.668 2.12)"/>
                        <path id="Trazado_11271" d="M32.129 11.613V0h-3.57L17.85 8.925H3.57L0 10.71V23.2l3.57 1.785 8.925 14.28h5.355L14.5 24.989h3.35l10.71 7.14h3.57V20.516a4.226 4.226 0 0 0 3.57-4.451 4.226 4.226 0 0 0-3.571-4.452z" class="cls-6"/>
                    </g>
                </g>
                <g id="Grupo_11404" transform="translate(0 5.672)">
                    <g id="Grupo_1650" transform="translate(0 59.489)">
                        <path id="ic_check_circle_24px" d="M40.355 2A38.355 38.355 0 1 0 78.71 40.355 38.369 38.369 0 0 0 40.355 2z" class="cls-7" transform="translate(-2 -2)"/>
                        <g id="Capa_2" transform="translate(16.391 18.74)">
                            <g id="Capa_1">
                                <path id="Trazado_2578" d="M8.9 81.514c-3.729-.257-6.388-2.885-8.189-6.407-1.548-3.036-.6-6.382 2.137-9.134q4.567-4.573 9.139-9.134c.191-.194.377-.393.584-.571A1.71 1.71 0 1 1 15 58.676c-.972 1.073-2.028 2.072-3.052 3.1-2.307 2.309-4.627 4.6-6.917 6.928a4.455 4.455 0 0 0-.117 6.644 17.959 17.959 0 0 0 1.45 1.433 4.4 4.4 0 0 0 6.44-.169q4.979-4.914 9.9-9.9c1.911-1.927 1.957-4.095.39-6.377a2.813 2.813 0 0 1-.374-2.184c.385-1.141 1.957-1.106 2.926-.06a7.7 7.7 0 0 1 .235 10.207c-3.669 3.945-7.551 7.7-11.416 11.465-1.345 1.29-3.13 1.737-5.565 1.751z" class="cls-5" transform="translate(.033 -40.506)"/>
                                <path id="Trazado_2579" d="M78.582 0c3.377 0 7.319 2.866 8.776 6.361 1.329 3.18.546 6.366-2.217 9.145q-4.673 4.663-9.314 9.336c-1.073 1.07-2.031 1.19-2.823.385s-.7-1.687.426-2.814c3.057-3.09 6.115-6.186 9.221-9.232 1.6-1.57 2.5-3.4 1.458-5.487C83 5.462 81.328 3.486 78.588 3.459A5.363 5.363 0 0 0 75.227 4.9c-3.4 3.191-6.672 6.53-9.934 9.871-1.911 1.955-1.976 4.138-.273 6.355.7.915.909 1.788 0 2.645-.805.753-1.763.562-2.7-.478a7.836 7.836 0 0 1 .08-10.435c3.549-3.683 7.212-7.275 10.856-10.876A7.224 7.224 0 0 1 78.582 0z" class="cls-5" transform="translate(-43.88)"/>
                            </g>
                        </g>
                    </g>
                    <g id="Icon_awesome-user-alt" class="cls-8">
                        <path d="M41.687 44.5H4.312c-1.55 0-2.812-1.262-2.812-2.813V40.25c0-2.672 1.04-5.183 2.929-7.071 1.888-1.889 4.4-2.93 7.071-2.93h4.631c2.192.955 4.501 1.438 6.869 1.438 2.376 0 4.686-.483 6.87-1.437h4.63c2.671 0 5.183 1.04 7.071 2.929 1.889 1.888 2.929 4.4 2.929 7.07v1.438c0 1.551-1.262 2.813-2.813 2.813zM23 24.375c-6.307 0-11.438-5.13-11.438-11.438C11.562 6.631 16.693 1.5 23 1.5s11.437 5.13 11.437 11.437c0 6.307-5.13 11.438-11.437 11.438z" class="cls-12" transform="translate(202.994)"/>
                        <path d="M41.687 43C42.411 43 43 42.41 43 41.687V40.25c0-4.687-3.813-8.5-8.5-8.5h-4.323c-2.288.954-4.699 1.437-7.177 1.437-2.47 0-4.88-.483-7.175-1.437H11.5c-4.687 0-8.5 3.813-8.5 8.5v1.437C3 42.411 3.589 43 4.312 43h37.375M23 22.875c5.48 0 9.937-4.458 9.937-9.938S28.48 3 23 3c-5.48 0-9.938 4.458-9.938 9.937 0 5.48 4.458 9.938 9.938 9.938M41.687 46H4.312C1.932 46 0 44.068 0 41.687V40.25c0-6.352 5.148-11.5 11.5-11.5h4.95c2.004.916 4.214 1.437 6.55 1.437 2.336 0 4.555-.52 6.55-1.437h4.95c6.352 0 11.5 5.148 11.5 11.5v1.437C46 44.068 44.068 46 41.687 46zM23 25.875c-7.143 0-12.938-5.795-12.938-12.938C10.062 5.795 15.857 0 23 0c7.143 0 12.937 5.795 12.937 12.937 0 7.143-5.794 12.938-12.937 12.938z" class="cls-13" transform="translate(202.994)"/>
                    </g>
                    <g id="Icon_awesome-user-alt-2" class="cls-8">
                        <path d="M41.687 44.5H4.312c-1.55 0-2.812-1.262-2.812-2.813V40.25c0-2.672 1.04-5.183 2.929-7.071 1.888-1.889 4.4-2.93 7.071-2.93h4.631c2.192.955 4.501 1.438 6.869 1.438 2.376 0 4.686-.483 6.87-1.437h4.63c2.671 0 5.183 1.04 7.071 2.929 1.889 1.888 2.929 4.4 2.929 7.07v1.438c0 1.551-1.262 2.813-2.813 2.813zM23 24.375c-6.307 0-11.438-5.13-11.438-11.438C11.562 6.631 16.693 1.5 23 1.5s11.437 5.13 11.437 11.437c0 6.307-5.13 11.438-11.437 11.438z" class="cls-12" transform="translate(202.994 66.696)"/>
                        <path d="M41.687 43C42.411 43 43 42.41 43 41.687V40.25c0-4.687-3.813-8.5-8.5-8.5h-4.323c-2.288.954-4.699 1.437-7.177 1.437-2.47 0-4.88-.483-7.175-1.437H11.5c-4.687 0-8.5 3.813-8.5 8.5v1.437C3 42.411 3.589 43 4.312 43h37.375M23 22.875c5.48 0 9.937-4.458 9.937-9.938S28.48 3 23 3c-5.48 0-9.938 4.458-9.938 9.937 0 5.48 4.458 9.938 9.938 9.938M41.687 46H4.312C1.932 46 0 44.068 0 41.687V40.25c0-6.352 5.148-11.5 11.5-11.5h4.95c2.004.916 4.214 1.437 6.55 1.437 2.336 0 4.555-.52 6.55-1.437h4.95c6.352 0 11.5 5.148 11.5 11.5v1.437C46 44.068 44.068 46 41.687 46zM23 25.875c-7.143 0-12.938-5.795-12.938-12.938C10.062 5.795 15.857 0 23 0c7.143 0 12.937 5.795 12.937 12.937 0 7.143-5.794 12.938-12.937 12.938z" class="cls-13" transform="translate(202.994 66.696)"/>
                    </g>
                    <g id="Icon_awesome-user-alt-3" class="cls-8">
                        <path d="M41.687 44.5H4.312c-1.55 0-2.812-1.262-2.812-2.813V40.25c0-2.672 1.04-5.183 2.929-7.071 1.888-1.889 4.4-2.93 7.071-2.93h4.631c2.192.955 4.501 1.438 6.869 1.438 2.376 0 4.686-.483 6.87-1.437h4.63c2.671 0 5.183 1.04 7.071 2.929 1.889 1.888 2.929 4.4 2.929 7.07v1.438c0 1.551-1.262 2.813-2.813 2.813zM23 24.375c-6.307 0-11.438-5.13-11.438-11.438C11.562 6.631 16.693 1.5 23 1.5s11.437 5.13 11.437 11.437c0 6.307-5.13 11.438-11.437 11.438z" class="cls-12" transform="translate(202.994 132.947)"/>
                        <path d="M41.687 43C42.411 43 43 42.41 43 41.687V40.25c0-4.687-3.813-8.5-8.5-8.5h-4.323c-2.288.954-4.699 1.437-7.177 1.437-2.47 0-4.88-.483-7.175-1.437H11.5c-4.687 0-8.5 3.813-8.5 8.5v1.437C3 42.411 3.589 43 4.312 43h37.375M23 22.875c5.48 0 9.937-4.458 9.937-9.938S28.48 3 23 3c-5.48 0-9.938 4.458-9.938 9.937 0 5.48 4.458 9.938 9.938 9.938M41.687 46H4.312C1.932 46 0 44.068 0 41.687V40.25c0-6.352 5.148-11.5 11.5-11.5h4.95c2.004.916 4.214 1.437 6.55 1.437 2.336 0 4.555-.52 6.55-1.437h4.95c6.352 0 11.5 5.148 11.5 11.5v1.437C46 44.068 44.068 46 41.687 46zM23 25.875c-7.143 0-12.938-5.795-12.938-12.938C10.062 5.795 15.857 0 23 0c7.143 0 12.937 5.795 12.937 12.937 0 7.143-5.794 12.938-12.937 12.938z" class="cls-13" transform="translate(202.994 132.947)"/>
                    </g>
                    <g id="Grupo_11507" transform="translate(97.191 85.669)">
                        <path id="Trazado_11330" d="M17.378-4.186L28.689 7.125 17.378 18.436" class="cls-9" transform="translate(60.33 4.186)"/>
                        <path id="Trazado_11337" d="M80.714.092H7.651" class="cls-10" transform="translate(-7.651 10.643)"/>
                    </g>
                    <g id="Grupo_11508" transform="rotate(-14.98 222.397 -340.612)">
                        <path id="Trazado_11330-2" d="M0 0l11.311 11.311L0 22.621" class="cls-9" transform="translate(77.709)"/>
                        <path id="Trazado_11339" d="M73.063 0H0" class="cls-10" transform="translate(0 10.735)"/>
                    </g>
                    <g id="Grupo_11509" transform="rotate(14.98 -427.938 448.59)">
                        <path id="Trazado_11330-3" d="M0 0l11.311 11.311L0 22.621" class="cls-9" transform="translate(77.709)"/>
                        <path id="Trazado_11338" d="M73.063 0H0" class="cls-10" transform="translate(0 10.735)"/>
                    </g>
                </g>
            </g>
            <g id="Grupo_11542" transform="translate(47.989 45.596)">
                <g id="Grupo_11405" transform="translate(0 53.47)">
                    <g id="Grupo_1650-2">
                        <path id="ic_check_circle_24px-2" d="M40.355 2A38.355 38.355 0 1 0 78.71 40.355 38.369 38.369 0 0 0 40.355 2z" class="cls-7" transform="translate(-2 -2)"/>
                        <g id="Capa_2-2" transform="translate(16.391 18.74)">
                            <g id="Capa_1-2">
                                <path id="Trazado_2578-2" d="M8.9 81.514c-3.729-.257-6.388-2.885-8.189-6.407-1.548-3.036-.6-6.382 2.137-9.134q4.567-4.573 9.139-9.134c.191-.194.377-.393.584-.571A1.71 1.71 0 1 1 15 58.676c-.972 1.073-2.028 2.072-3.052 3.1-2.307 2.309-4.627 4.6-6.917 6.928a4.455 4.455 0 0 0-.117 6.644 17.959 17.959 0 0 0 1.45 1.433 4.4 4.4 0 0 0 6.44-.169q4.979-4.914 9.9-9.9c1.911-1.927 1.957-4.095.39-6.377a2.813 2.813 0 0 1-.374-2.184c.385-1.141 1.957-1.106 2.926-.06a7.7 7.7 0 0 1 .235 10.207c-3.669 3.945-7.551 7.7-11.416 11.465-1.345 1.29-3.13 1.737-5.565 1.751z" class="cls-5" transform="translate(.033 -40.506)"/>
                                <path id="Trazado_2579-2" d="M78.582 0c3.377 0 7.319 2.866 8.776 6.361 1.329 3.18.546 6.366-2.217 9.145q-4.673 4.663-9.314 9.336c-1.073 1.07-2.031 1.19-2.823.385s-.7-1.687.426-2.814c3.057-3.09 6.115-6.186 9.221-9.232 1.6-1.57 2.5-3.4 1.458-5.487C83 5.462 81.328 3.486 78.588 3.459A5.363 5.363 0 0 0 75.227 4.9c-3.4 3.191-6.672 6.53-9.934 9.871-1.911 1.955-1.976 4.138-.273 6.355.7.915.909 1.788 0 2.645-.805.753-1.763.562-2.7-.478a7.836 7.836 0 0 1 .08-10.435c3.549-3.683 7.212-7.275 10.856-10.876A7.224 7.224 0 0 1 78.582 0z" class="cls-5" transform="translate(-43.88)"/>
                            </g>
                        </g>
                    </g>
                    <g id="Icon_awesome-user-alt-4" class="cls-8">
                        <path d="M41.687 44.5H4.312c-1.55 0-2.812-1.262-2.812-2.813V40.25c0-2.672 1.04-5.183 2.929-7.071 1.888-1.889 4.4-2.93 7.071-2.93h4.631c2.192.955 4.501 1.438 6.869 1.438 2.376 0 4.686-.483 6.87-1.437h4.63c2.671 0 5.183 1.04 7.071 2.929 1.889 1.888 2.929 4.4 2.929 7.07v1.438c0 1.551-1.262 2.813-2.813 2.813zM23 24.375c-6.307 0-11.438-5.13-11.438-11.438C11.562 6.631 16.693 1.5 23 1.5s11.437 5.13 11.437 11.437c0 6.307-5.13 11.438-11.437 11.438z" class="cls-12" transform="translate(197.265 7.208)"/>
                        <path d="M41.687 43C42.411 43 43 42.41 43 41.687V40.25c0-4.687-3.813-8.5-8.5-8.5h-4.323c-2.288.954-4.699 1.437-7.177 1.437-2.47 0-4.88-.483-7.175-1.437H11.5c-4.687 0-8.5 3.813-8.5 8.5v1.437C3 42.411 3.589 43 4.312 43h37.375M23 22.875c5.48 0 9.937-4.458 9.937-9.938S28.48 3 23 3c-5.48 0-9.938 4.458-9.938 9.937 0 5.48 4.458 9.938 9.938 9.938M41.687 46H4.312C1.932 46 0 44.068 0 41.687V40.25c0-6.352 5.148-11.5 11.5-11.5h4.95c2.004.916 4.214 1.437 6.55 1.437 2.336 0 4.555-.52 6.55-1.437h4.95c6.352 0 11.5 5.148 11.5 11.5v1.437C46 44.068 44.068 46 41.687 46zM23 25.875c-7.143 0-12.938-5.795-12.938-12.938C10.062 5.795 15.857 0 23 0c7.143 0 12.937 5.795 12.937 12.937 0 7.143-5.794 12.938-12.937 12.938z" class="cls-13" transform="translate(197.265 7.208)"/>
                    </g>
                    <g id="Grupo_11506" transform="translate(88.599 26.985)">
                        <path id="Trazado_11330-4" d="M17.378-4.186L28.689 7.125 17.378 18.436" class="cls-9" transform="translate(63.194 4.186)"/>
                        <path id="Trazado_11340" d="M80.714.092H7.651" class="cls-10" transform="translate(-7.651 10.643)"/>
                    </g>
                </g>
                <text id="_" fill="#accfff" font-family="OpenSans-Bold, Open Sans" font-size="39px" font-weight="700" letter-spacing="0.04em" opacity="0.5" transform="rotate(-25 411.146 -243.926)">
                    <tspan x="0" y="0">@</tspan>
                </text>
                <g id="Grupo_11446" class="cls-3" transform="translate(87.614 28.015)">
                    <path id="Unión_177" d="M14.364 45.353a5.862 5.862 0 0 1-2.5.534c-2.1 0-3.854-1.007-4.225-2.335L0 41.5 11.121 0l24.9 6.676L24.9 48.175z" class="cls-5" transform="translate(3.386 4.675)"/>
                    <path id="Icon_material-phone-iphone" d="M24.145 0H5.749A5.751 5.751 0 0 0 0 5.749v39.093a5.751 5.751 0 0 0 5.749 5.749h18.4a5.751 5.751 0 0 0 5.749-5.749V5.749A5.751 5.751 0 0 0 24.145 0zm-9.2 48.291a3.449 3.449 0 1 1 3.455-3.449 3.445 3.445 0 0 1-3.453 3.449zm10.348-9.2H4.6V6.9h20.7z" class="cls-6" transform="rotate(14.98 6.524 49.7)"/>
                </g>
                <g id="Grupo_11447" class="cls-3" transform="translate(146.77)">
                    <ellipse id="Elipse_549" cx="21.481" cy="15.753" class="cls-5" rx="21.481" ry="15.753" transform="translate(11.863 12.704)"/>
                    <path id="Icon_awesome-sms" d="M28.857 0C12.918 0 0 10.494 0 23.446a20.81 20.81 0 0 0 6.425 14.733C5.016 43.86.3 48.921.248 48.977a.9.9 0 0 0-.169.981.883.883 0 0 0 .821.542 25.778 25.778 0 0 0 15.85-5.795 34.377 34.377 0 0 0 12.106 2.187c15.939 0 28.857-10.494 28.857-23.446S44.8 0 28.857 0zM14.451 30.66h-1.375a.9.9 0 0 1-.9-.9v-1.8a.9.9 0 0 1 .9-.9h1.386c.676 0 1.172-.395 1.172-.744a.6.6 0 0 0-.237-.428l-2.469-2.119a4.167 4.167 0 0 1-1.5-3.167 4.583 4.583 0 0 1 4.779-4.351h1.375a.9.9 0 0 1 .9.9v1.8a.9.9 0 0 1-.9.9H16.2c-.676 0-1.172.395-1.172.744a.6.6 0 0 0 .237.428l2.469 2.119a4.167 4.167 0 0 1 1.5 3.167 4.576 4.576 0 0 1-4.783 4.351zm21.62-.9a.9.9 0 0 1-.9.9h-1.8a.9.9 0 0 1-.9-.9v-7.689l-2.8 6.29a.9.9 0 0 1-1.612 0l-2.807-6.29v7.688a.9.9 0 0 1-.9.9h-1.8a.9.9 0 0 1-.9-.9V18.035a1.809 1.809 0 0 1 1.8-1.8h1.8a1.8 1.8 0 0 1 1.612.992l2 3.99 2-3.99a1.808 1.808 0 0 1 1.612-.992h1.8a1.809 1.809 0 0 1 1.8 1.8zm5.444.9h-1.386a.9.9 0 0 1-.9-.9v-1.8a.9.9 0 0 1 .9-.9h1.386c.676 0 1.172-.395 1.172-.744a.6.6 0 0 0-.237-.428l-2.469-2.119a4.167 4.167 0 0 1-1.5-3.167 4.583 4.583 0 0 1 4.779-4.351h1.375a.9.9 0 0 1 .9.9v1.8a.9.9 0 0 1-.9.9h-1.384c-.676 0-1.172.395-1.172.744a.6.6 0 0 0 .237.428l2.469 2.119a4.167 4.167 0 0 1 1.5 3.167 4.565 4.565 0 0 1-4.77 4.351z" class="cls-6" transform="rotate(13 5.68 49.853)"/>
                </g>
            </g>
        </g>
    </g>
</svg>
