<svg xmlns="http://www.w3.org/2000/svg" id="Grupo_11771" width="692.535" height="266.14" viewBox="0 0 692.535 266.14">
    <defs>
        <clipPath id="clip-path">
            <path id="Rectángulo_2656" d="M0 0H692.535V266.14H0z" class="cls-1"/>
        </clipPath>
        <clipPath id="clip-path-2">
            <path id="Rectángulo_2691" fill="rgba(0,109,255,0.1)" d="M0 0H693.114V266.362H0z"/>
        </clipPath>
        <clipPath id="clip-path-3">
            <path id="Rectángulo_2714" d="M0 0H285.348V185.612H0z" class="cls-3"/>
        </clipPath>
        <filter id="Trazado_11305" width="231.647" height="397.844" x="49.738" y="72.059" filterUnits="userSpaceOnUse">
            <feOffset dy="5"/>
            <feGaussianBlur result="blur" stdDeviation="2"/>
            <feFlood flood-color="#006dff" flood-opacity=".102"/>
            <feComposite in2="blur" operator="in"/>
            <feComposite in="SourceGraphic"/>
        </filter>
        <style>
            .cls-1{fill:#fff}.cls-3{fill:#accffd}.cls-8{fill:#accfff}
        </style>
    </defs>
    <g id="Grupo_11349" clip-path="url(#clip-path)">
        <path id="Rectángulo_2705" fill="#e5f0ff" d="M0 0H692.535V266.14H0z"/>
        <g id="Grupo_11784" transform="translate(-.348 .002)">
            <g id="Enmascarar_grupo_15" clip-path="url(#clip-path-2)">
                <g id="phone" transform="translate(56.085 73.057)">
                    <path id="Trazado_11304" fill="#a0a7b9" d="M42.869 53.5A12.869 12.869 0 1 1 30 66.365 12.906 12.906 0 0 1 42.869 53.5z" transform="translate(66.955 313.579)"/>
                    <g id="Grupo_11413">
                        <g filter="url(#Trazado_11305)" transform="translate(-55.74 -73.06)">
                            <path id="Trazado_11305-2" d="M233.647 347.258c0 21.22-16.474 38.581-36.608 38.581H50.608C30.474 385.84 14 368.478 14 347.258V38.577C14 17.358 30.474 0 50.608 0h146.431c20.134 0 36.608 17.362 36.608 38.581z" class="cls-8" transform="translate(41.74 73.06)"/>
                        </g>
                        <path id="Trazado_11306" d="M34.157 14.7a6.1 6.1 0 0 1-.067-12.2h.067a6.1 6.1 0 0 1 0 12.2z" class="cls-1" transform="translate(57.546 12.767)"/>
                        <path id="Trazado_11307" d="M55.405 14.7H37.1a6.1 6.1 0 0 1 0-12.2h18.3a6.1 6.1 0 1 1 0 12.2z" class="cls-1" transform="translate(72.722 12.767)"/>
                        <path id="Trazado_11308" fill="#eef6ff" d="M16 7h195.242v299.32H16z" transform="translate(-3.797 35.723)"/>
                        <g id="Grupo_11418" transform="translate(65.9 71.673)">
                            <path id="ic_check_circle_24px" fill="#006dff" d="M44.83 2a42.83 42.83 0 1 0 42.83 42.83A42.845 42.845 0 0 0 44.83 2z" transform="translate(-2 -2)"/>
                            <path id="Icon_feather-check" fill="none" stroke="#fff" stroke-linecap="round" stroke-linejoin="round" stroke-width="8px" d="M48.3 9L19.218 38.08 6 24.862" transform="translate(16.671 19.29)"/>
                        </g>
                    </g>
                </g>
            </g>
            <g id="Grupo_11545" transform="translate(368.405 74.879)">
                <g id="Grupo_11544" clip-path="url(#clip-path-3)">
                    <path id="Trazado_11353" d="M34.723 136.359c-.8-4.877 2.827-9.546 8.463-9.777 9.643-.393 19.3-.408 28.954-.576 1.053-.018 2.108 0 2.031.758-1.91-2.469-3.762-4.987-5.744-7.4-3.813-4.637-2.627-10.035-2.4-15.269.452-10.333 1-20.663 1.488-31 .217-4.6 2.361-7.573 6.622-9.071 4.613-1.622 9.072-.71 11.925 2.722 4.524 5.454 8.838 11.069 13.416 16.46a6.825 6.825 0 0 0 4 2.093c4.42.578 8.884.869 13.339 1.12 3.285.184 4.28 2.227 4.32 5.009s-.937 4.924-4.137 5.243c-6.173.616-12.341 1.276-18.519 1.844-2.986.274-5.223-1.209-7.034-3.422-1.3-1.59-2.545-3.228-4.454-5.66-.469 7.02-.88 13.175-1.3 19.507 4.578.926 8.9 1.815 13.234 2.671 4.569.9 9.175 1.644 13.709 2.7a9.916 9.916 0 0 1 7.929 10.057c-.364 10.551-.115 21.124-.129 31.687-.007 4.531-1.654 6.588-5.3 6.667-4.03.089-6.033-2.007-6.393-6.5-.637-7.92-1.279-15.843-2.1-23.744a3.468 3.468 0 0 0-2.086-2.488c-6.76-1.065-13.56-1.875-20.919-2.837 3.917 4.081 4.051 8.805 4.049 13.566v27.061c1.173.079 2.213.209 3.253.21 10.019.015 20.04-.088 30.056.076 2.628.043 3.482-.952 4.1-3.324q7.294-28.109 14.839-56.152c1.29-4.818-1.766-8.512-3.035-12.66-.154-.5-1.463-.732-2.277-.933-3.568-.883-7.15-1.709-10.988-2.618l1.148-5.288c11.582 1.031 24.213-1.386 30.832 12.539 3.886-4.754 8.486-7.163 14.5-7.048v26.974l-9.845-2.456c1.922 4.959 3.436 9.316 5.364 13.481.413.893 2.3 1.469 3.548 1.549a33.552 33.552 0 0 1 15.261 4.259 25.2 25.2 0 0 1 11.433 14.24c-1.444.072-2.571.175-3.7.176-12.741.012-25.483.083-38.223-.058-2.439-.027-3.388.828-4.083 3.024-2.524 7.984-5.286 15.893-7.846 23.866-.582 1.815-1.4 2.514-3.405 2.51q-57.335-.1-114.67-.059c-4.678 0-7.586-2.135-8.7-7.214-2.595-11.824.784-22.023 9.593-30.189 2.722-2.525 6.325-4.1 9.88-6.332" class="cls-3" transform="translate(84.529 -21.91)"/>
                    <path id="Trazado_11354" fill="#026dfa" d="M53.8 131.827H0V91.513h21.58v13.047h10.506v-13.1H53.8z" transform="translate(89.517 -31.682)"/>
                    <path id="Trazado_11355" d="M270.927 228.034c-.04 15-12.095 27.249-26.8 27.242a27.277 27.277 0 0 1-27.334-27.437c.056-14.7 12.358-26.7 27.365-26.684a27.01 27.01 0 0 1 26.771 26.879m-26.619 12.754c6.665-.1 12.127-5.882 12.122-12.831a12.266 12.266 0 1 0-24.527.292c.2 7.013 5.766 12.641 12.4 12.539" class="cls-3" transform="translate(14.421 -69.68)"/>
                    <path id="Trazado_11356" d="M135.182 18.943a26.222 26.222 0 0 1-7.756 16.969c-4.424 4.569-8.692 5.262-14.507 2.641a22.774 22.774 0 0 1-12.611-25.668c1.705-7.1 6.175-11.257 13.337-12.552 11.582-2.095 21.642 5.9 21.537 18.611" class="cls-3" transform="translate(54.975)"/>
                    <path id="Trazado_11357" d="M31.892 252.329c4.58 0 8.934-.082 13.281.067a4.446 4.446 0 0 1 2.654 1.427c5.9 6.129 13.49 6.194 19.6.257a6.507 6.507 0 0 1 3.863-1.676c3.992-.217 8-.078 12.007-.078-.2 9.8-12.05 19.886-23.87 20.627-12.958.813-25.682-8.537-27.539-20.624" class="cls-3" transform="translate(78.47 -87.39)"/>
                    <rect id="Rectángulo_2715" width="34.227" height="8.592" class="cls-8" rx="2" transform="translate(46.494 60.584)"/>
                    <rect id="Rectángulo_2716" width="55.29" height="8.592" class="cls-8" rx="2" transform="translate(25.431 81.647)"/>
                    <rect id="Rectángulo_2717" width="42.126" height="8.592" class="cls-8" rx="2" transform="translate(38.596 102.709)"/>
                </g>
            </g>
        </g>
        <path id="Línea_325" fill="none" stroke="#fff" stroke-width="8px" d="M0 0L0 266.834" transform="translate(345.573 -.291)"/>
    </g>
</svg>
