<svg xmlns="http://www.w3.org/2000/svg" id="Grupo_11777" width="696.964" height="293.554" viewBox="0 0 696.964 293.554">
    <defs>
        <filter id="Rectángulo_2712" width="246.923" height="278.546" x="31.657" y="15.009" filterUnits="userSpaceOnUse">
            <feOffset dy="5"/>
            <feGaussianBlur result="blur" stdDeviation="2"/>
            <feFlood flood-color="#006dff" flood-opacity=".102"/>
            <feComposite in2="blur" operator="in"/>
            <feComposite in="SourceGraphic"/>
        </filter>
        <style>
            .cls-3{stroke-width:.3px}.cls-3,.cls-8{fill:#fff}.cls-3{stroke:#cee3ff}.cls-4,.cls-6{fill:#accfff}.cls-5{fill:#accffd;opacity:.202}.cls-6{opacity:.4}.cls-7{fill:#006dff}.cls-13{fill:none}.cls-12{stroke:none}
        </style>
    </defs>
    <path id="Rectángulo_2270" fill="#e5f0ff" d="M0 0H696.964V267.841H0z"/>
    <g id="Grupo_11398" transform="translate(37.657 16.009)">
        <g filter="url(#Rectángulo_2712)" transform="translate(-37.66 -16.01)">
            <g id="Rectángulo_2712-2" fill="#eef6ff" stroke="#98c4ff" stroke-width="0.3px" transform="translate(37.66 16.01)">
                <rect width="234.923" height="266.546" class="cls-12" rx="2"/>
                <rect width="234.623" height="266.246" x=".15" y=".15" class="cls-13" rx="1.85"/>
            </g>
        </g>
        <g id="Grupo_11530" transform="translate(11.52 17.28)">
            <g id="Rectángulo_2669" class="cls-3">
                <path d="M0 0H211.883V64.947H0z" class="cls-12"/>
                <path d="M0.15 0.15H211.733V64.79700000000001H0.15z" class="cls-13"/>
            </g>
            <rect id="Rectángulo_2671" width="52" height="6" class="cls-4" rx="3" transform="translate(19.898 15.711)"/>
            <path id="Rectángulo_2672" d="M0 0H173V21H0z" class="cls-5" transform="translate(19.898 26.711)"/>
        </g>
        <g id="Grupo_11531" transform="translate(11.52 89.595)">
            <g id="Rectángulo_2670" class="cls-3">
                <path d="M0 0H211.883V75.381H0z" class="cls-12"/>
                <path d="M0.15 0.15H211.733V75.23100000000001H0.15z" class="cls-13"/>
            </g>
            <g id="Grupo_11399" transform="translate(18.886 14.707)">
                <rect id="Rectángulo_2673" width="95.645" height="5.76" class="cls-4" rx="2.88" transform="translate(1.275)"/>
                <rect id="Rectángulo_2676" width="61.116" height="5.76" class="cls-6" rx="2.88" transform="translate(15.675 38.257)"/>
                <rect id="Rectángulo_2677" width="61.116" height="5.76" class="cls-6" rx="2.88" transform="translate(15.675 26.085)"/>
                <rect id="Rectángulo_2678" width="61.116" height="5.76" class="cls-6" rx="2.88" transform="translate(15.675 13.912)"/>
                <circle id="Elipse_565" cx="4.146" cy="4.146" r="4.146" class="cls-6" transform="translate(0 12.847)"/>
                <circle id="Elipse_566" cx="4.146" cy="4.146" r="4.146" class="cls-6" transform="translate(0 24.822)"/>
                <circle id="Elipse_567" cx="4.146" cy="4.146" r="4.146" class="cls-6" transform="translate(0 36.798)"/>
            </g>
        </g>
        <g id="Grupo_11532" transform="translate(11.52 173.116)">
            <g id="Rectángulo_2679" class="cls-3">
                <path d="M0 0H211.883V75.381H0z" class="cls-12"/>
                <path d="M0.15 0.15H211.733V75.23100000000001H0.15z" class="cls-13"/>
            </g>
            <rect id="Rectángulo_2680" width="52" height="6" class="cls-4" rx="3" transform="translate(19.898 14.875)"/>
            <path id="Rectángulo_2681" d="M0 0H141V20H0z" class="cls-5" transform="translate(19.898 26.875)"/>
            <path id="Rectángulo_2682" d="M0 0h62a1 1 0 0 1 1 1v18a1 1 0 0 1-1 1H0V0z" class="cls-7" transform="translate(129.898 26.875)"/>
            <rect id="Rectángulo_2683" width="40.32" height="5.76" class="cls-8" rx="2" transform="translate(141.121 34.076)"/>
        </g>
    </g>
    <g id="Grupo_11353" transform="translate(277.112 94.5)">
        <g id="Grupo_11333">
            <g id="Grupo_11328">
                <path id="Trazado_11335" fill="none" stroke="#006dff" stroke-dasharray="6 5" stroke-linecap="round" stroke-width="3px" d="M293.453.092H7.651" transform="translate(-7.651 39.408)"/>
                <g id="Grupo_11477" transform="translate(290.715)">
                    <path id="ic_check_circle_24px" d="M40.7 2a38.7 38.7 0 1 0 38.7 38.7A38.711 38.711 0 0 0 40.7 2z" class="cls-7" transform="translate(-2 -2)"/>
                    <path id="Icon_awesome-qrcode" d="M0 19.847h17.6V2.25H0zM5.866 8.116h5.866v5.866H5.866zm17.6-5.866v17.6h17.6V2.25zm11.728 11.731h-5.865V8.116h5.866zM0 43.31h17.6v-17.6H0zm5.866-11.731h5.866v5.866H5.866zm32.262-5.866h2.932v11.731h-8.8v-2.932h-2.931v8.8h-5.866v-17.6h8.8v2.933h5.866zm0 14.664h2.932v2.933h-2.933zm-5.866 0h2.933v2.933h-2.933z" class="cls-8" transform="translate(18.223 16.657)"/>
                </g>
                <g id="Componente_14_7" transform="translate(84.171 17.001)">
                    <g id="Unión_176" fill="#fff">
                        <path d="M91 44.5H-17c-3.033 0-5.5-2.467-5.5-5.5V4c0-3.032 2.467-5.5 5.5-5.5H91c3.033 0 5.5 2.468 5.5 5.5v35c0 3.033-2.467 5.5-5.5 5.5z" class="cls-12" transform="rotate(180 47.5 21.5)"/>
                        <path fill="#006dff" d="M-17 0c-2.21 0-4 1.791-4 4v35c0 2.21 1.79 4 4 4H91c2.21 0 4-1.79 4-4V4c0-2.209-1.79-4-4-4H-17m0-3H91c3.86 0 7 3.14 7 7v35c0 3.86-3.14 7-7 7H-17c-3.86 0-7-3.14-7-7V4c0-3.86 3.14-7 7-7z" transform="rotate(180 47.5 21.5)"/>
                    </g>
                    <text id="CREAR_QR" fill="#006dff" font-family="OpenSans-Bold, Open Sans" font-size="17px" font-weight="700" letter-spacing="0.1em" transform="translate(58 28)">
                        <tspan x="-47.798" y="0">CREAR QR</tspan>
                    </text>
                </g>
            </g>
        </g>
    </g>
</svg>
