<svg id="Layer_1" data-name="Layer 1" xmlns="http://www.w3.org/2000/svg" viewBox="0 0 49.59 52.87"><defs><style>.cls-1{fill:#fff;}</style></defs><title>sticky-logo</title><path class="cls-1" d="M30,41,25.8,45.22A12.83,12.83,0,0,1,7.66,27.07L18.84,15.89a2,2,0,0,0-2.76-2.76L4.9,24.32A16.73,16.73,0,0,0,28.56,48l4.18-4.18A2,2,0,0,0,30,41Z"/><path class="cls-1" d="M9.51,32.91a1.95,1.95,0,0,0,2.76,0L36.73,8.45A2,2,0,0,0,34,5.7L9.51,30.15A2,2,0,0,0,9.51,32.91Z"/><path class="cls-1" d="M27,25.92a2,2,0,0,0-2.76,0l-6.63,6.63a2,2,0,1,0,2.76,2.76L27,28.68A2,2,0,0,0,27,25.92Z"/><path class="cls-1" d="M49,3.86a2,2,0,0,0-2.76,0L33.88,16.24A2,2,0,1,0,36.63,19L49,6.62A2,2,0,0,0,49,3.86Z"/><path class="cls-1" d="M31.1,24.53l1.39-1.39a2,2,0,0,0-2.76-2.76l-1.39,1.39a2,2,0,1,0,2.76,2.76Z"/><path class="cls-1" d="M35,36l-.93.93a2,2,0,1,0,2.76,2.76l.93-.93A2,2,0,0,0,35,36Z"/><path class="cls-1" d="M21.89,43.38a1.94,1.94,0,0,0,1.38-.57L28.09,38a2,2,0,0,0-2.76-2.76l-4.82,4.82a2,2,0,0,0,1.38,3.33Z"/><path class="cls-1" d="M36.32,24.25l-6.84,6.84a2,2,0,1,0,2.76,2.76L39.08,27a2,2,0,0,0-2.76-2.76Z"/><rect class="cls-1" x="9.87" y="0.42" width="4.42" height="4.42" rx="1.18" ry="1.18" transform="translate(1.68 9.31) rotate(-45)"/><path class="cls-1" d="M2.8,9.3H4.5a.94.94,0,0,1,.94.94v1.7a.94.94,0,0,1-.94.94H2.8a.95.95,0,0,1-.95-.95v-1.7A.95.95,0,0,1,2.8,9.3Z" transform="translate(-6.77 5.83) rotate(-45)"/></svg>