<svg xmlns="http://www.w3.org/2000/svg" width="181.02" height="237.455" viewBox="0 0 181.02 237.455">
    <defs>
    <style>#prefix__Rocket{fill:url(#prefix__linear-gradient);}</style>
        <linearGradient id="prefix__linear-gradient" x1=".109" x2=".858" y1=".077" y2=".891" gradientUnits="objectBoundingBox">
            <stop offset="0" stop-color="#006dff"/>
            <stop offset="1" stop-color="#43d2f1"/>
        </linearGradient>
    </defs>
    <path id="prefix__Rocket" d="M-5036.478 16403.775v-35a4 4 0 0 1 4-4 4 4 0 0 1 4 4v35a4 4 0 0 1-4 4 4 4 0 0 1-4-4zm16-21v-70a4 4 0 0 1 4-4 4 4 0 0 1 4 4v70a4 4 0 0 1-4 4 4 4 0 0 1-4-4zm29.755-24.411a9.008 9.008 0 0 1 9.006-9 9 9 0 0 1 9 9 9 9 0 0 1-2.635 6.37 9 9 0 0 1-6.37 2.637 9.009 9.009 0 0 1-9.008-9.007zm6.012 0a2.994 2.994 0 0 0 2.995 2.993 3 3 0 0 0 3-2.993 3 3 0 0 0-3-3 3 3 0 0 0-3 3zm-67.767 2.413v-20a4 4 0 0 1 4-4 4 4 0 0 1 4 4v20a4 4 0 0 1-4 4 4 4 0 0 1-4-4zm16-4v-5a4 4 0 0 1 4-4 4 4 0 0 1 4 4v5a4 4 0 0 1-4 4 4 4 0 0 1-4-4zm0-17v-19a4 4 0 0 1 4-4 4 4 0 0 1 4 4v19a4 4 0 0 1-4 4 4 4 0 0 1-4-4zm-68.245-18.509a12 12 0 0 1 12-12 12 12 0 0 1 12 12 12.025 12.025 0 0 1-12 12 12 12 0 0 1-12-12zm5.992.021a6.009 6.009 0 0 0 6.007 6.013 6.016 6.016 0 0 0 6.013-6.016 6.006 6.006 0 0 0-6.011-6 6 6 0 0 0-6.008 6zm46.251 6.489v-15a4 4 0 0 1 4-4 4 4 0 0 1 4 4v15a4 4 0 0 1-4 4 4 4 0 0 1-4-4zm97.444.721a3 3 0 0 1 .876-2.125 3 3 0 0 1 2.124-.881 3 3 0 0 1 3.005 3.006 3.007 3.007 0 0 1-3.005 3.007 2.985 2.985 0 0 1-2.125-.879 3 3 0 0 1-.875-2.127zm-78.069-20.618a3.26 3.26 0 0 1-2.94-3.545v-3.258h-15.5a3.255 3.255 0 0 1-3.146-2.471c-.619-2.441-1.208-5-1.743-7.609l-12.831 15.413a3.249 3.249 0 0 1-2.2 1.013 3.255 3.255 0 0 1-3.417-3.088v-10.949a46.792 46.792 0 0 1 13.983-33.3l.28.279c-.729-8.111-1.124-16.285-1.124-24.06 0-44.172 26.2-63.489 27.322-64.3a3.255 3.255 0 0 1 3.792 0c1.12.816 27.32 20.134 27.32 64.3 0 7.691-.4 15.779-1.1 23.809l.14-.14a46.8 46.8 0 0 1 13.535 33.416v10.978a3.283 3.283 0 0 1-1.013 2.2 3.259 3.259 0 0 1-4.6-.123l-12.835-15.414c-.56 2.61-1.12 5.163-1.738 7.609a3.26 3.26 0 0 1-3.146 2.471h-15.5v3.229a2.952 2.952 0 0 1 0 .605 3.256 3.256 0 0 1-3.243 2.953c-.1 0-.195-.012-.293-.021zm25.642-25.053l10.5 12.576v-2.1a40.3 40.3 0 0 0-8.424-24.765c-.586 4.853-1.29 9.625-2.076 14.286zm-60.931 10.559v1.993l10.484-12.562c-.8-4.6-1.5-9.373-2.06-14.2a40.3 40.3 0 0 0-8.425 24.767zm38.975 1.235l12.942-.029c.507-2.108.956-4.27 1.4-6.485h-14.346zm-19.432 0h12.946v-6.49h-14.351c.449 2.218.9 4.38 1.4 6.488zm19.321-25.976v12.972h15.722a276.734 276.734 0 0 0 3.934-45.434 88.013 88.013 0 0 0-4.859-29.2h-35.883a87.661 87.661 0 0 0-4.776 29.2 277.159 277.159 0 0 0 3.933 45.433h15.441v-12.972a3.26 3.26 0 0 1 2.94-2.938 3.005 3.005 0 0 1 .309-.016 3.259 3.259 0 0 1 3.239 2.952zm-18.646-68.174h30.888a66.338 66.338 0 0 0-15.388-21.734 67 67 0 0 0-15.5 21.731zm93.458 93.8v-2.993h-3a3.005 3.005 0 0 1-3.006-3.006 3.005 3.005 0 0 1 3.005-3h3.015v-2.994a3 3 0 0 1 3-3 3 3 0 0 1 2.994 3v2.994h2.994v.021a2.985 2.985 0 0 1 2.118.875 2.992 2.992 0 0 1 .876 2.118 3 3 0 0 1-3 3h-2.994v2.993a3.007 3.007 0 0 1-3.006 3.007 3 3 0 0 1-2.126-.882 3 3 0 0 1-.875-2.13zm-147.01-18a3 3 0 0 1 .881-2.122 3 3 0 0 1 2.125-.877 3 3 0 0 1 2.125.877 3 3 0 0 1 .881 2.123 3 3 0 0 1-.879 2.127 3 3 0 0 1-2.127.879 3 3 0 0 1-2.13-.88 3 3 0 0 1-.877-2.132zm66.783-16.487a2.22 2.22 0 0 1 2.22-2.22 2.217 2.217 0 0 1 2.215 2.22 2.216 2.216 0 0 1-2.214 2.216 2.219 2.219 0 0 1-1.571-.649 2.22 2.22 0 0 1-.65-1.571zm59.218-4.5a3 3 0 0 1 3.005-3 3.006 3.006 0 0 1 3.006 3 3 3 0 0 1-.879 2.126 3 3 0 0 1-2.126.879 3 3 0 0 1-2.13-.88 3 3 0 0 1-.877-2.132zm-141-9.01v-3h-3.014a2.993 2.993 0 0 1-2.124-.88 3 3 0 0 1-.876-2.125 3.005 3.005 0 0 1 3-3.006h3.014v-2.993a3 3 0 0 1 3-2.994 2.991 2.991 0 0 1 2.118.876 2.992 2.992 0 0 1 .876 2.118v2.993h3v.021a3 3 0 0 1 2.994 3 2.989 2.989 0 0 1-.876 2.117 2.99 2.99 0 0 1-2.118.876h-2.978v3a3.006 3.006 0 0 1-3.006 3 3.007 3.007 0 0 1-2.129-.88 3.005 3.005 0 0 1-.88-2.129zm71.012-17.455a13 13 0 0 1 13-13 13 13 0 0 1 13 13 13 13 0 0 1-13 13 13.015 13.015 0 0 1-13-13.009zm5.2 0a7.8 7.8 0 0 0 7.8 7.8 7.8 7.8 0 0 0 7.8-7.8 7.8 7.8 0 0 0-7.8-7.8 7.8 7.8 0 0 0-7.8 7.794zm5.192-.009a2.6 2.6 0 0 1 2.6-2.6 2.6 2.6 0 0 1 2.594 2.6 2.6 2.6 0 0 1-2.594 2.6 2.6 2.6 0 0 1-1.842-.763 2.6 2.6 0 0 1-.76-1.844zm62.611-9.536a12 12 0 0 1 12-12 12 12 0 0 1 12 12 12.022 12.022 0 0 1-12 12 12 12 0 0 1-12-12.008zm12-5.992a6.012 6.012 0 0 0-6.012 6.013 6.014 6.014 0 0 0 6.012 6.014 6.009 6.009 0 0 0 6.007-6.013 6.007 6.007 0 0 0-5.991-6.029h-.017zm-126.021 11.991a3.006 3.006 0 0 1 3.005-3.007 3.007 3.007 0 0 1 3.006 3.007 3.008 3.008 0 0 1-3.006 3.007 3.007 3.007 0 0 1-3-3.013zm-21-30a9.008 9.008 0 0 1 9.007-9.009 9.009 9.009 0 0 1 9 9.009 9 9 0 0 1-9 9 9 9 0 0 1-6.371-2.635 9 9 0 0 1-2.638-6.37zm6.008 0a3 3 0 0 0 3 2.993 2.993 2.993 0 0 0 2.119-.876 2.994 2.994 0 0 0 .876-2.118 3 3 0 0 0-3-3 3 3 0 0 0-3 3zm111-6a3.006 3.006 0 0 1 3.006-3.006 3.006 3.006 0 0 1 3.005 3 3.008 3.008 0 0 1-3.006 3.008 3.006 3.006 0 0 1-2.128-.884 3.008 3.008 0 0 1-.877-2.132z" transform="translate(5123.241 -16170.82)"/>
</svg>
