<svg id="Layer_1" data-name="Layer 1" xmlns="http://www.w3.org/2000/svg" viewBox="0 0 317 92.7"><defs><style>.cls-1{fill:#fff;}</style></defs><title>clientes</title><path class="cls-1" d="M75.38,56.73l2.62,0A17.63,17.63,0,0,0,82.23,56a6.62,6.62,0,0,0,4.64-4.36,12,12,0,0,0,.64-4.21,10.62,10.62,0,0,0-2.17-7c-1.41-1.7-4.49-2.68-10-2.46V36.86s3.53.07,5.52.12c5.9.16,9.6,2.23,11,4a8.31,8.31,0,0,1,2.27,6c-.4,8.34-8.26,10.36-11.73,10.49,3.09,1.85,10.2,13.74,13.74,17.31,1.55,1.56,2.89,2,5.32,2.07v1.4H91.41c-1,0-3-5-7.08-10.86q-1.95-2.81-4-5.39a26.69,26.69,0,0,0-4.9-4.67Z"/><path class="cls-1" d="M72.5,78.23H59.25v-1.4h2.13A7.11,7.11,0,0,0,65,76.16a3.12,3.12,0,0,0,1.31-2.1,44.17,44.17,0,0,0,.29-6.6V38.26H57.75a23.91,23.91,0,0,0-5.35.38,4.8,4.8,0,0,0-2.57,2.31A16.29,16.29,0,0,0,48,46.8H46.6l.21-9.94H72.56Z"/><polygon class="cls-1" points="113.17 51.6 108.37 51.6 108.37 50.66 119 50.66 119 51.6 114.19 51.6 114.19 64.43 113.17 64.43 113.17 51.6"/><polygon class="cls-1" points="124.07 50.66 133.87 50.66 133.87 51.6 125.1 51.6 125.1 57.01 132.99 57.01 132.99 57.95 125.1 57.95 125.1 63.49 133.97 63.49 133.97 64.43 124.07 64.43 124.07 50.66"/><path class="cls-1" d="M148.55,59.65l-3.62-8-3.64,8Zm-4.09-9.09h1l6.41,13.87h-1.12L149,60.58h-8.13l-1.75,3.85H138Z"/><polygon class="cls-1" points="158.78 51.6 153.98 51.6 153.98 50.66 164.6 50.66 164.6 51.6 159.8 51.6 159.8 64.43 158.78 64.43 158.78 51.6"/><path class="cls-1" d="M175.35,57.8c2.3,0,4-1.16,4-3.15v0c0-1.85-1.46-3-4-3h-4.7v6.2Zm-5.67-7.14h5.78A5.42,5.42,0,0,1,179.34,52a3.63,3.63,0,0,1,1,2.56v0c0,2.31-1.71,3.62-4,3.94l4.55,5.89h-1.3l-4.39-5.71H170.7v5.71h-1Z"/><path class="cls-1" d="M198.05,57.58v0a6,6,0,0,0-5.88-6.2,5.9,5.9,0,0,0-5.84,6.16v0a6,6,0,0,0,5.88,6.2,5.9,5.9,0,0,0,5.84-6.16m-12.79,0v0a6.93,6.93,0,1,1,13.85,0v0a6.93,6.93,0,1,1-13.85,0"/><path class="cls-1" d="M218.1,57.8c2.3,0,4-1.16,4-3.15v0c0-1.85-1.46-3-4-3h-4.7v6.2Zm-5.67-7.14h5.79A5.42,5.42,0,0,1,222.1,52a3.62,3.62,0,0,1,1,2.56v0c0,2.31-1.71,3.62-4,3.94l4.55,5.89h-1.3L218,58.72h-4.51v5.71h-1Z"/><polygon class="cls-1" points="228.63 50.66 238.43 50.66 238.43 51.6 229.65 51.6 229.65 57.01 237.54 57.01 237.54 57.95 229.65 57.95 229.65 63.49 238.52 63.49 238.52 64.43 228.63 64.43 228.63 50.66"/><path class="cls-1" d="M253.11,59.65l-3.62-8-3.64,8ZM249,50.56h1l6.41,13.87h-1.12l-1.75-3.85h-8.13l-1.75,3.85H242.6Z"/><polygon class="cls-1" points="261.29 50.66 262.31 50.66 262.31 63.49 270.4 63.49 270.4 64.43 261.29 64.43 261.29 50.66"/><path class="cls-1" d="M88.76,27.24H86.67c1.4-2.79,1.19-5.79-.52-7.21a3.12,3.12,0,0,1,2.23.41c1.73,1.14,1.89,4.09.38,6.8m-6.1,0V20.9A2.18,2.18,0,0,1,85,20.25l.07,0a2,2,0,0,1,.36.19c1.74,1.14,1.89,4.09.38,6.8H82.66Zm-3.92,0c-1.51-2.7-1.36-5.66.38-6.8a2,2,0,0,1,.36-.19l.07,0a2.19,2.19,0,0,1,2.33.65v6.35H78.74Zm-2.58-6.8A3.11,3.11,0,0,1,78.39,20c-1.71,1.42-1.92,4.42-.52,7.21H75.78c-1.51-2.7-1.36-5.66.38-6.8M88.8,19.8a4.13,4.13,0,0,0-3.63-.31,3,3,0,0,0-2.91.69,3,3,0,0,0-2.9-.69,4.13,4.13,0,0,0-3.63.31c-2.12,1.39-2.35,4.92-.51,8a.4.4,0,0,0,.33.19H89a.4.4,0,0,0,.33-.19c1.84-3.11,1.61-6.63-.51-8"/><path class="cls-1" d="M82.42,16v-.54h.64v-.31h-.64v-.65h-.3v.65h-.66v.31h.66V16a1.39,1.39,0,1,0,.3,0"/><rect class="cls-1" x="75.35" y="29.2" width="13.75" height="0.85"/></svg>