<svg id="Layer_1" data-name="Layer 1" xmlns="http://www.w3.org/2000/svg" viewBox="0 0 317 92.7"><defs><style>.cls-1{fill:#fff;}</style></defs><title>clientes</title><path class="cls-1" d="M101.12,31.42a15.23,15.23,0,0,1,9.68,2.37,13.74,13.74,0,0,1,5.43,7.48,17,17,0,0,1-.35,10.92,14.37,14.37,0,0,1-5.81,7,14.94,14.94,0,0,1-10.52,1.83,13.92,13.92,0,0,1-8.34-4.95,15.62,15.62,0,0,1-3.29-11.18,14.79,14.79,0,0,1,4.16-9.56,14.1,14.1,0,0,1,9-4m-.2,4.35a8.23,8.23,0,0,0-5,3.05,12.42,12.42,0,0,0-2.45,8.31,12.28,12.28,0,0,0,2.32,6.72,7.92,7.92,0,0,0,4.45,2.94,8.76,8.76,0,0,0,6.34-.8,9.13,9.13,0,0,0,3.83-4.65,13.53,13.53,0,0,0,.06-9.69,9.89,9.89,0,0,0-3.4-4.54A8.11,8.11,0,0,0,100.92,35.77Z"/><path class="cls-1" d="M131.28,32a16.77,16.77,0,0,1,7.31-.46,17.19,17.19,0,0,1,3.78.93c-.18,1.46-.33,2.92-.43,4.38a15.61,15.61,0,0,0-5.21-1.23,8.53,8.53,0,0,0-5.66,1.64A10.67,10.67,0,0,0,127.2,44a13.39,13.39,0,0,0,1,7.79A8.92,8.92,0,0,0,132.07,56a10.56,10.56,0,0,0,10.13-.63c.09,1.58.26,3.15.36,4.74a16,16,0,0,1-6.47,1.18A14.61,14.61,0,0,1,127.9,59a14.08,14.08,0,0,1-4.61-5A16,16,0,0,1,121.43,45a15.17,15.17,0,0,1,3.26-8.63A13.32,13.32,0,0,1,131.28,32Z"/><path class="cls-1" d="M152.12,33.48a13.57,13.57,0,0,1,7.65-2.12,12.85,12.85,0,0,1,6.73,1.75A10.64,10.64,0,0,1,170.56,38a23.81,23.81,0,0,1,1.61,9.51h-20.4A9.39,9.39,0,0,0,162.25,57a18,18,0,0,0,6.28-1.89,8.33,8.33,0,0,0,1.46-.92c0,1.76,0,3.52,0,5.28a25.71,25.71,0,0,1-4.73,1.48,23.15,23.15,0,0,1-8,.06,13.14,13.14,0,0,1-6.79-3.24,12.64,12.64,0,0,1-3.27-5.22,20,20,0,0,1-1-6.07,17.08,17.08,0,0,1,1.25-7.26,12.69,12.69,0,0,1,4.68-5.73M154,38a10.6,10.6,0,0,0-2.27,5.57c.89.05,1.78,0,2.68,0h12.17a8.74,8.74,0,0,0-2.11-5.87A7.25,7.25,0,0,0,154,38Z"/><path class="cls-1" d="M188.9,31.89a13.22,13.22,0,0,1,6.59-.21,9,9,0,0,1,4.66,2.5,10.19,10.19,0,0,1,2.37,4.41,18.4,18.4,0,0,1,.59,5v17h-5.27V48.43a35.31,35.31,0,0,0-.47-7.84,6.44,6.44,0,0,0-2.31-3.93,6.32,6.32,0,0,0-4.36-1,7.36,7.36,0,0,0-4.85,2.4,11.1,11.1,0,0,0-2.41,5.38,40.47,40.47,0,0,0-.34,7.29q0,4.94,0,9.89h-5.3V32h5.11c0,1.53,0,3.07,0,4.61.27-.35.45-.76.71-1.11A9.78,9.78,0,0,1,188.9,31.89Z"/><path class="cls-1" d="M241.59,31.42A15.66,15.66,0,0,1,250.07,33a13.31,13.31,0,0,1,5,4.54,15.4,15.4,0,0,1,2.32,6.75,16.25,16.25,0,0,1-1.61,9.29,14.37,14.37,0,0,1-4.54,5.2,15,15,0,0,1-14.35,1.24A14,14,0,0,1,231,55.13a15.38,15.38,0,0,1-2.53-7,17.13,17.13,0,0,1,1.26-8.57A13.46,13.46,0,0,1,234.27,34a14.51,14.51,0,0,1,7.33-2.54m-.21,4.35a8.16,8.16,0,0,0-4.67,2.71,11.62,11.62,0,0,0-2.62,6,13.39,13.39,0,0,0,1.43,8.13,8.29,8.29,0,0,0,4.6,4,8.84,8.84,0,0,0,7-.65,9,9,0,0,0,3.6-4.2,13.69,13.69,0,0,0,.75-8.46A10.63,10.63,0,0,0,248,37.38,8.13,8.13,0,0,0,241.38,35.78Z"/><path class="cls-1" d="M59.53,32h5.8c2.5,7.59,5,15.17,7.54,22.75.07.22.15.43.24.64.9-2.47,1.7-5,2.56-7.47q2.7-8,5.4-15.92h5.28Q81.23,46.35,76.1,60.65H69.79Q64.68,46.34,59.53,32Z"/><path class="cls-1" d="M206,32h19.29v4.29h-7.57q0,7.93,0,15.87a5.06,5.06,0,0,0,1.69,3.9,4.3,4.3,0,0,0,2.6,1,6.75,6.75,0,0,0,3.7-1c0,1.5,0,3,0,4.49a15.64,15.64,0,0,1-5,.78,11.31,11.31,0,0,1-4.21-.9,6.5,6.5,0,0,1-3.14-3,9.31,9.31,0,0,1-.93-4.21q0-8.45,0-16.91H206Z"/></svg>