<?xml version="1.0" encoding="utf-8"?>
<!-- Generator: Adobe Illustrator 23.0.3, SVG Export Plug-In . SVG Version: 6.00 Build 0)  -->
<svg version="1.1" id="Layer_1" xmlns="http://www.w3.org/2000/svg" xmlns:xlink="http://www.w3.org/1999/xlink" x="0px" y="0px"
	 viewBox="0 0 317 92.7" style="enable-background:new 0 0 317 92.7;" xml:space="preserve">
<style type="text/css">
	.st0{fill:#FFFFFF;}
</style>
<title>clientes</title>
<g>
	<g>
		<path class="st0" d="M160.8,30.9c0-1-0.8-1.9-1.9-1.9c-1,0-1.9,0.8-1.9,1.9h0v10.6h0c0,1,0.8,1.9,1.9,1.9c1,0,1.9-0.8,1.9-1.9h0
			L160.8,30.9L160.8,30.9z"/>
		<path class="st0" d="M169.4,38.5c-0.8-0.8-1.6-1.4-2.5-2c0,0,0,0,0,0c0,0,0,0-0.1,0c-0.3-0.2-0.6-0.3-1-0.3c-1,0-1.9,0.8-1.9,1.9
			c0,0.7,0.3,1.3,0.9,1.6c0.7,0.4,1.3,0.9,1.9,1.5c2.2,2.2,3.2,4.7,3.2,7.8c0,3.1-1.1,5.6-3.2,7.8c-2.2,2.2-4.7,3.2-7.8,3.2
			c-3.1,0-5.6-1.1-7.8-3.2c-2.2-2.2-3.2-4.7-3.2-7.8c0-3.1,1.1-5.6,3.2-7.8c0.6-0.6,1.2-1.1,1.9-1.5c0.5-0.3,0.9-0.9,0.9-1.6
			c0-1-0.8-1.9-1.9-1.9c-0.4,0-0.7,0.1-1,0.3c0,0,0,0-0.1,0c0,0,0,0,0,0c-0.9,0.6-1.7,1.2-2.5,2c-2.9,2.9-4.3,6.4-4.3,10.4
			c0,4.1,1.5,7.6,4.3,10.4c2.9,2.9,6.4,4.3,10.5,4.3c4.1,0,7.6-1.5,10.5-4.3c2.9-2.9,4.3-6.4,4.3-10.4
			C173.7,44.9,172.2,41.4,169.4,38.5z"/>
		<path class="st0" d="M203.9,54c0-1-0.8-1.9-1.8-1.9c-0.7,0-1.3,0.4-1.6,1.1l0,0c0,0,0,0,0,0.1c0,0,0,0,0,0
			c-0.5,1.2-1.3,2.4-2.2,3.4c-2.1,2.2-4.5,3.2-7.4,3.2h-1.3c-2.9,0-5.3-1.1-7.4-3.2c-2.1-2.2-3-4.7-3-7.8v-4.3h10.1
			c1,0,1.8-0.8,1.8-1.9c0-1-0.8-1.9-1.8-1.9h-10.1v-10c0-1-0.8-1.9-1.8-1.9s-1.8,0.8-1.8,1.9V49c0,4.1,1.4,7.6,4.1,10.4
			c2.7,2.9,6,4.3,9.9,4.3h1.3c3.9,0,7.2-1.5,9.9-4.3c1.3-1.4,2.4-3,3-4.7l0,0C203.9,54.5,203.9,54.3,203.9,54z"/>
		<path class="st0" d="M263.5,53.2c-0.7,0-1.3,0.4-1.6,0.9c-0.5,0.9-1.2,1.8-2,2.6c-2.2,2.2-4.7,3.2-7.8,3.2c-3.1,0-5.6-1.1-7.8-3.2
			c-2.2-2.2-3.2-4.7-3.2-7.8c0-3.1,1.1-5.6,3.2-7.8c2.2-2.2,4.7-3.2,7.8-3.2c3.1,0,5.6,1.1,7.8,3.2c0.8,0.8,1.5,1.7,2,2.6
			c0.3,0.5,0.9,0.9,1.6,0.9c1,0,1.9-0.8,1.9-1.9c0-0.3-0.1-0.7-0.2-0.9c-0.7-1.2-1.5-2.3-2.5-3.4c-2.9-2.9-6.4-4.3-10.5-4.3
			c-4.1,0-7.6,1.5-10.4,4.3c-2.9,2.9-4.3,6.4-4.3,10.4s1.5,7.6,4.3,10.4c2.9,2.9,6.4,4.3,10.4,4.3c4.1,0,7.6-1.4,10.5-4.3
			c1-1,1.9-2.2,2.5-3.4c0.2-0.3,0.2-0.6,0.2-0.9C265.3,54.1,264.5,53.2,263.5,53.2z"/>
		<g>
			<path class="st0" d="M140.3,53.2c-0.7,0-1.3,0.4-1.6,0.9c-0.5,0.9-1.2,1.8-2,2.6c-2.2,2.2-4.7,3.2-7.8,3.2
				c-3.1,0-5.6-1.1-7.8-3.2C119,54.6,118,52,118,49c0-3.1,1.1-5.6,3.2-7.8c2.2-2.2,4.7-3.2,7.8-3.2c3.1,0,5.6,1.1,7.8,3.2
				c0.8,0.8,1.5,1.7,2,2.6c0.3,0.5,0.9,0.9,1.6,0.9c1,0,1.9-0.8,1.9-1.9c0-0.3-0.1-0.7-0.2-0.9c-0.7-1.2-1.5-2.3-2.5-3.4
				c-2.9-2.9-6.4-4.3-10.5-4.3c-4.1,0-7.6,1.5-10.4,4.3c-2.9,2.9-4.3,6.4-4.3,10.4s1.5,7.6,4.3,10.4c2.9,2.9,6.4,4.3,10.4,4.3
				c4.1,0,7.6-1.4,10.5-4.3c1-1,1.9-2.2,2.5-3.4c0.2-0.3,0.2-0.6,0.2-0.9C142.2,54.1,141.4,53.2,140.3,53.2z"/>
			<path class="st0" d="M78.9,53.2c-0.7,0-1.3,0.4-1.6,0.9c-0.5,0.9-1.2,1.8-2,2.6c-2.2,2.2-4.7,3.2-7.8,3.2c-3.1,0-5.6-1.1-7.8-3.2
				c-2.2-2.2-3.2-4.7-3.2-7.8c0-3.1,1.1-5.6,3.2-7.8c2.2-2.2,4.7-3.2,7.8-3.2c3.1,0,5.6,1.1,7.8,3.2c0.8,0.8,1.5,1.7,2,2.6
				c0.3,0.5,0.9,0.9,1.6,0.9c1,0,1.9-0.8,1.9-1.9c0-0.3-0.1-0.7-0.2-0.9c-0.7-1.2-1.5-2.3-2.5-3.4c-2.9-2.9-6.4-4.3-10.5-4.3
				c-4.1,0-7.6,1.5-10.4,4.3c-2.9,2.9-4.3,6.4-4.3,10.4s1.5,7.6,4.3,10.4c2.9,2.9,6.4,4.3,10.4,4.3c4.1,0,7.6-1.4,10.5-4.3
				c1-1,1.9-2.2,2.5-3.4c0.2-0.3,0.2-0.6,0.2-0.9C80.8,54.1,80,53.2,78.9,53.2z"/>
			<path class="st0" d="M110.1,50.3L110.1,50.3c1.2,0,2.1-0.9,2.1-2.1l0,0c-0.2-3.7-1.6-7-4.3-9.7c-2.9-2.9-6.4-4.3-10.4-4.3
				c-4.1,0-7.6,1.5-10.4,4.3c-2.9,2.9-4.3,6.4-4.3,10.4c0,4.1,1.5,7.6,4.3,10.4c2.9,2.9,6.4,4.3,10.4,4.3c4.1,0,7.6-1.5,10.5-4.3
				c1.4-1.4,2.4-2.9,3.2-4.6c0.1-0.2,0.2-0.5,0.2-0.8c0-1-0.8-1.9-1.9-1.9c-0.8,0-1.5,0.5-1.8,1.2c-0.5,1.3-1.3,2.4-2.4,3.5
				c-2.2,2.2-4.7,3.2-7.8,3.2c-3.1,0-5.6-1.1-7.8-3.2c-1.8-1.8-2.9-4-3.1-6.4L110.1,50.3L110.1,50.3z M89.7,41.2
				c2.2-2.2,4.7-3.2,7.8-3.2c3.1,0,5.6,1.1,7.8,3.2c1.6,1.6,2.5,3.3,3,5.3H86.8C87.2,44.5,88.2,42.8,89.7,41.2z"/>
		</g>
		<path class="st0" d="M233.3,50.3L233.3,50.3c1.2,0,2.1-0.9,2.1-2.1l0,0c-0.2-3.7-1.6-7-4.3-9.7c-2.9-2.9-6.4-4.3-10.4-4.3
			c-4.1,0-7.6,1.5-10.4,4.3c-2.9,2.9-4.3,6.4-4.3,10.4c0,4.1,1.5,7.6,4.3,10.4c2.9,2.9,6.4,4.3,10.4,4.3c4.1,0,7.6-1.5,10.5-4.3
			c1.4-1.4,2.4-2.9,3.2-4.6c0.1-0.2,0.2-0.5,0.2-0.8c0-1-0.8-1.9-1.9-1.9c-0.8,0-1.5,0.5-1.8,1.2c-0.5,1.3-1.3,2.4-2.4,3.5
			c-2.2,2.2-4.7,3.2-7.8,3.2c-3.1,0-5.6-1.1-7.8-3.2c-1.8-1.8-2.9-4-3.1-6.4L233.3,50.3L233.3,50.3z M212.9,41.2
			c2.2-2.2,4.7-3.2,7.8-3.2c3.1,0,5.6,1.1,7.8,3.2c1.6,1.6,2.5,3.3,3,5.3h-21.5C210.3,44.5,211.3,42.8,212.9,41.2z"/>
	</g>
</g>
</svg>
