<?xml version="1.0" encoding="utf-8"?>
<!-- Generator: Adobe Illustrator 23.0.3, SVG Export Plug-In . SVG Version: 6.00 Build 0)  -->
<svg version="1.1" id="Layer_1" xmlns="http://www.w3.org/2000/svg" xmlns:xlink="http://www.w3.org/1999/xlink" x="0px" y="0px"
	 viewBox="0 0 317 92.7" style="enable-background:new 0 0 317 92.7;" xml:space="preserve">
<style type="text/css">
	.st0{fill:#FFFFFF;}
	.st1{fill-rule:evenodd;clip-rule:evenodd;fill:#FFFFFF;}
</style>
<title>clientes</title>
<g>
	<path class="st0" d="M94.9,44.9h-8.2l-1.8,6.9h-1.3c-1.6,0-2.6-0.6-3.1-1.6c-0.5-1-0.5-2.3-0.1-3.8c0.2-0.9,0.6-1.8,1.1-2.7
		c0.6-0.9,1.5-1.7,2.6-2.4c1.2-0.6,2.8-1,4.8-1c1,0,1.9,0.1,2.8,0.1c0.9,0.1,1.7,0.2,2.4,0.4l2.7-6.9c-1-0.3-2.2-0.5-3.4-0.7
		c-1.2-0.1-2.6-0.2-4-0.2c-3.4,0-6.3,0.6-8.7,1.8c-2.3,1.1-4.2,2.7-5.6,4.6c-1.4,2-2.4,4.1-3,6.6c-0.6,2.4-0.7,4.6-0.3,6.5
		c0.4,2,1.4,3.5,3.1,4.7c1.6,1.2,4,1.8,7.1,1.8c1.8,0,3.4-0.1,4.9-0.2c1.5-0.1,3-0.4,4.5-0.6L94.9,44.9"/>
	<path class="st1" d="M96.8,46c-0.6,2.4-0.7,4.6-0.2,6.5c0.4,2,1.4,3.5,3,4.7c1.5,1.2,3.7,1.8,6.4,1.8c2.7,0,5.1-0.6,7.3-1.8
		c2.1-1.2,3.9-2.7,5.4-4.7c1.4-2,2.5-4.1,3.1-6.5c0.6-2.4,0.7-4.6,0.2-6.5c-0.4-1.9-1.4-3.5-3-4.7c-1.6-1.2-3.7-1.8-6.4-1.8
		c-2.7,0-5.1,0.6-7.3,1.8c-2.1,1.2-3.9,2.7-5.4,4.7C98.5,41.4,97.5,43.6,96.8,46 M113,46c-0.4,1.6-1,3-1.8,4.1
		c-0.8,1.1-2,1.6-3.4,1.7c-1.4,0-2.3-0.6-2.6-1.7c-0.3-1.1-0.2-2.4,0.2-4.1c0.4-1.6,1-3,1.8-4.1c0.8-1.1,2-1.6,3.4-1.7
		c1.4,0,2.3,0.6,2.6,1.7C113.5,43,113.5,44.4,113,46"/>
	<polygon class="st0" points="121.2,58.9 140.6,58.9 142.5,51.6 131.4,51.6 136.3,33 127.9,33 	"/>
	<path class="st1" d="M155.7,40.4h2.6c1.3,0,2.3,0.4,3,1.3c0.7,0.9,0.9,2.3,0.4,4.3c-0.5,1.9-1.3,3.3-2.5,4.2
		c-1.2,0.9-2.6,1.3-4.3,1.3h-2.1L155.7,40.4z M142.5,58.9H155c1.8,0,3.7-0.2,5.7-0.9c2-0.6,3.9-1.9,5.6-3.8c1.7-1.9,3.1-4.7,4.1-8.4
		c0.9-3.9,1-6.7,0.1-8.5c-0.8-1.8-2.2-3-4-3.5c-1.8-0.5-3.7-0.8-5.7-0.7h-11.5L142.5,58.9z"/>
	<path class="st0" d="M188.5,51.1c-1.3,0.2-2.5,0.3-3.8,0.3c-1.6,0-2.8-0.3-3.5-0.8c-0.7-0.5-1.2-1.2-1.3-2
		c-0.1-0.8-0.1-1.7,0.2-2.5c0.2-0.7,0.5-1.5,1-2.3c0.5-0.8,1.3-1.5,2.4-2.1c1.1-0.6,2.5-0.9,4.3-0.9c0.4,0,0.9,0,1.5,0.1
		c0.6,0.1,1.2,0.2,1.8,0.3l3-7.3c-0.9-0.2-1.8-0.4-2.7-0.5c-0.9-0.1-2-0.2-3.2-0.2c-4.5,0-8.2,1.2-11,3.5c-2.8,2.3-4.7,5.5-5.7,9.5
		c-0.6,2.4-0.7,4.6-0.2,6.5c0.5,2,1.4,3.5,3,4.7c1.5,1.2,3.7,1.8,6.4,1.8c1.4,0,2.6-0.1,3.8-0.2c1.2-0.1,2.3-0.3,3.3-0.5L188.5,51.1
		"/>
	<path class="st1" d="M189.2,58.9h9.2l1.9-3.9h7.5l-0.1,3.9h9L214.6,33l-9.6,0L189.2,58.9z M208,39.2L208,39.2l-0.1,9.4h-4.4
		L208,39.2"/>
	<path class="st1" d="M226.1,58.9l2.2-8.3h1.3c0.4,0,0.7,0.1,0.9,0.4c0.2,0.3,0.3,0.8,0.4,1.6l0.5,6.2h9.7c-0.3-3.1-0.6-5.4-0.9-7
		c-0.3-1.6-0.7-2.7-1.2-3.3c-0.5-0.6-1.1-1-1.8-1.2l0-0.1c1.6-0.1,3-0.8,4.3-2c1.3-1.2,2.1-2.7,2.6-4.5c0.6-2.2,0.4-4-0.5-5.5
		c-1-1.5-3.1-2.2-6.5-2.3h-12.6l-6.7,25.9H226.1z M231.3,39.2h2c1,0,1.7,0.3,1.9,0.7c0.2,0.5,0.2,1.2,0,2.1c-0.3,1.1-0.7,1.7-1.3,2
		c-0.6,0.3-1.3,0.4-2.1,0.4h-1.8L231.3,39.2"/>
</g>
</svg>
