<svg width="176" height="42" viewBox="0 0 176 42" fill="none" xmlns="http://www.w3.org/2000/svg">
<g clip-path="url(#clip0_1642_31989)">
<path d="M27.5312 0.640137H38.4683V42.0001H35.8283V34.7087C35.8283 34.3316 35.7026 31.6916 33.314 30.183C31.8054 29.1773 30.7997 28.423 30.5483 28.2973C21.874 21.6344 25.1426 7.68014 27.5312 0.640137Z" fill="white"/>
<mask id="mask0_1642_31989" style="mask-type:alpha" maskUnits="userSpaceOnUse" x="24" y="0" width="15" height="43">
<path d="M27.5312 0.640137H38.4683V42.0001H35.8283V34.7087C35.8283 34.3316 35.7026 31.6916 33.314 30.183C31.8054 29.1773 30.7997 28.423 30.5483 28.2973C21.874 21.6344 25.1426 7.68014 27.5312 0.640137Z" fill="#C3003F"/>
</mask>
<g mask="url(#mask0_1642_31989)">
<path d="M35.8284 -42.2283L22.6284 -7.27975V13.3374H91.7713V-51.0283L35.8284 -42.2283Z" fill="#8A8A8A"/>
</g>
<path d="M6.03411 32.5714V37.2229H6.91411V31.9429H6.03411L5.53125 32.1943V32.8229L6.03411 32.5714Z" fill="black"/>
<path d="M31.8055 31.8173C33.8169 32.9487 33.8169 35.0859 33.8169 35.463V42.0001H-0.000244141V0.640137H25.7712C23.2569 8.30871 19.8626 23.0173 29.0398 29.8059C29.1655 29.9316 30.2969 30.8116 31.8055 31.8173Z" fill="white"/>
<path d="M9.80537 31.8174C8.42252 31.8174 7.79395 32.5717 7.79395 33.7031C7.79395 34.8345 8.67395 35.4631 9.80537 35.4631C10.4339 35.4631 11.0625 35.3374 11.4397 34.9602C11.4397 35.966 10.9368 36.846 9.93109 36.846C9.30252 36.846 8.54823 36.4688 8.54823 35.5888H7.79395C7.79395 36.846 8.79966 37.4745 9.93109 37.4745C11.3139 37.4745 12.1939 36.7202 12.1939 34.7088C12.1939 32.3202 11.3139 31.8174 9.80537 31.8174ZM8.54823 33.5774C8.54823 32.9488 9.05109 32.446 9.93109 32.446C10.8111 32.446 11.3139 32.9488 11.3139 33.5774C11.3139 34.206 10.8111 34.7088 9.93109 34.7088C9.05109 34.7088 8.54823 34.206 8.54823 33.5774Z" fill="black"/>
<path d="M15.7141 32.6972L15.4627 33.0743C14.9599 33.9543 13.577 36.4686 13.577 37.2229H14.457C14.457 36.0914 15.4627 34.7086 16.0913 33.3257L16.3427 32.8229V31.9429H12.5713V32.6972H15.7141Z" fill="black"/>
<path d="M19.1083 32.4457C19.8626 32.4457 20.2397 32.8228 20.2397 33.3257C20.2397 33.7028 19.9883 34.08 19.234 34.08H18.6055V34.7085H18.9826C19.7369 34.7085 20.2397 34.96 20.2397 35.5885C20.2397 36.2171 19.7369 36.5943 18.9826 36.5943C18.2283 36.5943 17.5997 36.0914 17.5997 35.3371H16.8455C16.9712 36.72 17.8512 37.2228 19.1083 37.2228C20.2397 37.2228 21.1197 36.72 21.1197 35.5885C21.1197 35.0857 20.8683 34.4571 20.2397 34.3314C20.8683 34.08 21.1197 33.7028 21.1197 33.0743C21.1197 32.0685 20.114 31.6914 19.1083 31.6914C17.7255 31.6914 17.0969 32.32 16.9712 33.4514H17.7255C17.8512 32.8228 18.354 32.4457 19.1083 32.4457Z" fill="black"/>
<path d="M54.0568 39.2343H55.1882V36.2172C55.5654 36.5943 56.194 36.9715 57.074 36.9715C58.7082 36.9715 59.9654 35.9658 59.9654 33.9543C59.9654 31.8172 58.7082 30.9372 57.074 30.9372C56.194 30.9372 55.4397 31.1886 54.9368 31.6915V31.0629H54.0568V39.2343ZM57.074 36.0915C55.9425 36.0915 55.0625 35.0858 55.0625 34.08C55.0625 33.0743 55.8168 32.0686 56.9482 32.0686C58.2054 32.0686 58.9597 32.9486 58.9597 33.9543C58.9597 35.0858 58.3311 36.0915 57.074 36.0915ZM61.3482 36.8458H62.4797V28.8H61.3482V36.8458ZM66.6282 31.9429C67.5082 31.9429 68.0111 32.32 68.0111 32.8229C68.0111 33.0743 67.7597 33.3258 67.2568 33.4515C66.754 33.5772 66.1254 33.5772 65.6225 33.7029C64.8682 33.8286 63.7368 34.08 63.7368 35.2115C63.7368 36.4686 64.6168 37.0972 66.1254 37.0972C67.0054 37.0972 67.634 36.72 68.1368 36.3429V36.9715H69.1425V33.2C69.1425 31.8172 68.3882 31.0629 66.6282 31.0629C65.1197 31.0629 63.9882 31.6915 63.9882 33.0743V33.3258H65.1197C64.994 32.6972 65.3711 31.9429 66.6282 31.9429ZM68.0111 34.2058C68.0111 35.3372 67.2568 36.0915 66.1254 36.0915C65.2454 36.0915 64.7425 35.5886 64.7425 35.0858C64.7425 34.7086 64.994 34.4572 65.874 34.3315C66.2511 34.3315 66.6282 34.2058 67.0054 34.2058C67.634 34.2058 67.8854 34.08 68.0111 33.9543V34.2058ZM75.0511 34.7086C74.9254 35.4629 74.1711 36.0915 73.2911 36.0915C72.2854 36.0915 71.4054 35.3372 71.4054 33.9543C71.4054 32.9486 72.1597 32.0686 73.2911 32.0686C74.2968 32.0686 74.9254 32.6972 74.9254 33.3258H76.0568C75.9311 31.9429 74.7997 31.0629 73.1654 31.0629C71.4054 31.0629 70.1482 32.32 70.1482 34.08C70.1482 35.84 71.154 37.0972 73.1654 37.0972C74.674 37.0972 75.9311 36.2172 76.0568 34.7086H75.0511ZM81.8397 34.7086C81.5882 35.4629 81.0854 35.9658 79.954 35.9658C78.8225 35.9658 78.0682 35.0858 78.0682 34.2058H82.8454V33.9543C82.8454 32.0686 81.5882 31.0629 79.8282 31.0629C77.8168 31.0629 76.8111 32.32 76.8111 34.08C76.8111 35.9658 78.0682 37.0972 79.8282 37.0972C81.4625 37.0972 82.594 36.3429 82.7197 34.8343H81.8397V34.7086ZM78.3197 33.3258C78.4454 32.5715 79.074 31.9429 80.0797 31.9429C81.2111 31.9429 81.714 32.5715 81.8397 33.3258H78.3197ZM89.2568 33.3258C89.1311 31.6915 88.2511 31.0629 86.994 31.0629C86.114 31.0629 85.6111 31.3143 85.3597 31.6915V31.1886H84.2282V36.8458H85.3597V33.5772C85.3597 32.6972 85.8625 32.0686 86.8682 32.0686C87.6225 32.0686 87.9997 32.5715 88.1254 33.3258H89.2568ZM98.3082 28.8H97.1768V31.6915C96.674 31.1886 96.1711 31.0629 95.1654 31.0629C93.5311 31.0629 92.274 32.1943 92.274 33.9543C92.274 35.9658 93.5311 36.9715 95.2911 36.9715C96.1711 36.9715 96.7997 36.5943 97.1768 36.2172V36.8458H98.1825V28.8H98.3082ZM95.4168 31.9429C96.4225 31.9429 97.3025 32.8229 97.3025 33.9543C97.3025 35.0858 96.5482 35.9658 95.4168 35.9658C94.2854 35.9658 93.5311 34.96 93.5311 33.9543C93.5311 32.9486 94.2854 31.9429 95.4168 31.9429ZM104.468 34.7086C104.217 35.4629 103.714 35.9658 102.583 35.9658C101.451 35.9658 100.697 35.0858 100.697 34.2058H105.6V33.9543C105.6 32.0686 104.343 31.0629 102.583 31.0629C100.571 31.0629 99.5654 32.32 99.5654 34.08C99.5654 35.9658 100.823 37.0972 102.583 37.0972C104.091 37.0972 105.348 36.3429 105.474 34.8343H104.468V34.7086ZM100.823 33.3258C100.948 32.5715 101.577 31.9429 102.583 31.9429C103.714 31.9429 104.217 32.5715 104.343 33.3258H100.823ZM106.731 36.8458H107.863V28.8H106.731V36.8458ZM113.897 36.8458H115.28L117.668 31.1886H116.411L114.525 35.9658L112.514 31.1886H111.257L113.897 36.8458ZM118.548 29.9315H119.68V28.8H118.548V29.9315ZM118.548 36.8458H119.68V31.1886H118.548V36.8458ZM122.32 36.8458V33.7029C122.32 32.5715 123.074 32.0686 124.205 32.0686C125.085 32.0686 125.84 32.5715 125.84 33.5772V36.8458H126.971V33.3258C126.971 31.6915 125.84 31.0629 124.331 31.0629C123.451 31.0629 122.697 31.3143 122.32 31.8172V31.1886H121.314V36.8458H122.32ZM131.245 36.9715C133.131 36.9715 134.263 35.9658 134.263 33.9543C134.263 32.0686 133.131 30.9372 131.245 30.9372C129.234 30.9372 128.228 32.1943 128.228 33.9543C128.228 35.9658 129.36 36.9715 131.245 36.9715ZM133.131 34.08C133.131 35.2115 132.503 36.0915 131.245 36.0915C130.114 36.0915 129.36 35.2115 129.36 34.08C129.36 32.8229 130.114 32.0686 131.245 32.0686C132.377 32.0686 133.131 32.8229 133.131 34.08ZM43.2454 33.3258C43.3711 32.5715 43.9997 31.9429 45.0054 31.9429C46.1368 31.9429 46.6397 32.5715 46.7654 33.3258H43.2454ZM46.7654 34.7086C46.514 35.4629 46.0111 35.9658 44.8797 35.9658C43.7482 35.9658 42.994 35.0858 42.994 34.2058H47.7711V33.9543C47.7711 32.0686 46.514 31.0629 44.754 31.0629C42.7425 31.0629 41.7368 32.32 41.7368 34.08C41.7368 35.9658 42.994 37.0972 44.754 37.0972C46.2625 37.0972 47.5197 36.3429 47.6454 34.8343H46.7654V34.7086ZM48.7768 36.8458H49.9082V28.8H48.7768V36.8458Z" fill="#8A8A8A"/>
<path d="M161.668 18.7429C161.668 16.3543 160.286 15.0972 158.148 15.0972C156.137 15.0972 154.628 16.48 154.628 18.7429C154.628 20.7543 156.011 22.3886 158.148 22.3886C160.411 22.3886 161.668 20.7543 161.668 18.7429ZM158.274 24.2743C154.88 24.2743 152.617 22.2629 152.617 18.7429C152.617 15.4743 154.628 13.2115 158.274 13.2115C161.92 13.2115 163.931 15.3486 163.931 18.7429C163.931 22.3886 161.668 24.2743 158.274 24.2743ZM150.731 23.8972H148.594V13.4629H150.731V23.8972ZM144.823 19.8743H147.086C146.834 22.5143 144.446 24.2743 141.68 24.2743C138.034 24.2743 136.023 21.8857 136.023 18.7429C136.023 15.4743 138.286 13.2115 141.554 13.2115C144.697 13.2115 146.708 14.8458 146.96 17.36H144.823C144.697 16.2286 143.691 15.0972 141.68 15.0972C139.668 15.0972 138.286 16.7315 138.286 18.6172C138.286 21.0058 139.92 22.5143 141.68 22.5143C143.188 22.5143 144.571 21.3829 144.823 19.8743ZM132.754 19.8743H135.017C134.766 22.5143 132.377 24.2743 129.611 24.2743C125.966 24.2743 123.954 21.8857 123.954 18.7429C123.954 15.4743 126.217 13.2115 129.486 13.2115C132.628 13.2115 134.64 14.8458 134.891 17.36H132.754C132.628 16.2286 131.623 15.0972 129.611 15.0972C127.6 15.0972 126.217 16.7315 126.217 18.6172C126.217 21.0058 127.851 22.5143 129.611 22.5143C131.12 22.5143 132.628 21.3829 132.754 19.8743ZM120.686 20H122.697C122.32 22.8915 120.183 24.2743 117.291 24.2743C113.897 24.2743 111.634 22.2629 111.634 18.7429C111.634 15.6 113.52 13.2115 117.166 13.2115C120.56 13.2115 122.697 15.0972 122.697 18.6172V19.12H113.771C113.771 20.88 115.028 22.3886 117.166 22.3886C119.428 22.3886 120.308 21.3829 120.686 20ZM114.148 17.4857H120.686C120.434 16.2286 119.428 14.9715 117.417 14.9715C115.531 14.9715 114.274 16.1029 114.148 17.4857ZM103.966 20H105.977C105.6 22.8915 103.463 24.2743 100.571 24.2743C97.177 24.2743 94.9141 22.2629 94.9141 18.7429C94.9141 15.6 96.7998 13.2115 100.446 13.2115C103.84 13.2115 105.977 15.0972 105.977 18.6172V19.12H97.0513C97.0513 20.88 98.3084 22.3886 100.446 22.3886C102.583 22.3886 103.463 21.3829 103.966 20ZM97.3027 17.4857H103.84C103.588 16.2286 102.583 14.9715 100.571 14.9715C98.8113 14.9715 97.5541 16.1029 97.3027 17.4857ZM86.9941 19.3715C84.9827 19.12 83.7256 18.4915 83.7256 16.48C83.7256 13.9657 85.737 13.2115 88.377 13.2115C91.6456 13.2115 93.4056 14.2172 93.657 17.2343H91.5198C91.2684 15.6 90.137 14.8458 88.5027 14.8458C86.7427 14.8458 85.9884 15.4743 85.9884 16.2286C85.9884 17.1086 86.9941 17.36 87.9998 17.4857L90.2627 17.7372C92.0227 17.9886 93.9084 18.4915 93.9084 20.5029C93.9084 23.0172 92.2741 24.2743 89.0056 24.2743C86.1141 24.2743 83.7256 23.1429 83.7256 19.8743H85.8627C85.9884 21.6343 87.1198 22.5143 89.1313 22.5143C90.8913 22.5143 91.897 21.8857 91.897 21.0057C91.897 20 90.7656 19.8743 89.8856 19.7486L86.9941 19.3715ZM76.8113 24.2743C73.417 24.2743 71.1541 22.2629 71.1541 18.7429C71.1541 15.4743 73.1656 13.2115 76.8113 13.2115C80.457 13.2115 82.4684 15.3486 82.4684 18.7429C82.4684 22.3886 80.2056 24.2743 76.8113 24.2743ZM80.3313 18.7429C80.3313 16.3543 78.9484 15.0972 76.8113 15.0972C74.6741 15.0972 73.2913 16.48 73.2913 18.7429C73.2913 20.7543 74.6741 22.3886 76.8113 22.3886C79.0741 22.3886 80.3313 20.7543 80.3313 18.7429ZM60.8456 23.8972H58.7084V13.4629H60.7198V14.5943C61.3484 13.7143 62.857 13.2115 64.4913 13.2115C67.257 13.2115 69.3941 14.3429 69.3941 17.36V23.8972H67.257V17.8629C67.257 16.1029 65.9998 15.0972 64.2398 15.0972C62.2284 15.0972 60.8456 16.1029 60.8456 18.1143V23.8972V23.8972ZM56.3198 23.8972H54.1827V13.4629H56.3198V23.8972ZM46.0113 23.8972L41.2341 13.4629H43.497L47.2684 22.2629L50.9141 13.4629H53.177L48.6513 23.8972H46.0113V23.8972ZM167.828 23.8972H165.691V13.4629H167.703V14.5943C168.457 13.7143 169.84 13.2115 171.474 13.2115C174.24 13.2115 176.377 14.3429 176.377 17.36V23.8972H174.24V17.8629C174.24 16.1029 172.983 15.0972 171.223 15.0972C169.211 15.0972 167.828 16.1029 167.828 18.1143V23.8972ZM159.783 10.0686L158.903 12.2057H157.268L157.771 10.0686H159.783ZM150.731 11.2H148.594V10.0686H150.731V11.2ZM109.874 23.8972H107.737V10.0686H109.874V23.8972ZM56.3198 11.2H54.1827V10.0686H56.3198V11.2Z" fill="white"/>
<path d="M157.771 10.0686L158.274 8.18286H160.537L159.783 10.0686H157.771ZM148.72 9.18858H150.857V10.0686H148.72V9.18858ZM107.863 9.18858H110V10.0686H107.863V9.18858ZM54.1829 9.18858H56.32V10.0686H54.1829V9.18858Z" fill="white"/>
<g clip-path="url(#clip1_1642_31989)">
<path d="M5.53142 32.6972V37.2229H6.28571V31.9429H5.53142L5.02856 32.1943V32.8229L5.53142 32.6972Z" fill="black"/>
</g>
</g>
<defs>
<clipPath id="clip0_1642_31989">
<rect width="176" height="41.4857" fill="white" transform="translate(0 0.514404)"/>
</clipPath>
<clipPath id="clip1_1642_31989">
<rect width="1.25714" height="5.28" fill="white" transform="translate(5.02856 31.9429)"/>
</clipPath>
</defs>
</svg>
