<svg id="Layer_1" data-name="Layer 1" xmlns="http://www.w3.org/2000/svg" viewBox="0 0 317 92.7"><defs><style>.cls-1{fill:#fff;}</style></defs><title>clientes</title><path class="cls-1" d="M222.9,26.45a54.73,54.73,0,0,1,8.31,2.22l4.57-5.61a54.65,54.65,0,0,0-10.25-3.32l3.19-8.24a44.17,44.17,0,0,0-9,1.32l-2.15,5.54a82.25,82.25,0,0,0-23.21.35c-2.91.48-6,1.11-9.08,1.87L187.84,14c-1.25.35-2.42.69-3.67,1.11-2,.62-4.09,1.39-6.17,2.22L175.44,24a107.3,107.3,0,0,0-10.12,5.13l2.84-7.28c-1.18.63-2.36,1.25-3.6,1.87-2.36,1.25-4.78,2.63-7.14,4l-3.33,8.59c-5.4,3.67-10.53,7.55-15.24,11.22a7.32,7.32,0,0,0-2-1.52,9.45,9.45,0,0,0-7.41-.14,19.22,19.22,0,0,0-9.7,8.25A18,18,0,0,0,117,64c-3.67,2.08-9.77,5.06-15.17,5.61C97.15,70.17,93.2,68.09,92,65,89,57.21,100.62,41.14,110.52,33.1c3-2.36,6.44-4.57,9.63-4.92,2.49-.28,4.57,1,4.57,3,.14,4.09-4.43,7.41-10.39,7.9-1,.07-2.08.07-2.22.34s.28.62,1,.76a19.26,19.26,0,0,0,6.72.48,26.36,26.36,0,0,0,8.87-2.56c.28-.14.48-.28.76-.42a14.19,14.19,0,0,0,5-4.3A7.11,7.11,0,0,0,135.81,29c-.07-3.33-2.7-5.89-6.37-6.79a12.47,12.47,0,0,0-4.3-.28c-4.71.55-7.62,1.25-14.69,5.33-15.73,9-28.34,28.89-29.24,41.85V71.9c.49,6.1,4.23,10,12.54,9.21,6.65-.69,18-8.45,24.18-13a8.13,8.13,0,0,0,3.4,3.6,10,10,0,0,0,8.11-.07,19.4,19.4,0,0,0,9-8c2.63-4.37,3.4-9.08,2.29-12.61,3.47-2.56,7-5.27,10.6-7.83l-6.44,16.42-.28.62a12.37,12.37,0,0,0-.9,4,3.12,3.12,0,0,0,3.26,3,7.53,7.53,0,0,0,2.29-.35,9.07,9.07,0,0,0,1.73-.7c3.95-1.73,8-5.12,11.43-8.45a13.47,13.47,0,0,0-.14,1.66,3,3,0,0,0,2.29,2.91,4.61,4.61,0,0,0,1,.14,11.74,11.74,0,0,0,2.22-.28c4.43-1.46,9.21-5.34,13.16-9.15a5.93,5.93,0,0,0,2.91,3.74c3.19,1.73,6.93,1,10.53-.62,4.92-2.36,9.63-6.65,12.05-9.07a11,11,0,0,0-.48,2.77,3.22,3.22,0,0,0,3.26,3,3.9,3.9,0,0,0,.9-.14c6.37-1.52,13.92-8.8,18.77-15l-2.56-3.46a32.88,32.88,0,0,1-5,4.92,1.71,1.71,0,0,1-1,.35A1.62,1.62,0,0,1,218.6,38a5,5,0,0,1,.42-1.45ZM134.29,59.77a12.11,12.11,0,0,1-4.85,4.85,4.55,4.55,0,0,1-4.5.07c-2.56-1.59-1.8-6.44.35-10a10.27,10.27,0,0,1,4.16-3.81,4.59,4.59,0,0,1,4.09-.35C135.81,51.74,136.16,56.24,134.29,59.77Zm34.43-18.57A50.3,50.3,0,0,1,164.56,48a22.86,22.86,0,0,1-5.13,5.47l-.21.14A2.13,2.13,0,0,1,158,54a1.62,1.62,0,0,1-1.66-1.52,5.09,5.09,0,0,1,.42-1.53l5.89-15.17c.62-.35,1.25-.76,1.87-1.11a68.34,68.34,0,0,1,8.24-3.95Zm41.85-4.78v-.28S205.85,47,194.35,49.31a.25.25,0,0,1-.21.07c-3,.62-4.23-.9-4.23-3.12a30.35,30.35,0,0,0,4.43-1.45c9.63-4.16,12.26-12.33,7.27-14.55a8.37,8.37,0,0,0-7.27.07c-3.33,1.59-6.93,5.2-10.67,11.64a31.49,31.49,0,0,1-5.13,6.24,7.55,7.55,0,0,0-.76.62,3.79,3.79,0,0,1-1.18.35,1.64,1.64,0,0,1-1.73-1.59,4.67,4.67,0,0,1,.42-1.45l7.2-18.5a103.45,103.45,0,0,1,11.85-2.22,92.48,92.48,0,0,1,20.51-.14ZM189.43,43s2.42-5.61,4.92-8a3.74,3.74,0,0,1,.62-.48c2.77-1.87,4.09-.42,4.23.55.35,1.8-2.29,3.81-4.85,5.4A51.1,51.1,0,0,1,189.43,43Z"/></svg>