<svg id="Layer_1" data-name="Layer 1" xmlns="http://www.w3.org/2000/svg" viewBox="0 0 317 92.7"><defs><style>.cls-1{fill:#fff;}</style></defs><title>clientes</title><path class="cls-1" d="M207.29,68.62c0-.28-.17-.41-.51-.41h-.55v1.44h.22V69h.25l.38.62h.25l-.41-.63a.37.37,0,0,0,.38-.39m-.84.22V68.4h.3c.15,0,.32,0,.32.21s-.17.24-.36.24Zm.27-1.16A1.25,1.25,0,1,0,208,68.93a1.24,1.24,0,0,0-1.26-1.25m0,2.28a1,1,0,1,1,1-1,1,1,0,0,1-1,1"/><path class="cls-1" d="M97.25,81.63v-8a4.74,4.74,0,0,0-2-4.35c-2.86-1.65-6.39-.22-8.8,1.32l-.08-2.21H85a8.74,8.74,0,0,1-4.55,1.85v.89c.46.07,1.71.35,1.79,1.3v9.17c0,1-1.38,1.49-2.4,1.56v1a71.47,71.47,0,0,1,9.08,0v-1c-1,0-2.39-.72-2.39-1.58V72.9a4.19,4.19,0,0,1,4.74-1.82A2.9,2.9,0,0,1,93,73.65v8c0,1-1.38,1.49-2.4,1.56v1a71.54,71.54,0,0,1,9.08,0v-1c-1,0-2.39-.72-2.39-1.58m10.41.67c-1.19,0-1.42-1.56-1.42-1.56V70.31h3.44V68.93h-3.44V65h-1.19a10.37,10.37,0,0,1-2.11,2.47,19.89,19.89,0,0,1-2.84,1.89v1h2.2V80.8c0,1.88,1,3.66,3.94,3.66a4.06,4.06,0,0,0,3.85-2.1l-1-.69a1.65,1.65,0,0,1-1.47.63m13.22-.69c-3.6-.31-4.38-2.4-4.38-2.4l9.35-7.59-.44-.77a3.05,3.05,0,0,1-1.16-.55,8.14,8.14,0,0,0-7.08-1.58,7.83,7.83,0,0,0-5.74,9.87c1.25,5,5.74,5.82,8.21,5.84a8.42,8.42,0,0,0,6.23-3.2l-.73-.93a5.34,5.34,0,0,1-4.26,1.31m-5.16-8.46c.36-1.84.79-2.82,2.4-3.34a2.59,2.59,0,0,1,3,1.14c.34.55,1,1.79.62,2.16l-5.84,4.64a13.88,13.88,0,0,1-.2-4.6m20.57-4.39A4.87,4.87,0,0,0,133.43,72l-.06-3.54h-1.19a8.73,8.73,0,0,1-4.55,1.85v.89c.46.07,1.71.35,1.79,1.3v9.17c0,1-1.38,1.49-2.4,1.56v1a69.11,69.11,0,0,1,8.93,0v-1c-1,0-2.39-.72-2.39-1.58V74.47a3.54,3.54,0,0,1,1.08-2.39c.54-.52,1.43.11,2,.44a2.14,2.14,0,0,0,2.53-.77,1.91,1.91,0,0,0-.22-2.31,2.57,2.57,0,0,0-2.64-.66m52.13,0A4.87,4.87,0,0,0,185.57,72l-.05-3.54h-1.19a8.75,8.75,0,0,1-4.55,1.85v.89c.47.07,1.71.35,1.79,1.3v9.17c0,1-1.38,1.49-2.4,1.56v1a69.09,69.09,0,0,1,8.92,0v-1c-1,0-2.39-.72-2.39-1.58V74.47a3.51,3.51,0,0,1,1.08-2.39c.54-.52,1.43.11,2,.44a2.14,2.14,0,0,0,2.53-.77,1.9,1.9,0,0,0-.22-2.31,2.57,2.57,0,0,0-2.64-.66M158.85,81.63V62.26h-1.36a8.72,8.72,0,0,1-4.55,1.85V65c.46.07,1.71.36,1.79,1.3V81.65c0,1-1.38,1.49-2.4,1.56v1a69.09,69.09,0,0,1,8.92,0v-1c-1,0-2.39-.72-2.39-1.58m-3.88-19a2.37,2.37,0,0,0,1.21-2.75A3.68,3.68,0,0,0,153.65,58c-3.52-.77-6.38.38-9,3.52-2.09,2.42-1.69,5.91-1.8,8.8h-2.42v1.31h2.42l0,10c0,1-1.38,1.49-2.4,1.56v1a67.79,67.79,0,0,1,8.84,0v-1c-1,0-2.4-.72-2.4-1.58v-10H150V70.31h-3.1s-.13-8,.65-9.28,1.38-1.16,2.37-1.16c1.32.11,1.76,1.65,2.75,2.42a2.43,2.43,0,0,0,2.31.33M170,68.3c-4.7,0-8.56,3.31-8.51,8.1a8.52,8.52,0,0,0,17,0c0-4.68-3.35-8.1-8.5-8.1m0,14.8c-2.55,0-4-3-4-6.74s1.46-6.88,4-6.86,4,3.07,4,6.86-1.39,6.74-4,6.74m35.44-.83c-.72,0-1.1-.45-1.1-2v-8s-.14-4-5.87-4c-5,0-6.35,3-6.19,4.17a1.43,1.43,0,0,0,1.38,1.05c1.35.07,2.15-1.65,2.89-2.8s1.42-1.27,2-1.24a2.27,2.27,0,0,1,1.88,2.18v2.77s-.76.28-1.71.57c-1.42.42-3.13.81-3.52,1a4.91,4.91,0,0,0-3.3,4.72,4,4,0,0,0,4.36,3.67,6.71,6.71,0,0,0,4.34-1.92,4,4,0,0,0,3.36,2c2.79-.08,3.62-2.93,3.62-2.93l-.64-.32s-.79,1.13-1.51,1.15m-5-3c-.06.57.41,2.81-2.47,2.84-1.89,0-1.94-1.75-2-2.44C196,76.48,200.49,76,200.49,76ZM69.76,59.41v1c1,.05,2.39.72,2.39,1.58V81.65c0,1-1.38,1.49-2.4,1.56v1a74,74,0,0,1,9.24,0v-1c-1,0-2.39-.72-2.39-1.58V62c0-1,1.39-1.49,2.4-1.56v-1a74,74,0,0,1-9.24,0"/><path class="cls-1" d="M171.18,38.2a.47.47,0,0,0,.46-.35,33.16,33.16,0,0,1,3.84-8.57.47.47,0,0,0-.15-.64.46.46,0,0,0-.64.15,37.28,37.28,0,0,0-3.95,8.83.45.45,0,0,0,.34.56h.11m70.2-1.64a.46.46,0,1,0-.88.29,36.11,36.11,0,0,1-4.56,31.52.46.46,0,0,0,.12.64.47.47,0,0,0,.26.08.46.46,0,0,0,.38-.2h0a37,37,0,0,0,4.68-32.33m-58.64-16a.46.46,0,0,0,.3-.11,36.05,36.05,0,0,1,38.57-5,.46.46,0,1,0,.4-.84,37,37,0,0,0-39.56,5.16.46.46,0,0,0,.3.82"/><path class="cls-1" d="M243.63,82.64c0-.28-.17-.41-.51-.41h-.55v1.44h.22V83H243l.38.62h.25l-.41-.63a.37.37,0,0,0,.38-.39m-.84.22v-.44h.3c.15,0,.32,0,.32.21s-.17.24-.36.24Zm.27-1.16A1.25,1.25,0,1,0,244.32,83a1.24,1.24,0,0,0-1.26-1.25m0,2.28a1,1,0,1,1,1-1,1,1,0,0,1-1,1"/><path class="cls-1" d="M236.68,32a6.53,6.53,0,0,1-4,.69l-1.21-.13-.52-.07a5.42,5.42,0,0,0,2.46-3.45,11.73,11.73,0,0,0,3.22,1c1.18.23,2.33.19,2.81.41-.88.3-1.57.93-2.79,1.51m-10.32-7.18a17.39,17.39,0,0,1-2.93.26c-1.27,0-2.71.2-3,.2-.61,0-.51-.58.86-.81a8.94,8.94,0,0,0,4.48-1.82c1.06-1.06.73-3.24,1.14-3.26s-.15,2.25,1.62,2.66c-1.77,1.06-.94,2.47-2.13,2.77m-9.61,9.41c-3.15,1.82-3.1,3.26-3.22,3.56s-1.39-.53-1.34-1.14a23.94,23.94,0,0,1,.5-2.75,8,8,0,0,1,.85-2.78A13.15,13.15,0,0,0,216.05,30c.74-.55,1-1.79,1.32-1.8s-.27,2.18.85,3.07,3.75,1.23,3.72,1.47-2-.3-5.19,1.52M219,55.62c-.23.57-2.14-.55-6.74-3.41-4-2.52-5.75-3.38-5.6-5.86.11-1.69,1.94-3.25,3.56-3.59.75-.16,1,0,1.89.52,1.11.7,1.35,1,1.1,1.14-1.33.72-2.37,2.75-1.83,4,1,2.37,7.84,6.63,7.61,7.2m-11.37-4.74c-.06.25-3,.9-5.71,1.33s-3.7.76-3.65.27,1.93-.33,4-1.43,2.5-2.51,2.94-2.56.16.15.93,1,1.57,1.17,1.51,1.42M174.83,21a2.48,2.48,0,0,1-2.47-.57c-.16-.18,0-.38.24-.26a1.87,1.87,0,0,0,1.11.21,2.45,2.45,0,0,1,.1-1.33,1.62,1.62,0,0,1,.57-.73c.21-.14.31.12.18.26a1.33,1.33,0,0,0-.29.7c-.08.65.61.8,1,.45a2.18,2.18,0,0,0,.55-1.12c.08-.28.31-.16.33.06s.14,2-1.3,2.34m-3.31-4.65a2.49,2.49,0,0,1-2.47-.61c-.16-.18,0-.38.24-.26a2,2,0,0,0,1.11.23,2.72,2.72,0,0,1,.06-1.35,2,2,0,0,1,1.07-.93c.27-.09.35.19.21.23a1.18,1.18,0,0,0-.76,1c-.09.65.6.81,1,.47a2.18,2.18,0,0,0,.57-1.11c.09-.28.31-.16.32.06s.12,2-1.33,2.32m75.26,12.85h0c-.47-.34-1.33-.71-2.79-1.47A15.5,15.5,0,0,0,238.36,26c-1.85-.42-1.34-.77-4.14-1.55a12.32,12.32,0,0,0-3.64-.67c.67-2.14,2-1,2.76-1.11s1-.49.93-1.42a3.64,3.64,0,0,1,.58-1.87,5.36,5.36,0,0,0,.57-.21c.09-.05.09-.18,0-.32a4.08,4.08,0,0,1-.54-1.32c-.14-.8.23-1.41.07-1.69-2.41-.75-7.09,1.48-6.63.85,3.72-2.53,8.48-2.37,7.52-2.94-1.3-.77-1-1.28-2.71-2.51a4.77,4.77,0,0,0-3.33-.67c.25-.41.85-1.53.63-2.08s-4.34.28-7.09.37A12.18,12.18,0,0,1,219,8.3a3,3,0,0,0,2.3,1.52,9.87,9.87,0,0,0,3.54,0c.06,0,.28.39.28.39a6.53,6.53,0,0,1-2.18.25A9.36,9.36,0,0,1,220,10a4.64,4.64,0,0,0,2.73,1.43,6.81,6.81,0,0,0,2.94-.16l.29.39a5.82,5.82,0,0,1-4.68-.22,2.43,2.43,0,0,0,1.86,1.19,5.28,5.28,0,0,0,2.36,0,4.92,4.92,0,0,0-.71,2,10.58,10.58,0,0,0-.3,1.68c-.42,1.82-2.39,3.3-2.09,3.47S226,18.27,226,18.27a6.63,6.63,0,0,1-1.1,3.61c-1.11,1.41-2.47,1.13-4.39,1.64-1,.27-1.35.5-2,.43a9.41,9.41,0,0,0-3.41.15c-1.59.43-3.43,1.59-4.46,1.82s-3.87.47-5.08.87l-.9.31a7.07,7.07,0,0,1-1.91.5,4.29,4.29,0,0,1-1.26-.1,8.17,8.17,0,0,0-2.65-.32,15.2,15.2,0,0,0-3.68.68,28.82,28.82,0,0,1-5,1.19,6.65,6.65,0,0,1-3.07-.81,5.72,5.72,0,0,0-3,.17,10.9,10.9,0,0,1-1.37-1.19c-.61-.71-.63-2-1.48-3a4.07,4.07,0,0,1-1-3,5.41,5.41,0,0,0,0-2c-.19-1-.8-1.4-.93-1.34a2.33,2.33,0,0,0-.12,1.64,8.1,8.1,0,0,1,.13,2.72c0,.53.34,1.42.26,1.42a2.07,2.07,0,0,1-.89-1.47c-.06-.37-.05-2.44-.56-3.11a5.92,5.92,0,0,1-.67-2.41c-.29-1.73-.71-3-.93-2.92s-.2.31-.26.74a12.22,12.22,0,0,0,.09,2.76h0c-.33-.54-.85-.81-1.35-.49a4.15,4.15,0,0,0-.38.28,14.27,14.27,0,0,0,.17-2.21c0-1-.35-1-.93-1.24s-.56-.39-.87-.91-.81-.79-1.3-.5-1.34,1.18-2,1.18-.89.21-1.3,1.1-.66.58-.77,1.26a3.69,3.69,0,0,0,2.53,3.06,8.19,8.19,0,0,0,1.58.36,1.47,1.47,0,0,0-.8,1.24,3.59,3.59,0,0,0,2.62,3.26,8.1,8.1,0,0,0,2.89.23,6.91,6.91,0,0,1,3.11,1.64c.59.43,1.59,1.61,2.1,2.1.21.2,1.46,1.08,1.56,1.2h0A.88.88,0,0,0,183,29a19.51,19.51,0,0,1-2.1-1.45,14.58,14.58,0,0,0-3.91-3c-.26-.11-.76.12-1.6.2a6.4,6.4,0,0,1-1.74-.08c-.31,0-.49.3-1.82.75a9.86,9.86,0,0,0-2.65,1.42c-.33.24-.13.41.09.48s2.67.59,3.77,0a6.57,6.57,0,0,1,2.94-1,3.87,3.87,0,0,1,2.71,1.26,2.52,2.52,0,0,0,1.77.92,7.63,7.63,0,0,1,2.39,1.42,9,9,0,0,0,2,1.29c1,.54,6.57,4.36,6.91,4.5s.71-.43.57-.58-.51-.4-.6-.54-.15-.63-.23-.77a13.57,13.57,0,0,0-1.77-1.07,23.13,23.13,0,0,1-1.95-1.29,65.1,65.1,0,0,1,8.19,0c2.46.08,4.61-.46,6.35-.46,1.91,0,3.36.58,5.32.58,3.54,0,4.33-.07,4.33-.07a34.11,34.11,0,0,0-1,6.85c0,2.36-1.13,2.49-3.62,4.07a6.48,6.48,0,0,0-2.41,2.59A23.34,23.34,0,0,0,196.49,47a31.32,31.32,0,0,1-4.58,2.05.59.59,0,0,1-.42.06,30.84,30.84,0,0,0-6.68-2,15,15,0,0,0-4.57.13c-2.67,0-5.27.09-5.27.09l1.7-1.28c.5-.29,1.3-.84,1.38-1.35.11-.73-3.88-2-6.3-3.27a12.18,12.18,0,0,1-3.52-2.7,3,3,0,0,0,1.22,2.47,9.71,9.71,0,0,0,3,1.82l0,0,0,.44a6.43,6.43,0,0,1-2-.87,9.36,9.36,0,0,1-2.25-1.9,4.64,4.64,0,0,0,1.63,2.62,6.84,6.84,0,0,0,2.62,1.35l0,.23v.24a5.82,5.82,0,0,1-3.9-2.56s-.15.89,1,2a7.89,7.89,0,0,0,3,1.74l0,.8a2.54,2.54,0,0,1-1.54-.7,2.79,2.79,0,0,0-1.55-1.22c-1.24-.15-2,.83-2.91,1.61s-1.72.4-3.17.92a3.18,3.18,0,0,0-2.05,2.56c.14.36-.1.44,2-.09a8,8,0,0,1,4.35-.3c2.11.28,3.42-.3,4.85-.34,2.28-.06,2.43.39,6.58,1.29s10.88,2.54,11,2.59a7.28,7.28,0,0,0,3.83.58c2.45-.2,3.76.06,6.77-.35,6.28-.85,7.9-1.8,7.9-1.8S211,53.34,214,55.06c4.84,2.75,8.28,4.26,8.28,4.26s1.21,4.9,2.7,7.21a14.16,14.16,0,0,0,2.12,2.37c1.14,1.31,2.17,2.51,3.18,3.75l-.66,0a12.19,12.19,0,0,1-4.4-.55,3,3,0,0,0,2.3,1.52,9.87,9.87,0,0,0,3.54,0c.06,0,.28.39.28.39a6.57,6.57,0,0,1-2.18.25,9.37,9.37,0,0,1-2.91-.5A4.63,4.63,0,0,0,229,75.28a6.82,6.82,0,0,0,2.94-.16l.23.3,0,.09a5.83,5.83,0,0,1-4.66-.23s.32.84,1.86,1.19a5.86,5.86,0,0,0,3.08.05,2.53,2.53,0,0,1-.39,1.27c-.26.6-.74,1.6-.52,2.12.51,1.14,2.25.93,3.41,1.34s1.23,1.27,2.42,2.25a3.18,3.18,0,0,0,3.26.44c.23-.31.43-.14-1.14-1.7a8,8,0,0,1-2.5-3.57c-.8-1.83-.85-1.4-2.22-3.41a2.42,2.42,0,0,0,.47-.56s1-1.55.73-2.24c-.15-.38-1.27-.29-2.71-.12,0,0-1.5-4.93-2.61-8.22a68.32,68.32,0,0,0-2.83-6.83,5.2,5.2,0,0,1-.2-.7,3.5,3.5,0,0,0-.73-1.36c-.45-.5-1.79-1.54-1.93-1.66s-1-1.29-2.89-3.34-5.36-5-5.36-5c.13-.83.38-1,1.14-1.85a13.05,13.05,0,0,1,2.38-2.12A30.45,30.45,0,0,0,226.11,36h0a.82.82,0,0,1-.5-.35l0-.1v-.11a2.1,2.1,0,0,1,1.76-1.86l.6-.16.24-.06c-.4-.24-.49-.52-.42-.49a9.21,9.21,0,0,0,1.32.22h.11c.58,0,1.2.14.64.31-1,.29-1,.26-2.38.62A1.66,1.66,0,0,0,226,35.49a5.66,5.66,0,0,0,2.82.29c1.66-.08,3.47-1,4.74-1.21,2.18-.33,5.79.6,8.7-.54a11,11,0,0,0,3-2A7.25,7.25,0,0,0,247,30.8a1.18,1.18,0,0,0-.27-1.6"/><path class="cls-1" d="M165.15,22.82a2,2,0,0,0,1.21-.26,2.7,2.7,0,0,1-.46-1.38,1.81,1.81,0,0,1,.26-1c.15-.23.36,0,.29.18a1.47,1.47,0,0,0,0,.83.62.62,0,0,0,1.19,0,2.37,2.37,0,0,0,.08-1.36c0-.31.24-.29.35-.08s1,1.91-.32,2.91a2.72,2.72,0,0,1-2.74.47c-.24-.11-.2-.36.13-.36m-1.32,1c.08.37.59.76,1.41,1,.26.09.08.65.78.73a14.39,14.39,0,0,0,6.6-1c.35-.26.11-.84-.62-1.38a6.31,6.31,0,0,1-2.38-2.87c-.63-1.55-1.29-1.77-1.79-1.94A2,2,0,0,0,166,19c-.79.65-1.48.6-1.91,1.47s.09,1.37,0,1.9-.42.89-.29,1.48"/><path class="cls-1" d="M226.5,77.77a35.9,35.9,0,0,1-9.91,4.73h0a.46.46,0,0,0,.31.88h0A36.83,36.83,0,0,0,227,78.53a.46.46,0,0,0-.52-.77"/></svg>