<svg id="Layer_1" data-name="Layer 1" xmlns="http://www.w3.org/2000/svg" viewBox="0 0 317 92.7"><defs><style>.cls-1{fill:#fff;}</style></defs><title>clientes</title><path class="cls-1" d="M101.44,40.11h-1.19v5.62h1.19a2.81,2.81,0,1,0,0-5.62Z"/><ellipse class="cls-1" cx="122.14" cy="46.26" rx="4.4" ry="5.09"/><path class="cls-1" d="M196.41,28.94h-123a4.49,4.49,0,0,0-4.36,4.59V59.17a4.49,4.49,0,0,0,4.36,4.59H177.6c6-8,8.12-15.22,10.3-22.38C189.31,36.74,192.85,32.3,196.41,28.94ZM90.7,40.16H82.91V44.3h6.95L88.19,48H82.91v4.06H90.7v4.23H77.57V39.53a5.85,5.85,0,0,0-.76-3.26H90.7ZM107,56.31l-5.6-7.67h-1.16v7.67H94.9V39.53a5.84,5.84,0,0,0-.76-3.26c3.34,0,6.64,0,10,0a5.91,5.91,0,0,1,2.43,11.32l6.36,8.72Zm15.14.46c-5.36,0-9.74-4.73-9.74-10.52s4.37-10.52,9.74-10.52,9.74,4.72,9.74,10.52S127.51,56.77,122.14,56.77ZM146.32,42c-1.31-1.2-2.31-2-4.14-2-1.13,0-2.92.72-2.42,2.32.32,1,2.07,2.19,3,2.82,3.41,2.43,5.63,6.79.85,10.18-2.2,1.56-7,1.6-9.8.19V51c1.31,1.13,4.55,2.19,6.17.93,2.51-2-3.27-4.42-4.46-6.08-3.61-5,.35-9.71,5.88-9.72a8.63,8.63,0,0,1,5,1Zm21.31,14.23h-6.35l-6.06-9.16v9.22h-5.34V39.53a5.86,5.86,0,0,0-.76-3.26h6.11v8.05h.34l6.54-8h6l-7.29,9Zm8.07.07h-5.34V39.53a5.83,5.83,0,0,0-.76-3.26h6.11Z"/><path class="cls-1" d="M38,50.11A18.91,18.91,0,0,1,37.75,47c0-8.25,5.23-15.54,12.31-18H36.93a4.49,4.49,0,0,0-4.36,4.59V59.17a4.71,4.71,0,0,0,.69,2.47C33.72,56.93,34.8,52.7,38,50.11Z"/><path class="cls-1" d="M39.33,54.48a17.66,17.66,0,0,0-6,7.23,4.31,4.31,0,0,0,3.62,2H51.17A15.7,15.7,0,0,1,39.33,54.48Z"/><path class="cls-1" d="M55.85,63.75h5.44A4.31,4.31,0,0,0,65,61.64l-.74-1.77A16.87,16.87,0,0,1,55.85,63.75Z"/><path class="cls-1" d="M61.29,28.94H50.53l3,6.32a10.93,10.93,0,0,0-9.36,11,11.39,11.39,0,0,0,.09,1.4c5.63-.49,9.67-2.89,12.41-7.1-.2,6.94-2.5,10.91-10.49,12.05a9.74,9.74,0,0,0,8.2,4.15,10.18,10.18,0,0,0,7.14-3.28L65,61.64a4.74,4.74,0,0,0,.69-2.47V33.53A4.49,4.49,0,0,0,61.29,28.94Z"/><path class="cls-1" d="M254.4,42.87a6,6,0,0,0-1.54-1.57,4.12,4.12,0,0,0-2.49-.72h-.26a6.67,6.67,0,0,0-2.53.92,9.3,9.3,0,0,0-1.9,1.49,6.72,6.72,0,0,0-.93,1.17,2.85,2.85,0,0,0-.4.9h10.72a.1.1,0,0,1,0-.06v-.18a2.93,2.93,0,0,0-.17-.84A5.42,5.42,0,0,0,254.4,42.87Z"/><path class="cls-1" d="M231.61,45.34a6.38,6.38,0,0,0,0-.72,7.63,7.63,0,0,0-.13-.78,5.14,5.14,0,0,0-1.12-2.17,4.31,4.31,0,0,0-2.65-1.31l-.14,0-.17,0h-.06a.45.45,0,0,0-.16,0H227a4.18,4.18,0,0,0-.94.11,5.31,5.31,0,0,0-1,.32,8.73,8.73,0,0,0-2.68,1.77,6.14,6.14,0,0,0-1.69,2.5s0,0,0,0a.06.06,0,0,0,0,0v0c-.08.23-.15.45-.22.67a5.78,5.78,0,0,0-.16.67,1.85,1.85,0,0,0-.07.43c0,.14,0,.27,0,.4v.09a5.25,5.25,0,0,0,1.24,3.3A4.68,4.68,0,0,0,225,52.24a5.9,5.9,0,0,0,4.27-1.81,8,8,0,0,0,2.31-4.26Z"/><path class="cls-1" d="M280.07,28.94H197.88c-5.4,7.37-7.41,17.17-10.61,24.39-2.14,4.83-5,7.63-8.44,10.42H280.07a4.49,4.49,0,0,0,4.36-4.59V33.53A4.49,4.49,0,0,0,280.07,28.94Zm-78.34,25L198.27,39h2l2.9,12.14,7-12.14h2.06l-8.44,14.92Zm12.18,0h-2l2.67-15.13h2ZM217,37h-2.09l.61-3.42h2.09ZM228.5,53.11A7.84,7.84,0,0,1,226,54a4.6,4.6,0,0,1-.75.12c-.25,0-.5,0-.75,0h-.23a6.89,6.89,0,0,1-2.54-.55A5.26,5.26,0,0,1,219.67,52a6.94,6.94,0,0,1-1.06-1.91,6.61,6.61,0,0,1-.42-2.33,8.46,8.46,0,0,1,.13-1.45,8,8,0,0,1,.42-1.51,9.85,9.85,0,0,1,1-2A10.29,10.29,0,0,1,221.29,41v0a10.84,10.84,0,0,1,1.59-1.07,10.06,10.06,0,0,1,1.68-.73,9.73,9.73,0,0,1,1.43-.37,8.36,8.36,0,0,1,1.38-.12,6.5,6.5,0,0,1,3.09.73,4.24,4.24,0,0,1,2,2l.4-2.65h2l-2.64,15.13h-2.06l.44-2.56A7.13,7.13,0,0,1,228.5,53.11Zm9.49-.47s-.06.36-.17,1a8.26,8.26,0,0,1-.78,2.21,7,7,0,0,1-1.73,2.2,4.54,4.54,0,0,1-3.11,1h-.35l.61-1.92a3.84,3.84,0,0,0,2.32-1,6.15,6.15,0,0,0,1-2.62q.06-.21.1-.41c0-.13.05-.27.07-.41v0l2.47-13.85h2ZM240.68,37h-2.09l.61-3.42h2.09Zm16.15,8.73a2.64,2.64,0,0,1,0,.43c0,.14,0,.29,0,.43a1.45,1.45,0,0,1-.07.4H243.93a6.81,6.81,0,0,0,1.07,3.8,3.62,3.62,0,0,0,3.24,1.64,5.8,5.8,0,0,0,3.51-1.1A7.25,7.25,0,0,0,254,48.82l2.06,0a13,13,0,0,1-2.9,3.66,8.06,8.06,0,0,1-3.24,1.71,6.19,6.19,0,0,1-.88.19,6.69,6.69,0,0,1-.88.06,7.67,7.67,0,0,1-2-.26,6.12,6.12,0,0,1-1.86-.84l-.24-.2-.28-.23a7.67,7.67,0,0,1-1.44-2.18,7.29,7.29,0,0,1-.65-3.13,8.06,8.06,0,0,1,.32-2.18,10.25,10.25,0,0,1,1.69-3.25q.36-.46.8-.91v0l.71-.55c.24-.18.47-.35.71-.49A9.54,9.54,0,0,1,248.31,39a7.56,7.56,0,0,1,2.2-.35,5.89,5.89,0,0,1,4.49,2,6.68,6.68,0,0,1,1.83,4.71Zm10.94-3.59a.77.77,0,0,0,0,.17.94.94,0,0,1,0,.18,1,1,0,0,0,0,.19l-1.82,0V42.6a.58.58,0,0,1,0-.16V42.2a1.59,1.59,0,0,0-.5-1.28,1.87,1.87,0,0,0-1.12-.46h-.09l-.26,0-.26,0a3.09,3.09,0,0,0-1.45.73,1.94,1.94,0,0,0-.69,1.47.21.21,0,0,1,0,.06.09.09,0,0,0,0,.06.35.35,0,0,1,0,.09.11.11,0,0,0,0,.06,1.42,1.42,0,0,0,.56,1.19,7.13,7.13,0,0,0,1.41.79l.67.31.72.3.52.27.53.3a1.76,1.76,0,0,1,.79,1,4.32,4.32,0,0,1,.28,1.57c0,.1,0,.2,0,.29a2.33,2.33,0,0,0,0,.29c0,.29-.09.57-.16.86a4.14,4.14,0,0,1-.28.79v0a5,5,0,0,1-1.63,2.18,5.22,5.22,0,0,1-2.17,1l-.48.06a3.76,3.76,0,0,1-.48,0,4.12,4.12,0,0,1-2.72-1,3.75,3.75,0,0,1-1.22-3c0-.06,0-.12,0-.18a.65.65,0,0,0,0-.18.76.76,0,0,1,0-.17,1.47,1.47,0,0,0,0-.17l1.86,0v.12a.14.14,0,0,1,0,.09v0a.87.87,0,0,1,0,.12.41.41,0,0,0,0,.09,3.39,3.39,0,0,0,.55,1.92,1.75,1.75,0,0,0,1.54.83,2.8,2.8,0,0,0,1.06-.24,5.2,5.2,0,0,0,1.23-.76,2.59,2.59,0,0,0,.61-.89,2.86,2.86,0,0,0,.26-1.22v-.18a.48.48,0,0,0,0-.18,2.41,2.41,0,0,0-.57-1.24,2.79,2.79,0,0,0-1.55-.87,4.17,4.17,0,0,1-2.26-1.22,3.38,3.38,0,0,1-1-2.44,1.68,1.68,0,0,1,0-.27c0-.1,0-.21.06-.33v0l0,0a.52.52,0,0,1,0-.19.63.63,0,0,0,0-.18,4.57,4.57,0,0,1,1.51-2.69,4.44,4.44,0,0,1,2.38-1l.21,0h.22a4,4,0,0,1,2.58.93A3.1,3.1,0,0,1,267.79,42,1.47,1.47,0,0,1,267.78,42.18Z"/></svg>