<svg id="Layer_1" data-name="Layer 1" xmlns="http://www.w3.org/2000/svg" viewBox="0 0 317 92.7"><defs><style>.cls-1{fill:#fff;}</style></defs><title>clientes</title><path class="cls-1" d="M72,44V54.25H63.2V26.14H72V35c0-3.55,7.09-3,7.09-3,6.55,0,6.42,6.22,6.42,6.22v16H76.79V44s.47-4.55-2.35-4.55c0,0-2.47-.4-2.47,4.55"/><path class="cls-1" d="M119.28,44V54.25h-8.77V32h8.83v3c0-3.55,7.1-3,7.1-3,6.56,0,6.43,6.22,6.43,6.22v16H124.1V44s.47-4.55-2.35-4.55c0,0-2.47-.4-2.47,4.55"/><path class="cls-1" d="M97.94,47.39c1.82,0,3.3-1.78,3.3-4s-1.48-4-3.3-4-3.32,1.78-3.32,4S96.1,47.39,97.94,47.39Zm-11.74-4A11.74,11.74,0,1,1,97.94,54.77,11.55,11.55,0,0,1,86.2,43.41"/><path class="cls-1" d="M144.65,40.33c2.34-2.35-1.14-2.21-1.14-2.21-2.54,0-1.73,3-1.73,3A4.39,4.39,0,0,0,144.65,40.33Zm10.84,1.4-13,4s0,2.14,4.48,2.14c0,0,5.49.13,8.57-2.94l-2.48,8.23s-2.07,1.6-7.44,1.6c0,0-12.38.07-12.38-11.5,0,0,.07-11.31,10.84-11.31,0,0,11.38-.8,11.38,9.77"/><path class="cls-1" d="M230.8,42.74V32.51h8.76V54.25h-8.82V51.71c0,3.54-7.09,3-7.09,3-6.55,0-6.42-6.22-6.42-6.22v-16H226V42.74s-.47,4.55,2.34,4.55c0,0,2.48.4,2.48-4.55"/><path class="cls-1" d="M204.95,47.25c1.83,0,3.32-1.77,3.32-4s-1.48-4-3.32-4-3.31,1.78-3.31,4S203.12,47.25,204.95,47.25Zm-11.72-4a11.73,11.73,0,1,1,11.72,11.35,11.54,11.54,0,0,1-11.72-11.35"/><path class="cls-1" d="M269,40.2c2.34-2.34-1.14-2.21-1.14-2.21-2.54,0-1.74,3-1.74,3A4.39,4.39,0,0,0,269,40.2Zm10.83,1.41-13,4s0,2.14,4.47,2.14c0,0,5.49.13,8.56-2.94L277.44,53s-2.07,1.6-7.42,1.6c0,0-12.37.07-12.37-11.5,0,0,.07-11.3,10.83-11.3,0,0,11.37-.81,11.37,9.76"/><path class="cls-1" d="M240.29,46.05l1.4,7.55s.34.87,6,.87c0,0,9.63-.14,9.63-7.55,0,0,.54-4.08-5.68-6.49a1.82,1.82,0,0,1-1.4-1.67s-.41-.87,1.4-.87c0,0,3.15,0,4.81,1.07l-1.61-6.75s-1.07-.47-4.67-.47c0,0-9.83-.87-9.83,6.55,0,0-.81,4.55,5.88,7.42,0,0,1.07,0,1.07,1.4a1.22,1.22,0,0,1-1.07.87,13.45,13.45,0,0,1-6-1.94"/><path class="cls-1" d="M37.09,54.3H47v-10h4.14c8.94,0,11.75-4.87,11.75-9.29,0-4.57-3-8.9-11.21-8.9H37.09ZM47,39V31.3h2.4c3.2,0,4.4,1.34,4.4,3.8S52.52,39,49.41,39H47"/><polyline class="cls-1" points="162.12 26.17 171.97 26.17 171.97 36.42 182.87 36.42 182.87 26.17 192.72 26.17 192.72 54.35 182.87 54.35 182.87 43.68 171.97 43.68 171.97 54.35 162.12 54.35 162.12 26.17"/><polyline class="cls-1" points="279.39 66.63 37.09 66.63 37.09 62.11 279.39 62.11 279.39 66.63"/></svg>