<svg id="Layer_1" data-name="Layer 1" xmlns="http://www.w3.org/2000/svg" viewBox="0 0 317 92.7"><defs><style>.cls-1,.cls-2{fill:#fff;}.cls-2{stroke:#555f76;stroke-miterlimit:10;stroke-width:0.03px;}</style></defs><title>clientes</title><path class="cls-1" d="M40.32,53.84A8.15,8.15,0,0,1,38,53.5a9.61,9.61,0,0,1-1.94-.79l1.38-3a6.81,6.81,0,0,0,1.21.48,4.07,4.07,0,0,0,1.21.18,2.31,2.31,0,0,0,1.45-.44,4,4,0,0,0,1.08-1.61L35,30.57h4.35l5,13.25L49,30.61h4.24l-7,18.24a15,15,0,0,1-1.11,2.32,6,6,0,0,1-1.31,1.54,4.56,4.56,0,0,1-1.53.86A6.31,6.31,0,0,1,40.32,53.84Z"/><path class="cls-1" d="M64.53,48.75A9.68,9.68,0,0,1,60.78,48a9.29,9.29,0,0,1-3-2,8.93,8.93,0,0,1-2-2.92,9.12,9.12,0,0,1-.7-3.63h0a9,9,0,0,1,.73-3.63,9.28,9.28,0,0,1,5-5,9.6,9.6,0,0,1,3.79-.74,9.7,9.7,0,0,1,3.79.73,9.09,9.09,0,0,1,5.67,8.55v.05a9,9,0,0,1-.73,3.57,9.24,9.24,0,0,1-5,4.9A9.72,9.72,0,0,1,64.53,48.75Zm.07-3.54a5.26,5.26,0,0,0,2.19-.46,5.18,5.18,0,0,0,1.7-1.21,5.31,5.31,0,0,0,1.07-1.8,6.41,6.41,0,0,0,.36-2.17V39.5a6.14,6.14,0,0,0-.4-2.23,5.56,5.56,0,0,0-1.13-1.82,5.36,5.36,0,0,0-1.71-1.21,5.5,5.5,0,0,0-4.38,0,5.25,5.25,0,0,0-1.69,1.21,5.11,5.11,0,0,0-1.08,1.78,6.52,6.52,0,0,0-.36,2.19v.07a6,6,0,0,0,.4,2.2,5.8,5.8,0,0,0,1.13,1.82,5.28,5.28,0,0,0,1.71,1.21,5.08,5.08,0,0,0,2.19.48Z"/><path class="cls-1" d="M83.64,48.72A5.91,5.91,0,0,1,79,46.86a7.27,7.27,0,0,1-1.6-4.94V30.57h4.1V40.64a4.72,4.72,0,0,0,1,3.17,3.5,3.5,0,0,0,2.78,1.13,3.78,3.78,0,0,0,2.87-1.21,4.52,4.52,0,0,0,1.1-3.24V30.57h4.1V48.35H89.18v-2.8a8.75,8.75,0,0,1-2.12,2.24A5.66,5.66,0,0,1,83.64,48.72Z"/><path class="cls-1" d="M97.73,30.57h4.11v2.79a10,10,0,0,1,1-1.21,6.24,6.24,0,0,1,1.21-1,6.07,6.07,0,0,1,1.54-.64,6.28,6.28,0,0,1,1.86-.26,5.93,5.93,0,0,1,4.66,1.85,7.26,7.26,0,0,1,1.64,5V48.39h-4.12V38.29a4.71,4.71,0,0,0-1-3.21A3.52,3.52,0,0,0,105.82,34a3.78,3.78,0,0,0-2.87,1.21,4.52,4.52,0,0,0-1.1,3.24v10H97.73Z"/><path class="cls-1" d="M118,24h4.41v3.87H118Zm.17,6.6h4.1V48.35h-4.1Z"/><path class="cls-1" d="M132.88,48.65a7.52,7.52,0,0,1-2.06-.26,4.22,4.22,0,0,1-1.65-.87,3.9,3.9,0,0,1-1.07-1.6,7.11,7.11,0,0,1-.38-2.42V34.13h-2.25V30.57h2.25V25.65h4.13V30.5h4.78v3.63h-4.78v8.72a2.2,2.2,0,0,0,.57,1.69,2.31,2.31,0,0,0,1.61.52,5.6,5.6,0,0,0,2.53-.6v3.33a6.91,6.91,0,0,1-1.65.68A7.65,7.65,0,0,1,132.88,48.65Z"/><path class="cls-1" d="M148.17,48.75a9.48,9.48,0,0,1-3.63-.68,8.6,8.6,0,0,1-4.84-4.84,9.66,9.66,0,0,1-.7-3.75h0a10.13,10.13,0,0,1,.64-3.63,9.1,9.1,0,0,1,1.91-2.93,8.49,8.49,0,0,1,2.8-2,8.35,8.35,0,0,1,3.5-.73,8.46,8.46,0,0,1,3.66.84,7.63,7.63,0,0,1,2.66,2.08,9,9,0,0,1,1.6,3,12.23,12.23,0,0,1,.54,3.63v1.15H143.07a5.2,5.2,0,0,0,1.73,3.35,5.13,5.13,0,0,0,3.39,1.21,6,6,0,0,0,2.63-.53A8.52,8.52,0,0,0,153,43.39l2.42,2.12a9.84,9.84,0,0,1-3.05,2.42A9.13,9.13,0,0,1,148.17,48.75Zm4-10.55a7,7,0,0,0-.44-1.84,4.73,4.73,0,0,0-.91-1.48,4.33,4.33,0,0,0-1.37-1,4.16,4.16,0,0,0-1.8-.37,4.1,4.1,0,0,0-3.11,1.3,5.85,5.85,0,0,0-1.51,3.39Z"/><path class="cls-1" d="M167,48.72a8,8,0,0,1-3.06-.61,7.71,7.71,0,0,1-2.63-1.78,9,9,0,0,1-1.85-2.89,10.28,10.28,0,0,1-.7-3.93v-.07a10.55,10.55,0,0,1,.69-3.94,8.86,8.86,0,0,1,1.83-2.89,7.65,7.65,0,0,1,2.64-1.78,8,8,0,0,1,3.07-.6,6.49,6.49,0,0,1,3.63.94,10,10,0,0,1,2.42,2.19V23.76h4.11V48.34H173v-3a9.24,9.24,0,0,1-2.42,2.42A6.4,6.4,0,0,1,167,48.72Zm1-3.53a4.85,4.85,0,0,0,3.63-1.56,5.77,5.77,0,0,0,1.13-1.8,6.2,6.2,0,0,0,.42-2.33v-.07a6.32,6.32,0,0,0-.42-2.34,5.53,5.53,0,0,0-1.13-1.8A4.91,4.91,0,0,0,170,34.13a4.79,4.79,0,0,0-2-.4,5,5,0,0,0-1.95.4,4.85,4.85,0,0,0-1.62,1.13,5.24,5.24,0,0,0-1.11,1.83,6.69,6.69,0,0,0-.4,2.42h0a6.47,6.47,0,0,0,.4,2.42,5.21,5.21,0,0,0,1.1,1.8,5,5,0,0,0,1.62,1.21A4.86,4.86,0,0,0,168,45.18Z"/><path class="cls-1" d="M199,48.75a8.16,8.16,0,0,1-3.39-.7,8.68,8.68,0,0,1-4.54-4.7,8.73,8.73,0,0,1-.65-3.39v-.07a8.73,8.73,0,0,1,.65-3.39,8.64,8.64,0,0,1,4.56-4.7,8.21,8.21,0,0,1,3.4-.7,7.74,7.74,0,0,1,3.89.9,12.2,12.2,0,0,1,2.81,2.24l-.51.47a11.52,11.52,0,0,0-2.64-2.07,7.2,7.2,0,0,0-3.64-.86,7.57,7.57,0,0,0-3.11.64,7.85,7.85,0,0,0-2.48,1.71,8,8,0,0,0-1.65,2.58,8.22,8.22,0,0,0-.59,3.11v.07a8.3,8.3,0,0,0,2.31,5.67,8,8,0,0,0,2.51,1.83A7.4,7.4,0,0,0,199,48a7,7,0,0,0,3.64-.92,11,11,0,0,0,2.64-2.2l.51.47A11,11,0,0,1,203,47.81,7.85,7.85,0,0,1,199,48.75Z"/><path class="cls-1" d="M209.8,31.51h.76V36.9a10.19,10.19,0,0,1,.9-2.08,7.91,7.91,0,0,1,1.45-1.9,7.08,7.08,0,0,1,2-1.33,6.23,6.23,0,0,1,2.53-.56v.73h-.17a5.25,5.25,0,0,0-2.79.8,7.8,7.8,0,0,0-2.12,1.94A8.91,8.91,0,0,0,211,37.08a7.94,7.94,0,0,0-.49,2.54v8.72h-.74Z"/><path class="cls-1" d="M227.66,48.75a8.52,8.52,0,0,1-3.26-.62,8,8,0,0,1-2.63-1.78,8.42,8.42,0,0,1-1.83-2.77,9.47,9.47,0,0,1-.68-3.63v-.07a9.7,9.7,0,0,1,.61-3.46,8.27,8.27,0,0,1,1.68-2.77,7.84,7.84,0,0,1,2.56-1.84,7.69,7.69,0,0,1,3.23-.68,7.14,7.14,0,0,1,3.45.79A7.37,7.37,0,0,1,233.22,34a8.74,8.74,0,0,1,1.41,2.86A11.48,11.48,0,0,1,235.1,40v.18H220a8.48,8.48,0,0,0,.68,3.28,8.18,8.18,0,0,0,1.67,2.5,7,7,0,0,0,2.42,1.6,7.89,7.89,0,0,0,2.94.56,6.83,6.83,0,0,0,3.63-1A8.85,8.85,0,0,0,234,44.71l.58.4a8.78,8.78,0,0,1-2.85,2.63A7.78,7.78,0,0,1,227.66,48.75Zm6.65-9.25a10.29,10.29,0,0,0-.54-2.84,8,8,0,0,0-1.36-2.42,6.84,6.84,0,0,0-2.16-1.78,6.37,6.37,0,0,0-3-.68,6.94,6.94,0,0,0-2.89.6A7,7,0,0,0,222.14,34a7.61,7.61,0,0,0-1.53,2.42,9.29,9.29,0,0,0-.63,3.06Z"/><path class="cls-1" d="M246.65,48.75a8.26,8.26,0,0,1-7.79-5.35,9.61,9.61,0,0,1-.62-3.44v-.07a9.61,9.61,0,0,1,.62-3.44,8.25,8.25,0,0,1,7.79-5.35,8.59,8.59,0,0,1,2.7.42,8,8,0,0,1,2.26,1.21,7.69,7.69,0,0,1,1.72,1.78,8.2,8.2,0,0,1,1.08,2.24v-13h.74V48.34h-.68V43.13a7.91,7.91,0,0,1-1.08,2.24,7.49,7.49,0,0,1-1.66,1.77,7.94,7.94,0,0,1-2.26,1.21A8.58,8.58,0,0,1,246.65,48.75Zm0-.68a7.39,7.39,0,0,0,3.13-.65,7.58,7.58,0,0,0,2.42-1.77,8.06,8.06,0,0,0,1.6-2.58,8.34,8.34,0,0,0,.57-3.11v-.07a8.52,8.52,0,0,0-.57-3.1,7.86,7.86,0,0,0-4.07-4.36,7.29,7.29,0,0,0-3.13-.65,7.79,7.79,0,0,0-3.14.62,7.16,7.16,0,0,0-2.32,1.73,7.68,7.68,0,0,0-1.53,2.58,8.83,8.83,0,0,0-.56,3.16v.07a8.89,8.89,0,0,0,.56,3.2,7.91,7.91,0,0,0,1.56,2.59,7.24,7.24,0,0,0,2.42,1.75,7.53,7.53,0,0,0,3.11.63Z"/><path class="cls-1" d="M260.77,24.78h1.08v1.91h-1.08Zm.17,6.73h.79V48.35H261Z"/><path class="cls-1" d="M272.7,48.65a4.19,4.19,0,0,1-3.23-1.21A4.85,4.85,0,0,1,268.35,44V32.15h-2.66v-.64h2.66V25.65h.74v5.86h6.23v.64h-6.23V44a4.42,4.42,0,0,0,.9,3,3.36,3.36,0,0,0,2.71,1,5.67,5.67,0,0,0,2.55-.61v.74A6,6,0,0,1,272.7,48.65Z"/><polygon class="cls-1" points="278.16 44.35 282 44.35 282 48.34 278.15 48.34 278.16 44.35"/><path class="cls-2" d="M59,61.3h.37v1.62a3.22,3.22,0,0,1,.4-.69,2.51,2.51,0,0,1,.58-.56,3,3,0,0,1,.74-.37,2.68,2.68,0,0,1,.9-.15,2.85,2.85,0,0,1,1.13.23A2.71,2.71,0,0,1,64,62a3.08,3.08,0,0,1,.63,1,3.17,3.17,0,0,1,.23,1.21h0a3.19,3.19,0,0,1-.23,1.21,3.12,3.12,0,0,1-.63,1,2.71,2.71,0,0,1-.92.64,2.92,2.92,0,0,1-2,.1,2.65,2.65,0,0,1-1.32-1,2.89,2.89,0,0,1-.39-.68v3.47H59ZM62,67a2.66,2.66,0,0,0,1-.19,2.44,2.44,0,0,0,.81-.56,2.61,2.61,0,0,0,.53-.86,3.06,3.06,0,0,0,.18-1.09h0a3,3,0,0,0-.19-1.08,2.69,2.69,0,0,0-.53-.87,2.37,2.37,0,0,0-.81-.57,2.55,2.55,0,0,0-2.87.58,2.73,2.73,0,0,0-.57.86,2.8,2.8,0,0,0-.19,1.07h0a2.73,2.73,0,0,0,.2,1.07,2.8,2.8,0,0,0,.56.86,2.71,2.71,0,0,0,.82.58A2.55,2.55,0,0,0,62,67Z"/><path class="cls-2" d="M67.91,61.3h.37v1.8a3.09,3.09,0,0,1,.36-.73,2.91,2.91,0,0,1,.57-.62,2.5,2.5,0,0,1,.71-.43,2.17,2.17,0,0,1,.87-.14v.39h0a2.08,2.08,0,0,0-1,.24,2.6,2.6,0,0,0-.77.63,3,3,0,0,0-.51.91,3.13,3.13,0,0,0-.18,1v2.8H68Z"/><path class="cls-2" d="M75.9,67.35a3,3,0,0,1-1.14-.22,2.71,2.71,0,0,1-.93-.61,3,3,0,0,1-.63-1A3.39,3.39,0,0,1,73,64.32h0a3.39,3.39,0,0,1,.21-1.21,3,3,0,0,1,.59-1,2.68,2.68,0,0,1,.9-.65,2.66,2.66,0,0,1,1.13-.23,2.56,2.56,0,0,1,1.21.27,2.65,2.65,0,0,1,.85.7,2.92,2.92,0,0,1,.52,1,4,4,0,0,1,.17,1.21H73.37a2.9,2.9,0,0,0,.24,1.08,2.57,2.57,0,0,0,.56.81,2.39,2.39,0,0,0,.8.51,2.57,2.57,0,0,0,.94.18,2.39,2.39,0,0,0,1.21-.32,3,3,0,0,0,.9-.77l.28.22a3.51,3.51,0,0,1-1,.89A2.77,2.77,0,0,1,75.9,67.35Zm2.19-3.3a3.32,3.32,0,0,0-.18-.93,2.73,2.73,0,0,0-.45-.81,2.13,2.13,0,0,0-1.7-.79,2.28,2.28,0,0,0-1.68.73,2.55,2.55,0,0,0-.51.8,3,3,0,0,0-.22,1Zm-1.61-5.32.46.23-1.21,1.21h-.29Z"/><path class="cls-2" d="M83.3,67.29a3.68,3.68,0,0,1-1.21-.23A3.89,3.89,0,0,1,81,66.42l.22-.3a3.82,3.82,0,0,0,1.06.6,3.24,3.24,0,0,0,1.14.2,2.55,2.55,0,0,0,.65-.09,1.57,1.57,0,0,0,.53-.26,1.21,1.21,0,0,0,.35-.39,1,1,0,0,0,.13-.49h0a.88.88,0,0,0-.16-.52,1.2,1.2,0,0,0-.4-.35,3.41,3.41,0,0,0-.57-.26l-.7-.18-.79-.24a3.1,3.1,0,0,1-.65-.3,1.39,1.39,0,0,1-.45-.43,1.13,1.13,0,0,1-.16-.63h0a1.29,1.29,0,0,1,.14-.6,1.58,1.58,0,0,1,.41-.5,1.88,1.88,0,0,1,.63-.32,2.7,2.7,0,0,1,.82-.12,3.32,3.32,0,0,1,1.05.17,3.94,3.94,0,0,1,1,.5l-.21.31a3.29,3.29,0,0,0-1.87-.62A1.88,1.88,0,0,0,82,62a1,1,0,0,0-.44.82h0a.75.75,0,0,0,.14.47,1.33,1.33,0,0,0,.39.34,2.61,2.61,0,0,0,.57.26l.68.2.78.23a2.8,2.8,0,0,1,.65.31,1.52,1.52,0,0,1,.45.46,1.23,1.23,0,0,1,.17.66h0a1.34,1.34,0,0,1-.17.66,1.61,1.61,0,0,1-.45.51,2.08,2.08,0,0,1-.67.32A2.87,2.87,0,0,1,83.3,67.29Z"/><path class="cls-2" d="M90.34,67.29A1.45,1.45,0,0,1,88.77,66a1.47,1.47,0,0,1,0-.3V61.61h-.9V61.3h.9v-2h.37v2h2.14v.33H89.16v4a1.33,1.33,0,0,0,.33,1,1.22,1.22,0,0,0,.91.32,2.21,2.21,0,0,0,.89-.19v.36A2,2,0,0,1,90.34,67.29Z"/><path class="cls-2" d="M95.95,67.35a3.1,3.1,0,0,1-.82-.11,2.34,2.34,0,0,1-.73-.4,1.69,1.69,0,0,1-.51-.57,1.62,1.62,0,0,1-.18-.79h0a1.65,1.65,0,0,1,.19-.81,1.81,1.81,0,0,1,.54-.61,2.69,2.69,0,0,1,.82-.36,4.59,4.59,0,0,1,1-.12,6.66,6.66,0,0,1,1.21.1,6.9,6.9,0,0,1,1,.24v-.4A1.89,1.89,0,0,0,97.92,62a2.25,2.25,0,0,0-1.55-.48,3.61,3.61,0,0,0-1,.13,5.69,5.69,0,0,0-.91.36l-.15-.33a6.8,6.8,0,0,1,1-.39,3.92,3.92,0,0,1,1.09-.14,2.53,2.53,0,0,1,1.88.64,2,2,0,0,1,.44.71,2.77,2.77,0,0,1,.16,1v3.64h-.38V65.93a2.15,2.15,0,0,1-.33.49,2.54,2.54,0,0,1-.52.43,2.79,2.79,0,0,1-.71.33A3.14,3.14,0,0,1,95.95,67.35Zm0-.36a3,3,0,0,0,1-.16,2.52,2.52,0,0,0,.77-.43,2,2,0,0,0,.52-.63,1.55,1.55,0,0,0,.18-.75V64.3a7.69,7.69,0,0,0-.94-.23,7.23,7.23,0,0,0-1.21-.1,4,4,0,0,0-.9.1,2.19,2.19,0,0,0-.69.3,1.44,1.44,0,0,0-.45.48,1.19,1.19,0,0,0-.17.64h0a1.26,1.26,0,0,0,.16.64,1.38,1.38,0,0,0,.41.46,1.79,1.79,0,0,0,.59.28A2.8,2.8,0,0,0,96,67Z"/><path class="cls-2" d="M102.1,61.3h.38v1.32a2.27,2.27,0,0,1,.28-.52,2.57,2.57,0,0,1,.44-.48,2.05,2.05,0,0,1,.58-.32,2,2,0,0,1,.73-.14,2.32,2.32,0,0,1,.79.12,1.83,1.83,0,0,1,.59.33,2.26,2.26,0,0,1,.42.5,2.51,2.51,0,0,1,.27.59,2.43,2.43,0,0,1,.3-.57,2.39,2.39,0,0,1,.46-.49,2.26,2.26,0,0,1,.6-.35,2.11,2.11,0,0,1,.75-.14,2.15,2.15,0,0,1,1.62.65,2.64,2.64,0,0,1,.6,1.87v3.53h-.37V63.72a2.34,2.34,0,0,0-.47-1.66,1.77,1.77,0,0,0-1.37-.56,1.69,1.69,0,0,0-.73.16,1.94,1.94,0,0,0-.63.46,2.26,2.26,0,0,0-.44.7,2.45,2.45,0,0,0-.17.91v3.45h-.42V63.72a2.32,2.32,0,0,0-.52-1.62,1.77,1.77,0,0,0-1.36-.56,1.67,1.67,0,0,0-.74.17,2,2,0,0,0-.63.49,2.42,2.42,0,0,0-.61,1.59v3.43h-.38Z"/><path class="cls-2" d="M116.92,67.35a3.07,3.07,0,0,1-1.21-.24,2.94,2.94,0,0,1-1-.66,3,3,0,0,1-.63-1,3.17,3.17,0,0,1-.22-1.21h0a3.21,3.21,0,0,1,.22-1.21,3,3,0,0,1,1.6-1.74,3.19,3.19,0,0,1,2.48,0A3,3,0,0,1,119.75,63a3.1,3.1,0,0,1,.22,1.21h0a3.18,3.18,0,0,1-.22,1.21,2.94,2.94,0,0,1-.63,1,3.07,3.07,0,0,1-2.2.95Zm0-.36a2.61,2.61,0,0,0,1.08-.22,2.54,2.54,0,0,0,.84-.59,2.72,2.72,0,0,0,.54-.86,2.84,2.84,0,0,0,.19-1h0a2.73,2.73,0,0,0-.19-1.06,2.68,2.68,0,0,0-3.48-1.48l-.07,0a2.52,2.52,0,0,0-.83.59,2.72,2.72,0,0,0-.55.86,2.84,2.84,0,0,0-.19,1.06h0a2.78,2.78,0,0,0,.19,1,2.69,2.69,0,0,0,.56.86,2.6,2.6,0,0,0,.85.59,2.52,2.52,0,0,0,1.08.22Z"/><path class="cls-2" d="M127.59,61.3H128v1.32a2.35,2.35,0,0,1,.28-.52,2.61,2.61,0,0,1,.44-.48,2.11,2.11,0,0,1,.58-.33,2,2,0,0,1,.73-.14,2.33,2.33,0,0,1,.79.12,2,2,0,0,1,.59.34,2.12,2.12,0,0,1,.42.5,2.25,2.25,0,0,1,.27.59,2.5,2.5,0,0,1,.3-.57,2.6,2.6,0,0,1,.46-.5,2.25,2.25,0,0,1,.61-.35,1.9,1.9,0,0,1,.75-.14,2.15,2.15,0,0,1,1.62.65,2.65,2.65,0,0,1,.61,1.87V67.2h-.35V63.72a2.35,2.35,0,0,0-.56-1.66,1.78,1.78,0,0,0-1.37-.56,1.7,1.7,0,0,0-.73.16,2,2,0,0,0-.63.46,2.26,2.26,0,0,0-.44.7,2.45,2.45,0,0,0-.17.91v3.45h-.3V63.72a2.32,2.32,0,0,0-.52-1.62,1.77,1.77,0,0,0-1.36-.56,1.67,1.67,0,0,0-.74.17,2,2,0,0,0-.63.49,2.41,2.41,0,0,0-.61,1.59v3.43h-.38Z"/><path class="cls-2" d="M141.55,67.35a3.11,3.11,0,0,1-.82-.11,2.37,2.37,0,0,1-.71-.34,1.74,1.74,0,0,1-.51-.57,1.62,1.62,0,0,1-.18-.79h0a1.65,1.65,0,0,1,.19-.81,1.75,1.75,0,0,1,.54-.61,2.56,2.56,0,0,1,.82-.36,4,4,0,0,1,1-.12,6,6,0,0,1,1.15.1,6.25,6.25,0,0,1,1,.24v-.4a1.88,1.88,0,0,0-.56-1.49,2.28,2.28,0,0,0-1.55-.49,3.62,3.62,0,0,0-1,.14,5.21,5.21,0,0,0-.91.36l-.15-.33a6.93,6.93,0,0,1,1-.39,3.93,3.93,0,0,1,1.09-.15,2.56,2.56,0,0,1,1.88.64,2,2,0,0,1,.44.71,2.83,2.83,0,0,1,.16,1V67.2H144V66a2.06,2.06,0,0,1-.33.48,2.36,2.36,0,0,1-.52.44,3,3,0,0,1-.71.33A3.38,3.38,0,0,1,141.55,67.35Zm0-.36a3,3,0,0,0,1-.16,2.55,2.55,0,0,0,.77-.43,2,2,0,0,0,.52-.63A1.57,1.57,0,0,0,144,65V64.3a7.76,7.76,0,0,0-.94-.23,7.23,7.23,0,0,0-1.21-.1,4,4,0,0,0-.9.1,2.19,2.19,0,0,0-.69.3,1.41,1.41,0,0,0-.45.48,1.25,1.25,0,0,0-.17.64h0a1.26,1.26,0,0,0,.16.64,1.41,1.41,0,0,0,.41.46,1.81,1.81,0,0,0,.59.28,2.8,2.8,0,0,0,.75.12Zm1.21-8.25.46.23L142,60.18h-.29Z"/><path class="cls-2" d="M149.53,67.29a3.68,3.68,0,0,1-1.21-.23,3.87,3.87,0,0,1-1.13-.64l.22-.3a3.79,3.79,0,0,0,1.05.6,3.25,3.25,0,0,0,1.14.2,2.55,2.55,0,0,0,.65-.09,1.59,1.59,0,0,0,.53-.26,1.2,1.2,0,0,0,.35-.39,1,1,0,0,0,.13-.49h0a.87.87,0,0,0-.16-.52,1.21,1.21,0,0,0-.4-.35,3.39,3.39,0,0,0-.57-.26l-.65-.19-.79-.24a3.09,3.09,0,0,1-.65-.3,1.39,1.39,0,0,1-.45-.43,1.11,1.11,0,0,1-.16-.63h0a1.24,1.24,0,0,1,.14-.6,1.56,1.56,0,0,1,.41-.5,2,2,0,0,1,.63-.33,2.89,2.89,0,0,1,.82-.12,3.32,3.32,0,0,1,1.05.17,4.12,4.12,0,0,1,1,.49l-.21.32a3.18,3.18,0,0,0-.91-.46,3,3,0,0,0-1-.16,1.88,1.88,0,0,0-1.21.34,1,1,0,0,0-.44.82h0a.78.78,0,0,0,.12.43,1.31,1.31,0,0,0,.39.33,2.62,2.62,0,0,0,.57.26l.68.21.78.23a2.81,2.81,0,0,1,.65.32,1.46,1.46,0,0,1,.45.46,1.19,1.19,0,0,1,.17.65h0a1.34,1.34,0,0,1-.17.66,1.55,1.55,0,0,1-.45.51,2.21,2.21,0,0,1-.67.33A2.84,2.84,0,0,1,149.53,67.29Z"/><path class="cls-2" d="M162.3,67.35a2.75,2.75,0,0,1-.91-.14,2.68,2.68,0,0,1-1.32-.93,3.15,3.15,0,0,1-.39-.68V67.2h-.37V58.63h.4v4.28a3.09,3.09,0,0,1,.4-.69,2.52,2.52,0,0,1,.58-.56,2.81,2.81,0,0,1,.74-.37,2.67,2.67,0,0,1,.9-.15,2.87,2.87,0,0,1,1.13.23,2.72,2.72,0,0,1,.92.64,3.12,3.12,0,0,1,.63,1,3.18,3.18,0,0,1,.23,1.21h0A3.15,3.15,0,0,1,165,65.4a3.2,3.2,0,0,1-.63,1,2.8,2.8,0,0,1-.92.64A2.84,2.84,0,0,1,162.3,67.35Zm0-.36a2.65,2.65,0,0,0,1-.19,2.44,2.44,0,0,0,.81-.56,2.61,2.61,0,0,0,.53-.86,2.94,2.94,0,0,0,.18-1.09h0a2.92,2.92,0,0,0-.19-1.08,2.66,2.66,0,0,0-.53-.87,2.38,2.38,0,0,0-.81-.57,2.61,2.61,0,0,0-2,0,2.57,2.57,0,0,0-.82.58,2.72,2.72,0,0,0-.54.86,2.8,2.8,0,0,0-.19,1.07h0a2.73,2.73,0,0,0,.76,1.92,2.58,2.58,0,0,0,.82.58,2.47,2.47,0,0,0,1,.2Z"/><path class="cls-2" d="M170,67.35a3.09,3.09,0,0,1-.82-.11,2.26,2.26,0,0,1-.66-.4,1.69,1.69,0,0,1-.51-.57,1.66,1.66,0,0,1-.18-.79h0a1.68,1.68,0,0,1,.19-.81,1.83,1.83,0,0,1,.54-.61,2.57,2.57,0,0,1,.85-.35,4.26,4.26,0,0,1,1-.12,6.54,6.54,0,0,1,1.15.1,8,8,0,0,1,1,.24v-.4A1.89,1.89,0,0,0,172,62a2.27,2.27,0,0,0-1.55-.48,3.6,3.6,0,0,0-1,.13,5.7,5.7,0,0,0-.91.36l-.15-.32a6.12,6.12,0,0,1,1-.44,3.9,3.9,0,0,1,1.09-.15,2.53,2.53,0,0,1,1.87.64,1.94,1.94,0,0,1,.43.71,2.77,2.77,0,0,1,.16,1v3.63h-.37V65.9a2.14,2.14,0,0,1-.33.48,2.32,2.32,0,0,1-.52.44,3,3,0,0,1-.71.33A3.19,3.19,0,0,1,170,67.35Zm0-.36a2.94,2.94,0,0,0,1-.16,2.53,2.53,0,0,0,.78-.43,2,2,0,0,0,.52-.63,1.62,1.62,0,0,0,.18-.75V64.3a7.94,7.94,0,0,0-.95-.23,7.2,7.2,0,0,0-1.21-.1,4,4,0,0,0-.9.1,2.17,2.17,0,0,0-.69.3,1.43,1.43,0,0,0-.45.48,1.26,1.26,0,0,0-.17.64h0a1.25,1.25,0,0,0,.16.64,1.42,1.42,0,0,0,.41.46,1.94,1.94,0,0,0,.59.28A2.82,2.82,0,0,0,170,67Z"/><path class="cls-2" d="M176.15,61.3h.38v1.8a2.81,2.81,0,0,1,.36-.73,2.77,2.77,0,0,1,.54-.62,2.47,2.47,0,0,1,.71-.43,2.17,2.17,0,0,1,.87-.14v.39h0a2.08,2.08,0,0,0-1,.24,2.63,2.63,0,0,0-.77.63,3,3,0,0,0-.51.91,3.14,3.14,0,0,0-.18,1v2.8h-.37Z"/><path class="cls-2" d="M183.37,67.35a3.11,3.11,0,0,1-.83-.11,2.39,2.39,0,0,1-.73-.4,1.68,1.68,0,0,1-.5-.57,1.6,1.6,0,0,1-.18-.79h0a1.62,1.62,0,0,1,.19-.81,1.8,1.8,0,0,1,.54-.61,2.54,2.54,0,0,1,.85-.35,4.31,4.31,0,0,1,1-.12,6.54,6.54,0,0,1,1.15.1,7.81,7.81,0,0,1,1,.24v-.4a1.88,1.88,0,0,0-.56-1.49,2.28,2.28,0,0,0-1.55-.48,3.59,3.59,0,0,0-1,.13,5.74,5.74,0,0,0-.91.36l-.14-.32a6.23,6.23,0,0,1,1-.39,3.92,3.92,0,0,1,1.09-.14,2.54,2.54,0,0,1,1.88.64,2.06,2.06,0,0,1,.44.71,2.79,2.79,0,0,1,.15,1v3.64h-.37V65.94a2.15,2.15,0,0,1-.32.49,2.55,2.55,0,0,1-.52.43,2.78,2.78,0,0,1-.71.33A3.07,3.07,0,0,1,183.37,67.35Zm0-.36a3,3,0,0,0,1-.16,2.57,2.57,0,0,0,.77-.43,2,2,0,0,0,.52-.63,1.62,1.62,0,0,0,.18-.75V64.3a7.62,7.62,0,0,0-.94-.23,7.21,7.21,0,0,0-1.21-.1,4,4,0,0,0-.9.1,2.21,2.21,0,0,0-.69.3,1.46,1.46,0,0,0-.45.48,1.23,1.23,0,0,0-.17.64h0a1.25,1.25,0,0,0,.15.64,1.4,1.4,0,0,0,.41.46,1.82,1.82,0,0,0,.59.28,2.8,2.8,0,0,0,.75.12Z"/><path class="cls-2" d="M191.42,67.29A1.45,1.45,0,0,1,189.84,66a1.47,1.47,0,0,1,0-.3V61.61H189V61.3h.89v-2h.38v2h2.18v.33h-2.18v4a1.31,1.31,0,0,0,.32,1,1.22,1.22,0,0,0,.91.32,2.2,2.2,0,0,0,.9-.19v.36A2.09,2.09,0,0,1,191.42,67.29Z"/><path class="cls-2" d="M197.9,67.35a3.09,3.09,0,0,1-1.21-.24,2.9,2.9,0,0,1-1-.66,3,3,0,0,1-.63-1,3.17,3.17,0,0,1-.22-1.21h0a3.16,3.16,0,0,1,.22-1.21,3,3,0,0,1,.63-1,3.16,3.16,0,0,1,3.45-.68,2.93,2.93,0,0,1,1,.66,3.1,3.1,0,0,1,.63,1,3.19,3.19,0,0,1,.22,1.21h0a3.22,3.22,0,0,1-.22,1.21,3,3,0,0,1-1.6,1.66A3,3,0,0,1,197.9,67.35Zm0-.36a2.62,2.62,0,0,0,1.08-.22,2.57,2.57,0,0,0,.83-.59,2.75,2.75,0,0,0,.54-.86,2.78,2.78,0,0,0,.19-1h0a2.79,2.79,0,0,0-.2-1.06,2.68,2.68,0,0,0-3.48-1.48l-.07,0a2.58,2.58,0,0,0-.84.59,2.79,2.79,0,0,0-.54.86,2.84,2.84,0,0,0-.19,1.06h0a2.28,2.28,0,0,0,.81,1.87,2.61,2.61,0,0,0,.85.6,2.49,2.49,0,0,0,1.09.22Z"/><path class="cls-2" d="M203.52,68a.74.74,0,0,0,.36-.33,1,1,0,0,0,.07-.53h-.26v-.77h.56v.67a1.51,1.51,0,0,1-.16.77.9.9,0,0,1-.5.37Z"/><path class="cls-2" d="M213.89,67.29a3.65,3.65,0,0,1-1.21-.23,4,4,0,0,1-1.13-.64l.22-.28a3.81,3.81,0,0,0,1,.6,3.27,3.27,0,0,0,1.14.2,2.21,2.21,0,0,0,.54-.11,1.57,1.57,0,0,0,.53-.26,1.18,1.18,0,0,0,.36-.44,1,1,0,0,0,.13-.49h0a.9.9,0,0,0-.16-.52,1.34,1.34,0,0,0-.4-.35,3.3,3.3,0,0,0-.57-.26l-.65-.19-.79-.24a3.43,3.43,0,0,1-.65-.31,1.32,1.32,0,0,1-.45-.42,1.13,1.13,0,0,1-.16-.63h0a1.28,1.28,0,0,1,.15-.61,1.51,1.51,0,0,1,.41-.5,1.9,1.9,0,0,1,.63-.32,2.7,2.7,0,0,1,.82-.12,3.69,3.69,0,0,1,1.06.17,3.87,3.87,0,0,1,1,.5l-.2.31a3.28,3.28,0,0,0-1.87-.62,1.87,1.87,0,0,0-1.21.34,1,1,0,0,0-.44.82h0a.78.78,0,0,0,.14.48,1.29,1.29,0,0,0,.39.33,2.62,2.62,0,0,0,.57.26l.68.2.77.23a2.73,2.73,0,0,1,.66.31,1.59,1.59,0,0,1,.45.47,1.18,1.18,0,0,1,.17.65h0a1.3,1.3,0,0,1-.17.66,1.61,1.61,0,0,1-.45.51,2.1,2.1,0,0,1-.67.32A2.8,2.8,0,0,1,213.89,67.29Z"/><path class="cls-2" d="M219,58.88h.52v.71H219Zm0,2.42h.4V67.2H219Z"/><path class="cls-2" d="M223,61.3h.37v1.4a3,3,0,0,1,.29-.53,2.43,2.43,0,0,1,.47-.5,2.2,2.2,0,0,1,.65-.36,2.34,2.34,0,0,1,.86-.15,2.72,2.72,0,0,1,1,.18,2.17,2.17,0,0,1,.77.53,2.42,2.42,0,0,1,.47.82,3.34,3.34,0,0,1,.17,1.06V67.2h-.37V63.82a2.45,2.45,0,0,0-.53-1.66,2,2,0,0,0-1.58-.63,2.21,2.21,0,0,0-.87.18,2.25,2.25,0,0,0-.7.5,2.53,2.53,0,0,0-.66,1.68V67.2H223Z"/><path class="cls-2" d="M239,67.35a2.71,2.71,0,0,1-.91-.14,2.67,2.67,0,0,1-1.32-.93,3,3,0,0,1-.39-.68V67.2H236V58.63h.38v4.28a3.08,3.08,0,0,1,.4-.69,2.48,2.48,0,0,1,.58-.56,2.74,2.74,0,0,1,.74-.37,2.67,2.67,0,0,1,.9-.15,2.84,2.84,0,0,1,1.12.23A2.72,2.72,0,0,1,241,62a3,3,0,0,1,.63,1,3.19,3.19,0,0,1,.23,1.21h0a3.27,3.27,0,0,1-.23,1.21,3.09,3.09,0,0,1-.63,1,2.8,2.8,0,0,1-.92.64A2.86,2.86,0,0,1,239,67.35Zm0-.36a2.54,2.54,0,0,0,.94-.15,2.28,2.28,0,0,0,.81-.56,2.59,2.59,0,0,0,.53-.86,3,3,0,0,0,.18-1.1h0a2.94,2.94,0,0,0-.19-1.08,2.7,2.7,0,0,0-.53-.87,2.48,2.48,0,0,0-.81-.57,2.62,2.62,0,0,0-2,0,2.63,2.63,0,0,0-1.37,1.44,2.87,2.87,0,0,0-.19,1.07h0a2.83,2.83,0,0,0,.2,1.07,2.8,2.8,0,0,0,.56.86,2.55,2.55,0,0,0,.82.58,2.46,2.46,0,0,0,1,.16Z"/><path class="cls-2" d="M246.68,67.35a3.09,3.09,0,0,1-.82-.11,2.37,2.37,0,0,1-.71-.34,1.75,1.75,0,0,1-.51-.57,1.66,1.66,0,0,1-.18-.79h0a1.68,1.68,0,0,1,.19-.81,1.82,1.82,0,0,1,.55-.61,2.55,2.55,0,0,1,.82-.36,4,4,0,0,1,1-.12,6,6,0,0,1,1.15.1,6.41,6.41,0,0,1,1,.24v-.4a1.88,1.88,0,0,0-.56-1.49,2.27,2.27,0,0,0-1.55-.49,3.62,3.62,0,0,0-1,.14,5.2,5.2,0,0,0-.91.36l-.15-.33a7.07,7.07,0,0,1,1-.39,3.93,3.93,0,0,1,1.09-.15,2.56,2.56,0,0,1,1.88.64,2.06,2.06,0,0,1,.44.71,2.83,2.83,0,0,1,.16,1V67.2h-.37V66a2.19,2.19,0,0,1-.33.48,2.4,2.4,0,0,1-.52.44,2.93,2.93,0,0,1-.71.33A3.35,3.35,0,0,1,246.68,67.35Zm0-.36a2.94,2.94,0,0,0,1-.16,2.53,2.53,0,0,0,.78-.43,2,2,0,0,0,.52-.63,1.49,1.49,0,0,0,.18-.75V64.3a7.61,7.61,0,0,0-.94-.23A7.24,7.24,0,0,0,247,64a3.92,3.92,0,0,0-.9.1,2.14,2.14,0,0,0-.69.3,1.4,1.4,0,0,0-.45.48,1.26,1.26,0,0,0-.17.64h0a1.25,1.25,0,0,0,.16.64,1.45,1.45,0,0,0,.41.46,1.84,1.84,0,0,0,.63.26,2.59,2.59,0,0,0,.71.15Z"/><path class="cls-2" d="M252.84,61.3h.41v1.4a3.25,3.25,0,0,1,.29-.53,2.48,2.48,0,0,1,.47-.5,2.26,2.26,0,0,1,.66-.36,2.33,2.33,0,0,1,.86-.15,2.62,2.62,0,0,1,1,.15,2,2,0,0,1,.76.53,2.29,2.29,0,0,1,.47.82,3,3,0,0,1,.17,1v3.47h-.37V63.78a2.4,2.4,0,0,0-.53-1.66,1.94,1.94,0,0,0-1.57-.63,2,2,0,0,0-.87.18,2.26,2.26,0,0,0-.7.49,2.43,2.43,0,0,0-.64,1.68v3.32h-.34Z"/><path class="cls-2" d="M263.84,67.35a2.86,2.86,0,0,1-1.21-.24,3,3,0,0,1-1-.66,3.23,3.23,0,0,1-.64-1,3,3,0,0,1-.23-1.21h0A3,3,0,0,1,261,63a3.23,3.23,0,0,1,.64-1,3,3,0,0,1,1-.66,3.07,3.07,0,0,1,2-.16,2.71,2.71,0,0,1,.61.24,2.79,2.79,0,0,1,.53.35,4.59,4.59,0,0,1,.46.42l-.27.27a4.18,4.18,0,0,0-.89-.71,2.33,2.33,0,0,0-1.21-.3,2.42,2.42,0,0,0-1,.22,2.75,2.75,0,0,0-.83.58,2.72,2.72,0,0,0-.54.86,2.81,2.81,0,0,0-.19,1.06h0a2.7,2.7,0,0,0,.21,1.06,2.64,2.64,0,0,0,.56.87,2.55,2.55,0,0,0,.83.6,2.38,2.38,0,0,0,1,.22,2.28,2.28,0,0,0,1.21-.31,3.87,3.87,0,0,0,.9-.74l.31.24a3.9,3.9,0,0,1-1,.85A2.7,2.7,0,0,1,263.84,67.35Z"/><path class="cls-2" d="M271.73,67.35a3.1,3.1,0,0,1-1.21-.24,2.9,2.9,0,0,1-1-.66,3,3,0,0,1-.63-1,3.18,3.18,0,0,1-.22-1.21h0a3.17,3.17,0,0,1,.22-1.21,3,3,0,0,1,.63-1,3.16,3.16,0,0,1,3.45-.68,2.94,2.94,0,0,1,1,.66,3.09,3.09,0,0,1,.63,1,3.25,3.25,0,0,1,.22,1.21h0a3.28,3.28,0,0,1-.22,1.21,3,3,0,0,1-1.6,1.66A3,3,0,0,1,271.73,67.35Zm0-.36a2.62,2.62,0,0,0,1.08-.22,2.54,2.54,0,0,0,.83-.59,2.65,2.65,0,0,0,.54-.86,2.78,2.78,0,0,0,.19-1h0a2.7,2.7,0,0,0-3.69-2.54l-.06,0a2.56,2.56,0,0,0-.84.59,2.85,2.85,0,0,0-.54.86,2.9,2.9,0,0,0-.19,1.06h0a2.77,2.77,0,0,0,.19,1,2.64,2.64,0,0,0,.56.86,2.51,2.51,0,0,0,1.92.79Z"/><path class="cls-2" d="M279.58,67.29a3.66,3.66,0,0,1-1.21-.23,3.84,3.84,0,0,1-1.13-.64l.22-.3a3.88,3.88,0,0,0,1.06.6,3.24,3.24,0,0,0,1.14.2,2.51,2.51,0,0,0,.65-.09,1.59,1.59,0,0,0,.53-.26,1.27,1.27,0,0,0,.35-.39,1,1,0,0,0,.13-.49h0a.89.89,0,0,0-.15-.52,1.2,1.2,0,0,0-.4-.35,3,3,0,0,0-.57-.26l-.65-.19-.79-.24a3.09,3.09,0,0,1-.65-.3,1.34,1.34,0,0,1-.45-.43,1.11,1.11,0,0,1-.16-.63h0a1.29,1.29,0,0,1,.14-.6,1.6,1.6,0,0,1,.41-.5,2,2,0,0,1,.63-.33,2.65,2.65,0,0,1,.9-.06,3.34,3.34,0,0,1,1.06.17,3.92,3.92,0,0,1,1,.49l-.2.32a3.23,3.23,0,0,0-.91-.47,3,3,0,0,0-1-.15,1.93,1.93,0,0,0-1.21.33,1,1,0,0,0-.43.83h0a.78.78,0,0,0,.14.47,1.41,1.41,0,0,0,.39.34,2.84,2.84,0,0,0,.57.25l.68.21.78.23a2.78,2.78,0,0,1,.65.32,1.5,1.5,0,0,1,.45.46,1.2,1.2,0,0,1,.17.65h0a1.38,1.38,0,0,1-.17.67,1.61,1.61,0,0,1-.46.46,2.06,2.06,0,0,1-.66.32A2.82,2.82,0,0,1,279.58,67.29Z"/><path class="cls-1" d="M37.84,63.79V58.88h.63v4.84a2.77,2.77,0,0,0,2.35,3.13,2.74,2.74,0,0,0,.53,0c1.73,0,2.83-1,2.83-3.1v-4.9h.63v4.84a3.34,3.34,0,0,1-2.91,3.72,3.24,3.24,0,0,1-.57,0,3.32,3.32,0,0,1-3.5-3.13A3.16,3.16,0,0,1,37.84,63.79Z"/><path class="cls-1" d="M47.11,61.13h.59v1.21a2.48,2.48,0,0,1,4.66,1.12s0,.09,0,.14v3.76h-.59V63.72a1.89,1.89,0,0,0-1.64-2.11h-.33a2.13,2.13,0,0,0-2.11,2.12v3.63h-.58Z"/></svg>