<svg id="Layer_1" data-name="Layer 1" xmlns="http://www.w3.org/2000/svg" xmlns:xlink="http://www.w3.org/1999/xlink" viewBox="0 0 201.31 189.88"><defs><style>.cls-1{fill:#ecf8fc;}.cls-2{fill:#f3fdff;}.cls-3{fill:url(#linear-gradient);}.cls-4{fill:url(#linear-gradient-2);}.cls-5{fill:url(#linear-gradient-3);}.cls-6{fill:url(#linear-gradient-4);}</style><linearGradient id="linear-gradient" x1="84.02" y1="74.78" x2="57.08" y2="106.88" gradientUnits="userSpaceOnUse"><stop offset="0" stop-color="#006dff"/><stop offset="1" stop-color="#43d2f1"/></linearGradient><linearGradient id="linear-gradient-2" x1="116.32" y1="81.82" x2="101.21" y2="99.83" xlink:href="#linear-gradient"/><linearGradient id="linear-gradient-3" x1="136.79" y1="47.41" x2="62.01" y2="136.52" xlink:href="#linear-gradient"/><linearGradient id="linear-gradient-4" x1="125.09" y1="71.38" x2="92.45" y2="110.28" xlink:href="#linear-gradient"/></defs><title>soluciones</title><path class="cls-1" d="M49.12,135.59a32.13,32.13,0,0,0,45.59,0l39.71-40.06a32.82,32.82,0,0,0,0-46L94.71,9.49a32.13,32.13,0,0,0-45.59,0L9.4,49.54a32.81,32.81,0,0,0,0,46Z"/><path class="cls-2" d="M124.51,141.82a25.72,25.72,0,0,0,36.49,0l32.78-33.07a26.27,26.27,0,0,0,0-36.81L161,38.88a25.72,25.72,0,0,0-36.49,0L91.73,71.95a26.27,26.27,0,0,0,0,36.81Z"/><path class="cls-2" d="M42.69,182.29a25.72,25.72,0,0,0,36.49,0L112,149.22a26.27,26.27,0,0,0,0-36.81L79.18,79.35a25.72,25.72,0,0,0-36.49,0L9.91,112.41a26.27,26.27,0,0,0,0,36.81Z"/><path class="cls-3" d="M70.55,64.37a2.94,2.94,0,0,0-2.94,2.94v47a2.94,2.94,0,0,0,5.88,0v-47A2.94,2.94,0,0,0,70.55,64.37Z"/><path class="cls-4" d="M108.76,79.07a11.76,11.76,0,1,0,11.76,11.76A11.77,11.77,0,0,0,108.76,79.07Zm0,17.64a5.88,5.88,0,1,1,5.88-5.88A5.88,5.88,0,0,1,108.76,96.7Z"/><path class="cls-5" d="M135.22,49.68H64.67A11.76,11.76,0,0,0,52.92,61.43v58.8a11.76,11.76,0,0,0,8.82,11.37v3.33a2.94,2.94,0,0,0,5.88,0V132h64.67v2.94a2.94,2.94,0,0,0,5.88,0v-3.33A11.76,11.76,0,0,0,147,120.23V61.43A11.76,11.76,0,0,0,135.22,49.68Zm5.87,70.55a5.88,5.88,0,0,1-5.87,5.87H64.67a5.88,5.88,0,0,1-5.87-5.87V61.43a5.88,5.88,0,0,1,5.87-5.87h70.56a5.88,5.88,0,0,1,5.87,5.87Z"/><path class="cls-6" d="M131.27,94.59c-2.41-3.45-2.41-4.09,0-7.54l.19-.32a8.85,8.85,0,0,0,.21-9.13,8.76,8.76,0,0,0-8-4.39h-.39c-4.2.36-4.74,0-6.53-3.77l-.17-.32a8.78,8.78,0,0,0-15.62,0l-.18.32c-1.78,3.81-2.33,4.13-6.53,3.77h-.38a8.79,8.79,0,0,0-7.81,13.51l.2.33c2.41,3.45,2.41,4.09,0,7.54l-.2.32a8.79,8.79,0,0,0,7.8,13.52h.38c4.21-.36,4.75,0,6.53,3.77l.18.32a8.79,8.79,0,0,0,15.62,0l.18-.33c1.79-3.81,2.33-4.13,6.53-3.77h.38a8.79,8.79,0,0,0,7.81-13.51Zm-4.69,6.52a2.87,2.87,0,0,1-2.8,1.44h-.33c-6.29-.48-9.15,1.17-11.89,6.87l-.15.28a3,3,0,0,1-5.31,0l-.15-.28c-2.73-5.7-5.59-7.35-11.88-6.88h-.33A2.91,2.91,0,0,1,91.1,98l.17-.28c3.56-5.21,3.56-8.5,0-13.72l-.17-.28a2.91,2.91,0,0,1,2.65-4.59h.32c6.32.49,9.15-1.17,11.89-6.87l.14-.27a3,3,0,0,1,5.31,0l.14.27c2.73,5.71,5.57,7.37,11.89,6.88h.33a2.91,2.91,0,0,1,2.65,4.59l-.17.28c-3.56,5.21-3.56,8.51,0,13.72l.18.28A2.91,2.91,0,0,1,126.58,101.12Z"/></svg>