<svg id="Layer_1" data-name="Layer 1" xmlns="http://www.w3.org/2000/svg" xmlns:xlink="http://www.w3.org/1999/xlink" viewBox="0 0 129.25 101"><defs><style>.cls-1{fill:#acd6f2;}.cls-2{fill:url(#linear-gradient);}.cls-3{fill:url(#linear-gradient-2);}</style><linearGradient id="linear-gradient" x1="98.97" y1="30.82" x2="50.78" y2="88.25" gradientUnits="userSpaceOnUse"><stop offset="0" stop-color="#006dff"/><stop offset="1" stop-color="#43d2f1"/></linearGradient><linearGradient id="linear-gradient-2" x1="100.86" y1="70.04" x2="93.1" y2="79.28" xlink:href="#linear-gradient"/></defs><title>icono-soluciones</title><circle class="cls-1" cx="115.04" cy="45.18" r="2.71"/><circle class="cls-1" cx="109.63" cy="23.53" r="2.71"/><path class="cls-1" d="M96.44,7.3h0a2.71,2.71,0,0,1-2.71-2.71h0A2.71,2.71,0,0,0,91,1.88h0a2.71,2.71,0,0,0-2.71,2.71h0A2.71,2.71,0,0,1,85.62,7.3h0A2.71,2.71,0,0,0,82.91,10h0a2.71,2.71,0,0,0,2.71,2.71h0a2.71,2.71,0,0,1,2.71,2.71h0A2.71,2.71,0,0,0,91,18.12h0a2.71,2.71,0,0,0,2.71-2.71h0a2.71,2.71,0,0,1,2.71-2.71h0A2.71,2.71,0,0,0,99.14,10h0A2.71,2.71,0,0,0,96.44,7.3Z"/><circle class="cls-1" cx="28.79" cy="57" r="2.12"/><circle class="cls-1" cx="39.56" cy="88.77" r="2.12"/><path class="cls-1" d="M22.09,76.77h0A2.12,2.12,0,0,1,20,74.65h0a2.12,2.12,0,0,0-2.12-2.12h0a2.12,2.12,0,0,0-2.12,2.12h0a2.12,2.12,0,0,1-2.12,2.12h0a2.12,2.12,0,0,0-2.12,2.12h0A2.12,2.12,0,0,0,13.62,81h0a2.12,2.12,0,0,1,2.12,2.12h0a2.12,2.12,0,0,0,2.12,2.12h0A2.12,2.12,0,0,0,20,83.12h0A2.12,2.12,0,0,1,22.09,81h0a2.12,2.12,0,0,0,2.12-2.12h0A2.12,2.12,0,0,0,22.09,76.77Z"/><path class="cls-2" d="M97.47,55.69V33a7.29,7.29,0,0,0-7.29-7.29H81.09V23.11a2.63,2.63,0,1,0-5.26,0v2.46H57.77V23.11a2.63,2.63,0,0,0-5.26,0v2.46H43.43a7.29,7.29,0,0,0-7.29,7.29v39.7a7.29,7.29,0,0,0,7.29,7.29H73.21A21.79,21.79,0,1,0,97.47,55.69Zm-54-24.85h9.08v2.46a2.63,2.63,0,1,0,5.26,0V30.83H75.84v2.46a2.63,2.63,0,1,0,5.26,0V30.83h9.08A2.1,2.1,0,0,1,92.29,33v8.91H41.4V33A2.08,2.08,0,0,1,43.43,30.83Zm-2,41.82V47h50.9v8.65a21.8,21.8,0,0,0-19,19H43.43A2.06,2.06,0,0,1,41.4,72.65ZM94.92,93.94A16.58,16.58,0,1,1,111.55,77.4,16.65,16.65,0,0,1,94.92,93.94Z"/><path class="cls-3" d="M102.13,74.69H97.47V68.41a2.63,2.63,0,0,0-5.26,0v8.91a2.64,2.64,0,0,0,2.63,2.63h7.29a2.63,2.63,0,1,0,0-5.26Z"/></svg>