<svg id="Layer_1" data-name="Layer 1" xmlns="http://www.w3.org/2000/svg" xmlns:xlink="http://www.w3.org/1999/xlink" viewBox="0 0 201.31 189.88"><defs><style>.cls-1{fill:#ecf8fc;}.cls-2{fill:#f3fdff;}.cls-3{fill:url(#linear-gradient);}.cls-4{fill:url(#linear-gradient-2);}</style><linearGradient id="linear-gradient" x1="137.02" y1="49.4" x2="73.09" y2="125.59" gradientUnits="userSpaceOnUse"><stop offset="0" stop-color="#006dff"/><stop offset="1" stop-color="#43d2f1"/></linearGradient><linearGradient id="linear-gradient-2" x1="103.56" y1="88.89" x2="80.43" y2="116.46" xlink:href="#linear-gradient"/></defs><title>soluciones</title><path class="cls-1" d="M49.12,135.59a32.13,32.13,0,0,0,45.59,0l39.71-40.06a32.82,32.82,0,0,0,0-46L94.71,9.49a32.13,32.13,0,0,0-45.59,0L9.4,49.54a32.81,32.81,0,0,0,0,46Z"/><path class="cls-2" d="M124.51,141.82a25.72,25.72,0,0,0,36.49,0l32.78-33.07a26.27,26.27,0,0,0,0-36.81L161,38.88a25.72,25.72,0,0,0-36.49,0L91.73,71.95a26.27,26.27,0,0,0,0,36.81Z"/><path class="cls-2" d="M42.69,182.29a25.72,25.72,0,0,0,36.49,0L112,149.22a26.27,26.27,0,0,0,0-36.81L79.18,79.35a25.72,25.72,0,0,0-36.49,0L9.91,112.41a26.27,26.27,0,0,0,0,36.81Z"/><path class="cls-3" d="M142.74,93.19a2.93,2.93,0,0,0-2.82-3.08,2.91,2.91,0,0,0-3,2.81c0,.07,0,.13,0,.19a36.68,36.68,0,1,1-11-26l3.66,3.59-16.75-.55a3,3,0,0,0-2.18.71,2.91,2.91,0,0,0,1.73,5.1h.19l22.64.75a2.91,2.91,0,0,0,3-2.81c0-.06,0-.12,0-.19l-.75-22.57a2.91,2.91,0,0,0-3-2.89h-.09a2.92,2.92,0,0,0-2.77,3l.44,13.5-3.49-3.13a42.33,42.33,0,0,0-67.44,47.69l.15.37a42.39,42.39,0,0,0,81.44-16.52Z"/><path class="cls-4" d="M100.13,123.65A30.58,30.58,0,0,1,78.51,71.44a3,3,0,0,1,4.24,4.24,24.58,24.58,0,0,0,34.76,34.76,3,3,0,0,1,4.24,4.24A30.38,30.38,0,0,1,100.13,123.65Z"/></svg>