<svg id="Layer_1" data-name="Layer 1" xmlns="http://www.w3.org/2000/svg" xmlns:xlink="http://www.w3.org/1999/xlink" viewBox="0 0 129.25 101"><defs><style>.cls-1{fill:#acd6f2;}.cls-2{fill:url(#linear-gradient);}</style><linearGradient id="linear-gradient" x1="98.61" y1="12.35" x2="36.81" y2="85.99" gradientUnits="userSpaceOnUse"><stop offset="0" stop-color="#006dff"/><stop offset="1" stop-color="#43d2f1"/></linearGradient></defs><title>icono-soluciones</title><circle class="cls-1" cx="118.75" cy="50.29" r="2.71"/><circle class="cls-1" cx="121.34" cy="25.65" r="2.71"/><path class="cls-1" d="M113.14,6.41h0a2.71,2.71,0,0,1-2.71-2.71h0A2.71,2.71,0,0,0,107.73,1h0A2.71,2.71,0,0,0,105,3.71h0a2.71,2.71,0,0,1-2.71,2.71h0a2.71,2.71,0,0,0-2.71,2.71h0a2.71,2.71,0,0,0,2.71,2.71h0A2.71,2.71,0,0,1,105,14.53h0a2.71,2.71,0,0,0,2.71,2.71h0a2.71,2.71,0,0,0,2.71-2.71h0a2.71,2.71,0,0,1,2.71-2.71h0a2.71,2.71,0,0,0,2.71-2.71h0A2.71,2.71,0,0,0,113.14,6.41Z"/><circle class="cls-1" cx="22.5" cy="66.12" r="2.12"/><circle class="cls-1" cx="33.26" cy="97.88" r="2.12"/><path class="cls-1" d="M15.79,85.88h0a2.12,2.12,0,0,1-2.12-2.12h0a2.12,2.12,0,0,0-2.12-2.12h0a2.12,2.12,0,0,0-2.12,2.12h0a2.12,2.12,0,0,1-2.12,2.12h0A2.12,2.12,0,0,0,5.21,88h0a2.12,2.12,0,0,0,2.12,2.12h0a2.12,2.12,0,0,1,2.12,2.12h0a2.12,2.12,0,0,0,2.12,2.12h0a2.12,2.12,0,0,0,2.12-2.12h0a2.12,2.12,0,0,1,2.12-2.12h0A2.12,2.12,0,0,0,17.91,88h0A2.12,2.12,0,0,0,15.79,85.88Z"/><path class="cls-2" d="M48.31,2a2,2,0,0,0-1.83,2V29.59a2,2,0,1,0,4,.06s0,0,0-.06V6H67.37V29.59a2,2,0,1,0,4,.06s0,0,0-.06V6h3.44V29.59a2,2,0,1,0,4,.06s0,0,0-.06V6h4.61V29.59a2,2,0,1,0,4,.06s0,0,0-.06V4a2,2,0,0,0-2-2H48.31ZM41.42,24.34a2,2,0,0,0-.88.38,11.77,11.77,0,0,0-4.87,9.67v45c0,6.3,4.8,11.6,10.87,11.6h41c6.07,0,10.87-5.3,10.87-11.6v-45a11.81,11.81,0,0,0-4.84-9.67A2,2,0,1,0,91.2,28h0a7.67,7.67,0,0,1,3.07,5.56H39.78A7.73,7.73,0,0,1,42.87,28a2,2,0,0,0-1.45-3.67ZM39.71,37.65H94.33V79.4c0,4.3-3.1,7.55-6.83,7.55h-41c-3.73,0-6.83-3.26-6.83-7.55Zm6.83,2.72a2,2,0,0,0-1.83,2v9.73a2,2,0,0,0,2,2H87.31a2,2,0,0,0,2-2V42.39a2,2,0,0,0-2-2H46.54Zm2.21,4H85.29V50.1H48.75ZM52.1,57.12c-3,0-5.37,1.51-5.37,3.38s2.41,3.38,5.37,3.38,5.34-1.51,5.34-3.38S55.06,57.12,52.1,57.12Zm14.92,0c-3,0-5.37,1.51-5.37,3.38s2.41,3.38,5.37,3.38,5.37-1.51,5.37-3.38S70,57.12,67,57.12Zm14.92,0c-3,0-5.34,1.51-5.34,3.38s2.38,3.38,5.34,3.38,5.37-1.51,5.37-3.38S84.9,57.12,81.94,57.12ZM52.1,66.54c-3,0-5.37,1.51-5.37,3.38s2.41,3.38,5.37,3.38,5.34-1.51,5.34-3.38S55.06,66.54,52.1,66.54Zm14.92,0c-3,0-5.37,1.51-5.37,3.38S64.06,73.3,67,73.3s5.37-1.51,5.37-3.38S70,66.54,67,66.54Zm14.92,0c-3,0-5.34,1.51-5.34,3.38S79,73.3,81.94,73.3s5.37-1.51,5.37-3.38S84.9,66.54,81.94,66.54ZM52.1,76c-3,0-5.37,1.48-5.37,3.35s2.41,3.38,5.37,3.38,5.34-1.51,5.34-3.38S55.06,76,52.1,76ZM67,76c-3,0-5.37,1.48-5.37,3.35s2.41,3.38,5.37,3.38,5.37-1.51,5.37-3.38S70,76,67,76Zm14.92,0c-3,0-5.34,1.48-5.34,3.35s2.38,3.38,5.34,3.38,5.37-1.51,5.37-3.38S84.9,76,81.94,76Z"/></svg>