<svg id="Layer_1" data-name="Layer 1" xmlns="http://www.w3.org/2000/svg" xmlns:xlink="http://www.w3.org/1999/xlink" viewBox="0 0 129.25 101"><defs><style>.cls-1{fill:url(#linear-gradient);}.cls-2{fill:url(#linear-gradient-2);}.cls-3{fill:url(#linear-gradient-3);}.cls-4{fill:#acd6f2;}</style><linearGradient id="linear-gradient" x1="75.84" y1="49.85" x2="51.71" y2="78.61" gradientUnits="userSpaceOnUse"><stop offset="0" stop-color="#006dff"/><stop offset="1" stop-color="#43d2f1"/></linearGradient><linearGradient id="linear-gradient-2" x1="88.03" y1="37.34" x2="81.15" y2="45.55" xlink:href="#linear-gradient"/><linearGradient id="linear-gradient-3" x1="95.57" y1="27.87" x2="85.3" y2="40.11" xlink:href="#linear-gradient"/></defs><title>icono-soluciones</title><path class="cls-1" d="M58.19,36a9.48,9.48,0,0,1,.46,13.4q-.22.24-.46.46l-4,3.92A147.8,147.8,0,0,0,74,73.1l4.32-3.92a10.07,10.07,0,0,1,14.23,0L99,75.52a9.87,9.87,0,0,1,.62,13c-1.54,2.42-4.32,4.22-6.18,6.34-6.18,6-18.55,1.51-30.61-7.27A108.61,108.61,0,0,1,39.66,65c-9.27-12.06-13.9-23.82-7.72-29.85a66.82,66.82,0,0,1,6.8-6.34,9.76,9.76,0,0,1,13,.91Zm-9.56,17.5,6.8-6.63a5.92,5.92,0,0,0,0-8.14l-6.49-6.36a6.23,6.23,0,0,0-8-.31c-1.82,1.51-4,3.92-5.87,5.72C30.7,42,35,52,42.75,62.52a117.11,117.11,0,0,0,22.57,21.8C75.83,92.18,86,96.39,90.37,92.18c1.82-1.82,4.32-3.92,6.18-6a5.87,5.87,0,0,0-.62-7.85L89.44,72a6.29,6.29,0,0,0-8.36,0l-6.8,6.63A153.16,153.16,0,0,1,48.63,53.51Z"/><path class="cls-2" d="M91.55,53.53a2.44,2.44,0,0,1-2.44-2.44A13.93,13.93,0,0,0,75.18,37.16a2.44,2.44,0,0,1,0-4.87A18.83,18.83,0,0,1,94,51.09,2.44,2.44,0,0,1,91.55,53.53Z"/><path class="cls-3" d="M102.6,53.87h-.19a2.44,2.44,0,0,1-2.24-2.62h0q.07-.95.07-1.91a24.05,24.05,0,0,0-24-24,24.3,24.3,0,0,0-3.08.19,2.44,2.44,0,1,1-.78-4.81l.17,0a29.25,29.25,0,0,1,3.69-.24,28.93,28.93,0,0,1,28.9,28.9q0,1.16-.08,2.28A2.44,2.44,0,0,1,102.6,53.87Z"/><circle class="cls-4" cx="99.97" cy="63.72" r="2.7"/><circle class="cls-4" cx="78.82" cy="6.12" r="2.7"/><path class="cls-4" d="M62.62,14.22h0a2.7,2.7,0,0,1-2.7-2.7h0a2.7,2.7,0,0,0-2.7-2.7h0a2.7,2.7,0,0,0-2.7,2.7h0a2.7,2.7,0,0,1-2.7,2.7h0a2.7,2.7,0,0,0-2.7,2.7h0a2.7,2.7,0,0,0,2.7,2.7h0a2.7,2.7,0,0,1,2.7,2.7h0a2.7,2.7,0,0,0,2.7,2.7h0a2.7,2.7,0,0,0,2.7-2.7h0a2.7,2.7,0,0,1,2.7-2.7h0a2.7,2.7,0,0,0,2.7-2.7h0A2.7,2.7,0,0,0,62.62,14.22Z"/><circle class="cls-4" cx="41.56" cy="90.28" r="2.11"/><circle class="cls-4" cx="55.52" cy="95.3" r="2.11"/><path class="cls-4" d="M34.69,73.68h0a2.11,2.11,0,0,1-2.11-2.11h0a2.11,2.11,0,0,0-2.11-2.11h0a2.11,2.11,0,0,0-2.11,2.11h0a2.11,2.11,0,0,1-2.11,2.11h0a2.11,2.11,0,0,0-2.11,2.11h0a2.11,2.11,0,0,0,2.11,2.11h0A2.11,2.11,0,0,1,28.35,80h0a2.11,2.11,0,0,0,2.11,2.11h0A2.11,2.11,0,0,0,32.58,80h0a2.11,2.11,0,0,1,2.11-2.11h0A2.11,2.11,0,0,0,36.8,75.8h0A2.11,2.11,0,0,0,34.69,73.68Z"/></svg>