<?xml version="1.0" encoding="utf-8"?>
<!-- Generator: Adobe Illustrator 21.1.0, SVG Export Plug-In . SVG Version: 6.00 Build 0)  -->
<svg version="1.1" id="Layer_1" xmlns="http://www.w3.org/2000/svg" xmlns:xlink="http://www.w3.org/1999/xlink" x="0px" y="0px"
	 viewBox="0 0 129.2 101" style="enable-background:new 0 0 129.2 101;" xml:space="preserve">
<style type="text/css">
	.st0{fill:#ACD6F2;}
	.st1{fill:url(#SVGID_1_);}
	.st2{fill:url(#SVGID_2_);}
</style>
<title>icono-soluciones</title>
<circle class="st0" cx="109.1" cy="44.7" r="2.7"/>
<circle class="st0" cx="103.7" cy="23" r="2.7"/>
<path class="st0" d="M90.5,6.8L90.5,6.8c-1.5,0-2.7-1.2-2.7-2.7l0,0c0-1.5-1.2-2.7-2.7-2.7l0,0c-1.5,0-2.7,1.2-2.7,2.7l0,0
	c0,1.5-1.2,2.7-2.7,2.7l0,0C78.2,6.8,77,8,77,9.5l0,0c0,1.5,1.2,2.7,2.7,2.7l0,0c1.5,0,2.7,1.2,2.7,2.7c0,0,0,0,0,0l0,0
	c0,1.5,1.2,2.7,2.7,2.7l0,0c1.5,0,2.7-1.2,2.7-2.7l0,0c0-1.5,1.2-2.7,2.7-2.7l0,0c1.5,0,2.7-1.2,2.7-2.7l0,0C93.2,8,92,6.8,90.5,6.8
	C90.5,6.8,90.5,6.8,90.5,6.8z"/>
<circle class="st0" cx="17.3" cy="59.5" r="2.1"/>
<circle class="st0" cx="30.6" cy="93.4" r="2.1"/>
<path class="st0" d="M21.5,76.7L21.5,76.7c-1.2,0-2.1-0.9-2.1-2.1l0,0l0,0c0-1.2-0.9-2.1-2.1-2.1c0,0,0,0,0,0l0,0
	c-1.2,0-2.1,1-2.1,2.1l0,0c0,1.2-0.9,2.1-2.1,2.1c0,0,0,0,0,0l0,0c-1.2,0-2.1,0.9-2.1,2.1l0,0c0,1.2,0.9,2.1,2.1,2.1c0,0,0,0,0,0
	l0,0c1.2,0,2.1,0.9,2.1,2.1l0,0l0,0c0,1.2,0.9,2.1,2.1,2.1c0,0,0,0,0,0l0,0c1.2,0,2.1-0.9,2.1-2.1l0,0l0,0c0-1.2,0.9-2.1,2.1-2.1
	c0,0,0,0,0,0l0,0c1.2,0,2.1-0.9,2.1-2.1l0,0l0,0C23.6,77.6,22.7,76.6,21.5,76.7C21.5,76.7,21.5,76.7,21.5,76.7z"/>
<g>
	<linearGradient id="SVGID_1_" gradientUnits="userSpaceOnUse" x1="94.2831" y1="33.9513" x2="41.2831" y2="74.9513">
		<stop  offset="0" style="stop-color:#006DFF"/>
		<stop  offset="1" style="stop-color:#43D2F1"/>
	</linearGradient>
	<path class="st1" d="M65.8,51.3L65.8,51.3c-1.1,1.2-1.1,2.9,0,3.9l0.1,0.1c2.4,2.5,2.4,6.5-0.1,9L50.6,79.5c-2.5,2.5-6.6,2.5-9.1,0
		l-2.3-2.3c-2.5-2.5-2.5-6.6,0-9.1L54.4,53c0.5-0.5,0.8-1.2,0.9-1.9c0-0.7-0.3-1.4-0.8-2c-1.1-1.1-2.8-1.2-3.9-0.1L35.3,64.2
		c-4.7,4.7-4.7,12.2,0,16.9l2.3,2.3C39.9,85.8,43,87,46,87c3.1,0,6.1-1.2,8.5-3.5l15.2-15.2c4.7-4.7,4.7-12.3,0-16.9
		C68.6,50.3,66.8,50.2,65.8,51.3z"/>
	<linearGradient id="SVGID_2_" gradientUnits="userSpaceOnUse" x1="93.6899" y1="33.1846" x2="40.6899" y2="74.1846">
		<stop  offset="0" style="stop-color:#006DFF"/>
		<stop  offset="1" style="stop-color:#43D2F1"/>
	</linearGradient>
	<path class="st2" d="M94,31.4l-2.3-2.3c-4.7-4.7-12.3-4.7-16.9,0L59.6,44.3c-4.7,4.7-4.7,12.3,0,16.9c1.1,1.1,2.8,1.1,3.9,0
		c1.1-1.1,1.1-2.8,0-3.9c-2.5-2.5-2.5-6.6,0-9.1L78.7,33c2.5-2.5,6.6-2.5,9.1,0l2.3,2.3c2.5,2.5,2.5,6.6,0,9.1L74.9,59.6
		c-1.1,1.1-1.1,2.9,0,3.9c0.5,0.5,1.2,0.8,2,0.8c0,0,0,0,0,0c0.7,0,1.5-0.3,2-0.8L94,48.3C98.7,43.7,98.7,36.1,94,31.4z"/>
</g>
</svg>
