<svg id="Layer_1" data-name="Layer 1" xmlns="http://www.w3.org/2000/svg" xmlns:xlink="http://www.w3.org/1999/xlink" viewBox="0 0 129.25 101"><defs><style>.cls-1{fill:#acd6f2;}.cls-2{fill:url(#linear-gradient);}.cls-3{fill:url(#linear-gradient-2);}</style><linearGradient id="linear-gradient" x1="97.2" y1="32.77" x2="43.07" y2="97.27" gradientUnits="userSpaceOnUse"><stop offset="0" stop-color="#006dff"/><stop offset="1" stop-color="#43d2f1"/></linearGradient><linearGradient id="linear-gradient-2" x1="75.99" y1="60.23" x2="61.61" y2="77.37" xlink:href="#linear-gradient"/></defs><title>icono-soluciones</title><circle class="cls-1" cx="117.54" cy="43.29" r="2.71"/><circle class="cls-1" cx="112.13" cy="21.65" r="2.71"/><path class="cls-1" d="M98.94,5.41h0a2.71,2.71,0,0,1-2.71-2.71h0A2.71,2.71,0,0,0,93.53,0h0a2.71,2.71,0,0,0-2.71,2.71h0a2.71,2.71,0,0,1-2.71,2.71h0a2.71,2.71,0,0,0-2.71,2.71h0a2.71,2.71,0,0,0,2.71,2.71h0a2.71,2.71,0,0,1,2.71,2.71h0a2.71,2.71,0,0,0,2.71,2.71h0a2.71,2.71,0,0,0,2.71-2.71h0a2.71,2.71,0,0,1,2.71-2.71h0a2.71,2.71,0,0,0,2.71-2.71h0A2.71,2.71,0,0,0,98.94,5.41Z"/><circle class="cls-1" cx="26.29" cy="67.12" r="2.12"/><circle class="cls-1" cx="37.06" cy="98.88" r="2.12"/><path class="cls-1" d="M19.59,86.88h0a2.12,2.12,0,0,1-2.12-2.12h0a2.12,2.12,0,0,0-2.12-2.12h0a2.12,2.12,0,0,0-2.12,2.12h0a2.12,2.12,0,0,1-2.12,2.12h0A2.12,2.12,0,0,0,9,89H9a2.12,2.12,0,0,0,2.12,2.12h0a2.12,2.12,0,0,1,2.12,2.12h0a2.12,2.12,0,0,0,2.12,2.12h0a2.12,2.12,0,0,0,2.12-2.12h0a2.12,2.12,0,0,1,2.12-2.12h0A2.12,2.12,0,0,0,21.71,89h0A2.12,2.12,0,0,0,19.59,86.88Z"/><path class="cls-2" d="M94.78,42.67a25.67,25.67,0,0,0-51.33,0v8.56H39.17V94H99.06V51.22H94.78Zm-47.06,0a21.39,21.39,0,1,1,42.78,0v8.56H86.22V42.67a17.11,17.11,0,0,0-34.22,0v8.56H47.72Zm34.22,0v8.56H56.28V42.67a12.83,12.83,0,0,1,25.67,0ZM94.78,89.72H43.44V55.5H94.78Z"/><path class="cls-3" d="M65.43,80.57a2.28,2.28,0,0,0,3.08,0L81.35,67.73a2.12,2.12,0,0,0-3-3L67,76l-7-7a2.12,2.12,0,0,0-3,3Z"/></svg>