<svg xmlns="http://www.w3.org/2000/svg" id="P-02-04" width="100.8" height="94.1" viewBox="0 0 100.8 94.1">
    <defs>
        <linearGradient id="linear-gradient" x1=".5" x2=".5" y2="1" gradientUnits="objectBoundingBox">
            <stop offset="0" stop-color="#006dff"/>
            <stop offset="1" stop-color="#43d2f1"/>
        </linearGradient>
        <clipPath id="clip-path">
            <path id="Rectángulo_2116" d="M0 0H62.781V62.781H0z" transform="translate(4 4)"/>
        </clipPath>
        <style>
            .cls-1{fill:#acd6f2}
        </style>
    </defs>
    <circle id="Elipse_70" cx="2.7" cy="2.7" r="2.7" class="cls-1" transform="translate(95.4 40.6)"/>
    <circle id="Elipse_71" cx="2.7" cy="2.7" r="2.7" class="cls-1" transform="translate(90 18.9)"/>
    <path id="Trazado_3493" d="M90.5 6.8a2.689 2.689 0 0 1-2.7-2.7 2.689 2.689 0 0 0-2.7-2.7 2.689 2.689 0 0 0-2.7 2.7 2.689 2.689 0 0 1-2.7 2.7A2.689 2.689 0 0 0 77 9.5a2.689 2.689 0 0 0 2.7 2.7 2.689 2.689 0 0 1 2.7 2.7 2.689 2.689 0 0 0 2.7 2.7 2.689 2.689 0 0 0 2.7-2.7 2.689 2.689 0 0 1 2.7-2.7 2.689 2.689 0 0 0 2.7-2.7 2.689 2.689 0 0 0-2.7-2.7z" class="cls-1" transform="translate(-11 -1.4)"/>
    <circle id="Elipse_72" cx="2.1" cy="2.1" r="2.1" class="cls-1" transform="translate(4.2 56)"/>
    <circle id="Elipse_73" cx="2.1" cy="2.1" r="2.1" class="cls-1" transform="translate(17.5 89.9)"/>
    <path id="Trazado_3494" d="M21.5 76.7a2.051 2.051 0 0 1-2.1-2.1 2.051 2.051 0 0 0-2.1-2.1 2.112 2.112 0 0 0-2.1 2.1 2.051 2.051 0 0 1-2.1 2.1 2.051 2.051 0 0 0-2.1 2.1 2.051 2.051 0 0 0 2.1 2.1 2.051 2.051 0 0 1 2.1 2.1 2.051 2.051 0 0 0 2.1 2.1 2.051 2.051 0 0 0 2.1-2.1 2.051 2.051 0 0 1 2.1-2.1 2.051 2.051 0 0 0 2.1-2.1 1.994 1.994 0 0 0-2.1-2.1z" class="cls-1" transform="translate(-11 -1.4)"/>
    <g id="Icon_-_TPV_Virtual" clip-path="url(#clip-path)" transform="translate(17.7 18.585)">
        <path id="Icon_metro-qrcode" fill="url(#linear-gradient)" stroke="rgba(0,0,0,0)" stroke-miterlimit="10" d="M20.1 5.433H6.076v14.021H20.1zm3.5-3.505v21.031H2.571V1.928zM9.581 8.938h7.01v7.01h-7.01zm45.567-3.505H41.127v14.021h14.021zm3.505-3.505v21.031H37.622V1.928h21.031zm-14.021 7.01h7.01v7.01h-7.01zM20.1 40.485H6.076v14.02H20.1zm3.5-3.506V58.01H2.571V36.979zM9.581 43.99h7.01V51h-7.01zM27.107 1.928h3.505v3.505h-3.505zm3.505 3.505h3.505v3.505h-3.505zm-3.505 3.505h3.505v3.505h-3.505zm3.505 3.505h3.505v3.505h-3.505zm-3.505 3.505h3.505v3.505h-3.505zm3.505 3.505h3.505v3.505h-3.505zm-3.505 3.505h3.505v3.505h-3.505zm0 7.01h3.505v3.505h-3.505zm3.505 3.505h3.505v3.505h-3.505zm-3.505 3.505h3.505v3.505h-3.505zm3.505 3.505h3.505v3.507h-3.505zm-3.505 3.507h3.505v3.505h-3.505zm3.505 3.505h3.505V51h-3.505zM27.107 51h3.505v3.505h-3.505zm3.505 3.505h3.505v3.505h-3.505zm24.536-24.536h3.505v3.505h-3.505zm-49.072 0h3.505v3.505H6.076zm3.505-3.505h3.505v3.505H9.581zm-7.01 0h3.505v3.505H2.571zm14.021 0H20.1v3.505h-3.509zm3.508 3.505h3.5v3.505h-3.5zm3.5-3.505h3.505v3.505H23.6zm10.515 3.505h3.505v3.505h-3.503zm3.505-3.505h3.505v3.505h-3.503zm3.505 3.505h3.505v3.505h-3.503zm3.505-3.505h3.505v3.505h-3.503zm3.505 3.505h3.505v3.505h-3.502zm3.505-3.505h3.505v3.505h-3.502zm3.505 10.515h3.505v3.505h-3.502zm-21.031 0h3.505v3.505h-3.502zm3.505-3.505h3.505v3.505h-3.502zm3.505 3.505h3.505v3.505h-3.502zm7.01 0h3.505v3.505h-3.501zm3.505-3.505h3.505v3.505h-3.501zm3.509 10.516h3.505v3.505h-3.505zm-21.031 0h3.505v3.505h-3.505zm3.505-3.505h3.505v3.505h-3.505zm7.01 0h3.505v3.505h-3.505zm3.505 3.505h3.505v3.505h-3.504zm3.505-3.505h3.505v3.505h-3.504zM55.148 51h3.505v3.505h-3.505zm-17.526-3.505h3.505V51h-3.505zM41.127 51h3.505v3.505h-3.505zm3.505-3.505h3.505V51h-3.505zM48.138 51h3.505v3.505h-3.505zm-10.516 3.505h3.505v3.505h-3.505zm7.01 0h3.505v3.505h-3.505zm7.01 0h3.505v3.505h-3.504z" transform="translate(5.036 5.209)"/>
    </g>
</svg>
