<svg id="Layer_1" data-name="Layer 1" xmlns="http://www.w3.org/2000/svg" xmlns:xlink="http://www.w3.org/1999/xlink" viewBox="0 0 129.25 101"><defs><style>.cls-1{fill:url(#linear-gradient);}.cls-2{fill:url(#linear-gradient-2);}.cls-3{fill:url(#linear-gradient-3);}.cls-4{fill:#acd6f2;}</style><linearGradient id="linear-gradient" x1="76.71" y1="16.85" x2="30.75" y2="71.63" gradientUnits="userSpaceOnUse"><stop offset="0" stop-color="#006dff"/><stop offset="1" stop-color="#43d2f1"/></linearGradient><linearGradient id="linear-gradient-2" x1="56.16" y1="83.77" x2="44.44" y2="97.74" xlink:href="#linear-gradient"/><linearGradient id="linear-gradient-3" x1="95.3" y1="57.91" x2="70.11" y2="87.93" xlink:href="#linear-gradient"/></defs><title>icono-soluciones</title><path class="cls-1" d="M44.93,74.2l2.55-6.09,18.15-1.45-1.18-5.14L47.37,62.89l-9-22.48h56L91.31,53.74l4.77,2.66,4.16-18a2.75,2.75,0,0,0-2.56-3.18H36.28l-3.06-7.66a2.67,2.67,0,0,0-2.42-1.63h-13a2.61,2.61,0,1,0,0,5.23H29l0,.11c3.26,8.09,6.54,16.3,9.71,24.24l4.05,10.15-4.24,10.2A2.62,2.62,0,0,0,41,79.43H68.55l-1.2-5.23Z"/><path class="cls-2" d="M50.3,81.64a9.12,9.12,0,1,0,9.12,9.12A9.13,9.13,0,0,0,50.3,81.64Zm3.89,9.12a3.89,3.89,0,1,1-3.89-3.89A3.85,3.85,0,0,1,54.19,90.76Z"/><path class="cls-3" d="M109.67,70.57A2.42,2.42,0,0,0,108.5,69L70.63,47.92a2.42,2.42,0,0,0-3.57,2.64l9.69,42.3a2.43,2.43,0,0,0,1.88,1.84,2.39,2.39,0,0,0,1,0,2.44,2.44,0,0,0,1.55-1.13l5-8.51,7.07,9.43a2.44,2.44,0,0,0,1.6,1l.36,0A2.48,2.48,0,0,0,96.73,95L105,88.83a2.41,2.41,0,0,0,.94-1.6,2.35,2.35,0,0,0-.42-1.73L98.35,76l9.57-2.46a2.41,2.41,0,0,0,1.49-1.11h0A2.41,2.41,0,0,0,109.67,70.57Zm-16,1.62h0a2.4,2.4,0,0,0-1.19.73,2.37,2.37,0,0,0-.29.39A2.43,2.43,0,0,0,92.31,76l7.81,10.38-4.36,3.27L88,79.25a2.44,2.44,0,0,0-1.95-1,2.38,2.38,0,0,0-.75.12,2.44,2.44,0,0,0-.7.36,2.39,2.39,0,0,0-.63.7l-3.8,6.38L73,54.8l27.83,15.53Z"/><circle class="cls-4" cx="126.54" cy="44.42" r="2.71"/><circle class="cls-4" cx="121.13" cy="22.77" r="2.71"/><path class="cls-4" d="M107.94,6.54h0a2.71,2.71,0,0,1-2.71-2.71h0a2.71,2.71,0,0,0-2.71-2.71h0a2.71,2.71,0,0,0-2.71,2.71h0a2.71,2.71,0,0,1-2.71,2.71h0a2.71,2.71,0,0,0-2.71,2.71h0a2.71,2.71,0,0,0,2.71,2.71h0a2.71,2.71,0,0,1,2.71,2.71h0a2.71,2.71,0,0,0,2.71,2.71h0a2.71,2.71,0,0,0,2.71-2.71h0a2.71,2.71,0,0,1,2.71-2.71h0a2.71,2.71,0,0,0,2.71-2.71h0A2.71,2.71,0,0,0,107.94,6.54Z"/><circle class="cls-4" cx="17.29" cy="55.24" r="2.12"/><circle class="cls-4" cx="28.06" cy="87.01" r="2.12"/><path class="cls-4" d="M10.59,75h0a2.12,2.12,0,0,1-2.12-2.12h0a2.12,2.12,0,0,0-2.12-2.12h0a2.12,2.12,0,0,0-2.12,2.12h0A2.12,2.12,0,0,1,2.12,75h0A2.12,2.12,0,0,0,0,77.13H0a2.12,2.12,0,0,0,2.12,2.12h0a2.12,2.12,0,0,1,2.12,2.12h0a2.12,2.12,0,0,0,2.12,2.12h0a2.12,2.12,0,0,0,2.12-2.12h0a2.12,2.12,0,0,1,2.12-2.12h0a2.12,2.12,0,0,0,2.12-2.12h0A2.12,2.12,0,0,0,10.59,75Z"/></svg>