<svg id="Layer_1" data-name="Layer 1" xmlns="http://www.w3.org/2000/svg" xmlns:xlink="http://www.w3.org/1999/xlink" viewBox="0 0 129.25 101"><defs><style>.cls-1{fill:url(#linear-gradient);}.cls-2{fill:url(#linear-gradient-2);}.cls-3{fill:url(#linear-gradient-3);}.cls-4{fill:#acd6f2;}</style><linearGradient id="linear-gradient" x1="100.01" y1="30.51" x2="37.04" y2="105.56" gradientUnits="userSpaceOnUse"><stop offset="0" stop-color="#006dff"/><stop offset="1" stop-color="#43d2f1"/></linearGradient><linearGradient id="linear-gradient-2" x1="62.68" y1="71.62" x2="56.41" y2="79.09" xlink:href="#linear-gradient"/><linearGradient id="linear-gradient-3" x1="78.63" y1="71.62" x2="72.36" y2="79.09" xlink:href="#linear-gradient"/></defs><title>icono-soluciones</title><path class="cls-1" d="M105.52,48.48V43.17a2.26,2.26,0,0,0-.37-1.2L93.67,25.29a2.12,2.12,0,0,0-1.74-.91H43.12a2.12,2.12,0,0,0-1.74.91L29.9,42a2.31,2.31,0,0,0-.37,1.2v5.31a9.31,9.31,0,0,0,6,8.68v39H31.63a2.11,2.11,0,1,0,0,4.22h71.78a2.11,2.11,0,0,0,0-4.22H99.54v-39A9.28,9.28,0,0,0,105.52,48.48ZM90.82,28.6l8.57,12.46H90.46L85.33,28.6Zm-10.07,0,5.15,12.46H76.53L74.81,28.6Zm6.19,16.68v3.2a5.07,5.07,0,1,1-10.14,0v-3.2ZM64.48,28.6h6.09l1.72,12.46H62.78Zm-4.26,0L58.5,41.06H49.14L54.28,28.6Zm-2,16.68v3.2a5.07,5.07,0,1,1-10.14,0v-3.2Zm-14-16.68h5.49L44.57,41.06H35.66ZM33.74,48.48v-3.2H43.88v3.2a5.07,5.07,0,0,1-10.14,0ZM65.41,96.16H39.73V57.71A9.32,9.32,0,0,0,46,54.36a9.29,9.29,0,0,0,14.36,0,9.24,9.24,0,0,0,5.07,3.16V96.16Zm-3-47.68v-3.2H72.58v3.2a5.06,5.06,0,1,1-10.13,0ZM95.32,96.16H69.63V57.53a9.38,9.38,0,0,0,5.07-3.16,9.29,9.29,0,0,0,14.36,0,9.32,9.32,0,0,0,6.27,3.35V96.16Zm.91-42.61a5.08,5.08,0,0,1-5.07-5.07v-3.2h10.13v3.2A5.05,5.05,0,0,1,96.23,53.55Z"/><path class="cls-2" d="M57.44,71.74V79a2.11,2.11,0,0,0,4.22,0V71.74a2.11,2.11,0,0,0-4.22,0Z"/><path class="cls-3" d="M75.5,69.64a2.11,2.11,0,0,0-2.11,2.11V79a2.11,2.11,0,0,0,4.22,0V71.74A2.11,2.11,0,0,0,75.5,69.64Z"/><circle class="cls-4" cx="116.72" cy="45.68" r="2.7" transform="translate(61.75 158.33) rotate(-85.36)"/><circle class="cls-4" cx="113.08" cy="23.69" r="2.7" transform="translate(80.33 134.49) rotate(-85.36)"/><path class="cls-4" d="M101.26,6.46h0a2.7,2.7,0,0,1-2.48-2.91h0A2.7,2.7,0,0,0,96.31.63h0a2.7,2.7,0,0,0-2.91,2.48h0a2.7,2.7,0,0,1-2.91,2.48h0a2.7,2.7,0,0,0-2.91,2.48h0A2.7,2.7,0,0,0,90,11h0a2.7,2.7,0,0,1,2.48,2.91h0A2.7,2.7,0,0,0,95,16.8h0a2.7,2.7,0,0,0,2.91-2.48h0a2.7,2.7,0,0,1,2.91-2.48h0a2.7,2.7,0,0,0,2.91-2.48h0A2.7,2.7,0,0,0,101.26,6.46Z"/><circle class="cls-4" cx="22.76" cy="75.54" r="2.16"/><path class="cls-4" d="M20.6,87.75h0a2.16,2.16,0,0,1-2.16-2.16h0a2.16,2.16,0,0,0-2.16-2.16h0a2.16,2.16,0,0,0-2.16,2.16h0A2.16,2.16,0,0,1,12,87.75h0a2.16,2.16,0,0,0-2.16,2.16h0A2.16,2.16,0,0,0,12,92.07h0a2.16,2.16,0,0,1,2.16,2.16h0a2.16,2.16,0,0,0,2.16,2.16h0a2.16,2.16,0,0,0,2.16-2.16h0a2.16,2.16,0,0,1,2.16-2.16h0a2.16,2.16,0,0,0,2.16-2.16h0A2.16,2.16,0,0,0,20.6,87.75Z"/></svg>