<svg width="49" height="46" viewBox="0 0 49 46" fill="none" xmlns="http://www.w3.org/2000/svg">
<path fill-rule="evenodd" clip-rule="evenodd" d="M46.7388 7.92219C46.6903 7.92219 46.631 7.91115 46.5657 7.89899C46.4857 7.88411 46.3966 7.86755 46.3076 7.86755H12.3561L11.8172 4.20695C11.4938 1.80298 9.44596 0 7.02085 0H2.65565C1.47004 0 0.5 0.983444 0.5 2.18543C0.5 3.38742 1.47004 4.37086 2.65565 4.37086H7.02085C7.29031 4.37086 7.50587 4.5894 7.55977 4.86258L10.901 27.9189C11.3322 30.8146 13.8112 33 16.7213 33H39.1401C41.9424 33 44.3676 30.9785 44.9604 28.1921L48.4633 10.4354C48.6789 9.28808 47.9244 8.14073 46.7388 7.92219ZM37 35C33.9856 35 31.5 37.4327 31.5 40.5C31.5 43.5144 33.9327 46 37 46C40.0144 46 42.5 43.5673 42.5 40.5C42.4471 37.4856 40.0144 35 37 35ZM16.9167 35C19.894 35 22.3841 37.3382 22.4923 40.2609C22.6547 43.2899 20.2188 45.8406 17.1333 46H17.025C14.0477 46 11.6118 43.6618 11.5035 40.7391C11.3953 37.7101 13.7771 35.1594 16.9167 35Z" fill="url(#paint0_linear)"/>
<defs>
<linearGradient id="paint0_linear" x1="5.78" y1="3.22" x2="46.6067" y2="47.7364" gradientUnits="userSpaceOnUse">
<stop offset="0.0219092" stop-color="#74EDF4"/>
<stop offset="1" stop-color="#006DFF"/>
</linearGradient>
</defs>
</svg>
